<?xml version="1.0" encoding="utf-8"?>
<!-- Generator: Adobe Illustrator 19.0.0, SVG Export Plug-In . SVG Version: 6.00 Build 0)  -->
<svg version="1.1" id="Layer_1" xmlns="http://www.w3.org/2000/svg" xmlns:xlink="http://www.w3.org/1999/xlink" x="0px" y="0px"
   viewBox="-499 989 24 24" style="enable-background:new -499 989 24 24;" xml:space="preserve">
<style type="text/css">
  .st0{fill:none;}
  .st1{fill:#FFFFFF;}
  .st2{font-family:'Roboto-Bold';}
  .st3{font-size:11px;}
</style>
<g>
  <g>
    <path d="M-496,995.7v12.3c0,1.1,0.9,2,2,2h14c1.1,0,2-0.9,2-2v-12.3H-496z"/>
    <path d="M-478,995.3V994c0-1.1-0.9-2-2-2h-4.2c-0.4-1.2-1.5-2-2.8-2s-2.4,0.8-2.8,2h-4.2c-1.1,0-2,0.9-2,2v1.3H-478z M-487,992
      c0.5,0,1,0.5,1,1s-0.5,1-1,1s-1-0.5-1-1S-487.5,992-487,992z"/>
  </g>
  <path class="st0" d="M-499,989h24v24h-24V989z"/>
  <rect x="-495.2" y="997.9" class="st0" width="16.5" height="9.5"/>
  <text transform="matrix(1 0 0 1 -494.1143 1006.1667)" class="st1 st2 st3">UX</text>
</g>
</svg>
