<svg id="Layer_1" data-name="Layer 1" xmlns="http://www.w3.org/2000/svg" width="3.81in" height="3.81in" viewBox="0 0 274.3 274.3"><defs><style>.cls-1{fill:#194bbc}.cls-2{fill:#fff}.cls-3{fill:#e0e0e0}.cls-10,.cls-11,.cls-4{fill:#4285f4}.cls-5{fill:#a5a5a5}.cls-6{fill:#ea4335}.cls-7{fill:#bdbdbd}.cls-8{fill:#343b43}.cls-9{fill:#c5221f}.cls-10{opacity:.4}.cls-11{opacity:.3}</style></defs><title>icon-bug</title><circle class="cls-1" cx="137.15" cy="137.15" r="137.15"/><path class="cls-2" d="M220.66 197a6 6 0 0 1-6 6H57.17a6 6 0 0 1-6-6V97.86h169.49z"/><path class="cls-3" d="M220.66 97.86H51.19V73.34a6 6 0 0 1 6-6h157.49a6 6 0 0 1 6 6z"/><path class="cls-4" d="M66.14 180.58h64.32v6.71H66.14z"/><path class="cls-1" d="M66.14 167.16h71.02v6.71H66.14z"/><path class="cls-4" d="M88.4 153.75h42.05v6.71H88.4z"/><path class="cls-5" d="M66.14 126.93h42.06v6.71H66.14z"/><path class="cls-1" d="M66.14 113.51h21.03v6.71H66.14z"/><path class="cls-6" d="M137.16 180.58h19.79v6.71h-19.79z"/><path class="cls-5" d="M143.86 167.16h34.12v6.71h-34.12z"/><path class="cls-6" d="M137.16 153.75h19.79v6.71h-19.79zm-71.02 0H81.7v6.71H66.14z"/><path class="cls-4" d="M114.89 126.93h63.08v6.71h-63.08z"/><path class="cls-6" d="M93.87 113.51h63.08v6.71H93.87z"/><path class="cls-5" d="M163.65 180.58h42.06v6.71h-42.06z"/><path class="cls-1" d="M184.68 167.16h21.03v6.71h-21.03zm-21.03-13.41h21.03v6.71h-21.03zm21.03-26.82h21.03v6.71h-21.03z"/><circle class="cls-7" cx="66.14" cy="82.61" r="4.98"/><circle class="cls-7" cx="81.1" cy="82.61" r="4.98"/><circle class="cls-7" cx="96.05" cy="82.61" r="4.98"/><path class="cls-8" d="M198 122.72h-30.91v-8.34a1.89 1.89 0 0 0-1.88-1.88v-1.25a3.13 3.13 0 0 1 3.13 3.13v7.08h28.39v-7.08a3.13 3.13 0 0 1 3.13-3.13v1.25a1.89 1.89 0 0 0-1.88 1.88zm1.86 24.76a3.14 3.14 0 0 1-3.13-3.14v-7.08h-28.39v7.08a3.14 3.14 0 0 1-3.13 3.14v-1.26a1.88 1.88 0 0 0 1.88-1.88V136H198v8.34a1.88 1.88 0 0 0 1.88 1.88z"/><path class="cls-6" d="M172.29 117.16A25.62 25.62 0 0 0 170 128c0 10.4 5.62 18.83 12.55 18.83v-24.71a13.29 13.29 0 0 1-10.26-4.96z"/><path class="cls-9" d="M192.78 117.16a25.62 25.62 0 0 1 2.31 10.84c0 10.4-5.62 18.83-12.56 18.83v-24.71a13.29 13.29 0 0 0 10.25-4.96z"/><path class="cls-8" d="M192.78 117.16a13.06 13.06 0 0 1-20.49 0c2.27-4.82 6-8 10.24-8s7.98 3.18 10.25 8z"/><path class="cls-2" d="M180.57 114.38a1.51 1.51 0 1 1-1.51-1.5 1.51 1.51 0 0 1 1.51 1.5zm6.94 0a1.51 1.51 0 1 1-1.5-1.5 1.5 1.5 0 0 1 1.5 1.5z"/><path class="cls-8" d="M186.63 110.43h-1.25a6.07 6.07 0 0 1 6.07-6.07v1.26a4.82 4.82 0 0 0-4.82 4.81zm-6.94 0h-1.25a4.82 4.82 0 0 0-4.82-4.81v-1.26a6.07 6.07 0 0 1 6.07 6.07z"/><circle class="cls-10" cx="181.45" cy="127.8" r="29.13" transform="rotate(-10.17 181.52 127.84)"/><path class="cls-11" d="M166.94 153.59a29 29 0 0 0 41.7-20.2A29.1 29.1 0 0 1 157 109.92a30.62 30.62 0 0 0-2.86 4.52 29.12 29.12 0 0 0 12.8 39.15z"/><path class="cls-7" transform="rotate(-38.76 204.34 156.66)" d="M201.06 152.73h6.61v7.89h-6.61z"/><path class="cls-5" d="M159.31 100.55a34.39 34.39 0 1 0 48.34 5.29 34.39 34.39 0 0 0-48.34-5.29zm38.74 48.28a27.51 27.51 0 1 1 4.24-38.69 27.5 27.5 0 0 1-4.24 38.69zm15.81 9.29l23.91 29.78c2.82 3.51 2.84 8.18 0 10.43s-7.36 1.23-10.17-2.28l-23.91-29.79z"/><path class="cls-3" d="M213.86 158.12l-10.14 8.14-.5-.63a2.32 2.32 0 0 1 .35-3.26l6.53-5.24a2.32 2.32 0 0 1 3.26.37z"/></svg>