<svg id="Layer_1" data-name="Layer 1" xmlns="http://www.w3.org/2000/svg" width="3.81in" height="3.81in" viewBox="0 0 274.3 274.3"><defs><style>.cls-1{fill:#00acc1}.cls-2{fill:#fff}.cls-3{fill:#e0e0e0}.cls-4{fill:#5f6368}.cls-5{fill:#cccbca}.cls-6{fill:#bdbdbd}.cls-7{fill:#e6e5e5}.cls-8{fill:#fbbc04}.cls-9{fill:#feefc3}</style></defs><title>icon-business</title><circle class="cls-1" cx="137.15" cy="137.15" r="137.15"/><path class="cls-2" d="M193.35 70a4.88 4.88 0 0 1 4.88 4.88v128.5a4.88 4.88 0 0 1-4.88 4.88H92.47V70z"/><path class="cls-3" d="M80.27 57.76A12.2 12.2 0 0 0 68.07 70v138.3a12.2 12.2 0 0 1 24.4 0V70a12.2 12.2 0 0 0-12.2-12.24z"/><path class="cls-4" d="M92.47 208.26a12.2 12.2 0 1 0-12.2 12.21h100.88a4.88 4.88 0 0 0 4.88-4.88v-7.33z"/><path class="cls-5" d="M68.07 83.71v27.37a12.2 12.2 0 0 1 12.2-12.2V71.51a12.2 12.2 0 0 0-12.2 12.2z"/><path class="cls-6" d="M68.07 116.56V122a12.2 12.2 0 0 1 12.2-12.2v-5.48a12.21 12.21 0 0 0-12.2 12.24z"/><path class="cls-6" d="M68.07 127.5v5.5a12.21 12.21 0 0 1 12.2-12.21v-5.49a12.2 12.2 0 0 0-12.2 12.2z"/><path class="cls-6" d="M68.07 138.45v5.48a12.21 12.21 0 0 1 12.2-12.21v-5.47a12.2 12.2 0 0 0-12.2 12.2z"/><path class="cls-6" d="M68.07 149.4v5.47a12.2 12.2 0 0 1 12.2-12.2v-5.47a12.2 12.2 0 0 0-12.2 12.2z"/><path class="cls-6" d="M68.07 160.35v5.47a12.2 12.2 0 0 1 12.2-12.2v-5.48a12.21 12.21 0 0 0-12.2 12.21zm35.79 28.69h38.75v5.47h-38.75zm0-10.95h38.75v5.48h-38.75zm0-10.95h38.75v5.48h-38.75zm0-10.94h38.75v5.47h-38.75zm0-10.95h38.75v5.47h-38.75zm44.23 43.79h38.75v5.47h-38.75zm0-43.79h38.75v5.47h-38.75zm0-10.95h38.75v5.48h-38.75zm0-10.95h38.75v5.48h-38.75zm0-10.94h38.75v5.47h-38.75zm0-10.95h38.75v5.47h-38.75z"/><path class="cls-1" d="M103.86 83.71h82.98v10.95h-82.98zm0 50.59h38.75v5.47h-38.75zm0-13.67h5.47v8.2h-5.47zm8.32-12.36h5.47v20.56h-5.47zm8.32 7.96h5.47v12.6h-5.47zm8.32-4.29h5.47v16.89h-5.47zm8.32-10.15h5.47v27.04h-5.47z"/><path class="cls-7" d="M185.94 183.81h-38.73v-26.17h38.73zm-37.67-1.06h36.61v-24.06h-36.61z"/><path class="cls-7" d="M147.74 176.47h37.67v1.06h-37.67zm0-6.28h37.67v1.06h-37.67zm0-6.28h37.67v1.06h-37.67z"/><path class="cls-7" d="M178.6 158.17h1.06v25.11h-1.06zm-6.28 0h1.06v25.11h-1.06zm-6.28 0h1.06v25.11h-1.06zm-6.28 0h1.06v25.11h-1.06zm-6.27 0h1.06v25.11h-1.06z"/><path class="cls-1" d="M148.23 183.77l-.98-.98 6.48-6.48H160l12.57-12.56h6.27l6.08-6.07.98.97-6.49 6.48h-6.27l-12.56 12.56h-6.27l-6.08 6.08z"/><path class="cls-1" d="M149.24 183.28a1.51 1.51 0 0 1-3 0 1.51 1.51 0 1 1 3 0zm6.29-6.28a1.51 1.51 0 1 1-1.51-1.51 1.52 1.52 0 0 1 1.51 1.51zm6.27 0a1.51 1.51 0 1 1-1.51-1.51 1.52 1.52 0 0 1 1.51 1.51zm12.56-12.56a1.51 1.51 0 1 1-1.51-1.5 1.51 1.51 0 0 1 1.51 1.5zm6.27 0a1.51 1.51 0 1 1-1.5-1.5 1.5 1.5 0 0 1 1.5 1.5zm6.28-6.27a1.51 1.51 0 1 1-1.5-1.51 1.5 1.5 0 0 1 1.5 1.51z"/><path class="cls-8" d="M163.21 81.63a27.78 27.78 0 1 1 15.07 24.72l-6.92 6.93v-12a27.69 27.69 0 0 1-8.15-19.65z"/><path class="cls-9" d="M193.17 83.53h-4.32a6.93 6.93 0 0 1 0-13.86h9.35v3.8h-9.35a3.14 3.14 0 0 0-3.13 3.13 3.12 3.12 0 0 0 .92 2.22 3.07 3.07 0 0 0 2.21.91h4.32z"/><path class="cls-9" d="M193.17 93.59h-9.35v-3.8h9.35a3.13 3.13 0 0 0 2.2-5.35 3.11 3.11 0 0 0-2.2-.91h-4.32v-3.8h4.32a6.93 6.93 0 0 1 0 13.86z"/><path class="cls-9" d="M189.11 68.69h3.8v25.87h-3.8z"/><path class="cls-8" d="M137 161.24A27.81 27.81 0 1 0 121.9 186l6.93 6.93v-12a27.71 27.71 0 0 0 8.17-19.69z"/><path class="cls-9" d="M111.33 163.14H107a6.93 6.93 0 0 1 0-13.86h9.35v3.79H107a3.14 3.14 0 0 0 0 6.27h4.32z"/><path class="cls-9" d="M111.33 173.19H102v-3.8h9.35a3.15 3.15 0 0 0 2.22-.91 3.14 3.14 0 0 0 0-4.44 3.14 3.14 0 0 0-2.2-.9H107v-3.8h4.32a6.93 6.93 0 1 1 0 13.85z"/><path class="cls-9" d="M107.27 148.3h3.8v25.87h-3.8z"/></svg>