<svg id="Layer_1" data-name="Layer 1" xmlns="http://www.w3.org/2000/svg" width="3.81in" height="3.81in" viewBox="0 0 274.3 274.3"><defs><style>.cls-1{fill:none}.cls-2{fill:#4285f4}.cls-3{fill:#fff}.cls-4{fill:#f1f3f4}.cls-5,.cls-6{fill:#fbbc04}.cls-6{font-size:20.58px;font-family:GoogleSans-Medium,GoogleSans Medium}.cls-7{clip-path:url(#clip-path)}.cls-8,.cls-9{fill:#34a853}.cls-9{font-size:21.04px;font-family:GoogleSans-Regular,GoogleSans Regular}.cls-10{fill:#5f6368}.cls-11{clip-path:url(#clip-path-2)}.cls-12{fill:#e0e0e0}.cls-13{fill:#bdbdbd}</style><clipPath id="clip-path"><path class="cls-1" d="M51.9 170.29h65.69v40.27H51.9z"/></clipPath><clipPath id="clip-path-2"><path class="cls-1" d="M119.04 195.18h97.44v15.37h-97.44z"/></clipPath></defs><title>icon-pwa</title><circle class="cls-2" cx="137.15" cy="137.15" r="137.15"/><path class="cls-3" d="M227.32 204.14a6.42 6.42 0 0 1-6.42 6.41h-169a6.42 6.42 0 0 1-6.41-6.41V97.84h181.83z"/><path class="cls-4" d="M84.64 139.11l-25.9 12.63A28.81 28.81 0 0 1 72 113.21a28.32 28.32 0 0 1 12.63-2.91z"/><path class="cls-5" d="M84.64 139.11V110.3a28.81 28.81 0 1 1 0 57.62 27.87 27.87 0 0 1-25.9-16.18z"/><circle class="cls-3" cx="84.63" cy="139.52" r="22.64"/><text class="cls-6" transform="translate(74.08 146.13)">68</text><g class="cls-7"><path class="cls-4" d="M84.62 205.51l-17.31-23.83a28.22 28.22 0 0 1 17.31-5.62z"/><path class="cls-8" d="M84.62 205.51v-29.45a29.45 29.45 0 1 1-29.45 29.45 28.56 28.56 0 0 1 12.14-23.83z"/><circle class="cls-3" cx="84.41" cy="205.51" r="23.14"/><text class="cls-9" transform="translate(73.62 211.82)">90</text></g><path class="cls-10" d="M125 123.1h4a4.25 4.25 0 0 1 2 .45 3.55 3.55 0 0 1 1.38 5 3.39 3.39 0 0 1-1.38 1.27 4.25 4.25 0 0 1-2 .45h-1.84v4.14H125zm4 5.12a1.66 1.66 0 0 0 1.23-.45 1.54 1.54 0 0 0 .45-1.11 1.48 1.48 0 0 0-.45-1.09 1.66 1.66 0 0 0-1.23-.45h-1.91v3.1zm5.23-1.87h1.94v1.07h.12a2.48 2.48 0 0 1 .93-1 2.68 2.68 0 0 1 1.39-.37 2.56 2.56 0 0 1 1 .19v2c-.29-.1-.53-.18-.72-.23a3 3 0 0 0-.62-.07 1.75 1.75 0 0 0-1.45.67 2.56 2.56 0 0 0-.54 1.67v4h-2.06zm7.77 7.72a3.92 3.92 0 0 1-1.52-1.53 4.65 4.65 0 0 1 0-4.35 3.92 3.92 0 0 1 1.52-1.53 4.31 4.31 0 0 1 2.22-.56 4.26 4.26 0 0 1 2.2.56 3.92 3.92 0 0 1 1.52 1.53 4.43 4.43 0 0 1 .55 2.17 4.38 4.38 0 0 1-.55 2.18 3.92 3.92 0 0 1-1.52 1.53 4.36 4.36 0 0 1-2.2.56 4.41 4.41 0 0 1-2.22-.56zm3.32-1.63a2 2 0 0 0 .8-.82 2.75 2.75 0 0 0 0-2.5 2 2 0 0 0-.8-.82 2.2 2.2 0 0 0-1.1-.28 2.17 2.17 0 0 0-1.92 1.1 2.5 2.5 0 0 0-.3 1.24 2.58 2.58 0 0 0 .3 1.26 2.15 2.15 0 0 0 .82.82 2.18 2.18 0 0 0 1.1.29 2.2 2.2 0 0 0 1.08-.29zm5.76 4.91a3.49 3.49 0 0 1-1.36-1.65l1.94-.79a2.13 2.13 0 0 0 .77 1 2.1 2.1 0 0 0 1.18.35 2 2 0 0 0 1.55-.6 2.34 2.34 0 0 0 .58-1.7v-.63h-.13a2.49 2.49 0 0 1-1 .82 3.43 3.43 0 0 1-1.4.28 3.56 3.56 0 0 1-1.85-.51 3.85 3.85 0 0 1-1.38-1.45 4.83 4.83 0 0 1 0-4.36 3.78 3.78 0 0 1 1.38-1.45 3.56 3.56 0 0 1 1.85-.51 3.27 3.27 0 0 1 1.4.28 2.41 2.41 0 0 1 1 .82h.13v-.85h2v7.48a4.62 4.62 0 0 1-.5 2.23 3.53 3.53 0 0 1-1.43 1.46 5 5 0 0 1-4.71-.17zm4-5.45a2.28 2.28 0 0 0 .61-1.66 2.21 2.21 0 0 0-.61-1.68 2.16 2.16 0 0 0-3 0 2.59 2.59 0 0 0 0 3.34 2.16 2.16 0 0 0 3 0zm4.53-5.55h1.94v1.07h.13a2.53 2.53 0 0 1 .92-1 2.68 2.68 0 0 1 1.39-.37 2.56 2.56 0 0 1 1 .19v2c-.29-.1-.52-.18-.72-.23a3 3 0 0 0-.62-.07 1.75 1.75 0 0 0-1.45.67 2.55 2.55 0 0 0-.53 1.67v4h-2.07zm7.73 7.73a3.91 3.91 0 0 1-1.5-1.52 4.61 4.61 0 0 1 0-4.31 4.14 4.14 0 0 1 1.48-1.57 3.94 3.94 0 0 1 2.11-.58 4 4 0 0 1 2.14.53 3.53 3.53 0 0 1 1.37 1.47 4.52 4.52 0 0 1 .46 2.06 3.87 3.87 0 0 1 0 .69h-6a2.28 2.28 0 0 0 .77 1.46 2.21 2.21 0 0 0 1.45.49 2.35 2.35 0 0 0 1.22-.3 2.3 2.3 0 0 0 .81-.83l1.67.82a4 4 0 0 1-3.73 2.14 4.23 4.23 0 0 1-2.25-.55zm4.07-4.69a1.65 1.65 0 0 0-.28-.75 2 2 0 0 0-.68-.62 2 2 0 0 0-1-.24 2 2 0 0 0-1.27.43 2.45 2.45 0 0 0-.76 1.18zm4.21 4.61a3.16 3.16 0 0 1-1.27-1.56l1.84-.8a1.92 1.92 0 0 0 .72.86 2 2 0 0 0 1.08.29 2.16 2.16 0 0 0 .94-.18.6.6 0 0 0 .38-.59.63.63 0 0 0-.35-.59 4.12 4.12 0 0 0-1-.36l-1-.2a3.43 3.43 0 0 1-1.62-.86 2.06 2.06 0 0 1-.65-1.55 2 2 0 0 1 .42-1.24 2.71 2.71 0 0 1 1.13-.85 4.09 4.09 0 0 1 1.59-.3 3.32 3.32 0 0 1 3.32 1.74l-1.76.78A1.84 1.84 0 0 0 177 128a.57.57 0 0 0-.31.5c0 .38.36.66 1.07.85l1.18.28a3.73 3.73 0 0 1 1.8.92 2 2 0 0 1 .61 1.51 2.18 2.18 0 0 1-.45 1.36 3 3 0 0 1-1.23.92 4.36 4.36 0 0 1-1.72.33 4.2 4.2 0 0 1-2.33-.67zm7.82 0a3.19 3.19 0 0 1-1.26-1.56l1.84-.8a1.92 1.92 0 0 0 .72.86 2 2 0 0 0 1.07.29 2.21 2.21 0 0 0 .95-.18.62.62 0 0 0 .38-.59.64.64 0 0 0-.35-.59 4.22 4.22 0 0 0-1-.36l-.94-.2a3.51 3.51 0 0 1-1.63-.86 2.05 2.05 0 0 1-.64-1.55 2 2 0 0 1 .42-1.24 2.59 2.59 0 0 1 1.13-.85 4 4 0 0 1 1.58-.3 3.31 3.31 0 0 1 3.32 1.74l-1.76.78a1.83 1.83 0 0 0-2.36-.66.59.59 0 0 0-.32.5c0 .38.36.66 1.08.85l1.18.28a3.82 3.82 0 0 1 1.8.92 2.06 2.06 0 0 1 .6 1.51 2.17 2.17 0 0 1-.44 1.36 3 3 0 0 1-1.23.92 4.41 4.41 0 0 1-1.73.33 4.25 4.25 0 0 1-2.41-.6zm7.29-8.93a1.3 1.3 0 0 1 0-1.88 1.33 1.33 0 0 1 1.88 1.88 1.3 1.3 0 0 1-1.88 0zm-.1 1.28h2.07v8h-2.07zm3.2 0h2.35l2 5.23h.12l2.06-5.23h2.32l-3.43 8h-2.05zm11.24 7.73a3.91 3.91 0 0 1-1.5-1.52 4.41 4.41 0 0 1-.55-2.18 4.32 4.32 0 0 1 .54-2.13 4.14 4.14 0 0 1 1.48-1.57 3.92 3.92 0 0 1 2.11-.58 4.07 4.07 0 0 1 2.14.53 3.51 3.51 0 0 1 1.36 1.47 4.52 4.52 0 0 1 .47 2.06 5.09 5.09 0 0 1-.05.69h-6a2.28 2.28 0 0 0 .76 1.46 2.24 2.24 0 0 0 1.46.49 2.37 2.37 0 0 0 1.22-.3 2.3 2.3 0 0 0 .81-.83l1.67.82a4 4 0 0 1-3.73 2.14 4.23 4.23 0 0 1-2.19-.55zm4.06-4.69a1.63 1.63 0 0 0-.27-.75 2 2 0 0 0-.68-.62 2.07 2.07 0 0 0-1-.24 2 2 0 0 0-1.27.43 2.46 2.46 0 0 0-.77 1.18zM124 142.19h2.36l1.55 6.33.19 1.18h.12l.25-1.18 2-6.33h2.09l1.94 6.33.25 1.15h.13l.19-1.15 1.52-6.33H139l-3 11.27h-2.28l-1.92-6.8-.25-1.21h-.13l-.25 1.21-2 6.8H127zm16.8 10.98a4.08 4.08 0 0 1-1.51-1.52 4.44 4.44 0 0 1-.54-2.19 4.38 4.38 0 0 1 .54-2.13 4 4 0 0 1 1.48-1.56 3.92 3.92 0 0 1 2.11-.59 4.07 4.07 0 0 1 2.14.54 3.42 3.42 0 0 1 1.36 1.46 4.55 4.55 0 0 1 .46 2.06 5.18 5.18 0 0 1 0 .7h-6a2.15 2.15 0 0 0 2.22 1.95 2.25 2.25 0 0 0 2-1.13l1.67.81a4 4 0 0 1-3.74 2.15 4.32 4.32 0 0 1-2.19-.55zm4.06-4.7a1.54 1.54 0 0 0-.28-.75 1.89 1.89 0 0 0-.67-.61 2.08 2.08 0 0 0-1-.24 2 2 0 0 0-1.27.43 2.47 2.47 0 0 0-.76 1.17zm6.46 4.9a2.44 2.44 0 0 1-.95-.87h-.13v1h-1.93v-11.31h2.06v3.09l-.13 1.13h.13a2.54 2.54 0 0 1 1-.87 2.86 2.86 0 0 1 1.45-.36 3.69 3.69 0 0 1 2 .55 3.76 3.76 0 0 1 1.39 1.51 4.73 4.73 0 0 1 .5 2.21 4.65 4.65 0 0 1-.5 2.21 3.76 3.76 0 0 1-1.39 1.51 3.69 3.69 0 0 1-2 .55 3 3 0 0 1-1.5-.35zm2.18-1.86a2.23 2.23 0 0 0 .81-.83 2.67 2.67 0 0 0 0-2.46 2.15 2.15 0 0 0-.81-.83 2.14 2.14 0 0 0-2.15 0 2.15 2.15 0 0 0-.81.83 2.67 2.67 0 0 0 0 2.46 2.23 2.23 0 0 0 .81.83 2.08 2.08 0 0 0 2.15 0zm11.15-9.32h2.44l4.24 11.27H169l-.94-2.69h-4.32l-.94 2.69h-2.35zm2.7 6.63l-1-2.84-.41-1.35h-.12l-.41 1.35-1 2.84zm5.11-3.39h1.94v1h.12a2.54 2.54 0 0 1 1-.87 2.89 2.89 0 0 1 1.45-.36 3.65 3.65 0 0 1 2 .55 3.69 3.69 0 0 1 1.39 1.51 4.73 4.73 0 0 1 .51 2.21 4.65 4.65 0 0 1-.51 2.21 3.69 3.69 0 0 1-1.39 1.51 3.65 3.65 0 0 1-2 .55 3 3 0 0 1-1.45-.35 2.4 2.4 0 0 1-1-.87h-.12l.12 1.14v3.23h-2.06zm5.2 6.08a2.28 2.28 0 0 0 .8-.83 2.67 2.67 0 0 0 0-2.46 2.12 2.12 0 0 0-1.89-1.12 2.12 2.12 0 0 0-1.87 1.12 2.67 2.67 0 0 0 0 2.46 2.2 2.2 0 0 0 .8.83 2.06 2.06 0 0 0 1.07.3 2.11 2.11 0 0 0 1.09-.3zm4.39-6.08H184v1h.12a2.54 2.54 0 0 1 1-.87 2.89 2.89 0 0 1 1.45-.36 3.65 3.65 0 0 1 2 .55 3.69 3.69 0 0 1 1.39 1.51 4.73 4.73 0 0 1 .51 2.21 4.65 4.65 0 0 1-.51 2.21 3.69 3.69 0 0 1-1.39 1.51 3.65 3.65 0 0 1-2 .55 3 3 0 0 1-1.45-.35 2.4 2.4 0 0 1-1-.87H184l.12 1.14v3.23h-2.06zm5.2 6.08a2.28 2.28 0 0 0 .8-.83 2.67 2.67 0 0 0 0-2.46 2.12 2.12 0 0 0-1.89-1.12 2.12 2.12 0 0 0-1.87 1.12 2.67 2.67 0 0 0 0 2.46 2.2 2.2 0 0 0 .8.83 2.06 2.06 0 0 0 1.07.3 2.11 2.11 0 0 0 1.09-.3z"/><g class="cls-11"><path class="cls-10" d="M124.9 201.4h2.39l4.13 11h-2.29l-.92-2.63H124l-.93 2.63h-2.29zm2.63 6.48l-1-2.77-.4-1.32H126l-.4 1.32-1 2.77zm6.32 4.24a3.67 3.67 0 0 1-1.47-1.48 4.61 4.61 0 0 1 0-4.29 3.83 3.83 0 0 1 1.47-1.49 4.15 4.15 0 0 1 2.12-.54 4.21 4.21 0 0 1 2.24.57 3.17 3.17 0 0 1 1.36 1.59l-1.85.76a1.78 1.78 0 0 0-1.75-1 2 2 0 0 0-1.51.63 2.3 2.3 0 0 0-.6 1.66 2.33 2.33 0 0 0 .6 1.68 2 2 0 0 0 1.51.63 1.91 1.91 0 0 0 1.84-1.11l1.83.8a3.79 3.79 0 0 1-1.44 1.6 4.22 4.22 0 0 1-2.23.56 4.15 4.15 0 0 1-2.12-.57zm8.61 0a3.67 3.67 0 0 1-1.47-1.48 4.61 4.61 0 0 1 0-4.29 3.83 3.83 0 0 1 1.47-1.49 4.15 4.15 0 0 1 2.12-.54 4.21 4.21 0 0 1 2.24.57 3.1 3.1 0 0 1 1.35 1.59l-1.84.76a1.78 1.78 0 0 0-1.75-1 2 2 0 0 0-1.52.63 2.34 2.34 0 0 0-.59 1.66 2.37 2.37 0 0 0 .59 1.68 2 2 0 0 0 1.52.63 1.92 1.92 0 0 0 1.84-1.11l1.83.8a3.85 3.85 0 0 1-1.44 1.6 4.22 4.22 0 0 1-2.23.56 4.15 4.15 0 0 1-2.12-.57zm8.6 0a3.87 3.87 0 0 1-1.46-1.49 4.2 4.2 0 0 1-.53-2.12 4.29 4.29 0 0 1 .52-2.09 4.07 4.07 0 0 1 1.44-1.53 3.85 3.85 0 0 1 2.06-.57 4 4 0 0 1 2.09.53 3.34 3.34 0 0 1 1.33 1.43 4.44 4.44 0 0 1 .46 2 4.94 4.94 0 0 1-.05.68H151a2.23 2.23 0 0 0 .75 1.42 2.18 2.18 0 0 0 1.42.48 2.19 2.19 0 0 0 2-1.1l1.63.79a3.91 3.91 0 0 1-3.64 2.09 4.16 4.16 0 0 1-2.1-.52zm4-4.58a1.52 1.52 0 0 0-.27-.73 1.92 1.92 0 0 0-.66-.6 2 2 0 0 0-1-.24 1.9 1.9 0 0 0-1.24.42 2.37 2.37 0 0 0-.74 1.15zm4.08 4.53a3.16 3.16 0 0 1-1.24-1.52l1.8-.78a1.85 1.85 0 0 0 .7.83 1.92 1.92 0 0 0 1 .29 2.14 2.14 0 0 0 .93-.18.6.6 0 0 0 .36-.58.62.62 0 0 0-.33-.57 3.83 3.83 0 0 0-1-.35l-.92-.2a3.27 3.27 0 0 1-1.58-.84 2 2 0 0 1-.63-1.51 2 2 0 0 1 .4-1.21 2.61 2.61 0 0 1 1.11-.83 3.88 3.88 0 0 1 1.54-.3 3.25 3.25 0 0 1 3.25 1.71l-1.72.75a1.58 1.58 0 0 0-1.48-.83 1.54 1.54 0 0 0-.83.2.57.57 0 0 0-.31.48c0 .37.35.65 1.05.83l1.15.28a3.6 3.6 0 0 1 1.76.89 2 2 0 0 1 .59 1.47 2.12 2.12 0 0 1-.43 1.33 2.89 2.89 0 0 1-1.2.9 4.21 4.21 0 0 1-1.69.32 4.12 4.12 0 0 1-2.28-.58zm7.64 0a3.16 3.16 0 0 1-1.24-1.52l1.8-.78a1.85 1.85 0 0 0 .7.83 1.92 1.92 0 0 0 1.05.29 2.07 2.07 0 0 0 .92-.18.6.6 0 0 0 .37-.58.62.62 0 0 0-.34-.57 3.62 3.62 0 0 0-1-.35l-.92-.2a3.27 3.27 0 0 1-1.58-.84 2.05 2.05 0 0 1-.23-2.72 2.55 2.55 0 0 1 1.11-.83 3.88 3.88 0 0 1 1.54-.3 3.25 3.25 0 0 1 3.24 1.68l-1.72.75A1.58 1.58 0 0 0 169 206a1.52 1.52 0 0 0-.83.2.55.55 0 0 0-.31.48c0 .37.35.65 1 .83l1.15.28a3.6 3.6 0 0 1 1.76.89 2 2 0 0 1 .59 1.47 2.07 2.07 0 0 1-.44 1.33 2.77 2.77 0 0 1-1.2.9 4.75 4.75 0 0 1-4-.26zm7.11-8.74a1.27 1.27 0 0 1-.39-.93 1.21 1.21 0 0 1 .39-.91 1.26 1.26 0 0 1 .92-.38 1.24 1.24 0 0 1 .91.38 1.2 1.2 0 0 1 .38.91 1.26 1.26 0 0 1-.38.93 1.24 1.24 0 0 1-.91.38 1.26 1.26 0 0 1-.92-.38zm-.09 1.24h2v7.84h-2zm6.93 7.75a2.48 2.48 0 0 1-.93-.85h-.12v.94h-1.89v-11h2v3l-.12 1.1h.12a2.69 2.69 0 0 1 .94-.85 2.85 2.85 0 0 1 1.42-.35 3.68 3.68 0 0 1 1.93.53 3.77 3.77 0 0 1 1.36 1.49 5 5 0 0 1 0 4.31 3.72 3.72 0 0 1-1.36 1.47 3.59 3.59 0 0 1-1.93.53 3 3 0 0 1-1.42-.32zm2.13-1.82a2.12 2.12 0 0 0 .79-.81 2.63 2.63 0 0 0 0-2.4 2.12 2.12 0 0 0-.79-.81 2.11 2.11 0 0 0-2.1 0 2.12 2.12 0 0 0-.79.81 2.63 2.63 0 0 0 0 2.4 2.12 2.12 0 0 0 .79.81 2 2 0 0 0 2.1 0zm4.65-7.17a1.27 1.27 0 0 1-.39-.93 1.21 1.21 0 0 1 .39-.91 1.26 1.26 0 0 1 .92-.38 1.3 1.3 0 0 1 1.29 1.29 1.3 1.3 0 0 1-.38.93 1.24 1.24 0 0 1-.91.38 1.26 1.26 0 0 1-.92-.38zm-.1 1.24h2v7.84h-2zm4-3.17h2v11h-2zm4.09 1.93a1.27 1.27 0 0 1-.39-.93 1.21 1.21 0 0 1 .39-.91 1.26 1.26 0 0 1 .92-.38 1.3 1.3 0 0 1 1.29 1.29 1.3 1.3 0 0 1-.38.93 1.24 1.24 0 0 1-.91.38 1.26 1.26 0 0 1-.92-.38zm-.1 1.24h2v7.84h-2zm6.26 7.9a2.13 2.13 0 0 1-.8-.49 2.68 2.68 0 0 1-.72-2v-3.69h-1.37v-1.72h1.37v-2.21h2v2.21h1.92v1.72h-1.92v3.34a1.25 1.25 0 0 0 .26.88.93.93 0 0 0 .74.25 1.37 1.37 0 0 0 .49-.07 5 5 0 0 0 .5-.26v2a3.7 3.7 0 0 1-1.4.26 3.14 3.14 0 0 1-1.07-.22zm6.49-.47l-3.31-7.47h2.29l2 4.87h.12l2-4.87h2.24l-4.84 11.16h-2.17z"/></g><path class="cls-12" d="M227.32 98.74H45.53V72.06a6.51 6.51 0 0 1 1.88-4.6 6.34 6.34 0 0 1 4.53-1.91h169a6.35 6.35 0 0 1 4.54 1.91 6.55 6.55 0 0 1 1.88 4.6z"/><circle class="cls-13" cx="61.68" cy="82.15" r="5.43"/><circle class="cls-13" cx="77.97" cy="82.15" r="5.43"/><circle class="cls-13" cx="94.26" cy="82.15" r="5.43"/></svg>