<svg id="Layer_1" data-name="Layer 1" xmlns="http://www.w3.org/2000/svg" xmlns:xlink="http://www.w3.org/1999/xlink" width="398.4" height="2.86in" viewBox="0 0 299 205.86"><defs><style>.cls-1{fill:url(#linear-gradient)}.cls-2{fill:url(#linear-gradient-2)}.cls-3{fill:url(#linear-gradient-3)}.cls-4{fill:url(#linear-gradient-4)}.cls-5{fill:#e0e0e0}.cls-6{fill:#d1d1d1}.cls-7{fill:none;stroke:#9aa0a6;stroke-linecap:round;stroke-miterlimit:10;stroke-width:3.38px;stroke-dasharray:10.34 8.02}.cls-8{fill:#4285f4}.cls-9{fill:#34a853}.cls-10{fill:#fabb05}.cls-11{fill:#ea4335}</style><linearGradient id="linear-gradient" x1="-555.5" y1="-2460.45" x2="-486.26" y2="-2460.45" gradientTransform="translate(784.22 2572)" gradientUnits="userSpaceOnUse"><stop offset="0" stop-color="#fff" stop-opacity="0"/><stop offset="1" stop-color="#292d33" stop-opacity=".12"/></linearGradient><linearGradient id="linear-gradient-2" x1="-418.01" y1="-2460.45" x2="-349.76" y2="-2460.45" gradientTransform="translate(510.24 2572)" xlink:href="#linear-gradient"/><linearGradient id="linear-gradient-3" y1="111.56" x2="90.38" y2="111.56" gradientUnits="userSpaceOnUse"><stop offset="0" stop-color="#fff" stop-opacity="0"/><stop offset=".24" stop-color="#999a9d" stop-opacity=".06"/><stop offset="1" stop-color="#292d33" stop-opacity=".12"/></linearGradient><linearGradient id="linear-gradient-4" x1="159.49" y1="111.56" x2="228.73" y2="111.56" xlink:href="#linear-gradient-3"/></defs><title>line-graph</title><path class="cls-1" transform="rotate(180 263.35 111.56)" d="M228.72 17.26h69.24v188.6h-69.24z"/><path class="cls-2" transform="rotate(180 126.35 111.56)" d="M92.23 17.26h68.25v188.6H92.23z"/><path class="cls-3" d="M0 17.26h90.38v188.6H0z"/><path class="cls-4" d="M159.49 17.26h69.24v188.6h-69.24z"/><path class="cls-5" d="M91.46 205.85l-69.32-16.87V0l69.32 16.87v188.98z"/><path class="cls-6" d="M160.64 188.98l-69.32 16.87V16.87L160.64 0v188.98z"/><path class="cls-5" d="M229.82 205.85l-69.32-16.87V0l69.32 16.87v188.98z"/><path class="cls-6" d="M299 188.98l-69.32 16.87V16.87L299 0v188.98z"/><path class="cls-7" d="M51 88.16l36.59-3.18 28.63-28.64 41.36 22.27 28.63 66.82h42.95l34.99-36.59"/><ellipse class="cls-8" cx="54.76" cy="86.99" rx="15.18" ry="15.13"/><ellipse class="cls-9" cx="262.15" cy="112.32" rx="15.18" ry="15.13"/><ellipse class="cls-10" cx="191.76" cy="135.98" rx="15.18" ry="15.13"/><ellipse class="cls-11" cx="119.57" cy="61.88" rx="15.18" ry="15.13"/></svg>