<?xml version="1.0" encoding="utf-8"?>
<!-- Generator: Adobe Illustrator 22.0.1, SVG Export Plug-In . SVG Version: 6.00 Build 0)  -->
<svg version="1.1" id="Layer_1" xmlns="http://www.w3.org/2000/svg" xmlns:xlink="http://www.w3.org/1999/xlink" x="0px" y="0px"
	 viewBox="0 0 243.7 365.9" style="enable-background:new 0 0 243.7 365.9;" xml:space="preserve">
<style type="text/css">
	.st0{fill:none;}
	.st1{fill:#00B0FF;stroke:#00A4FF;stroke-width:3.744;stroke-miterlimit:10;}
	.st2{fill:#FFFFFF;}
	.st3{fill:#34A853;stroke:#43A047;stroke-width:3.582;stroke-miterlimit:10;}
	.st4{fill:#34A853;}
	.st5{fill:#EA4335;stroke:#DF382B;stroke-width:3.582;stroke-miterlimit:10;}
	.st6{fill:#9AA0A6;stroke:#999999;stroke-width:3.582;stroke-miterlimit:10;}
	.st7{fill:#FBBC04;stroke:#FCB006;stroke-width:3.582;stroke-miterlimit:10;}
</style>
<title>network-icons</title>
<path class="st0" d="M168.3,108.7h64.1v59.2h-64.1V108.7z"/>
<path class="st1" d="M125.1,85.7H84.5c-1.5,0-2.9,0.8-3.6,2l-12.5,20.5c-0.8,1.2-2.4,1.6-3.6,0.8c-0.4-0.2-0.7-0.6-0.9-0.9L53.6,88
	c-0.8-1.4-2.2-2.3-3.8-2.3H6.1c-2.3,0-4.2-1.8-4.3-4.1c0,0,0,0,0,0V6c0-2.3,2-4.1,4.3-4.1h119c2.3,0,4.2,1.8,4.3,4.1v75.6
	C129.4,83.9,127.4,85.7,125.1,85.7C125.1,85.7,125.1,85.7,125.1,85.7z"/>
<path class="st2" d="M32.5,49.7H44v20.6H32.5V49.7z M50.8,39.4h11.5v30.8H50.8V39.4z M69.2,27.9h11.5v42.4H69.2V27.9z M87.6,17.6
	h11.5v52.7H87.6V17.6z"/>
<path class="st3" d="M237.6,139.9H197c-1.5,0-2.9,0.8-3.7,2l-12.5,20.5c-0.8,1.2-2.4,1.6-3.6,0.8c-0.4-0.2-0.7-0.6-0.9-0.9
	l-10.3-20.1c-0.7-1.4-2.2-2.3-3.8-2.3h-43.7c-2.3,0-4.2-1.8-4.3-4.1V60.2c0-2.3,2-4.2,4.3-4.1c0,0,0,0,0,0h119
	c2.3,0,4.2,1.8,4.2,4.1v75.6C241.8,138.1,239.9,139.9,237.6,139.9L237.6,139.9z"/>
<path class="st2" d="M210.9,76.8h-63.1c-1.3,0-2.3,1-2.3,2.3v8.2c0,1.3,1,2.3,2.3,2.3h63.1c1.3,0,2.3-1,2.3-2.3v-8.2
	C213.2,77.9,212.2,76.8,210.9,76.8C210.9,76.8,210.9,76.8,210.9,76.8z M154.3,85.6h-4.8v-4.8h4.8V85.6z M160.7,85.6h-4.8v-4.8h4.8
	V85.6z M167.1,85.6h-4.8v-4.8h4.8L167.1,85.6z M210.9,93.5h-63.1c-1.3,0-2.3,1-2.3,2.3v8.2c0,1.3,1,2.3,2.3,2.3h63.1
	c1.3,0,2.3-1,2.3-2.3v-8.2C213.2,94.5,212.2,93.5,210.9,93.5z M154.3,102.3h-4.8v-4.8h4.8V102.3z M160.7,102.3h-4.8v-4.8h4.8V102.3z
	 M167.1,102.3h-4.8v-4.8h4.8L167.1,102.3z M210.9,110.2h-63.1c-1.3,0-2.3,1-2.3,2.3v8.2c0,1.3,1,2.3,2.3,2.3h63.1
	c1.3,0,2.3-1,2.3-2.3v-8.2C213.2,111.2,212.2,110.2,210.9,110.2z M154.3,119h-4.8v-4.8h4.8V119z M160.7,119h-4.8v-4.8h4.8V119z
	 M167.1,119h-4.8v-4.8h4.8L167.1,119z"/>
<circle class="st4" cx="202.8" cy="86.3" r="16"/>
<path class="st2" d="M203.9,74.6c-6.4,0-11.5,5.2-11.5,11.6h-3.9l5,5l0.1,0.2l5.2-5.2H195c0-5,4-9.1,9-9.1c5,0,9.1,4,9.1,9
	s-4,9.1-9,9.1c-2.4,0-4.7-0.9-6.4-2.7l-1.8,1.8c4.5,4.5,11.9,4.5,16.4,0s4.5-11.9,0-16.4C210,75.8,207,74.6,203.9,74.6L203.9,74.6z
	 M202.6,81v6.4l5.5,3.3l0.9-1.6l-4.5-2.7v-5.4L202.6,81z"/>
<path class="st5" d="M125.1,213.1H84.5c-1.5,0-2.9,0.8-3.7,2l-12.5,20.4c-0.8,1.2-2.4,1.6-3.6,0.8c-0.4-0.2-0.7-0.6-0.9-0.9
	l-10.3-20c-0.8-1.4-2.2-2.3-3.8-2.3H6.1c-2.3,0-4.2-1.8-4.3-4.1v-75.6c0-2.3,2-4.2,4.3-4.1c0,0,0,0,0,0h119c2.3,0,4.2,1.8,4.3,4.1
	c0,0,0,0,0,0v75.6C129.3,211.3,127.4,213.1,125.1,213.1L125.1,213.1z"/>
<path class="st2" d="M32.7,180.6v5.5c0,2.3,1.8,4.1,4.1,4.1h18.9l-4.4,7.8c-0.2,0.4-0.2,0.8,0,1.2c0.2,0.4,0.6,0.6,1,0.6h20.1
	c0.7,0,1.2-0.6,1.2-1.2c0-0.3-0.1-0.5-0.3-0.7l-4.3-7.6h5.6v-9.6L32.7,180.6z M74.7,170.5V168c0-0.7,0.6-1.3,1.3-1.3H92v-18.3
	c0-2.4-1.9-4.3-4.3-4.3H37c-2.4,0-4.3,1.9-4.3,4.3V177h42V170.5z"/>
<path class="st2" d="M98.4,173.8v-2.3c0-0.6-0.5-1.2-1.2-1.2H79.5c-0.6,0-1.2,0.5-1.2,1.2v2.3H98.4z M78.4,176.5h20v19.5h-20V176.5z
	 M78.4,198.4v1.2c0,0.6,0.5,1.2,1.2,1.2h17.7c0.6,0,1.2-0.5,1.2-1.2v-1.2H78.4z"/>
<path class="st6" d="M237.6,280.6H197c-1.5,0-2.9,0.8-3.7,2l-12.5,20.5c-0.8,1.2-2.4,1.6-3.6,0.8c-0.4-0.2-0.7-0.6-0.9-0.9
	l-10.3-20.1c-0.7-1.4-2.2-2.3-3.8-2.3h-43.7c-2.3,0.1-4.2-1.8-4.3-4.1c0,0,0,0,0,0v-75.6c0-2.3,2-4.2,4.3-4.1h119
	c2.3,0,4.2,1.8,4.3,4.1v75.6C241.8,278.8,239.9,280.6,237.6,280.6C237.6,280.6,237.6,280.6,237.6,280.6L237.6,280.6z"/>
<path class="st2" d="M203.1,213.9h-50.3c-3.5,0-6.3,2.8-6.3,6.3v37.7c0,3.5,2.8,6.3,6.3,6.3h50.3c3.5,0,6.3-2.8,6.3-6.3v-37.7
	C209.4,216.7,206.6,213.9,203.1,213.9L203.1,213.9z M187.4,257.9h-34.6v-12.6h34.5L187.4,257.9z M187.4,242.2h-34.6v-12.6h34.5
	L187.4,242.2z M203.1,257.9h-12.5v-28.3h12.6L203.1,257.9z"/>
<path class="st7" d="M125.1,340.4H84.5c-1.5,0-2.9,0.8-3.7,2l-12.5,20.5c-0.8,1.2-2.4,1.6-3.6,0.8c-0.4-0.2-0.7-0.6-0.9-0.9
	l-10.3-20.1c-0.8-1.4-2.2-2.3-3.8-2.3H6.1c-2.3,0-4.2-1.8-4.3-4.1v-75.6c0-2.3,2-4.2,4.3-4.1c0,0,0,0,0,0h119c2.3,0,4.2,1.8,4.3,4.1
	c0,0,0,0,0,0v75.6C129.4,338.6,127.4,340.5,125.1,340.4C125.1,340.4,125.1,340.4,125.1,340.4z"/>
<path class="st2" d="M85.1,274.4H45.8c-3.3,0-6,2.7-6,6v39.3c0,3.3,2.7,6,6,6h39.3c3.3,0,6-2.7,6-6v-39.3
	C91.1,277.1,88.4,274.4,85.1,274.4z M60.4,309.1c-1.5,1.2-3.5,1.8-5.4,1.7c-1.8,0.1-3.7-0.5-5.1-1.6c-1.3-1.1-2-2.7-2-4.4h4.1
	c0,0.7,0.3,1.5,0.9,1.9c0.6,0.5,1.4,0.8,2.2,0.7c0.8,0,1.7-0.2,2.3-0.8c0.6-0.5,0.9-1.3,0.8-2.1c0-2.1-1.1-3.1-3.4-3.1h-2.2v-3.2
	h2.2c0.9,0.1,1.7-0.2,2.3-0.8c0.5-0.6,0.8-1.3,0.8-2.1c0-0.7-0.2-1.4-0.8-2c-0.6-0.5-1.3-0.7-2.1-0.7c-0.7,0-1.4,0.2-2,0.7
	c-0.5,0.4-0.8,1-0.8,1.7h-4.1c0-1,0.3-2.1,0.9-2.9c0.6-0.9,1.5-1.6,2.5-2c1.1-0.5,2.3-0.7,3.5-0.7c1.9-0.1,3.7,0.5,5.2,1.6
	c1.3,1.1,2,2.7,1.9,4.4c0,1-0.3,1.9-0.9,2.6c-0.6,0.8-1.4,1.4-2.3,1.8c1.1,0.3,2,1,2.6,1.9c0.6,0.9,0.9,1.9,0.9,3
	C62.5,306.4,61.7,308,60.4,309.1L60.4,309.1z M70.8,305.7c0.9,1.1,2.2,1.8,3.6,1.7c1.2,0.1,2.5-0.3,3.5-1v-3.6H74v-3.2h8.2v8.3
	c-0.9,1-2,1.7-3.3,2.1c-1.5,0.5-3.1,0.8-4.7,0.8c-1.7,0-3.3-0.4-4.7-1.2c-1.4-0.8-2.5-2-3.2-3.4c-0.8-1.7-1.2-3.5-1.1-5.3v-1.4
	c0-1.9,0.3-3.7,1.1-5.4c0.6-1.4,1.7-2.7,3-3.5c3.3-1.8,7.3-1.6,10.4,0.6c1.5,1.3,2.4,3.2,2.5,5.1H78c-0.1-1-0.5-1.9-1.3-2.6
	c-0.8-0.6-1.7-0.9-2.7-0.8c-1.3-0.1-2.6,0.6-3.3,1.6c-0.9,1.5-1.3,3.2-1.2,4.9v1.3C69.4,302.4,69.9,304.2,70.8,305.7L70.8,305.7z"/>
</svg>
