<svg id="Layer_1" data-name="Layer 1" xmlns="http://www.w3.org/2000/svg" width="3.76in" height="542.4" viewBox="0 0 271.03 407.07"><defs><style>.cls-1{fill:none}.cls-2{fill:#00b0ff;stroke:#00a4ff;stroke-width:4.16px}.cls-2,.cls-4,.cls-6,.cls-7,.cls-8{stroke-miterlimit:10}.cls-3{fill:#fff}.cls-4,.cls-5{fill:#34a853}.cls-4{stroke:#43a047}.cls-4,.cls-6,.cls-7,.cls-8{stroke-width:3.98px}.cls-6{fill:#ea4335;stroke:#df382b}.cls-7{fill:#9aa0a6;stroke:#999}.cls-8{fill:#fbbc04;stroke:#fcb006}</style></defs><title>network-icons</title><path class="cls-1" d="M187.26 120.88h71.3v65.81h-71.3z"/><path class="cls-2" d="M139.19 95.31H94.05A4.77 4.77 0 0 0 90 97.58l-13.91 22.77a2.91 2.91 0 0 1-5-.17L59.64 97.86a4.79 4.79 0 0 0-4.27-2.55H6.83a4.66 4.66 0 0 1-4.75-4.57V6.65a4.67 4.67 0 0 1 4.75-4.57h132.36a4.67 4.67 0 0 1 4.75 4.57v84.09a4.66 4.66 0 0 1-4.75 4.57z"/><path class="cls-3" d="M36.1 55.26h12.81v22.86H36.1zm20.43-11.42h12.81v34.28H56.53zm20.43-12.86h12.81v47.14H76.96zm20.43-11.43h12.81v58.57H97.39z"/><path class="cls-4" d="M264.28 155.6h-45.13a4.8 4.8 0 0 0-4.11 2.26l-13.86 22.78a2.91 2.91 0 0 1-5-.17l-11.43-22.32a4.77 4.77 0 0 0-4.26-2.55h-48.56a4.67 4.67 0 0 1-4.76-4.57V66.94a4.66 4.66 0 0 1 4.76-4.57h132.35a4.66 4.66 0 0 1 4.72 4.57V151a4.67 4.67 0 0 1-4.72 4.6z"/><path class="cls-3" d="M234.6 85.45h-70.18a2.55 2.55 0 0 0-2.54 2.55v9.1a2.55 2.55 0 0 0 2.54 2.54h70.18a2.54 2.54 0 0 0 2.54-2.54V88a2.54 2.54 0 0 0-2.54-2.55zm-63 9.82h-5.38v-5.39h5.38zm7.12 0h-5.38v-5.39h5.38zm7.13 0h-5.35v-5.39h5.38zM234.6 104h-70.18a2.55 2.55 0 0 0-2.54 2.54v9.1a2.55 2.55 0 0 0 2.54 2.54h70.18a2.54 2.54 0 0 0 2.54-2.54v-9.1a2.54 2.54 0 0 0-2.54-2.54zm-63 9.82h-5.38v-5.39h5.38zm7.12 0h-5.38v-5.39h5.38zm7.13 0h-5.35v-5.39h5.38zm48.75 8.71h-70.18a2.56 2.56 0 0 0-2.54 2.54v9.1a2.55 2.55 0 0 0 2.54 2.54h70.18a2.54 2.54 0 0 0 2.54-2.54v-9.1a2.55 2.55 0 0 0-2.54-2.54zm-63 9.82h-5.38V127h5.38zm7.12 0h-5.38V127h5.38zm7.13 0h-5.35V127h5.38z"/><circle class="cls-5" cx="225.58" cy="95.98" r="17.84"/><path class="cls-3" d="M226.83 83A12.87 12.87 0 0 0 214 95.9h-4.29l5.57 5.57.1.21 5.77-5.78h-4.29a10.06 10.06 0 1 1 2.94 7.07l-2 2a12.88 12.88 0 1 0 9.09-22zm-1.42 7.15v7.16l6.12 3.63 1-1.73-5-3v-6.04z"/><path class="cls-6" d="M139.19 237H94.05a4.78 4.78 0 0 0-4.1 2.26L76.09 262a2.91 2.91 0 0 1-5-.17l-11.45-22.28a4.79 4.79 0 0 0-4.27-2.55H6.83a4.67 4.67 0 0 1-4.75-4.57v-84.09a4.66 4.66 0 0 1 4.75-4.57h132.36a4.66 4.66 0 0 1 4.75 4.57v84.09a4.67 4.67 0 0 1-4.75 4.57z"/><path class="cls-3" d="M36.33 200.87V207a4.57 4.57 0 0 0 4.56 4.56h21L57 220.21a1.26 1.26 0 0 0 0 1.3 1.29 1.29 0 0 0 1.13.66h22.4a1.33 1.33 0 0 0 1-2.17l-4.76-8.44h6.24v-10.69zm46.73-11.16v-2.82a1.45 1.45 0 0 1 1.44-1.44h17.87v-20.4a4.84 4.84 0 0 0-4.82-4.83H41.16a4.83 4.83 0 0 0-4.83 4.83v31.83h46.73v-7.17z"/><path class="cls-3" d="M109.47 193.38v-2.56a1.29 1.29 0 0 0-1.29-1.29H88.46a1.29 1.29 0 0 0-1.29 1.29v2.56zm-22.3 2.91h22.3v21.67h-22.3zm0 24.45v1.35a1.29 1.29 0 0 0 1.29 1.29h19.72a1.29 1.29 0 0 0 1.29-1.29v-1.35z"/><path class="cls-7" d="M264.28 312.14h-45.13a4.79 4.79 0 0 0-4.11 2.27l-13.86 22.77a2.91 2.91 0 0 1-5-.17l-11.43-22.32a4.77 4.77 0 0 0-4.26-2.55h-48.56a4.66 4.66 0 0 1-4.76-4.57v-84.09a4.67 4.67 0 0 1 4.76-4.57h132.35a4.67 4.67 0 0 1 4.76 4.57v84.09a4.66 4.66 0 0 1-4.76 4.57z"/><path class="cls-3" d="M225.94 237.94H170a7 7 0 0 0-7 7v41.93a7 7 0 0 0 7 7h55.9a7 7 0 0 0 7-7v-41.94a7 7 0 0 0-6.96-6.99zm-17.47 48.92H170v-14h38.43zm0-17.47H170v-14h38.43zm17.47 17.47H212v-31.45h14z"/><path class="cls-8" d="M139.19 378.68H94.05a4.78 4.78 0 0 0-4.1 2.26l-13.86 22.78a2.91 2.91 0 0 1-5-.17l-11.45-22.32a4.79 4.79 0 0 0-4.27-2.55H6.83a4.67 4.67 0 0 1-4.75-4.57V290a4.66 4.66 0 0 1 4.75-4.57h132.36a4.66 4.66 0 0 1 4.75 4.57v84.09a4.67 4.67 0 0 1-4.75 4.59z"/><path class="cls-3" d="M94.64 305.2H50.92a6.7 6.7 0 0 0-6.68 6.67v43.73a6.7 6.7 0 0 0 6.68 6.67h43.72a6.7 6.7 0 0 0 6.68-6.67v-43.73a6.7 6.7 0 0 0-6.68-6.67zm-27.46 38.64a9.06 9.06 0 0 1-6 1.86 8.59 8.59 0 0 1-5.68-1.83 6 6 0 0 1-2.2-4.84h4.6a2.7 2.7 0 0 0 1 2.14 3.61 3.61 0 0 0 2.41.82 3.66 3.66 0 0 0 2.57-.86 3 3 0 0 0 .93-2.3q0-3.48-3.82-3.48h-2.41v-3.6H61a3.45 3.45 0 0 0 2.59-.87 3.18 3.18 0 0 0 .85-2.33 2.83 2.83 0 0 0-.84-2.18 3.24 3.24 0 0 0-2.3-.78 3.35 3.35 0 0 0-2.21.73 2.29 2.29 0 0 0-.89 1.88h-4.58a5.66 5.66 0 0 1 1-3.25 6.68 6.68 0 0 1 2.74-2.26 9.17 9.17 0 0 1 3.88-.81 8.68 8.68 0 0 1 5.76 1.76 6 6 0 0 1 2.09 4.85 4.86 4.86 0 0 1-1 2.93 6.28 6.28 0 0 1-2.55 2.05 5.72 5.72 0 0 1 2.92 2.11 5.64 5.64 0 0 1 1 3.31 6.08 6.08 0 0 1-2.28 4.95zM78.77 340a4.73 4.73 0 0 0 4.06 1.87 5.34 5.34 0 0 0 3.84-1.15v-4h-4.35v-3.52h9.12v9.26a8.28 8.28 0 0 1-3.64 2.39 15.26 15.26 0 0 1-5.23.85 10.28 10.28 0 0 1-5.27-1.31 8.77 8.77 0 0 1-3.51-3.81 13.47 13.47 0 0 1-1.26-5.88v-1.58a14.29 14.29 0 0 1 1.17-6 8.61 8.61 0 0 1 3.37-3.88 11.1 11.1 0 0 1 11.62.62 8.37 8.37 0 0 1 2.75 5.72h-4.65a4.62 4.62 0 0 0-1.41-2.91 4.45 4.45 0 0 0-3-.92 4.24 4.24 0 0 0-3.71 1.83 9.59 9.59 0 0 0-1.29 5.42v1.48a9.1 9.1 0 0 0 1.39 5.52z"/></svg>