<svg id="Layer_1" data-name="Layer 1" xmlns="http://www.w3.org/2000/svg" width="12.39in" height="10.67in" viewBox="0 0 892 768.08"><defs><style>.cls-1{fill:url(#radial-gradient)}.cls-2,.cls-39,.cls-43{fill:none}.cls-3{fill:#00b0ff}.cls-4{mask:url(#mask)}.cls-17,.cls-5{opacity:.2}.cls-6{fill:#a4e5ff}.cls-7{isolation:isolate}.cls-8{fill:#f8fdff}.cls-9{fill:#93e2e2}.cls-10{fill:#313133}.cls-11{fill:#d89282}.cls-12{fill:#4285f4}.cls-13{fill:#605c5e}.cls-14{fill:#ffc215}.cls-15{fill:#5b5e5e}.cls-16{fill:#a5bec4}.cls-17{fill:#fff}.cls-18{fill:#97af3f}.cls-19{fill:#3c4043}.cls-20{fill:#fcdb8b}.cls-21{fill:#a958bc}.cls-22{fill:#934f34}.cls-23{fill:#add344}.cls-24{fill:#0f7ed1}.cls-25{fill:#2bdcf9}.cls-26{fill:#8e572a}.cls-27{fill:#cc8f62}.cls-28{fill:#6666a5}.cls-29{fill:#c5221f}.cls-30{fill:#2f3461;opacity:.5}.cls-31{fill:#1b6377}.cls-32{fill:#774c93}.cls-33{fill:#333}.cls-34{fill:#7f5332}.cls-35{fill:#4c4c4c}.cls-36{fill:#38342f}.cls-37{fill:#768c8c}.cls-38{fill:#d13333}.cls-39{stroke:#333;stroke-width:4.99px}.cls-39,.cls-43{stroke-miterlimit:10}.cls-40{fill:#95c4c6}.cls-41{fill:#12839e}.cls-42{fill:#e5d785}.cls-43{stroke:#fff;stroke-linecap:round;stroke-width:.97px}.cls-44{fill:#f7ad28}.cls-45{clip-path:url(#clip-path)}</style><radialGradient id="radial-gradient" cx="455.72" cy="453.82" r="406.82" gradientUnits="userSpaceOnUse"><stop offset="0" stop-color="#f2f2f2"/><stop offset="1"/></radialGradient><mask id="mask" x="48.9" y="47.01" width="813.64" height="813.64" maskUnits="userSpaceOnUse"><circle class="cls-1" cx="455.72" cy="453.82" r="406.82"/></mask><clipPath id="clip-path"><path class="cls-2" d="M56.36 221.32l105.56 70.53L302.03 199l-102.54-66.95-143.13 89.27z"/></clipPath></defs><title>on-the-street</title><path class="cls-3" d="M0 0h892v768.08H0z"/><g class="cls-4" id="grid"><g class="cls-5"><path class="cls-6" d="M231.44 634.19l1.53-.89 39.76 22.96-1.53.88-39.76-22.95zm450.61-405.42l1.53-.89 39.77 22.96-1.54.89-39.76-22.96zM434.5 133.38l1.53-.89 39.76 22.96-1.53.89-39.76-22.96z"/><g class="cls-7"><path class="cls-8" d="M433.45 85.24l1.53-.89 40.54 23.41-1.53.89-40.54-23.41zm42.08 24.29l1.53-.88 39.76 22.95-1.53.89-39.76-22.96z"/><path class="cls-8" d="M515.79 84.35l-40.27 23.41-1.53.89-39.5 22.95-1.53.89-39.52 22.97-1.53.88-39.5 22.96-1.53.89-39.51 22.96-1.54.89-39.5 22.96-1.53.89-39.5 22.95-1.53.89-39.51 22.97-1.53.88-39.51 22.96-1.52.89-29.42 17.09v1.79l30.96-17.99 1.52-.89 39.51-22.96 1.53-.89 39.51-22.96 1.53-.89 39.5-22.96 1.53-.88 39.5-22.96 1.53-.89 39.52-22.96 1.53-.89 39.5-22.96 1.53-.89 39.52-22.96 1.53-.89 39.5-22.96 1.53-.88 40.27-23.41-1.54-.89z"/><path class="cls-8" d="M392.42 109.08l1.53-.88 40.54 23.4-1.53.89-40.54-23.41zm124.41 24.3l1.53-.89 39.76 22.96-1.53.88-39.76-22.95zm-165.46-.44l1.53-.89 40.54 23.41-1.53.88-40.54-23.4zm206.77 24.29l1.53-.89 39.76 22.96-1.53.89-39.76-22.96zm-82.34-.01l1.53-.88 39.76 22.95-1.53.89-39.76-22.96zm-82.35.01l1.53-.89 39.76 22.96-1.53.89-39.76-22.96zm-83.11-.45l1.53-.88 40.54 23.4-1.53.89-40.54-23.41zM681 179.74l-40.27 23.4-1.53.89-39.5 22.96-1.53.89-39.52 22.96-1.53.89-39.5 22.96-1.53.88-39.51 22.97-1.53.89-39.5 22.95-1.53.89-39.51 22.96-1.53.89-39.51 22.96-1.53.89-39.5 22.96-1.53.88-39.52 22.97-1.53.89-39.5 22.95-1.53.89-39.5 22.96-1.54.89-39.51 22.96-1.53.89-30.47 17.71v1.78l32.01-18.6 1.53-.89 39.5-22.96 1.55-.89 39.5-22.96 1.53-.89 39.5-22.96 1.53-.88 39.52-22.97 1.53-.89 39.5-22.95 1.53-.89L394.52 348l1.53-.88 39.51-22.96 1.52-.89 39.51-22.96 1.53-.88 39.51-22.97 1.53-.89 39.5-22.95 1.53-.89 39.52-22.97 1.53-.88 39.5-22.96 1.53-.89 40.27-23.4-1.54-.89z"/><path class="cls-8" d="M599.44 181.08l1.53-.89 39.76 22.95-1.53.89-39.76-22.95zm-82.33 0l1.53-.89 39.76 22.95-1.53.89-39.76-22.95z"/><path class="cls-8" d="M598.39 132.04l-40.27 23.41-1.53.88-39.5 22.96-1.53.89-39.52 22.96-1.53.89-39.5 22.96-1.53.89-39.52 22.96-1.53.89-39.5 22.96-1.53.88-39.5 22.96-1.53.89-39.52 22.96-1.52.89-39.51 22.96-1.53.89-39.51 22.96-1.53.89-39.5 22.96-1.53.89-29.94 17.39v1.8l31.49-18.3 1.53-.89 39.5-22.95 1.53-.89 39.52-22.97 1.53-.89 39.5-22.95 1.53-.89 39.52-22.96 1.52-.89 39.51-22.96 1.53-.89 39.5-22.95 1.53-.89 39.51-22.97 1.53-.88 39.5-22.96 1.53-.89 39.52-22.96 1.53-.89 39.5-22.96 1.53-.89 40.27-23.4-1.55-.9z"/><path class="cls-8" d="M434.75 181.08l1.53-.89 39.76 22.95-1.53.89-39.76-22.95zm-82.33 0l1.53-.89 39.76 22.95-1.53.89-39.76-22.95zm-83.12-.44l1.53-.89 40.54 23.4-1.54.89-40.53-23.4zm453.02 22.95L682.04 227l-1.52.88-39.51 22.96-1.53.89-39.51 22.96-1.53.89-39.5 22.96-1.53.89-39.52 22.96-1.53.89-39.5 22.96-1.53.88-39.5 22.96-1.53.89-39.52 22.96-1.53.89-39.5 22.96-1.53.89-39.52 22.96-1.52.89-39.51 22.96-1.53.88-39.5 22.96-1.54.9-39.5 22.95-1.53.89-39.5 22.96-1.53.89-30.76 17.87v1.78l32.3-18.77 1.53-.88 39.5-22.96 1.53-.89 39.5-22.95 1.54-.9 39.51-22.96 1.52-.89 39.51-22.95 1.53-.89 39.51-22.97 1.53-.88 39.5-22.96 1.53-.89 39.52-22.96 1.53-.89 39.5-22.96 1.53-.89 39.5-22.95 1.53-.89 39.52-22.97 1.52-.88 39.51-22.96 1.53-.89 39.51-22.96 1.53-.89 39.5-22.96 1.53-.89 40.28-23.4-1.54-.89z"/><path class="cls-8" d="M640.74 204.92l1.53-.89L682.04 227l-1.52.88-39.78-22.96zm-82.33 0l1.53-.89 39.76 22.96-1.53.89-39.76-22.96zm-82.35.01l1.54-.89L517.35 227l-1.53.89-39.76-22.96zm-82.34-.01l1.53-.89 39.76 22.96-1.53.89-39.76-22.96zm-82.35.01l1.53-.89L352.66 227l-1.53.89-39.76-22.96zm-83.1-.45l1.53-.89L270.33 227l-1.53.89-40.53-23.41zm371.44 24.28l1.53-.88 39.77 22.96-1.53.89-39.77-22.97zm-82.34.01l1.52-.89 39.77 22.96-1.54.89-39.75-22.96zm-82.34 0l1.53-.88 39.76 22.95-1.53.89-39.76-22.96zm-82.36 0l1.53-.88 39.76 22.95-1.52.89-39.77-22.96zm-82.33 0l1.53-.88 39.76 22.95-1.53.89-39.76-22.96zm-83.11-.44l1.53-.89 40.54 23.4-1.53.89-40.54-23.4zm536.13 24.29l1.52-.89 39.77 22.96-1.53.88-39.76-22.95zm-82.34 0l1.53-.89 39.76 22.96-1.53.88-39.76-22.95zm-82.36 0l1.53-.89 39.78 22.96-1.53.89-39.78-22.96zm-82.33 0l1.53-.89 39.76 22.96-1.53.88-39.76-22.95zm-82.34.01l1.53-.89 39.76 22.95-1.53.89-39.76-22.95zm-82.35-.01l1.53-.89 39.76 22.96-1.53.88-39.76-22.95zm-82.33 0l1.53-.89 39.76 22.96-1.53.88-39.76-22.95zm-83.12-.44l1.53-.89 40.54 23.41-1.53.88-40.54-23.4zm454.33 119.68l1.52-.88 39.77 22.95-1.53.89-39.76-22.96zm-41.04 23.85l1.53-.89 39.76 22.96-1.52.89-39.77-22.96zm-41.03 23.84l1.53-.88 39.76 22.95-1.53.89-39.76-22.96zm-41.04 23.86l1.53-.89 39.76 22.95-1.53.89-39.76-22.95zm-41.03 23.84l1.52-.89 39.77 22.96-1.53.89-39.76-22.96zm-41.05 23.86l1.53-.89 39.76 22.95-1.53.89-39.76-22.95zm-41.03 23.84l1.53-.89 39.76 22.96-1.53.89-39.76-22.96zm-41.05 23.85l1.55-.89 39.76 22.95-1.55.9-39.76-22.96zm-41.03 23.85l1.53-.89 39.76 22.96-1.53.89-39.76-22.96zm-41.03 23.84l1.53-.88 39.76 22.95-1.53.89-39.76-22.96zm-41.04 23.86l1.52-.89 39.76 22.95-1.52.89-39.76-22.95z"/><path class="cls-8" d="M813.41 294.21l-7.45 4.33-1.53.89-39.5 22.95-1.53.89-39.52 22.97-1.53.88-39.5 22.96-1.53.89-39.52 22.96-1.53.89-39.5 22.96-1.52.89-39.51 22.95-1.53.89-39.51 22.97-1.53.88-39.5 22.96-1.53.89-39.52 22.96-1.53.89-39.5 22.96-1.53.89-39.5 22.95-1.55.9-39.5 22.96-1.53.89-39.5 22.95-1.53.89-39.52 22.96-1.53.89-40.27 23.41 1.54.89 40.27-23.41 1.53-.89 39.52-22.96 1.53-.89 39.5-22.96 1.53-.88 39.5-22.96 1.55-.9 39.5-22.96 1.53-.88 39.5-22.96 1.53-.89 39.52-22.96 1.52-.89 39.51-22.96 1.53-.89 39.51-22.96 1.53-.89 39.5-22.96 1.53-.88 39.51-22.96 1.52-.89 39.52-22.96 1.53-.89 39.5-22.96 1.53-.89 39.52-22.96 1.53-.89 39.5-22.96 1.53-.88 5.91-3.44v-1.78z"/><path class="cls-8" d="M764.67 276.47l1.53-.89 39.76 22.96-1.53.89-39.76-22.96z"/><path class="cls-8" d="M806.47 252.18l-40.27 23.4-1.53.89-39.5 22.96-1.53.88-39.52 22.97-1.53.89-39.5 22.95-1.53.89-39.52 22.97-1.53.88-39.5 22.96-1.53.89-39.5 22.96-1.53.88-39.51 22.97-1.53.89-39.51 22.95-1.52.89-39.52 22.97-1.53.89-39.5 22.95-1.53.89-39.5 22.96-1.55.89-39.5 22.96-1.53.89-39.5 22.96-1.53.88-39.52 22.97-1.52.89-40.28 23.4-1.55-.9 40.27-23.4 1.53-.89 39.52-22.96 1.53-.89 39.5-22.96 1.53-.89 39.5-22.95 1.54-.9 39.51-22.96 1.52-.89 39.51-22.95 1.53-.89 39.51-22.96 1.53-.89 39.5-22.96 1.53-.89 39.52-22.96 1.53-.89 39.5-22.96 1.53-.88 39.5-22.96 1.53-.89 39.52-22.96 1.53-.89 39.5-22.96 1.53-.89 39.51-22.96 1.53-.89 39.51-22.96 1.53-.88 40.27-23.41 1.55.9z"/><path class="cls-8" d="M682.32 276.46l1.53-.89 39.76 22.96-1.53.89-39.76-22.96zm-82.34.01l1.53-.89 39.76 22.96-1.53.89-39.76-22.96zm-82.35-.01l1.53-.89 39.78 22.97-1.53.89-39.78-22.97zm-82.34.01l1.53-.89 39.76 22.96-1.53.89-39.76-22.96zm-82.33 0l1.53-.89 39.76 22.96-1.53.89-39.76-22.96zm-82.35 0l1.53-.9 39.76 22.96-1.53.89-39.76-22.95zm-82.34 0l1.53-.89 39.76 22.96-1.53.89-39.76-22.96zm-71.99 4.21v1.77l29.42 16.98 1.52-.89-30.94-17.86zm697.13 61.37l-7.18 4.18-1.53.88-39.52 22.97-1.53.89-39.5 22.96-1.53.88-39.52 22.97-1.52.89-39.51 22.95-1.53.89-39.5 22.96-1.53.89L560 489.32l-1.53.89-39.5 22.95-1.53.89-39.52 22.97-1.53.89-39.5 22.95-1.53.89-39.5 22.96-1.55.89-39.5 22.96-1.53.89-39.5 22.95-1.53.89-39.52 22.97-1.53.89-40.27 23.4 1.54.89 40.27-23.41 1.53-.88 39.52-22.97 1.53-.89 39.5-22.96 1.53-.88 39.5-22.96 1.55-.9 39.5-22.95 1.53-.89 39.5-22.96 1.53-.88 39.52-22.97 1.52-.89 39.51-22.95 1.53-.89 39.51-22.97 1.53-.88 39.51-22.96 1.52-.89 39.51-22.96 1.52-.88 39.52-22.97 1.53-.89 39.5-22.95 1.53-.89L806.24 348l1.52-.89 5.65-3.27v-1.79zm0-39.21l-5.91-3.41-1.53.88 7.44 4.3v-1.77zm-89.77-2.53l1.53-.88 39.76 22.95-1.53.89-39.76-22.96zm-82.36 0l1.53-.88 39.76 22.95-1.53.89-39.76-22.96zm-82.33 0l1.53-.88 39.76 22.95-1.53.89-39.76-22.96zm-82.36 0l1.53-.88 39.77 22.96-1.53.89-39.77-22.97zm-82.33 0l1.53-.88 39.76 22.95-1.53.89-39.76-22.96zm-82.33.01l1.53-.89 39.75 22.95-1.52.89-39.76-22.95zm-82.37 0l1.53-.89 39.77 22.95-1.53.89-39.77-22.95zm-82.32 0l1.52-.89 39.77 22.95-1.53.89-39.76-22.95z"/><path class="cls-8" d="M764.94 324.16l1.53-.89 39.76 22.96-1.53.88-39.76-22.95zm-82.35.01l1.53-.89 39.76 22.96-1.53.88-39.76-22.95zm-82.34-.01l1.52-.89 39.77 22.96-1.53.89-39.76-22.96zm-82.35.01l1.53-.89 39.76 22.96-1.53.88-39.76-22.95zm-82.34-.01l1.53-.89 39.77 22.97-1.53.88-39.77-22.96zm-82.34 0l1.53-.89 39.76 22.96-1.52.89-39.77-22.96zm-82.34.01l1.53-.89 39.76 22.96-1.53.88-39.76-22.95zm-82.35-.01l1.54-.89 39.75 22.96-1.53.89-39.76-22.96zm-72.25 4.07V330l29.67 17.13 1.53-.89-31.2-18.01zm697.13 22.14l-5.64-3.26-1.53.89 7.17 4.14v-1.77zm-89.52-2.36l1.53-.89 39.76 22.96-1.53.89-39.76-22.96zm-82.33 0l1.53-.89 39.76 22.96-1.53.89-39.76-22.96zm-82.36 0l1.53-.89 39.76 22.96-1.53.89-39.76-22.96zm-82.33 0l1.53-.89 39.76 22.96-1.53.89-39.76-22.96zm-82.35 0l1.53-.89 39.78 22.96-1.53.89-39.78-22.96zm-82.34 0l1.53-.89 39.76 22.96-1.53.89-39.76-22.96zm-82.33 0l1.53-.89 39.76 22.96-1.53.89-39.76-22.96zm-82.36 0l1.53-.88 39.76 22.95-1.53.89-39.76-22.96zm665.92 137.6l-6.39 3.71-1.53.89-39.5 22.95-1.53.89-39.5 22.96-1.54.89-39.51 22.96-1.53.89-39.5 22.96-1.53.88-39.52 22.97-1.53.89-39.5 22.95-1.53.89-39.5 22.96-1.54.89-39.5 22.96-1.54.89-39.5 22.96-1.52.88-39.52 22.97-1.53.89-40.28 23.4 1.56.9 40.27-23.41 1.53-.88 39.52-22.97 1.53-.89 39.5-22.95 1.53-.89 39.5-22.96 1.54-.9 39.51-22.95 1.53-.89 39.5-22.96 1.53-.88 39.51-22.97 1.53-.89 39.5-22.95 1.53-.89 39.52-22.97 1.53-.88 39.5-22.96 1.53-.89 39.5-22.95 1.53-.89 4.84-2.81v-1.8zm-335.48 53.18l1.53-.88 39.77 22.96-1.53.89-39.77-22.97zm-41.03 23.85l1.53-.89 39.77 22.97-1.53.88-39.77-22.96zm-41.05 23.85l1.55-.9 39.77 22.97-1.54.9-39.78-22.97zm-41.03 23.84l1.53-.88 39.77 22.96-1.52.89-39.78-22.97z"/><path class="cls-8" d="M813.41 389.92l-6.91 4.01-1.53.89-39.51 22.96-1.52.89-39.52 22.96-1.53.89-39.5 22.95-1.53.89-39.51 22.96-1.52.89-39.52 22.96-1.53.89-39.5 22.96-1.53.89-39.52 22.96-1.53.89-39.5 22.96-1.53.88-39.5 22.96-1.54.9-39.51 22.95-1.52.89-39.51 22.96-1.53.88-39.51 22.97-1.53.89-40.28 23.4 1.54.89 40.28-23.4 1.53-.89 39.51-22.97 1.53-.89 39.5-22.95 1.53-.89 39.51-22.96 1.54-.89 39.5-22.96 1.53-.89 39.5-22.95 1.53-.89 39.52-22.97 1.53-.88 39.5-22.96 1.53-.89 39.52-22.96 1.52-.89 39.51-22.96 1.53-.89 39.5-22.95 1.53-.89 39.52-22.97 1.52-.88 39.5-22.96 1.53-.89 5.38-3.12v-1.78z"/><path class="cls-8" d="M765.19 371.86l1.53-.89 39.78 22.96-1.53.89-39.78-22.96zm-82.33 0l1.53-.89 39.76 22.95-1.53.89-39.76-22.95zm-164.69 0l1.53-.89 39.76 22.96-1.53.88-39.76-22.95zm-82.33 0l1.53-.89 39.76 22.96-1.53.88-39.76-22.95zm-82.36 0l1.53-.89 39.77 22.96-1.53.89-39.77-22.96zm-82.33 0l1.53-.89 39.76 22.96-1.53.88-39.76-22.95zm-82.35.01l1.53-.89 39.76 22.95-1.53.89-39.76-22.95zm-72.52 3.89v1.77l29.94 17.29 1.53-.89-31.47-18.17zm313.76 382.28l7.93-4.61 1.53-.89 39.52-22.96 1.53-.89 39.5-22.96 1.53-.89 39.5-22.95 1.54-.9 39.51-22.96 1.52-.89 39.5-22.95 1.54-.89 39.51-22.97 1.53-.88 39.5-22.96 1.53-.89 39.52-22.96 1.53-.89 39.5-22.96 1.53-.89 4.57-2.65v-1.78l-6.11 3.54-1.53.89-39.5 22.96-1.53.89-39.52 22.96-1.53.89-39.5 22.96-1.53.89-39.51 22.96-1.53.89-39.5 22.96-1.53.88-39.51 22.96-1.54.9-39.5 22.95-1.53.89-39.5 22.96-1.53.89-39.52 22.96-1.53.89-9.46 5.5h3.07zm383.37-360.12l-5.37-3.1-1.54.89 6.91 3.98v-1.77zm-89.25-2.22l1.53-.89 39.77 22.97-1.52.89-39.78-22.97zm-82.34.01l1.53-.89 39.76 22.96-1.53.89-39.76-22.96zm-164.68-.01l1.53-.89 39.76 22.96-1.53.89-39.76-22.96zm-82.35.01l1.53-.89 39.76 22.96-1.53.89-39.76-22.96zm-82.34-.01l1.53-.89 39.77 22.97-1.53.89-39.77-22.97zm-82.35.01l1.53-.89 39.76 22.96-1.53.89-39.76-22.96zm-82.33 0l1.53-.89 39.76 22.96-1.53.89-39.76-22.96zm364.6 362.33l7.95-4.62 1.53-.89 39.5-22.95 1.53-.89 39.5-22.96 1.54-.9 39.5-22.95 1.54-.89 39.5-22.96 1.53-.89 39.51-22.96 1.53-.89 39.5-22.96 1.53-.88 39.52-22.96 1.53-.9 4.3-2.49v-1.79l-5.84 3.4-1.53.88-39.52 22.97-1.53.89-39.5 22.95-1.53.89-39.51 22.97-1.53.88-39.5 22.96-1.53.89-39.5 22.96-1.55.89-39.5 22.96-1.53.89-39.5 22.95-1.53.89-9.47 5.51h3.06zm253.11-338.49l1.52-.88 39.76 22.95-1.52.89-39.76-22.96zm-82.36 0l1.52-.88 39.78 22.96-1.53.89-39.77-22.97zm-82.33 0l1.52-.88 39.76 22.95-1.53.89-39.75-22.96zm-164.7 0l1.53-.88 39.76 22.95-1.52.89-39.77-22.96zm-82.33 0l1.53-.88 39.76 22.95-1.53.89-39.76-22.96zm-82.36 0l1.53-.88 39.77 22.96-1.52.89-39.78-22.97zm-82.33 0l1.53-.88 39.76 22.95-1.53.89-39.76-22.96zm-72.79 3.75v1.78l30.21 17.44 1.54-.9-31.75-18.32zm697.13 22.16l-5.11-2.95-1.53.89 6.64 3.83v-1.77zm-88.98-2.05l1.53-.89 39.76 22.95-1.53.89-39.76-22.95zm-82.34-.01l1.52-.89 39.78 22.96-1.53.89-39.77-22.96zm-82.34 0l1.53-.89 39.76 22.96-1.53.89-39.76-22.96zm-164.69 0l1.53-.89 39.76 22.96-1.53.89-39.76-22.96zm-82.34.01l1.53-.89L354 465.48l-1.52.88-39.76-22.95zm-82.35-.01l1.53-.89 39.78 22.97-1.54.88-39.77-22.96zm-82.34.01l1.54-.9 39.76 22.96-1.54.89-39.76-22.95zm617.7 23.84l1.53-.89 39.76 22.96-1.53.89-39.76-22.96zm-82.33 0l1.53-.89 39.76 22.96-1.53.89-39.76-22.96zm-82.35-.01l1.53-.88 39.78 22.96-1.53.89-39.78-22.97zm-82.34.01l1.53-.89L560 489.32l-1.53.89-39.76-22.96zm-164.69 0l1.53-.89 39.76 22.96-1.53.89-39.76-22.96zm-82.33 0l1.52-.89 39.77 22.96-1.53.89-39.76-22.96zm-82.37 0l1.55-.89 39.78 22.96-1.55.9-39.78-22.97zm-73.04 3.6v1.77l30.47 17.59 1.53-.89-32-18.47zM557.09 108.2l-40.27 23.4-1.53.89-39.5 22.96-1.53.89-39.52 22.96-1.53.89-39.5 22.95-1.53.89L352.66 227l-1.53.89-39.5 22.95-1.53.89-39.5 22.96-1.53.88-39.51 22.97-1.53.89-39.5 22.95-1.53.89-39.52 22.97-1.53.89-29.67 17.24v1.78l31.21-18.14 1.53-.88 39.51-22.97 1.53-.89 39.5-22.95 1.53-.89 39.52-22.96 1.53-.9 39.5-22.95 1.53-.89 39.5-22.96 1.53-.88 39.52-22.97 1.53-.89 39.5-22.95 1.53-.89 39.52-22.97 1.52-.88 39.51-22.96 1.53-.89 40.27-23.41-1.54-.88zm256.32 384.81l-4.84-2.79-1.53.89 6.37 3.67v-1.77zm-88.71-1.91l1.53-.89 39.76 22.95-1.53.89-39.76-22.95zm-82.33 0l1.52-.89 39.77 22.95-1.53.89-39.76-22.95zm-82.36 0l1.53-.89 39.77 22.96-1.53.89-39.77-22.96zm-82.33 0l1.53-.89 39.76 22.95-1.53.89-39.76-22.95zm-164.69 0l1.52-.89 39.76 22.95-1.52.89-39.76-22.95zm-82.35.01l1.54-.9 39.76 22.95-1.54.9-39.76-22.95zm-82.35-.01l1.53-.89 39.78 22.96-1.53.89-39.78-22.96z"/><path class="cls-8" d="M766.01 514.95l1.53-.89 39.76 22.95-1.53.89-39.76-22.95zm-82.34-.01l1.52-.89 39.77 22.96-1.54.89-39.75-22.96zm-82.35.01l1.53-.89 39.76 22.96-1.53.89-39.76-22.96zm-82.34-.01l1.52-.89 39.78 22.97-1.53.89-39.77-22.97zm-82.35.01l1.53-.89 39.76 22.96-1.53.89-39.76-22.96zm-164.69 0l1.54-.9 39.76 22.96-1.54.9-39.76-22.96zm-82.33 0l1.53-.89 39.76 22.96-1.53.89-39.76-22.96zm-73.33 3.43v1.77l30.76 17.76 1.53-.89-32.29-18.64zM639.71 155.9l-40.28 23.4-1.53.89-39.5 22.95-1.53.89L517.35 227l-1.53.88-39.5 22.96-1.53.89-39.51 22.96-1.53.89-39.5 22.96-1.53.89-39.51 22.95-1.53.89-39.51 22.97-1.53.88-39.5 22.96-1.53.89-39.52 22.96-1.53.89-39.5 22.96-1.53.89-39.5 22.95-1.54.9-30.21 17.55v1.78l31.75-18.44 1.54-.9 39.5-22.96 1.53-.88 39.5-22.96 1.53-.89 39.52-22.96 1.53-.89 39.5-22.96 1.53-.89 39.51-22.96 1.53-.89 39.51-22.96 1.52-.88 39.51-22.96 1.53-.89 39.51-22.96 1.53-.89 39.5-22.96 1.53-.89 39.52-22.96 1.53-.89 39.5-22.95 1.53-.89 40.28-23.41-1.54-.88zm173.7 384.64l-4.57-2.64-1.53.89 6.1 3.52v-1.77zm-88.43-1.75l1.53-.88 39.76 22.95-1.53.89-39.76-22.96zm-82.36 0l1.53-.88 39.76 22.95-1.53.89-39.76-22.96zm-82.33 0l1.53-.88 39.76 22.95-1.53.89-39.76-22.96zm-164.69 0l1.53-.88 39.76 22.95-1.53.89-39.76-22.96zm-164.69 0l1.53-.88 39.76 22.95-1.53.89-39.76-22.96zm-82.33 0l1.53-.88 39.76 22.95-1.53.89-39.76-22.96zm617.7 23.85l1.53-.89 39.76 22.96-1.53.88-39.76-22.95zm-82.35.01l1.53-.89 39.77 22.95-1.53.89-39.77-22.95zm-82.34-.01l1.53-.89 39.76 22.96-1.53.88-39.76-22.95zm-82.35.01l1.53-.89 39.76 22.96-1.53.88-39.76-22.95zm-164.69 0l1.55-.9 39.76 22.96-1.55.89-39.76-22.95zm-164.67-.01l1.53-.89 39.76 22.96-1.53.89-39.76-22.96zm-73.6 3.29v1.77l31.01 17.91 1.53-.89-32.54-18.79zm608.95 20.56l1.53-.89 39.76 22.96-1.52.89-39.77-22.96zm88.18 1.58l-4.3-2.48-1.53.9 5.83 3.36v-1.78zm-170.51-1.58l1.53-.89 39.76 22.96-1.52.89-39.77-22.96zm-82.36 0l1.53-.89 39.76 22.96-1.53.89-39.76-22.96zm-82.33 0l1.53-.89 39.76 22.96-1.53.89-39.76-22.96zm-164.69 0l1.53-.88 39.76 22.95-1.53.89-39.76-22.96zm-164.69 0l1.53-.88 39.76 22.95-1.53.89-39.76-22.96z"/><path class="cls-8" d="M763.62 227.44l-40.27 23.4-1.54.89-39.5 22.96-1.53.88-39.51 22.97-1.53.89-39.5 22.95-1.53.89-39.52 22.97-1.53.88-39.5 22.96-1.53.89-39.5 22.96-1.53.88-39.52 22.97-1.53.89-39.5 22.95-1.53.89L354 465.48l-1.52.88-39.51 22.96-1.52.89-39.51 22.95-1.54.9-39.5 22.96-1.53.89-39.5 22.95-1.53.89-39.52 22.97-1.53.89-31.01 18.01v1.79l32.55-18.92 1.53-.88 39.52-22.97 1.53-.89 39.5-22.96 1.53-.88 39.5-22.96 1.54-.9 39.51-22.95 1.52-.89 39.51-22.96 1.53-.89 39.51-22.96 1.53-.89 39.5-22.96 1.53-.88 39.52-22.97 1.53-.89 39.5-22.95 1.53-.89 39.5-22.96 1.53-.89 39.52-22.96 1.52-.89 39.51-22.96 1.53-.88 39.51-22.97 1.53-.89 39.5-22.95 1.53-.89 40.28-23.41-1.54-.88zM684.2 610.33l1.53-.88 39.77 22.95-1.53.89-39.77-22.96zm83.86-.88l40.54 23.4-1.53.89-40.54-23.41 1.53-.88zm-166.2.89l1.53-.88 39.76 22.95-1.53.89-39.76-22.96zm-82.35-.01l1.53-.88 39.76 22.95-1.53.89-39.76-22.96zm-82.34.01l1.54-.89 39.76 22.95-1.54.9-39.76-22.96zm-164.68 0l1.53-.89 39.76 22.95-1.53.89-39.76-22.95zm370.67 23.85l1.53-.89 39.76 22.96-1.53.88-39.76-22.95zm83.87-.9l40.54 23.41-1.53.88-40.54-23.4 1.53-.89zm-166.2.9l1.53-.89 39.76 22.96-1.53.88-39.76-22.95zm-82.36 0l1.54-.9 39.76 22.96-1.54.89-39.76-22.95zm-82.34 0l1.53-.89 39.77 22.96-1.53.88-39.77-22.95zm-82.34-.01l1.53-.89 39.77 22.97-1.53.88-39.77-22.96zm288.34 23.85l1.52-.89 39.77 22.96-1.53.89-39.76-22.96zm83.86-.89l40.53 23.41-1.53.89-40.53-23.41 1.53-.89zm-166.21.9l1.54-.9 39.77 22.96-1.55.9-39.76-22.96zm-82.35-.01l1.53-.89 39.77 22.96-1.54.89-39.76-22.96zm-82.33 0l1.53-.89 39.76 22.96-1.52.89-39.77-22.96zm-82.36 0l1.53-.89 39.78 22.97-1.53.89-39.78-22.97zm288.34 23.86l1.54-.9 39.77 22.96-1.55.89-39.76-22.95zm83.88-.9l40.53 23.4-1.53.89-40.53-23.4 1.53-.89zm-166.21.9l1.53-.89 39.76 22.95-1.53.89-39.76-22.95zm-82.35-.01l1.53-.89 39.76 22.96-1.52.88-39.77-22.95zm-82.34.01l1.53-.89 39.76 22.95-1.53.89-39.76-22.95zm205.99 23.84l1.53-.89 39.76 22.96-1.53.89-39.76-22.96zm83.87-.9l40.54 23.41-1.54.89-40.54-23.4 1.54-.9zm-166.2.9l1.53-.89 39.76 22.96-1.53.89-39.76-22.96zm-82.36 0l1.53-.89 39.76 22.96-1.53.89-39.76-22.96z"/><path class="cls-8" d="M813.41 437.76l-6.65 3.86-1.52.89-39.52 22.96-1.53.89-39.5 22.96-1.53.89-39.51 22.95-1.52.89-39.52 22.97-1.53.89-39.5 22.95-1.53.89-39.52 22.97-1.53.88-39.5 22.96-1.53.89-39.5 22.95-1.54.9-39.5 22.96-1.53.88-39.51 22.96-1.52.89-39.52 22.96-1.53.89-40.27 23.41 1.53.89 40.28-23.41 1.53-.89 39.51-22.96 1.53-.89 39.5-22.96 1.53-.89 39.51-22.95 1.54-.9 39.5-22.96 1.53-.88 39.5-22.96 1.53-.89 39.52-22.96 1.53-.89 39.5-22.96 1.53-.88 39.52-22.97 1.52-.89 39.51-22.95 1.53-.89 39.5-22.96 1.53-.89 39.51-22.96 1.53-.89 5.11-2.97v-1.78zM479.02 729.58l1.53-.89 39.76 22.95-1.53.89-39.76-22.95zm83.86-.89l40.53 23.4-1.53.89-40.53-23.4 1.53-.89zm-166.21.89l1.53-.88 39.76 22.95-1.53.89-39.76-22.96zm52.35 28.46l-9.52-5.5-1.53.89 7.98 4.61h3.07zm82.36 0l-9.53-5.51-1.53.89 8 4.62h3.06z"/></g></g></g><path class="cls-9" d="M530.89 149.61a1.93 1.93 0 0 1-1-3.61l94.67-54.66a1.94 1.94 0 0 1 1.94 3.36l-94.67 54.65a1.88 1.88 0 0 1-.94.26zm.17 163.45a1.94 1.94 0 0 1-1-3.62L681.2 222.2a1.94 1.94 0 0 1 1.93 3.36L532 312.8a1.91 1.91 0 0 1-.94.26z"/><path class="cls-9" d="M666.76 233.91a1.94 1.94 0 0 1-1-3.62l151.14-87.24a1.94 1.94 0 0 1 1.93 3.36l-151.1 87.24a1.91 1.91 0 0 1-.97.26zM399.08 389.07a1.94 1.94 0 0 1-1-3.62l151.11-87.24a1.94 1.94 0 1 1 1.94 3.36L400 388.81a2 2 0 0 1-.92.26zM119.25 496.24a1.94 1.94 0 0 1-1-3.62L219.76 434a1.94 1.94 0 1 1 1.94 3.36L120.22 496a2 2 0 0 1-.97.24zm230.31 61.83a1.94 1.94 0 0 1-1-3.62l39.74-22.94a1.94 1.94 0 1 1 1.94 3.36l-39.74 22.94a1.91 1.91 0 0 1-.94.26zM98.91 623.05a2.3 2.3 0 0 1-2-1.22 2.49 2.49 0 0 1 .86-3.33l277.48-167.08a2.28 2.28 0 0 1 3.2.89 2.49 2.49 0 0 1-.86 3.33L100.07 622.73a2.23 2.23 0 0 1-1.16.32zM491 637a1.94 1.94 0 0 1-1-3.62l139.5-80.6a1.94 1.94 0 1 1 1.94 3.36L491.91 636.7a2 2 0 0 1-.91.3zm235.62-5.09a1.94 1.94 0 0 1-1-3.62l153.54-88.65a1.94 1.94 0 1 1 1.94 3.36l-153.52 88.65a2 2 0 0 1-.96.26zm-33.88-164.09a1.94 1.94 0 0 1-1-3.62l76.26-44a1.94 1.94 0 1 1 1.94 3.36l-76.26 44a1.88 1.88 0 0 1-.94.26z"/><path class="cls-9" d="M618.49 563.83a1.93 1.93 0 0 1-1-3.61l94.77-54.72a1.94 1.94 0 0 1 1.94 3.36l-94.78 54.71a1.85 1.85 0 0 1-.93.26zm93.34-173.75a1.94 1.94 0 0 1-1-3.62l118.49-68.11a1.94 1.94 0 1 1 1.93 3.36L712.8 389.82a1.91 1.91 0 0 1-.97.26zm-42.97-157.61a2 2 0 0 1-1-.26L528 151.33a1.94 1.94 0 0 1 1.94-3.36l139.89 80.88a1.94 1.94 0 0 1-1 3.62z"/><path class="cls-9" d="M809.69 315.81a1.91 1.91 0 0 1-1-.26l-139.85-80.88a1.94 1.94 0 1 1 1.94-3.35l139.89 80.87a1.94 1.94 0 0 1-1 3.62zm-94.23-167.5a1.88 1.88 0 0 1-1-.26l-89.23-51.61a1.94 1.94 0 1 1 1.94-3.35l89.26 51.6a1.94 1.94 0 0 1-1 3.62zM598.47 272a1.91 1.91 0 0 1-1-.26l-103.61-59.9a1.94 1.94 0 0 1 1.94-3.36l103.61 59.91a1.93 1.93 0 0 1-1 3.61zM324.58 496.9a2 2 0 0 1-1-.26L220 436.73a1.94 1.94 0 0 1 1.94-3.36l103.61 59.91a1.94 1.94 0 0 1-1 3.62z"/><path class="cls-9" d="M435.21 561.33a2 2 0 0 1-1-.26l-109.85-63.53a1.94 1.94 0 1 1 1.94-3.36l109.88 63.53a1.94 1.94 0 0 1-1 3.62zM397 123.16a2 2 0 0 1-1-.26L292.38 63a1.94 1.94 0 1 1 1.94-3.35l103.62 59.9a1.94 1.94 0 0 1-1 3.62zM719.6 629a1.91 1.91 0 0 1-1-.26L615 568.82a1.94 1.94 0 1 1 1.94-3.35l103.62 59.9a1.94 1.94 0 0 1-1 3.62zm108.85 62.72a2 2 0 0 1-1-.26l-103.59-59.91a1.94 1.94 0 1 1 1.94-3.35l103.62 59.9a1.94 1.94 0 0 1-1 3.62zm-543.28-77.61a2 2 0 0 1-1-.26l-85.12-49.22a1.93 1.93 0 0 1-.71-2.65 2 2 0 0 1 2.65-.71l85.12 49.22a1.94 1.94 0 0 1-1 3.62zm-129.25 41.8a2 2 0 0 1-1-.26l-102-59a1.94 1.94 0 1 1 1.94-3.36l102 59a1.94 1.94 0 0 1-1 3.62zm612.83-232.52a2 2 0 0 1-1-.26l-89.34-51.66a1.94 1.94 0 1 1 1.94-3.35l89.34 51.65a1.94 1.94 0 0 1-1 3.62zm89.75 2.74a1.88 1.88 0 0 1-1-.26L753.92 366a1.94 1.94 0 0 1 1.94-3.36l103.62 59.91a1.93 1.93 0 0 1-1 3.61zM202.92 269.09a1.94 1.94 0 0 1-1-3.62l115.7-66.8a1.94 1.94 0 0 1 1.93 3.36l-115.7 66.8a1.85 1.85 0 0 1-.93.26zm95.64 53.81a1.93 1.93 0 0 1-1-3.61l48.23-27.85a1.94 1.94 0 1 1 1.94 3.36l-48.24 27.85a2 2 0 0 1-.93.25zM97.77 202.41a1.93 1.93 0 0 1-1-3.61l110.64-63.88a1.94 1.94 0 1 1 1.94 3.36L98.73 202.15a1.88 1.88 0 0 1-.96.26z"/><path class="cls-9" d="M268.67 170.91a2.1 2.1 0 0 1-1-3.92l163-94.52a2.09 2.09 0 0 1 2.86.77 2.12 2.12 0 0 1-.77 2.87l-163 94.52a2.09 2.09 0 0 1-1.09.28zM566 422.45a1.88 1.88 0 0 1-1-.26l-313.51-181a1.93 1.93 0 0 1 1.93-3.35L567 418.83a1.94 1.94 0 0 1-1 3.62z"/><path class="cls-9" d="M363.28 228.12a1.91 1.91 0 0 1-1-.26L174.83 119.47a1.94 1.94 0 0 1 1.94-3.35L364.25 224.5a1.94 1.94 0 0 1-1 3.62zm162.8-29.86a1.91 1.91 0 0 1-1-.26l-156.2-90.32a1.94 1.94 0 0 1 1.94-3.36l156.23 90.33a1.93 1.93 0 0 1-1 3.61z"/><g id="_10" data-name="10"><path class="cls-10" d="M598.55 553.53a.69.69 0 0 1-.69-.65c-1.83-34 4.75-53 4.81-53.15a.7.7 0 0 1 .89-.42.69.69 0 0 1 .42.88c-.07.19-6.55 19-4.73 52.61a.7.7 0 0 1-.66.73z"/><path class="cls-11" d="M621.47 500l2.55-13.68-9.09 1.94-2.18 8.66 8.72 3.08z"/><path class="cls-11" d="M613.07 469.79c-4.55 6.7-4.47 14.71.19 17.87s12.13.3 16.69-6.41 4-16.79-.64-19.95-11.68 1.78-16.24 8.49zm-35.49-13.31l-.22.77-.57 2.11c-.46 1.81-1.07 4.4-1.63 7.57A78.68 78.68 0 0 0 574 478a48.67 48.67 0 0 0 .22 6.54 30 30 0 0 0 1.55 7.06 18.53 18.53 0 0 0 4.31 7c.25.26.54.51.81.75l.73.61 1.17.95a57.06 57.06 0 0 0 7.88 5.3 39.62 39.62 0 0 0 5.27 2.42c.86.33 1.72.58 2.53.84s1.63.44 2.41.57a24.68 24.68 0 0 0 4.2.49 18.12 18.12 0 0 0 3-.13c.38 0 .73-.11 1-.16h.17l.22-.05.17-.05-3.64-11.9h.1a5.16 5.16 0 0 1-1.14.17 13.08 13.08 0 0 1-2.29 0c-.47 0-1-.14-1.52-.21s-1.13-.23-1.74-.4a27.53 27.53 0 0 1-4-1.4 23.23 23.23 0 0 1-2.16-1c-.74-.37-1.49-.76-2.18-1.19a24.53 24.53 0 0 1-2.29-1.43l-1.24-.84-.31-.21-.16-.11.1.07a3.43 3.43 0 0 1-.33-.24 8.73 8.73 0 0 1-2.42-3.21 29 29 0 0 1-2.26-10.21 79.42 79.42 0 0 1-.34-9.36c.19-3.8.27-6.65.53-8.37a6.49 6.49 0 0 1 1.21-2.16zm52.64 52.71l.13.07.32.17c.33.2.86.5 1.52 1a32.88 32.88 0 0 1 8 7.93 32.91 32.91 0 0 1 2.59 4.37 33.67 33.67 0 0 1 1.95 5.1c.27.9.45 1.83.67 2.76s.36 1.88.42 2.85a27.87 27.87 0 0 1 .2 2.9v1.45l-.05 1.46c0 1-.11 1.93-.21 2.89a26.2 26.2 0 0 1-.39 2.82c-.14.93-.3 1.85-.52 2.74s-.36 1.77-.62 2.61c-.48 1.68-.93 3.28-1.48 4.73s-1 2.79-1.5 4-.91 2.19-1.31 3l-1.21 2.61 6.82 3.53 1.42-2.76c.47-.87 1-2 1.55-3.23s1.24-2.68 1.84-4.29 1.25-3.36 1.86-5.25c.33-.94.55-1.94.83-3s.53-2.06.74-3.14.44-2.17.58-3.3.33-2.27.39-3.45L655 538v-1.78c0-1.19 0-2.4-.11-3.6s-.26-2.41-.39-3.62-.41-2.39-.71-3.55a40.08 40.08 0 0 0-5.43-12.59 40.91 40.91 0 0 0-3.59-4.77 41.92 41.92 0 0 0-6.57-6.09c-.88-.66-1.63-1.14-2.16-1.48l-.69-.41-.22-.13zm-3.53 87.88l1.7 71.97h5.87l5.86-71.97h-13.43zm-18.81 0l6.37 71.97h5.88l1.18-71.97h-13.43z"/><path class="cls-12" d="M607.83 543.58a77.64 77.64 0 0 0-4-17.38c-3.43-9.79-4.9-29.87 6.12-30.36 1.22-.73 18.85 0 18.85 0s10.53 4.25 12.85 8.74l-10.28 34.1z"/><path class="cls-13" d="M631.33 538.68s5.88 3.63 11.26 16.27 6 44.61 6 44.61l-45.78 6s-4.41-43.42 5-62.25z"/><path class="cls-14" d="M624.87 529.54c1.79-11.8-9-11.41-10.39-19s8.73-16.28 6.09-26.58-3.83-9.4-4.79-12.64c-1-3.43-2.94-10.45 4.71-14s14.36-7.75 19.58 9.36 6.33 4.93 13.22 18.44 6.63 25.48 2.48 33.16 13.71 12.23 1.8 24.71-36.84 13.88-32.7-13.45z"/><path class="cls-15" d="M604.66 674.15a11.31 11.31 0 0 1 10.05-5.15h5.42v5.11zm29.61-5.15l.86 5.11h-9.27a3.28 3.28 0 0 1 .55-3.46 13.35 13.35 0 0 1 2-1.65z"/><path class="cls-10" d="M612.75 553.53a.7.7 0 0 1-.66-.73c1.82-33.67-4.5-56.27-4.56-56.49a.69.69 0 0 1 .47-.86.7.7 0 0 1 .86.48c.06.22 6.45 23 4.62 56.95a.69.69 0 0 1-.73.65z"/><path class="cls-16" d="M594.29 551.92h22.9v18.76h-22.9z"/><path class="cls-10" transform="rotate(-.58 580.6 444.52)" d="M580.81 440.04h8.83v17.13h-8.83z"/><path class="cls-17" transform="translate(-4.47 5.9)" d="M581.69 441.74h7.07v13.72h-7.07z"/><path class="cls-11" d="M577.58 456.48s2.89-8.35 7.65-8.26-1.31 2.82-1.62 3.08 1.37 2.94-.09 6.69z"/></g><g id="_2" data-name="2"><path class="cls-18" d="M229.13 479.51l-28.39 98.26-11.69-3.2 18.23-98.96 21.85 3.9z"/><path class="cls-19" d="M187.54 586.34s28.69 3.26 24.78-2.86-14.89.74-11.52-5.94l-11.72-3.13s-5.45 11.19-1.54 11.93z"/><path class="cls-20" d="M221.34 423.37c-6 6.92 8.86 21.35 22 31.94 0 0 9 8.92 19.15 13.49s5.52-.19 2.48-4.43-12.21-12.37-17.84-17.87-20.61-29.16-25.79-23.13z"/><path class="cls-20" d="M265 464.37s9.84 3.54 11.42 9.8c.56 2.25-2.64 1.19-2.64 1.19s-2.56-1.57-6.41-3.61z"/><path class="cls-20" d="M262.47 468.53s6.49 9.54 6.47 6.13c0-2-2.84-5.05-2.84-5.05zm-43.59-48.25l2.55-12.83 7.25 4.87-.9 4.29-8.9 3.67z"/><path class="cls-20" d="M239.21 401.65c-1.65 7.44-7.19 12.55-12.36 11.4s-8-8.12-6.37-15.56c.53-2.4-.2-5.71 1.23-7.63 3-4.06 9.34-5.58 12.85-4.8 5.17 1.15 6.31 9.15 4.65 16.59z"/><path class="cls-21" d="M200.52 474.74s3.28-59.81 25-58.86c21 .91 11.92 56.87 11.92 56.87z"/><path class="cls-20" d="M228.57 427.27c-6.36-6.55-22.06 6.9-33.79 19 0 0-9.71 8.19-15.16 17.85s-.32 5.51 4.19 2.87 13.37-11 19.4-16.13 30.9-17.86 25.36-23.59z"/><path class="cls-20" d="M183.81 467s-4.42 9.48-10.8 10.48c-2.28.36-.95-2.72-.95-2.72a62.56 62.56 0 0 1 4.51-7.85 8.14 8.14 0 0 1 3.05-2.78z"/><path class="cls-19" d="M240.27 387.57s-11.83 18-21.75 16.18.93-21 9.57-20.6c0 0-9.69-8.46.2-9.26s3.05 9.54 3.05 9.54 4.03-3.49 8.93 4.14zm-127.16 158l-.51-1.2A85 85 0 0 0 142.66 520c7.25-9.41 13.85-21.46 19.16-31.14 6.56-12 10.41-18.76 13.31-19.3a8.93 8.93 0 0 1 7.44 1.49c3.49 2.74 4 7.83 4.06 8.58a51 51 0 0 1 2.18 10.08c.51 7.89-.27 23.49-3.52 23.93-1.11.15-2.45-.75-4.07-8.54-3.75-18 2.52-24.37 4.08-25.64-.14-1.19-.79-5.23-3.54-7.39a7.69 7.69 0 0 0-6.39-1.22c-2.43.44-7.05 8.88-12.41 18.64s-12 21.81-19.27 31.3a86.32 86.32 0 0 1-30.58 24.78zm72.55-64.66c-1.82 1.87-6.41 8.36-3.17 23.92 1.5 7.19 2.59 7.51 2.64 7.52 1.37-.41 3.08-11.71 2.38-22.55a47 47 0 0 0-1.85-8.89z"/><path class="cls-22" d="M86.92 556.05s-.13 1.45 1.74 9.11 1.6 12.22 3.47 13.66 1.41 4.6-2 3.95c-2.52-.48-6.33-6.32-8.15-15-1.2-6.47-7.46-10.19-7.46-10.19zM110 551.7s-.92 1.12-3.93 8.36-5.8 10.85-5.27 13-1.62 4.48-3.7 2.25c-1.54-1.64-1-8.35 2.66-16.37 2.82-5.92.43-12.08.43-12.08zm-4.95-12.39l10.09-5.42 4.53 11.07-7.64 11.09-6.98-16.74z"/><path class="cls-22" d="M113.44 540.43s2.63 5.62 7.4 4.36 9.07-.28 9.55-2.95 4.05-5.21-5.73-6.61c0 0-3.34-7.88-9.55-5.49a11.52 11.52 0 0 0-7.18 8.22z"/><path class="cls-22" d="M111.69 534.59a87.37 87.37 0 0 1 2.91-9s1.87-1.29 1.77 4.08zm-.21-1.16s-.67-4.83-1.42-5.32-2.2 5.25-1.28 7.42zm1.26 21.48zm0 0l-.3.49.3-.49zm-.35.58v-.09c2.86-4.8 1-9-2.33-12.7-4.07-4.63-5.06-5.57-14.32-4.65-7.57.76-8.93 4.1-16.57 4.1a13.85 13.85 0 0 0-10.77 4.55s-1.14-1.93-3.13-.3.79 4.28.79 4.28a13.55 13.55 0 0 0 0 9.21c2.57 6.92 1.11 19.44 6.88 24.38 3.27 2.8 5.76-.92 3-3.67-3.21-3.18 1.09-10.59-.2-13.85.68-2.49 2.19-5.07 1.94-7.75-.22-2.24 3.21-.94 4.12-1 4.91 0 10 1.23 15 1.71 3.25.31 6.36-1.73 6.49 2.42.09 2.61.47 5.2.77 7.79.42 3.58.92 14.65 5.87 15.12 3.9.37-.11-7.52.11-10 .58-6.53-.77-14.33 2.42-19.7z"/><path class="cls-21" transform="rotate(-39.41 111.54 544.15)" d="M110.22 535.86h2.61v16.52h-2.61z"/><path class="cls-23" d="M200.52 474.74a25.48 25.48 0 0 0 4.53 21.3c2 2.63 15.74 5.82 21.79 4.69 2.23-.42-1.67-3.35-.32-4.35 9.48-7.05 11-23.63 11-23.63z"/><path class="cls-19" d="M219.5 558.44s26.74 10.88 24.62 3.94-14.53-3.31-9.48-8.84l-10.44-6.17s-8.27 9.31-4.7 11.07z"/><path class="cls-20" d="M178.22 468.57s-.06 5.75 1.3 6.41 1.47-6.14 1.47-6.14z"/><path class="cls-23" d="M255.34 515.9v-.09c0 .25-.38-2.2-.22-1.24a12.09 12.09 0 0 0-.44-1.28l-.18-.44-.29-.65-.48-1a288.97 288.97 0 0 0-3.45-7l-3.35-6.61-6-11.67a113.63 113.63 0 0 1-5.42-12l-24.64 15 8.41 9.74 8.59 10 4.79 5.64 3.62 4.3c-.67 1.74-1.36 3.49-2.05 5.2-1.79 4.37-3.53 8.47-5 12-3.05 7-5.07 11.69-5.07 11.69l10.45 6.15 6.81-10.84c2-3.26 4.39-7.07 6.88-11.22 1.24-2.08 2.52-4.23 3.81-6.52.65-1.16 1.28-2.31 2-3.72.17-.35.36-.75.56-1.25l.16-.42.2-.57.12-.45.06-.24v-.16l.08-.47a8.66 8.66 0 0 0 .05-1.88z"/><path class="cls-19" transform="rotate(41.71 275.92 468.38)" d="M274.41 459.24h3.03v18.38h-3.03z"/></g><path class="cls-24" d="M374.3 176.1a2.69 2.69 0 0 1-2.7-2.69V43.4a2.7 2.7 0 1 1 5.39 0v130a2.69 2.69 0 0 1-2.69 2.7z"/><path class="cls-24" d="M374.3 93.25c-9.26 0-16.53-2.65-21.63-7.86-7.5-7.67-7.35-18-7.34-18.48a2.67 2.67 0 0 1 2.76-2.63 2.7 2.7 0 0 1 2.63 2.72c0 .13-.06 8.64 5.84 14.64 4.05 4.1 10 6.19 17.74 6.19a2.7 2.7 0 0 1 0 5.39z"/><path class="cls-24" d="M374.3 93.25a2.7 2.7 0 1 1 0-5.39c7.72 0 13.68-2.09 17.73-6.19 5.92-6 5.85-14.56 5.84-14.64a2.7 2.7 0 0 1 5.39-.12c0 .44.16 10.81-7.34 18.48-5.09 5.21-12.37 7.86-21.62 7.86z"/><circle class="cls-25" cx="348.02" cy="66.98" r="8.34"/><circle class="cls-25" cx="400.9" cy="66.98" r="8.34"/><circle class="cls-25" cx="374.3" cy="43.4" r="11.79"/><path class="cls-24" d="M381.26 169.68c0 1.75-2.11 3.17-4.72 3.17h-4.49c-2.6 0-4.72-1.42-4.72-3.17s2.12-3.17 4.72-3.17h4.49c2.61 0 4.72 1.42 4.72 3.17z"/><path class="cls-24" d="M384.54 176.9c0 2.65-3.11 4.79-6.94 4.79H371c-3.83 0-6.94-2.14-6.94-4.79 0-2.64 3.11-4.78 6.94-4.78h6.61c3.83 0 6.94 2.14 6.94 4.78z"/><path class="cls-25" d="M798.82 465.17c0 4.67-3.27 8.47-7.31 8.47H759c-4 0-7.31-3.8-7.31-8.47 0-4.68 3.28-8.47 7.31-8.47h32.55c4 0 7.31 3.79 7.31 8.47zm30.12 39.63a12.57 12.57 0 0 1-12.57 12.57h-62.11a12.57 12.57 0 0 1-12.57-12.57 12.56 12.56 0 0 1 12.57-12.56h62.11a12.56 12.56 0 0 1 12.57 12.56z"/><path class="cls-25" d="M821 482.94a9.3 9.3 0 0 1-9.3 9.3h-39.89a9.3 9.3 0 0 1-9.3-9.3 9.3 9.3 0 0 1 9.3-9.3h39.85a9.3 9.3 0 0 1 9.3 9.3z"/><path class="cls-24" d="M781.66 592.1a2.66 2.66 0 0 1-2.66-2.65V507a2.66 2.66 0 0 1 5.32 0v82.43a2.66 2.66 0 0 1-2.66 2.67z"/><path class="cls-24" d="M781.66 549.62a2.66 2.66 0 0 1-1.93-4.48l18.15-19.27a2.66 2.66 0 0 1 3.87 3.65l-18.16 19.26a2.62 2.62 0 0 1-1.93.84z"/><path class="cls-19" transform="rotate(16.25 746.83 304.77)" d="M744.83 290.26h3.75v28.86h-3.75z"/><path class="cls-26" d="M702.73 463.86s32.63 3.71 28.18-3.24-16.93.83-13.1-6.77h-12.94s-6.59 9.15-2.14 10.01zm-48.54-18.97s23.29 23.16 24.12 14.95c.71-7.08-9.11-8.42-9.11-12.35a5.08 5.08 0 0 1 2.14-3.46l-9.25-5.66s-10.87 3.11-7.9 6.52z"/><path class="cls-27" d="M681.08 295.4l1.69-14.78 8.68 4.84-.62 4.95-9.75 4.99z"/><path class="cls-27" d="M699.15 267.14c2.56 8.29 0 16.45-5.8 18.22s-12.5-3.5-15.06-11.79c-.82-2.67-3.41-5.53-3.07-8.24.7-5.71 6.09-10.76 10-12 5.78-1.74 11.38 5.52 13.93 13.81zm50.67 51.37s-19.43 18.35-30.11 16.6c-17.68-2.89-35.3-25-27.13-31.64 6.74-5.48 26.23 21.44 27.78 22A167 167 0 0 1 745.6 315s2.2-12.05 7.63-11.5-.55 13.5-3.41 15.01z"/><path class="cls-28" d="M705.35 411.68c-4.81 8-34 32.35-34 32.35l-9.14-5.63s22.83-22.82 26.52-34.06c4.52-13.77-12.24-49.84-12.24-49.84h45.71s19.41 40.63 18.37 52.53-22.71 46.84-22.71 46.84h-13s16.82-31 18.89-43.17c1.19-6.95-6.71-18.44-13.69-27-.06 10.66-1.06 21.94-4.71 27.98z"/><path class="cls-29" d="M722.05 354.92s-9.32-67.5-33.92-64.38c-23.73 3-11.8 64.38-11.8 64.38z"/><path class="cls-30" d="M710.06 383.58s-4.72-2.91-13.34-9.17c0 0 9 14.27 13.22 15l.12-5.8z"/><path class="cls-27" d="M690.52 299c8.3 6.25-4.64 25.89-16.65 40.85 0 0-7.86 12.11-18 19.65s-6.17 1.14-3.83-4.32 10.54-16.66 15.44-24.2 15.82-37.4 23.04-31.98z"/><path class="cls-27" d="M652.05 355.2s-10.07 6.34-10.3 13.67c-.08 2.63 3.22.68 3.22.68s2.46-2.37 6.25-5.57z"/><path class="cls-27" d="M655.82 359.23s-4.89 12.17-5.7 8.38c-.47-2.23 1.93-6.3 1.93-6.3z"/><path class="cls-26" d="M693.15 256.65s-5.27-12.42-8.38-12.11-14.9 9.84-14.66 14.57 5.51 11.72 7.88 13.63c0 0-3.7-6.54 2.74-3z"/><g id="_6" data-name="6"><path class="cls-31" d="M411.39 372.9l-32.97-23.88-6.39-4.63 6.58-8 26.97-22.89 17.6 11.62-33.93 24.06.19-12.63 27.78 29.76-5.83 6.59z"/><path class="cls-32" d="M342.82 336.89h178v3.74h-178z"/><path class="cls-33" d="M503.25 326.26s9.2-3.12 10.91 5.3-10.15 10.55-25.27 8.37-.13-10.08 14.36-13.67z"/><path class="cls-34" d="M449.28 271.74l2.41 1c1.52.68 3.74 1.58 6.36 2.69s5.71 2.31 8.95 3.44c1.61.53 3.29 1.08 4.86 1.43a17.43 17.43 0 0 0 2.19.38 5.77 5.77 0 0 1 .72 0h-.37.31l.36-.05.72-.09a1.56 1.56 0 0 0 .5-.12l.38-.13.38-.11.57-.2 1.15-.4 1.19-.48c1.59-.61 3.2-1.35 4.74-2.09 3.1-1.47 6-3 8.48-4.31s4.57-2.43 6-3.24l2.23-1.23 5.73 9.76-.64.38c-.41.24-1 .6-1.75 1a148.96 148.96 0 0 1-10.66 5.5c-1.57.71-3.22 1.46-5 2.17s-3.61 1.41-5.62 2l-1.51.45-1.61.41-.81.2-1 .18-1 .17a8.15 8.15 0 0 1-.92.1l-1.85.07c-.72-.08-1.45-.16-2.16-.27a26.75 26.75 0 0 1-3.38-1 48.07 48.07 0 0 1-5.6-2.4c-1.71-.86-3.31-1.73-4.79-2.59s-2.86-1.7-4.11-2.49c-2.51-1.58-4.5-3-5.91-4-.71-.49-1.24-.91-1.62-1.19l-.57-.43z"/><path class="cls-34" d="M508.13 277.09a5.62 5.62 0 1 1-.17-7.95 5.62 5.62 0 0 1 .17 7.95z"/><path class="cls-35" d="M423.19 372.85s-16.14 14.3-16.37 8.88 9.37-6.28 4.44-8.92l5.88-6.59s8.13 4.5 6.05 6.63z"/><path class="cls-36" d="M506.81 378.16s-16.15 14.3-16.38 8.88 9.37-6.27 4.44-8.92l5.88-6.59s8.13 4.47 6.06 6.63z"/><path class="cls-37" d="M495.23 378.7l-33-23.89s-5.07-4-4.37-7c.58-2.53 4.55-5.65 4.55-5.65l27-22.89L507 330.92 473.09 355l.18-12.63 27.78 29.77z"/><path class="cls-34" d="M515.4 263.81l-.75-12.49-7.5 3.67.29 4.19 7.96 4.63z"/><path class="cls-34" d="M501.5 239.27c-2.51 6.85-.7 13.81 4.06 15.56s10.65-2.39 13.16-9.23-.15-15.52-4.91-17.27-9.81 4.1-12.31 10.94z"/><path class="cls-38" d="M551.12 276.16c-6.55-7.72-12.42-3.13-18.08-7.11s-5.48-13.18-13.58-18.23-8.18-4-10.8-5.57a10.68 10.68 0 0 1-3.91-12.25c2-5.21.71-16.58 14.62-8.54s6.79 8.59 19.35 13.83 20.06 12.44 22.63 18.68 15.59 1.72 16.84 13.93-11.92 23.15-27.07 5.26z"/><path class="cls-34" d="M411.58 261.34l-4.37-12.12-6.35 5.81 1.5 4.05 9.22 2.26z"/><path class="cls-34" d="M390.71 241.13c-.5 7.5 3.32 13.85 8.53 14.2s9.83-5.45 10.33-13-4.65-15.3-9.86-15.64-8.5 6.95-9 14.44z"/><circle class="cls-39" cx="320.41" cy="382.35" r="41.14"/><circle class="cls-39" cx="539.93" cy="382.35" r="41.14"/><path class="cls-23" d="M430.32 313.73s-3.13-57.19-23.95-56.29c-20.09.88-11.4 54.38-11.4 54.38z"/><path class="cls-32" d="M319.02 379.9h220.3v3.74h-220.3z"/><path class="cls-32" transform="rotate(-63.14 337.97 348.94)" d="M299.73 347.07h76.46v3.74h-76.46z"/><path class="cls-32" transform="rotate(-63.14 434.31 348.8)" d="M396.21 346.94h76.19v3.74h-76.19z"/><path class="cls-32" d="M516.24 336.88l21.9 46.76 3.18-.89-21.37-45.87h-3.71z"/><path class="cls-36" d="M513.79 324.69s19.09-61.91-3.82-66.41c-19.73-3.88-31.16 60.08-31.16 60.08z"/><path class="cls-40" d="M513.79 324.69l-34.6-6.51-38.37 17.5s-4.58 3.13-5.29 5.17c-.55 1.6.37 5.21.37 5.21l18.8 44.36 8.36-2.77-9.25-38.09s33.82-5.83 44.63-9.49c11.24-3.81 15.35-15.38 15.35-15.38z"/><path class="cls-35" d="M353.57 313.99h16.06v4.2h-16.06zm96.29 0h16.06v4.2h-16.06z"/><path class="cls-33" d="M421.43 325.26s9.2-3.12 10.91 5.3-10.16 10.54-25.27 8.36-.13-10.08 14.36-13.66z"/><path class="cls-35" d="M325.61 381.77a5.2 5.2 0 1 1-5.2-5.19 5.2 5.2 0 0 1 5.2 5.19zm219.51 0a5.2 5.2 0 1 1-5.19-5.19 5.19 5.19 0 0 1 5.19 5.19z"/><path class="cls-41" d="M430.32 313.73L395 311.82l-33 26.34s-3.68 4.17-3.87 6.32c-.14 1.68 1.63 4.95 1.63 4.95l29.08 38.42 7.42-4.72L378 348.45s31.58-13.64 41.76-18.8c12.75-6.44 10.56-15.92 10.56-15.92z"/><path class="cls-35" d="M400.18 390.8s-19.59 9-18.25 3.77 10.74-3 6.78-6.91l7.59-5s6.48 6.7 3.88 8.14z"/><path class="cls-36" d="M464.82 395.77s-21.2 4-18.61-.78 11.13-.27 8.25-5.06l8.57-3s4.66 8.07 1.79 8.84z"/><path class="cls-34" d="M366.19 308.35l2.45-.92c1.57-.57 3.8-1.45 6.45-2.47s5.72-2.28 8.84-3.71c1.53-.73 3.13-1.5 4.5-2.33a19.49 19.49 0 0 0 1.84-1.24 4.16 4.16 0 0 1 .52-.51c.25-.24-.32.34-.25.27l.05-.07.12-.14.22-.28.46-.56a1.55 1.55 0 0 0 .27-.44l.19-.35.19-.35.28-.53.55-1.09.53-1.17a84.61 84.61 0 0 0 2-4.79c1.22-3.21 2.25-6.32 3.13-9s1.61-4.91 2.08-6.48l.76-2.43 10.89 3.08-.2.71c-.13.46-.3 1.12-.55 1.95-.51 1.66-1.22 4-2.21 6.83-.5 1.4-1 2.92-1.68 4.52s-1.3 3.28-2.09 5-1.63 3.52-2.64 5.36l-.78 1.38-.88 1.4-.45.71-.62.85-.63.84a6.64 6.64 0 0 1-.6.72l-1.29 1.32c-.57.45-1.15.89-1.74 1.3a26.33 26.33 0 0 1-3.11 1.65 48.35 48.35 0 0 1-5.71 2.14c-1.82.56-3.58 1.05-5.24 1.45s-3.24.76-4.69 1.05c-2.9.6-5.34.94-7 1.21-.86.13-1.53.2-2 .26l-.71.08z"/><path class="cls-34" d="M359.5 314.48s2.83-5.92 7.3-6.31 2 4.91 2 4.91l-2 2s-1 3.58-2.32 3.82-6.31-.21-4.98-4.42zm52.85-43.02a5.62 5.62 0 1 1-5.62-5.62 5.62 5.62 0 0 1 5.62 5.62zm144.49-31.72l-.2.69c-.14.45-.32 1.1-.59 1.92-.55 1.63-1.29 4-2.36 6.74a108.87 108.87 0 0 1-4.11 9.38 47.65 47.65 0 0 1-3.07 5.28 28.21 28.21 0 0 1-2.14 2.79c-.5.51-1 1-1.57 1.5l-1.52 1a7.26 7.26 0 0 1-.81.46l-.93.49-.94.47-.77.33-1.54.63-1.48.54a98.43 98.43 0 0 1-11.03 2.94c-1.68.35-3.27.65-4.73.9-2.93.51-5.38.82-7.1 1-.87.11-1.54.17-2 .22l-.74.07L508 266l2.51-.35c1.63-.2 4-.55 6.74-1s6-.93 9.39-1.59c1.68-.33 3.41-.7 5-1.15l1.24-.32 1.16-.37.58-.18.37-.14.38-.13a1.36 1.36 0 0 0 .47-.19l.63-.36.32-.17.16-.09.08-.05-.31.21a5.06 5.06 0 0 1 .58-.42 17.22 17.22 0 0 0 1.53-1.61c1.17-1.27 2.17-2.72 3.17-4.09 1.93-2.84 3.66-5.66 5.13-8.1s2.69-4.49 3.51-5.95l1.31-2.27z"/><path class="cls-34" d="M507.86 277.06a5.62 5.62 0 1 0-4.6-6.48 5.63 5.63 0 0 0 4.6 6.48zm-61.27-.76a15.65 15.65 0 0 1-3.79-2.3c-2.42-2.09-4.71-5.16-4.68-6.46.05-2.24-1.27-4.19-.37-4.65 1.1-.58 6.77 3 8.84 5.66 0 0-1.09-4.89.37-5.15s1.4 1.51 2 4.16 0 4 .94 4.62z"/><path class="cls-36" d="M391.65 235.47s-3.3-13.36.45-13.68 20.17-1.49 19.48 10.49a52.63 52.63 0 0 1-2 8.76 2.56 2.56 0 0 0-2.75-1.66 1.68 1.68 0 0 0-1.53 2.17s-3.44-7.35-13.65-6.08z"/><path class="cls-35" d="M337.73 318.2l-.89 16.8a8.39 8.39 0 0 0 .89-16.75z"/><path class="cls-34" d="M551.91 237.67s1.48-5.06 2.9-5.68 5.22-8.42 6.88-7.38.14 11.33-5.05 15.27z"/><path class="cls-34" d="M552.52 235.87s.93-3.16 1.4-4.66 1.5-5.09 2-4.16 0 4-.3 5.77z"/><path class="cls-19" transform="rotate(-18.67 442.43 261.32)" d="M441.05 249.81h2.91v23.07h-2.91z"/></g><g id="_11" data-name="11"><path class="cls-42" d="M652.47 92.42s4.61 7.52.79 9.71-9.14 3.48-8.43-4.14c0 0 1.33-3.64.38-5z"/><path class="cls-43" d="M593.4 35.31a23.2 23.2 0 0 0-4 11c-.59 6.55-.59 12.28-.59 12.28"/><path class="cls-42" d="M608.85 53.42l-2.2-13-7.45 4.69.78 4.36 8.87 3.95z"/><path class="cls-42" d="M591.51 29.27c-1.86 7.46.83 14.56 6 15.85s10.89-3.7 12.76-11.16-1.91-16.25-7.09-17.54-9.8 5.4-11.67 12.85z"/><path class="cls-44" d="M593.49 23.74s-.9-14 2.93-13.69 20.58 2.16 17.71 14.1c-.72 3-3.58 8.46-3.58 8.46a2.59 2.59 0 0 0-2.46-2.16 1.71 1.71 0 0 0-1.93 1.9s-2.16-8.03-12.67-8.61z"/><path class="cls-19" d="M645.21 93.62s0-.2-.06-.35c-.07-.32-.18-.85-.37-1.52a26.75 26.75 0 0 0-2.25-5.45 30.71 30.71 0 0 0-5-6.7 31.88 31.88 0 0 0-3.53-3.21c-.65-.5-1.3-1-2-1.44l-1-.68-.53-.33-.26-.16h-.07s.3.2.14.1l-.15-.1-1.38-.78a3.79 3.79 0 0 0-.52-.27l-.44-.2c-.53-.28-1.31-.56-2-.82a24.9 24.9 0 0 0-4.16-1.06 37.34 37.34 0 0 0-4.18-.39c-1.39 0-2.73 0-4 .07s-2.48.16-3.56.26-2 .2-2.84.29l-2.52.3L603.26 56l2.72-.12c.88 0 1.94-.07 3.19-.08h4.27c1.6 0 3.35.18 5.23.4a42.55 42.55 0 0 1 6 1.17 37.33 37.33 0 0 1 6.33 2.39c.53.25 1 .54 1.55.81s1 .58 1.57.92l.8.51c.28.17.54.34.71.47l1.15.85.15.11.18.12.08.06.31.26.63.52c.42.34.82.71 1.22 1.07.82.71 1.59 1.47 2.34 2.24a43.81 43.81 0 0 1 4.11 4.81 39 39 0 0 1 5.29 9.9 33.19 33.19 0 0 1 1.8 7.78c.1 1 .14 1.76.15 2.33v.97z"/><path class="cls-19" d="M597.63 58.74a7.92 7.92 0 0 1 11.11-1.44c3.47 2.67 6.85 7.48 4.18 11s-10.39 4.27-13.85 1.6a7.92 7.92 0 0 1-1.44-11.16z"/><path class="cls-28" d="M667.74 138.23L656 136.49c-3.54-.53-7.65-1.12-12.14-1.71l-7-.83-.88-.1h-.76.34a6.76 6.76 0 0 1 1.9.16c.53.13.18-.17-.14-.66a41 41 0 0 1-2.68-4.36 84.09 84.09 0 0 1-2.66-5.38 185.88 185.88 0 0 1-6.95-18.02l-.69-2.13-.2-.69-6.87 3-23-1.08-7.88-6.79-2.27 3.38-5.81 8.87c-2.4 3.67-5.14 8-8 12.81-1.43 2.4-2.89 4.91-4.34 7.62a95.84 95.84 0 0 0-2.17 4.31l-.55 1.21-.55 1.34c-.18.44-.39 1.05-.57 1.57-.09.24-.21.68-.3 1l-.14.54-.07.27-.08.42a16.69 16.69 0 0 0-.22 1.73c-.05 1.07 0 .31 0 .56v.5l.13 1.07.25 2.14.77 4.73c.13.76.25 1.6.4 2.27s.28 1.39.41 2.08l.82 4.06c1.11 5.3 2.19 10.22 3.13 14.42l3.12 14 6.76-.86s0-1.42-.1-3.92-.15-6.06-.19-10.34-.08-9.27-.07-14.59v-6c0-.64 0-1.26.07-1.9l.14-3.71.19-2.12.1-1.07v-.5.5a3.11 3.11 0 0 1 0 .68v.15s0 .09.06 0l.3-.38.92-1.2a73.7 73.7 0 0 1 2.36-2.84c1.68-1.94 3.48-3.88 5.26-5.75 3.55-3.74 7-7.2 10-10.14 2.59-2.53 4.86-4.65 6.58-6.27 1 1.58 2.15 3.44 3.52 5.54 2 3.12 4.44 6.74 7.32 10.58 1.44 1.92 3 3.9 4.75 5.93a49.72 49.72 0 0 0 6.35 6.26 21.05 21.05 0 0 0 5.57 3.33 13.29 13.29 0 0 0 5.28.93h.72s.21 0 0 0l.21-.05.43-.1.85-.2c2.33-.57 4.38-1 6.47-1.41a712.97 712.97 0 0 1 20.27-3.65l3.2-.52z"/><path class="cls-41" d="M626.3 106.11s3.82-60.82-23.7-58.11c-19.22 1.84-20.25 56-20.25 56z"/><path class="cls-19" transform="rotate(-30 543.92 62.1)" d="M542.9 53.26h2.05v17.68h-2.05z"/><path class="cls-43" d="M607.68 33.9S595 44 590.92 53.42s-11.64 32.75-17.64 27.48-25.1-12.9-25.1-12.9"/><path class="cls-42" d="M546.19 78.07s-9.52-3.94-7.41-8.63 6.25-9.57 10.81-1.88c0 0 1.24 4.35 3.07 5z"/><path class="cls-19" d="M612 62.77a7.92 7.92 0 0 0-8.66-7.1c-3 .29-6.23 3.09-7.9 6.22l-.43.46a52.9 52.9 0 0 1-5.68 5.21 43 43 0 0 1-3.71 2.66 38.89 38.89 0 0 1-4.16 2.31c-.73.33-1.46.65-2.21.93l-1.12.4-1 .31c-.48.2-2 .47-2.44.59-.85.17-1.69.32-2.53.44a40.09 40.09 0 0 1-4.9.43 30.58 30.58 0 0 1-8.42-.9 21.43 21.43 0 0 1-5.31-2.13c-.57-.33-1-.61-1.21-.78l-.23-.16-6.57 6.34.24.26.54.54a21.36 21.36 0 0 0 1.93 1.62 31.24 31.24 0 0 0 7.36 4.06 41.05 41.05 0 0 0 11.2 2.52 51.48 51.48 0 0 0 6.36.2q1.62 0 3.24-.18h.97l.73-.09.72-.1.9-.17 1.84-.38 1.67-.45c1.11-.3 2.18-.67 3.24-1a51.41 51.41 0 0 0 5.93-2.83 58.87 58.87 0 0 0 5.15-3c1.57-1 3-2.09 4.28-3.1s2.43-2 3.41-2.84 1.81-1.65 2.49-2.3l.24-.23a7.92 7.92 0 0 0 4.04-7.76zm-32.95 130.62s-18.7 4-16.52-.27 8.73-.3 7.54-4.71l7.17-.71s4.35 4.95 1.81 5.69zm-14.37 3.41a1.39 1.39 0 0 1-1.25 1.53 1.4 1.4 0 1 1 1.25-1.53zm3.71 0a1.4 1.4 0 1 1-1.53-1.25 1.4 1.4 0 0 1 1.53 1.25zm4.01-.4a1.39 1.39 0 0 1-1.25 1.53 1.4 1.4 0 0 1-.28-2.78 1.39 1.39 0 0 1 1.53 1.25zm4.34-.4a1.39 1.39 0 1 1-1.52-1.25 1.39 1.39 0 0 1 1.52 1.25zm4.36-.82a1.39 1.39 0 1 1-1.52-1.25 1.39 1.39 0 0 1 1.52 1.25zM673.14 137s1.83 19-2.17 16.38.71-8.7-3.81-8l.12-7.2s5.42-3.77 5.86-1.18zm1.73 14.69a1.4 1.4 0 1 1-1.42 1.37 1.39 1.39 0 0 1 1.42-1.37zm.43-3.69a1.4 1.4 0 1 1 0 2.79 1.38 1.38 0 0 1-1.37-1.41 1.4 1.4 0 0 1 1.37-1.38zm.07-4a1.4 1.4 0 1 1 0 2.79 1.38 1.38 0 0 1-1.37-1.41 1.4 1.4 0 0 1 1.37-1.38zm.07-4.39A1.4 1.4 0 1 1 674 141a1.4 1.4 0 0 1 1.44-1.39zm-.28-4.42a1.4 1.4 0 1 1-1.42 1.37 1.4 1.4 0 0 1 1.42-1.37z"/></g><g class="cls-45"><g id="_8" data-name="8"><path class="cls-24" d="M81.26 242.08c-7.1 4.38-10.6 3.07-13.41 2-2.35-.88-4.06-1.52-8.56 1.25s-4.64 4.52-4.84 6.93c-.21 2.58-.47 5.74-5.38 9.49l.07.1-1.68 1.15c-7.1 4.38-10.6 3.07-13.41 2-2.36-.89-4.06-1.52-8.56 1.25s-4.65 4.52-4.84 6.93c-.23 2.8-.52 6.27-6.73 10.45a1.89 1.89 0 0 1-.27.2 2 2 0 0 1-2.73-.63l-1-1.65 1.59-1.1c4.82-3.17 5-5.22 5.18-7.6.29-3.48 1-6.43 6.73-10 6.16-3.8 9.29-2.63 12.05-1.6 2.32.87 4.33 1.63 9.34-1.33l.51-.34c4.81-3.18 5-5.23 5.18-7.6.28-3.49 1-6.44 6.72-10 6.16-3.8 9.29-2.63 12-1.59 2.41.9 4.48 1.68 9.92-1.68a2 2 0 1 1 2.09 3.39z"/><path class="cls-24" d="M148.87 200.35c-7.1 4.38-10.6 3.07-13.41 2-2.36-.88-4.06-1.52-8.56 1.26s-4.65 4.52-4.85 6.93c-.21 2.58-.47 5.73-5.37 9.48l.06.1-1.67 1.08c-7.1 4.38-10.6 3.08-13.41 2-2.36-.88-4.07-1.52-8.56 1.26s-4.65 4.52-4.85 6.93c-.23 2.8-.52 6.27-6.72 10.44a2 2 0 0 1-3-.43l-1-1.64 1.6-1.1c4.82-3.17 5-5.23 5.18-7.6.29-3.49 1-6.44 6.72-10 6.16-3.81 9.29-2.63 12-1.6 2.32.87 4.34 1.62 9.35-1.33l.5-.35c4.82-3.17 5-5.22 5.18-7.6.29-3.49 1-6.44 6.73-10 6.16-3.81 9.29-2.63 12.05-1.6 2.4.9 4.48 1.68 9.91-1.68a2 2 0 0 1 2.1 3.4z"/><path class="cls-24" d="M216.47 158.61c-7.1 4.38-10.59 3.07-13.41 2-2.35-.88-4.06-1.52-8.56 1.25s-4.64 4.52-4.84 6.93c-.21 2.58-.47 5.74-5.38 9.48l.07.11-1.68 1.08c-7.1 4.38-10.6 3.07-13.41 2-2.36-.89-4.06-1.53-8.56 1.25s-4.64 4.52-4.84 6.93c-.23 2.8-.52 6.27-6.73 10.45a2 2 0 0 1-3-.43l-1-1.65 1.59-1.1c4.82-3.17 5-5.22 5.18-7.6.29-3.48 1-6.44 6.73-10 6.16-3.8 9.29-2.63 12-1.6 2.32.87 4.33 1.63 9.34-1.33l.51-.34c4.81-3.18 5-5.23 5.18-7.6.29-3.49 1-6.44 6.72-10 6.16-3.8 9.29-2.63 12.05-1.59 2.41.9 4.48 1.67 9.92-1.68a2 2 0 0 1 2.09 3.39zM99.12 251.43c-7.1 4.38-10.6 3.07-13.41 2-2.36-.88-4.06-1.52-8.56 1.26s-4.65 4.52-4.84 6.92c-.22 2.58-.48 5.74-5.38 9.49l.06.1-1.67 1.08c-7.1 4.38-10.6 3.07-13.41 2-2.36-.89-4.06-1.52-8.56 1.25s-4.65 4.52-4.85 6.93c-.23 2.8-.51 6.28-6.73 10.45l-.26.2a2 2 0 0 1-2.74-.63l-1-1.65 1.59-1.09c4.82-3.18 5-5.23 5.18-7.61.29-3.48 1-6.43 6.72-10 6.16-3.8 9.29-2.63 12.06-1.6 2.31.87 4.33 1.63 9.35-1.33l.49-.34c4.82-3.18 5-5.23 5.18-7.6.29-3.49 1-6.44 6.73-10 6.16-3.8 9.29-2.63 12-1.59 2.4.9 4.48 1.68 9.92-1.68a2 2 0 1 1 2.09 3.39z"/><path class="cls-24" d="M166.73 209.7c-7.1 4.38-10.6 3.07-13.42 2-2.35-.88-4.06-1.52-8.55 1.26s-4.65 4.52-4.85 6.93c-.21 2.58-.47 5.73-5.37 9.48l.06.1-1.68 1.08c-7.1 4.39-10.6 3.08-13.41 2-2.36-.88-4.06-1.52-8.56 1.26s-4.64 4.52-4.84 6.93c-.23 2.8-.52 6.27-6.73 10.44a1.35 1.35 0 0 1-.27.2 2 2 0 0 1-2.73-.63l-1-1.64L97 248c4.81-3.17 5-5.23 5.18-7.6.28-3.49 1-6.44 6.72-10 6.16-3.81 9.29-2.63 12-1.6 2.32.87 4.34 1.62 9.36-1.34l.49-.34c4.81-3.17 5-5.22 5.18-7.6.29-3.49 1-6.44 6.72-10 6.16-3.81 9.29-2.63 12.05-1.6 2.41.9 4.48 1.68 9.92-1.68a2 2 0 0 1 2.1 3.4z"/><path class="cls-24" d="M234.33 168c-7.1 4.38-10.6 3.07-13.41 2-2.36-.88-4.06-1.52-8.56 1.25s-4.64 4.53-4.84 6.93c-.22 2.58-.48 5.74-5.38 9.48l.06.11-1.67 1.08c-7.1 4.38-10.6 3.07-13.41 2-2.36-.89-4.06-1.52-8.56 1.25s-4.65 4.52-4.85 6.93c-.23 2.8-.51 6.28-6.72 10.45a2 2 0 0 1-3-.43l-1-1.65 1.59-1.09c4.82-3.18 5-5.23 5.18-7.61.29-3.48 1-6.44 6.73-10 6.16-3.8 9.28-2.63 12.05-1.6 2.32.87 4.33 1.63 9.35-1.33l.5-.34c4.81-3.18 5-5.23 5.17-7.6.29-3.49 1-6.44 6.73-10 6.16-3.8 9.29-2.63 12-1.59 2.4.9 4.48 1.67 9.92-1.68a2 2 0 1 1 2.09 3.39zM117 260.78c-7.1 4.38-10.6 3.07-13.41 2-2.36-.88-4.06-1.52-8.56 1.26s-4.65 4.52-4.85 6.93c-.21 2.58-.47 5.73-5.37 9.48l.06.1-1.68 1.08c-7.09 4.38-10.59 3.07-13.41 2-2.35-.88-4.06-1.52-8.56 1.25s-4.64 4.52-4.84 6.93c-.23 2.8-.52 6.28-6.73 10.45a1.89 1.89 0 0 1-.27.2 2 2 0 0 1-2.73-.63l-1-1.65 1.6-1.09c4.81-3.18 5-5.23 5.18-7.6.29-3.49 1-6.44 6.72-10 6.16-3.8 9.29-2.63 12-1.59 2.32.86 4.33 1.62 9.35-1.34l.5-.34c4.82-3.18 5-5.23 5.18-7.6.29-3.49 1-6.44 6.72-10 6.16-3.8 9.29-2.63 12.06-1.59 2.4.9 4.48 1.68 9.91-1.68a2 2 0 1 1 2.1 3.39z"/><path class="cls-24" d="M184.58 219.05c-7.1 4.38-10.6 3.07-13.41 2-2.36-.89-4.06-1.53-8.56 1.25s-4.64 4.52-4.84 6.93c-.21 2.58-.48 5.73-5.38 9.48l.07.1-1.68 1.08c-7.1 4.39-10.6 3.08-13.41 2-2.36-.88-4.06-1.52-8.56 1.26s-4.65 4.52-4.84 6.93c-.24 2.8-.52 6.27-6.73 10.44a1.39 1.39 0 0 1-.27.21 2 2 0 0 1-2.74-.64l-1-1.64 1.59-1.1c4.82-3.17 5-5.22 5.18-7.6.29-3.49 1-6.44 6.73-10 6.16-3.81 9.29-2.63 12.05-1.6 2.32.87 4.33 1.62 9.34-1.33l.51-.35c4.81-3.17 5-5.22 5.18-7.6.28-3.48 1-6.44 6.72-10 6.16-3.8 9.29-2.63 12-1.6 2.4.9 4.48 1.68 9.92-1.68a2 2 0 0 1 2.09 3.4z"/><path class="cls-24" d="M252.19 177.31c-7.1 4.38-10.6 3.07-13.41 2-2.36-.88-4.06-1.52-8.56 1.26s-4.65 4.52-4.85 6.92c-.21 2.58-.47 5.74-5.37 9.49l.06.1-1.68 1.08c-7.09 4.38-10.59 3.07-13.41 2-2.35-.89-4.06-1.52-8.55 1.25s-4.65 4.52-4.85 6.93c-.23 2.8-.52 6.28-6.73 10.45a2 2 0 0 1-3-.43l-1-1.65 1.6-1.09c4.81-3.18 5-5.23 5.18-7.6.29-3.49 1-6.44 6.72-10 6.16-3.8 9.29-2.63 12.05-1.59 2.32.86 4.33 1.62 9.35-1.34l.5-.34c4.82-3.18 5-5.23 5.18-7.6.29-3.49 1-6.44 6.72-10 6.16-3.8 9.29-2.63 12.06-1.59 2.4.9 4.48 1.68 9.91-1.68a2 2 0 1 1 2.1 3.39zm-117.36 92.82c-7.1 4.38-10.59 3.07-13.41 2-2.35-.88-4.06-1.52-8.56 1.26s-4.64 4.52-4.84 6.93c-.21 2.58-.47 5.73-5.38 9.48l.07.1L101 291c-7.1 4.38-10.6 3.07-13.41 2-2.36-.88-4.06-1.52-8.56 1.25s-4.64 4.53-4.84 6.93c-.23 2.8-.52 6.28-6.73 10.45a1.89 1.89 0 0 1-.27.2 2 2 0 0 1-2.73-.63l-1-1.65 1.6-1.09c4.81-3.18 5-5.23 5.17-7.6.29-3.49 1-6.44 6.73-10 6.16-3.8 9.29-2.63 12-1.59 2.32.87 4.33 1.62 9.36-1.34l.49-.34c4.81-3.18 5-5.23 5.18-7.6.29-3.49 1-6.44 6.72-10 6.16-3.8 9.29-2.63 12-1.59 2.41.9 4.48 1.68 9.92-1.68a2 2 0 0 1 2.09 3.39z"/><path class="cls-24" d="M202.44 228.4c-7.1 4.38-10.6 3.07-13.41 2-2.36-.89-4.06-1.53-8.56 1.25s-4.65 4.52-4.85 6.93c-.21 2.58-.47 5.74-5.37 9.48l.06.11-1.67 1.07c-7.1 4.39-10.6 3.08-13.41 2-2.36-.88-4.06-1.52-8.56 1.26s-4.65 4.52-4.85 6.93c-.23 2.8-.52 6.27-6.73 10.45a1.89 1.89 0 0 1-.27.2 2 2 0 0 1-2.73-.64l-1-1.64 1.59-1.1c4.81-3.17 5-5.22 5.18-7.6.29-3.49 1-6.44 6.72-10 6.16-3.81 9.29-2.63 12.05-1.6 2.32.87 4.34 1.62 9.36-1.34l.49-.34c4.82-3.17 5-5.22 5.18-7.6.29-3.48 1-6.44 6.73-10 6.16-3.8 9.29-2.63 12.05-1.6 2.4.9 4.48 1.68 9.91-1.67a2 2 0 1 1 2.1 3.39z"/><path class="cls-24" d="M270 186.66c-7.09 4.38-10.59 3.07-13.41 2-2.35-.88-4.06-1.52-8.56 1.26s-4.64 4.52-4.84 6.92c-.21 2.59-.47 5.74-5.38 9.49l.07.1-1.68 1.08c-7.1 4.38-10.6 3.07-13.41 2-2.36-.89-4.06-1.52-8.56 1.25s-4.64 4.52-4.84 6.93c-.23 2.8-.52 6.28-6.73 10.45a2 2 0 0 1-3-.43l-1-1.65 1.6-1.09c4.81-3.18 5-5.23 5.17-7.6.29-3.49 1-6.44 6.73-10 6.16-3.8 9.29-2.63 12-1.59 2.32.86 4.33 1.62 9.36-1.34l.49-.34c4.81-3.18 5-5.23 5.18-7.6.29-3.49 1-6.44 6.72-10 6.16-3.8 9.29-2.63 12-1.59 2.41.9 4.48 1.68 9.92-1.68a2 2 0 1 1 2.09 3.39zm-117.31 92.82c-7.1 4.39-10.6 3.08-13.41 2-2.36-.88-4.06-1.52-8.56 1.26s-4.65 4.52-4.84 6.93c-.22 2.58-.48 5.73-5.38 9.48l.06.1-1.67 1.08c-7.1 4.38-10.6 3.07-13.41 2-2.36-.88-4.06-1.52-8.56 1.26s-4.65 4.52-4.85 6.92c-.23 2.8-.51 6.28-6.72 10.45l-.27.2a2 2 0 0 1-2.74-.63l-1-1.65 1.59-1.09c4.82-3.18 5-5.23 5.18-7.6.29-3.49 1-6.44 6.72-10 6.17-3.8 9.29-2.63 12.06-1.59 2.31.87 4.33 1.62 9.34-1.33l.5-.35c4.82-3.17 5-5.23 5.18-7.6.29-3.49 1-6.44 6.73-10 6.16-3.81 9.29-2.63 12.05-1.6 2.4.9 4.48 1.68 9.92-1.68a2 2 0 0 1 2.09 3.39z"/><path class="cls-24" d="M220.3 237.75c-7.1 4.38-10.6 3.07-13.41 2-2.36-.89-4.07-1.52-8.56 1.25s-4.65 4.52-4.85 6.93c-.21 2.58-.47 5.74-5.37 9.48l.06.11-1.68 1.08c-7.1 4.38-10.6 3.07-13.41 2-2.35-.88-4.06-1.52-8.56 1.26s-4.64 4.52-4.84 6.93c-.23 2.8-.52 6.27-6.73 10.44a1.39 1.39 0 0 1-.27.21 2 2 0 0 1-2.73-.64l-1-1.64 1.6-1.1c4.81-3.17 5-5.22 5.18-7.6.28-3.49 1-6.44 6.72-10 6.16-3.8 9.29-2.63 12-1.6 2.32.87 4.33 1.62 9.35-1.33l.5-.35c4.82-3.17 5-5.22 5.18-7.6.29-3.48 1-6.44 6.72-10 6.16-3.8 9.29-2.63 12.05-1.6 2.41.91 4.48 1.68 9.92-1.67a2 2 0 0 1 2.1 3.39z"/><path class="cls-24" d="M287.9 196c-7.1 4.38-10.6 3.08-13.41 2-2.36-.88-4.06-1.52-8.56 1.26s-4.64 4.52-4.84 6.93c-.22 2.58-.48 5.73-5.38 9.48l.06.1-1.67 1.08c-7.1 4.38-10.6 3.07-13.41 2-2.36-.88-4.06-1.52-8.56 1.25s-4.65 4.53-4.85 6.93c-.23 2.8-.51 6.28-6.72 10.45a2 2 0 0 1-3-.43l-1-1.65 1.59-1.09c4.82-3.18 5-5.23 5.18-7.6.29-3.49 1-6.44 6.73-10 6.16-3.8 9.29-2.63 12.05-1.59 2.31.86 4.33 1.62 9.34-1.34l.5-.34c4.82-3.18 5-5.23 5.18-7.6.29-3.49 1-6.44 6.73-10 6.16-3.81 9.29-2.63 12.05-1.6 2.4.9 4.48 1.68 9.92-1.68a2 2 0 0 1 2.07 3.44z"/></g></g><path class="cls-24" d="M809.79 367.4a2.69 2.69 0 0 1-2.7-2.69v-130a2.7 2.7 0 1 1 5.39 0v130a2.68 2.68 0 0 1-2.69 2.69z"/><path class="cls-24" d="M809.79 284.55c-9.26 0-16.53-2.65-21.63-7.86-7.5-7.67-7.35-18-7.34-18.48a2.7 2.7 0 0 1 5.39.12c0 .13-.05 8.64 5.85 14.63 4 4.11 10 6.2 17.73 6.2a2.7 2.7 0 0 1 0 5.39z"/><path class="cls-24" d="M809.79 284.55a2.7 2.7 0 1 1 0-5.39c7.72 0 13.69-2.09 17.73-6.2 5.92-6 5.85-14.55 5.85-14.63a2.69 2.69 0 0 1 2.64-2.75 2.73 2.73 0 0 1 2.74 2.63c0 .44.16 10.81-7.34 18.48-5.09 5.21-12.41 7.86-21.62 7.86z"/><circle class="cls-25" cx="783.52" cy="258.27" r="8.34"/><circle class="cls-25" cx="836.4" cy="258.27" r="8.34"/><circle class="cls-25" cx="809.79" cy="234.7" r="11.79"/><path class="cls-24" d="M816.75 361c0 1.76-2.11 3.18-4.72 3.18h-4.49c-2.6 0-4.71-1.42-4.71-3.18 0-1.75 2.11-3.17 4.71-3.17H812c2.61 0 4.72 1.42 4.72 3.17z"/><path class="cls-24" d="M820 368.2c0 2.65-3.11 4.79-6.94 4.79h-6.61c-3.83 0-6.94-2.14-6.94-4.79 0-2.64 3.11-4.78 6.94-4.78h6.61c3.83 0 6.94 2.14 6.94 4.78z"/><circle class="cls-25" cx="402.59" cy="453.8" r="35.15" transform="rotate(-80.69 402.61 453.8)"/><circle class="cls-25" cx="388.85" cy="502.86" r="13.74"/><circle class="cls-25" cx="441.78" cy="499.61" r="22.2" transform="rotate(-80.17 441.8 499.61)"/><path class="cls-24" d="M411.28 575.3a2.68 2.68 0 0 1-2.69-2.69v-115a2.69 2.69 0 0 1 5.38 0v115a2.69 2.69 0 0 1-2.69 2.69z"/><path class="cls-24" d="M411.39 522.82l-21.39-15a2.69 2.69 0 0 1 3.08-4.41l18.09 12.64 26.12-20.94a2.69 2.69 0 0 1 3.37 4.2zM96.4 506.46a2.69 2.69 0 0 1-2.7-2.69v-130a2.7 2.7 0 1 1 5.39 0v130a2.69 2.69 0 0 1-2.69 2.69z"/><path class="cls-24" d="M96.4 423.6c-9.26 0-16.53-2.64-21.63-7.85-7.5-7.67-7.35-18-7.34-18.48a2.66 2.66 0 0 1 2.76-2.63 2.69 2.69 0 0 1 2.63 2.75c0 .13 0 8.64 5.85 14.63 4 4.11 10 6.2 17.73 6.2a2.69 2.69 0 1 1 0 5.38z"/><path class="cls-24" d="M96.4 423.6a2.69 2.69 0 1 1 0-5.38c7.72 0 13.69-2.09 17.73-6.2 5.92-6 5.85-14.55 5.84-14.63a2.7 2.7 0 0 1 5.39-.12c0 .44.16 10.81-7.34 18.48-5.09 5.25-12.37 7.85-21.62 7.85z"/><circle class="cls-25" cx="70.12" cy="397.33" r="8.34"/><circle class="cls-25" cx="123.01" cy="397.33" r="8.34"/><circle class="cls-25" cx="96.4" cy="373.76" r="11.79"/><path class="cls-24" d="M103.36 500c0 1.76-2.11 3.18-4.72 3.18h-4.49c-2.6 0-4.71-1.42-4.71-3.18 0-1.75 2.11-3.17 4.71-3.17h4.49c2.61 0 4.72 1.42 4.72 3.17z"/><path class="cls-24" d="M106.64 507.26c0 2.64-3.11 4.79-6.94 4.79h-6.61c-3.83 0-6.94-2.15-6.94-4.79s3.11-4.78 6.94-4.78h6.61c3.83 0 6.94 2.14 6.94 4.78z"/></svg>