<svg id="Layer_1" data-name="Layer 1" xmlns="http://www.w3.org/2000/svg" width="11.89in" height="8.27in" viewBox="0 0 855.82 595.4"><defs><style>.cls-1,.cls-39{fill:none}.cls-2{opacity:.37}.cls-3{clip-path:url(#clip-path)}.cls-4{clip-path:url(#clip-path-2)}.cls-5{fill:#c2f9ff}.cls-6{clip-path:url(#clip-path-3)}.cls-7{fill:#435ba2}.cls-8{fill:#4285f4}.cls-9{fill:#eff2f9}.cls-10{fill:#2466c6}.cls-11{fill:#00c2e3}.cls-12{fill:#dae1f2}.cls-13{opacity:.57}.cls-14{clip-path:url(#clip-path-4)}.cls-15{clip-path:url(#clip-path-5)}.cls-16{opacity:.6}.cls-17{clip-path:url(#clip-path-6)}.cls-18{clip-path:url(#clip-path-7)}.cls-19{opacity:.2}.cls-20{clip-path:url(#clip-path-8)}.cls-21{clip-path:url(#clip-path-9)}.cls-22{fill:#fff}.cls-23{fill:#609aef}.cls-24{fill:#f2f2f2}.cls-25{fill:#5f6368}.cls-26{opacity:.7}.cls-27{clip-path:url(#clip-path-10)}.cls-28{opacity:.4}.cls-29{clip-path:url(#clip-path-12)}.cls-30{clip-path:url(#clip-path-13)}.cls-31{fill:#a9d1fc}.cls-32{fill:#c9c9c9}.cls-33{fill:#c6c6c6}.cls-34{fill:#4a95ed}.cls-35{fill:#7f7f7f}.cls-36{clip-path:url(#clip-path-14)}.cls-37{clip-path:url(#clip-path-15)}.cls-38{fill:#e2e8f7}.cls-39{stroke:#4a95ed;stroke-miterlimit:10;stroke-width:1.54px}.cls-40{clip-path:url(#clip-path-16)}.cls-41{clip-path:url(#clip-path-17)}.cls-42{clip-path:url(#clip-path-18)}.cls-43{clip-path:url(#clip-path-19)}.cls-44{fill:#d1b380}.cls-45{fill:#d1d5e5}.cls-46{fill:#2f324c}.cls-47{fill:#7a3b25}.cls-48{fill:#d8b368}.cls-49{fill:#60554d}.cls-50{fill:#404263}.cls-51{fill:#964d2d}.cls-52{fill:#646884}.cls-53{fill:#505372}.cls-54{fill:#a8afc6}.cls-55{fill:#eff1f9}.cls-56{clip-path:url(#clip-path-20)}.cls-57{clip-path:url(#clip-path-21)}.cls-58{clip-path:url(#clip-path-22)}.cls-59{clip-path:url(#clip-path-23)}</style><clipPath id="clip-path"><path class="cls-1" d="M742.93 8.94h84.53v59.35h-84.53z"/></clipPath><clipPath id="clip-path-2"><path class="cls-1" d="M742.93 8.94h84.53v59.35h-84.53z"/></clipPath><clipPath id="clip-path-3"><path class="cls-1" d="M795.5 20.57h16.63v16.64H795.5z"/></clipPath><clipPath id="clip-path-4"><path class="cls-1" d="M56.67 401.15h68.28v55.72H56.67z"/></clipPath><clipPath id="clip-path-5"><path class="cls-1" d="M56.67 401.15h68.28v55.72H56.67z"/></clipPath><clipPath id="clip-path-6"><path class="cls-1" d="M412.72 110.39h45.95v51.38h-45.95z"/></clipPath><clipPath id="clip-path-7"><path class="cls-1" d="M412.72 110.39h45.95v51.38h-45.95z"/></clipPath><clipPath id="clip-path-8"><path class="cls-1" d="M347.46 5.92h87.72V53.7h-87.72z"/></clipPath><clipPath id="clip-path-9"><path class="cls-1" d="M347.46 5.92h87.72V53.7h-87.72z"/></clipPath><clipPath id="clip-path-10"><path class="cls-1" d="M26.39 21.79h8.05v8.05h-8.05z"/></clipPath><clipPath id="clip-path-12"><path class="cls-1" d="M40.05 21.79h8.06v8.05h-8.06z"/></clipPath><clipPath id="clip-path-13"><path class="cls-1" d="M40.05 21.79h8.06v8.05h-8.06z"/></clipPath><clipPath id="clip-path-14"><path class="cls-1" d="M391.35 426.38h42.88v42.88h-42.88z"/></clipPath><clipPath id="clip-path-15"><path class="cls-1" d="M391.35 426.38h42.88v42.88h-42.88z"/></clipPath><clipPath id="clip-path-16"><path class="cls-1" d="M505.96 343.93h8.05v8.06h-8.05z"/></clipPath><clipPath id="clip-path-17"><path class="cls-1" d="M505.96 343.93h8.05v8.05h-8.05z"/></clipPath><clipPath id="clip-path-18"><path class="cls-1" d="M519.62 343.93h8.06v8.06h-8.06z"/></clipPath><clipPath id="clip-path-19"><path class="cls-1" d="M519.63 343.93h8.05v8.05h-8.05z"/></clipPath><clipPath id="clip-path-20"><path class="cls-1" d="M772.33 117.2h8.06v8.06h-8.06z"/></clipPath><clipPath id="clip-path-21"><path class="cls-1" d="M772.33 117.21h8.06v8.05h-8.06z"/></clipPath><clipPath id="clip-path-22"><path class="cls-1" d="M785.99 117.2h8.06v8.06h-8.06z"/></clipPath><clipPath id="clip-path-23"><path class="cls-1" d="M785.99 117.21h8.06v8.05h-8.06z"/></clipPath></defs><title>tech</title><g class="cls-2"><g class="cls-3"><g class="cls-4"><path class="cls-5" d="M818.16 68.29h-65.93a9.31 9.31 0 0 1-9.3-9.3V18.24a9.31 9.31 0 0 1 9.3-9.3h65.93a9.31 9.31 0 0 1 9.3 9.3V59a9.31 9.31 0 0 1-9.3 9.3M752.23 13a5.24 5.24 0 0 0-5.23 5.24V59a5.24 5.24 0 0 0 5.23 5.23h65.93a5.24 5.24 0 0 0 5.23-5.23V18.24a5.24 5.24 0 0 0-5.23-5.24z"/></g></g></g><g class="cls-2"><g class="cls-6"><path class="cls-5" d="M798.37 20.58l-2.87 2.87v.01l13.75 13.75 2.88-2.88-13.75-13.75h-.01z"/><path class="cls-5" d="M809.25 20.58L795.5 34.33l2.88 2.88 13.75-13.75v-.01l-2.88-2.87z"/></g></g><path class="cls-7" d="M101.27 355.65V36.35A36.36 36.36 0 0 1 137.62 0h-22.5a36.35 36.35 0 0 0-36.35 36.35v319.3A36.35 36.35 0 0 0 115.12 392h22.5a36.36 36.36 0 0 1-36.35-36.35"/><path class="cls-8" d="M668.94 392H121a26.07 26.07 0 0 1-26-26.07V26.07A26.07 26.07 0 0 1 121 0h547.94A26.07 26.07 0 0 1 695 26.07v339.86A26.07 26.07 0 0 1 668.94 392"/><path class="cls-9" d="M680.8 223.18H542.48v-2.33h135.99V50.17h65.13v2.33h-62.8v170.68z"/><path class="cls-10" d="M495.17 189.72H463l-3.6-6h-21.8v42.31a5.42 5.42 0 0 0 5.42 5.42h52.15a5.42 5.42 0 0 0 5.42-5.42v-30.89a5.42 5.42 0 0 0-5.42-5.42m10.24-2.96a9.58 9.58 0 1 1 9.58-9.58 9.59 9.59 0 0 1-9.58 9.58m0-17.41a7.84 7.84 0 1 0 7.84 7.83 7.84 7.84 0 0 0-7.84-7.83"/><path class="cls-10" transform="rotate(-45.06 505.44 177.18)" d="M500.1 176.31h10.62v1.75H500.1z"/><path class="cls-10" transform="rotate(-45 505.43 177.18)" d="M504.54 171.87h1.75v10.62h-1.75z"/><path class="cls-11" d="M314.13 209.78a14.16 14.16 0 1 1 14.15-14.16 14.17 14.17 0 0 1-14.15 14.16m0-26A11.83 11.83 0 1 0 326 195.62a11.84 11.84 0 0 0-11.82-11.82"/><path class="cls-11" d="M314.13 223.18a27.56 27.56 0 1 1 27.55-27.55 27.58 27.58 0 0 1-27.55 27.55m0-52.78a25.23 25.23 0 1 0 25.23 25.23 25.25 25.25 0 0 0-25.23-25.23"/><path class="cls-11" d="M314.13 239.08a43.46 43.46 0 1 1 43.45-43.46 43.51 43.51 0 0 1-43.45 43.46m0-84.58a41.13 41.13 0 1 0 41.12 41.12 41.16 41.16 0 0 0-41.12-41.12"/><path class="cls-9" d="M301.74 431.64H284.1v-1.16h17.64a11.83 11.83 0 0 0 11.81-11.81V248.86h1.16v169.81a13 13 0 0 1-13 13"/><path class="cls-9" d="M314.13 245.42a3.45 3.45 0 1 0 3.44 3.44 3.45 3.45 0 0 0-3.44-3.44M288 431.06a3.45 3.45 0 1 1-3.44-3.44 3.44 3.44 0 0 1 3.44 3.44"/><path class="cls-12" d="M120.6 53.55h191.7v6.2H120.6zm201.25 0h6.48v6.2h-6.48z"/><path class="cls-10" d="M332.64 332.92h33.17v6.73h-33.17zm0 11.68h58.72v6.73h-58.72zm0 11.67h44.84V363h-44.84zm0 11.68h23.18v6.73h-23.18z"/><path class="cls-9" d="M191.88 98.88l14.33-7.38v2.13l-12.07 6.05v.06l12.07 6.05v2.13l-14.33-7.37v-1.67zm16.33 10.27l8.61-22.37h2.1l-8.64 22.37h-2.07zm26.98-8.58l-14.32 7.35v-2.13l12.16-6.05v-.06l-12.16-6.05V91.5l14.32 7.35v1.72z"/><g class="cls-13"><g class="cls-14"><g class="cls-15"><path class="cls-12" d="M74.46 401.15H58.69a2 2 0 0 0-2 2V408a2 2 0 0 0 2 2h15.77a2 2 0 0 0 2-2v-4.8a2 2 0 0 0-2-2m31.32 15.57H58.69a2 2 0 0 0-2 2v4.8a2 2 0 0 0 2 2h47.09a2 2 0 0 0 2-2v-4.8a2 2 0 0 0-2-2m0 15.62H58.69a2 2 0 0 0-2 2v4.8a2 2 0 0 0 2 2h47.09a2 2 0 0 0 2-2v-4.8a2 2 0 0 0-2-2m17.14 0H116a2 2 0 0 0-2 2v4.8a2 2 0 0 0 2 2h6.9a2 2 0 0 0 2-2v-4.8a2 2 0 0 0-2-2M98.4 448H58.7a2 2 0 0 0-2 2v4.8a2 2 0 0 0 2 2h39.7a2 2 0 0 0 2-2V450a2 2 0 0 0-2-2"/></g></g></g><g class="cls-16"><g class="cls-17"><g class="cls-18"><path class="cls-9" d="M435.7 126.3a64.26 64.26 0 0 1-10.91-.89c-7.67-1.35-12.07-3.92-12.07-7.06 0-5.22 11.56-7.95 23-7.95s23 2.73 23 7.95c0 3.14-4.4 5.72-12.07 7.06a64.22 64.22 0 0 1-10.9.89m0-13.58c-12.8 0-20.65 3.28-20.65 5.63 0 1.48 3.48 3.6 10.14 4.76a64.59 64.59 0 0 0 21 0c6.66-1.16 10.14-3.28 10.14-4.76 0-2.35-7.85-5.63-20.64-5.63"/><path class="cls-9" d="M435.7 138.12a63.33 63.33 0 0 1-10.91-.89c-7.67-1.35-12.07-3.92-12.07-7.06v-11.83h2.33c0 1.49 3.48 3.61 10.14 4.77a64.59 64.59 0 0 0 21 0c6.66-1.16 10.14-3.28 10.14-4.77h2.33v11.83c0 3.14-4.4 5.71-12.07 7.06a63.21 63.21 0 0 1-10.9.89M415.05 122v8.15c0 1.49 3.48 3.6 10.14 4.77a65.34 65.34 0 0 0 21 0c6.66-1.17 10.14-3.28 10.14-4.77V122c-2 1.45-5.35 2.62-9.74 3.39a67.25 67.25 0 0 1-21.81 0c-4.39-.77-7.7-1.94-9.74-3.39"/><path class="cls-9" d="M435.7 149.94a64.33 64.33 0 0 1-10.81-.87h-.09c-7.68-1.34-12.08-3.91-12.08-7.06v-11.84h2.33c0 1.48 3.48 3.6 10.14 4.77a64.59 64.59 0 0 0 21 0c6.66-1.17 10.14-3.29 10.14-4.77h2.33V142c0 3.15-4.4 5.72-12.07 7.06h-.11a64.08 64.08 0 0 1-10.79.87m-10.6-3.2h.1a65.22 65.22 0 0 0 21 0h.11c6.59-1.17 10-3.27 10-4.75v-8.15c-2 1.45-5.35 2.62-9.74 3.39a67.25 67.25 0 0 1-21.81 0c-4.39-.77-7.7-1.94-9.74-3.39V142c0 1.48 3.45 3.58 10.05 4.75"/><path class="cls-9" d="M435.7 161.77c-11.42 0-23-2.73-23-8V142h2.33c0 1.48 3.45 3.58 10.05 4.75h.1a65.22 65.22 0 0 0 21 0h.11c6.59-1.17 10-3.27 10-4.75h2.33v11.83c0 5.22-11.56 8-23 8m-20.65-16.11v8.16c0 2.35 7.85 5.62 20.65 5.62s20.64-3.27 20.64-5.62v-8.16c-2 1.45-5.35 2.62-9.74 3.39h-.11a67.47 67.47 0 0 1-21.6 0h-.09c-4.39-.77-7.71-1.94-9.75-3.39"/></g></g></g><g class="cls-19"><g class="cls-20"><g class="cls-21"><path class="cls-22" d="M428.65 40.6h-3.22a14.34 14.34 0 0 0-8.93-11.84c.05-.61.08-1.23.08-1.86a21 21 0 0 0-41.74-3 21 21 0 0 0-16.76 16.7H354a6.55 6.55 0 0 0 0 13.1h74.67a6.55 6.55 0 0 0 0-13.1"/></g></g></g><path class="cls-9" d="M435.18 98a3.45 3.45 0 1 0 3.44 3.44 3.45 3.45 0 0 0-3.44-3.44m-44.72-38.25a3.45 3.45 0 1 0 3.45 3.44 3.44 3.44 0 0 0-3.45-3.44"/><path class="cls-9" d="M435.76 101.41h-1.16V83.26h-44.72V63.19h1.16v18.9h44.72v19.32z"/><path class="cls-7" d="M250 494.94h-92.67a9.28 9.28 0 0 1-9.28-9.28V367.74a9.29 9.29 0 0 1 9.28-9.29H250a9.29 9.29 0 0 1 9.28 9.29v117.92a9.28 9.28 0 0 1-9.28 9.28"/><path class="cls-12" d="M259.84 494.94h-92.61a9.27 9.27 0 0 1-9.28-9.28V367.74a9.28 9.28 0 0 1 9.28-9.29h92.61a9.29 9.29 0 0 1 9.29 9.29v117.92a9.28 9.28 0 0 1-9.29 9.28"/><path class="cls-23" d="M230.84 375.32h-58.21a2.33 2.33 0 0 0-2.33 2.33v6.11a2.33 2.33 0 0 0 2.33 2.33h58.21a2.33 2.33 0 0 0 2.33-2.33v-6.11a2.33 2.33 0 0 0-2.33-2.33m-4.07 23h-54.14a2.32 2.32 0 0 0-2.33 2.32v6.12a2.33 2.33 0 0 0 2.33 2.33h54.14a2.33 2.33 0 0 0 2.32-2.33v-6.12a2.32 2.32 0 0 0-2.32-2.32M216 421.31h-43.37a2.33 2.33 0 0 0-2.33 2.33v6.11a2.33 2.33 0 0 0 2.33 2.33H216a2.33 2.33 0 0 0 2.33-2.33v-6.11a2.33 2.33 0 0 0-2.33-2.33m-17.47 22.99h-25.9a2.33 2.33 0 0 0-2.33 2.33v6.11a2.33 2.33 0 0 0 2.33 2.33h25.9a2.33 2.33 0 0 0 2.33-2.33v-6.11a2.33 2.33 0 0 0-2.33-2.33m32.31 23h-58.21a2.32 2.32 0 0 0-2.33 2.32v6.12a2.33 2.33 0 0 0 2.33 2.33h58.21a2.33 2.33 0 0 0 2.33-2.33v-6.12a2.32 2.32 0 0 0-2.33-2.32"/><path class="cls-9" d="M190.37 187.05h1.23v131.76h-1.23z"/><path class="cls-23" d="M206.84 176.11h-31.7a2.62 2.62 0 0 0-2.62 2.62v10.34a2.62 2.62 0 0 0 2.62 2.62h31.7a2.63 2.63 0 0 0 2.62-2.62v-10.34a2.63 2.63 0 0 0-2.62-2.62m0 138.55h-31.7a2.62 2.62 0 0 0-2.62 2.62v10.33a2.62 2.62 0 0 0 2.62 2.62h31.7a2.62 2.62 0 0 0 2.62-2.62v-10.33a2.62 2.62 0 0 0-2.62-2.62"/><path class="cls-12" d="M206.84 267.66h-31.7a2.62 2.62 0 0 0-2.62 2.62v10.34a2.62 2.62 0 0 0 2.62 2.62h31.7a2.63 2.63 0 0 0 2.62-2.62v-10.34a2.63 2.63 0 0 0-2.62-2.62"/><path class="cls-9" d="M240.09 303.37h-49.1v-1.22h47.88v-74.93h-80.55V226h81.77v77.37z"/><path class="cls-12" d="M253.08 219.93h-27.2a2.25 2.25 0 0 0-2.25 2.25V231a2.25 2.25 0 0 0 2.25 2.25h27.2a2.25 2.25 0 0 0 2.25-2.25v-8.86a2.25 2.25 0 0 0-2.25-2.25m-90.33.04h-27.2a2.25 2.25 0 0 0-2.25 2.25V231a2.24 2.24 0 0 0 2.25 2.25h27.2A2.25 2.25 0 0 0 165 231v-8.86a2.25 2.25 0 0 0-2.25-2.25"/><path class="cls-10" transform="rotate(-45 191 226.62)" d="M179.79 215.42h22.39v22.39h-22.39z"/><path class="cls-24" d="M100.7 149.75H9.18A9.18 9.18 0 0 1 0 140.57V24a9.18 9.18 0 0 1 9.18-9.17h91.52a9.18 9.18 0 0 1 9.18 9.17v116.57a9.18 9.18 0 0 1-9.18 9.18"/><path class="cls-25" d="M8.63 35.6V137a4.17 4.17 0 0 0 4.16 4.17h84.29a4.17 4.17 0 0 0 4.17-4.17V35.6z"/><path class="cls-8" d="M20.78 25.82a4 4 0 1 1-4-4 4 4 0 0 1 4 4"/><g class="cls-26"><g class="cls-27"><g class="cls-27"><path class="cls-8" d="M34.44 25.82a4 4 0 1 1-4-4 4 4 0 0 1 4 4"/></g></g></g><g class="cls-28"><g class="cls-29"><g class="cls-30"><path class="cls-8" d="M48.11 25.82a4 4 0 1 1-4-4 4 4 0 0 1 4 4"/></g></g></g><path class="cls-31" d="M16.54 47.43h22.6v5.37h-22.6zm0 10.93h48.11v5.37H16.54z"/><path class="cls-32" d="M70.42 58.36h18.96v5.37H70.42z"/><path class="cls-33" d="M16.54 69.29h13.88v5.37H16.54z"/><path class="cls-34" d="M36.46 69.29h15.72v5.37H36.46z"/><path class="cls-31" d="M54.94 69.29h29.6v5.37h-29.6z"/><path class="cls-35" d="M16.54 80.21h22.6v5.37h-22.6z"/><path class="cls-31" d="M29.29 91.13h12.54v5.37H29.29z"/><path class="cls-34" d="M45.63 91.13h28.22v5.37H45.63z"/><path class="cls-32" d="M78.8 91.13h12.69v5.37H78.8z"/><path class="cls-33" d="M29.29 102.06h18.82v5.37H29.29z"/><path class="cls-32" d="M50.62 102.06h7.41v5.37h-7.41z"/><path class="cls-31" d="M61.92 102.06h14.61v5.37H61.92zm18.56 0h9.34v5.37h-9.34zm-51.19 10.93h12.54v5.37H29.29z"/><path class="cls-33" d="M45.91 112.99h12.54v5.37H45.91z"/><path class="cls-35" d="M16.54 123.91h22.6v5.37h-22.6z"/><path class="cls-9" d="M121.75 30.9l8.88-4.57v1.32l-7.48 3.75v.04l7.48 3.75v1.32l-8.88-4.58V30.9zm11.54-7.98H135v5.78a3.05 3.05 0 0 1 1.2-1.19 3.54 3.54 0 0 1 1.72-.48c1.25 0 3.24.77 3.24 4v5.51h-1.66v-5.35c0-1.5-.56-2.76-2.15-2.76a2.43 2.43 0 0 0-2.26 1.69 2.15 2.15 0 0 0-.11.8v5.59h-1.69zm12.58 1.66v2.66h2.41v1.29h-2.41v5c0 1.15.33 1.8 1.26 1.8a3.71 3.71 0 0 0 1-.11l.08 1.26a4.06 4.06 0 0 1-1.5.23 2.36 2.36 0 0 1-1.82-.71 3.46 3.46 0 0 1-.65-2.41v-5h-1.43v-1.35h1.43V25zm4.31 5.17c0-.95 0-1.74-.08-2.51h1.47l.08 1.5h.06a3.2 3.2 0 0 1 2.91-1.74 2.74 2.74 0 0 1 2.62 1.86 3.74 3.74 0 0 1 1-1.2 3.19 3.19 0 0 1 2.05-.66c1.23 0 3 .81 3 4v5.45h-1.65v-5.18c0-1.79-.65-2.86-2-2.86a2.18 2.18 0 0 0-2 1.53 2.7 2.7 0 0 0-.14.85v5.72H156V31c0-1.48-.65-2.55-1.94-2.55A2.31 2.31 0 0 0 152 30.1a2.21 2.21 0 0 0-.14.82v5.59h-1.64zm15.96-6.83h1.69v13.59h-1.69zm13.27 9.03l-8.88 4.56v-1.32l7.54-3.75v-.04l-7.54-3.75v-1.33l8.88 4.56v1.07z"/><path class="cls-8" d="M381.65 469.26a22.19 22.19 0 0 0-.17-2.72l4.27-6.78-5.22-9-8 .31a22.26 22.26 0 0 0-4.71-2.73l-3.73-7.08h-10.45l-3.73 7.08a22.51 22.51 0 0 0-4.71 2.66l-8-.31-5.22 9 4.27 6.78a21.85 21.85 0 0 0 0 5.44l-4.25 6.85 5.22 9 8-.31a22.51 22.51 0 0 0 4.71 2.73l3.73 7.08h10.44l3.74-7.08a22.44 22.44 0 0 0 4.7-2.73l8 .31 5.22-9-4.28-6.76a22.19 22.19 0 0 0 .17-2.72m-22.79 14.11A14.11 14.11 0 1 1 373 469.26a14.13 14.13 0 0 1-14.11 14.11"/><g class="cls-13"><g class="cls-36"><g class="cls-37"><path class="cls-12" d="M424.94 435.67a16.46 16.46 0 0 0-1.54-1.36l-1.34-5.89-7.6-2-4.11 4.44a17.16 17.16 0 0 0-4 1.05l-5.77-1.78-5.56 5.57 1.78 5.76a17.16 17.16 0 0 0-1 4l-4.44 4.11 2 7.6 5.89 1.35a19.47 19.47 0 0 0 1.36 1.54 17.71 17.71 0 0 0 1.54 1.35l1.34 5.9 7.6 2 4.11-4.43a17.7 17.7 0 0 0 4-1.06l5.77 1.78 5.56-5.56-1.78-5.77a17.7 17.7 0 0 0 1.06-4l4.43-4.11-2-7.6-5.89-1.34a16.29 16.29 0 0 0-1.36-1.54m-4.63 19.67a10.63 10.63 0 1 1 0-15 10.64 10.64 0 0 1 0 15"/></g></g></g><path class="cls-9" d="M660.35 24.36a17.84 17.84 0 0 0-1.54-1.36l-1.34-5.89-7.6-2-4.11 4.44a17.16 17.16 0 0 0-4 1L636 18.78l-5.57 5.56 1.79 5.77a16.69 16.69 0 0 0-1.06 4l-4.43 4.11 2 7.6 5.89 1.34a16.58 16.58 0 0 0 2.9 2.9l1.34 5.9 7.6 2 4.11-4.44a17.16 17.16 0 0 0 4-1l5.77 1.78 5.56-5.56-1.78-5.77a17.18 17.18 0 0 0 1.06-4l4.43-4.11-2-7.6-5.89-1.34a16.46 16.46 0 0 0-1.36-1.54M655.72 44a10.64 10.64 0 1 1 0-15 10.65 10.65 0 0 1 0 15"/><path class="cls-31" d="M793.48 245.2h14.79v9.49h-14.79z"/><path class="cls-9" d="M701.16 418.54H566.7v-4.07h134.46a25.73 25.73 0 0 0 25.7-25.71v-34.13a29.82 29.82 0 0 1 29.79-29.79h23.47a18.74 18.74 0 0 0 18.72-18.72v-56.18h4.08v56.18a22.83 22.83 0 0 1-22.8 22.8h-23.47a25.73 25.73 0 0 0-25.71 25.71v34.13a29.81 29.81 0 0 1-29.78 29.78"/><path class="cls-38" d="M651.79 435.56H570a8.19 8.19 0 0 1-8.19-8.19V323.28a8.19 8.19 0 0 1 8.19-8.19h81.75a8.19 8.19 0 0 1 8.19 8.19v104.09a8.19 8.19 0 0 1-8.19 8.19"/><path class="cls-25" d="M569.55 333.61v90.52a3.72 3.72 0 0 0 3.72 3.72h75.28a3.71 3.71 0 0 0 3.72-3.72v-90.52z"/><path class="cls-34" d="M582.78 383.42a.44.44 0 0 1-.43-.32.45.45 0 0 1 .31-.56c3.45-.94 6.43-3.86 8.85-8.67a84.8 84.8 0 0 0 1.73-3.75 37.73 37.73 0 0 1 4.31-8c2.66-3.45 7.36-6.3 11.88-4.9 2.57.81 4.77 2.84 6.73 6.23.51.88 1 1.79 1.43 2.67a30.19 30.19 0 0 0 3.07 5.09c1.63 2 4.41 4 7.37 3.58 2.78-.43 4.62-2.68 6.57-5.05 1.65-2 3.35-4.1 5.72-5.12a.45.45 0 0 1 .36.83c-2.17.93-3.81 2.92-5.39 4.85-2 2.41-4 4.9-7.12 5.37-3.33.51-6.43-1.67-8.21-3.9a30.84 30.84 0 0 1-3.17-5.24c-.44-.87-.91-1.78-1.4-2.63-1.85-3.19-3.88-5.09-6.23-5.82-4.1-1.28-8.43 1.38-10.89 4.59a36.61 36.61 0 0 0-4.21 7.79c-.56 1.25-1.13 2.54-1.75 3.79-2.54 5-5.71 8.11-9.41 9.13h-.12"/><path class="cls-39" d="M582.78 383.42a.44.44 0 0 1-.43-.32.45.45 0 0 1 .31-.56c3.45-.94 6.43-3.86 8.85-8.67a84.8 84.8 0 0 0 1.73-3.75 37.73 37.73 0 0 1 4.31-8c2.66-3.45 7.36-6.3 11.88-4.9 2.57.81 4.77 2.84 6.73 6.23.51.88 1 1.79 1.43 2.67a30.19 30.19 0 0 0 3.07 5.09c1.63 2 4.41 4 7.37 3.58 2.78-.43 4.62-2.68 6.57-5.05 1.65-2 3.35-4.1 5.72-5.12a.45.45 0 0 1 .36.83c-2.17.93-3.81 2.92-5.39 4.85-2 2.41-4 4.9-7.12 5.37-3.33.51-6.43-1.67-8.21-3.9a30.84 30.84 0 0 1-3.17-5.24c-.44-.87-.91-1.78-1.4-2.63-1.85-3.19-3.88-5.09-6.23-5.82-4.1-1.28-8.43 1.38-10.89 4.59a36.61 36.61 0 0 0-4.21 7.79c-.56 1.25-1.13 2.54-1.75 3.79-2.54 5-5.71 8.11-9.41 9.13z"/><path class="cls-12" d="M645.69 391.83h-69.55v-45.95h1.34v44.61h68.21v1.34zm-68.88 7.85h17.3v4.97h-17.3z"/><path class="cls-31" d="M597.62 399.68h17.3v4.97h-17.3z"/><path class="cls-35" d="M618.7 399.68h8.65v4.97h-8.65z"/><path class="cls-12" d="M576.81 406.59h17.3v4.97h-17.3z"/><path class="cls-34" d="M597.62 406.59h17.3v4.97h-17.3z"/><path class="cls-35" d="M618.7 406.59h8.65v4.97h-8.65z"/><path class="cls-12" d="M576.81 413.51h17.3v4.97h-17.3z"/><path class="cls-31" d="M597.62 413.51h17.3v4.97h-17.3z"/><path class="cls-35" d="M618.7 413.51h8.65v4.97h-8.65z"/><path class="cls-8" d="M500.35 348a4 4 0 1 1-4-4 4 4 0 0 1 4 4"/><g class="cls-26"><g class="cls-40"><g class="cls-41"><path class="cls-8" d="M514 348a4 4 0 1 1-4-4 4 4 0 0 1 4 4"/></g></g></g><g class="cls-28"><g class="cls-42"><g class="cls-43"><path class="cls-8" d="M527.68 348a4 4 0 1 1-4-4 4 4 0 0 1 4 4"/></g></g></g><path class="cls-44" d="M419.74 282a14.5 14.5 0 0 1-10.21-4.19l-54.76-53.91a14.56 14.56 0 0 1 20.43-20.75l54.8 53.92A14.56 14.56 0 0 1 419.74 282"/><path class="cls-44" d="M419.73 282A14.57 14.57 0 0 1 408 258.8l15.41-20.9a14.56 14.56 0 0 1 23.44 17.29l-15.42 20.9a14.53 14.53 0 0 1-11.7 5.91"/><path class="cls-22" d="M454.38 246.55a19.22 19.22 0 1 1-19.22-19.22 19.22 19.22 0 0 1 19.22 19.22"/><path class="cls-45" d="M435.15 261.11a14.57 14.57 0 0 1-11.66-23.27l42.21-56.61a14.56 14.56 0 1 1 23.3 17.41l-42.21 56.61a14.52 14.52 0 0 1-11.68 5.86"/><path class="cls-46" d="M460.35 323.44l.82 247.84h32.4l9.44-244.96-42.66-2.88z"/><path class="cls-47" d="M493.57 595.4h-61.11v-6.82a17.3 17.3 0 0 1 17.3-17.3h43.81z"/><path class="cls-22" d="M547.4 203.53v112.14h-88.79V203.53A33.39 33.39 0 0 1 492 170.14h22a33.39 33.39 0 0 1 33.39 33.39"/><path class="cls-45" d="M522 177a20.91 20.91 0 1 1-20.9-20.9A20.91 20.91 0 0 1 522 177"/><path class="cls-45" d="M502.52 196.68l9.54 5.32a7.14 7.14 0 0 0 10.6-6.65c-.57-9.62-1.24-21-1.24-20.78 0 .4-18.9 22.11-18.9 22.11m-2.76 0l-9.54 5.32a7.14 7.14 0 0 1-10.6-6.65c.57-9.62 1.24-21 1.24-20.78 0 .4 18.9 22.11 18.9 22.11"/><path class="cls-44" d="M483.55 120.68V173a17.84 17.84 0 0 0 35.68 0v-52.3z"/><path class="cls-48" d="M443.36 91.89h28.79v35.19H464a20.65 20.65 0 0 1-20.65-20.65z"/><path class="cls-49" d="M472.15 156.48h-27.62v-12.8a7.82 7.82 0 0 1 7.82-7.82h19.8z"/><path class="cls-44" d="M446.47 95.14v44.8a24.32 24.32 0 0 0 24.32 24.32h47.27V95.14A16.08 16.08 0 0 0 502 79.06h-39.45a16.08 16.08 0 0 0-16.08 16.08"/><path class="cls-49" d="M503.66 73.22h12.21a9.58 9.58 0 0 1 9.58 9.58v64.45a3.39 3.39 0 0 1-3.39 3.39h-6.16a12.24 12.24 0 0 1-12.24-12.24z"/><path class="cls-49" d="M491.99 86.06h24.9v47.85h-24.9z"/><path class="cls-44" d="M499.77 121.07a11.68 11.68 0 1 0 11.67 11.68 11.68 11.68 0 0 0-11.67-11.68"/><path class="cls-49" d="M486.67 170.09h-31a11.16 11.16 0 0 1-11.16-11.16v-13.82a6.14 6.14 0 0 1 6.14-6.14h36a11.16 11.16 0 0 1 11.16 11.16v8.8a11.16 11.16 0 0 1-11.16 11.16"/><path class="cls-44" d="M473.09 161.53h-15a5 5 0 0 1-5-5v-5.22a5 5 0 0 1 5-5h15a5 5 0 0 1 5 5v5.22a5 5 0 0 1-5 5"/><path class="cls-49" d="M484.6 88.39v.94a16 16 0 0 1 0 26.92v35.17h9.73v-63z"/><path class="cls-49" d="M445.31 73.22h65.36v22.56h-65.36z"/><path class="cls-49" d="M445.31 95.79c-5.45 0-22.57-18.29-.78-35.41-.39 5.45 5.45 8.56 7.78 9.34-2.31-3.5-2.72-14.39 11.69-20.23-.39 7.39 6.23 15.95 10.12 17.9 0-2.73 2.33-9 12.83-10.12 0 5.06 3.12 11.67 21.4 17.9-.78 9.33-58.74 15.17-58.74 15.17z"/><path class="cls-50" d="M547.4 310.73v10.77a44.4 44.4 0 1 1-88.79 0v-10.77z"/><path class="cls-50" d="M503.66 323.24l10.22 248.04h32.4V323.24h-42.62z"/><path class="cls-51" d="M546.28 595.4h-61.11v-6.82a17.3 17.3 0 0 1 17.3-17.3h43.81z"/><path class="cls-44" d="M328.89 207.92c0-10.73 10.62-19.42 23.72-19.42s23.72 8.69 23.72 19.42-10.62 19.41-23.72 19.41-23.72-8.69-23.72-19.41"/><path class="cls-44" d="M349.81 203.34H321.1a7.18 7.18 0 0 1 0-14.36h28.71a7.18 7.18 0 0 1 0 14.36"/><path class="cls-45" d="M556.37 264.6a14.57 14.57 0 0 1-13.88-10.18l-18.71-59.22a14.56 14.56 0 0 1 27.77-8.77l18.71 59.22a14.57 14.57 0 0 1-13.89 19"/><path class="cls-22" d="M575.59 250a19.22 19.22 0 1 1-19.21-19.22A19.22 19.22 0 0 1 575.59 250"/><path class="cls-44" d="M563.09 288.38a14.58 14.58 0 0 1-14-10.6l-5.77-20.44a14.56 14.56 0 1 1 28-7.92l5.78 20.44a14.58 14.58 0 0 1-10.05 18 14.79 14.79 0 0 1-4 .55"/><path class="cls-44" d="M533.41 290.84a14.56 14.56 0 0 1-1.19-29.07l29.67-2.46a14.56 14.56 0 1 1 2.41 29l-29.67 2.46h-1.22"/><path class="cls-44" d="M503.62 275.05c0-9.18 11.33-16.62 25.29-16.62s25.3 7.44 25.3 16.62-11.33 16.61-25.3 16.61-25.29-7.44-25.29-16.61"/><path class="cls-52" d="M536.37 223.78H470a3.64 3.64 0 0 0-1.72.16 3.69 3.69 0 0 0-2.28 4.69l14.13 40.9a3.69 3.69 0 0 0 3.49 2.48 3.6 3.6 0 0 0 1.2-.2h67.42z"/><path class="cls-53" d="M551 272a3.69 3.69 0 0 1-3.49-2.48l-14.13-40.9a3.69 3.69 0 0 1 7-2.4l14.13 40.89A3.68 3.68 0 0 1 551 272"/><path class="cls-45" d="M554.2 275.29h-73.75a3.26 3.26 0 0 1-3.27-3.27v-2.57a3.26 3.26 0 0 1 3.27-3.26h73.75a3.27 3.27 0 0 1 3.27 3.26V272a3.27 3.27 0 0 1-3.27 3.27"/><path class="cls-54" d="M572.44 275.29h-20.53a3.27 3.27 0 0 1-3.27-3.27v-2.57a3.27 3.27 0 0 1 3.27-3.26h20.53a3.26 3.26 0 0 1 3.26 3.26V272a3.26 3.26 0 0 1-3.26 3.27"/><path class="cls-53" d="M509.61 247.88a5.08 5.08 0 1 1-5.08-5.08 5.07 5.07 0 0 1 5.08 5.08M571.15 272h-4.62a1.38 1.38 0 1 1 0-2.76h4.62a1.38 1.38 0 0 1 0 2.76M561 272h-4.62a1.38 1.38 0 0 1 0-2.76H561a1.38 1.38 0 1 1 0 2.76"/><path class="cls-51" d="M458.61 313.87h88.79v7.63h-88.79z"/><path class="cls-55" d="M482.57 310.73h17.64v12.72h-17.64z"/><path class="cls-50" d="M506.49 311.96h5.74v13.74h-5.74zm-36.09 0h5.74v13.74h-5.74zm58.52 0h5.74v13.74h-5.74z"/><path class="cls-24" d="M846.64 245.16h-91.52a9.17 9.17 0 0 1-9.18-9.17V119.45a9.18 9.18 0 0 1 9.18-9.18h91.52a9.18 9.18 0 0 1 9.18 9.18V236a9.17 9.17 0 0 1-9.18 9.17"/><path class="cls-25" d="M754.57 131v101.37a4.17 4.17 0 0 0 4.17 4.17H843a4.17 4.17 0 0 0 4.17-4.17V131z"/><path class="cls-8" d="M766.72 121.23a4 4 0 1 1-4-4 4 4 0 0 1 4 4"/><g class="cls-26"><g class="cls-56"><g class="cls-57"><path class="cls-8" d="M780.39 121.23a4 4 0 1 1-4-4 4 4 0 0 1 4 4"/></g></g></g><g class="cls-28"><g class="cls-58"><g class="cls-59"><path class="cls-8" d="M794.05 121.23a4 4 0 1 1-4-4 4 4 0 0 1 4 4"/></g></g></g><path class="cls-31" d="M762.48 142.85h22.6v5.37h-22.6zm0 10.93h48.11v5.37h-48.11z"/><path class="cls-32" d="M816.36 153.78h18.96v5.37h-18.96z"/><path class="cls-33" d="M762.48 164.7h13.88v5.37h-13.88z"/><path class="cls-34" d="M782.4 164.7h15.72v5.37H782.4z"/><path class="cls-31" d="M800.88 164.7h29.6v5.37h-29.6z"/><path class="cls-35" d="M762.48 175.63h22.6V181h-22.6z"/><path class="cls-31" d="M775.23 186.55h12.54v5.37h-12.54z"/><path class="cls-34" d="M791.57 186.55h28.22v5.37h-28.22z"/><path class="cls-32" d="M824.74 186.55h12.69v5.37h-12.69z"/><path class="cls-33" d="M775.23 197.48h18.82v5.37h-18.82z"/><path class="cls-32" d="M796.56 197.48h7.41v5.37h-7.41z"/><path class="cls-31" d="M807.86 197.48h14.61v5.37h-14.61zm18.56 0h9.34v5.37h-9.34zm-51.19 10.92h12.54v5.37h-12.54z"/><path class="cls-33" d="M791.85 208.4h12.54v5.37h-12.54z"/><path class="cls-35" d="M762.48 219.33h22.6v5.37h-22.6z"/></svg>