<svg xmlns="http://www.w3.org/2000/svg" viewBox="0 0 291.03 291.03"><defs><style>.cls-1{fill:#fff}.cls-2{fill:#e0e0e0}.cls-3{fill:#4285f4}.cls-4{fill:#d2e3fc}.cls-5{fill:#fbbc04}.cls-6{fill:#feefc3}.cls-7{fill:#5f6368}.cls-8{fill:#f1f3f4}</style></defs><title>icon_impact-calculator_256px</title><g id="Layer_2" data-name="Layer 2"><g id="Layer_1-2" data-name="Layer 1"><circle id="_Path_" data-name="&lt;Path&gt;" class="cls-1" cx="145.51" cy="145.51" r="145.51"/><path class="cls-2" d="M242.94 210.64H41.44a4 4 0 0 1 0-8h201.5a4 4 0 0 1 0 8z"/><path class="cls-3" d="M48.19 176.64h29v26h-29z"/><path class="cls-4" d="M48.19 150.64h29v26h-29z"/><path class="cls-5" d="M87.94 180.64h29v22h-29z"/><path class="cls-6" d="M87.94 158.64h29v22h-29z"/><path class="cls-7" d="M127.69 173.64h29v29h-29z"/><path class="cls-8" d="M127.69 131.64h29v42h-29z"/><path class="cls-3" d="M167.44 150.64h29v52h-29z"/><path class="cls-4" d="M167.44 115.64h29v43h-29z"/><path class="cls-5" d="M207.19 131.64h29v71h-29z"/><path class="cls-6" d="M207.19 99.64h29v51.5h-29z"/><path class="cls-2" d="M201.39 97.07a10.26 10.26 0 0 0-10.27 10.25 10.25 10.25 0 0 0-10.25-10.25 10.26 10.26 0 0 0 10.25-10.26 10.28 10.28 0 0 0 10.27 10.26zM205 74.83a8.2 8.2 0 0 0-8.24 8.17 8.22 8.22 0 0 0-8.21-8.21 8.22 8.22 0 0 0 8.21-8.2 8.23 8.23 0 0 0 8.24 8.24zm11.31 11.43a6.23 6.23 0 0 0-6.23 6.23 6.23 6.23 0 0 0-6.23-6.23 6.24 6.24 0 0 0 6.24-6.26 6.24 6.24 0 0 0 6.22 6.26z"/></g></g></svg>