<svg xmlns="http://www.w3.org/2000/svg" viewBox="0 0 291.03 291.03"><defs><style>.cls-1{fill:#fff}.cls-2{fill:#5f6368}.cls-3{fill:#f1f3f4}.cls-4{fill:#cbcccc}.cls-5{fill:#fbbc04}.cls-6{fill:#ea4335}.cls-7{fill:#34a853}.cls-8{fill:#9aa0a6}</style></defs><title>icon_speed-scorecard_256px</title><g id="Layer_2" data-name="Layer 2"><g id="Layer_1-2" data-name="Layer 1"><circle id="_Path_" data-name="&lt;Path&gt;" class="cls-1" cx="145.51" cy="145.51" r="145.51"/><path class="cls-2" d="M85.24 56.46a6.42 6.42 0 0 0-6.41 6.41V231.7a6.41 6.41 0 0 0 6.41 6.41h126.09a6.41 6.41 0 0 0 6.41-6.41V62.87a6.42 6.42 0 0 0-6.41-6.41z"/><path class="cls-3" d="M93.79 56.46h108.99v166.69H93.79z"/><path class="cls-4" d="M105.34 131.73h74.97v8.99h-74.97zm0 17.98h74.97v8.99h-74.97zm0 17.98h74.97v8.99h-74.97zm0 17.98h74.97v8.99h-74.97zm0 17.98h74.97v8.99h-74.97z"/><path class="cls-2" d="M124.78 89.38h47.01v7.19h-47.01z"/><path class="cls-4" d="M105.34 113.76h74.97v8.99h-74.97z"/><path class="cls-5" d="M180.34 131.73h10.97v8.99h-10.97zm0 17.98h10.97v8.99h-10.97z"/><path class="cls-6" d="M180.34 167.69h10.97v8.99h-10.97z"/><path class="cls-7" d="M180.34 185.67h10.97v8.99h-10.97z"/><path class="cls-5" d="M180.34 203.65h10.97v8.99h-10.97z"/><path class="cls-7" d="M180.34 113.76h10.97v8.99h-10.97z"/><path class="cls-2" d="M161.11 56.46a12.82 12.82 0 1 0-25.64 0h-10.69v15h47v-15zm-18.32 0a5.5 5.5 0 1 1 11 0z"/><path class="cls-8" d="M108.41 159.47H95.16a7.42 7.42 0 1 1 0-14.84h13.25a7.42 7.42 0 1 1 0 14.84zm-13.25-12a4.59 4.59 0 1 0 0 9.18h13.25a4.59 4.59 0 1 0 0-9.18z"/><path class="cls-4" d="M104.6 161.22H99v-5a1.35 1.35 0 0 1 .41-1 1.41 1.41 0 0 1 1-.41h2.82a1.41 1.41 0 0 1 1 .41 1.6 1.6 0 0 1 .41 1.08z"/><path class="cls-4" transform="rotate(-44.99 72.17 172.42)" d="M69.35 171.05H75v2.76h-5.65z"/><path class="cls-8" d="M74.2 168.46l-6 6-3-3a1.41 1.41 0 0 1 0-2l4-4a1.41 1.41 0 0 1 1-.41 1.62 1.62 0 0 1 1.06.48z"/><path class="cls-4" transform="rotate(-44.98 131.4 172.43)" d="M130.01 169.6h2.76v5.65h-2.76z"/><path class="cls-8" d="M135.36 174.44l-6-6 3-3a1.41 1.41 0 0 1 2 0l4 4a1.41 1.41 0 0 1 .41 1 1.62 1.62 0 0 1-.47 1.06z"/><circle class="cls-2" cx="101.79" cy="202.03" r="41.33"/><circle class="cls-1" cx="101.79" cy="202.03" r="35.32"/><path class="cls-5" d="M101.79 166.71V202h35.32a35.32 35.32 0 0 0-35.32-35.29z"/><path class="cls-2" d="M100.9 169.72h1.77v3.53h-1.77z"/><path class="cls-2" transform="rotate(-19.99 91.32 173.3)" d="M90.46 171.56h1.77v3.53h-1.77z"/><path class="cls-2" transform="rotate(-39.99 82.15 178.64)" d="M81.27 176.87h1.77v3.53h-1.77z"/><path class="cls-2" transform="rotate(-59.97 75.32 186.75)" d="M74.45 184.99h1.77v3.53h-1.77z"/><path class="cls-2" transform="rotate(-79.98 71.69 196.72)" d="M70.82 194.96h1.77v3.53h-1.77z"/><path class="cls-2" transform="rotate(-9.8 73.34 211.31)" d="M69.93 206.46h3.53v1.77h-3.53z"/><path class="cls-2" transform="rotate(-30 75.33 217.32)" d="M73.56 216.43h3.53v1.77h-3.53z"/><path class="cls-2" transform="rotate(-49.97 82.16 225.44)" d="M80.38 224.56h3.53v1.77h-3.53z"/><path class="cls-2" transform="rotate(-70 91.35 230.75)" d="M89.57 229.86h3.53v1.77h-3.53z"/><path class="cls-2" transform="rotate(-89.93 101.79 232.59)" d="M100.02 231.7h3.53v1.77h-3.53z"/><path class="cls-2" transform="rotate(-19.96 112.27 230.8)" d="M111.35 228.98h1.77v3.53h-1.77z"/><path class="cls-2" transform="rotate(-39.98 121.44 225.45)" d="M120.54 223.67h1.77v3.53h-1.77z"/><path class="cls-2" transform="rotate(-60.1 127.3 216.27)" d="M127.36 215.54h1.77v3.53h-1.77z"/><path class="cls-2" transform="rotate(-79.98 131.89 207.34)" d="M130.99 205.57h1.77v3.53h-1.77z"/><path class="cls-2" transform="rotate(-9.98 131.87 196.74)" d="M130.11 195.84h3.53v1.77h-3.53z"/><path class="cls-2" transform="rotate(-29.94 128.23 186.74)" d="M126.48 185.87h3.53v1.77h-3.53z"/><path class="cls-2" transform="rotate(-49.97 121.43 178.63)" d="M119.66 177.75h3.53v1.77h-3.53z"/><path class="cls-2" transform="rotate(-69.93 112.24 173.33)" d="M110.47 172.44H114v1.77h-3.53z"/><circle class="cls-1" cx="101.79" cy="202.03" r="4.24"/><path class="cls-8" d="M101.79 207.68a5.65 5.65 0 1 1 5.65-5.65 5.66 5.66 0 0 1-5.65 5.65zm0-8.48a2.83 2.83 0 1 0 2.83 2.83 2.83 2.83 0 0 0-2.83-2.82z"/><path class="cls-8" d="M92.6 200.62h4.95v2.83H92.6zm13.43 0h16.25v2.83h-16.25z"/></g></g></svg>