<svg id="Layer_1" data-name="Layer 1" xmlns="http://www.w3.org/2000/svg" width="3.56in" height="3.56in" viewBox="0 0 256 256"><defs><style>.cls-1{fill:#f1f3f4}.cls-2{fill:#488dfc}.cls-3{fill:#448aff}.cls-4{fill:#ababab}.cls-5{fill:none}</style></defs><title>tool-testmysite</title><circle id="_Path_" data-name="&lt;Path&gt;" class="cls-1" cx="128" cy="128" r="128"/><path class="cls-2" d="M61.85 237.6a128.1 128.1 0 0 0 131.07.73V67.85H61.85z"/><path class="cls-1" d="M101 116.66v2.5h-.87l-.07-1.67h-3.3v10.22l1.33.11v.72h-3.65v-.72l1.33-.11v-10.22h-3.3l-.06 1.67h-.87v-2.5zm4.37 12.05a3.56 3.56 0 0 1-2.76-1.22 4.47 4.47 0 0 1-1.09-3.11v-.45a4.6 4.6 0 0 1 1.09-3.14 3.37 3.37 0 0 1 2.63-1.25 3.28 3.28 0 0 1 2.55 1 3.94 3.94 0 0 1 .93 2.74v.84h-6.23v.23a3.91 3.91 0 0 0 .79 2.5 2.54 2.54 0 0 0 2.09 1 4.23 4.23 0 0 0 1.55-.25 3.09 3.09 0 0 0 1.1-.72l.42.66a3.42 3.42 0 0 1-1.26.83 4.73 4.73 0 0 1-1.81.34zm-.13-8.33a2.34 2.34 0 0 0-1.82.82 3.59 3.59 0 0 0-.86 2.08h5.17v-.24a2.79 2.79 0 0 0-.68-1.93 2.32 2.32 0 0 0-1.81-.73zm11.64 2.05h-.8l-.12-1.25a2.47 2.47 0 0 0-.92-.59 3.71 3.71 0 0 0-1.29-.21 2.37 2.37 0 0 0-1.6.46 1.39 1.39 0 0 0-.54 1.08 1.3 1.3 0 0 0 .46 1 4.44 4.44 0 0 0 1.84.7 6.19 6.19 0 0 1 2.36 1 2 2 0 0 1 .78 1.65 2.14 2.14 0 0 1-.89 1.79 3.8 3.8 0 0 1-2.36.68 5.54 5.54 0 0 1-1.78-.27 4.33 4.33 0 0 1-1.4-.78v-1.78h.8l.13 1.26a2.41 2.41 0 0 0 1 .57 4.29 4.29 0 0 0 1.25.17 2.69 2.69 0 0 0 1.67-.46 1.38 1.38 0 0 0 .61-1.13 1.42 1.42 0 0 0-.51-1.08 4.06 4.06 0 0 0-1.84-.76 6.09 6.09 0 0 1-2.33-.91 1.87 1.87 0 0 1-.77-1.59 2.15 2.15 0 0 1 .86-1.71 3.49 3.49 0 0 1 2.26-.7 5 5 0 0 1 1.77.3 3.48 3.48 0 0 1 1.31.81zm4.2-4.98v2.26H123v.8h-1.94v5.75a1.88 1.88 0 0 0 .31 1.23 1.06 1.06 0 0 0 .84.36 3.46 3.46 0 0 0 .46 0 4 4 0 0 0 .52-.07l.14.73a2.63 2.63 0 0 1-.59.16 4.23 4.23 0 0 1-.7.06 1.83 1.83 0 0 1-1.45-.59 2.74 2.74 0 0 1-.52-1.86v-5.75h-1.52v-.8h1.52v-2.26zm16.27 2.98l-.9.08-3.56 9.49a5.18 5.18 0 0 1-.89 1.53 2 2 0 0 1-1.6.62h-.42a2.55 2.55 0 0 1-.36-.08l.12-.82h.62a1.26 1.26 0 0 0 1-.45 4.28 4.28 0 0 0 .66-1.17l.45-1.18-3.13-7.92-.9-.08v-.72h3v.72l-1.05.09 2.15 5.63.31 1.06h.15l2.42-6.69-1.08-.09v-.72h3zm.99 3.57a4.73 4.73 0 0 1 1.07-3.2 3.84 3.84 0 0 1 5.67 0 4.78 4.78 0 0 1 1.07 3.2v.27a4.74 4.74 0 0 1-1.07 3.2 3.84 3.84 0 0 1-5.67 0 4.69 4.69 0 0 1-1.07-3.2zm1 .27a4.27 4.27 0 0 0 .77 2.58 2.53 2.53 0 0 0 2.16 1 2.5 2.5 0 0 0 2.14-1 4.21 4.21 0 0 0 .78-2.58V124a4.19 4.19 0 0 0-.78-2.56 2.73 2.73 0 0 0-4.3 0 4.25 4.25 0 0 0-.77 2.56zm14.89 2.81a3.09 3.09 0 0 1-1.14 1.21 3.32 3.32 0 0 1-1.7.42 2.71 2.71 0 0 1-2.19-1 4.57 4.57 0 0 1-.78-2.94v-4.28l-1.1-.11v-.72h2.07v5.13a3.79 3.79 0 0 0 .55 2.32 1.87 1.87 0 0 0 1.56.7 2.88 2.88 0 0 0 1.77-.49 2.61 2.61 0 0 0 .92-1.35v-5.48l-1.25-.11v-.72h2.23v8l1.19.11v.72h-2zm5.68-7.37l.12 1.47v.1a3.09 3.09 0 0 1 1-1.27 2.6 2.6 0 0 1 1.54-.47 2 2 0 0 1 .36 0l.29.06-.13.92h-.72a2.21 2.21 0 0 0-1.52.52 2.87 2.87 0 0 0-.84 1.42v5.27l1.33.11v.72h-3.63v-.72l1.33-.11v-7.17l-1.33-.11v-.72h2.18zm-85.77 20.78v-.73h2.2l.09 1.46a3.19 3.19 0 0 1 1.13-1.2 3.26 3.26 0 0 1 1.69-.42 2.79 2.79 0 0 1 1.69.49 2.7 2.7 0 0 1 1 1.51 3.52 3.52 0 0 1 1.14-1.47 3 3 0 0 1 1.8-.53 2.64 2.64 0 0 1 2.18.94 4.47 4.47 0 0 1 .77 2.9v4.32l1.33.11v.72h-3.67v-.72l1.33-.11v-4.33a3.61 3.61 0 0 0-.58-2.31 2 2 0 0 0-1.6-.67 2.18 2.18 0 0 0-1.76.72 3.57 3.57 0 0 0-.77 1.86v4.74l1.33.1v.72h-3.63v-.72l1.33-.1v-4.34a3.54 3.54 0 0 0-.58-2.29 2 2 0 0 0-1.6-.69 2.42 2.42 0 0 0-1.66.53 2.8 2.8 0 0 0-.85 1.41v5.38l1.33.1v.72h-3.64v-.72l1.33-.1v-7.17zm16.12 3.56a4.76 4.76 0 0 1 1.07-3.2 3.84 3.84 0 0 1 5.67 0 4.76 4.76 0 0 1 1.07 3.2v.27a4.76 4.76 0 0 1-1.07 3.2 3.86 3.86 0 0 1-5.67 0 4.76 4.76 0 0 1-1.07-3.2zm1 .27a4.27 4.27 0 0 0 .74 2.58 2.56 2.56 0 0 0 2.17 1 2.52 2.52 0 0 0 2.13-1 4.21 4.21 0 0 0 .78-2.58v-.27a4.17 4.17 0 0 0-.78-2.56 2.71 2.71 0 0 0-4.3 0 4.23 4.23 0 0 0-.77 2.56zm15.99.1a5.12 5.12 0 0 1-.9 3.17 2.94 2.94 0 0 1-2.47 1.17 3.35 3.35 0 0 1-1.67-.38 3 3 0 0 1-1.14-1.12l-.1 1.33h-.84v-11.9l-1.33-.1v-.73h2.3v5.29a3.28 3.28 0 0 1 1.13-1.15 3.15 3.15 0 0 1 1.63-.4 2.88 2.88 0 0 1 2.49 1.27 5.71 5.71 0 0 1 .9 3.38zm-1-.17a5.19 5.19 0 0 0-.65-2.74 2.13 2.13 0 0 0-1.93-1.06 2.6 2.6 0 0 0-1.65.5 3.17 3.17 0 0 0-.93 1.3v4a2.82 2.82 0 0 0 1 1.22 2.7 2.7 0 0 0 1.62.46 2.18 2.18 0 0 0 1.92-.95 4.46 4.46 0 0 0 .64-2.55zm2.59 3.62l1.33-.1v-7.17l-1.33-.11v-.73h2.3v8l1.33.1v.72h-3.63zm2.3-10.64h-1v-1.37h1zm2.78-.64v-.73h2.3v11.91l1.33.1v.72h-3.63v-.72l1.33-.1v-11.08zm9.08 12.17a3.49 3.49 0 0 1-2.75-1.22 4.45 4.45 0 0 1-1.1-3.1V144a4.63 4.63 0 0 1 1.09-3.14 3.38 3.38 0 0 1 2.63-1.25 3.26 3.26 0 0 1 2.56 1 3.92 3.92 0 0 1 .93 2.74v.83h-6.26v.24a3.89 3.89 0 0 0 .8 2.49 2.53 2.53 0 0 0 2.08 1 4.2 4.2 0 0 0 1.55-.25 3.11 3.11 0 0 0 1.11-.73l.41.67a3.6 3.6 0 0 1-1.25.83 5 5 0 0 1-1.8.33zm-.13-8.33a2.33 2.33 0 0 0-1.81.83 3.5 3.5 0 0 0-.86 2.08h5.18v-.25a2.82 2.82 0 0 0-.68-1.92 2.3 2.3 0 0 0-1.85-.74zm15.68 2.06h-.8l-.11-1.25a2.45 2.45 0 0 0-.93-.6 3.62 3.62 0 0 0-1.28-.21 2.42 2.42 0 0 0-1.6.46 1.4 1.4 0 0 0-.54 1.09 1.28 1.28 0 0 0 .46 1 4.58 4.58 0 0 0 1.84.7 5.88 5.88 0 0 1 2.36 1 2 2 0 0 1 .78 1.65 2.12 2.12 0 0 1-.89 1.78 3.76 3.76 0 0 1-2.36.68 5.61 5.61 0 0 1-1.79-.27 4.26 4.26 0 0 1-1.39-.77v-1.78h.79l.14 1.26a2.37 2.37 0 0 0 1 .57 4.79 4.79 0 0 0 1.26.17 2.65 2.65 0 0 0 1.67-.47 1.35 1.35 0 0 0 .61-1.12 1.44 1.44 0 0 0-.51-1.09 4.17 4.17 0 0 0-1.84-.76 6.05 6.05 0 0 1-2.34-.91 1.86 1.86 0 0 1-.76-1.58 2.12 2.12 0 0 1 .86-1.71 3.43 3.43 0 0 1 2.26-.7 5 5 0 0 1 1.77.3 3.46 3.46 0 0 1 1.31.8zm1.7-2v-.73h2.15l.12 1.37a3.11 3.11 0 0 1 2.78-1.53 2.88 2.88 0 0 1 2.49 1.27 5.71 5.71 0 0 1 .9 3.38v.17a5.12 5.12 0 0 1-.9 3.17 2.94 2.94 0 0 1-2.47 1.17 3.52 3.52 0 0 1-1.63-.35 3.07 3.07 0 0 1-1.14-1v3.76l1.33.1v.73h-3.63v-.73l1.33-.1V140.6zm7.46 3.76a5 5 0 0 0-.67-2.74 2.16 2.16 0 0 0-2-1.06 2.58 2.58 0 0 0-1.6.47 2.91 2.91 0 0 0-.93 1.22v4.24a2.65 2.65 0 0 0 1 1.14 2.8 2.8 0 0 0 1.58.42 2.24 2.24 0 0 0 2-1 4.46 4.46 0 0 0 .66-2.56zm6.46 4.51a3.49 3.49 0 0 1-2.75-1.22 4.45 4.45 0 0 1-1.1-3.1V144a4.63 4.63 0 0 1 1.09-3.14 3.4 3.4 0 0 1 2.59-1.26 3.26 3.26 0 0 1 2.56 1 3.92 3.92 0 0 1 .93 2.74v.83h-6.24v.24a3.89 3.89 0 0 0 .8 2.49 2.53 2.53 0 0 0 2.08 1 4.2 4.2 0 0 0 1.55-.25 3.11 3.11 0 0 0 1.11-.73l.41.67a3.6 3.6 0 0 1-1.25.83 5 5 0 0 1-1.78.34zm-.13-8.33a2.34 2.34 0 0 0-1.81.83 3.56 3.56 0 0 0-.86 2.08h5.18v-.25a2.82 2.82 0 0 0-.68-1.92 2.3 2.3 0 0 0-1.87-.74zm9.13 8.33a3.53 3.53 0 0 1-2.76-1.22 4.45 4.45 0 0 1-1.09-3.1V144a4.63 4.63 0 0 1 1.08-3.14 3.4 3.4 0 0 1 2.6-1.26 3.25 3.25 0 0 1 2.55 1 3.92 3.92 0 0 1 .93 2.74v.83h-6.23v.24a3.89 3.89 0 0 0 .79 2.49 2.54 2.54 0 0 0 2.09 1 4.23 4.23 0 0 0 1.55-.25 3.07 3.07 0 0 0 1.1-.73l.42.67a3.74 3.74 0 0 1-1.26.83 4.94 4.94 0 0 1-1.77.34zm-.13-8.33a2.35 2.35 0 0 0-1.82.83 3.56 3.56 0 0 0-.86 2.08h5.17v-.25a2.82 2.82 0 0 0-.68-1.92 2.3 2.3 0 0 0-1.85-.74zm11.36 6.89a3 3 0 0 1-1.13 1.07 3.38 3.38 0 0 1-1.63.37 2.93 2.93 0 0 1-2.48-1.18 5.15 5.15 0 0 1-.89-3.16v-.17a5.78 5.78 0 0 1 .89-3.38 2.88 2.88 0 0 1 2.49-1.27 3.14 3.14 0 0 1 1.6.39 3.21 3.21 0 0 1 1.13 1.1v-4.4l-1.33-.1v-.73h2.31v11.91l1.33.1v.72h-2.2zm-5.15-2.9a4.46 4.46 0 0 0 .65 2.55 2.17 2.17 0 0 0 1.93.95 2.81 2.81 0 0 0 1.57-.43 2.76 2.76 0 0 0 1-1.17v-4.17a3.12 3.12 0 0 0-.94-1.23 2.6 2.6 0 0 0-1.6-.47 2.13 2.13 0 0 0-1.94 1.06 5.19 5.19 0 0 0-.65 2.74zm10.45 4.17h-1.12v-1.34h1.12zM69.77 188.36h114.35v21.99H69.77z"/><circle class="cls-3" cx="169.38" cy="199.45" r="7.48"/><path class="cls-1" d="M173.34 199.45a.49.49 0 0 0-.1-.26l-3-3.2a.38.38 0 0 0-.53 0 .4.4 0 0 0 0 .54l2.42 2.57h-6.33a.37.37 0 0 0-.37.37.38.38 0 0 0 .37.38h6.29l-2.42 2.57a.4.4 0 0 0 0 .53.38.38 0 0 0 .53 0l3-3.21a.31.31 0 0 0 .1-.26z"/><path class="cls-4" d="M78 199.1h-1.9v1.55h2.2v.47h-2.75v-4.37h2.75v.47h-2.17v1.41H78zm1.49-1.23v.41a1.19 1.19 0 0 1 1-.47c.69 0 1 .39 1 1.17v2.14H81V199a.82.82 0 0 0-.16-.52.67.67 0 0 0-.5-.17.78.78 0 0 0-.47.15.92.92 0 0 0-.32.38v2.31H79v-3.25zm3.63-.79v.79h.6v.43h-.6v2a.45.45 0 0 0 .08.3.34.34 0 0 0 .27.09h.27v.44a1.31 1.31 0 0 1-.43.06.69.69 0 0 1-.56-.22.94.94 0 0 1-.19-.64v-2H82v-.43h.59v-.79zm2.6 4.1a1.39 1.39 0 0 1-1.07-.43 1.6 1.6 0 0 1-.42-1.16v-.1a1.89 1.89 0 0 1 .19-.87 1.4 1.4 0 0 1 .51-.59 1.29 1.29 0 0 1 .72-.22 1.21 1.21 0 0 1 1 .42 1.85 1.85 0 0 1 .35 1.2v.23h-2.2a1.18 1.18 0 0 0 .28.78.91.91 0 0 0 .68.29 1 1 0 0 0 .5-.12 1.22 1.22 0 0 0 .36-.32l.34.27a1.35 1.35 0 0 1-1.24.62zm-.07-2.91a.74.74 0 0 0-.56.24 1.21 1.21 0 0 0-.28.69h1.63a1.16 1.16 0 0 0-.23-.66.72.72 0 0 0-.56-.27zm3.56.1h-.28a.72.72 0 0 0-.74.47v2.3h-.55v-3.25h.54v.38a.86.86 0 0 1 .77-.44.76.76 0 0 1 .25 0zm5.2-1.62v3a1.4 1.4 0 0 1-.39 1 1.54 1.54 0 0 1-1 .44h-.16a1.6 1.6 0 0 1-1.14-.38 1.41 1.41 0 0 1-.44-1.07v-3h.57v3a1 1 0 0 0 .27.74 1 1 0 0 0 .74.26.91.91 0 0 0 1-1v-3zm2.52 2.6h-1v1.77h-.58v-4.37h1.45a1.76 1.76 0 0 1 1.14.33 1.25 1.25 0 0 1 .4 1 1.19 1.19 0 0 1-.23.72 1.29 1.29 0 0 1-.61.45l1 1.86h-.62zm-1-.47h.89a1 1 0 0 0 .68-.22.76.76 0 0 0 .26-.6.79.79 0 0 0-.25-.62 1 1 0 0 0-.7-.22h-.91zm3.76 1.77h2.08v.47h-2.66v-4.37h.58zm4.93-3.57v.79h.61v.43h-.61v2a.51.51 0 0 0 .08.3.36.36 0 0 0 .28.09h.26v.44a1.28 1.28 0 0 1-.43.06.7.7 0 0 1-.56-.22 1 1 0 0 1-.19-.64v-2h-.59v-.43h.59v-.79zm1.02 2.39a1.84 1.84 0 0 1 .19-.86 1.36 1.36 0 0 1 .52-.59 1.44 1.44 0 0 1 .77-.21 1.38 1.38 0 0 1 1.07.46 1.76 1.76 0 0 1 .41 1.23 2 2 0 0 1-.18.86 1.33 1.33 0 0 1-.52.58 1.42 1.42 0 0 1-.78.21 1.36 1.36 0 0 1-1.07-.46 1.75 1.75 0 0 1-.41-1.21zm.56.06a1.36 1.36 0 0 0 .25.87.86.86 0 0 0 1.35 0 1.56 1.56 0 0 0 .25-.93 1.39 1.39 0 0 0-.26-.87.85.85 0 0 0-1.34 0 1.54 1.54 0 0 0-.25.93zm5.38-2.45v.79h.61v.43h-.61v2a.51.51 0 0 0 .08.3.38.38 0 0 0 .28.09h.26v.44a1.26 1.26 0 0 1-.42.06.71.71 0 0 1-.57-.22 1 1 0 0 1-.19-.64v-2h-.59v-.43h.57v-.79zm2.61 4.1a1.43 1.43 0 0 1-1.08-.43 1.6 1.6 0 0 1-.41-1.16v-.1a2 2 0 0 1 .18-.87 1.42 1.42 0 0 1 .52-.59 1.25 1.25 0 0 1 .72-.22 1.2 1.2 0 0 1 1 .42 1.79 1.79 0 0 1 .36 1.2v.23h-2.21a1.18 1.18 0 0 0 .28.78.91.91 0 0 0 .69.29 1 1 0 0 0 .5-.12 1.32 1.32 0 0 0 .35-.32l.34.27a1.35 1.35 0 0 1-1.24.62zm-.07-2.91a.75.75 0 0 0-.57.24 1.28 1.28 0 0 0-.28.69h1.63a1.09 1.09 0 0 0-.23-.66.72.72 0 0 0-.55-.27zm3.88 1.99a.4.4 0 0 0-.17-.35 1.68 1.68 0 0 0-.59-.21 3.09 3.09 0 0 1-.67-.22.87.87 0 0 1-.37-.3.74.74 0 0 1-.12-.42.85.85 0 0 1 .34-.67 1.5 1.5 0 0 1 1.76 0 .9.9 0 0 1 .35.73H118a.54.54 0 0 0-.19-.4.74.74 0 0 0-.49-.16.76.76 0 0 0-.48.13.43.43 0 0 0-.17.35.33.33 0 0 0 .16.3 2.19 2.19 0 0 0 .58.2 2.77 2.77 0 0 1 .67.22.92.92 0 0 1 .38.31.72.72 0 0 1 .13.44.84.84 0 0 1-.35.7 1.42 1.42 0 0 1-.9.26 1.68 1.68 0 0 1-.7-.13 1.2 1.2 0 0 1-.47-.39.94.94 0 0 1-.17-.54h.56a.58.58 0 0 0 .22.45.89.89 0 0 0 .56.16.84.84 0 0 0 .5-.13.38.38 0 0 0 .16-.33zm2-3.18v.79h.61v.43H120v2a.51.51 0 0 0 .08.3.36.36 0 0 0 .28.09h.26v.44a1.31 1.31 0 0 1-.43.06.69.69 0 0 1-.56-.22 1 1 0 0 1-.19-.64v-2h-.59v-.43h.59v-.79zm3.87 3.23l.76-2.44h.6l-1.31 3.76a1 1 0 0 1-1 .81h-.31v-.45h.15a.77.77 0 0 0 .44-.11.84.84 0 0 0 .26-.42l.13-.33-1.17-3.22h.61zm1.66-.84a1.84 1.84 0 0 1 .19-.86 1.36 1.36 0 0 1 .52-.59 1.41 1.41 0 0 1 .77-.21 1.38 1.38 0 0 1 1.07.46 1.76 1.76 0 0 1 .41 1.23 2 2 0 0 1-.18.86 1.4 1.4 0 0 1-.52.58 1.47 1.47 0 0 1-.78.21 1.35 1.35 0 0 1-1.07-.46 1.75 1.75 0 0 1-.41-1.21zm.56.06a1.36 1.36 0 0 0 .25.87.86.86 0 0 0 1.35 0 1.56 1.56 0 0 0 .25-.93 1.39 1.39 0 0 0-.26-.87.85.85 0 0 0-1.34 0 1.47 1.47 0 0 0-.25.93zm5.11 1.27a1.18 1.18 0 0 1-1 .38 1 1 0 0 1-.79-.3 1.3 1.3 0 0 1-.27-.89v-2.12h.55V200c0 .5.2.74.6.74a.84.84 0 0 0 .85-.47v-2.37h.56v3.25h-.53zm2.96-2.43h-.28a.72.72 0 0 0-.74.47v2.3h-.56v-3.25h.54v.38a.88.88 0 0 1 .78-.44.76.76 0 0 1 .25 0zm3.93 1.89a.43.43 0 0 0-.17-.35 1.75 1.75 0 0 0-.6-.21 3.09 3.09 0 0 1-.67-.22.91.91 0 0 1-.36-.3.74.74 0 0 1-.12-.42.82.82 0 0 1 .34-.67 1.27 1.27 0 0 1 .86-.28 1.37 1.37 0 0 1 .9.29.9.9 0 0 1 .34.73h-.56a.51.51 0 0 0-.19-.4.87.87 0 0 0-1 0 .41.41 0 0 0-.18.35.35.35 0 0 0 .16.3 2.19 2.19 0 0 0 .58.2 2.62 2.62 0 0 1 .67.22 1 1 0 0 1 .39.31.78.78 0 0 1 .12.44.81.81 0 0 1-.35.7 1.42 1.42 0 0 1-.9.26 1.67 1.67 0 0 1-.69-.13 1.14 1.14 0 0 1-.47-.39.87.87 0 0 1-.17-.54h.55a.59.59 0 0 0 .23.45.86.86 0 0 0 .55.16.82.82 0 0 0 .5-.13.39.39 0 0 0 .24-.37zm4.02-.73a1.92 1.92 0 0 1-.34 1.2 1.08 1.08 0 0 1-.92.45 1.2 1.2 0 0 1-.93-.37v1.57h-.55v-4.51h.5v.36a1.15 1.15 0 0 1 .95-.42 1.1 1.1 0 0 1 .92.44 2 2 0 0 1 .34 1.23zm-.55-.06a1.41 1.41 0 0 0-.24-.87.75.75 0 0 0-.64-.32.82.82 0 0 0-.76.45v1.56a.83.83 0 0 0 .77.44.76.76 0 0 0 .63-.32 1.53 1.53 0 0 0 .24-.94zm2.61 1.71a1.43 1.43 0 0 1-1.08-.43 1.64 1.64 0 0 1-.41-1.16v-.1a2 2 0 0 1 .18-.87 1.5 1.5 0 0 1 .52-.59 1.34 1.34 0 0 1 1.71.2 1.85 1.85 0 0 1 .35 1.2v.23h-2.2a1.13 1.13 0 0 0 .28.78.89.89 0 0 0 .68.29 1 1 0 0 0 .5-.12 1.22 1.22 0 0 0 .36-.32l.34.27a1.37 1.37 0 0 1-1.23.62zm-.07-2.91a.74.74 0 0 0-.56.24 1.21 1.21 0 0 0-.29.69h1.63a1.08 1.08 0 0 0-.22-.66.74.74 0 0 0-.56-.27zm3.33 2.91a1.39 1.39 0 0 1-1.07-.43 1.6 1.6 0 0 1-.42-1.16v-.1a1.89 1.89 0 0 1 .19-.87 1.4 1.4 0 0 1 .51-.59 1.29 1.29 0 0 1 .72-.22 1.21 1.21 0 0 1 1 .42 1.85 1.85 0 0 1 .35 1.2v.23h-2.2a1.18 1.18 0 0 0 .28.78.91.91 0 0 0 .68.29 1 1 0 0 0 .5-.12 1.22 1.22 0 0 0 .36-.32l.34.27a1.35 1.35 0 0 1-1.24.62zm-.07-2.91a.74.74 0 0 0-.56.24 1.21 1.21 0 0 0-.28.69h1.63a1.16 1.16 0 0 0-.23-.66.72.72 0 0 0-.56-.27zm1.85 1.2a1.92 1.92 0 0 1 .35-1.2 1.12 1.12 0 0 1 .93-.46 1.14 1.14 0 0 1 .91.39v-1.69h.6v4.61h-.52v-.34a1.16 1.16 0 0 1-.93.4 1.09 1.09 0 0 1-.92-.46 1.91 1.91 0 0 1-.36-1.21zm.56.06a1.47 1.47 0 0 0 .22.87.76.76 0 0 0 .64.31.81.81 0 0 0 .77-.47v-1.5a.83.83 0 0 0-.77-.46.76.76 0 0 0-.64.32 1.6 1.6 0 0 0-.22.93zm3.06 1.3a.36.36 0 0 1 .09-.24.32.32 0 0 1 .25-.09.34.34 0 0 1 .26.09.36.36 0 0 1 .09.24.3.3 0 0 1-.09.23.31.31 0 0 1-.26.1.29.29 0 0 1-.25-.1.3.3 0 0 1-.09-.23z"/><path class="cls-1" d="M74.81 168.56l1.19 3.06 1.22-3.06h.64v3.75h-.49v-3.03l-1.24 3h-.37l-1.23-3v3.03h-.5v-3.75zm3.77 2.34a1.61 1.61 0 0 1 .16-.74 1.18 1.18 0 0 1 .45-.51 1.19 1.19 0 0 1 .65-.17 1.17 1.17 0 0 1 .92.39 1.49 1.49 0 0 1 .36 1 1.7 1.7 0 0 1-.16.73 1.12 1.12 0 0 1-.45.51 1.21 1.21 0 0 1-.66.18 1.15 1.15 0 0 1-.92-.4 1.47 1.47 0 0 1-.35-1zm.48 0a1.23 1.23 0 0 0 .21.75.72.72 0 0 0 .58.28.68.68 0 0 0 .57-.29 1.24 1.24 0 0 0 .22-.79 1.17 1.17 0 0 0-.22-.75.68.68 0 0 0-.58-.28.69.69 0 0 0-.57.28 1.29 1.29 0 0 0-.21.9zm4.28.68a.34.34 0 0 0-.15-.3 1.26 1.26 0 0 0-.51-.19 2.4 2.4 0 0 1-.57-.18 1 1 0 0 1-.32-.26.69.69 0 0 1-.1-.36.73.73 0 0 1 .29-.58 1.13 1.13 0 0 1 .74-.23 1.16 1.16 0 0 1 .77.24.77.77 0 0 1 .3.63h-.48a.44.44 0 0 0-.17-.34.74.74 0 0 0-.82 0 .36.36 0 0 0-.15.3.28.28 0 0 0 .14.26 1.53 1.53 0 0 0 .49.16 2.59 2.59 0 0 1 .58.2.81.81 0 0 1 .33.26.67.67 0 0 1 .1.38.71.71 0 0 1-.3.6 1.22 1.22 0 0 1-.77.23 1.38 1.38 0 0 1-.59-.12 1 1 0 0 1-.41-.33.86.86 0 0 1-.14-.46h.47a.51.51 0 0 0 .2.38.75.75 0 0 0 .47.14.78.78 0 0 0 .43-.11.34.34 0 0 0 .17-.32zm1.74-2.73v.68h.52v.37h-.52v1.73a.37.37 0 0 0 .07.25.33.33 0 0 0 .24.08h.23v.38a1.24 1.24 0 0 1-.37.06.6.6 0 0 1-.48-.2.82.82 0 0 1-.17-.55v-1.75h-.5v-.37h.5v-.68zm4.01 2.73a.34.34 0 0 0-.15-.3 1.15 1.15 0 0 0-.5-.19 2.35 2.35 0 0 1-.58-.18.82.82 0 0 1-.31-.26.61.61 0 0 1-.11-.36.73.73 0 0 1 .29-.58 1.14 1.14 0 0 1 .75-.23 1.15 1.15 0 0 1 .76.24.77.77 0 0 1 .3.63h-.48a.41.41 0 0 0-.17-.34.59.59 0 0 0-.41-.14.63.63 0 0 0-.41.11.36.36 0 0 0-.15.3.3.3 0 0 0 .14.26 1.53 1.53 0 0 0 .49.16 2.59 2.59 0 0 1 .58.2.81.81 0 0 1 .33.26.68.68 0 0 1 .11.38.71.71 0 0 1-.3.6 1.27 1.27 0 0 1-.78.23 1.38 1.38 0 0 1-.59-.12 1 1 0 0 1-.41-.33.86.86 0 0 1-.14-.46h.48a.47.47 0 0 0 .19.38.77.77 0 0 0 .47.14.82.82 0 0 0 .44-.11.35.35 0 0 0 .16-.29zm1.1-2.79a.27.27 0 0 1 .07-.2.32.32 0 0 1 .42 0 .27.27 0 0 1 .07.2.26.26 0 0 1-.07.19.32.32 0 0 1-.42 0 .26.26 0 0 1-.07-.19zm.51 3.52h-.47v-2.78h.47zm1.41-3.46v.68h.52v.37h-.52v1.73a.44.44 0 0 0 .07.25.33.33 0 0 0 .24.08h.23v.38a1.24 1.24 0 0 1-.37.06.6.6 0 0 1-.48-.2.82.82 0 0 1-.16-.55v-1.75h-.51v-.37h.51v-.68zm2.24 3.52a1.2 1.2 0 0 1-.92-.38 1.35 1.35 0 0 1-.36-1v-.09a1.61 1.61 0 0 1 .16-.74 1.16 1.16 0 0 1 1.06-.69 1 1 0 0 1 .84.35 1.51 1.51 0 0 1 .31 1v.2h-1.89a.92.92 0 0 0 .24.66.75.75 0 0 0 .58.26.81.81 0 0 0 .43-.11 1 1 0 0 0 .31-.27l.29.23a1.16 1.16 0 0 1-1.05.58zm-.06-2.5a.67.67 0 0 0-.49.21 1 1 0 0 0-.24.59H95a.86.86 0 0 0-.2-.56.56.56 0 0 0-.51-.24zm3.32 1.71a.36.36 0 0 0-.14-.3 1.26 1.26 0 0 0-.51-.19 2.5 2.5 0 0 1-.58-.18.91.91 0 0 1-.31-.26.61.61 0 0 1-.1-.36.71.71 0 0 1 .29-.58 1.11 1.11 0 0 1 .74-.23 1.2 1.2 0 0 1 .77.24.79.79 0 0 1 .29.63h-.48a.43.43 0 0 0-.16-.34.59.59 0 0 0-.42-.14.63.63 0 0 0-.41.11.36.36 0 0 0-.15.3.3.3 0 0 0 .14.26 1.62 1.62 0 0 0 .49.16 2.59 2.59 0 0 1 .58.2.81.81 0 0 1 .33.26.68.68 0 0 1 .11.38.71.71 0 0 1-.3.6 1.27 1.27 0 0 1-.78.23 1.38 1.38 0 0 1-.59-.12.94.94 0 0 1-.4-.33.79.79 0 0 1-.15-.46h.48a.5.5 0 0 0 .19.38.77.77 0 0 0 .46.16.82.82 0 0 0 .44-.11.33.33 0 0 0 .17-.31zm2.92.73h-.47v-3.95h.47zm.64-1.41a1.61 1.61 0 0 1 .16-.74 1.25 1.25 0 0 1 .45-.51 1.2 1.2 0 0 1 .66-.17 1.19 1.19 0 0 1 .92.39 1.53 1.53 0 0 1 .35 1 1.57 1.57 0 0 1-.16.73 1.16 1.16 0 0 1-.44.51 1.27 1.27 0 0 1-.67.18 1.16 1.16 0 0 1-.92-.4 1.52 1.52 0 0 1-.35-1zm.48 0a1.23 1.23 0 0 0 .21.75.72.72 0 0 0 .58.28.69.69 0 0 0 .58-.29 1.3 1.3 0 0 0 .21-.79 1.17 1.17 0 0 0-.22-.75.72.72 0 0 0-1.14 0 1.23 1.23 0 0 0-.22.9zm4.28.68a.34.34 0 0 0-.15-.3 1.15 1.15 0 0 0-.5-.19 2.5 2.5 0 0 1-.58-.18.91.91 0 0 1-.31-.26.61.61 0 0 1-.1-.36.71.71 0 0 1 .29-.58 1.11 1.11 0 0 1 .74-.23 1.2 1.2 0 0 1 .77.24.79.79 0 0 1 .29.63h-.48a.43.43 0 0 0-.16-.34.61.61 0 0 0-.42-.14.63.63 0 0 0-.41.11.36.36 0 0 0-.15.3.3.3 0 0 0 .14.26 1.53 1.53 0 0 0 .49.16 2.59 2.59 0 0 1 .58.2.81.81 0 0 1 .33.26.68.68 0 0 1 .11.38.71.71 0 0 1-.3.6 1.27 1.27 0 0 1-.78.23 1.38 1.38 0 0 1-.59-.12.94.94 0 0 1-.4-.33.79.79 0 0 1-.15-.46h.48a.5.5 0 0 0 .19.38.77.77 0 0 0 .47.14.82.82 0 0 0 .44-.11.33.33 0 0 0 .16-.29zm2.25.79a1.23 1.23 0 0 1-.92-.38 1.39 1.39 0 0 1-.35-1v-.09a1.61 1.61 0 0 1 .16-.74 1.16 1.16 0 0 1 .44-.51 1.12 1.12 0 0 1 .62-.18 1 1 0 0 1 .84.35 1.56 1.56 0 0 1 .3 1v.2h-1.89a1 1 0 0 0 .24.66.77.77 0 0 0 .59.26.83.83 0 0 0 .43-.11 1 1 0 0 0 .31-.27l.29.23a1.19 1.19 0 0 1-1.06.58zm-.05-2.5a.64.64 0 0 0-.49.21 1 1 0 0 0-.24.59h1.4a.92.92 0 0 0-.2-.56.59.59 0 0 0-.47-.24zm3.48-.01a1 1 0 0 1 .82-.38c.59 0 .89.33.89 1v1.84h-.47v-1.84a.65.65 0 0 0-.14-.45.57.57 0 0 0-.42-.14.71.71 0 0 0-.41.12.79.79 0 0 0-.27.33v2h-.48v-3.95h.48zm4.15 2.45a.92.92 0 0 1-.07-.29 1.05 1.05 0 0 1-.79.35 1 1 0 0 1-.68-.24.76.76 0 0 1-.26-.59.81.81 0 0 1 .33-.68 1.63 1.63 0 0 1 .93-.24h.46v-.21a.54.54 0 0 0-.15-.4.57.57 0 0 0-.44-.15.64.64 0 0 0-.42.13.37.37 0 0 0-.18.31H114a.64.64 0 0 1 .15-.4 1 1 0 0 1 .4-.31 1.3 1.3 0 0 1 .56-.11 1.12 1.12 0 0 1 .76.24.88.88 0 0 1 .28.66v1.28a1.46 1.46 0 0 0 .1.61zM115 172a.88.88 0 0 0 .42-.11.67.67 0 0 0 .29-.31V171h-.37c-.58 0-.88.17-.88.51a.46.46 0 0 0 .15.36.61.61 0 0 0 .39.13zm2.43.31H117v-3.95h.48zm.99 0v-2.41H118v-.37h.44v-.29a.93.93 0 0 1 .24-.69.89.89 0 0 1 .68-.25 1.26 1.26 0 0 1 .33 0v.38a1.06 1.06 0 0 0-.26 0 .45.45 0 0 0-.35.13.53.53 0 0 0-.13.39v.3h.6v.37h-.6v2.41zm3.58-3.46v.68h.53v.37H122v1.73a.44.44 0 0 0 .07.25.33.33 0 0 0 .24.08h.23v.38a1.24 1.24 0 0 1-.37.06.6.6 0 0 1-.48-.2.82.82 0 0 1-.16-.55v-1.75H121v-.37h.51v-.68zm1.53 1.01a1 1 0 0 1 .82-.38q.89 0 .9 1v1.84h-.48v-1.84a.65.65 0 0 0-.14-.45.57.57 0 0 0-.42-.14.71.71 0 0 0-.41.12.87.87 0 0 0-.27.33v2h-.48v-3.95h.48zm3.59 2.51a1.24 1.24 0 0 1-.93-.38 1.39 1.39 0 0 1-.35-1v-.09a1.61 1.61 0 0 1 .16-.74 1.16 1.16 0 0 1 1.06-.69 1 1 0 0 1 .84.35 1.56 1.56 0 0 1 .3 1v.2h-1.89a1 1 0 0 0 .25.66.74.74 0 0 0 .58.26.83.83 0 0 0 .43-.11 1 1 0 0 0 .31-.27l.29.23a1.18 1.18 0 0 1-1.05.58zm-.06-2.5a.64.64 0 0 0-.49.21 1 1 0 0 0-.24.59h1.4a.92.92 0 0 0-.2-.56.57.57 0 0 0-.47-.24zm1.7-1.08a.27.27 0 0 1 .07-.2.32.32 0 0 1 .42 0 .27.27 0 0 1 .07.2.26.26 0 0 1-.07.19.32.32 0 0 1-.42 0 .26.26 0 0 1-.07-.19zm.51 3.52h-.47v-2.78h.47zm2.11-2.31h-.23a.63.63 0 0 0-.64.4v2H130v-2.78h.46v.32a.73.73 0 0 1 .66-.37.51.51 0 0 1 .21 0zm2.67 1.67l.69-2.14h.49l-1 2.78h-.37l-1-2.78h.49zm1.64-2.88a.27.27 0 0 1 .07-.2.32.32 0 0 1 .42 0 .27.27 0 0 1 .07.2.26.26 0 0 1-.07.19.32.32 0 0 1-.42 0 .26.26 0 0 1-.07-.19zm.51 3.52h-.47v-2.78h.47zm2.39-.73a.34.34 0 0 0-.15-.3 1.15 1.15 0 0 0-.5-.19 2.35 2.35 0 0 1-.58-.18.82.82 0 0 1-.31-.26.61.61 0 0 1-.11-.36.73.73 0 0 1 .29-.58 1.33 1.33 0 0 1 1.51 0 .77.77 0 0 1 .3.63h-.48a.41.41 0 0 0-.17-.34.59.59 0 0 0-.41-.14.63.63 0 0 0-.41.11.36.36 0 0 0-.15.3.3.3 0 0 0 .14.26 1.53 1.53 0 0 0 .49.16 2.59 2.59 0 0 1 .58.2.81.81 0 0 1 .33.26.68.68 0 0 1 .11.38.71.71 0 0 1-.3.6 1.27 1.27 0 0 1-.78.23 1.38 1.38 0 0 1-.59-.12.94.94 0 0 1-.4-.33.79.79 0 0 1-.15-.46h.48a.47.47 0 0 0 .19.38.77.77 0 0 0 .47.14.82.82 0 0 0 .44-.11.35.35 0 0 0 .16-.28zm1.1-2.79a.27.27 0 0 1 .07-.2.32.32 0 0 1 .42 0 .27.27 0 0 1 .07.2.26.26 0 0 1-.07.19.32.32 0 0 1-.42 0 .26.26 0 0 1-.07-.19zm.51 3.52h-.47v-2.78h.47zm1.41-3.46v.68h.53v.37h-.53v1.73a.44.44 0 0 0 .07.25.33.33 0 0 0 .24.08h.23v.38a1.24 1.24 0 0 1-.37.06.6.6 0 0 1-.48-.2.82.82 0 0 1-.16-.55v-1.75h-.51v-.37h.51v-.68zm.88 2.05a1.61 1.61 0 0 1 .16-.74 1.25 1.25 0 0 1 .45-.51 1.2 1.2 0 0 1 .66-.17 1.19 1.19 0 0 1 .92.39 1.53 1.53 0 0 1 .35 1 1.57 1.57 0 0 1-.16.73 1.16 1.16 0 0 1-.44.51 1.27 1.27 0 0 1-.67.18 1.16 1.16 0 0 1-.92-.4 1.52 1.52 0 0 1-.35-1zm.48 0a1.17 1.17 0 0 0 .22.75.72.72 0 0 0 1.15 0 1.3 1.3 0 0 0 .21-.79 1.17 1.17 0 0 0-.22-.75.72.72 0 0 0-1.14 0 1.23 1.23 0 0 0-.19.89zm4.03-.9h-.23a.64.64 0 0 0-.64.4v2h-.47v-2.78h.46v.32a.73.73 0 0 1 .66-.37.51.51 0 0 1 .21 0zm2 1.58a.34.34 0 0 0-.15-.3 1.26 1.26 0 0 0-.51-.19 2.4 2.4 0 0 1-.57-.18 1 1 0 0 1-.32-.26.69.69 0 0 1-.1-.36.73.73 0 0 1 .29-.58 1.13 1.13 0 0 1 .74-.23 1.16 1.16 0 0 1 .77.24.77.77 0 0 1 .3.63H149a.44.44 0 0 0-.17-.34.74.74 0 0 0-.82 0 .36.36 0 0 0-.15.3.28.28 0 0 0 .14.26 1.53 1.53 0 0 0 .49.16 2.59 2.59 0 0 1 .58.2.81.81 0 0 1 .33.26.67.67 0 0 1 .1.38.71.71 0 0 1-.3.6 1.22 1.22 0 0 1-.77.23 1.38 1.38 0 0 1-.59-.12 1 1 0 0 1-.41-.33.86.86 0 0 1-.14-.46h.47a.51.51 0 0 0 .2.38.75.75 0 0 0 .47.14.78.78 0 0 0 .43-.11.34.34 0 0 0 .14-.32zm4.91.08l.54-2.13h.47l-.81 2.78h-.39l-.67-2.11-.66 2.11H152l-.81-2.78h.48l.54 2.08.65-2.08h.39zm1.97-1.8a1 1 0 0 1 .83-.38c.59 0 .88.33.89 1v1.84h-.48v-1.84a.65.65 0 0 0-.12-.48.6.6 0 0 0-.43-.14.68.68 0 0 0-.4.12.9.9 0 0 0-.28.33v2h-.47v-3.95h.47zm2.44-1.07a.27.27 0 0 1 .07-.2.26.26 0 0 1 .21-.08.29.29 0 0 1 .21.08.27.27 0 0 1 .07.2.26.26 0 0 1-.07.19.29.29 0 0 1-.21.08.26.26 0 0 1-.21-.08.26.26 0 0 1-.07-.19zm.51 3.52h-.47v-2.78h.47zm1.28 0h-.47v-3.95h.47zm1.89.06a1.21 1.21 0 0 1-.92-.38 1.35 1.35 0 0 1-.36-1v-.09a1.75 1.75 0 0 1 .16-.74 1.25 1.25 0 0 1 .45-.51 1.11 1.11 0 0 1 .61-.18 1 1 0 0 1 .85.35 1.56 1.56 0 0 1 .3 1v.2h-1.89a1 1 0 0 0 .24.66.77.77 0 0 0 .59.26.83.83 0 0 0 .43-.11 1 1 0 0 0 .3-.27l.29.23a1.16 1.16 0 0 1-1.05.58zm-.06-2.5a.63.63 0 0 0-.48.21 1 1 0 0 0-.24.59h1.39a.91.91 0 0 0-.19-.56.59.59 0 0 0-.42-.24zm3.56 2.44h-.5v-3.95h.48zm.63-1.41a1.75 1.75 0 0 1 .16-.74 1.25 1.25 0 0 1 .45-.51 1.2 1.2 0 0 1 .66-.17 1.19 1.19 0 0 1 .92.39 1.53 1.53 0 0 1 .35 1 1.7 1.7 0 0 1-.15.73 1.19 1.19 0 0 1-1.12.69 1.18 1.18 0 0 1-.92-.4 1.52 1.52 0 0 1-.35-1zm.48 0a1.17 1.17 0 0 0 .22.75.69.69 0 0 0 .57.28.68.68 0 0 0 .58-.29 1.3 1.3 0 0 0 .21-.79 1.23 1.23 0 0 0-.21-.75.7.7 0 0 0-.58-.28.67.67 0 0 0-.57.28 1.23 1.23 0 0 0-.22.9zm4.39 1.41a.92.92 0 0 1-.07-.29 1.05 1.05 0 0 1-.79.35 1 1 0 0 1-.68-.24.76.76 0 0 1-.26-.59.81.81 0 0 1 .33-.68 1.63 1.63 0 0 1 .93-.24h.47v-.21a.54.54 0 0 0-.15-.4.6.6 0 0 0-.44-.15.67.67 0 0 0-.43.13.36.36 0 0 0-.17.31h-.48a.69.69 0 0 1 .14-.4 1 1 0 0 1 .41-.31 1.26 1.26 0 0 1 .55-.11 1.1 1.1 0 0 1 .76.24.84.84 0 0 1 .28.66v1.28a1.65 1.65 0 0 0 .1.61zm-.79-.36a.88.88 0 0 0 .42-.11.69.69 0 0 0 .3-.31V171h-.38q-.87 0-.87.51a.46.46 0 0 0 .15.36.56.56 0 0 0 .37.13zm1.79-1.05a1.64 1.64 0 0 1 .31-1 1 1 0 0 1 .79-.39 1 1 0 0 1 .78.33v-1.45h.48v3.95h-.44v-.29a1 1 0 0 1-.8.35 1 1 0 0 1-.79-.4 1.67 1.67 0 0 1-.31-1zm.48 0a1.21 1.21 0 0 0 .2.74.63.63 0 0 0 .54.27.68.68 0 0 0 .66-.41v-1.28a.7.7 0 0 0-.66-.39.63.63 0 0 0-.54.27 1.37 1.37 0 0 0-.18.9zm2.64-2.11a.27.27 0 0 1 .07-.2.32.32 0 0 1 .42 0 .27.27 0 0 1 .07.2.26.26 0 0 1-.07.19.32.32 0 0 1-.42 0 .26.26 0 0 1-.07-.19zm.51 3.52h-.47v-2.78h.47zm1.22-2.78v.35a1 1 0 0 1 .84-.4c.59 0 .89.33.89 1v1.84h-.48v-1.84a.65.65 0 0 0-.1-.48.6.6 0 0 0-.43-.14.68.68 0 0 0-.4.12.9.9 0 0 0-.28.33v2h-.47v-2.78zm2.35 1.37a1.65 1.65 0 0 1 .3-1 1 1 0 0 1 1.59 0v-.31h.43v2.72a1.15 1.15 0 0 1-.32.85 1.16 1.16 0 0 1-.86.31 1.37 1.37 0 0 1-.59-.13 1 1 0 0 1-.44-.35l.24-.29a.93.93 0 0 0 .75.38.74.74 0 0 0 .55-.19.75.75 0 0 0 .19-.55V172a1 1 0 0 1-.78.33.93.93 0 0 1-.79-.4 1.72 1.72 0 0 1-.27-1.03zm.48 0a1.23 1.23 0 0 0 .19.74.63.63 0 0 0 .54.27.68.68 0 0 0 .66-.41v-1.27a.69.69 0 0 0-.66-.4.63.63 0 0 0-.54.27 1.37 1.37 0 0 0-.19.9z"/><circle id="_Path_2" data-name="&lt;Path&gt;" class="cls-5" cx="128" cy="128" r="128"/><circle id="_Path_3" data-name="&lt;Path&gt;" class="cls-5" cx="128" cy="128" r="128"/></svg>
