<svg xmlns="http://www.w3.org/2000/svg" viewBox="0 0 256 256"><defs><style>.cls-1{fill:#fff;}.cls-2{fill:#f1f3f4;}.cls-3{fill:#d2d4d7;}.cls-4{fill:#4285f4;}.cls-5{fill:#d2e3fc;}.cls-6{fill:#fbbc04;}.cls-7{fill:#feefc3;}.cls-8{fill:#5f6368;}</style></defs><title>icon_impact-calculator_grey_256px</title><g id="Layer_2" data-name="Layer 2"><g id="Layer_1-2" data-name="Layer 1"><circle id="_Path_" data-name="&lt;Path&gt;" class="cls-1" cx="128" cy="128" r="128"/><circle id="_Clipping_Path_" data-name="&lt;Clipping Path&gt;" class="cls-2" cx="128" cy="128" r="128"/><path class="cls-3" d="M213.7,185.28H36.45a3.52,3.52,0,0,1,0-7H213.7a3.52,3.52,0,0,1,0,7Z"/><rect class="cls-4" x="42.39" y="155.38" width="25.51" height="22.87"/><rect class="cls-5" x="42.39" y="132.51" width="25.51" height="22.87"/><rect class="cls-6" x="77.35" y="158.9" width="25.51" height="19.35"/><rect class="cls-7" x="77.35" y="139.54" width="25.51" height="19.35"/><rect class="cls-8" x="112.32" y="152.74" width="25.51" height="25.51"/><rect class="cls-3" x="112.32" y="115.79" width="25.51" height="36.94"/><rect class="cls-4" x="147.28" y="132.51" width="25.51" height="45.74"/><rect class="cls-5" x="147.28" y="101.72" width="25.51" height="37.82"/><rect class="cls-6" x="182.25" y="115.79" width="25.51" height="62.45"/><rect class="cls-7" x="182.25" y="87.64" width="25.51" height="45.3"/><path class="cls-3" d="M177.15,85.39a9,9,0,0,0-9,9,9,9,0,0,0-9-9,9,9,0,0,0,9-9A9,9,0,0,0,177.15,85.39Z"/><path class="cls-3" d="M180.29,65.83A7.22,7.22,0,0,0,173.08,73a7.23,7.23,0,0,0-7.22-7.22,7.23,7.23,0,0,0,7.22-7.21A7.24,7.24,0,0,0,180.29,65.83Z"/><path class="cls-3" d="M190.28,75.88a5.48,5.48,0,0,0-5.48,5.48,5.48,5.48,0,0,0-5.48-5.48,5.49,5.49,0,0,0,5.48-5.48A5.49,5.49,0,0,0,190.28,75.88Z"/></g></g></svg>