<svg xmlns="http://www.w3.org/2000/svg" viewBox="0 0 291.03 291.03"><defs><style>.cls-1,.cls-6{fill:#f1f3f4}.cls-2{fill:#2879ff}.cls-3{mask:url(#mask)}.cls-11,.cls-4{fill:none;stroke:#fff}.cls-4{stroke-opacity:.2;stroke-width:.5px}.cls-5{fill:url(#radial-gradient)}.cls-6,.cls-7{opacity:.2;isolation:isolate}.cls-7{opacity:.1}.cls-8{fill:url(#radial-gradient-2)}.cls-9{fill:url(#radial-gradient-3)}.cls-10{fill:url(#radial-gradient-4)}.cls-11{stroke-width:2px}</style><mask id="mask" x="34.14" y="33.96" width="223.35" height="223.35" maskUnits="userSpaceOnUse"><g id="mask-2"><rect id="path-1" class="cls-1" x="57.54" y="57.37" width="176.54" height="176.54" rx="13.94" ry="13.94"/></g></mask><radialGradient id="radial-gradient" cx="-478.16" cy="-16.4" r="1.17" gradientTransform="matrix(120 0 0 -120 57475.83 -1873.37)" gradientUnits="userSpaceOnUse"><stop offset="0" stop-color="#fff" stop-opacity=".12"/><stop offset="1" stop-color="#fff" stop-opacity="0"/></radialGradient><radialGradient id="radial-gradient-2" cx="-463.07" cy="-52.65" r="1.58" gradientTransform="matrix(26.72 0 0 -26.72 12461.33 -1299.51)" gradientUnits="userSpaceOnUse"><stop offset="0" stop-color="#1a237e" stop-opacity=".2"/><stop offset="1" stop-color="#1a237e" stop-opacity="0"/></radialGradient><radialGradient id="radial-gradient-3" cx="-472.19" cy="44.59" r="1.78" gradientTransform="matrix(-22.06 14.8 14.8 22.06 -10908.43 6172.4)" gradientUnits="userSpaceOnUse"><stop offset="0" stop-color="#1a237e" stop-opacity=".12"/><stop offset="1" stop-color="#1a237e" stop-opacity="0"/></radialGradient><radialGradient id="radial-gradient-4" cx="-462.79" cy="-21.3" r=".66" gradientTransform="matrix(48.08 26.16 26.12 -48.01 22961.78 11199.04)" gradientUnits="userSpaceOnUse"><stop offset="0" stop-color="#1a237e" stop-opacity=".15"/><stop offset="1" stop-color="#1a237e" stop-opacity="0"/></radialGradient></defs><title>icon_chrome-dev-tools_256px</title><g id="Layer_2" data-name="Layer 2"><g id="Layer_1-2" data-name="Layer 1"><circle id="_Path_" data-name="&lt;Path&gt;" class="cls-1" cx="145.51" cy="145.51" r="145.51"/><g id="Page-1"><g id="Logo"><g id="Mask-2-2" data-name="Mask"><rect id="path-1-2" data-name="path-1" class="cls-2" x="57.54" y="57.37" width="176.54" height="176.54" rx="13.94" ry="13.94"/></g><g class="cls-3"><g id="Grid"><path id="Shape" class="cls-4" d="M34.31 34.14l223 223"/><path id="Shape-2" data-name="Shape" class="cls-4" d="M257.31 34.14l-223 223"/><path id="Shape-3" data-name="Shape" class="cls-4" d="M178 34.14v223"/><path id="Shape-4" data-name="Shape" class="cls-4" d="M113.58 34.14v223"/><path id="Shape-5" data-name="Shape" class="cls-4" d="M257.31 177.87h-223"/><path id="Shape-6" data-name="Shape" class="cls-4" d="M257.31 113.41h-223"/><circle id="Oval" class="cls-4" cx="145.81" cy="145.64" r="45.3"/><path id="Shape-7" data-name="Shape" class="cls-4" d="M34.31 145.64h223"/><path id="Shape-8" data-name="Shape" class="cls-4" d="M145.81 34.14v223"/></g></g><circle id="Lux" class="cls-5" cx="145.81" cy="145.64" r="69.69"/><path id="Shadow-Top" class="cls-6" d="M220.15 57.37H71.48A14 14 0 0 0 57.54 71.3v1.16a14 14 0 0 1 13.94-13.93h148.67a14 14 0 0 1 13.94 13.94V71.3a14 14 0 0 0-13.94-13.94z"/><path id="Shadow-Bottom" class="cls-7" d="M220.15 232.75H71.48a14 14 0 0 1-13.94-13.94V220a14 14 0 0 0 13.94 13.94h148.67A14 14 0 0 0 234.08 220v-1.16a14 14 0 0 1-13.94 13.94z"/><path id="Inner-Shadow-Left" class="cls-8" d="M115 135.74a31.89 31.89 0 0 0 2.6 24.79l-31-53.23z"/><path id="Inner-Shadow-Bottom" class="cls-9" d="M152.75 177a31.84 31.84 0 0 0 20.43-15.1l-30.85 54z"/><path id="Inner-Shadow-Top" class="cls-10" d="M146.15 113.7H208l-38.82 10.37a31.79 31.79 0 1 1-23.5-10.38z"/><path id="Circle-Outer" class="cls-11" d="M145.81 214.16a68.53 68.53 0 1 0-68.53-68.53 68.53 68.53 0 0 0 68.53 68.53z"/><circle id="Circle-Middle" class="cls-11" cx="145.81" cy="145.64" r="31.36"/><circle id="Circle-Inner" class="cls-11" cx="145.81" cy="145.64" r="22.07"/><path id="Right" class="cls-1" d="M145.81 113.12h61.56v2.32h-61.56z"/><path id="Bottom" class="cls-1" transform="rotate(-60 157.58 187.98)" d="M126.8 186.81h61.56v2.32H126.8z"/><path id="Left" class="cls-1" transform="rotate(-30 103.26 134.67)" d="M102.1 103.88h2.32v61.56h-2.32z"/></g></g></g></g></svg>
