<svg xmlns="http://www.w3.org/2000/svg" viewBox="0 0 256 256"><defs><style>.cls-1{fill:#fff;}.cls-2{fill:#f1f3f4;}.cls-3{fill:#5f6368;}.cls-4{fill:#cbcccc;}.cls-5{fill:#fbbc04;}.cls-6{fill:#ea4335;}.cls-7{fill:#34a853;}.cls-8{fill:#9aa0a6;}</style></defs><title>icon_speed-scorecard_grey_256px</title><g id="Layer_2" data-name="Layer 2"><g id="Layer_1-2" data-name="Layer 1"><g id="Layer_2-2" data-name="Layer 2"><g id="Layer_1-2-2" data-name="Layer 1-2"><circle id="_Path_" data-name=" Path " class="cls-1" cx="128" cy="128" r="128"/><circle id="_Clipping_Path_" data-name=" Clipping Path " class="cls-2" cx="128" cy="128" r="128"/><path class="cls-3" d="M75,49.67a5.65,5.65,0,0,0-5.64,5.64V203.82A5.64,5.64,0,0,0,75,209.46H185.9a5.64,5.64,0,0,0,5.64-5.64h0V55.3a5.65,5.65,0,0,0-5.64-5.64Z"/><rect class="cls-1" x="82.5" y="49.67" width="95.87" height="146.63"/><rect class="cls-4" x="92.66" y="115.88" width="65.95" height="7.91"/><rect class="cls-4" x="92.66" y="131.69" width="65.95" height="7.91"/><rect class="cls-4" x="92.66" y="147.51" width="65.95" height="7.91"/><rect class="cls-4" x="92.66" y="163.33" width="65.95" height="7.91"/><rect class="cls-4" x="92.66" y="179.14" width="65.95" height="7.91"/><rect class="cls-3" x="109.76" y="78.62" width="41.35" height="6.32"/><rect class="cls-4" x="92.66" y="100.07" width="65.95" height="7.91"/><rect class="cls-5" x="158.64" y="115.88" width="9.65" height="7.91"/><rect class="cls-5" x="158.64" y="131.69" width="9.65" height="7.91"/><rect class="cls-6" x="158.64" y="147.51" width="9.65" height="7.91"/><rect class="cls-7" x="158.64" y="163.33" width="9.65" height="7.91"/><rect class="cls-5" x="158.64" y="179.14" width="9.65" height="7.91"/><rect class="cls-7" x="158.64" y="100.07" width="9.65" height="7.91"/><path class="cls-3" d="M141.72,49.67a11.28,11.28,0,0,0-22.55,0h-9.4V62.86h41.34V49.67Zm-16.12,0a4.84,4.84,0,1,1,9.68,0Z"/><path class="cls-8" d="M95.36,140.28H83.71a6.53,6.53,0,0,1,0-13.05H95.36a6.53,6.53,0,0,1,0,13.05ZM83.71,129.72a4,4,0,0,0,0,8.08H95.36a4,4,0,0,0,0-8.08H83.71Z"/><path class="cls-4" d="M92,141.82H87.09v-4.4a1.19,1.19,0,0,1,.36-.88,1.24,1.24,0,0,1,.88-.36h2.48a1.24,1.24,0,0,1,.88.36,1.41,1.41,0,0,1,.36,1Z"/><rect class="cls-4" x="61.01" y="150.46" width="4.97" height="2.43" transform="translate(-88.64 89.29) rotate(-44.99)"/><path class="cls-8" d="M65.27,148.19,60,153.47l-2.64-2.64a1.24,1.24,0,0,1,0-1.75h0l3.52-3.52a1.24,1.24,0,0,1,.88-.36,1.43,1.43,0,0,1,.93.42Z"/><rect class="cls-4" x="114.36" y="149.21" width="2.43" height="4.97" transform="translate(-73.4 126.09) rotate(-44.98)"/><path class="cls-8" d="M119.07,153.45l-5.28-5.28,2.64-2.64a1.24,1.24,0,0,1,1.75,0h0l3.52,3.52a1.24,1.24,0,0,1,.36.88,1.43,1.43,0,0,1-.41.93Z"/><circle class="cls-3" cx="89.54" cy="177.72" r="36.36"/><circle class="cls-1" cx="89.54" cy="177.72" r="31.07"/><path class="cls-5" d="M89.54,146.65v31h31.07A31.07,31.07,0,0,0,89.54,146.65Z"/><rect class="cls-3" x="88.76" y="149.3" width="1.56" height="3.11"/><rect class="cls-3" x="79.58" y="150.91" width="1.56" height="3.11" transform="translate(-47.28 36.66) rotate(-19.99)"/><rect class="cls-3" x="71.49" y="155.59" width="1.56" height="3.11" transform="translate(-84.09 83.19) rotate(-39.99)"/><rect class="cls-3" x="65.48" y="162.72" width="1.56" height="3.11" transform="translate(-109.12 139.43) rotate(-59.97)"/><rect class="cls-3" x="62.29" y="171.48" width="1.56" height="3.11" transform="translate(-118.31 205.03) rotate(-79.98)"/><rect class="cls-3" x="60.61" y="180.94" width="3.09" height="1.55" transform="translate(-30.14 13.3) rotate(-9.84)"/><rect class="cls-3" x="64.7" y="190.39" width="3.11" height="1.56" transform="translate(-86.71 58.74) rotate(-30)"/><rect class="cls-3" x="70.71" y="197.55" width="3.11" height="1.56" transform="translate(-126.07 126.1) rotate(-49.97)"/><rect class="cls-3" x="78.79" y="202.22" width="3.11" height="1.56" transform="translate(-137.89 209.07) rotate(-70)"/><rect class="cls-3" x="87.99" y="203.82" width="3.11" height="1.56" transform="translate(-115.17 293.89) rotate(-89.93)"/><rect class="cls-3" x="97.94" y="201.44" width="1.56" height="3.11" transform="translate(-63.36 45.89) rotate(-19.96)"/><rect class="cls-3" x="106.03" y="196.76" width="1.56" height="3.11" transform="translate(-102.46 114.98) rotate(-39.98)"/><rect class="cls-3" x="112.03" y="189.6" width="1.56" height="3.11" transform="translate(-109.14 193.2) rotate(-59.98)"/><rect class="cls-3" x="115.23" y="180.85" width="1.56" height="3.11" transform="translate(-83.79 264.9) rotate(-79.98)"/><rect class="cls-3" x="114.45" y="172.27" width="3.11" height="1.56" transform="translate(-28.24 22.72) rotate(-9.98)"/><rect class="cls-3" x="111.26" y="163.5" width="3.11" height="1.56" transform="translate(-66.93 78.23) rotate(-29.94)"/><rect class="cls-3" x="105.27" y="156.36" width="3.11" height="1.56" transform="translate(-82.21 137.86) rotate(-49.97)"/><rect class="cls-3" x="97.18" y="151.69" width="3.11" height="1.56" transform="translate(-78.36 192.88) rotate(-69.93)"/><circle class="cls-1" cx="89.54" cy="177.72" r="3.73"/><path class="cls-8" d="M89.54,182.69a5,5,0,1,1,5-5h0A5,5,0,0,1,89.54,182.69Zm0-7.46A2.49,2.49,0,1,0,92,177.72a2.49,2.49,0,0,0-2.49-2.49Z"/><rect class="cls-8" x="81.46" y="176.48" width="4.35" height="2.49"/><rect class="cls-8" x="93.27" y="176.48" width="14.29" height="2.49"/></g></g></g></g></svg>