<svg id="Layer_1" data-name="Layer 1" xmlns="http://www.w3.org/2000/svg" width="4.12in" height="4.66in" viewBox="0 0 296.5 335.77"><defs><style>.cls-1,.cls-10,.cls-21,.cls-28,.cls-9{fill:none}.cls-2{fill:#fbbc04}.cls-3{clip-path:url(#clip-path)}.cls-4{fill:#ffcc80}.cls-5{fill:#ffe0b2}.cls-6{fill:#3c4043}.cls-7{fill:#ea4335}.cls-8{fill:#ffb74d}.cls-9{stroke:#9aa0a6;stroke-width:1.8px}.cls-10,.cls-21,.cls-28,.cls-9{stroke-miterlimit:10}.cls-10{stroke:#fabb05}.cls-10,.cls-21,.cls-28{stroke-width:3.49px}.cls-11{fill:#fff}.cls-12{clip-path:url(#clip-path-5)}.cls-13{fill:#8d6e63}.cls-14{fill:#72594b}.cls-15{fill:#9c7761}.cls-16{fill:#795548}.cls-17{clip-path:url(#clip-path-6)}.cls-18{clip-path:url(#clip-path-7)}.cls-19{clip-path:url(#clip-path-8)}.cls-20{fill:#fabb05}.cls-21{stroke:#ea4335}.cls-22{fill:#00acc1}.cls-23{clip-path:url(#clip-path-9)}.cls-24{fill:#ff9800}.cls-25{fill:#676c72}.cls-26{clip-path:url(#clip-path-12)}.cls-27{opacity:.25}.cls-28{stroke:#00acc1}</style><clipPath id="clip-path" transform="translate(3.23)"><ellipse class="cls-1" cx="94.64" cy="262.34" rx="53.21" ry="53.19" transform="rotate(-89.93 94.64 262.34)"/></clipPath><clipPath id="clip-path-5" transform="translate(3.23)"><ellipse class="cls-1" cx="219.59" cy="159.08" rx="69.84" ry="69.77" transform="rotate(-13.68 219.49 159.01)"/></clipPath><clipPath id="clip-path-6" transform="translate(3.23)"><ellipse class="cls-1" cx="220.28" cy="156.88" rx="69.56" ry="69.5" transform="rotate(-13.68 220.21 156.86)"/></clipPath><clipPath id="clip-path-7" transform="translate(3.23)"><ellipse class="cls-1" cx="219.32" cy="158.81" rx="69.56" ry="69.5" transform="rotate(-13.68 219.22 158.77)"/></clipPath><clipPath id="clip-path-8" transform="translate(3.23)"><path class="cls-1" d="M292.43 158.28a71.42 71.42 0 1 1-71-71.72"/></clipPath><clipPath id="clip-path-9" transform="translate(3.23)"><circle class="cls-1" cx="59.91" cy="100.52" r="56.07" transform="rotate(-25.01 59.92 100.52)"/></clipPath><clipPath id="clip-path-12" transform="translate(3.23)"><path class="cls-1" d="M101.22 179.04l1.07-27.14-30.18-14.34-14.03 9.53-13.24-10.6-31.21 11.92-1.07 27.14 88.66 3.49z"/></clipPath></defs><title>users</title><ellipse class="cls-2" cx="94.61" cy="262.38" rx="53.48" ry="53.43" transform="rotate(-13.68 96.16 248.83)"/><g class="cls-3"><path class="cls-4" d="M105.45 304.86s.14 10.56-10.15 10.68-10.41-10.43-10.41-10.43l-.34-27.52 20.56-.26zm-2.6-39.08c-.38 5.09 3.42 8.19 8.5 8.57s6.89-2.3 7.27-7.39-.76-8-5.85-8.37-9.54 2.1-9.92 7.19zm-16.33.22c.51 5.08-3.21 8.28-8.29 8.78s-6.94-2.13-7.44-7.21.56-8 5.64-8.51S86 260.9 86.52 266z" transform="translate(3.23)"/><path class="cls-5" d="M74.65 265.49c-.2-16.09 0-34.4 19.6-34.65 19.62-.24 20.26 18.07 20.46 34.15.15 12.53-7.16 27.88-19.69 28-12.53.19-20.22-14.99-20.37-27.5z" transform="translate(3.23)"/><circle class="cls-6" cx="85.17" cy="263.12" r="1.71" transform="rotate(-89.93 86.78 261.5)"/><circle class="cls-6" cx="104.13" cy="262.89" r="1.71" transform="rotate(-90 105.52 261.18)"/><path class="cls-7" d="M81.42 257.68a8.69 8.69 0 0 1 3.46-1.31 9 9 0 0 1 4.05.43c.91.3.88.92-.12.91a24.32 24.32 0 0 0-7.46.87c-.97.24-.98-.23.07-.9zm26.32-.32a8.52 8.52 0 0 0-3.48-1.23 9.11 9.11 0 0 0-4.05.53c-.9.32-.85.94.15.9a24.2 24.2 0 0 1 7.48.7c.97.21.97-.26-.1-.9z" transform="translate(3.23)"/><path class="cls-8" d="M94.8 275.1a4.1 4.1 0 0 0 3.2-1.6.45.45 0 0 0-.37-.73l-5.71.07a.46.46 0 0 0-.36.74 4.11 4.11 0 0 0 3.24 1.52zm5.61 5.38c0 .85-2.14 2.11-5.52 2.15s-5.55-1.16-5.56-2 2.48.1 5.54.07 5.53-1.06 5.54-.22z" transform="translate(3.23)"/><path class="cls-4" d="M140.85 334.73l-.32-25.78-31.95-12.07-10.05 18.66-10.51-18.41L56.37 310l.32 25.77 84.16-1.04z"/></g><g class="cls-3"><path class="cls-7" d="M76 274.76c-3.44-.41-4.83-2.94-5.25-7.21s.31-7.19 3.84-8.19v-1.28a49.67 49.67 0 0 0 3.66-16.47 84.14 84.14 0 0 0 10.91 5.66c10 4.67 19.51 7.91 25.18 8.25.08 1.11.13 2.23.17 3.35 3.56.9 4.38 3.67 4.05 8.09s-1.65 6.84-5.08 7.33c-1.43 5.57-4.17 10.84-8 14.37l23.08-.29s-5.41-34.26-9.41-44.18-7.91-20.88-25-20.66-20.75 11.25-24.5 21.27-8.32 44.41-8.32 44.41l23.08-.29c-3.93-3.43-6.8-8.63-8.41-14.16z" transform="translate(3.23)"/></g><g class="cls-3"><path class="cls-9" d="M75.29 261.64c.09 7.29 1.46 11 8.75 10.9s8.56-3.83 8.47-11.11a23.9 23.9 0 0 0-17.22.21zm38.64-.48c.09 7.29-1.19 11-8.47 11.11s-8.66-3.61-8.75-10.9a23.9 23.9 0 0 1 17.22-.21z" transform="translate(3.23)"/><path class="cls-9" d="M96.72 261.37a4.53 4.53 0 0 0-2.12-.49 4.63 4.63 0 0 0-2.09.54" transform="translate(3.23)"/></g><g class="cls-3"><path class="cls-6" d="M111.4 300.19v-1l-6.08-2.3s2.14 9.53-10.17 9.69c-12.32.15-10.4-9.43-10.4-9.43l-6 2.44c0 .34.06.67.06 1a24 24 0 0 1-23.67 24.28c-.62 0-1.22 0-1.82-.07l.14 11 84.16-1-.14-11c-.6.05-1.2.1-1.81.11a24 24 0 0 1-24.27-23.72z" transform="translate(3.23)"/></g><path class="cls-10" d="M126.26 188.18a53.19 53.19 0 0 0-63.3 0m11.33 11.35a37.52 37.52 0 0 1 40.63 0" transform="translate(3.23)"/><ellipse class="cls-11" cx="221.07" cy="156.24" rx="71.67" ry="71.6" transform="rotate(-13.68 222.59 142.73)"/><ellipse class="cls-7" cx="221.09" cy="157.04" rx="72.18" ry="72.12" transform="rotate(-13.68 222.62 143.53)"/><g class="cls-12"><path class="cls-13" d="M277.53 254.98l.19-33.8-38.16-16.55-17.07 12.45-16.92-12.62-38.35 16.15-.19 33.8 110.5.57z"/><path class="cls-14" d="M236.28 212.9s-.91 16-17.08 15.94-16.91-16.12-16.91-16.12l.19-33.9 34 .18zm-2.51-49.1a12.11 12.11 0 0 0 10.95 13.2c6.67.62 9.1-4.61 9.72-11.27s-.8-12.24-7.47-12.86a12.13 12.13 0 0 0-13.2 10.93zm-28.42-.15a12.12 12.12 0 0 1-11.09 13.07c-6.68.55-9-4.7-9.6-11.37s.94-12.23 7.62-12.78a12.11 12.11 0 0 1 13.07 11.08z" transform="translate(3.23)"/><path class="cls-15" d="M189.78 162.73c.12-21.09-.37-46.86 30.05-46.7 30.42.16 29.64 25.92 29.53 47-.1 16.43-13.54 36.37-30 36.28-16.45-.07-29.67-20.14-29.58-36.58z" transform="translate(3.23)"/><circle class="cls-6" cx="207.14" cy="159.89" r="2.25" transform="rotate(-13.68 208.66 146.38)"/><circle class="cls-6" cx="232.03" cy="160.01" r="2.25" transform="rotate(-13.68 233.54 146.53)"/><path class="cls-16" d="M219.51 174.07a5.36 5.36 0 0 0 4.23-2 .6.6 0 0 0-.47-1h-7.5a.61.61 0 0 0-.48 1 5.38 5.38 0 0 0 4.22 2zm7.22 8.93c0 1.11-2.86 2.71-7.29 2.69s-7.27-1.65-7.26-2.76 3.26.19 7.27.21 7.28-1.25 7.28-.14z" transform="translate(3.23)"/></g><g class="cls-17"><path class="cls-6" d="M190.59 159.48l10.68-28 38.3.19 10.36 28.15.2-36.15A18.36 18.36 0 0 0 235 105.42a87.7 87.7 0 0 0-14.39-1.33 86.65 86.65 0 0 0-14.41 1.19 18.36 18.36 0 0 0-15.37 18z" transform="translate(3.23)"/><path class="cls-6" d="M203.1 150.5a11 11 0 0 1 4.55-1.63 11.8 11.8 0 0 1 5.29.65c1.18.41 1.12 1.22-.18 1.18a32.14 32.14 0 0 0-9.77 1c-1.27.3-1.28-.35.11-1.2zm34.43.18A11.17 11.17 0 0 0 233 149a11.67 11.67 0 0 0-5.3.6c-1.18.39-1.13 1.2.17 1.18a31.62 31.62 0 0 1 9.76 1.07c1.26.31 1.28-.31-.1-1.17z" transform="translate(3.23)"/></g><g class="cls-18"><path class="cls-6" d="M249 153.1a82.18 82.18 0 0 0-.79-11.41c-1.23 5.81-1.71 22.83-3.13 28.13-2.07 7.74-6.54 11.53-14.11 7.85 0 0 1.3 2.37.69 8.81a120.16 120.16 0 0 1-2.91 15.34c-.81 2.4-1 3.58 1.14 1.82 4.71-3.9 7.83-5.42 14-15.8 5.29-8.95 6.01-19.15 5.11-34.74zm-59.26-.31a83.35 83.35 0 0 1 .91-11.39c1.17 5.82 1.46 22.84 2.82 28.16 2 7.75 6.41 11.59 14 8 0 0-1.34 2.35-.79 8.8a116.25 116.25 0 0 0 2.74 15.37c.78 2.41.93 3.59-1.17 1.81-4.4-3.73-8-5.85-13.82-15.94-5.2-9.01-5.81-19.23-4.69-34.81z" transform="translate(3.23)"/><path class="cls-6" d="M219.22 175.23c-7.24 0-15 1.7-14.92 7.47a141.82 141.82 0 0 0 2.29 18.36c.74 3.1 5.44 5.13 12.46 5.17s11.74-1.95 12.52-5a140.33 140.33 0 0 0 2.49-18.34c.12-5.8-7.59-7.62-14.84-7.66zm8.59 18.23c-2 2-4.53-2.57-8.39-2.59s-7 4.52-9 2.5-2.13-8.64-2.28-10.27 4.4-3.4 11-3.37 11.18 1.85 11 3.48-.36 8.25-2.33 10.25z" transform="translate(3.23)"/></g><g class="cls-19"><path class="cls-20" d="M277.95 254.33l.19-33.74-38.33-16.53-17.14 12.43-16.99-12.6-38.51 16.13-.19 33.74 110.97.57z"/></g><path class="cls-21" d="M263.82 51.3a71.82 71.82 0 0 0-85.44 0m15.29 15.32a50.67 50.67 0 0 1 54.84 0" transform="translate(3.23)"/><ellipse class="cls-11" cx="59.91" cy="96.22" rx="59.71" ry="59.66" transform="rotate(-13.68 61.5 82.73)"/><ellipse class="cls-22" cx="59.91" cy="96.22" rx="59.71" ry="59.66" transform="rotate(-13.68 61.5 82.73)"/><g class="cls-23"><path class="cls-8" d="M71.17 104.69a9.73 9.73 0 0 0 8.43 10.89c5.33.68 7.43-3.45 8.1-8.78s-.31-9.86-5.64-10.54a9.74 9.74 0 0 0-10.89 8.43zm-22.81-.89A9.74 9.74 0 0 1 39.1 114c-5.37.26-7.13-4-7.39-9.4s1.09-9.8 6.46-10a9.73 9.73 0 0 1 10.19 9.2z" transform="translate(3.23)"/><path class="cls-8" d="M104.45 179.04l1.07-27.14-30.18-14.34-14.03 9.53-13.24-10.6-31.21 11.92-1.07 27.14 88.66 3.49z"/><path class="cls-8" d="M71.85 144.2s-1.16 12.8-14.14 12.33-13.13-13.4-13.13-13.4l1.07-27.23 27.27 1.1z" transform="translate(3.23)"/><path class="cls-4" d="M35.89 102.63c.67-16.94 1-37.65 25.38-36.69 24.41 1 23.09 21.63 22.42 38.57-.52 13.2-11.85 28.84-25 28.32-13.25-.52-23.32-17-22.8-30.2z" transform="translate(3.23)"/><path class="cls-24" d="M59.44 112.55a4.28 4.28 0 0 0 3.45-1.5.49.49 0 0 0-.35-.8l-6-.23a.48.48 0 0 0-.42.76 4.32 4.32 0 0 0 3.32 1.77zm7.01 6.03c0 .89-3.77 2-7.32 1.9S51.94 118.9 52 118s4 .3 7.23.43 7.25-.74 7.22.15z" transform="translate(3.23)"/><circle class="cls-6" cx="53.13" cy="100.82" r="1.81"/><circle class="cls-6" cx="73.1" cy="101.61" r="1.81"/><path class="cls-25" d="M74 96a8.94 8.94 0 0 0-3.61-1.47 9.41 9.41 0 0 0-4.29.33c-1 .29-.94 1 .11 1A25.51 25.51 0 0 1 74 96.94c1 .28 1.07-.22 0-.94zm-27.75-1.11A9 9 0 0 1 50 93.7a9.55 9.55 0 0 1 4.24.68c.94.36.87 1-.18.94a25.47 25.47 0 0 0-7.9.52c-1.07.16-1.06-.3.09-.95z" transform="translate(3.23)"/></g><g class="cls-23"><path class="cls-25" d="M35.89 102.63l2.24-21.21c8 .32 14.85.73 20.75-2.37 14.26-7.48 23.19 3.48 23.19 3.48l1.62 22v.76a40.14 40.14 0 0 0 5.44-18.21c.73-18.57-6.61-16.78-6.61-16.78s.61-20-22.47-15.18c-25.11 5.22-27.61 17-28.11 29.71a40 40 0 0 0 4 18.58 2.98 2.98 0 0 1-.05-.78z" transform="translate(3.23)"/></g><g class="cls-23"><path class="cls-11" d="M104.45 179.04l1.07-27.14-30.18-14.34-14.03 9.53-13.24-10.6-31.21 11.92-1.07 27.14 88.66 3.49z"/><g class="cls-26"><path class="cls-27" transform="rotate(-87.7 101.87 131.54)" d="M81.51 129.19h37.32v8.22H81.51z"/><path class="cls-27" transform="rotate(-87.75 101.78 131.62)" d="M96.05 114.64h8.22v37.32h-8.22z"/><path transform="rotate(-87.75 101.78 131.62)" d="M96.05 129.19h8.22v8.22h-8.22z"/><path class="cls-27" transform="rotate(-87.75 100.96 152.36)" d="M80.69 149.93h37.32v8.22H80.69z"/><path class="cls-27" transform="rotate(-87.75 100.96 152.36)" d="M95.24 135.38h8.22v37.32h-8.22z"/><path transform="rotate(-87.75 100.96 152.36)" d="M95.24 149.93h8.22v8.22h-8.22z"/><path class="cls-27" transform="rotate(-87.75 100.15 173.1)" d="M79.88 170.66h37.32v8.22H79.88z"/><path class="cls-27" transform="rotate(-87.75 100.15 173.1)" d="M94.42 156.12h8.22v37.32h-8.22z"/><path transform="rotate(-87.75 100.15 173.1)" d="M94.42 170.66h8.22v8.22h-8.22z"/><path class="cls-27" transform="rotate(-87.75 81.03 130.8)" d="M60.77 128.37h37.32v8.22H60.77z"/><path class="cls-27" transform="rotate(-87.75 81.03 130.8)" d="M75.32 113.82h8.22v37.32h-8.22z"/><path transform="rotate(-87.75 81.03 130.8)" d="M75.32 128.37h8.22v8.22h-8.22z"/><path class="cls-27" transform="rotate(-87.75 80.22 151.54)" d="M59.95 149.11h37.32v8.22H59.95z"/><path class="cls-27" transform="rotate(-87.75 80.22 151.54)" d="M74.5 134.56h8.22v37.32H74.5z"/><path transform="rotate(-87.75 80.22 151.54)" d="M74.5 149.11h8.22v8.22H74.5z"/><path class="cls-27" transform="rotate(-87.75 79.4 172.28)" d="M59.14 169.85h37.32v8.22H59.14z"/><path class="cls-27" transform="rotate(-87.75 79.4 172.28)" d="M73.68 155.3h8.22v37.32h-8.22z"/><path transform="rotate(-87.75 79.4 172.28)" d="M73.68 169.85h8.22v8.22h-8.22z"/><path class="cls-27" transform="rotate(-87.7 60.4 129.94)" d="M40.03 127.56h37.32v8.22H40.03z"/><path class="cls-27" transform="rotate(-87.75 60.3 129.99)" d="M54.58 113.01h8.22v37.32h-8.22z"/><path transform="rotate(-87.75 60.3 129.99)" d="M54.58 127.56h8.22v8.22h-8.22z"/><path class="cls-27" transform="rotate(-87.75 59.48 150.72)" d="M39.21 148.29h37.32v8.22H39.21z"/><path class="cls-27" transform="rotate(-87.75 59.48 150.72)" d="M53.76 133.75h8.22v37.32h-8.22z"/><path transform="rotate(-87.75 59.48 150.72)" d="M53.76 148.29h8.22v8.22h-8.22z"/><path class="cls-27" transform="rotate(-87.75 58.66 171.46)" d="M38.4 169.03h37.32v8.22H38.4z"/><path class="cls-27" transform="rotate(-87.75 58.66 171.46)" d="M52.95 154.49h8.22v37.32h-8.22z"/><path transform="rotate(-87.75 58.66 171.46)" d="M52.95 169.03h8.22v8.22h-8.22z"/><path class="cls-27" transform="rotate(-87.75 39.56 129.17)" d="M19.29 126.74h37.32v8.22H19.29z"/><path class="cls-27" transform="rotate(-87.75 39.56 129.17)" d="M33.84 112.19h8.22v37.32h-8.22z"/><path transform="rotate(-87.75 39.56 129.17)" d="M33.84 126.74h8.22v8.22h-8.22z"/><path class="cls-27" transform="rotate(-87.7 38.86 149.88)" d="M18.47 147.48h37.32v8.22H18.47z"/><path class="cls-27" transform="rotate(-87.75 38.75 149.91)" d="M33.02 132.93h8.22v37.32h-8.22z"/><path transform="rotate(-87.75 38.75 149.91)" d="M33.02 147.48h8.22v8.22h-8.22z"/><path class="cls-27" transform="rotate(-87.75 37.93 170.65)" d="M17.66 168.22h37.32v8.22H17.66z"/><path class="cls-27" transform="rotate(-87.75 37.93 170.65)" d="M32.21 153.67h8.22v37.32h-8.22z"/><path transform="rotate(-87.75 37.93 170.65)" d="M32.21 168.22h8.22v8.22h-8.22z"/><path class="cls-27" transform="rotate(-87.75 18.82 128.35)" d="M-1.45 125.92h37.32v8.22H-1.45z"/><path class="cls-27" transform="rotate(-87.75 18.82 128.35)" d="M13.1 111.38h8.22v37.32H13.1z"/><path transform="rotate(-87.75 18.82 128.35)" d="M13.1 125.92h8.22v8.22H13.1z"/><path class="cls-27" transform="rotate(-87.75 18 149.1)" d="M-2.26 146.66h37.32v8.22H-2.26z"/><path class="cls-27" transform="rotate(-87.75 18 149.1)" d="M12.28 132.12h8.22v37.32h-8.22z"/><path transform="rotate(-87.75 18 149.1)" d="M12.28 146.66h8.22v8.22h-8.22z"/><path class="cls-27" transform="rotate(-87.75 17.19 169.83)" d="M-3.08 167.4h37.32v8.22H-3.08z"/><path class="cls-27" transform="rotate(-87.75 17.19 169.83)" d="M11.47 152.86h8.22v37.32h-8.22z"/><path transform="rotate(-87.75 17.19 169.83)" d="M11.47 167.4h8.22v8.22h-8.22z"/></g></g><path class="cls-28" d="M95.25 13.38a59.42 59.42 0 0 0-70.68 0m12.65 12.67a41.89 41.89 0 0 1 45.36 0" transform="translate(3.23)"/></svg>