<?xml version="1.0" encoding="utf-8"?>
<!DOCTYPE svg PUBLIC "-//W3C//DTD SVG 1.1//EN" "http://www.w3.org/Graphics/SVG/1.1/DTD/svg11.dtd">
<svg version="1.1" id="Layer_1" xmlns="http://www.w3.org/2000/svg" xmlns:xlink="http://www.w3.org/1999/xlink" x="0px" y="0px"
	 viewBox="11.6 238.5 591.7 199.5" enable-background="new 11.6 238.5 591.7 199.5" xml:space="preserve">
<rect x="0" y="223.9" fill="none" width="612" height="344.2"/>
<path fill="#CCCCCC" d="M383.1,239.5h219.3v3.7H383.1V239.5z"/>
<path fill="#1C4587" d="M418.7,243.2h21V351h-21V243.2z"/>
<path fill="#3C78D8" d="M439.4,243.2h127.8v54.2H439.4V243.2z"/>
<path fill="#C9DAF8" d="M439.4,297.4h127.8V351H439.4V297.4z"/>
<path fill-opacity="0" d="M383.1,239.5h219.3V351H383.1V239.5z"/>
<path fill="none" stroke="#000000" stroke-width="2" stroke-linejoin="round" stroke-miterlimit="10" d="M383.1,239.5h219.3V351
	H383.1V239.5z"/>
<path fill="#C9DAF8" d="M232.4,297.4h127.8V351H232.4V297.4z"/>
<path fill="#1C4587" d="M211.4,243.2h21V351h-21V243.2z"/>
<path fill="#CCCCCC" d="M204.8,239.5h164.4v3.7H204.8V239.5z"/>
<path fill="#3C78D8" d="M232.4,243.2h127.8v54.2H232.4V243.2z"/>
<path fill-opacity="0" d="M204.8,239.5h164.4V351H204.8V239.5z"/>
<path fill="none" stroke="#000000" stroke-width="2" stroke-linejoin="round" stroke-miterlimit="10" d="M204.8,239.5h164.4V351
	H204.8V239.5z"/>
<path fill="#CCCCCC" d="M81.3,239.5h109.6v3.7H81.3V239.5z"/>
<path fill="#1C4587" d="M81.3,243.2h109.6v25.3H81.3V243.2z"/>
<path fill="#3C78D8" d="M81.3,268.6h109.6v51.3H81.3V268.6z"/>
<path fill="#C9DAF8" d="M81.3,319.9h109.6v65.2H81.3V319.9z"/>
<path fill-opacity="0" d="M81.3,239.5h109.6V351H81.3V239.5z"/>
<path fill="none" stroke="#000000" stroke-width="2" stroke-linejoin="round" stroke-miterlimit="10" d="M81.3,239.5h109.6V351H81.3
	V239.5z"/>
<path fill="#C9DAF8" d="M12.6,326.5h54.8V438H12.6L12.6,326.5z"/>
<path fill="#3C78D8" d="M12.6,261.3h54.8v65.2H12.6L12.6,261.3z"/>
<path fill="#CCCCCC" d="M12.6,239.5h54.8v3.7H12.6L12.6,239.5z"/>
<path fill="#1C4587" d="M12.6,243.2h54.8v18.1H12.6L12.6,243.2z"/>
<path fill-opacity="0" d="M12.6,239.5h54.8V351H12.6L12.6,239.5z"/>
<path fill="none" stroke="#000000" stroke-width="2" stroke-linejoin="round" stroke-miterlimit="10" d="M12.6,239.5h54.8V351H12.6
	L12.6,239.5z"/>
</svg>
