<?xml version="1.0" encoding="utf-8"?>
<!-- Generator: Adobe Illustrator 16.0.4, SVG Export Plug-In . SVG Version: 6.00 Build 0)  -->
<!DOCTYPE svg PUBLIC "-//W3C//DTD SVG 1.1//EN" "http://www.w3.org/Graphics/SVG/1.1/DTD/svg11.dtd">
<svg version="1.1" id="Layer_1" xmlns="http://www.w3.org/2000/svg" xmlns:xlink="http://www.w3.org/1999/xlink" x="0px" y="0px"
	 width="44px" height="44px" viewBox="0 0 44 44" enable-background="new 0 0 44 44" xml:space="preserve">
<circle fill="#4D4D4D" cx="22" cy="35.287" r="3"/>
<g>
	<path fill="#4D4D4D" d="M34.537,16.316l3.387-3.774C33.917,8.337,28.267,5.712,22,5.712c-12.15,0-22,9.853-22,22
		c0,0.146,0.008,0.289,0.011,0.435h0.546C1.151,17.911,9.615,9.787,20,9.787C25.784,9.787,30.969,12.315,34.537,16.316z"/>
</g>
<line fill="none" stroke="#4D4D4D" stroke-width="3" stroke-miterlimit="10" x1="21.505" y1="35.87" x2="40.494" y2="14.704"/>
<path fill="#4D4D4D" d="M38.174,22.272c0.595,1.538,1.015,3.163,1.201,4.861l4.568,1.729C43.964,28.479,44,28.101,44,27.712
	c0-3.409-0.789-6.63-2.174-9.511L38.174,22.272z"/>
</svg>
