<?xml version="1.0" encoding="utf-8"?>
<!-- Generator: Adobe Illustrator 18.0.0, SVG Export Plug-In . SVG Version: 6.00 Build 0)  -->
<!DOCTYPE svg PUBLIC "-//W3C//DTD SVG 1.1//EN" "http://www.w3.org/Graphics/SVG/1.1/DTD/svg11.dtd">
<svg version="1.1" id="Layer_1" xmlns="http://www.w3.org/2000/svg" xmlns:xlink="http://www.w3.org/1999/xlink" x="0px" y="0px"
	 viewBox="0 0 510 370" enable-background="new 0 0 510 370" xml:space="preserve">
<line fill="none" stroke="#86888A" stroke-miterlimit="10" x1="19" y1="319" x2="496.5" y2="319"/>
<rect x="19" y="311.8" fill="none" width="79.5" height="14.5"/>
<g enable-background="new    ">
	<path fill="#86888A" d="M23.1,315.7c0,0.7-0.2,1.3-0.5,1.7s-0.8,0.6-1.3,0.6s-1-0.2-1.3-0.6s-0.5-0.9-0.5-1.7v-1.3
		c0-0.7,0.2-1.3,0.5-1.7s0.8-0.6,1.3-0.6c0.6,0,1,0.2,1.3,0.6s0.5,0.9,0.5,1.7V315.7z M22.3,314.2c0-0.5-0.1-0.9-0.3-1.1
		c-0.2-0.2-0.4-0.4-0.8-0.4s-0.6,0.1-0.8,0.4c-0.2,0.2-0.3,0.6-0.3,1.1v1.7c0,0.5,0.1,0.9,0.3,1.1s0.4,0.4,0.8,0.4s0.6-0.1,0.8-0.4
		c0.2-0.2,0.3-0.6,0.3-1.1V314.2z"/>
</g>
<line fill="none" stroke="#86888A" stroke-miterlimit="10" x1="19" y1="247" x2="496.5" y2="247"/>
<rect x="19" y="239.8" fill="none" width="79.5" height="14.5"/>
<g enable-background="new    ">
	<path fill="#86888A" d="M21.7,245.8h-0.8v-4.9l-1.2,0v-0.6l1.9-0.2V245.8z"/>
	<path fill="#86888A" d="M27.6,243.7c0,0.7-0.2,1.3-0.5,1.7s-0.8,0.6-1.3,0.6s-1-0.2-1.3-0.6s-0.5-0.9-0.5-1.7v-1.3
		c0-0.7,0.2-1.3,0.5-1.7s0.8-0.6,1.3-0.6c0.6,0,1,0.2,1.3,0.6s0.5,0.9,0.5,1.7V243.7z M26.8,242.2c0-0.5-0.1-0.9-0.3-1.1
		c-0.2-0.2-0.4-0.4-0.8-0.4s-0.6,0.1-0.8,0.4c-0.2,0.2-0.3,0.6-0.3,1.1v1.7c0,0.5,0.1,0.9,0.3,1.1s0.4,0.4,0.8,0.4s0.6-0.1,0.8-0.4
		c0.2-0.2,0.3-0.6,0.3-1.1V242.2z"/>
	<path fill="#86888A" d="M32.1,243.7c0,0.7-0.2,1.3-0.5,1.7s-0.8,0.6-1.3,0.6s-1-0.2-1.3-0.6s-0.5-0.9-0.5-1.7v-1.3
		c0-0.7,0.2-1.3,0.5-1.7s0.8-0.6,1.3-0.6c0.6,0,1,0.2,1.3,0.6s0.5,0.9,0.5,1.7V243.7z M31.3,242.2c0-0.5-0.1-0.9-0.3-1.1
		c-0.2-0.2-0.4-0.4-0.8-0.4s-0.6,0.1-0.8,0.4c-0.2,0.2-0.3,0.6-0.3,1.1v1.7c0,0.5,0.1,0.9,0.3,1.1s0.4,0.4,0.8,0.4s0.6-0.1,0.8-0.4
		c0.2-0.2,0.3-0.6,0.3-1.1V242.2z"/>
	<path fill="#86888A" d="M36.6,243.7c0,0.7-0.2,1.3-0.5,1.7s-0.8,0.6-1.3,0.6s-1-0.2-1.3-0.6s-0.5-0.9-0.5-1.7v-1.3
		c0-0.7,0.2-1.3,0.5-1.7s0.8-0.6,1.3-0.6c0.6,0,1,0.2,1.3,0.6s0.5,0.9,0.5,1.7V243.7z M35.8,242.2c0-0.5-0.1-0.9-0.3-1.1
		c-0.2-0.2-0.4-0.4-0.8-0.4s-0.6,0.1-0.8,0.4c-0.2,0.2-0.3,0.6-0.3,1.1v1.7c0,0.5,0.1,0.9,0.3,1.1s0.4,0.4,0.8,0.4s0.6-0.1,0.8-0.4
		c0.2-0.2,0.3-0.6,0.3-1.1V242.2z"/>
</g>
<line fill="none" stroke="#86888A" stroke-miterlimit="10" x1="19" y1="174.5" x2="496.5" y2="174.5"/>
<rect x="19" y="167.2" fill="none" width="79.5" height="14.5"/>
<g enable-background="new    ">
	<path fill="#86888A" d="M23.1,173.3h-3.7v-0.5l1.9-2.1c0.3-0.4,0.6-0.7,0.7-0.9s0.2-0.4,0.2-0.7c0-0.3-0.1-0.5-0.2-0.7
		s-0.4-0.3-0.7-0.3c-0.4,0-0.7,0.1-0.9,0.3s-0.3,0.5-0.3,0.8h-0.7l0,0c0-0.5,0.1-0.9,0.5-1.2s0.8-0.5,1.4-0.5c0.5,0,0.9,0.1,1.2,0.4
		s0.5,0.7,0.5,1.1c0,0.3-0.1,0.6-0.3,0.9s-0.4,0.6-0.8,1l-1.5,1.6l0,0h2.7V173.3z"/>
	<path fill="#86888A" d="M27.6,171.2c0,0.7-0.2,1.3-0.5,1.7s-0.8,0.6-1.3,0.6s-1-0.2-1.3-0.6s-0.5-0.9-0.5-1.7v-1.3
		c0-0.7,0.2-1.3,0.5-1.7s0.8-0.6,1.3-0.6c0.6,0,1,0.2,1.3,0.6s0.5,0.9,0.5,1.7V171.2z M26.8,169.7c0-0.5-0.1-0.9-0.3-1.1
		c-0.2-0.2-0.4-0.4-0.8-0.4s-0.6,0.1-0.8,0.4c-0.2,0.2-0.3,0.6-0.3,1.1v1.7c0,0.5,0.1,0.9,0.3,1.1s0.4,0.4,0.8,0.4s0.6-0.1,0.8-0.4
		c0.2-0.2,0.3-0.6,0.3-1.1V169.7z"/>
	<path fill="#86888A" d="M32.1,171.2c0,0.7-0.2,1.3-0.5,1.7s-0.8,0.6-1.3,0.6s-1-0.2-1.3-0.6s-0.5-0.9-0.5-1.7v-1.3
		c0-0.7,0.2-1.3,0.5-1.7s0.8-0.6,1.3-0.6c0.6,0,1,0.2,1.3,0.6s0.5,0.9,0.5,1.7V171.2z M31.3,169.7c0-0.5-0.1-0.9-0.3-1.1
		c-0.2-0.2-0.4-0.4-0.8-0.4s-0.6,0.1-0.8,0.4c-0.2,0.2-0.3,0.6-0.3,1.1v1.7c0,0.5,0.1,0.9,0.3,1.1s0.4,0.4,0.8,0.4s0.6-0.1,0.8-0.4
		c0.2-0.2,0.3-0.6,0.3-1.1V169.7z"/>
	<path fill="#86888A" d="M36.6,171.2c0,0.7-0.2,1.3-0.5,1.7s-0.8,0.6-1.3,0.6s-1-0.2-1.3-0.6s-0.5-0.9-0.5-1.7v-1.3
		c0-0.7,0.2-1.3,0.5-1.7s0.8-0.6,1.3-0.6c0.6,0,1,0.2,1.3,0.6s0.5,0.9,0.5,1.7V171.2z M35.8,169.7c0-0.5-0.1-0.9-0.3-1.1
		c-0.2-0.2-0.4-0.4-0.8-0.4s-0.6,0.1-0.8,0.4c-0.2,0.2-0.3,0.6-0.3,1.1v1.7c0,0.5,0.1,0.9,0.3,1.1s0.4,0.4,0.8,0.4s0.6-0.1,0.8-0.4
		c0.2-0.2,0.3-0.6,0.3-1.1V169.7z"/>
</g>
<line fill="none" stroke="#86888A" stroke-miterlimit="10" x1="19" y1="103.5" x2="496.5" y2="103.5"/>
<rect x="19" y="96.2" fill="none" width="79.5" height="14.5"/>
<g enable-background="new    ">
	<path fill="#86888A" d="M20.5,99.1h0.7c0.3,0,0.6-0.1,0.7-0.3s0.2-0.4,0.2-0.7c0-0.3-0.1-0.6-0.2-0.7s-0.4-0.3-0.7-0.3
		c-0.3,0-0.5,0.1-0.7,0.3s-0.3,0.4-0.3,0.7h-0.7l0,0c0-0.4,0.1-0.8,0.5-1.1s0.7-0.5,1.3-0.5c0.5,0,0.9,0.1,1.3,0.4s0.5,0.7,0.5,1.2
		c0,0.2-0.1,0.5-0.2,0.7s-0.4,0.4-0.6,0.5c0.3,0.1,0.6,0.3,0.7,0.5s0.2,0.5,0.2,0.8c0,0.5-0.2,0.9-0.5,1.2s-0.8,0.4-1.3,0.4
		c-0.5,0-0.9-0.1-1.3-0.4s-0.5-0.7-0.5-1.1l0,0h0.7c0,0.3,0.1,0.5,0.3,0.7s0.4,0.3,0.8,0.3c0.3,0,0.6-0.1,0.8-0.3s0.3-0.4,0.3-0.8
		c0-0.4-0.1-0.6-0.2-0.8s-0.4-0.2-0.8-0.2h-0.7V99.1z"/>
	<path fill="#86888A" d="M27.6,100.2c0,0.7-0.2,1.3-0.5,1.7s-0.8,0.6-1.3,0.6s-1-0.2-1.3-0.6s-0.5-0.9-0.5-1.7v-1.3
		c0-0.7,0.2-1.3,0.5-1.7s0.8-0.6,1.3-0.6c0.6,0,1,0.2,1.3,0.6s0.5,0.9,0.5,1.7V100.2z M26.8,98.6c0-0.5-0.1-0.9-0.3-1.1
		c-0.2-0.2-0.4-0.4-0.8-0.4s-0.6,0.1-0.8,0.4c-0.2,0.2-0.3,0.6-0.3,1.1v1.7c0,0.5,0.1,0.9,0.3,1.1s0.4,0.4,0.8,0.4s0.6-0.1,0.8-0.4
		c0.2-0.2,0.3-0.6,0.3-1.1V98.6z"/>
	<path fill="#86888A" d="M32.1,100.2c0,0.7-0.2,1.3-0.5,1.7s-0.8,0.6-1.3,0.6s-1-0.2-1.3-0.6s-0.5-0.9-0.5-1.7v-1.3
		c0-0.7,0.2-1.3,0.5-1.7s0.8-0.6,1.3-0.6c0.6,0,1,0.2,1.3,0.6s0.5,0.9,0.5,1.7V100.2z M31.3,98.6c0-0.5-0.1-0.9-0.3-1.1
		c-0.2-0.2-0.4-0.4-0.8-0.4s-0.6,0.1-0.8,0.4c-0.2,0.2-0.3,0.6-0.3,1.1v1.7c0,0.5,0.1,0.9,0.3,1.1s0.4,0.4,0.8,0.4s0.6-0.1,0.8-0.4
		c0.2-0.2,0.3-0.6,0.3-1.1V98.6z"/>
	<path fill="#86888A" d="M36.6,100.2c0,0.7-0.2,1.3-0.5,1.7s-0.8,0.6-1.3,0.6s-1-0.2-1.3-0.6s-0.5-0.9-0.5-1.7v-1.3
		c0-0.7,0.2-1.3,0.5-1.7s0.8-0.6,1.3-0.6c0.6,0,1,0.2,1.3,0.6s0.5,0.9,0.5,1.7V100.2z M35.8,98.6c0-0.5-0.1-0.9-0.3-1.1
		c-0.2-0.2-0.4-0.4-0.8-0.4s-0.6,0.1-0.8,0.4c-0.2,0.2-0.3,0.6-0.3,1.1v1.7c0,0.5,0.1,0.9,0.3,1.1s0.4,0.4,0.8,0.4s0.6-0.1,0.8-0.4
		c0.2-0.2,0.3-0.6,0.3-1.1V98.6z"/>
</g>
<line fill="none" stroke="#86888A" stroke-miterlimit="10" x1="19" y1="31" x2="496.5" y2="31"/>
<rect x="27.6" y="276.7" fill="#7783C0" width="45" height="41.8"/>
<rect x="82" y="310.2" fill="#EE3E7C" width="45" height="8.3"/>
<rect x="199" y="307.5" fill="#EE3E7C" width="45" height="11"/>
<rect x="144.2" y="256.1" fill="#7783C0" width="45" height="62.4"/>
<rect x="262" y="103.5" fill="#7783C0" width="45" height="215"/>
<rect x="316" y="271.5" fill="#EE3E7C" width="45" height="47"/>
<rect x="379.5" y="66.2" fill="#7783C0" width="45" height="252.8"/>
<rect x="432" y="285.9" fill="#EE3E7C" width="45" height="32.6"/>
<rect x="19" y="23.8" fill="none" width="79.5" height="14.5"/>
<g enable-background="new    ">
	<path fill="#86888A" d="M22.5,27.9h0.8v0.6h-0.8v1.3h-0.8v-1.3h-2.6v-0.4l2.5-3.9h0.8V27.9z M20,27.9h1.7v-2.7l0,0l-0.1,0.2
		L20,27.9z"/>
	<path fill="#86888A" d="M27.6,27.7c0,0.7-0.2,1.3-0.5,1.7s-0.8,0.6-1.3,0.6s-1-0.2-1.3-0.6s-0.5-0.9-0.5-1.7v-1.3
		c0-0.7,0.2-1.3,0.5-1.7s0.8-0.6,1.3-0.6c0.6,0,1,0.2,1.3,0.6s0.5,0.9,0.5,1.7V27.7z M26.8,26.2c0-0.5-0.1-0.9-0.3-1.1
		c-0.2-0.2-0.4-0.4-0.8-0.4s-0.6,0.1-0.8,0.4c-0.2,0.2-0.3,0.6-0.3,1.1v1.7c0,0.5,0.1,0.9,0.3,1.1s0.4,0.4,0.8,0.4s0.6-0.1,0.8-0.4
		c0.2-0.2,0.3-0.6,0.3-1.1V26.2z"/>
	<path fill="#86888A" d="M32.1,27.7c0,0.7-0.2,1.3-0.5,1.7s-0.8,0.6-1.3,0.6s-1-0.2-1.3-0.6s-0.5-0.9-0.5-1.7v-1.3
		c0-0.7,0.2-1.3,0.5-1.7s0.8-0.6,1.3-0.6c0.6,0,1,0.2,1.3,0.6s0.5,0.9,0.5,1.7V27.7z M31.3,26.2c0-0.5-0.1-0.9-0.3-1.1
		c-0.2-0.2-0.4-0.4-0.8-0.4s-0.6,0.1-0.8,0.4c-0.2,0.2-0.3,0.6-0.3,1.1v1.7c0,0.5,0.1,0.9,0.3,1.1s0.4,0.4,0.8,0.4s0.6-0.1,0.8-0.4
		c0.2-0.2,0.3-0.6,0.3-1.1V26.2z"/>
	<path fill="#86888A" d="M36.6,27.7c0,0.7-0.2,1.3-0.5,1.7s-0.8,0.6-1.3,0.6s-1-0.2-1.3-0.6S33,28.4,33,27.7v-1.3
		c0-0.7,0.2-1.3,0.5-1.7s0.8-0.6,1.3-0.6c0.6,0,1,0.2,1.3,0.6s0.5,0.9,0.5,1.7V27.7z M35.8,26.2c0-0.5-0.1-0.9-0.3-1.1
		c-0.2-0.2-0.4-0.4-0.8-0.4s-0.6,0.1-0.8,0.4c-0.2,0.2-0.3,0.6-0.3,1.1v1.7c0,0.5,0.1,0.9,0.3,1.1s0.4,0.4,0.8,0.4s0.6-0.1,0.8-0.4
		c0.2-0.2,0.3-0.6,0.3-1.1V26.2z"/>
	<path fill="#86888A" d="M38.3,25.6l0.1,0.6c0.1-0.2,0.3-0.4,0.5-0.5s0.5-0.2,0.7-0.2s0.5,0.1,0.7,0.2s0.4,0.3,0.5,0.6
		c0.1-0.2,0.3-0.4,0.5-0.6s0.5-0.2,0.8-0.2c0.4,0,0.8,0.1,1,0.4s0.4,0.7,0.4,1.3v2.5h-0.8v-2.5c0-0.4-0.1-0.7-0.2-0.9
		s-0.4-0.3-0.6-0.3c-0.3,0-0.5,0.1-0.6,0.3s-0.3,0.4-0.3,0.7v0v2.7h-0.8v-2.5c0-0.4-0.1-0.7-0.2-0.9s-0.4-0.3-0.6-0.3
		c-0.2,0-0.4,0-0.6,0.1s-0.3,0.2-0.3,0.4v3.1h-0.8v-4.2H38.3z"/>
	<path fill="#86888A" d="M47,28.7c0-0.2-0.1-0.3-0.2-0.4s-0.4-0.2-0.7-0.3c-0.5-0.1-0.9-0.3-1.2-0.5c-0.3-0.2-0.4-0.5-0.4-0.8
		c0-0.3,0.1-0.6,0.4-0.9c0.3-0.2,0.7-0.4,1.1-0.4c0.5,0,0.9,0.1,1.2,0.4s0.4,0.6,0.4,0.9l0,0H47c0-0.2-0.1-0.4-0.2-0.5
		s-0.4-0.2-0.6-0.2c-0.3,0-0.5,0.1-0.6,0.2s-0.2,0.3-0.2,0.4c0,0.2,0.1,0.3,0.2,0.4s0.4,0.2,0.7,0.3c0.5,0.1,0.9,0.3,1.2,0.5
		s0.4,0.5,0.4,0.8c0,0.4-0.2,0.7-0.5,0.9s-0.7,0.3-1.2,0.3c-0.5,0-1-0.1-1.3-0.4s-0.5-0.6-0.4-1l0,0h0.7c0,0.3,0.1,0.5,0.3,0.6
		s0.4,0.2,0.7,0.2c0.3,0,0.5-0.1,0.6-0.2S47,28.9,47,28.7z"/>
</g>
<rect x="33.4" y="326.2" fill="none" width="89.5" height="38.5"/>
<g enable-background="new    ">
	<path d="M41.7,333.9v-7.1h2.2c0.9,0,1.7,0.3,2.2,0.9c0.6,0.6,0.8,1.3,0.8,2.2v1c0,0.9-0.3,1.6-0.8,2.2c-0.6,0.6-1.3,0.9-2.2,0.9
		H41.7z M42.6,327.5v5.6h1.2c0.7,0,1.2-0.2,1.6-0.6s0.6-1,0.6-1.7v-1c0-0.7-0.2-1.2-0.6-1.7s-0.9-0.6-1.6-0.6H42.6z"/>
	<path d="M50.3,334c-0.7,0-1.3-0.2-1.8-0.7c-0.4-0.5-0.7-1.1-0.7-1.9v-0.2c0-0.8,0.2-1.4,0.7-1.9c0.4-0.5,1-0.8,1.6-0.8
		c0.7,0,1.3,0.2,1.6,0.6s0.5,1,0.5,1.7v0.6h-3.4l0,0c0,0.5,0.1,0.9,0.4,1.2s0.6,0.5,1,0.5c0.3,0,0.6,0,0.9-0.1
		c0.2-0.1,0.5-0.2,0.6-0.4l0.4,0.6c-0.2,0.2-0.4,0.3-0.7,0.5C51.1,333.9,50.7,334,50.3,334z M50.1,329.2c-0.3,0-0.6,0.1-0.8,0.4
		c-0.2,0.3-0.4,0.6-0.4,1l0,0h2.4v-0.1c0-0.4-0.1-0.7-0.3-0.9S50.5,329.2,50.1,329.2z"/>
	<path d="M56.4,332.5c0-0.2-0.1-0.4-0.2-0.5s-0.5-0.3-0.9-0.4c-0.6-0.1-1.1-0.3-1.4-0.6c-0.3-0.2-0.5-0.6-0.5-1
		c0-0.4,0.2-0.8,0.5-1.1c0.4-0.3,0.8-0.5,1.4-0.5c0.6,0,1.1,0.2,1.5,0.5s0.5,0.7,0.5,1.2l0,0h-0.9c0-0.2-0.1-0.4-0.3-0.6
		c-0.2-0.2-0.5-0.3-0.8-0.3c-0.3,0-0.6,0.1-0.8,0.2s-0.2,0.3-0.2,0.5c0,0.2,0.1,0.4,0.2,0.5s0.4,0.2,0.9,0.3
		c0.7,0.1,1.2,0.3,1.5,0.6c0.3,0.2,0.5,0.6,0.5,1c0,0.5-0.2,0.8-0.6,1.1s-0.9,0.4-1.5,0.4c-0.7,0-1.2-0.2-1.6-0.5s-0.6-0.7-0.6-1.2
		l0,0h0.9c0,0.3,0.1,0.6,0.4,0.7s0.5,0.2,0.8,0.2c0.3,0,0.6-0.1,0.8-0.2C56.3,332.9,56.4,332.7,56.4,332.5z"/>
	<path d="M60.2,331.4h-0.6v2.4h-1v-7.6h1v4.4h0.6l1.4-2.1h1.2L61,331l2.1,2.9h-1.1L60.2,331.4z"/>
	<path d="M65,327.3v1.3h1v0.7h-1v3.2c0,0.2,0.1,0.4,0.2,0.5s0.2,0.2,0.4,0.2c0.1,0,0.1,0,0.2,0s0.1,0,0.2,0l0.1,0.7
		c-0.1,0.1-0.2,0.1-0.3,0.1c-0.1,0-0.3,0.1-0.4,0.1c-0.4,0-0.7-0.1-0.9-0.4c-0.2-0.2-0.3-0.6-0.3-1.1v-3.2h-0.8v-0.7H64v-1.3H65z"/>
	<path d="M66.9,331.2c0-0.8,0.2-1.4,0.6-1.9c0.4-0.5,1-0.8,1.7-0.8c0.7,0,1.3,0.3,1.7,0.8s0.6,1.1,0.6,1.9v0.1
		c0,0.8-0.2,1.4-0.6,1.9s-1,0.8-1.7,0.8s-1.3-0.3-1.7-0.8c-0.4-0.5-0.6-1.1-0.6-1.9V331.2z M67.9,331.3c0,0.6,0.1,1,0.4,1.4
		s0.6,0.5,1.1,0.5c0.5,0,0.8-0.2,1-0.5s0.4-0.8,0.4-1.4v-0.1c0-0.6-0.1-1-0.4-1.4c-0.2-0.4-0.6-0.6-1.1-0.6c-0.5,0-0.8,0.2-1,0.6
		c-0.2,0.4-0.4,0.8-0.4,1.4V331.3z"/>
	<path d="M77.3,331.4c0,0.8-0.2,1.4-0.5,1.8c-0.4,0.5-0.9,0.7-1.5,0.7c-0.3,0-0.6-0.1-0.9-0.2c-0.2-0.1-0.5-0.3-0.6-0.5v2.6h-1v-7.3
		h0.7l0.2,0.7c0.2-0.3,0.4-0.4,0.6-0.6s0.6-0.2,0.9-0.2c0.7,0,1.2,0.3,1.5,0.8c0.4,0.5,0.5,1.2,0.5,2.1V331.4z M76.4,331.3
		c0-0.6-0.1-1.1-0.4-1.5c-0.2-0.4-0.6-0.6-1-0.6c-0.3,0-0.5,0.1-0.7,0.2s-0.4,0.3-0.5,0.5v2.6c0.1,0.2,0.3,0.4,0.5,0.5
		s0.4,0.2,0.7,0.2c0.5,0,0.8-0.2,1-0.5s0.4-0.8,0.4-1.3V331.3z"/>
	<path d="M86.2,331.6L86.2,331.6c0,0.7-0.2,1.3-0.7,1.7c-0.5,0.5-1.1,0.7-1.9,0.7c-0.8,0-1.5-0.3-2-0.9s-0.8-1.3-0.8-2.2v-1.3
		c0-0.9,0.3-1.6,0.8-2.2c0.5-0.6,1.2-0.9,2-0.9s1.4,0.2,1.9,0.6c0.5,0.4,0.7,1,0.7,1.7l0,0h-0.9c0-0.5-0.1-0.9-0.4-1.2
		s-0.7-0.4-1.2-0.4c-0.5,0-1,0.2-1.3,0.6s-0.5,1-0.5,1.6v1.3c0,0.6,0.2,1.2,0.5,1.6s0.7,0.6,1.3,0.6c0.5,0,0.9-0.1,1.2-0.4
		c0.3-0.3,0.4-0.7,0.4-1.2H86.2z"/>
	<path d="M88.3,329.3c0.2-0.3,0.4-0.5,0.7-0.6c0.3-0.1,0.6-0.2,0.9-0.2c0.6,0,1,0.2,1.3,0.5s0.5,0.9,0.5,1.6v3.3h-1v-3.3
		c0-0.4-0.1-0.8-0.3-1s-0.5-0.3-0.8-0.3c-0.3,0-0.5,0.1-0.7,0.2c-0.2,0.1-0.4,0.3-0.5,0.5v3.9h-1v-7.6h1V329.3z"/>
	<path d="M95.5,329.4l-0.5,0c-0.3,0-0.5,0.1-0.6,0.2s-0.3,0.3-0.4,0.5v3.8h-1v-5.3h0.9l0.1,0.8c0.1-0.3,0.3-0.5,0.6-0.6
		s0.5-0.2,0.8-0.2c0.1,0,0.1,0,0.2,0c0.1,0,0.1,0,0.2,0L95.5,329.4z"/>
	<path d="M96.1,331.2c0-0.8,0.2-1.4,0.6-1.9c0.4-0.5,1-0.8,1.7-0.8c0.7,0,1.3,0.3,1.7,0.8s0.6,1.1,0.6,1.9v0.1
		c0,0.8-0.2,1.4-0.6,1.9s-1,0.8-1.7,0.8s-1.3-0.3-1.7-0.8c-0.4-0.5-0.6-1.1-0.6-1.9V331.2z M97.1,331.3c0,0.6,0.1,1,0.4,1.4
		s0.6,0.5,1.1,0.5c0.5,0,0.8-0.2,1-0.5s0.4-0.8,0.4-1.4v-0.1c0-0.6-0.1-1-0.4-1.4c-0.2-0.4-0.6-0.6-1.1-0.6c-0.5,0-0.8,0.2-1,0.6
		c-0.2,0.4-0.4,0.8-0.4,1.4V331.3z"/>
	<path d="M102.9,328.6l0.1,0.7c0.2-0.3,0.4-0.4,0.7-0.6c0.3-0.1,0.6-0.2,0.9-0.2s0.7,0.1,0.9,0.2s0.4,0.4,0.6,0.7
		c0.2-0.3,0.4-0.5,0.7-0.7s0.6-0.3,1-0.3c0.5,0,1,0.2,1.3,0.6c0.3,0.4,0.5,0.9,0.5,1.7v3.2h-1v-3.2c0-0.5-0.1-0.9-0.3-1.1
		c-0.2-0.2-0.4-0.3-0.8-0.3c-0.3,0-0.6,0.1-0.8,0.3s-0.3,0.5-0.4,0.9v0v3.4h-1v-3.2c0-0.5-0.1-0.9-0.3-1.1c-0.2-0.2-0.4-0.3-0.8-0.3
		c-0.3,0-0.5,0.1-0.7,0.2s-0.3,0.3-0.4,0.5v3.9h-1v-5.3H102.9z"/>
	<path d="M113,334c-0.7,0-1.3-0.2-1.8-0.7c-0.4-0.5-0.7-1.1-0.7-1.9v-0.2c0-0.8,0.2-1.4,0.7-1.9c0.4-0.5,1-0.8,1.6-0.8
		c0.7,0,1.3,0.2,1.6,0.6s0.5,1,0.5,1.7v0.6h-3.4l0,0c0,0.5,0.1,0.9,0.4,1.2s0.6,0.5,1,0.5c0.3,0,0.6,0,0.9-0.1
		c0.2-0.1,0.5-0.2,0.6-0.4l0.4,0.6c-0.2,0.2-0.4,0.3-0.7,0.5C113.8,333.9,113.4,334,113,334z M112.8,329.2c-0.3,0-0.6,0.1-0.8,0.4
		c-0.2,0.3-0.4,0.6-0.4,1l0,0h2.4v-0.1c0-0.4-0.1-0.7-0.3-0.9S113.2,329.2,112.8,329.2z"/>
</g>
<g enable-background="new    ">
	<path d="M50.4,338.8l2.3,5.8h0l2.3-5.8h1.2v7.1h-1v-2.8l0.1-2.9l0,0l-2.3,5.7h-0.6l-2.3-5.7l0,0l0.1,2.9v2.8h-1v-7.1H50.4z"/>
	<path d="M61,345.9c0-0.2-0.1-0.3-0.1-0.4c0-0.1,0-0.2,0-0.4c-0.2,0.3-0.4,0.5-0.7,0.6c-0.3,0.2-0.6,0.3-0.9,0.3
		c-0.6,0-1-0.1-1.3-0.4c-0.3-0.3-0.4-0.7-0.4-1.2c0-0.5,0.2-0.9,0.6-1.2c0.4-0.3,1-0.4,1.7-0.4h1v-0.5c0-0.3-0.1-0.6-0.3-0.7
		c-0.2-0.2-0.5-0.3-0.8-0.3c-0.3,0-0.6,0.1-0.8,0.2c-0.2,0.2-0.3,0.3-0.3,0.6h-0.9l0,0c0-0.4,0.2-0.7,0.5-1.1s0.9-0.5,1.5-0.5
		c0.6,0,1.1,0.2,1.4,0.5c0.4,0.3,0.5,0.7,0.5,1.3v2.5c0,0.2,0,0.4,0,0.5s0.1,0.3,0.1,0.5H61z M59.4,345.2c0.3,0,0.7-0.1,0.9-0.3
		s0.5-0.4,0.5-0.6v-0.9h-1.1c-0.4,0-0.7,0.1-0.9,0.3c-0.2,0.2-0.3,0.4-0.3,0.7c0,0.2,0.1,0.4,0.2,0.6
		C58.9,345.1,59.1,345.2,59.4,345.2z"/>
	<path d="M65.4,345.2c0.3,0,0.6-0.1,0.8-0.3c0.2-0.2,0.4-0.4,0.4-0.7h0.9l0,0c0,0.5-0.2,0.9-0.6,1.2S66,346,65.4,346
		c-0.8,0-1.4-0.3-1.8-0.8s-0.6-1.1-0.6-1.9v-0.2c0-0.8,0.2-1.4,0.6-1.9c0.4-0.5,1-0.8,1.8-0.8c0.6,0,1.1,0.2,1.5,0.5
		s0.6,0.8,0.6,1.3l0,0h-0.9c0-0.3-0.1-0.6-0.3-0.8c-0.2-0.2-0.5-0.3-0.9-0.3c-0.5,0-0.9,0.2-1.1,0.5s-0.3,0.8-0.3,1.3v0.2
		c0,0.5,0.1,1,0.3,1.3S64.9,345.2,65.4,345.2z"/>
	<path d="M73.1,343.4c0,0.8-0.2,1.4-0.5,1.8c-0.4,0.5-0.9,0.7-1.5,0.7c-0.3,0-0.7-0.1-0.9-0.2c-0.3-0.1-0.5-0.3-0.6-0.6l-0.1,0.7
		h-0.8v-7.6h1v3c0.2-0.2,0.4-0.4,0.6-0.5s0.5-0.2,0.9-0.2c0.7,0,1.2,0.3,1.5,0.8s0.5,1.2,0.5,2.1V343.4z M72.1,343.3
		c0-0.6-0.1-1.1-0.3-1.5c-0.2-0.4-0.6-0.6-1-0.6c-0.3,0-0.5,0.1-0.7,0.2c-0.2,0.1-0.4,0.3-0.5,0.6v2.3c0.1,0.3,0.3,0.5,0.5,0.6
		s0.5,0.2,0.8,0.2c0.5,0,0.8-0.2,1-0.5s0.3-0.7,0.3-1.3V343.3z"/>
	<path d="M74,343.2c0-0.8,0.2-1.4,0.6-1.9c0.4-0.5,1-0.8,1.7-0.8c0.7,0,1.3,0.3,1.7,0.8s0.6,1.1,0.6,1.9v0.1c0,0.8-0.2,1.4-0.6,1.9
		s-1,0.8-1.7,0.8s-1.3-0.3-1.7-0.8c-0.4-0.5-0.6-1.1-0.6-1.9V343.2z M75,343.3c0,0.6,0.1,1,0.4,1.4s0.6,0.5,1.1,0.5
		c0.5,0,0.8-0.2,1-0.5s0.4-0.8,0.4-1.4v-0.1c0-0.6-0.1-1-0.4-1.4c-0.2-0.4-0.6-0.6-1.1-0.6c-0.5,0-0.8,0.2-1,0.6
		c-0.2,0.4-0.4,0.8-0.4,1.4V343.3z"/>
	<path d="M79.7,343.2c0-0.8,0.2-1.4,0.6-1.9c0.4-0.5,1-0.8,1.7-0.8c0.7,0,1.3,0.3,1.7,0.8s0.6,1.1,0.6,1.9v0.1
		c0,0.8-0.2,1.4-0.6,1.9s-1,0.8-1.7,0.8s-1.3-0.3-1.7-0.8c-0.4-0.5-0.6-1.1-0.6-1.9V343.2z M80.7,343.3c0,0.6,0.1,1,0.4,1.4
		s0.6,0.5,1.1,0.5c0.5,0,0.8-0.2,1-0.5s0.4-0.8,0.4-1.4v-0.1c0-0.6-0.1-1-0.4-1.4c-0.2-0.4-0.6-0.6-1.1-0.6c-0.5,0-0.8,0.2-1,0.6
		c-0.2,0.4-0.4,0.8-0.4,1.4V343.3z"/>
	<path d="M87.2,343.4h-0.6v2.4h-1v-7.6h1v4.4h0.6l1.4-2.1h1.2L88,343l2.1,2.9h-1.1L87.2,343.4z"/>
	<path d="M94.4,343v2.9h-1v-7.1h2.7c0.8,0,1.3,0.2,1.8,0.6s0.6,0.9,0.6,1.5c0,0.6-0.2,1.2-0.6,1.6c-0.4,0.4-1,0.6-1.8,0.6H94.4z
		 M94.4,342.3h1.8c0.5,0,0.8-0.1,1.1-0.4c0.2-0.3,0.4-0.6,0.4-1c0-0.4-0.1-0.7-0.4-1c-0.2-0.3-0.6-0.4-1.1-0.4h-1.8V342.3z"/>
	<path d="M102.1,341.4l-0.5,0c-0.3,0-0.5,0.1-0.6,0.2s-0.3,0.3-0.4,0.5v3.8h-1v-5.3h0.9l0.1,0.8c0.1-0.3,0.3-0.5,0.6-0.6
		s0.5-0.2,0.8-0.2c0.1,0,0.1,0,0.2,0c0.1,0,0.1,0,0.2,0L102.1,341.4z"/>
	<path d="M102.7,343.2c0-0.8,0.2-1.4,0.6-1.9c0.4-0.5,1-0.8,1.7-0.8c0.7,0,1.3,0.3,1.7,0.8s0.6,1.1,0.6,1.9v0.1
		c0,0.8-0.2,1.4-0.6,1.9s-1,0.8-1.7,0.8s-1.3-0.3-1.7-0.8c-0.4-0.5-0.6-1.1-0.6-1.9V343.2z M103.7,343.3c0,0.6,0.1,1,0.4,1.4
		s0.6,0.5,1.1,0.5c0.5,0,0.8-0.2,1-0.5s0.4-0.8,0.4-1.4v-0.1c0-0.6-0.1-1-0.4-1.4c-0.2-0.4-0.6-0.6-1.1-0.6c-0.5,0-0.8,0.2-1,0.6
		c-0.2,0.4-0.4,0.8-0.4,1.4V343.3z"/>
</g>
<g enable-background="new    ">
	<path d="M57.5,355.5h1v0.8h-1v1.6h-1v-1.6h-3.2v-0.5l3.1-4.9h1V355.5z M54.4,355.5h2.2v-3.3l0,0l-0.1,0.2L54.4,355.5z"/>
	<path d="M60.5,357.9h-1v-1h1V357.9z"/>
	<path d="M64.7,357.9h-1v-6.2l-1.5,0V351l2.4-0.3V357.9z"/>
	<path d="M69.5,354.5l1.1-1.9h1.1l-1.7,2.6l1.8,2.7h-1.1l-1.2-2l-1.2,2h-1.1l1.8-2.7l-1.7-2.6h1.1L69.5,354.5z"/>
	<path d="M79.6,354.7h-3.2v3.1h-1v-7.1h4.7v0.8h-3.7v2.5h3.2V354.7z"/>
	<path d="M84.1,357.9c0-0.2-0.1-0.3-0.1-0.4c0-0.1,0-0.2,0-0.4c-0.2,0.3-0.4,0.5-0.7,0.6c-0.3,0.2-0.6,0.3-0.9,0.3
		c-0.6,0-1-0.1-1.3-0.4c-0.3-0.3-0.4-0.7-0.4-1.2c0-0.5,0.2-0.9,0.6-1.2c0.4-0.3,1-0.4,1.7-0.4h1v-0.5c0-0.3-0.1-0.6-0.3-0.7
		c-0.2-0.2-0.5-0.3-0.8-0.3c-0.3,0-0.6,0.1-0.8,0.2c-0.2,0.2-0.3,0.3-0.3,0.6H81l0,0c0-0.4,0.2-0.7,0.5-1.1s0.9-0.5,1.5-0.5
		c0.6,0,1.1,0.2,1.4,0.5c0.4,0.3,0.5,0.7,0.5,1.3v2.5c0,0.2,0,0.4,0,0.5s0.1,0.3,0.1,0.5H84.1z M82.5,357.2c0.3,0,0.7-0.1,0.9-0.3
		s0.5-0.4,0.5-0.6v-0.9h-1.1c-0.4,0-0.7,0.1-0.9,0.3c-0.2,0.2-0.3,0.4-0.3,0.7c0,0.2,0.1,0.4,0.2,0.6
		C82,357.1,82.2,357.2,82.5,357.2z"/>
	<path d="M89.5,356.5c0-0.2-0.1-0.4-0.2-0.5s-0.5-0.3-0.9-0.4c-0.6-0.1-1.1-0.3-1.4-0.6c-0.3-0.2-0.5-0.6-0.5-1
		c0-0.4,0.2-0.8,0.5-1.1c0.4-0.3,0.8-0.5,1.4-0.5c0.6,0,1.1,0.2,1.5,0.5s0.5,0.7,0.5,1.2l0,0h-0.9c0-0.2-0.1-0.4-0.3-0.6
		c-0.2-0.2-0.5-0.3-0.8-0.3c-0.3,0-0.6,0.1-0.8,0.2s-0.2,0.3-0.2,0.5c0,0.2,0.1,0.4,0.2,0.5s0.4,0.2,0.9,0.3
		c0.7,0.1,1.2,0.3,1.5,0.6c0.3,0.2,0.5,0.6,0.5,1c0,0.5-0.2,0.8-0.6,1.1S89,358,88.4,358c-0.7,0-1.2-0.2-1.6-0.5s-0.6-0.7-0.6-1.2
		l0,0h0.9c0,0.3,0.1,0.6,0.4,0.7s0.5,0.2,0.8,0.2c0.3,0,0.6-0.1,0.8-0.2C89.4,356.9,89.5,356.7,89.5,356.5z"/>
	<path d="M92.9,351.3v1.3h1v0.7h-1v3.2c0,0.2,0.1,0.4,0.2,0.5s0.2,0.2,0.4,0.2c0.1,0,0.1,0,0.2,0s0.1,0,0.2,0l0.1,0.7
		c-0.1,0.1-0.2,0.1-0.3,0.1c-0.1,0-0.3,0.1-0.4,0.1c-0.4,0-0.7-0.1-0.9-0.4c-0.2-0.2-0.3-0.6-0.3-1.1v-3.2h-0.8v-0.7h0.8v-1.3H92.9z
		"/>
	<path d="M97.3,358c-0.7,0-1.3-0.2-1.8-0.7c-0.4-0.5-0.7-1.1-0.7-1.9v-0.2c0-0.8,0.2-1.4,0.7-1.9c0.4-0.5,1-0.8,1.6-0.8
		c0.7,0,1.3,0.2,1.6,0.6s0.5,1,0.5,1.7v0.6h-3.4l0,0c0,0.5,0.1,0.9,0.4,1.2s0.6,0.5,1,0.5c0.3,0,0.6,0,0.9-0.1
		c0.2-0.1,0.5-0.2,0.6-0.4l0.4,0.6c-0.2,0.2-0.4,0.3-0.7,0.5C98.1,357.9,97.7,358,97.3,358z M97.1,353.2c-0.3,0-0.6,0.1-0.8,0.4
		c-0.2,0.3-0.4,0.6-0.4,1l0,0h2.4v-0.1c0-0.4-0.1-0.7-0.3-0.9S97.5,353.2,97.1,353.2z"/>
	<path d="M102.9,353.4l-0.5,0c-0.3,0-0.5,0.1-0.6,0.2s-0.3,0.3-0.4,0.5v3.8h-1v-5.3h0.9l0.1,0.8c0.1-0.3,0.3-0.5,0.6-0.6
		s0.5-0.2,0.8-0.2c0.1,0,0.1,0,0.2,0c0.1,0,0.1,0,0.2,0L102.9,353.4z"/>
</g>
<rect x="149.5" y="326.2" fill="none" width="89.5" height="38.5"/>
<g enable-background="new    ">
	<path d="M162,333.9v-7.1h2.2c0.9,0,1.7,0.3,2.2,0.9c0.6,0.6,0.8,1.3,0.8,2.2v1c0,0.9-0.3,1.6-0.8,2.2c-0.6,0.6-1.3,0.9-2.2,0.9H162
		z M163,327.5v5.6h1.2c0.7,0,1.2-0.2,1.6-0.6s0.6-1,0.6-1.7v-1c0-0.7-0.2-1.2-0.6-1.7s-0.9-0.6-1.6-0.6H163z"/>
	<path d="M170.6,334c-0.7,0-1.3-0.2-1.8-0.7c-0.4-0.5-0.7-1.1-0.7-1.9v-0.2c0-0.8,0.2-1.4,0.7-1.9c0.4-0.5,1-0.8,1.6-0.8
		c0.7,0,1.3,0.2,1.6,0.6s0.5,1,0.5,1.7v0.6h-3.4l0,0c0,0.5,0.1,0.9,0.4,1.2s0.6,0.5,1,0.5c0.3,0,0.6,0,0.9-0.1
		c0.2-0.1,0.5-0.2,0.6-0.4l0.4,0.6c-0.2,0.2-0.4,0.3-0.7,0.5C171.4,333.9,171,334,170.6,334z M170.5,329.2c-0.3,0-0.6,0.1-0.8,0.4
		c-0.2,0.3-0.4,0.6-0.4,1l0,0h2.4v-0.1c0-0.4-0.1-0.7-0.3-0.9S170.8,329.2,170.5,329.2z"/>
	<path d="M176.8,332.5c0-0.2-0.1-0.4-0.2-0.5s-0.5-0.3-0.9-0.4c-0.6-0.1-1.1-0.3-1.4-0.6c-0.3-0.2-0.5-0.6-0.5-1
		c0-0.4,0.2-0.8,0.5-1.1c0.4-0.3,0.8-0.5,1.4-0.5c0.6,0,1.1,0.2,1.5,0.5s0.5,0.7,0.5,1.2l0,0h-0.9c0-0.2-0.1-0.4-0.3-0.6
		c-0.2-0.2-0.5-0.3-0.8-0.3c-0.3,0-0.6,0.1-0.8,0.2s-0.2,0.3-0.2,0.5c0,0.2,0.1,0.4,0.2,0.5s0.4,0.2,0.9,0.3
		c0.7,0.1,1.2,0.3,1.5,0.6c0.3,0.2,0.5,0.6,0.5,1c0,0.5-0.2,0.8-0.6,1.1s-0.9,0.4-1.5,0.4c-0.7,0-1.2-0.2-1.6-0.5s-0.6-0.7-0.6-1.2
		l0,0h0.9c0,0.3,0.1,0.6,0.4,0.7s0.5,0.2,0.8,0.2c0.3,0,0.6-0.1,0.8-0.2C176.7,332.9,176.8,332.7,176.8,332.5z"/>
	<path d="M180.5,331.4h-0.6v2.4h-1v-7.6h1v4.4h0.6l1.4-2.1h1.2l-1.8,2.4l2.1,2.9h-1.1L180.5,331.4z"/>
	<path d="M185.3,327.3v1.3h1v0.7h-1v3.2c0,0.2,0.1,0.4,0.2,0.5s0.2,0.2,0.4,0.2c0.1,0,0.1,0,0.2,0s0.1,0,0.2,0l0.1,0.7
		c-0.1,0.1-0.2,0.1-0.3,0.1c-0.1,0-0.3,0.1-0.4,0.1c-0.4,0-0.7-0.1-0.9-0.4c-0.2-0.2-0.3-0.6-0.3-1.1v-3.2h-0.8v-0.7h0.8v-1.3H185.3
		z"/>
	<path d="M187.3,331.2c0-0.8,0.2-1.4,0.6-1.9c0.4-0.5,1-0.8,1.7-0.8c0.7,0,1.3,0.3,1.7,0.8s0.6,1.1,0.6,1.9v0.1
		c0,0.8-0.2,1.4-0.6,1.9s-1,0.8-1.7,0.8s-1.3-0.3-1.7-0.8c-0.4-0.5-0.6-1.1-0.6-1.9V331.2z M188.2,331.3c0,0.6,0.1,1,0.4,1.4
		s0.6,0.5,1.1,0.5c0.5,0,0.8-0.2,1-0.5s0.4-0.8,0.4-1.4v-0.1c0-0.6-0.1-1-0.4-1.4c-0.2-0.4-0.6-0.6-1.1-0.6c-0.5,0-0.8,0.2-1,0.6
		c-0.2,0.4-0.4,0.8-0.4,1.4V331.3z"/>
	<path d="M197.7,331.4c0,0.8-0.2,1.4-0.5,1.8c-0.4,0.5-0.9,0.7-1.5,0.7c-0.3,0-0.6-0.1-0.9-0.2c-0.2-0.1-0.5-0.3-0.6-0.5v2.6h-1
		v-7.3h0.7l0.2,0.7c0.2-0.3,0.4-0.4,0.6-0.6s0.6-0.2,0.9-0.2c0.7,0,1.2,0.3,1.5,0.8c0.4,0.5,0.5,1.2,0.5,2.1V331.4z M196.7,331.3
		c0-0.6-0.1-1.1-0.4-1.5c-0.2-0.4-0.6-0.6-1-0.6c-0.3,0-0.5,0.1-0.7,0.2s-0.4,0.3-0.5,0.5v2.6c0.1,0.2,0.3,0.4,0.5,0.5
		s0.4,0.2,0.7,0.2c0.5,0,0.8-0.2,1-0.5s0.4-0.8,0.4-1.3V331.3z"/>
	<path d="M205.4,332.1c0-0.3-0.1-0.6-0.4-0.8c-0.2-0.2-0.7-0.4-1.3-0.6c-0.8-0.2-1.3-0.4-1.8-0.8c-0.4-0.3-0.6-0.8-0.6-1.3
		c0-0.6,0.2-1,0.7-1.4s1-0.6,1.8-0.6c0.8,0,1.4,0.2,1.9,0.6s0.7,0.9,0.7,1.5l0,0h-0.9c0-0.4-0.1-0.8-0.4-1s-0.7-0.4-1.2-0.4
		c-0.5,0-0.8,0.1-1.1,0.3c-0.3,0.2-0.4,0.5-0.4,0.8c0,0.3,0.1,0.6,0.4,0.8c0.3,0.2,0.7,0.4,1.3,0.5c0.7,0.2,1.3,0.5,1.7,0.8
		s0.6,0.8,0.6,1.3c0,0.6-0.2,1-0.7,1.4s-1.1,0.5-1.8,0.5c-0.7,0-1.3-0.2-1.9-0.6c-0.5-0.4-0.8-0.9-0.8-1.5l0,0h0.9
		c0,0.5,0.2,0.8,0.5,1s0.8,0.4,1.2,0.4c0.5,0,0.9-0.1,1.2-0.3S205.4,332.4,205.4,332.1z"/>
	<path d="M210.8,333.9c0-0.2-0.1-0.3-0.1-0.4c0-0.1,0-0.2,0-0.4c-0.2,0.3-0.4,0.5-0.7,0.6c-0.3,0.2-0.6,0.3-0.9,0.3
		c-0.6,0-1-0.1-1.3-0.4c-0.3-0.3-0.4-0.7-0.4-1.2c0-0.5,0.2-0.9,0.6-1.2c0.4-0.3,1-0.4,1.7-0.4h1v-0.5c0-0.3-0.1-0.6-0.3-0.7
		c-0.2-0.2-0.5-0.3-0.8-0.3c-0.3,0-0.6,0.1-0.8,0.2c-0.2,0.2-0.3,0.3-0.3,0.6h-0.9l0,0c0-0.4,0.2-0.7,0.5-1.1s0.9-0.5,1.5-0.5
		c0.6,0,1.1,0.2,1.4,0.5c0.4,0.3,0.5,0.7,0.5,1.3v2.5c0,0.2,0,0.4,0,0.5s0.1,0.3,0.1,0.5H210.8z M209.2,333.2c0.3,0,0.7-0.1,0.9-0.3
		s0.5-0.4,0.5-0.6v-0.9h-1.1c-0.4,0-0.7,0.1-0.9,0.3c-0.2,0.2-0.3,0.4-0.3,0.7c0,0.2,0.1,0.4,0.2,0.6
		C208.7,333.1,209,333.2,209.2,333.2z"/>
	<path d="M213.5,333.9v-4.6h-0.8v-0.7h0.8v-0.7c0-0.6,0.1-1,0.4-1.3c0.3-0.3,0.7-0.5,1.2-0.5c0.1,0,0.2,0,0.3,0c0.1,0,0.2,0,0.4,0.1
		l-0.1,0.7c-0.1,0-0.1,0-0.2,0s-0.2,0-0.3,0c-0.3,0-0.5,0.1-0.6,0.3c-0.1,0.2-0.2,0.4-0.2,0.7v0.7h1.1v0.7h-1.1v4.6H213.5z"/>
	<path d="M219.8,333.9c0-0.2-0.1-0.3-0.1-0.4c0-0.1,0-0.2,0-0.4c-0.2,0.3-0.4,0.5-0.7,0.6c-0.3,0.2-0.6,0.3-0.9,0.3
		c-0.6,0-1-0.1-1.3-0.4c-0.3-0.3-0.4-0.7-0.4-1.2c0-0.5,0.2-0.9,0.6-1.2c0.4-0.3,1-0.4,1.7-0.4h1v-0.5c0-0.3-0.1-0.6-0.3-0.7
		c-0.2-0.2-0.5-0.3-0.8-0.3c-0.3,0-0.6,0.1-0.8,0.2c-0.2,0.2-0.3,0.3-0.3,0.6h-0.9l0,0c0-0.4,0.2-0.7,0.5-1.1s0.9-0.5,1.5-0.5
		c0.6,0,1.1,0.2,1.4,0.5c0.4,0.3,0.5,0.7,0.5,1.3v2.5c0,0.2,0,0.4,0,0.5s0.1,0.3,0.1,0.5H219.8z M218.2,333.2c0.3,0,0.7-0.1,0.9-0.3
		s0.5-0.4,0.5-0.6v-0.9h-1.1c-0.4,0-0.7,0.1-0.9,0.3c-0.2,0.2-0.3,0.4-0.3,0.7c0,0.2,0.1,0.4,0.2,0.6
		C217.7,333.1,217.9,333.2,218.2,333.2z"/>
	<path d="M224.5,329.4l-0.5,0c-0.3,0-0.5,0.1-0.6,0.2s-0.3,0.3-0.4,0.5v3.8h-1v-5.3h0.9l0.1,0.8c0.1-0.3,0.3-0.5,0.6-0.6
		s0.5-0.2,0.8-0.2c0.1,0,0.1,0,0.2,0c0.1,0,0.1,0,0.2,0L224.5,329.4z"/>
	<path d="M226.5,327.2h-1v-1h1V327.2z M226.5,333.9h-1v-5.3h1V333.9z"/>
</g>
<g enable-background="new    ">
	<path d="M166.4,338.8l2.3,5.8h0l2.3-5.8h1.2v7.1h-1v-2.8l0.1-2.9l0,0l-2.3,5.7h-0.6l-2.3-5.7l0,0l0.1,2.9v2.8h-1v-7.1H166.4z"/>
	<path d="M177,345.9c0-0.2-0.1-0.3-0.1-0.4c0-0.1,0-0.2,0-0.4c-0.2,0.3-0.4,0.5-0.7,0.6c-0.3,0.2-0.6,0.3-0.9,0.3
		c-0.6,0-1-0.1-1.3-0.4c-0.3-0.3-0.4-0.7-0.4-1.2c0-0.5,0.2-0.9,0.6-1.2c0.4-0.3,1-0.4,1.7-0.4h1v-0.5c0-0.3-0.1-0.6-0.3-0.7
		c-0.2-0.2-0.5-0.3-0.8-0.3c-0.3,0-0.6,0.1-0.8,0.2c-0.2,0.2-0.3,0.3-0.3,0.6h-0.9l0,0c0-0.4,0.2-0.7,0.5-1.1s0.9-0.5,1.5-0.5
		c0.6,0,1.1,0.2,1.4,0.5c0.4,0.3,0.5,0.7,0.5,1.3v2.5c0,0.2,0,0.4,0,0.5s0.1,0.3,0.1,0.5H177z M175.5,345.2c0.3,0,0.7-0.1,0.9-0.3
		s0.5-0.4,0.5-0.6v-0.9h-1.1c-0.4,0-0.7,0.1-0.9,0.3c-0.2,0.2-0.3,0.4-0.3,0.7c0,0.2,0.1,0.4,0.2,0.6
		C175,345.1,175.2,345.2,175.5,345.2z"/>
	<path d="M181.4,345.2c0.3,0,0.6-0.1,0.8-0.3c0.2-0.2,0.4-0.4,0.4-0.7h0.9l0,0c0,0.5-0.2,0.9-0.6,1.2s-0.9,0.5-1.5,0.5
		c-0.8,0-1.4-0.3-1.8-0.8s-0.6-1.1-0.6-1.9v-0.2c0-0.8,0.2-1.4,0.6-1.9c0.4-0.5,1-0.8,1.8-0.8c0.6,0,1.1,0.2,1.5,0.5
		s0.6,0.8,0.6,1.3l0,0h-0.9c0-0.3-0.1-0.6-0.3-0.8c-0.2-0.2-0.5-0.3-0.9-0.3c-0.5,0-0.9,0.2-1.1,0.5s-0.3,0.8-0.3,1.3v0.2
		c0,0.5,0.1,1,0.3,1.3S180.9,345.2,181.4,345.2z"/>
	<path d="M189.1,343.4c0,0.8-0.2,1.4-0.5,1.8c-0.4,0.5-0.9,0.7-1.5,0.7c-0.3,0-0.7-0.1-0.9-0.2c-0.3-0.1-0.5-0.3-0.6-0.6l-0.1,0.7
		h-0.8v-7.6h1v3c0.2-0.2,0.4-0.4,0.6-0.5s0.5-0.2,0.9-0.2c0.7,0,1.2,0.3,1.5,0.8s0.5,1.2,0.5,2.1V343.4z M188.2,343.3
		c0-0.6-0.1-1.1-0.3-1.5c-0.2-0.4-0.6-0.6-1-0.6c-0.3,0-0.5,0.1-0.7,0.2c-0.2,0.1-0.4,0.3-0.5,0.6v2.3c0.1,0.3,0.3,0.5,0.5,0.6
		s0.5,0.2,0.8,0.2c0.5,0,0.8-0.2,1-0.5s0.3-0.7,0.3-1.3V343.3z"/>
	<path d="M190.1,343.2c0-0.8,0.2-1.4,0.6-1.9c0.4-0.5,1-0.8,1.7-0.8c0.7,0,1.3,0.3,1.7,0.8s0.6,1.1,0.6,1.9v0.1
		c0,0.8-0.2,1.4-0.6,1.9s-1,0.8-1.7,0.8s-1.3-0.3-1.7-0.8c-0.4-0.5-0.6-1.1-0.6-1.9V343.2z M191,343.3c0,0.6,0.1,1,0.4,1.4
		s0.6,0.5,1.1,0.5c0.5,0,0.8-0.2,1-0.5s0.4-0.8,0.4-1.4v-0.1c0-0.6-0.1-1-0.4-1.4c-0.2-0.4-0.6-0.6-1.1-0.6c-0.5,0-0.8,0.2-1,0.6
		c-0.2,0.4-0.4,0.8-0.4,1.4V343.3z"/>
	<path d="M195.8,343.2c0-0.8,0.2-1.4,0.6-1.9c0.4-0.5,1-0.8,1.7-0.8c0.7,0,1.3,0.3,1.7,0.8s0.6,1.1,0.6,1.9v0.1
		c0,0.8-0.2,1.4-0.6,1.9s-1,0.8-1.7,0.8s-1.3-0.3-1.7-0.8c-0.4-0.5-0.6-1.1-0.6-1.9V343.2z M196.7,343.3c0,0.6,0.1,1,0.4,1.4
		s0.6,0.5,1.1,0.5c0.5,0,0.8-0.2,1-0.5s0.4-0.8,0.4-1.4v-0.1c0-0.6-0.1-1-0.4-1.4c-0.2-0.4-0.6-0.6-1.1-0.6c-0.5,0-0.8,0.2-1,0.6
		c-0.2,0.4-0.4,0.8-0.4,1.4V343.3z"/>
	<path d="M203.3,343.4h-0.6v2.4h-1v-7.6h1v4.4h0.6l1.4-2.1h1.2L204,343l2.1,2.9H205L203.3,343.4z"/>
	<path d="M210.4,343v2.9h-1v-7.1h2.7c0.8,0,1.3,0.2,1.8,0.6s0.6,0.9,0.6,1.5c0,0.6-0.2,1.2-0.6,1.6c-0.4,0.4-1,0.6-1.8,0.6H210.4z
		 M210.4,342.3h1.8c0.5,0,0.8-0.1,1.1-0.4c0.2-0.3,0.4-0.6,0.4-1c0-0.4-0.1-0.7-0.4-1c-0.2-0.3-0.6-0.4-1.1-0.4h-1.8V342.3z"/>
	<path d="M218.2,341.4l-0.5,0c-0.3,0-0.5,0.1-0.6,0.2s-0.3,0.3-0.4,0.5v3.8h-1v-5.3h0.9l0.1,0.8c0.1-0.3,0.3-0.5,0.6-0.6
		s0.5-0.2,0.8-0.2c0.1,0,0.1,0,0.2,0c0.1,0,0.1,0,0.2,0L218.2,341.4z"/>
	<path d="M218.8,343.2c0-0.8,0.2-1.4,0.6-1.9c0.4-0.5,1-0.8,1.7-0.8c0.7,0,1.3,0.3,1.7,0.8s0.6,1.1,0.6,1.9v0.1
		c0,0.8-0.2,1.4-0.6,1.9s-1,0.8-1.7,0.8s-1.3-0.3-1.7-0.8c-0.4-0.5-0.6-1.1-0.6-1.9V343.2z M219.7,343.3c0,0.6,0.1,1,0.4,1.4
		s0.6,0.5,1.1,0.5c0.5,0,0.8-0.2,1-0.5s0.4-0.8,0.4-1.4v-0.1c0-0.6-0.1-1-0.4-1.4c-0.2-0.4-0.6-0.6-1.1-0.6c-0.5,0-0.8,0.2-1,0.6
		c-0.2,0.4-0.4,0.8-0.4,1.4V343.3z"/>
</g>
<g enable-background="new    ">
	<path d="M170,354.7l0.4-3.9h3.6v0.9h-2.7l-0.2,2c0.1-0.1,0.3-0.2,0.5-0.3c0.2-0.1,0.4-0.1,0.6-0.1c0.7,0,1.2,0.2,1.5,0.6
		s0.6,1,0.6,1.7c0,0.7-0.2,1.3-0.6,1.7s-0.9,0.6-1.7,0.6c-0.6,0-1.1-0.2-1.5-0.5s-0.6-0.8-0.6-1.5l0,0h0.9c0,0.4,0.1,0.7,0.3,0.9
		c0.2,0.2,0.5,0.3,0.9,0.3c0.4,0,0.7-0.1,0.9-0.4s0.3-0.7,0.3-1.2c0-0.5-0.1-0.8-0.3-1.1c-0.2-0.3-0.5-0.4-0.9-0.4
		c-0.4,0-0.7,0.1-0.8,0.2s-0.3,0.3-0.4,0.5L170,354.7z"/>
	<path d="M176.5,357.9h-1v-1h1V357.9z"/>
	<path d="M179.3,353.9h0.8c0.4,0,0.7-0.1,0.9-0.3c0.2-0.2,0.3-0.5,0.3-0.9c0-0.4-0.1-0.7-0.3-0.9s-0.5-0.3-0.9-0.3
		c-0.4,0-0.7,0.1-0.9,0.3c-0.2,0.2-0.3,0.5-0.3,0.9H178l0,0c0-0.5,0.2-1,0.6-1.4c0.4-0.4,0.9-0.6,1.6-0.6c0.7,0,1.2,0.2,1.6,0.5
		c0.4,0.4,0.6,0.8,0.6,1.5c0,0.3-0.1,0.6-0.3,0.9c-0.2,0.3-0.4,0.5-0.8,0.7c0.4,0.1,0.7,0.4,0.9,0.7s0.3,0.6,0.3,1
		c0,0.6-0.2,1.2-0.6,1.5s-1,0.6-1.6,0.6c-0.6,0-1.2-0.2-1.6-0.5c-0.4-0.4-0.6-0.8-0.6-1.4l0,0h0.9c0,0.4,0.1,0.7,0.3,0.9
		c0.2,0.2,0.5,0.3,0.9,0.3c0.4,0,0.7-0.1,1-0.3c0.2-0.2,0.3-0.5,0.3-1c0-0.4-0.1-0.8-0.3-1c-0.2-0.2-0.5-0.3-1-0.3h-0.8V353.9z"/>
	<path d="M185.5,354.5l1.1-1.9h1.1l-1.7,2.6l1.8,2.7h-1.1l-1.2-2l-1.2,2h-1.1l1.8-2.7l-1.7-2.6h1.1L185.5,354.5z"/>
	<path d="M195.7,354.7h-3.2v3.1h-1v-7.1h4.7v0.8h-3.7v2.5h3.2V354.7z"/>
	<path d="M200.2,357.9c0-0.2-0.1-0.3-0.1-0.4c0-0.1,0-0.2,0-0.4c-0.2,0.3-0.4,0.5-0.7,0.6c-0.3,0.2-0.6,0.3-0.9,0.3
		c-0.6,0-1-0.1-1.3-0.4c-0.3-0.3-0.4-0.7-0.4-1.2c0-0.5,0.2-0.9,0.6-1.2c0.4-0.3,1-0.4,1.7-0.4h1v-0.5c0-0.3-0.1-0.6-0.3-0.7
		c-0.2-0.2-0.5-0.3-0.8-0.3c-0.3,0-0.6,0.1-0.8,0.2c-0.2,0.2-0.3,0.3-0.3,0.6H197l0,0c0-0.4,0.2-0.7,0.5-1.1s0.9-0.5,1.5-0.5
		c0.6,0,1.1,0.2,1.4,0.5c0.4,0.3,0.5,0.7,0.5,1.3v2.5c0,0.2,0,0.4,0,0.5s0.1,0.3,0.1,0.5H200.2z M198.6,357.2c0.3,0,0.7-0.1,0.9-0.3
		s0.5-0.4,0.5-0.6v-0.9H199c-0.4,0-0.7,0.1-0.9,0.3c-0.2,0.2-0.3,0.4-0.3,0.7c0,0.2,0.1,0.4,0.2,0.6
		C198.1,357.1,198.3,357.2,198.6,357.2z"/>
	<path d="M205.5,356.5c0-0.2-0.1-0.4-0.2-0.5s-0.5-0.3-0.9-0.4c-0.6-0.1-1.1-0.3-1.4-0.6c-0.3-0.2-0.5-0.6-0.5-1
		c0-0.4,0.2-0.8,0.5-1.1c0.4-0.3,0.8-0.5,1.4-0.5c0.6,0,1.1,0.2,1.5,0.5s0.5,0.7,0.5,1.2l0,0h-0.9c0-0.2-0.1-0.4-0.3-0.6
		c-0.2-0.2-0.5-0.3-0.8-0.3c-0.3,0-0.6,0.1-0.8,0.2s-0.2,0.3-0.2,0.5c0,0.2,0.1,0.4,0.2,0.5s0.4,0.2,0.9,0.3
		c0.7,0.1,1.2,0.3,1.5,0.6c0.3,0.2,0.5,0.6,0.5,1c0,0.5-0.2,0.8-0.6,1.1s-0.9,0.4-1.5,0.4c-0.7,0-1.2-0.2-1.6-0.5s-0.6-0.7-0.6-1.2
		l0,0h0.9c0,0.3,0.1,0.6,0.4,0.7s0.5,0.2,0.8,0.2c0.3,0,0.6-0.1,0.8-0.2C205.4,356.9,205.5,356.7,205.5,356.5z"/>
	<path d="M208.9,351.3v1.3h1v0.7h-1v3.2c0,0.2,0.1,0.4,0.2,0.5s0.2,0.2,0.4,0.2c0.1,0,0.1,0,0.2,0s0.1,0,0.2,0l0.1,0.7
		c-0.1,0.1-0.2,0.1-0.3,0.1c-0.1,0-0.3,0.1-0.4,0.1c-0.4,0-0.7-0.1-0.9-0.4c-0.2-0.2-0.3-0.6-0.3-1.1v-3.2h-0.8v-0.7h0.8v-1.3H208.9
		z"/>
	<path d="M213.3,358c-0.7,0-1.3-0.2-1.8-0.7c-0.4-0.5-0.7-1.1-0.7-1.9v-0.2c0-0.8,0.2-1.4,0.7-1.9c0.4-0.5,1-0.8,1.6-0.8
		c0.7,0,1.3,0.2,1.6,0.6s0.5,1,0.5,1.7v0.6h-3.4l0,0c0,0.5,0.1,0.9,0.4,1.2s0.6,0.5,1,0.5c0.3,0,0.6,0,0.9-0.1
		c0.2-0.1,0.5-0.2,0.6-0.4l0.4,0.6c-0.2,0.2-0.4,0.3-0.7,0.5C214.1,357.9,213.7,358,213.3,358z M213.2,353.2c-0.3,0-0.6,0.1-0.8,0.4
		c-0.2,0.3-0.4,0.6-0.4,1l0,0h2.4v-0.1c0-0.4-0.1-0.7-0.3-0.9S213.6,353.2,213.2,353.2z"/>
	<path d="M218.9,353.4l-0.5,0c-0.3,0-0.5,0.1-0.6,0.2s-0.3,0.3-0.4,0.5v3.8h-1v-5.3h0.9l0.1,0.8c0.1-0.3,0.3-0.5,0.6-0.6
		s0.5-0.2,0.8-0.2c0.1,0,0.1,0,0.2,0c0.1,0,0.1,0,0.2,0L218.9,353.4z"/>
</g>
<rect x="267.4" y="326.2" fill="none" width="89.5" height="38.5"/>
<g enable-background="new    ">
	<path d="M284.4,326.8l2.3,5.8h0l2.3-5.8h1.2v7.1h-1v-2.8l0.1-2.9l0,0l-2.3,5.7h-0.6l-2.3-5.7l0,0l0.1,2.9v2.8h-1v-7.1H284.4z"/>
	<path d="M291.6,331.2c0-0.8,0.2-1.4,0.6-1.9c0.4-0.5,1-0.8,1.7-0.8c0.7,0,1.3,0.3,1.7,0.8s0.6,1.1,0.6,1.9v0.1
		c0,0.8-0.2,1.4-0.6,1.9c-0.4,0.5-1,0.8-1.7,0.8c-0.7,0-1.3-0.3-1.7-0.8c-0.4-0.5-0.6-1.1-0.6-1.9V331.2z M292.5,331.3
		c0,0.6,0.1,1,0.4,1.4c0.2,0.4,0.6,0.5,1.1,0.5c0.5,0,0.8-0.2,1-0.5c0.2-0.4,0.4-0.8,0.4-1.4v-0.1c0-0.6-0.1-1-0.4-1.4
		c-0.2-0.4-0.6-0.6-1.1-0.6c-0.5,0-0.8,0.2-1,0.6c-0.2,0.4-0.4,0.8-0.4,1.4V331.3z"/>
	<path d="M302,331.4c0,0.8-0.2,1.4-0.5,1.8c-0.4,0.5-0.9,0.7-1.5,0.7c-0.3,0-0.7-0.1-0.9-0.2c-0.3-0.1-0.5-0.3-0.6-0.6l-0.1,0.7
		h-0.8v-7.6h1v3c0.2-0.2,0.4-0.4,0.6-0.5c0.2-0.1,0.5-0.2,0.9-0.2c0.7,0,1.2,0.3,1.5,0.8c0.4,0.5,0.5,1.2,0.5,2.1V331.4z M301,331.3
		c0-0.6-0.1-1.1-0.3-1.5c-0.2-0.4-0.6-0.6-1-0.6c-0.3,0-0.5,0.1-0.8,0.2c-0.2,0.1-0.4,0.3-0.5,0.6v2.3c0.1,0.3,0.3,0.5,0.5,0.6
		s0.5,0.2,0.8,0.2c0.5,0,0.8-0.2,1-0.5c0.2-0.3,0.3-0.7,0.3-1.3V331.3z"/>
	<path d="M304.2,327.2h-1v-1h1V327.2z M304.2,333.9h-1v-5.3h1V333.9z"/>
	<path d="M306.7,333.9h-1v-7.6h1V333.9z"/>
	<path d="M310.4,334c-0.7,0-1.3-0.2-1.8-0.7c-0.4-0.5-0.7-1.1-0.7-1.9v-0.2c0-0.8,0.2-1.4,0.7-1.9c0.4-0.5,1-0.8,1.6-0.8
		c0.7,0,1.3,0.2,1.6,0.6c0.4,0.4,0.5,1,0.5,1.7v0.6H309l0,0c0,0.5,0.1,0.9,0.4,1.2c0.2,0.3,0.6,0.5,1,0.5c0.3,0,0.6,0,0.9-0.1
		c0.2-0.1,0.5-0.2,0.6-0.4l0.4,0.6c-0.2,0.2-0.4,0.3-0.7,0.5C311.2,333.9,310.8,334,310.4,334z M310.3,329.2c-0.3,0-0.6,0.1-0.8,0.4
		c-0.2,0.3-0.4,0.6-0.4,1l0,0h2.4v-0.1c0-0.4-0.1-0.7-0.3-0.9C311,329.4,310.7,329.2,310.3,329.2z"/>
	<path d="M320,332.1c0-0.3-0.1-0.6-0.4-0.8c-0.2-0.2-0.7-0.4-1.3-0.6c-0.8-0.2-1.3-0.4-1.8-0.8c-0.4-0.3-0.6-0.8-0.6-1.3
		c0-0.6,0.2-1,0.7-1.4s1-0.6,1.8-0.6c0.8,0,1.4,0.2,1.9,0.6c0.5,0.4,0.7,0.9,0.7,1.5l0,0H320c0-0.4-0.1-0.8-0.4-1
		c-0.3-0.3-0.7-0.4-1.2-0.4c-0.5,0-0.8,0.1-1.1,0.3c-0.3,0.2-0.4,0.5-0.4,0.8c0,0.3,0.1,0.6,0.4,0.8c0.3,0.2,0.7,0.4,1.3,0.5
		c0.7,0.2,1.3,0.5,1.7,0.8s0.6,0.8,0.6,1.3c0,0.6-0.2,1-0.7,1.4s-1.1,0.5-1.8,0.5c-0.7,0-1.3-0.2-1.9-0.6c-0.5-0.4-0.8-0.9-0.8-1.5
		l0,0h0.9c0,0.5,0.2,0.8,0.5,1c0.3,0.2,0.8,0.4,1.2,0.4c0.5,0,0.9-0.1,1.2-0.3S320,332.4,320,332.1z"/>
	<path d="M325.5,333.9c0-0.2-0.1-0.3-0.1-0.4c0-0.1,0-0.2,0-0.4c-0.2,0.3-0.4,0.5-0.7,0.6c-0.3,0.2-0.6,0.3-0.9,0.3
		c-0.6,0-1-0.1-1.3-0.4c-0.3-0.3-0.4-0.7-0.4-1.2c0-0.5,0.2-0.9,0.6-1.2c0.4-0.3,1-0.4,1.7-0.4h1v-0.5c0-0.3-0.1-0.6-0.3-0.7
		c-0.2-0.2-0.5-0.3-0.8-0.3c-0.3,0-0.6,0.1-0.8,0.2c-0.2,0.2-0.3,0.3-0.3,0.6h-0.9l0,0c0-0.4,0.2-0.7,0.5-1.1
		c0.4-0.3,0.9-0.5,1.5-0.5c0.6,0,1.1,0.2,1.4,0.5c0.4,0.3,0.5,0.7,0.5,1.3v2.5c0,0.2,0,0.4,0,0.5s0.1,0.3,0.1,0.5H325.5z
		 M323.9,333.2c0.3,0,0.7-0.1,0.9-0.3c0.3-0.2,0.5-0.4,0.5-0.6v-0.9h-1.1c-0.4,0-0.7,0.1-0.9,0.3c-0.2,0.2-0.3,0.4-0.3,0.7
		c0,0.2,0.1,0.4,0.2,0.6C323.4,333.1,323.6,333.2,323.9,333.2z"/>
	<path d="M328.1,333.9v-4.6h-0.8v-0.7h0.8v-0.7c0-0.6,0.1-1,0.4-1.3c0.3-0.3,0.7-0.5,1.2-0.5c0.1,0,0.2,0,0.3,0c0.1,0,0.2,0,0.4,0.1
		l-0.1,0.7c-0.1,0-0.1,0-0.2,0s-0.2,0-0.3,0c-0.3,0-0.5,0.1-0.6,0.3c-0.1,0.2-0.2,0.4-0.2,0.7v0.7h1.1v0.7h-1.1v4.6H328.1z"/>
	<path d="M334.4,333.9c0-0.2-0.1-0.3-0.1-0.4c0-0.1,0-0.2,0-0.4c-0.2,0.3-0.4,0.5-0.7,0.6c-0.3,0.2-0.6,0.3-0.9,0.3
		c-0.6,0-1-0.1-1.3-0.4c-0.3-0.3-0.4-0.7-0.4-1.2c0-0.5,0.2-0.9,0.6-1.2c0.4-0.3,1-0.4,1.7-0.4h1v-0.5c0-0.3-0.1-0.6-0.3-0.7
		c-0.2-0.2-0.5-0.3-0.8-0.3c-0.3,0-0.6,0.1-0.8,0.2c-0.2,0.2-0.3,0.3-0.3,0.6h-0.9l0,0c0-0.4,0.2-0.7,0.5-1.1
		c0.4-0.3,0.9-0.5,1.5-0.5c0.6,0,1.1,0.2,1.4,0.5c0.4,0.3,0.5,0.7,0.5,1.3v2.5c0,0.2,0,0.4,0,0.5s0.1,0.3,0.1,0.5H334.4z
		 M332.8,333.2c0.3,0,0.7-0.1,0.9-0.3c0.3-0.2,0.5-0.4,0.5-0.6v-0.9h-1.1c-0.4,0-0.7,0.1-0.9,0.3c-0.2,0.2-0.3,0.4-0.3,0.7
		c0,0.2,0.1,0.4,0.2,0.6C332.3,333.1,332.5,333.2,332.8,333.2z"/>
	<path d="M339.2,329.4l-0.5,0c-0.3,0-0.5,0.1-0.6,0.2c-0.2,0.1-0.3,0.3-0.4,0.5v3.8h-1v-5.3h0.9l0.1,0.8c0.1-0.3,0.3-0.5,0.6-0.6
		s0.5-0.2,0.8-0.2c0.1,0,0.1,0,0.2,0c0.1,0,0.1,0,0.2,0L339.2,329.4z"/>
	<path d="M341.1,327.2h-1v-1h1V327.2z M341.1,333.9h-1v-5.3h1V333.9z"/>
</g>
<g enable-background="new    ">
	<path d="M294.2,339.2h-1v-1h1V339.2z M294.2,345.9h-1v-5.3h1V345.9z"/>
	<path d="M296.8,343v2.9h-1v-7.1h2.7c0.8,0,1.3,0.2,1.8,0.6s0.6,0.9,0.6,1.5c0,0.6-0.2,1.2-0.6,1.6c-0.4,0.4-1,0.6-1.8,0.6H296.8z
		 M296.8,342.3h1.8c0.5,0,0.8-0.1,1.1-0.4c0.2-0.3,0.4-0.6,0.4-1c0-0.4-0.1-0.7-0.4-1c-0.2-0.3-0.6-0.4-1.1-0.4h-1.8V342.3z"/>
	<path d="M303,341.3c0.2-0.3,0.4-0.5,0.7-0.6c0.3-0.1,0.6-0.2,0.9-0.2c0.6,0,1,0.2,1.3,0.5c0.3,0.3,0.5,0.9,0.5,1.6v3.3h-1v-3.3
		c0-0.4-0.1-0.8-0.3-1c-0.2-0.2-0.5-0.3-0.8-0.3c-0.3,0-0.5,0.1-0.7,0.2c-0.2,0.1-0.4,0.3-0.5,0.5v3.9h-1v-7.6h1V341.3z"/>
	<path d="M307.5,343.2c0-0.8,0.2-1.4,0.6-1.9c0.4-0.5,1-0.8,1.7-0.8c0.7,0,1.3,0.3,1.7,0.8s0.6,1.1,0.6,1.9v0.1
		c0,0.8-0.2,1.4-0.6,1.9c-0.4,0.5-1,0.8-1.7,0.8c-0.7,0-1.3-0.3-1.7-0.8c-0.4-0.5-0.6-1.1-0.6-1.9V343.2z M308.5,343.3
		c0,0.6,0.1,1,0.4,1.4c0.2,0.4,0.6,0.5,1.1,0.5c0.5,0,0.8-0.2,1-0.5c0.2-0.4,0.4-0.8,0.4-1.4v-0.1c0-0.6-0.1-1-0.4-1.4
		c-0.2-0.4-0.6-0.6-1.1-0.6c-0.5,0-0.8,0.2-1,0.6c-0.2,0.4-0.4,0.8-0.4,1.4V343.3z"/>
	<path d="M314.3,340.6l0.1,0.8c0.2-0.3,0.4-0.5,0.7-0.7c0.3-0.2,0.6-0.2,0.9-0.2c0.6,0,1,0.2,1.3,0.5c0.3,0.3,0.5,0.8,0.5,1.5v3.3
		h-1v-3.3c0-0.5-0.1-0.8-0.3-1c-0.2-0.2-0.5-0.3-0.8-0.3c-0.3,0-0.5,0.1-0.7,0.2c-0.2,0.1-0.4,0.3-0.5,0.5v3.9h-1v-5.3H314.3z"/>
	<path d="M321.3,346c-0.7,0-1.3-0.2-1.8-0.7c-0.4-0.5-0.7-1.1-0.7-1.9v-0.2c0-0.8,0.2-1.4,0.7-1.9c0.4-0.5,1-0.8,1.6-0.8
		c0.7,0,1.3,0.2,1.6,0.6c0.4,0.4,0.5,1,0.5,1.7v0.6h-3.4l0,0c0,0.5,0.1,0.9,0.4,1.2c0.2,0.3,0.6,0.5,1,0.5c0.3,0,0.6,0,0.9-0.1
		c0.2-0.1,0.5-0.2,0.6-0.4l0.4,0.6c-0.2,0.2-0.4,0.3-0.7,0.5C322.1,345.9,321.7,346,321.3,346z M321.1,341.2c-0.3,0-0.6,0.1-0.8,0.4
		c-0.2,0.3-0.4,0.6-0.4,1l0,0h2.4v-0.1c0-0.4-0.1-0.7-0.3-0.9C321.8,341.4,321.5,341.2,321.1,341.2z"/>
	<path d="M329.5,338.7c0.2,0,0.5,0,0.7,0.1s0.4,0.1,0.6,0.2l-0.2,0.7c-0.2-0.1-0.3-0.1-0.5-0.2c-0.2-0.1-0.4-0.1-0.6-0.1
		c-0.5,0-0.9,0.2-1.2,0.6c-0.3,0.4-0.5,0.9-0.5,1.6v0.1c0.2-0.2,0.4-0.3,0.7-0.4c0.3-0.1,0.6-0.2,0.9-0.2c0.6,0,1.1,0.2,1.5,0.7
		c0.4,0.4,0.6,1,0.6,1.7c0,0.7-0.2,1.3-0.6,1.8c-0.4,0.5-0.9,0.7-1.6,0.7c-0.7,0-1.3-0.3-1.7-0.8c-0.5-0.5-0.7-1.2-0.7-2.1v-1.4
		c0-0.9,0.3-1.7,0.8-2.2S328.7,338.7,329.5,338.7z M329.1,341.9c-0.3,0-0.6,0.1-0.8,0.2c-0.2,0.1-0.4,0.3-0.5,0.5v0.6
		c0,0.7,0.1,1.2,0.4,1.5c0.3,0.4,0.6,0.5,1,0.5c0.4,0,0.7-0.2,0.9-0.5s0.3-0.7,0.3-1.2c0-0.5-0.1-0.9-0.4-1.2
		C329.9,342,329.6,341.9,329.1,341.9z"/>
</g>
<g enable-background="new    ">
	<path d="M287.9,354.7l0.4-3.9h3.6v0.9h-2.7l-0.2,2c0.2-0.1,0.3-0.2,0.5-0.3c0.2-0.1,0.4-0.1,0.6-0.1c0.7,0,1.2,0.2,1.5,0.6
		s0.6,1,0.6,1.7c0,0.7-0.2,1.3-0.6,1.7c-0.4,0.4-0.9,0.6-1.7,0.6c-0.6,0-1.1-0.2-1.5-0.5s-0.6-0.8-0.6-1.5l0,0h0.9
		c0,0.4,0.1,0.7,0.3,0.9c0.2,0.2,0.5,0.3,0.9,0.3c0.4,0,0.7-0.1,0.9-0.4s0.3-0.7,0.3-1.2c0-0.5-0.1-0.8-0.3-1.1
		c-0.2-0.3-0.5-0.4-0.9-0.4c-0.4,0-0.7,0.1-0.8,0.2c-0.2,0.1-0.3,0.3-0.4,0.5L287.9,354.7z"/>
	<path d="M294.4,357.9h-1v-1h1V357.9z"/>
	<path d="M297.2,353.9h0.8c0.4,0,0.7-0.1,0.9-0.3c0.2-0.2,0.3-0.5,0.3-0.9c0-0.4-0.1-0.7-0.3-0.9c-0.2-0.2-0.5-0.3-0.9-0.3
		c-0.4,0-0.7,0.1-0.9,0.3c-0.2,0.2-0.3,0.5-0.3,0.9h-0.9l0,0c0-0.5,0.2-1,0.6-1.4c0.4-0.4,0.9-0.6,1.6-0.6c0.7,0,1.2,0.2,1.6,0.5
		c0.4,0.4,0.6,0.8,0.6,1.5c0,0.3-0.1,0.6-0.3,0.9c-0.2,0.3-0.4,0.5-0.8,0.7c0.4,0.1,0.7,0.4,0.9,0.7c0.2,0.3,0.3,0.6,0.3,1
		c0,0.6-0.2,1.2-0.6,1.5s-1,0.6-1.6,0.6c-0.6,0-1.2-0.2-1.6-0.5c-0.4-0.4-0.6-0.8-0.6-1.4l0,0h0.9c0,0.4,0.1,0.7,0.3,0.9
		c0.2,0.2,0.5,0.3,0.9,0.3c0.4,0,0.7-0.1,1-0.3c0.2-0.2,0.3-0.5,0.3-1c0-0.4-0.1-0.8-0.3-1c-0.2-0.2-0.5-0.3-1-0.3h-0.8V353.9z"/>
	<path d="M303.5,354.5l1.1-1.9h1.1l-1.7,2.6l1.8,2.7h-1.1l-1.2-2l-1.2,2h-1.1l1.8-2.7l-1.7-2.6h1.1L303.5,354.5z"/>
	<path d="M313.6,354.7h-3.2v3.1h-1v-7.1h4.7v0.8h-3.7v2.5h3.2V354.7z"/>
	<path d="M318.1,357.9c0-0.2-0.1-0.3-0.1-0.4c0-0.1,0-0.2,0-0.4c-0.2,0.3-0.4,0.5-0.7,0.6c-0.3,0.2-0.6,0.3-0.9,0.3
		c-0.5,0-1-0.1-1.3-0.4c-0.3-0.3-0.4-0.7-0.4-1.2c0-0.5,0.2-0.9,0.6-1.2c0.4-0.3,1-0.4,1.7-0.4h1v-0.5c0-0.3-0.1-0.6-0.3-0.7
		c-0.2-0.2-0.5-0.3-0.8-0.3c-0.3,0-0.6,0.1-0.8,0.2c-0.2,0.2-0.3,0.3-0.3,0.6h-0.9l0,0c0-0.4,0.2-0.7,0.5-1.1
		c0.4-0.3,0.9-0.5,1.5-0.5c0.6,0,1.1,0.2,1.4,0.5c0.4,0.3,0.5,0.7,0.5,1.3v2.5c0,0.2,0,0.4,0,0.5s0.1,0.3,0.1,0.5H318.1z
		 M316.5,357.2c0.3,0,0.7-0.1,0.9-0.3c0.3-0.2,0.5-0.4,0.5-0.6v-0.9h-1.1c-0.4,0-0.7,0.1-0.9,0.3c-0.2,0.2-0.3,0.4-0.3,0.7
		c0,0.2,0.1,0.4,0.2,0.6C316,357.1,316.2,357.2,316.5,357.2z"/>
	<path d="M323.4,356.5c0-0.2-0.1-0.4-0.2-0.5s-0.5-0.3-0.9-0.4c-0.6-0.1-1.1-0.3-1.4-0.6c-0.3-0.2-0.5-0.6-0.5-1
		c0-0.4,0.2-0.8,0.5-1.1c0.4-0.3,0.8-0.5,1.4-0.5c0.6,0,1.1,0.2,1.5,0.5c0.4,0.3,0.5,0.7,0.5,1.2l0,0h-0.9c0-0.2-0.1-0.4-0.3-0.6
		c-0.2-0.2-0.5-0.3-0.8-0.3c-0.3,0-0.6,0.1-0.8,0.2s-0.2,0.3-0.2,0.5c0,0.2,0.1,0.4,0.2,0.5s0.4,0.2,0.9,0.3
		c0.7,0.1,1.2,0.3,1.5,0.6c0.3,0.2,0.5,0.6,0.5,1c0,0.5-0.2,0.8-0.6,1.1c-0.4,0.3-0.9,0.4-1.5,0.4c-0.7,0-1.2-0.2-1.6-0.5
		c-0.4-0.3-0.6-0.7-0.6-1.2l0,0h0.9c0,0.3,0.1,0.6,0.4,0.7c0.2,0.2,0.5,0.2,0.8,0.2c0.3,0,0.6-0.1,0.8-0.2
		C323.3,356.9,323.4,356.7,323.4,356.5z"/>
	<path d="M326.8,351.3v1.3h1v0.7h-1v3.2c0,0.2,0.1,0.4,0.2,0.5s0.2,0.2,0.4,0.2c0.1,0,0.1,0,0.2,0c0.1,0,0.1,0,0.2,0l0.1,0.7
		c-0.1,0.1-0.2,0.1-0.3,0.1c-0.1,0-0.3,0.1-0.4,0.1c-0.4,0-0.7-0.1-0.9-0.4c-0.2-0.2-0.3-0.6-0.3-1.1v-3.2H325v-0.7h0.8v-1.3H326.8z
		"/>
	<path d="M331.2,358c-0.7,0-1.3-0.2-1.8-0.7c-0.4-0.5-0.7-1.1-0.7-1.9v-0.2c0-0.8,0.2-1.4,0.7-1.9c0.4-0.5,1-0.8,1.6-0.8
		c0.7,0,1.3,0.2,1.6,0.6c0.4,0.4,0.5,1,0.5,1.7v0.6h-3.4l0,0c0,0.5,0.1,0.9,0.4,1.2c0.2,0.3,0.6,0.5,1,0.5c0.3,0,0.6,0,0.9-0.1
		c0.2-0.1,0.5-0.2,0.6-0.4l0.4,0.6c-0.2,0.2-0.4,0.3-0.7,0.5C332,357.9,331.6,358,331.2,358z M331.1,353.2c-0.3,0-0.6,0.1-0.8,0.4
		c-0.2,0.3-0.4,0.6-0.4,1l0,0h2.4v-0.1c0-0.4-0.1-0.7-0.3-0.9C331.8,353.4,331.5,353.2,331.1,353.2z"/>
	<path d="M336.8,353.4l-0.5,0c-0.3,0-0.5,0.1-0.6,0.2c-0.2,0.1-0.3,0.3-0.4,0.5v3.8h-1v-5.3h0.9l0.1,0.8c0.2-0.3,0.3-0.5,0.6-0.6
		s0.5-0.2,0.8-0.2c0.1,0,0.1,0,0.2,0c0.1,0,0.1,0,0.2,0L336.8,353.4z"/>
</g>
<rect x="383.9" y="326.2" fill="none" width="89.5" height="38.5"/>
<g enable-background="new    ">
	<path d="M394.1,333.9v-7.1h2.2c0.9,0,1.7,0.3,2.2,0.9c0.6,0.6,0.8,1.3,0.8,2.2v1c0,0.9-0.3,1.6-0.8,2.2c-0.6,0.6-1.3,0.9-2.2,0.9
		H394.1z M395.1,327.5v5.6h1.2c0.7,0,1.2-0.2,1.6-0.6c0.4-0.4,0.6-1,0.6-1.7v-1c0-0.7-0.2-1.2-0.6-1.7c-0.4-0.4-0.9-0.6-1.6-0.6
		H395.1z"/>
	<path d="M402.7,334c-0.7,0-1.3-0.2-1.8-0.7c-0.4-0.5-0.7-1.1-0.7-1.9v-0.2c0-0.8,0.2-1.4,0.7-1.9c0.4-0.5,1-0.8,1.6-0.8
		c0.7,0,1.3,0.2,1.6,0.6c0.4,0.4,0.5,1,0.5,1.7v0.6h-3.4l0,0c0,0.5,0.1,0.9,0.4,1.2c0.2,0.3,0.6,0.5,1,0.5c0.3,0,0.6,0,0.9-0.1
		c0.2-0.1,0.5-0.2,0.6-0.4l0.4,0.6c-0.2,0.2-0.4,0.3-0.7,0.5C403.5,333.9,403.2,334,402.7,334z M402.6,329.2c-0.3,0-0.6,0.1-0.8,0.4
		c-0.2,0.3-0.4,0.6-0.4,1l0,0h2.4v-0.1c0-0.4-0.1-0.7-0.3-0.9C403.3,329.4,403,329.2,402.6,329.2z"/>
	<path d="M408.9,332.5c0-0.2-0.1-0.4-0.2-0.5s-0.5-0.3-0.9-0.4c-0.6-0.1-1.1-0.3-1.4-0.6c-0.3-0.2-0.5-0.6-0.5-1
		c0-0.4,0.2-0.8,0.5-1.1c0.4-0.3,0.8-0.5,1.4-0.5c0.6,0,1.1,0.2,1.5,0.5c0.4,0.3,0.5,0.7,0.5,1.2l0,0h-0.9c0-0.2-0.1-0.4-0.3-0.6
		c-0.2-0.2-0.5-0.3-0.8-0.3c-0.3,0-0.6,0.1-0.8,0.2s-0.2,0.3-0.2,0.5c0,0.2,0.1,0.4,0.2,0.5s0.4,0.2,0.9,0.3
		c0.7,0.1,1.2,0.3,1.5,0.6c0.3,0.2,0.5,0.6,0.5,1c0,0.5-0.2,0.8-0.6,1.1c-0.4,0.3-0.9,0.4-1.5,0.4c-0.7,0-1.2-0.2-1.6-0.5
		c-0.4-0.3-0.6-0.7-0.6-1.2l0,0h0.9c0,0.3,0.1,0.6,0.4,0.7c0.2,0.2,0.5,0.2,0.8,0.2c0.3,0,0.6-0.1,0.8-0.2
		C408.8,332.9,408.9,332.7,408.9,332.5z"/>
	<path d="M412.6,331.4H412v2.4h-1v-7.6h1v4.4h0.6l1.4-2.1h1.2l-1.8,2.4l2.1,2.9h-1.1L412.6,331.4z"/>
	<path d="M417.4,327.3v1.3h1v0.7h-1v3.2c0,0.2,0.1,0.4,0.2,0.5s0.2,0.2,0.4,0.2c0.1,0,0.1,0,0.2,0c0.1,0,0.1,0,0.2,0l0.1,0.7
		c-0.1,0.1-0.2,0.1-0.3,0.1c-0.1,0-0.3,0.1-0.4,0.1c-0.4,0-0.7-0.1-0.9-0.4c-0.2-0.2-0.3-0.6-0.3-1.1v-3.2h-0.8v-0.7h0.8v-1.3H417.4
		z"/>
	<path d="M419.4,331.2c0-0.8,0.2-1.4,0.6-1.9c0.4-0.5,1-0.8,1.7-0.8c0.7,0,1.3,0.3,1.7,0.8s0.6,1.1,0.6,1.9v0.1
		c0,0.8-0.2,1.4-0.6,1.9c-0.4,0.5-1,0.8-1.7,0.8c-0.7,0-1.3-0.3-1.7-0.8c-0.4-0.5-0.6-1.1-0.6-1.9V331.2z M420.4,331.3
		c0,0.6,0.1,1,0.4,1.4c0.2,0.4,0.6,0.5,1.1,0.5c0.5,0,0.8-0.2,1-0.5c0.2-0.4,0.4-0.8,0.4-1.4v-0.1c0-0.6-0.1-1-0.4-1.4
		c-0.2-0.4-0.6-0.6-1.1-0.6c-0.5,0-0.8,0.2-1,0.6c-0.2,0.4-0.4,0.8-0.4,1.4V331.3z"/>
	<path d="M429.8,331.4c0,0.8-0.2,1.4-0.5,1.8c-0.4,0.5-0.9,0.7-1.5,0.7c-0.3,0-0.6-0.1-0.9-0.2c-0.2-0.1-0.5-0.3-0.6-0.5v2.6h-1
		v-7.3h0.7l0.2,0.7c0.2-0.3,0.4-0.4,0.6-0.6c0.3-0.1,0.6-0.2,0.9-0.2c0.7,0,1.2,0.3,1.5,0.8c0.4,0.5,0.5,1.2,0.5,2.1V331.4z
		 M428.8,331.3c0-0.6-0.1-1.1-0.4-1.5c-0.2-0.4-0.6-0.6-1-0.6c-0.3,0-0.5,0.1-0.7,0.2s-0.4,0.3-0.5,0.5v2.6c0.1,0.2,0.3,0.4,0.5,0.5
		s0.4,0.2,0.7,0.2c0.5,0,0.8-0.2,1-0.5s0.4-0.8,0.4-1.3V331.3z"/>
	<path d="M437.9,330.7h-3.2v3.1h-1v-7.1h4.7v0.8h-3.7v2.5h3.2V330.7z"/>
	<path d="M440.3,327.2h-1v-1h1V327.2z M440.3,333.9h-1v-5.3h1V333.9z"/>
	<path d="M444.3,329.4l-0.5,0c-0.3,0-0.5,0.1-0.6,0.2c-0.2,0.1-0.3,0.3-0.4,0.5v3.8h-1v-5.3h0.9l0.1,0.8c0.2-0.3,0.3-0.5,0.6-0.6
		s0.5-0.2,0.8-0.2c0.1,0,0.1,0,0.2,0c0.1,0,0.1,0,0.2,0L444.3,329.4z"/>
	<path d="M447.4,334c-0.7,0-1.3-0.2-1.8-0.7c-0.4-0.5-0.7-1.1-0.7-1.9v-0.2c0-0.8,0.2-1.4,0.7-1.9c0.4-0.5,1-0.8,1.6-0.8
		c0.7,0,1.3,0.2,1.6,0.6c0.4,0.4,0.5,1,0.5,1.7v0.6h-3.4l0,0c0,0.5,0.1,0.9,0.4,1.2c0.2,0.3,0.6,0.5,1,0.5c0.3,0,0.6,0,0.9-0.1
		c0.2-0.1,0.5-0.2,0.6-0.4l0.4,0.6c-0.2,0.2-0.4,0.3-0.7,0.5C448.2,333.9,447.8,334,447.4,334z M447.2,329.2c-0.3,0-0.6,0.1-0.8,0.4
		c-0.2,0.3-0.4,0.6-0.4,1l0,0h2.4v-0.1c0-0.4-0.1-0.7-0.3-0.9C447.9,329.4,447.6,329.2,447.2,329.2z"/>
	<path d="M450.8,333.9v-4.6H450v-0.7h0.8v-0.7c0-0.6,0.1-1,0.4-1.3c0.3-0.3,0.7-0.5,1.2-0.5c0.1,0,0.2,0,0.3,0c0.1,0,0.2,0,0.4,0.1
		l-0.1,0.7c-0.1,0-0.1,0-0.2,0s-0.2,0-0.3,0c-0.3,0-0.5,0.1-0.6,0.3c-0.1,0.2-0.2,0.4-0.2,0.7v0.7h1.1v0.7h-1.1v4.6H450.8z"/>
	<path d="M453.7,331.2c0-0.8,0.2-1.4,0.6-1.9c0.4-0.5,1-0.8,1.7-0.8c0.7,0,1.3,0.3,1.7,0.8s0.6,1.1,0.6,1.9v0.1
		c0,0.8-0.2,1.4-0.6,1.9c-0.4,0.5-1,0.8-1.7,0.8c-0.7,0-1.3-0.3-1.7-0.8c-0.4-0.5-0.6-1.1-0.6-1.9V331.2z M454.6,331.3
		c0,0.6,0.1,1,0.4,1.4c0.2,0.4,0.6,0.5,1.1,0.5c0.5,0,0.8-0.2,1-0.5c0.2-0.4,0.4-0.8,0.4-1.4v-0.1c0-0.6-0.1-1-0.4-1.4
		c-0.2-0.4-0.6-0.6-1.1-0.6c-0.5,0-0.8,0.2-1,0.6c-0.2,0.4-0.4,0.8-0.4,1.4V331.3z"/>
	<path d="M461.3,330.5l1.1-1.9h1.1l-1.7,2.6l1.8,2.7h-1.1l-1.2-2l-1.2,2H459l1.8-2.7l-1.7-2.6h1.1L461.3,330.5z"/>
</g>
<g enable-background="new    ">
	<path d="M400.8,338.8l2.3,5.8h0l2.3-5.8h1.2v7.1h-1v-2.8l0.1-2.9l0,0l-2.3,5.7h-0.6l-2.3-5.7l0,0l0.1,2.9v2.8h-1v-7.1H400.8z"/>
	<path d="M411.5,345.9c0-0.2-0.1-0.3-0.1-0.4c0-0.1,0-0.2,0-0.4c-0.2,0.3-0.4,0.5-0.7,0.6c-0.3,0.2-0.6,0.3-0.9,0.3
		c-0.5,0-1-0.1-1.3-0.4c-0.3-0.3-0.4-0.7-0.4-1.2c0-0.5,0.2-0.9,0.6-1.2c0.4-0.3,1-0.4,1.7-0.4h1v-0.5c0-0.3-0.1-0.6-0.3-0.7
		c-0.2-0.2-0.5-0.3-0.8-0.3c-0.3,0-0.6,0.1-0.8,0.2c-0.2,0.2-0.3,0.3-0.3,0.6h-0.9l0,0c0-0.4,0.2-0.7,0.5-1.1
		c0.4-0.3,0.9-0.5,1.5-0.5c0.6,0,1.1,0.2,1.4,0.5c0.4,0.3,0.5,0.7,0.5,1.3v2.5c0,0.2,0,0.4,0,0.5s0.1,0.3,0.1,0.5H411.5z
		 M409.9,345.2c0.3,0,0.7-0.1,0.9-0.3c0.3-0.2,0.5-0.4,0.5-0.6v-0.9h-1.1c-0.4,0-0.7,0.1-0.9,0.3c-0.2,0.2-0.3,0.4-0.3,0.7
		c0,0.2,0.1,0.4,0.2,0.6C409.4,345.1,409.6,345.2,409.9,345.2z"/>
	<path d="M415.9,345.2c0.3,0,0.6-0.1,0.8-0.3c0.2-0.2,0.4-0.4,0.4-0.7h0.9l0,0c0,0.5-0.2,0.9-0.6,1.2c-0.4,0.4-0.9,0.5-1.5,0.5
		c-0.8,0-1.4-0.3-1.8-0.8c-0.4-0.5-0.6-1.1-0.6-1.9v-0.2c0-0.8,0.2-1.4,0.6-1.9c0.4-0.5,1-0.8,1.8-0.8c0.6,0,1.1,0.2,1.5,0.5
		c0.4,0.4,0.6,0.8,0.6,1.3l0,0h-0.9c0-0.3-0.1-0.6-0.3-0.8c-0.2-0.2-0.5-0.3-0.9-0.3c-0.5,0-0.9,0.2-1.1,0.5
		c-0.2,0.4-0.3,0.8-0.3,1.3v0.2c0,0.5,0.1,1,0.3,1.3S415.4,345.2,415.9,345.2z"/>
	<path d="M423.5,343.4c0,0.8-0.2,1.4-0.5,1.8c-0.4,0.5-0.9,0.7-1.5,0.7c-0.3,0-0.7-0.1-0.9-0.2c-0.3-0.1-0.5-0.3-0.6-0.6l-0.1,0.7
		H419v-7.6h1v3c0.2-0.2,0.4-0.4,0.6-0.5c0.2-0.1,0.5-0.2,0.9-0.2c0.7,0,1.2,0.3,1.5,0.8c0.4,0.5,0.5,1.2,0.5,2.1V343.4z
		 M422.6,343.3c0-0.6-0.1-1.1-0.3-1.5c-0.2-0.4-0.6-0.6-1-0.6c-0.3,0-0.5,0.1-0.7,0.2c-0.2,0.1-0.4,0.3-0.5,0.6v2.3
		c0.1,0.3,0.3,0.5,0.5,0.6s0.5,0.2,0.8,0.2c0.5,0,0.8-0.2,1-0.5c0.2-0.3,0.3-0.7,0.3-1.3V343.3z"/>
	<path d="M424.5,343.2c0-0.8,0.2-1.4,0.6-1.9c0.4-0.5,1-0.8,1.7-0.8c0.7,0,1.3,0.3,1.7,0.8s0.6,1.1,0.6,1.9v0.1
		c0,0.8-0.2,1.4-0.6,1.9c-0.4,0.5-1,0.8-1.7,0.8c-0.7,0-1.3-0.3-1.7-0.8c-0.4-0.5-0.6-1.1-0.6-1.9V343.2z M425.4,343.3
		c0,0.6,0.1,1,0.4,1.4c0.2,0.4,0.6,0.5,1.1,0.5c0.5,0,0.8-0.2,1-0.5c0.2-0.4,0.4-0.8,0.4-1.4v-0.1c0-0.6-0.1-1-0.4-1.4
		c-0.2-0.4-0.6-0.6-1.1-0.6c-0.5,0-0.8,0.2-1,0.6c-0.2,0.4-0.4,0.8-0.4,1.4V343.3z"/>
	<path d="M430.2,343.2c0-0.8,0.2-1.4,0.6-1.9c0.4-0.5,1-0.8,1.7-0.8c0.7,0,1.3,0.3,1.7,0.8s0.6,1.1,0.6,1.9v0.1
		c0,0.8-0.2,1.4-0.6,1.9c-0.4,0.5-1,0.8-1.7,0.8c-0.7,0-1.3-0.3-1.7-0.8c-0.4-0.5-0.6-1.1-0.6-1.9V343.2z M431.1,343.3
		c0,0.6,0.1,1,0.4,1.4c0.2,0.4,0.6,0.5,1.1,0.5c0.5,0,0.8-0.2,1-0.5c0.2-0.4,0.4-0.8,0.4-1.4v-0.1c0-0.6-0.1-1-0.4-1.4
		c-0.2-0.4-0.6-0.6-1.1-0.6c-0.5,0-0.8,0.2-1,0.6c-0.2,0.4-0.4,0.8-0.4,1.4V343.3z"/>
	<path d="M437.7,343.4H437v2.4h-1v-7.6h1v4.4h0.6l1.4-2.1h1.2l-1.8,2.4l2.1,2.9h-1.1L437.7,343.4z"/>
	<path d="M444.8,343v2.9h-1v-7.1h2.7c0.8,0,1.3,0.2,1.8,0.6s0.6,0.9,0.6,1.5c0,0.6-0.2,1.2-0.6,1.6c-0.4,0.4-1,0.6-1.8,0.6H444.8z
		 M444.8,342.3h1.8c0.5,0,0.8-0.1,1.1-0.4c0.2-0.3,0.4-0.6,0.4-1c0-0.4-0.1-0.7-0.4-1c-0.2-0.3-0.6-0.4-1.1-0.4h-1.8V342.3z"/>
	<path d="M452.6,341.4l-0.5,0c-0.3,0-0.5,0.1-0.6,0.2c-0.2,0.1-0.3,0.3-0.4,0.5v3.8h-1v-5.3h0.9l0.1,0.8c0.2-0.3,0.3-0.5,0.6-0.6
		s0.5-0.2,0.8-0.2c0.1,0,0.1,0,0.2,0c0.1,0,0.1,0,0.2,0L452.6,341.4z"/>
	<path d="M453.2,343.2c0-0.8,0.2-1.4,0.6-1.9c0.4-0.5,1-0.8,1.7-0.8c0.7,0,1.3,0.3,1.7,0.8s0.6,1.1,0.6,1.9v0.1
		c0,0.8-0.2,1.4-0.6,1.9c-0.4,0.5-1,0.8-1.7,0.8c-0.7,0-1.3-0.3-1.7-0.8c-0.4-0.5-0.6-1.1-0.6-1.9V343.2z M454.2,343.3
		c0,0.6,0.1,1,0.4,1.4c0.2,0.4,0.6,0.5,1.1,0.5c0.5,0,0.8-0.2,1-0.5c0.2-0.4,0.4-0.8,0.4-1.4v-0.1c0-0.6-0.1-1-0.4-1.4
		c-0.2-0.4-0.6-0.6-1.1-0.6c-0.5,0-0.8,0.2-1,0.6c-0.2,0.4-0.4,0.8-0.4,1.4V343.3z"/>
</g>
<g enable-background="new    ">
	<path d="M412.6,352.6c0,0.4-0.1,0.7-0.3,1c-0.2,0.3-0.5,0.5-0.8,0.6c0.4,0.1,0.7,0.4,1,0.7c0.2,0.3,0.4,0.7,0.4,1.1
		c0,0.7-0.2,1.2-0.6,1.5c-0.4,0.3-1,0.5-1.7,0.5c-0.7,0-1.3-0.2-1.7-0.5c-0.4-0.3-0.6-0.8-0.6-1.5c0-0.4,0.1-0.8,0.4-1.1
		c0.2-0.3,0.6-0.5,1-0.7c-0.4-0.1-0.6-0.3-0.8-0.6c-0.2-0.3-0.3-0.6-0.3-1c0-0.6,0.2-1.1,0.6-1.4c0.4-0.3,0.9-0.5,1.5-0.5
		c0.6,0,1.1,0.2,1.5,0.5C412.4,351.5,412.6,352,412.6,352.6z M411.8,355.9c0-0.4-0.1-0.7-0.4-1c-0.3-0.2-0.6-0.4-1-0.4
		c-0.4,0-0.7,0.1-1,0.4c-0.2,0.3-0.4,0.6-0.4,1c0,0.4,0.1,0.7,0.4,0.9c0.2,0.2,0.6,0.3,1,0.3c0.4,0,0.7-0.1,1-0.3
		C411.7,356.6,411.8,356.3,411.8,355.9z M411.6,352.6c0-0.4-0.1-0.6-0.3-0.9s-0.5-0.3-0.8-0.3c-0.3,0-0.6,0.1-0.8,0.3
		c-0.2,0.2-0.3,0.5-0.3,0.9c0,0.4,0.1,0.7,0.3,0.9c0.2,0.2,0.5,0.3,0.8,0.3c0.3,0,0.6-0.1,0.8-0.3S411.6,353,411.6,352.6z"/>
	<path d="M415.8,354.5l1.1-1.9h1.1l-1.7,2.6l1.8,2.7H417l-1.2-2l-1.2,2h-1.1l1.8-2.7l-1.7-2.6h1.1L415.8,354.5z"/>
	<path d="M425.9,354.7h-3.2v3.1h-1v-7.1h4.7v0.8h-3.7v2.5h3.2V354.7z"/>
	<path d="M430.4,357.9c0-0.2-0.1-0.3-0.1-0.4c0-0.1,0-0.2,0-0.4c-0.2,0.3-0.4,0.5-0.7,0.6c-0.3,0.2-0.6,0.3-0.9,0.3
		c-0.5,0-1-0.1-1.3-0.4c-0.3-0.3-0.4-0.7-0.4-1.2c0-0.5,0.2-0.9,0.6-1.2c0.4-0.3,1-0.4,1.7-0.4h1v-0.5c0-0.3-0.1-0.6-0.3-0.7
		c-0.2-0.2-0.5-0.3-0.8-0.3c-0.3,0-0.6,0.1-0.8,0.2c-0.2,0.2-0.3,0.3-0.3,0.6h-0.9l0,0c0-0.4,0.2-0.7,0.5-1.1
		c0.4-0.3,0.9-0.5,1.5-0.5c0.6,0,1.1,0.2,1.4,0.5c0.4,0.3,0.5,0.7,0.5,1.3v2.5c0,0.2,0,0.4,0,0.5s0.1,0.3,0.1,0.5H430.4z
		 M428.8,357.2c0.3,0,0.7-0.1,0.9-0.3c0.3-0.2,0.5-0.4,0.5-0.6v-0.9h-1.1c-0.4,0-0.7,0.1-0.9,0.3c-0.2,0.2-0.3,0.4-0.3,0.7
		c0,0.2,0.1,0.4,0.2,0.6C428.3,357.1,428.5,357.2,428.8,357.2z"/>
	<path d="M435.7,356.5c0-0.2-0.1-0.4-0.2-0.5s-0.5-0.3-0.9-0.4c-0.6-0.1-1.1-0.3-1.4-0.6c-0.3-0.2-0.5-0.6-0.5-1
		c0-0.4,0.2-0.8,0.5-1.1c0.4-0.3,0.8-0.5,1.4-0.5c0.6,0,1.1,0.2,1.5,0.5c0.4,0.3,0.5,0.7,0.5,1.2l0,0h-0.9c0-0.2-0.1-0.4-0.3-0.6
		c-0.2-0.2-0.5-0.3-0.8-0.3c-0.3,0-0.6,0.1-0.8,0.2s-0.2,0.3-0.2,0.5c0,0.2,0.1,0.4,0.2,0.5s0.4,0.2,0.9,0.3
		c0.7,0.1,1.2,0.3,1.5,0.6c0.3,0.2,0.5,0.6,0.5,1c0,0.5-0.2,0.8-0.6,1.1c-0.4,0.3-0.9,0.4-1.5,0.4c-0.7,0-1.2-0.2-1.6-0.5
		c-0.4-0.3-0.6-0.7-0.6-1.2l0,0h0.9c0,0.3,0.1,0.6,0.4,0.7c0.2,0.2,0.5,0.2,0.8,0.2c0.3,0,0.6-0.1,0.8-0.2
		C435.6,356.9,435.7,356.7,435.7,356.5z"/>
	<path d="M439.1,351.3v1.3h1v0.7h-1v3.2c0,0.2,0.1,0.4,0.2,0.5s0.2,0.2,0.4,0.2c0.1,0,0.1,0,0.2,0c0.1,0,0.1,0,0.2,0l0.1,0.7
		c-0.1,0.1-0.2,0.1-0.3,0.1c-0.1,0-0.3,0.1-0.4,0.1c-0.4,0-0.7-0.1-0.9-0.4c-0.2-0.2-0.3-0.6-0.3-1.1v-3.2h-0.8v-0.7h0.8v-1.3H439.1
		z"/>
	<path d="M443.5,358c-0.7,0-1.3-0.2-1.8-0.7c-0.4-0.5-0.7-1.1-0.7-1.9v-0.2c0-0.8,0.2-1.4,0.7-1.9c0.4-0.5,1-0.8,1.6-0.8
		c0.7,0,1.3,0.2,1.6,0.6c0.4,0.4,0.5,1,0.5,1.7v0.6h-3.4l0,0c0,0.5,0.1,0.9,0.4,1.2c0.2,0.3,0.6,0.5,1,0.5c0.3,0,0.6,0,0.9-0.1
		c0.2-0.1,0.5-0.2,0.6-0.4l0.4,0.6c-0.2,0.2-0.4,0.3-0.7,0.5C444.3,357.9,444,358,443.5,358z M443.4,353.2c-0.3,0-0.6,0.1-0.8,0.4
		c-0.2,0.3-0.4,0.6-0.4,1l0,0h2.4v-0.1c0-0.4-0.1-0.7-0.3-0.9C444.1,353.4,443.8,353.2,443.4,353.2z"/>
	<path d="M449.1,353.4l-0.5,0c-0.3,0-0.5,0.1-0.6,0.2c-0.2,0.1-0.3,0.3-0.4,0.5v3.8h-1v-5.3h0.9l0.1,0.8c0.2-0.3,0.3-0.5,0.6-0.6
		s0.5-0.2,0.8-0.2c0.1,0,0.1,0,0.2,0c0.1,0,0.1,0,0.2,0L449.1,353.4z"/>
</g>
<g>
	<rect x="202" y="7" fill="#7783C0" width="45" height="14.9"/>
	<rect x="200.5" y="10" fill="none" width="49.5" height="17.5"/>
	<g enable-background="new    ">
		<path fill="#FFFFFF" d="M223.4,14.9c0,0.9-0.2,1.6-0.6,2.1c-0.4,0.5-1,0.7-1.7,0.7s-1.3-0.2-1.7-0.7s-0.6-1.2-0.6-2.1v-1.7
			c0-0.9,0.2-1.6,0.6-2.1c0.4-0.5,1-0.7,1.7-0.7c0.7,0,1.3,0.2,1.7,0.7c0.4,0.5,0.6,1.2,0.6,2.1V14.9z M222.4,13
			c0-0.6-0.1-1.1-0.3-1.4s-0.5-0.5-1-0.5s-0.7,0.2-1,0.5s-0.3,0.8-0.3,1.4v2.1c0,0.6,0.1,1.1,0.3,1.4c0.2,0.3,0.5,0.5,1,0.5
			s0.7-0.2,1-0.5c0.2-0.3,0.3-0.8,0.3-1.4V13z"/>
		<path fill="#FFFFFF" d="M225.7,17.6h-1v-1h1V17.6z"/>
		<path fill="#FFFFFF" d="M227.4,14.4l0.4-3.9h3.6v0.9h-2.7l-0.2,2c0.1-0.1,0.3-0.2,0.5-0.3c0.2-0.1,0.4-0.1,0.6-0.1
			c0.7,0,1.2,0.2,1.5,0.6s0.6,1,0.6,1.7c0,0.7-0.2,1.3-0.6,1.7s-0.9,0.6-1.7,0.6c-0.6,0-1.1-0.2-1.5-0.5s-0.6-0.8-0.6-1.5l0,0h0.9
			c0,0.4,0.1,0.7,0.3,0.9c0.2,0.2,0.5,0.3,0.9,0.3c0.4,0,0.7-0.1,0.9-0.4s0.3-0.7,0.3-1.2c0-0.5-0.1-0.8-0.3-1.1
			c-0.2-0.3-0.5-0.4-0.9-0.4c-0.4,0-0.7,0.1-0.8,0.2s-0.3,0.3-0.4,0.5L227.4,14.4z"/>
	</g>
	<rect x="259.2" y="7" fill="#EE3E7C" width="45" height="14.9"/>
	<rect x="257.8" y="10" fill="none" width="49.5" height="17.5"/>
	<g enable-background="new    ">
		<path fill="#FFFFFF" d="M280.6,14.9c0,0.9-0.2,1.6-0.6,2.1c-0.4,0.5-1,0.7-1.7,0.7c-0.7,0-1.3-0.2-1.7-0.7
			c-0.4-0.5-0.6-1.2-0.6-2.1v-1.7c0-0.9,0.2-1.6,0.6-2.1c0.4-0.5,1-0.7,1.7-0.7c0.7,0,1.3,0.2,1.7,0.7c0.4,0.5,0.6,1.2,0.6,2.1V14.9
			z M279.6,13c0-0.6-0.1-1.1-0.3-1.4s-0.5-0.5-1-0.5c-0.4,0-0.7,0.2-1,0.5c-0.2,0.3-0.3,0.8-0.3,1.4v2.1c0,0.6,0.1,1.1,0.3,1.4
			c0.2,0.3,0.5,0.5,1,0.5c0.4,0,0.7-0.2,1-0.5c0.2-0.3,0.3-0.8,0.3-1.4V13z"/>
		<path fill="#FFFFFF" d="M282.9,17.6h-1v-1h1V17.6z"/>
		<path fill="#FFFFFF" d="M288.8,12.3c0,0.4-0.1,0.7-0.3,1c-0.2,0.3-0.5,0.5-0.8,0.6c0.4,0.1,0.7,0.4,1,0.7s0.4,0.7,0.4,1.1
			c0,0.7-0.2,1.2-0.6,1.5c-0.4,0.3-1,0.5-1.7,0.5c-0.7,0-1.3-0.2-1.7-0.5c-0.4-0.3-0.6-0.8-0.6-1.5c0-0.4,0.1-0.8,0.4-1.1
			c0.2-0.3,0.6-0.5,1-0.7c-0.4-0.1-0.6-0.3-0.8-0.6c-0.2-0.3-0.3-0.6-0.3-1c0-0.6,0.2-1.1,0.6-1.4c0.4-0.3,0.9-0.5,1.5-0.5
			c0.6,0,1.1,0.2,1.5,0.5C288.6,11.2,288.8,11.7,288.8,12.3z M288,15.6c0-0.4-0.1-0.7-0.4-1c-0.3-0.2-0.6-0.4-1-0.4
			c-0.4,0-0.7,0.1-1,0.4c-0.2,0.3-0.4,0.6-0.4,1c0,0.4,0.1,0.7,0.4,0.9c0.2,0.2,0.6,0.3,1,0.3c0.4,0,0.7-0.1,1-0.3
			C287.9,16.4,288,16,288,15.6z M287.8,12.4c0-0.4-0.1-0.6-0.3-0.9s-0.5-0.3-0.8-0.3c-0.3,0-0.6,0.1-0.8,0.3
			c-0.2,0.2-0.3,0.5-0.3,0.9c0,0.4,0.1,0.7,0.3,0.9s0.5,0.3,0.8,0.3c0.3,0,0.6-0.1,0.8-0.3S287.8,12.7,287.8,12.4z"/>
	</g>
</g>
</svg>
