<?xml version="1.0" encoding="UTF-8"?><!DOCTYPE svg PUBLIC "-//W3C//DTD SVG 1.1//EN" "http://www.w3.org/Graphics/SVG/1.1/DTD/svg11.dtd"><svg xmlns="http://www.w3.org/2000/svg" xmlns:xlink="http://www.w3.org/1999/xlink" version="1.1" width="24" height="24" viewBox="0 0 24 24"><path d="M19,12H17V14H16V12H14V11H16V9H17V11H19M9.07,19.2C6.27,19.2 5,17.64 5,16.18C5,15.73 5.14,14.59 6.5,13.8C7.25,13.33 8.33,13 9.62,12.89C9.43,12.64 9.28,12.34 9.28,11.9C9.28,11.75 9.3,11.59 9.34,11.44H8.95C7,11.44 5.8,9.89 5.8,8.39C5.8,6.66 7.09,4.8 9.91,4.8H14.13L13.79,5.14L13.08,5.85L13,5.91H12.3C12.71,6.33 13.2,7 13.2,8.07C13.2,9.47 12.46,10.16 11.64,10.8C11.5,10.92 11.22,11.18 11.22,11.5C11.22,11.82 11.46,12 11.61,12.14C11.74,12.25 11.9,12.36 12.08,12.5C12.89,13.05 14,13.83 14,15.36C14,17.13 12.71,19.2 9.07,19.2M20,2H4A2,2 0 0,0 2,4V20A2,2 0 0,0 4,22H20A2,2 0 0,0 22,20V4C22,2.89 21.1,2 20,2M10.57,13.81C10.46,13.8 10.38,13.8 10.25,13.8H10.23C9.97,13.8 9.08,13.85 8.41,14.07C7.77,14.31 7,14.79 7,15.77C7,16.85 8.04,18 9.96,18C11.5,18 12.4,17 12.4,16C12.4,15.25 11.94,14.79 10.57,13.81M11.2,8.87C11.2,7.85 10.57,5.85 9.12,5.85C8.5,5.85 7.8,6.29 7.8,7.5C7.8,8.7 8.42,10.45 9.77,10.45C9.83,10.45 11.2,10.44 11.2,8.87Z" /></svg>