<svg width="176" height="16" xmlns="http://www.w3.org/2000/svg"><g fill="none" fill-rule="evenodd"><path d="M129.7893333 4.7939397c-.7386666 0-1.7666666.522-2.0566666 1.3333333h-.058V4.9026063H126.4v7.0973334h1.3326667v-3.816c0-1.304.9273333-2.0713334 1.8393333-2.0713334.29 0 .522.0286667.71.1013334l.5073333-1.2453334c-.2753333-.116-.5653333-.1746666-1-.1746666M153.8006667 1.4606063h1.3326666v10.5393334h-1.3326666V1.4606063zM149.658 4.7939397c-1.4333333 0-2.7666667.8006666-2.7666667 2.0506666 0 1.2086667 1.2086667 1.756 1.8406667 1.9106667l1.432.3373333c.7306667.1826667.982.562.982.9133334 0 .5753333-.6173333.952-1.418.952-.8286667 0-1.544-.404-1.9086667-1.2933334l-1.1526666.478c.4073333 1.0006667 1.39 1.9846667 3.048 1.9846667 1.6153333 0 2.752-.9413333 2.752-2.1633333 0-.8433334-.5746667-1.686-1.938-2.0093334l-1.4033334-.3233333c-.548-.126-.9126666-.3646667-.9126666-.8006667 0-.562.6726666-.8673333 1.4033333-.8673333.674 0 1.3473333.2673333 1.6146667.9133333L152.354 6.413273c-.4213333-1.054-1.502-1.6193333-2.696-1.6193333M159.5786667 10.9286063c-.6746667 0-1.5073334-.3473333-1.5073334-1.0773333 0-.632.608-1.3226667 1.9706667-1.3226667 1.096 0 1.6246667.4093334 1.6246667.4093334 0 1.124-1.0626667 1.9906666-2.088 1.9906666m.2806666-6.1346666c-1.728 0-2.7013333 1.006-2.9406666 1.638l1.18.506c.2393333-.646 1.072-.946 1.7886666-.946.9693334 0 1.7793334.602 1.7793334 1.6933333v.1973333c-.2673334-.1546666-.922-.422-1.8493334-.422-1.6153333 0-3.116.8033334-3.116 2.3626667 0 1.4326667 1.2613334 2.304 2.666 2.304 1.1806667 0 1.8633334-.636 2.2433334-1.212h.056v1.0846667H162.922v-4.256c0-1.9386667-1.3766667-2.95-3.0626667-2.95M134.3226667 10.9286063c-.674 0-1.5073334-.3473333-1.5073334-1.0773333 0-.632.6086667-1.3226667 1.9713334-1.3226667 1.0953333 0 1.6246666.4093334 1.6246666.4093334 0 1.124-1.0626666 1.9906666-2.0886666 1.9906666M134.604 4.7939397c-1.728 0-2.702 1.006-2.9406667 1.638l1.18.506c.2393334-.646 1.072-.946 1.7886667-.946.9693333 0 1.7793333.602 1.7793333 1.6933333v.1973333c-.2673333-.1546666-.9226666-.422-1.85-.422-1.6153333 0-3.1153333.8033334-3.1153333 2.3626667 0 1.4326667 1.2613333 2.304 2.666 2.304 1.18 0 1.8633333-.636 2.2426667-1.212h.0566666v1.0846667h1.2553334v-4.256c0-1.9386667-1.3766667-2.95-3.0626667-2.95M170.398 7.623273c.256667-1.0033333 1.027333-1.6313333 1.998-1.6313333 1.498 0 2.011333 1.0353333 2.054 1.6313333h-4.052m2.026-2.8293333c-2.054 0-3.424 1.7133333-3.424 3.6666666 0 2.0793334 1.426667 3.6666667 3.566667 3.6666667 1.612666 0 2.64-.8993333 3.053333-1.8826667l-1.17-.4773333c-.370667.8713333-1.141333 1.1613333-1.912 1.1613333-1.084 0-2.154-.768-2.225333-2.2213333H175.834s.014667-.1486667.014667-.2466667c0-2.22-1.341334-3.6666666-3.424667-3.6666666M142.778 4.7939397c-.9706667 0-1.8686667.5646666-2.2453333 1.216h-.058V4.9026063H139.2v7.0973334h1.3326667V8.197273c0-1.086.71-2.1873333 1.8686666-2.1873333 1.014 0 1.7526667.4926666 1.7526667 1.97v4.02h1.3326667v-4.222c0-1.7526667-.898-2.984-2.7086667-2.984M166.3993333 2.7939397h-1.3326666v2.1086666h-1.246v1.2273334h1.246V9.853273c0 1.4486667.7966666 2.274 2.2886663 2.274.448667 0 .767334-.058 1.072-.188l-.463333-1.1446667c-.188667.0866667-.362667.116-.608667.116-.6226663 0-.9559997-.362-.9559997-1.1593333V6.1299397h1.7379997V4.9026063h-1.7379997V2.7939397M125.95 1.4606063h-7.2166667V2.827273h2.9333334v9.1666667h1.35V2.827273H125.95V1.4606063" fill="#757575"/><path d="M73.16 5.5859397v1.6386666h3.922c-.1173333.922-.4246667 1.5953334-.8926667 2.0633334-.5713333.5706666-1.464 1.2-3.0293333 1.2-2.4153333 0-4.3026667-1.946-4.3026667-4.3606667 0-2.4146667 1.8873334-4.3606667 4.3026667-4.3606667 1.302 0 2.2533333.512 2.956 1.1706667l1.156-1.1566667C76.2913333.8446063 74.9893333.127273 73.16.127273c-3.3073333 0-6.088 2.6926667-6.088 6s2.7806667 6 6.088 6c1.7846667 0 3.1313333-.5853333 4.1853333-1.6826667C78.428 9.361273 78.7646667 7.839273 78.7646667 6.6099397c0-.38-.0293334-.7313334-.088-1.024H73.16" fill="#4285F4"/><path d="M83.6666667 4.2546063c-2.1413334 0-3.8873334 1.6286667-3.8873334 3.8726667 0 2.2293333 1.746 3.8726667 3.8873334 3.8726667 2.142 0 3.8873333-1.6433334 3.8873333-3.8726667 0-2.244-1.7453333-3.8726667-3.8873333-3.8726667zm0 6.2193334c-1.1733334 0-2.186-.968-2.186-2.3466667 0-1.3933333 1.0126666-2.3473333 2.186-2.3473333 1.1733333 0 2.186.954 2.186 2.3473333 0 1.3786667-1.0126667 2.3466667-2.186 2.3466667z" fill="#EB4335"/><path d="M102.72 5.1206063h-.0586667c-.382-.4553333-1.1153333-.866-2.0393333-.866-1.936 0-3.622 1.6866667-3.622 3.8726667 0 2.1706667 1.686 3.8726667 3.622 3.8726667.924 0 1.6573333-.4106667 2.0393333-.88H102.72v.5413333c0 1.4813333-.792 2.2733333-2.0686667 2.2733333-1.0413333 0-1.6866666-.748-1.9506666-1.3786666l-1.4813334.616c.4253334 1.0266666 1.5546667 2.2886666 3.432 2.2886666 1.9953334 0 3.682-1.1733333 3.682-4.034V4.4539397H102.72v.6666666zm-1.9506667 5.3533334C99.596 10.4739397 98.702 9.4766063 98.702 8.127273c0-1.364.894-2.3473333 2.0673333-2.3473333 1.1593334 0 2.068.998 2.068 2.362 0 1.3493333-.9086666 2.332-2.068 2.332z" fill="#4285F4"/><path d="M92.3333333 4.2546063C90.192 4.2546063 88.446 5.883273 88.446 8.127273c0 2.2293333 1.746 3.8726667 3.8873333 3.8726667 2.142 0 3.8873334-1.6433334 3.8873334-3.8726667 0-2.244-1.7453334-3.8726667-3.8873334-3.8726667zm0 6.2193334c-1.1733333 0-2.1853333-.968-2.1853333-2.3466667 0-1.3933333 1.012-2.3473333 2.1853333-2.3473333 1.1733334 0 2.186.954 2.186 2.3473333 0 1.3786667-1.0126666 2.3466667-2.186 2.3466667z" fill="#FBBC05"/><path d="M105.6666667.287273H107.34v11.7126667h-1.6733333V.287273z" fill="#34A853"/><path d="M112.51 10.4739397c-.8653333 0-1.4813333-.3953334-1.878-1.1726667l5.178-2.142-.176-.44c-.3226667-.8653333-1.3053333-2.4646667-3.3146667-2.4646667-1.9953333 0-3.6526666 1.57-3.6526666 3.8726667 0 2.1713333 1.6426666 3.8726667 3.8433333 3.8726667 1.7746667 0 2.8013333-1.0853334 3.2266667-1.7166667l-1.32-.88c-.44.646-1.0413334 1.0706667-1.9066667 1.0706667zm-.126-4.768c.6886667 0 1.272.3506666 1.4666667.854l-3.4973334 1.45c0-1.6326667 1.1546667-2.304 2.0306667-2.304z" fill="#EB4335"/><text opacity=".54" font-family="Roboto" font-size="12" fill="#000"><tspan x="0" y="12">powered by</tspan></text></g></svg>