<?xml version="1.0" encoding="utf-8"?>
<!-- Generator: Adobe Illustrator 16.0.4, SVG Export Plug-In . SVG Version: 6.00 Build 0)  -->
<!DOCTYPE svg PUBLIC "-//W3C//DTD SVG 1.1//EN" "http://www.w3.org/Graphics/SVG/1.1/DTD/svg11.dtd">
<svg version="1.1" id="Layer_1" xmlns="http://www.w3.org/2000/svg" xmlns:xlink="http://www.w3.org/1999/xlink" x="0px" y="0px"
	 width="865px" height="159px" viewBox="0 0 865 159" enable-background="new 0 0 865 159" xml:space="preserve">
<path opacity="0.15" fill="#404040" d="M861.049,9.375H690.951c-3.734,0-4.951,1.467-4.951,4.202v122.097
	c0,2.734,2.217,5.701,4.951,5.701H756l-5,15h-9v2h68v-2h-8l-5-15h63.049c2.734,0,4.951-2.967,4.951-5.701V13.577
	C865,10.842,862.783,9.375,861.049,9.375z M858,122.375c0,0.553-0.447,1-1,1H694c-0.553,0-1-0.447-1-1v-105c0-0.552,0.447-1,1-1h163
	c0.553,0,1,0.448,1,1V122.375z"/>
<path opacity="0.15" fill="#404040" d="M626,5.375c0-1.657-1.343-3-3-3H521c-1.657,0-3,1.343-3,3v149c0,1.657,1.343,3,3,3h102
	c1.657,0,3-1.343,3-3V5.375z M572.438,148.583c-2.151,0-3.896-1.744-3.896-3.896s1.744-3.896,3.896-3.896s3.896,1.744,3.896,3.896
	S574.589,148.583,572.438,148.583z M618,135.375c0,0.553-0.448,1-1,1h-90c-0.552,0-1-0.447-1-1v-124c0-0.552,0.448-1,1-1h90
	c0.552,0,1,0.448,1,1V135.375z"/>
<path opacity="0.15" fill="#404040" d="M457,24.375h-49c-0.552,0-1,0.448-1,1v87c0,0.553,0.448,1,1,1h49c0.552,0,1-0.447,1-1v-87
	C458,24.823,457.552,24.375,457,24.375z M428,28.375h9v1h-9V28.375z M432.527,108.867c-1.361,0-2.465-1.104-2.465-2.465
	s1.104-2.465,2.465-2.465s2.464,1.104,2.464,2.465S433.889,108.867,432.527,108.867z M453,98.375c0,0.553-0.448,1-1,1h-39
	c-0.552,0-1-0.447-1-1v-65c0-0.552,0.448-1,1-1h39c0.552,0,1,0.448,1,1V98.375z"/>
<path opacity="0.15" fill="#404040" d="M0,13.577v122.097c0,2.734,2.217,5.701,4.951,5.701H68l-5,15h-8v2h68v-2h-9l-5-15h65.049
	c2.734,0,4.951-2.967,4.951-5.701V13.577c0-2.734-1.217-4.202-4.951-4.202H3.951C2.217,9.375,0,10.842,0,13.577z M7,17.375
	c0-0.552,0.447-1,1-1h163c0.553,0,1,0.448,1,1v105c0,0.553-0.447,1-1,1H8c-0.553,0-1-0.447-1-1V17.375z"/>
<path opacity="0.15" fill="#404040" d="M239,154.375c0,1.657,1.343,3,3,3h102c1.657,0,3-1.343,3-3v-149c0-1.657-1.343-3-3-3H242
	c-1.657,0-3,1.343-3,3V154.375z M288.667,144.688c0-2.151,1.744-3.896,3.896-3.896s3.896,1.744,3.896,3.896
	s-1.744,3.896-3.896,3.896S288.667,146.839,288.667,144.688z M247,11.375c0-0.552,0.448-1,1-1h90c0.552,0,1,0.448,1,1v124
	c0,0.553-0.448,1-1,1h-90c-0.552,0-1-0.447-1-1V11.375z"/>
</svg>
