<svg xmlns="http://www.w3.org/2000/svg" xmlns:xlink="http://www.w3.org/1999/xlink" xmlns:v="http://vecta.io" width="192" height="192" viewBox="0 0 192 192" ><style><![CDATA[svg{stroke:#000;stroke-linecap:round;stroke-linejoin:round;fill:#fff;fill-rule:evenodd;font-family:Roboto;font-size:14px;text-anchor:middle} svg text{stroke:none}]]></style><g transform="translate(0.5 0.5)" stroke="none"><g transform="translate(11.5 15.5)"><path d="M 51.5 0 L 118.5 0 L 115.5 39.5 L 148 26 L 169.25 87.25 L 132 97.5 L 156.5 129 L 104 167.5 L 83.25 135.5 L 63.25 167 L 9.75 128.75 L 35.5 97.5 L 0 87 L 20 26.5 L 54.5 40.25 Z" stroke-linejoin="miter" fill="#3372DF" stroke="none" stroke-opacity="1"/></g><g transform="translate(33.5 33.5)"><path d="M 49 0 L 76.75 0 L 73.25 49.25 L 115 31.75 L 124.75 57.5 L 80.5 70.25 L 109.5 107.5 L 87 124.5 L 61.25 84.75 L 36.25 124.5 L 12.75 107.5 L 44.25 69.5 L 0 57.5 L 9 32 L 52 49 Z" stroke-linejoin="miter" stroke="none" stroke-opacity="1"/></g><g></g></g></svg>