<?xml version="1.0" encoding="UTF-8" standalone="no"?>
<svg width="195px" height="195px" viewBox="0 0 195 195" version="1.1" xmlns="http://www.w3.org/2000/svg" xmlns:xlink="http://www.w3.org/1999/xlink" xmlns:sketch="http://www.bohemiancoding.com/sketch/ns">
    <title>discovery-and-distribution</title>
    <description>Created with Sketch (http://www.bohemiancoding.com/sketch)</description>
    <defs></defs>
    <g id="Page-1" stroke="none" stroke-width="1" fill="none" fill-rule="evenodd" sketch:type="MSPage">
        <path d="M125.87037,126.440992 C154.527056,117.305298 175.282486,90.4677386 175.282486,58.7824856 C175.282486,19.5702664 143.494705,-12.2175144 104.282486,-12.2175144 C65.0702664,-12.2175144 33.2824856,19.5702664 33.2824856,58.7824856 C33.2824856,90.1586769 53.6349881,116.781284 81.8583063,126.16862 C79.5870934,129.980935 78.2824856,134.434466 78.2824856,139.189924 L78.2824856,195.203475 C78.2824856,209.282994 89.6961279,220.696699 103.782486,220.696699 C117.865747,220.696699 129.282486,209.271184 129.282486,195.203475 L129.282486,139.189924 C129.282486,134.545539 128.040533,130.191229 125.870374,126.440991 Z M104.489592,112.989592 C132.932258,112.989592 155.989592,89.0368279 155.989592,59.4895924 C155.989592,29.9423568 132.932258,5.98959236 104.489592,5.98959236 C76.0469263,5.98959236 52.9895924,29.9423568 52.9895924,59.4895924 C52.9895924,89.0368279 76.0469263,112.989592 104.489592,112.989592 Z" id="Oval-1" stroke="#979797" fill="#D8D8D8" sketch:type="MSShapeGroup" transform="translate(104.282486, 104.282486) rotate(-45.000000) translate(-104.282486, -104.282486) "></path>
    </g>
</svg>