<?xml version="1.0" standalone="no"?>
<!DOCTYPE svg PUBLIC "-//W3C//DTD SVG 1.1//EN" "http://www.w3.org/Graphics/SVG/1.1/DTD/svg11.dtd" >
<svg xmlns="http://www.w3.org/2000/svg">
<metadata>
Created by FontForge 20120731 at Fri Nov  7 10:29:21 2014
 By Paul Kinlan
Created by Paul Kinlan with FontForge 2.0 (http://fontforge.sf.net)
</metadata>
<defs>
<font id="icons" horiz-adv-x="512" >
  <font-face 
    font-family="icons"
    font-weight="500"
    font-stretch="normal"
    units-per-em="512"
    panose-1="2 0 6 3 0 0 0 0 0 0"
    ascent="448"
    descent="-64"
    bbox="-0.6 -86 512 448"
    underline-thickness="25"
    underline-position="-52"
    unicode-range="U+E001-E01F"
  />
<missing-glyph horiz-adv-x="187" 
d="M17 0v341h136v-341h-136zM34 17h102v307h-102v-307z" />
    <glyph glyph-name=".notdef" horiz-adv-x="187" 
d="M17 0v341h136v-341h-136zM34 17h102v307h-102v-307z" />
    <glyph glyph-name=".null" horiz-adv-x="0" 
 />
    <glyph glyph-name="nonmarkingreturn" horiz-adv-x="170" 
 />
    <glyph glyph-name="uniE001" unicode="&#xe001;" 
d="M0 -64v512h512v-512h-512z" />
    <glyph glyph-name="uniE002" unicode="&#xe002;" 
d="M512 448v-154l-256 -204l-256 204v154l256 -205z" />
    <glyph glyph-name="uniE003" unicode="&#xe003;" horiz-adv-x="306" 
d="M0 448h104l202 -257l-202 -255h-104l201 255z" />
    <glyph glyph-name="uniE004" unicode="&#xe004;" horiz-adv-x="307" 
d="M159 192l148 -256h-159l-148 256l148 256h159z" />
    <glyph glyph-name="uniE005" unicode="&#xe005;" horiz-adv-x="307" 
d="M0 448h159l148 -256l-148 -256h-159l148 256z" />
    <glyph glyph-name="uniE006" unicode="&#xe006;" 
d="M256 294l-256 -204v153l256 205l256 -205v-153z" />
    <glyph glyph-name="uniE007" unicode="&#xe007;" 
d="M452 448l60 -60l-452 -452l-60 60zM60 448l452 -452l-60 -60l-452 452z" />
    <glyph glyph-name="uniE008" unicode="&#xe008;" 
d="M512 160l-77 -32q-4 -12 -7 -18l32 -76l-45 -45l-77 31q-12 -6 -18 -8l-32 -76h-64l-32 76q-15 5 -19 7l-75 -31l-45 45l30 76q-6 12 -8 19l-75 32v64l75 32q2 7 8 19l-31 75l45 45l76 -30q4 2 19 7l32 76h64l32 -76q12 -4 18 -7l76 31l45 -45l-31 -77q6 -12 8 -18
l76 -32v-64zM256 80q46 0 78.5 32.5t32.5 79.5t-32.5 79.5t-78.5 32.5t-79 -33t-33 -79t33 -79t79 -33z" />
    <glyph glyph-name="uniE009" unicode="&#xe009;" horiz-adv-x="371" 
d="M75 417q-31 0 -53 -22t-22 -53v-353q0 -31 22 -53t53 -22h221q31 0 53 22t22 53v353q0 31 -22 53t-53 22h-221zM75 408h221q28 0 47 -19t19 -47v-353q0 -27 -19 -46.5t-47 -19.5h-221q-28 0 -47 19t-19 47v353q0 27 19 46.5t47 19.5zM185 -60q-17 0 -17 18t17 18
q7 0 12.5 -5t5.5 -13t-5.5 -13t-12.5 -5zM185 -68q11 0 19 7.5t8 18.5t-8 19t-19 8t-18.5 -8t-7.5 -19t7.5 -18.5t18.5 -7.5zM93 373h185q16 0 28 -11.5t12 -28.5v-291q0 -16 -12 -28t-28 -12h-185q-17 0 -28.5 12t-11.5 28v291q0 17 11.5 28.5t28.5 11.5zM278 382h-185
q-20 0 -34.5 -14.5t-14.5 -34.5v-291q0 -20 14.5 -34.5t34.5 -14.5h185q20 0 34.5 14.5t14.5 34.5v291q0 20 -14.5 34.5t-34.5 14.5zM185 -60q-17 0 -17 18t17 18q7 0 12.5 -5t5.5 -13t-5.5 -13t-12.5 -5zM185 -68q11 0 19 7.5t8 18.5t-8 19t-19 8t-18.5 -8t-7.5 -19
t7.5 -18.5t18.5 -7.5zM93 373h185q16 0 28 -11.5t12 -28.5v-291q0 -16 -12 -28t-28 -12h-185q-17 0 -28.5 12t-11.5 28v291q0 17 11.5 28.5t28.5 11.5zM278 382h-185q-20 0 -34.5 -14.5t-14.5 -34.5v-291q0 -20 14.5 -34.5t34.5 -14.5h185q20 0 34.5 14.5t14.5 34.5v291
q0 20 -14.5 34.5t-34.5 14.5zM93 373h185q16 0 28 -11.5t12 -28.5v-291q0 -16 -12 -28t-28 -12h-185q-17 0 -28.5 12t-11.5 28v291q0 17 11.5 28.5t28.5 11.5zM278 382h-185q-20 0 -34.5 -14.5t-14.5 -34.5v-291q0 -20 14.5 -34.5t34.5 -14.5h185q20 0 34.5 14.5t14.5 34.5
v291q0 20 -14.5 34.5t-34.5 14.5zM75 413h221q29 0 49.5 -21t20.5 -50v-353q0 -29 -20.5 -50t-49.5 -21h-221q-29 0 -50 21t-21 50v353q0 29 21 50t50 21zM185 -64q9 0 15.5 6.5t6.5 15.5t-6.5 15.5t-15.5 6.5t-15.5 -6.5t-6.5 -15.5t6.5 -15.5t15.5 -6.5zM173 377h-80
q-18 0 -31 -13t-13 -31v-291q0 -18 13 -31t31 -13h185q18 0 31 13t13 31v291q0 18 -13 31t-31 13h-105z" />
    <glyph glyph-name="uniE00A" unicode="&#xe00a;" 
d="M0 192l256 256l256 -256l-256 -256z" />
    <glyph glyph-name="uniE00B" unicode="&#xe00b;" horiz-adv-x="508" 
d="M355 174q27 52 18 112.5t-53 104.5q-55 55 -132.5 55t-132.5 -55t-55 -132.5t55 -132.5q43 -43 103 -52.5t112 16.5q4 -16 18 -30l104 -104q20 -20 48 -20t48 20t20 48.5t-20 48.5l-104 104q-12 13 -29 17zM353 172q18 -5 30 -17l103 -104q20 -19 20 -46t-20 -47t-46 -20
t-46 20l-104 104q-14 14 -18 30v2l-1 -1q-51 -27 -111 -17.5t-103 52.5q-54 54 -54 131t54 131t131 54t131 -54q43 -43 52 -103.5t-19 -112.5v-2h1zM288 159q-39 -39 -95.5 -38t-97.5 42t-42 97.5t38 95.5t95.5 38t97.5 -42t42 -97.5t-38 -95.5zM290 157q40 40 38.5 98
t-42.5 99t-99 42.5t-98 -38.5t-38.5 -98t42.5 -99t99 -42.5t98 38.5zM288 159q-39 -39 -95.5 -38t-97.5 42t-42 97.5t38 95.5t95.5 38t97.5 -42t42 -97.5t-38 -95.5zM290 157q40 40 38.5 98t-42.5 99t-99 42.5t-98 -38.5t-38.5 -98t42.5 -99t99 -42.5t98 38.5zM353 173
q18 -5 30 -17l104 -104q19 -20 19 -48t-19 -47t-47 -19t-47 19l-104 104q-13 13 -18 31q-52 -27 -112 -17.5t-103 52.5q-55 55 -55 131.5t55 131.5t132 55t132 -55q44 -44 52.5 -104.5t-19.5 -112.5zM289 158q40 40 38.5 97t-42.5 98t-98 42.5t-97 -38.5t-38.5 -97t42.5 -98
t98 -42.5t97 38.5z" />
    <glyph glyph-name="uniE00C" unicode="&#xe00c;" horiz-adv-x="116" 
d="M116 111h-116v337h116v-337zM116 -64h-116v93h116v-93z" />
    <glyph glyph-name="uniE00D" unicode="&#xe00d;" 
d="M219 6h-113l-106 186l106 186h113l-105 -186zM293 378h113l106 -186l-106 -186h-113l105 186z" />
    <glyph glyph-name="uniE00E" unicode="&#xe00e;" horiz-adv-x="442" 
d="M0 448h442v-512h-442v512zM419 -41v466h-396v-466h396zM58 308v47h326v-47h-326zM58 204v46h326v-46h-326zM58 99v46h279v-46h-279z" />
    <glyph glyph-name="uniE00F" unicode="&#xe00f;" horiz-adv-x="392" 
d="M205 80h-57l-24 -144h-70l24 144h-78v65h89l15 92h-78v65h89l24 146h69l-23 -146h56l24 146h70l-24 -146h81v-65h-91l-16 -92h81v-65h-91l-24 -144h-70zM159 145h56l16 92h-57z" />
    <glyph glyph-name="uniE010" unicode="&#xe010;" 
d="M0 -23l116 291l233 -291h-349zM236 155l160 217l116 -395h-163zM140 349q0 58 58 58t58 -58t-58 -58t-58 58z" />
    <glyph glyph-name="uniE011" unicode="&#xe011;" horiz-adv-x="442" 
d="M0 448h442v-512h-442v512zM419 -41v466h-396v-466h396zM58 308v47h326v-47h-326zM58 204v46h326v-46h-326zM58 99v46h279v-46h-279z" />
    <glyph glyph-name="uniE012" unicode="&#xe012;" horiz-adv-x="341" 
d="M316 407q-80 -66 -115 -123q-16 -25 -35 -65.5t-30 -68.5l-12 -27l32 -20q74 67 117 135q19 30 36 69t25 63l7 23zM116 108q-28 -9 -40 -38q-5 -11 -7 -20.5t-4 -15.5t-8 -14q-7 -10 -21 -15.5t-25 -6.5h-11q42 -3 64 -3q38 0 63 32q8 11 13 26t6 25v10z" />
    <glyph glyph-name="uniE013" unicode="&#xe013;" 
d="M0 372v76h512v-76h-512zM0 220v76h512v-76h-512zM0 69v76h512v-76h-512z" />
    <glyph glyph-name="uniE014" unicode="&#xe014;" 
d="M0 227h512v-70h-512v70z" />
    <glyph glyph-name="uniE015" unicode="&#xe015;" horiz-adv-x="256" 
d="M125 160q37 -13 52 -28t15 -36q0 -25 -17 -39q-18 -15 -48 -15q-27 0 -46 16q-18 16 -18 52v7h-63v-8q-2 -57 30 -87q27 -27 71 -34v-51h54v51q45 6 72 33q29 29 29 76t-27 74t-82 45q-41 14 -55 28t-14 37q0 25 14 39t41 14q26 0 41 -19t15 -54v-6h64v6q0 54 -26 88
q-23 30 -66 39v59h-55v-59q-41 -8 -66 -34q-26 -27 -26 -74q0 -48 28 -76q27 -27 83 -44zM129 172q-53 16 -77 41q-25 24 -25 67q0 40 23 66q21 24 64 30l5 1v57h29v-57l5 -1q41 -6 64 -35q21 -27 23 -73h-38q-1 32 -18 55q-18 24 -51 24t-51 -18q-17 -17 -17 -48
q0 -28 18 -46q15 -15 59 -31q51 -16 77 -42q24 -24 24 -65q0 -43 -25 -67q-27 -26 -70 -30h-6v-50h-28v50h-5q-43 4 -70 31q-24 23 -26 73h37q1 -37 23 -56q24 -19 54 -19q36 0 57 18t21 49q0 26 -19 45q-17 17 -57 31zM182 136q-16 16 -55 30q-54 17 -80 43q-27 27 -27 71
q0 42 25 70q24 27 68 33v57h41v-58q44 -6 68 -37t24 -84h-51q0 36 -16 58t-46 22q-31 0 -46 -16q-15 -17 -15 -44t15 -41q19 -18 58 -30q52 -16 79 -43q26 -26 26 -70q0 -45 -27 -72q-26 -26 -74 -31v-50h-41v50q-47 5 -74 32q-29 29 -27 83v1h50q0 -40 20 -57t50 -17
q33 0 52 16t19 44q0 24 -16 40z" />
    <glyph glyph-name="uniE016" unicode="&#xe016;" 
d="M36 156l-36 36l123 122l36 -36zM123 70l-123 122l36 36l123 -122zM476 228l36 -36l-123 -122l-36 36zM389 314l123 -122l-36 -36l-123 122zM33 204v-24h411v24h-411z" />
    <glyph glyph-name="uniE017" unicode="&#xe017;" 
d="M221 37q0 35 35 35t35 -35t-35 -35t-35 35zM402 258q-67 76 -169 76q-89 0 -156 -62q-66 -62 -71 -152h-6v3v3q0 106 75 181t181 75q110 0 185 -80zM237 42l26 -23l221 246l-26 24zM444 189l43 47q25 -51 25 -110v-2q0 -2 -0.5 -5t-0.5 -7l-53 20q-3 27 -14 57z" />
    <glyph glyph-name="uniE018" unicode="&#xe018;" 
d="M221 448h70v-512h-70v512zM0 227h512v-70h-512v70z" />
    <glyph glyph-name="uniE019" unicode="&#xe019;" 
d="M256 220q11 0 19.5 -8.5t8.5 -19.5t-8.5 -19.5t-19.5 -8.5t-19.5 8.5t-8.5 19.5t8.5 19.5t19.5 8.5zM256 448q106 0 181 -75t75 -181t-75 -181t-181 -75t-181 75t-75 181t75 181t181 75zM312 136l98 210l-210 -98l-98 -210z" />
    <glyph glyph-name="uniE01A" unicode="&#xe01a;" horiz-adv-x="344" 
d="M100 76q0 48 17 73q18 26 61 56q24 16 37 36t13 49q0 28 -16 46q-15 17 -44 17q-22 0 -38 -14t-16 -42h-113l-1 2q-1 71 46 108q53 41 122 41q76 0 129 -46q47 -41 47 -112q0 -42 -26 -79q-24 -34 -65 -56q-22 -14 -30 -33q-7 -15 -7 -46h-116zM209 -64h-104v81h104v-81z
" />
    <glyph glyph-name="uniE01B" unicode="&#xe01b;" horiz-adv-x="372" 
d="M372 448l-200 -512h-172l201 512h171z" />
    <glyph glyph-name="uniE01C" unicode="&#xe01c;" 
d="M182 162l-182 52l36 108l177 -75l-13 201h119l-15 -205l172 73l36 -109l-183 -52l121 -152l-95 -67l-103 168l-101 -162l-96 64z" />
    <glyph glyph-name="uniE01D" unicode="&#xe01d;" 
d="M0 92l50 104l301 -145l-50 -104zM512 386l-211 -439l-105 50l212 439z" />
    <glyph glyph-name="uniE01E" unicode="&#xe01e;" horiz-adv-x="510" 
d="M232 398q48 -48 36 -115l-1 -3l212 -211q20 -20 20 -49t-20 -49l-3 -3q-20 -20 -49 -20t-49 20l-211 212l-3 -1q-67 -12 -115 36q-42 42 -37 104l90 -91l94 23l23 94l-90 90q61 5 103 -37zM240 406q-52 52 -124 39l-11 -2l101 -102l-20 -80l-80 -20l-102 101l-2 -10
q-13 -73 39 -125q50 -50 122 -40l207 -207q23 -23 56.5 -23.5t57.5 23.5l3 3q23 23 23 57t-23 57l-207 207q11 71 -40 122zM452 -5q-8 -7 -19 -7t-18 7t-7 18t7 19t18 8t19 -8t8 -19t-8 -18zM460 -13q11 11 11 26.5t-11 26.5t-26.5 11t-26.5 -11t-11 -26.5t11 -26.5
t26.5 -11t26.5 11zM452 -5q-8 -7 -19 -7t-18 7t-7 18t7 19t18 8t19 -8t8 -19t-8 -18zM460 -13q11 11 11 26.5t-11 26.5t-26.5 11t-26.5 -11t-11 -26.5t11 -26.5t26.5 -11t26.5 11z" />
    <glyph glyph-name="uniE01F" unicode="&#xe01f;" 
d="M314 192q0 -24 -17 -41t-41 -17t-41 17t-17 41t17 41t41 17t41 -17t17 -41zM256 320q-53 0 -90.5 -37.5t-37.5 -90.5t37.5 -90.5t90.5 -37.5t90.5 37.5t37.5 90.5t-37.5 90.5t-90.5 37.5zM256 343q63 0 107 -44t44 -107t-44 -107t-107 -44t-107 44t-44 107t44 107t107 44
zM256 436q-101 0 -172.5 -71.5t-71.5 -172.5t71.5 -172.5t172.5 -71.5t172.5 71.5t71.5 172.5t-71.5 172.5t-172.5 71.5zM256 448q106 0 181 -75t75 -181t-75 -181t-181 -75t-181 75t-75 181t75 181t181 75z" />
  </font>
</defs>
</svg>
