<?xml version="1.0" encoding="UTF-8" standalone="no"?>
<svg width="44px" height="44px" viewBox="0 0 44 44" version="1.1" xmlns="http://www.w3.org/2000/svg" xmlns:xlink="http://www.w3.org/1999/xlink" xmlns:sketch="http://www.bohemiancoding.com/sketch/ns">
    <!-- Generator: Sketch 3.0.4 (8053) - http://www.bohemiancoding.com/sketch -->
    <title> 45</title>
    <desc>Created with Sketch.</desc>
    <defs></defs>
    <g id="Page-1" stroke="none" stroke-width="1" fill="none" fill-rule="evenodd" sketch:type="MSPage">
        <g id="-45" sketch:type="MSArtboardGroup" fill="#FFFFFF">
            <path d="M34.5883789,3.55297852 C34.5883789,3.55297852 27.713623,9.23632812 24.7021484,14.1181641 C21.6906738,19 18.1066895,27.9277344 18.1066895,27.9277344 L20.8139648,29.6601562 C20.8139648,29.6601562 27.2353516,23.9257812 30.9118652,18.0688477 C34.5883789,12.2119141 36.7521973,4.74243164 36.7521973,4.74243164 L34.5883789,3.55297852 Z" id="Path-1" sketch:type="MSShapeGroup"></path>
            <path d="M17.4060059,29.2297363 L20,30.8945312 C20,30.8945312 20,34.130332 18.3278809,36.2043457 C16.6557617,38.2783594 14.8425293,38.9519043 12.9111328,38.9519043 C10.9797363,38.9519043 7.44042969,38.6696777 7.44042969,38.6696777 C7.44042969,38.6696777 11.019578,38.7049856 12.3405762,36.7932129 C13.4946289,35.1230467 13.0002441,35.0116498 13.9936523,32.4824219 C14.9870605,29.953194 17.4060059,29.2297363 17.4060059,29.2297363 Z" id="Path-2" sketch:type="MSShapeGroup"></path>
        </g>
    </g>
</svg>