<?xml version="1.0" encoding="utf-8"?>
<!-- Generator: Adobe Illustrator 16.0.4, SVG Export Plug-In . SVG Version: 6.00 Build 0)  -->
<!DOCTYPE svg PUBLIC "-//W3C//DTD SVG 1.1//EN" "http://www.w3.org/Graphics/SVG/1.1/DTD/svg11.dtd">
<svg version="1.1" id="Layer_1" xmlns="http://www.w3.org/2000/svg" xmlns:xlink="http://www.w3.org/1999/xlink" x="0px" y="0px"
	 width="44px" height="44px" viewBox="0 0 44 44" enable-background="new 0 0 44 44" xml:space="preserve">
<path fill="#4D4D4D" d="M27,22c0,2.765-2.238,5-5,5c-2.762,0-5-2.235-5-5c0-2.766,2.238-5,5-5C24.762,17,27,19.234,27,22z"/>
<g>
	<path fill="#4D4D4D" d="M22,11c6.065,0,11,4.935,11,11s-4.935,11-11,11s-11-4.935-11-11S15.935,11,22,11 M22,9
		C14.819,9,9,14.818,9,22c0,7.185,5.819,13,13,13s13-5.815,13-13C35,14.818,29.181,9,22,9L22,9z"/>
</g>
<g>
	<path fill="#4D4D4D" d="M22,1c11.579,0,21,9.42,21,21c0,11.579-9.421,21-21,21C10.42,43,1,33.579,1,22C1,10.42,10.42,1,22,1 M22,0
		C9.848,0,0,9.848,0,22s9.848,22,22,22s22-9.848,22-22S34.152,0,22,0L22,0z"/>
</g>
</svg>
