<?xml version="1.0" encoding="UTF-8" standalone="no"?>
<svg width="160px" height="160px" viewBox="0 0 160 160" version="1.1" xmlns="http://www.w3.org/2000/svg" xmlns:xlink="http://www.w3.org/1999/xlink" xmlns:sketch="http://www.bohemiancoding.com/sketch/ns">
    <!-- Generator: Sketch 3.1 (8751) - http://www.bohemiancoding.com/sketch -->
    <title>mobile site</title>
    <desc>Created with Sketch.</desc>
    <defs></defs>
    <g id="Page-1" stroke="none" stroke-width="1" fill="none" fill-rule="evenodd" sketch:type="MSPage">
        <g id="mobile-site" sketch:type="MSArtboardGroup">
            <g id="Body-4" sketch:type="MSLayerGroup" transform="translate(76.500000, 80.976898) scale(-1, 1) translate(-76.500000, -80.976898) translate(27.000000, 8.976898)">
                <path d="M-0.00042771102,36.0231027 L8.99957182,36.0231018 L8.99957229,27.0231027 L53.9995723,27.0231027 L53.9999995,17.9537954 L63.0004268,17.9537963 L62.9999995,27.0231036 L72,27.0231036 L71.9995723,36.1042985 L80.9995718,36.0231018 L80.9999995,72.0231008 L80.9999995,81.0231008 L-0.00042771102,81.0231011 L-0.00042771102,36.0231027 Z" id="Path-1" fill="#CEA590" sketch:type="MSShapeGroup"></path>
                <path d="M8.99999995,81.0231023 L8.99999995,90.023102 L72,90.023102 L72,81.0231023 L8.99999995,81.0231023 Z" id="Rectangle-3" fill="#C19B89" sketch:type="MSShapeGroup"></path>
                <path d="M72.0000005,72 L72,80.9999998 L81,80.9999998 L81.0000005,72 L72.0000005,72 Z" id="Rectangle-3" fill="#C19B89" sketch:type="MSShapeGroup"></path>
                <path d="M31,72 L31,81.0231028 L45,81.0231028 L45,72 L31,72 Z" id="Rectangle-3" fill="#815D46" sketch:type="MSShapeGroup"></path>
                <path d="M22.9999999,63.0000003 L22.9999999,71.9999999 L53.9999999,71.9999999 L53.9999999,62.9999999 L22.9999999,63.0000003 Z" id="Rectangle-3" fill="#815D46" sketch:type="MSShapeGroup"></path>
                <path d="M40.9999998,63.0000003 L41,72.0000003 L54,72.0000003 L53.9999998,63.0000003 L40.9999998,63.0000003 Z" id="Rectangle-3" fill="#AB724D" sketch:type="MSShapeGroup"></path>
                <path d="M58,45 L58,53.9004278 L67,53.9004282 L67,45.0000004 L58,45 Z" id="Rectangle-2" fill="#000000" sketch:type="MSShapeGroup"></path>
                <path d="M9,45 L9,53.9004278 L18,53.9004282 L18,45.0000004 L9,45 Z" id="Rectangle-3" fill="#000000" sketch:type="MSShapeGroup"></path>
                <path d="M27,126.023102 L27,108.023102 L8.9999943,108.023102 L9.00000002,99.0231023 L35.9999993,99.0231024 L35.9999993,90.0231023 L54.0000012,90.0231023 L54.0000012,99.0231024 L89.9999957,99.0231023 L89.9999943,108.023102 L63.0000043,108.023103 L63,126.248928" id="Path-4" fill="#4C4D54" sketch:type="MSShapeGroup"></path>
                <rect id="Rectangle-3" fill="#CBB550" sketch:type="MSShapeGroup" x="78.5454545" y="0" width="9.81818182" height="8.97689769"></rect>
                <path d="M-2.58425919e-06,99.0231023 L-2.58425919e-06,108.023103 L8.99999742,108.023103 L8.99999742,99.0231023 L-2.58425919e-06,99.0231023 Z" id="Rectangle-2" fill="#CEA590" sketch:type="MSShapeGroup"></path>
                <path d="M26.9999995,135.023102 L27,144.023102 L36.0000004,144.023102 L36,135.023102 L26.9999995,135.023102 Z" id="Rectangle-2" fill="#5274AD" sketch:type="MSShapeGroup"></path>
                <path d="M36,135.023102 L36,144.023102 L45.0000003,144.023102 L45.0000003,135.023102 L36,135.023102 Z" id="Rectangle-2" fill="#000000" sketch:type="MSShapeGroup"></path>
                <path d="M53.9999996,135 L54.0000001,144 L63.0000006,144.000001 L63.0000001,135 L53.9999996,135 Z" id="Rectangle-3" fill="#5274AD" sketch:type="MSShapeGroup"></path>
                <path d="M63.0000002,135 L63.0000002,144 L72.0000004,144 L72.0000004,135 L63.0000002,135 Z" id="Rectangle-3" fill="#000000" sketch:type="MSShapeGroup"></path>
                <path d="M90,99.0231023 L90,108.023102 L99,108.023102 L99,99.0231023 L90,99.0231023 Z" id="Rectangle-2" fill="#CEA590" sketch:type="MSShapeGroup"></path>
                <rect id="Rectangle-19" fill="#5274AD" sketch:type="MSShapeGroup" x="27" y="126.023102" width="36" height="9"></rect>
            </g>
            <g id="Hair-4" sketch:type="MSLayerGroup" transform="translate(76.500000, 67.500000) scale(-1, 1) translate(-76.500000, -67.500000) translate(27.000000, 0.000000)">
                <path d="M9.00000001,35.999999 L63.0000017,35.9999971 L63,27.0000009 L72,27.0000009 L72.0000017,35.9999971 L80.9999979,35.9999995 L80.9999979,44.88449 L90,44.8844914 L90,9.00000298 L81,9.00000058 L81,4.66064435e-07 L9.00000001,4.66064449e-07 L9.00000001,9.00000047 L9.00000001,35.999999 Z" id="Path-2" fill="#0A0A0A" sketch:type="MSShapeGroup"></path>
                <rect id="Rectangle-2" fill="#000000" sketch:type="MSShapeGroup" x="81" y="27" width="18" height="8.90759075"></rect>
                <rect id="Rectangle-2" fill="#3D3D3D" sketch:type="MSShapeGroup" x="63" y="26.9884488" width="9" height="9"></rect>
                <rect id="Rectangle-2" fill="#626557" sketch:type="MSShapeGroup" x="54" y="108" width="9" height="9"></rect>
                <path d="M45,117 L45,126 L54,126 L54,117 L45,117 Z" id="Rectangle-2" fill="#7B7E70" sketch:type="MSShapeGroup"></path>
                <rect id="Rectangle-2" fill="#626557" sketch:type="MSShapeGroup" x="54" y="126" width="9.00000034" height="9"></rect>
                <path d="M36,108 L36,117 L45.0316532,117 L45.0316532,108 L36,108 Z" id="Rectangle-2" fill="#7B7E70" sketch:type="MSShapeGroup"></path>
                <path d="M27,117 L27,126 L36,126 L36.0000004,117 L27,117 Z" id="Rectangle-2" fill="#7B7E70" sketch:type="MSShapeGroup"></path>
                <path d="M36,126 L36,135 L45,135 L45,126 L36,126 Z" id="Rectangle-2" fill="#7B7E70" sketch:type="MSShapeGroup"></path>
                <rect id="Rectangle-2" fill="#545454" sketch:type="MSShapeGroup" x="72" y="35.9884488" width="9" height="9"></rect>
                <path d="M-5.68434189e-14,17.9537954 L-5.68434189e-14,45.0000005 L9,45.0000001 L8.9999996,18.069307 L-5.68434189e-14,17.9537954 Z" id="Rectangle-2" fill="#0A0A0A" sketch:type="MSShapeGroup"></path>
                <path d="M81,35.9075892 L81,71.8151799 L90.0000003,71.8151797 L90.0000005,35.907589 L81,35.9075892 Z" id="Rectangle-4" fill="#545454" sketch:type="MSShapeGroup"></path>
                <path d="M81,71.8151809 L81,53.8599832 L90,53.8599837 L90,36 L99.0000001,36.0000021 L99,63.0000017 L89.9999995,63.000001 L89.9999996,71.8151832 L81,71.8151809 Z" id="Path-3" fill="#545454" sketch:type="MSShapeGroup"></path>
                <path d="M-0.0173267327,9 L-0.0173267327,18 L9.01732673,18 L9.01732673,9 L-0.0173267327,9 Z" id="Rectangle-2" fill="#3D3D3D" sketch:type="MSShapeGroup"></path>
                <rect id="Rectangle-2" fill="#3D3D3D" sketch:type="MSShapeGroup" x="9" y="-0.0115511551" width="9" height="9"></rect>
            </g>
        </g>
    </g>
</svg>