<?xml version="1.0" encoding="UTF-8" standalone="no"?>
<svg width="160px" height="160px" viewBox="0 0 160 160" version="1.1" xmlns="http://www.w3.org/2000/svg" xmlns:xlink="http://www.w3.org/1999/xlink" xmlns:sketch="http://www.bohemiancoding.com/sketch/ns">
    <!-- Generator: Sketch 3.1 (8751) - http://www.bohemiancoding.com/sketch -->
    <title>mobile site</title>
    <desc>Created with Sketch.</desc>
    <defs></defs>
    <g id="Page-1" stroke="none" stroke-width="1" fill="none" fill-rule="evenodd" sketch:type="MSPage">
        <g id="mobile-site" sketch:type="MSArtboardGroup">
            <g id="Body-5-+-Hair-5" sketch:type="MSLayerGroup" transform="translate(27.000000, 0.000000)">
                <g id="Body-5" transform="translate(9.000000, 27.000000)" sketch:type="MSShapeGroup">
                    <path d="M-8.49810077e-13,18 L9,18 L9,9 L54.0007031,9 L54.0007031,-2.81694952e-08 L63,-2.81694952e-08 L63,9.01124298 L72.2281795,9.01124298 L71.9972546,18 L81,18.0000006 L81.0000015,63 L71.9972656,63 L71.9972549,72 L9.00878861,72 L9.00878906,62.9999991 L-6.17512706e-06,62.999999 L-8.49810077e-13,18 Z" id="Path-1" fill="#F6DBCA"></path>
                    <path d="M9,63 L9,72 L72,72 L72,63 L9,63 Z M72,54 L72,63 L81,63 L81,54 L72,54 Z" id="Rectangle-3" fill="#EDCFBC"></path>
                    <path d="M45,53.9884487 L45,63.0115514 L30.9999998,63.0115514 L30.9999998,53.9884487 L45,53.9884487 Z M54,44.988449 L54,53.9884486 L23,53.9884486 L23,44.9884486 L54,44.988449 Z" id="Rectangle-4" fill="#C5916F"></path>
                    <path d="M54,45 L53.9999998,54 L39.9999998,54 L40,45 L54,45 Z" id="Rectangle-4" fill="#EF9C66"></path>
                    <path d="M59,27 L59,36 L68,36 L68,27 L59,27 Z M9,27 L9,36 L18,36 L18,27 L9,27 Z" id="Rectangle-2" fill="#1D42A4"></path>
                    <path d="M27,108.000017 L27,90.0013807 L9,90.0043008 L9,81.0020625 L36.0000002,80.9991423 L36.0000002,72 L54.0000002,72 L54.0000002,81.0020624 L90.0007075,81.0020624 L90.0007095,90.0043011 L63.0000019,90.0043011 L62.9999999,108.226406" id="Path-4" fill="#132C75"></path>
                    <rect id="Rectangle-2" fill="#1D42A4" x="36" y="72" width="9" height="18"></rect>
                    <path d="M0,81 L0,90 L9,90 L9,81 L0,81 Z M90,81 L90,90 L99,90 L99,81 L90,81 Z" id="Rectangle-2" fill="#F6DBCA"></path>
                    <path d="M27,117 L27,126 L36,126 L36,117 L27,117 Z M54,117 L54,126 L63,126 L63,117 L54,117 Z M27,108 L27,117 L63,117 L63,108 L27,108 Z" id="Rectangle-2" fill="#B49347"></path>
                    <rect id="Rectangle-2" fill="#444444" x="36" y="117" width="9" height="9"></rect>
                    <rect id="Rectangle-2" fill="#091B51" x="45" y="72" width="9" height="9"></rect>
                    <rect id="Rectangle-2" fill="#444444" x="63" y="117" width="9" height="9"></rect>
                </g>
                <g id="Hair-5" transform="translate(0.000000, -0.000000)" sketch:type="MSShapeGroup">
                    <path d="M17.9972563,17.9999999 L9.00000002,17.9999999 L9.00000002,26.9999999 L1.68197403e-08,26.9999999 L1.68197403e-08,35.9999999 L9.00000002,35.9999999 L9.00000002,44.9999999 L17.9972563,44.9999999 L18,36 L63,36 L63,27 L72,27 L72,36 L81,36 L81,45 L90,45 L90,71.9999999 L99,71.9999999 L99,62.9999999 L108,62.9999999 L108,35.9999999 L99,35.9999999 L99,17.9999999 L90,18 L90,9 L71.998576,9 L71.998576,-1.09905578e-07 L35.9992924,-1.09905583e-07 L35.9992924,9.00000003 L17.9972563,9.00000003 L17.9972563,17.9999999 Z" id="Path-2" fill="#A79029"></path>
                    <path d="M54,27 L54,36 L63,36 L63,27 L54,27 Z M90,18 L90,36 L99,36 L99,18 L90,18 Z M63,0 L63,9 L72,9 L72,0 L63,0 Z M27,9 L27,18 L36,18 L36,9 L27,9 Z M90,72 L89.9999995,54 L98.9999988,53.9999996 L98.9999993,35.9999996 L108,36 L108,55.9535889 L108,63.0000001 L98.9999993,62.9999997 L98.9999995,72 L90,72 Z M9,36 L9,45 L18,45 L18,36 L9,36 Z" id="Rectangle-2" fill="#907814"></path>
                    <rect id="Rectangle-2" fill="#A28522" x="81" y="9" width="9" height="9"></rect>
                    <path d="M0,27 L0,36 L9,36 L9,27 L0,27 Z M36,0 L36,9 L45,9 L45,0 L36,0 Z M81,9 L81,18 L90,18 L90,9 L81,9 Z" id="Rectangle-2" fill="#CBB550"></path>
                </g>
            </g>
        </g>
    </g>
</svg>