<svg width="420" height="428" viewBox="0 0 420 428" xmlns="http://www.w3.org/2000/svg"><title>Group</title><g fill="none" fill-rule="evenodd"><path fill="#009AFF" d="M6 6H418V423H6z"/><rect stroke="#FFF" stroke-width="7" x="3.5" y="3.5" width="413" height="421" rx="8"/><path fill="#FFF" d="M3 251H418V422H3z"/><path d="M313.643 122.167l-70.38 58.726c-2.773 2.506-6.934 2.148-9.36-.716L148.613 86 3 252.152V303h415v-60.158L313.643 122.167z" fill="#FFF"/><path d="M43.92 349H16.272v-88.832H43.92V349zm75.904-88.832v.256l-18.944 24.704-18.944-24.832h-.128v-.128h-27.52V349h27.52v-43.392l19.2 25.344 18.816-24.96V349h27.52v-88.832h-27.52zM216.08 349l-4.096-11.648h-28.288l-4.096 11.776-29.184-.128 30.848-88.832h33.024L245.136 349H216.08zm-24.576-34.304h12.544l-6.272-18.048-6.272 18.048zm142.336-16.384v6.528c0 13.056-3.84 24.32-13.184 33.664-9.344 9.216-20.48 13.952-33.664 13.952-13.056 0-24.32-4.736-33.664-13.952-9.344-9.344-13.952-20.608-13.952-33.664 0-13.184 4.608-24.448 13.952-33.664 9.344-9.344 20.608-14.08 33.664-14.08 13.184 0 24.32 4.736 33.664 14.08l-20.48 18.688c-3.84-3.84-7.68-4.992-13.184-4.992s-10.24 1.92-14.208 5.888c-3.84 3.84-5.76 8.576-5.76 14.08s1.92 10.24 5.76 14.208c3.968 3.84 8.704 5.76 14.208 5.76s10.24-1.92 14.08-5.76c1.024-1.024 1.92-2.048 2.688-3.2H288.4v-17.536h45.44zm71.552-13.824v-24.32h-64.128V349h64.256v-25.088h-36.608v-8.832h35.84v-22.272h-35.84v-8.32h36.48z" fill="#009AFF"/><path d="M51.902 401.572c-3.942 3.888-8.64 5.886-14.202 5.886-5.562 0-10.26-1.998-14.202-5.886-3.888-3.942-5.886-8.694-5.886-14.202 0-5.562 1.998-10.314 5.886-14.202 3.942-3.942 8.64-5.94 14.202-5.94 5.562 0 10.26 1.998 14.202 5.94 3.942 3.888 5.94 8.64 5.94 14.202 0 5.508-1.998 10.26-5.94 14.202zM43.64 381.43c-1.674-1.674-3.618-2.484-5.94-2.484-2.376 0-4.32.81-5.994 2.484-1.62 1.62-2.43 3.618-2.43 5.94 0 2.322.81 4.32 2.43 5.994 1.674 1.62 3.618 2.43 5.994 2.43 2.322 0 4.266-.81 5.94-2.43 1.728-1.674 2.538-3.672 2.538-5.994 0-2.322-.81-4.32-2.538-5.94zm47.088 14.472c-3.132 3.132-7.02 4.698-11.448 4.698h-6.804v5.4H60.758v-37.476H79.28c4.428 0 8.316 1.458 11.448 4.59 3.132 3.132 4.698 6.966 4.698 11.394 0 4.482-1.566 8.262-4.698 11.394zM79.28 380.08h-6.804v8.91h6.804c2.484 0 4.428-2.052 4.428-4.482 0-2.484-1.944-4.428-4.428-4.428zm49.086-.054h-9.774V406h-11.61v-25.974h-9.774v-11.502h31.158v11.502zM142.946 406h-11.664v-37.476h11.664V406zm32.022-37.476v.108l-7.992 10.422-7.992-10.476h-.054v-.054h-11.61V406h11.61v-18.306l8.1 10.692 7.938-10.53V406h11.61v-37.476h-11.61zM201.752 406h-11.664v-37.476h11.664V406zm22.41-11.718h13.446V406h-33.696l14.904-25.866H205.37v-11.61h33.75l-14.958 25.758zM266.768 406l-1.728-4.914h-11.934l-1.728 4.968-12.312-.054 13.014-37.476h13.932L279.026 406h-12.258zM256.4 391.528h5.292l-2.646-7.614-2.646 7.614zm49.626-11.502h-9.774V406h-11.61v-25.974h-9.774v-11.502h31.158v11.502zM320.606 406h-11.664v-37.476h11.664V406zm37.26-4.428c-3.942 3.888-8.64 5.886-14.202 5.886-5.562 0-10.26-1.998-14.202-5.886-3.888-3.942-5.886-8.694-5.886-14.202 0-5.562 1.998-10.314 5.886-14.202 3.942-3.942 8.64-5.94 14.202-5.94 5.562 0 10.26 1.998 14.202 5.94 3.942 3.888 5.94 8.64 5.94 14.202 0 5.508-1.998 10.26-5.94 14.202zm-8.262-20.142c-1.674-1.674-3.618-2.484-5.94-2.484-2.376 0-4.32.81-5.994 2.484-1.62 1.62-2.43 3.618-2.43 5.94 0 2.322.81 4.32 2.43 5.994 1.674 1.62 3.618 2.43 5.994 2.43 2.322 0 4.266-.81 5.94-2.43 1.728-1.674 2.538-3.672 2.538-5.994 0-2.322-.81-4.32-2.538-5.94zm52.272-12.906h-11.664v17.064l-11.988-17.064-11.61.054V406h11.61v-17.28l12.042 17.334.108-.054h11.502v-37.476zM89.425 214.768v-11.02H60.367V244h29.116v-11.368H72.895v-4.002h16.24v-10.092h-16.24v-3.77h16.53zm26.274 4.582c7.54 1.334 11.02 7.308 10.266 12.818-.696 4.64-2.03 8.062-5.684 10.962-3.77 2.842-9.396 2.61-13.92 2.552-4.756-.116-11.89-1.508-11.89-1.508l2.436-12.006s6.148.928 10.73 1.218c2.32.116 4.988.638 5.452-1.566.174-.812.232-2.378-3.016-2.784 0 0-.116-.058-3.77-.522-3.596-.522-5.336-.928-5.336-.928-5.916-1.218-8.294-7.134-7.714-11.6.638-4.698 1.914-8.12 5.626-10.962 3.712-2.9 8.236-3.132 12.644-2.958 4.35.232 12.412 1.624 12.412 1.624l-2.61 11.6s-7.018-.87-9.976-1.102c-3.712-.232-5.046-.522-5.51 1.16-.348 1.276.464 2.146 1.218 2.436 0 0 .638.29 4.64.87 2.204.406 4.002.696 4.002.696zm35.728 0c7.54 1.334 11.02 7.308 10.266 12.818-.696 4.64-2.03 8.062-5.684 10.962-3.77 2.842-9.396 2.61-13.92 2.552-4.756-.116-11.89-1.508-11.89-1.508l2.436-12.006s6.148.928 10.73 1.218c2.32.116 4.988.638 5.452-1.566.174-.812.232-2.378-3.016-2.784 0 0-.116-.058-3.77-.522-3.596-.522-5.336-.928-5.336-.928-5.916-1.218-8.294-7.134-7.714-11.6.638-4.698 1.914-8.12 5.626-10.962 3.712-2.9 8.236-3.132 12.644-2.958 4.35.232 12.412 1.624 12.412 1.624l-2.61 11.6s-7.018-.87-9.976-1.102c-3.712-.232-5.046-.522-5.51 1.16-.348 1.276.464 2.146 1.218 2.436 0 0 .638.29 4.64.87 2.204.406 4.002.696 4.002.696zm42.978-4.582v-11.02h-29.058V244h29.116v-11.368h-16.588v-4.002h16.24v-10.092h-16.24v-3.77h16.53zm42.282-11.02h-12.528v18.328l-12.876-18.328-12.47.058V244h12.47v-18.56l12.934 18.618.116-.058h12.354v-40.252zm36.656 12.354h-10.498V244h-12.47v-27.898h-10.498v-12.354h33.466v12.354zM289.003 244h-12.528v-40.252h12.528V244zm32.074 0l-1.856-5.278h-12.818l-1.856 5.336-13.224-.058 13.978-40.252h14.964L334.243 244h-13.166zm-11.136-15.544h5.684l-2.842-8.178-2.842 8.178zM361.909 244h-25.288v-40.252h12.47v27.724h12.818V244z" fill="#000"/><path d="M305.5 44C289.91 44 277 56.667 277 72.5c0 15.59 12.667 28.5 28.5 28.5 15.59 0 28.5-12.667 28.5-28.5A28.381 28.381 0 0 0 305.5 44z" fill="#FDBC00"/></g></svg>