<?xml version="1.0" encoding="utf-8"?>
<!-- Generator: Adobe Illustrator 17.1.0, SVG Export Plug-In . SVG Version: 6.00 Build 0)  -->
<!DOCTYPE svg PUBLIC "-//W3C//DTD SVG 1.1//EN" "http://www.w3.org/Graphics/SVG/1.1/DTD/svg11.dtd">
<svg version="1.1" id="Layer_1" xmlns="http://www.w3.org/2000/svg" xmlns:xlink="http://www.w3.org/1999/xlink" x="0px" y="0px"
	 viewBox="111.1 0 177.9 100" enable-background="new 111.1 0 177.9 100" xml:space="preserve">
<path fill-opacity="0" d="M114.7,4.5h15.9V37h-15.9V4.5z"/>
<path fill="#D5DFEF" d="M248.9,22.7h10.6v14.2h-10.6V22.7z"/>
<path fill="#C9DAF8" d="M238.4,22.7h10.6v14.2h-10.6V22.7z"/>
<path fill="#DFE1E5" d="M259.5,22.7h10.6v14.2h-10.6V22.7z"/>
<path fill="#3C78D8" d="M257.3,5.6h12.8v17.1h-12.8V5.6z"/>
<path fill="#1C4587" d="M238.4,5.6h18.9v17.1h-18.9V5.6z"/>
<path fill="#DFE1E5" d="M150.6,31.7h15.9V37h-15.9V31.7z"/>
<path fill="#D5DFEF" d="M134.7,31.7h15.9V37h-15.9V31.7z"/>
<path fill-opacity="0" d="M170.6,4.5h47.8V37h-47.8V4.5z"/>
<path fill="#DFE1E5" d="M199.7,22.7h10.6v14.2h-10.6C199.7,36.9,199.7,22.7,199.7,22.7z"/>
<path fill="#D5DFEF" d="M189.2,22.7h10.6v14.2h-10.6V22.7z"/>
<path fill="#C9DAF8" d="M178.6,22.7h10.6v14.2h-10.6V22.7z"/>
<path fill="#1C4587" d="M178.6,5.6h18.9v17.1h-18.9V5.6z"/>
<rect x="111.1" fill="none" width="177.9" height="100"/>
<path fill="#3C78D8" d="M197.5,5.6h12.8v17.1h-12.8V5.6z"/>
<path fill="#C9DAF8" d="M150.6,22.7h15.9v9.4h-15.9V22.7z"/>
<path fill="#3C78D8" d="M134.7,22.7h15.9v9.4h-15.9V22.7z"/>
<path fill="#1C4587" d="M134.7,5.6h31.8v17.1h-31.8V5.6z"/>
<path fill="#CCCCCC" d="M222.4,5.0h63.7v1.1h-63.7V5.0z"/>
<path fill="none" stroke="#000000" stroke-width="1" stroke-linejoin="round" stroke-miterlimit="10" d="M222.4,4.5h63.7V37h-63.7
	V4.5z"/>
<path fill="#CCCCCC" d="M170.6,5.0h47.8v1.1h-47.8V5.0z"/>
<path fill="none" stroke="#000000" stroke-width="1" stroke-linejoin="round" stroke-miterlimit="10" d="M170.6,4.5h47.8V37h-47.8
	V4.5z"/>
<path fill="#CCCCCC" d="M134.8,5.0h31.8v1.1h-31.8V5.0z"/>
<path fill="none" stroke="#000000" stroke-width="1" stroke-linejoin="round" stroke-miterlimit="10" d="M134.7,4.5h31.8V37h-31.8
	V4.5z"/>
<path fill="#1C4587" d="M114.7,5.6h15.9V42h-15.9V5.6z"/>
<path fill="#CCCCCC" d="M114.7,5.0h15.9v1.1h-15.9V5.0z"/>
<path fill="none" stroke="#000000" stroke-width="1" stroke-linejoin="round" stroke-miterlimit="10" d="M114.7,4.5h15.9V37h-15.9
	V4.5z"/>
<path fill="#3C78D8" d="M114.7,42h15.9v9.4h-15.9V42z"/>
<path fill="#C9DAF8" d="M114.7,51.4h15.9v9.4h-15.9V51.4z"/>
<path fill="#DFE1E5" d="M114.7,70h15.9v9.4h-15.9V70z"/>
<path fill="#D5DFEF" d="M114.7,60.8h15.9v9.4h-15.9V60.8z"/>
</svg>
