<?xml version="1.0" encoding="utf-8"?>
<!-- Generator: Adobe Illustrator 17.1.0, SVG Export Plug-In . SVG Version: 6.00 Build 0)  -->
<!DOCTYPE svg PUBLIC "-//W3C//DTD SVG 1.1//EN" "http://www.w3.org/Graphics/SVG/1.1/DTD/svg11.dtd">
<svg version="1.1" id="Layer_1" xmlns="http://www.w3.org/2000/svg" xmlns:xlink="http://www.w3.org/1999/xlink" x="0px" y="0px"
	 viewBox="0 223.9 612 344.2" enable-background="new 0 223.9 612 344.2" xml:space="preserve">
<g>
	<defs>
		<rect id="SVGID_1_" y="223.9" width="612" height="344.2"/>
	</defs>
	<clipPath id="SVGID_2_">
		<use xlink:href="#SVGID_1_"  overflow="visible"/>
	</clipPath>
	<g clip-path="url(#SVGID_2_)">
		<path fill="#FFFFFF" d="M0,223.9h612v344.2H0V223.9z"/>
		<path fill="#CCCCCC" d="M383.1,440.4h219.3v3.7H383.1V440.4z"/>
		<path fill="#3C78D8" d="M410.5,444.1h54.8v107.8h-54.8V444.1z"/>
		<path fill="#1C4587" d="M465.3,444.1h54.8v107.8h-54.8V444.1z"/>
		<path fill="#C9DAF8" d="M520.1,444.1H575v107.8h-54.8V444.1z"/>
		<path fill-opacity="0" d="M383.1,440.4h219.3v111.5H383.1V440.4z"/>
		<path fill="none" stroke="#000000" stroke-width="2" stroke-linejoin="round" stroke-miterlimit="10" d="M383.1,440.4h219.3v111.5
			H383.1V440.4z"/>
		<path fill="#CCCCCC" d="M204.8,440.4h164.4v3.7H204.8V440.4z"/>
		<path fill="#3C78D8" d="M204.8,444.1h54.8v107.8h-54.8V444.1z"/>
		<path fill="#1C4587" d="M259.6,444.1h54.8v107.8h-54.8V444.1z"/>
		<path fill="#C9DAF8" d="M314.4,444.1h54.8v107.8h-54.8V444.1z"/>
		<path fill-opacity="0" d="M204.8,440.4h164.4v111.5H204.8V440.4z"/>
		<path fill="none" stroke="#000000" stroke-width="2" stroke-linejoin="round" stroke-miterlimit="10" d="M204.8,440.4h164.4v111.5
			H204.8V440.4z"/>
		<path fill="#CCCCCC" d="M259.6,239.5h109.6v3.7H259.6V239.5z"/>
		<path fill="#3C78D8" d="M204.8,243.2h54.8V351h-54.8V243.2z"/>
		<path fill="#1C4587" d="M259.6,243.2h54.8V351h-54.8V243.2z"/>
		<path fill="#C9DAF8" d="M314.4,243.2h54.8V351h-54.8V243.2z"/>
		<path fill-opacity="0" d="M259.6,239.5h109.6V351H259.6V239.5z"/>
		<path fill="none" stroke="#000000" stroke-width="2" stroke-linejoin="round" stroke-miterlimit="10" d="M259.6,239.5h109.6V351
			H259.6V239.5z"/>
		<path fill="#CCCCCC" d="M67.6,239.5h54.8v3.7H67.6V239.5z"/>
		<path fill="#C9DAF8" d="M122.4,243.2h54.8V351h-54.8V243.2z"/>
		<path fill="#3C78D8" d="M12.8,243.2h54.8V351H12.8L12.8,243.2z"/>
		<path fill="#1C4587" d="M67.6,243.2h54.8V351H67.6V243.2z"/>
		<path fill-opacity="0" d="M67.6,239.5h54.8V351H67.6V239.5z"/>
		<path fill="none" stroke="#000000" stroke-width="2" stroke-linejoin="round" stroke-miterlimit="10" d="M67.6,239.5h54.8V351
			H67.6V239.5z"/>
	</g>
</g>
</svg>
