<svg xmlns="http://www.w3.org/2000/svg" width="1340.657" height="608.168" viewBox="0 0 1256.8661 570.1575"><path d="M691.933 534.724h-619c-21 0-37.5-16.775-37.5-38.125V115.35c0-21.35 16.5-38.125 37.5-38.125h619c21 0 37.5 16.775 37.5 38.125V496.6c0 21.35-16.5 38.125-37.5 38.125zm-619-442.25c-12 0-22.5 10.675-22.5 22.875V496.6c0 12.2 10.5 22.875 22.5 22.875h619c12 0 22.5-10.675 22.5-22.875V115.35c0-12.2-10.5-22.875-22.5-22.875z"/><path d="M716.933 152.224h-674c-4.5 0-7.5-3-7.5-7.5s3-7.5 7.5-7.5h674c4.5 0 7.5 3 7.5 7.5s-4.5 7.5-7.5 7.5z"/><path d="M1208.931 152.224h-348c-4.5 0-7.5-3-7.5-7.5s3-7.5 7.5-7.5h348c4.5 0 7.5 3 7.5 7.5s-4.5 7.5-7.5 7.5z" opacity=".4"/><text y="376.645" x="745.001" style="line-height:125%" font-weight="400" font-size="40" font-family="sans-serif" letter-spacing="0" word-spacing="0" transform="translate(16.427 -56.11)"><tspan y="376.645" x="745.001">OR</tspan></text><circle cx="2.5" cy="2.5" r=".5" transform="matrix(15 0 0 15 35.433 77.224)"/><circle cx="4.5" cy="2.5" r=".5" transform="matrix(15 0 0 15 35.433 77.224)"/><circle cx="6.5" cy="2.5" r=".5" transform="matrix(15 0 0 15 35.433 77.224)"/><g transform="matrix(15 0 0 15 39.579 85.224)"><text style="line-height:125%" x="1.476" y="7.211" font-weight="400" font-size="2.667" font-family="sans-serif" letter-spacing="0" word-spacing="0"><tspan x="1.476" y="7.211">Web Page</tspan></text><rect width="18.727" height="19.054" x="1.827" y="8.742" rx=".634" ry=".978" fill="none" stroke="#000" stroke-width=".525"/><text y="12.326" x="2.714" style="line-height:125%" font-weight="400" font-size="2.667" font-family="sans-serif" letter-spacing="0" word-spacing="0" transform="translate(.26 -.342)"><tspan y="12.326" x="2.714">JavaScript</tspan></text><g transform="translate(.417 -.475)"><rect width="15.605" height="12.938" x="2.615" y="13.918" rx=".529" ry=".664" fill="none" stroke="#000" stroke-width=".395" stroke-dasharray="1.58015754,1.58015754"/><path d="M14.874 20.282l-2.4-2.4a.15.15 0 0 0-.212.212l2.293 2.294-2.293 2.293a.15.15 0 0 0 .212.213l2.4-2.4a.15.15 0 0 0 0-.212zm-6.3-2.4a.15.15 0 0 0-.212 0l-2.4 2.4a.15.15 0 0 0 0 .212l2.4 2.4a.15.15 0 1 0 .211-.213L6.28 20.387l2.294-2.293a.15.15 0 0 0 0-.213zm3.548-1.834a.15.15 0 0 0-.194.084l-3.3 8.4a.15.15 0 0 0 .28.11l3.3-8.4a.15.15 0 0 0-.086-.194z"/></g></g><text style="line-height:125%" x="15.08" y="121.934" font-weight="400" font-size="40" font-family="sans-serif" letter-spacing="0" word-spacing="0" transform="translate(16.427 -56.11)"><tspan x="15.08" y="121.934">Browser</tspan></text><text style="line-height:125%" x="361.785" y="321.095" font-weight="400" font-size="40" font-family="sans-serif" letter-spacing="0" word-spacing="0" transform="translate(16.427 -56.11)"><tspan x="361.785" y="321.095">Service worker</tspan></text><g transform="matrix(15 0 0 15 371.839 78.1)"><rect ry=".664" rx=".529" y="13.918" x="2.615" height="12.938" width="15.605" fill="none" stroke="#000" stroke-width=".395" stroke-dasharray="1.58015754,1.58015754"/><path d="M14.874 20.282l-2.4-2.4a.15.15 0 0 0-.212.212l2.293 2.294-2.293 2.293a.15.15 0 0 0 .212.213l2.4-2.4a.15.15 0 0 0 0-.212zm-6.3-2.4a.15.15 0 0 0-.212 0l-2.4 2.4a.15.15 0 0 0 0 .212l2.4 2.4a.15.15 0 1 0 .211-.213L6.28 20.387l2.294-2.293a.15.15 0 0 0 0-.213zm3.548-1.834a.15.15 0 0 0-.194.084l-3.3 8.4a.15.15 0 0 0 .28.11l3.3-8.4a.15.15 0 0 0-.086-.194z"/></g><path d="M1183.933 534.724h-293c-21 0-37.5-16.775-37.5-38.125V115.35c0-21.35 16.5-38.125 37.5-38.125h293c21 0 37.5 16.775 37.5 38.125V496.6c0 21.35-16.5 38.125-37.5 38.125zm-293-442.25c-12 0-22.5 10.675-22.5 22.875V496.6c0 12.2 10.5 22.875 22.5 22.875h293c12 0 22.5-10.675 22.5-22.875V115.35c0-12.2-10.5-22.875-22.5-22.875z" opacity=".4"/><circle r=".5" cy="2.5" cx="2.5" transform="matrix(15 0 0 15 853.433 77.224)" opacity=".4"/><circle r=".5" cy="2.5" cx="4.5" transform="matrix(15 0 0 15 853.433 77.224)" opacity=".4"/><circle r=".5" cy="2.5" cx="6.5" transform="matrix(15 0 0 15 853.433 77.224)" opacity=".4"/><text y="121.934" x="833.08" style="line-height:125%" font-weight="400" font-size="40" font-family="sans-serif" letter-spacing="0" word-spacing="0" transform="translate(16.427 -56.11)"><tspan y="121.934" x="833.08">Closed Browser</tspan></text><text style="line-height:125%" x="861.785" y="321.095" font-weight="400" font-size="40" font-family="sans-serif" letter-spacing="0" word-spacing="0" transform="translate(25.755 -56.11)"><tspan x="861.785" y="321.095">Service worker</tspan></text><g transform="matrix(15 0 0 15 881.167 78.1)"><rect ry=".664" rx=".529" y="13.918" x="2.615" height="12.938" width="15.605" fill="none" stroke="#000" stroke-width=".395" stroke-dasharray="1.58015754,1.58015754"/><path d="M14.874 20.282l-2.4-2.4a.15.15 0 0 0-.212.212l2.293 2.294-2.293 2.293a.15.15 0 0 0 .212.213l2.4-2.4a.15.15 0 0 0 0-.212zm-6.3-2.4a.15.15 0 0 0-.212 0l-2.4 2.4a.15.15 0 0 0 0 .212l2.4 2.4a.15.15 0 1 0 .211-.213L6.28 20.387l2.294-2.293a.15.15 0 0 0 0-.213zm3.548-1.834a.15.15 0 0 0-.194.084l-3.3 8.4a.15.15 0 0 0 .28.11l3.3-8.4a.15.15 0 0 0-.086-.194z"/></g></svg>