<svg xmlns="http://www.w3.org/2000/svg" width="442.524" height="606.855" viewBox="0 0 414.86613 568.927"><path d="M341.933 533.494h-269c-21 0-37.5-16.775-37.5-38.125v-381.25c0-21.35 16.5-38.125 37.5-38.125h269c21 0 37.5 16.775 37.5 38.125v381.25c0 21.35-16.5 38.125-37.5 38.125zm-269-442.25c-12 0-22.5 10.675-22.5 22.875v381.25c0 12.2 10.5 22.875 22.5 22.875h269c12 0 22.5-10.675 22.5-22.875v-381.25c0-12.2-10.5-22.875-22.5-22.875z"/><path d="M368.933 150.994h-326c-4.5 0-7.5-3-7.5-7.5s3-7.5 7.5-7.5h326c4.5 0 7.5 3 7.5 7.5s-4.5 7.5-7.5 7.5z"/><circle r=".5" cy="2.5" cx="2.5" transform="matrix(15 0 0 15 35.433 75.994)"/><circle r=".5" cy="2.5" cx="4.5" transform="matrix(15 0 0 15 35.433 75.994)"/><circle r=".5" cy="2.5" cx="6.5" transform="matrix(15 0 0 15 35.433 75.994)"/><g transform="matrix(15 0 0 15 39.579 83.994)"><text y="7.211" x="1.476" style="line-height:125%" font-weight="400" font-size="2.667" font-family="sans-serif" letter-spacing="0" word-spacing="0"><tspan y="7.211" x="1.476">Web Page</tspan></text><rect ry=".978" rx=".634" y="8.742" x="1.827" height="19.054" width="18.727" fill="none" stroke="#000" stroke-width=".525"/><text style="line-height:125%" x="2.714" y="12.326" font-weight="400" font-size="2.667" font-family="sans-serif" letter-spacing="0" word-spacing="0" transform="translate(.26 -.342)"><tspan x="2.714" y="12.326">JavaScript</tspan></text><g transform="translate(.417 -.475)"><rect ry=".664" rx=".529" y="13.918" x="2.615" height="12.938" width="15.605" fill="none" stroke="#000" stroke-width=".395" stroke-dasharray="1.58015754,1.58015754"/><path d="M14.874 20.282l-2.4-2.4a.15.15 0 0 0-.212.212l2.293 2.294-2.293 2.293a.15.15 0 0 0 .212.213l2.4-2.4a.15.15 0 0 0 0-.212zm-6.3-2.4a.15.15 0 0 0-.212 0l-2.4 2.4a.15.15 0 0 0 0 .212l2.4 2.4a.15.15 0 1 0 .211-.213L6.28 20.387l2.294-2.293a.15.15 0 0 0 0-.213zm3.548-1.834a.15.15 0 0 0-.194.084l-3.3 8.4a.15.15 0 0 0 .28.11l3.3-8.4a.15.15 0 0 0-.086-.194z"/></g></g><text style="line-height:125%" x="15.08" y="121.934" font-weight="400" font-size="40" font-family="sans-serif" letter-spacing="0" word-spacing="0" transform="translate(16.427 -57.34)"><tspan x="15.08" y="121.934">Browser</tspan></text></svg>