<svg xmlns="http://www.w3.org/2000/svg" viewBox="0 0 30 30"><path d="M.5 0C.3 0 .1.1 0 .3c0 .2 0 .4.1.6l29 29c.1.1.2.1.4.1h.2c.2-.1.3-.3.3-.5v-17c0-.1-.1-.3-.1-.4l-12-12c-.1 0-.3-.1-.4-.1H.5zm15.572 3.164c.08 0 .147.029.203.086a.291.291 0 0 1 .055.344l-2.271 5.14a.29.29 0 0 1-.07.106.282.282 0 0 1-.21.084.279.279 0 0 1-.205-.084.28.28 0 0 1-.086-.205c0-.042.008-.081.022-.115l.81-1.836-1.484-1.49-1.84.806a.291.291 0 0 1-.318-.066.29.29 0 0 1 .002-.414.29.29 0 0 1 .105-.07l5.147-2.255a.312.312 0 0 1 .14-.03zm-.576.863l-2.084.914 1.164 1.168.92-2.082zm2.846 1.42c.083 0 .152.03.209.086a.274.274 0 0 1 .084.207.274.274 0 0 1-.084.207l-3.528 3.516.207.207a.272.272 0 0 1 .082.207.274.274 0 0 1-.083.207.284.284 0 0 1-.21.086.28.28 0 0 1-.205-.086l-.412-.414a.291.291 0 0 1 0-.416l3.735-3.723a.279.279 0 0 1 .205-.084zM18.34 8.66a1.98 1.98 0 0 1 1.45.604c.399.4.598.885.597 1.45a1.979 1.979 0 0 1-.604 1.45c-.401.4-.885.599-1.451.598a1.98 1.98 0 0 1-1.45-.604 1.975 1.975 0 0 1-.597-1.451v-.02l-1.473 1.47a.277.277 0 0 1-.208.081.274.274 0 0 1-.208-.084.282.282 0 0 1-.084-.209.28.28 0 0 1 .086-.205l2.49-2.482c.402-.4.886-.599 1.452-.598zm-.002.586c-.404 0-.75.142-1.037.428a1.412 1.412 0 0 0-.432 1.035c0 .404.144.75.43 1.037.286.287.631.431 1.035.432a1.41 1.41 0 0 0 1.035-.43c.287-.286.431-.631.432-1.035 0-.404-.142-.748-.428-1.035a1.412 1.412 0 0 0-1.035-.432zm4.555.766c.082 0 .152.029.209.086a.272.272 0 0 1 .082.207.272.272 0 0 1-.082.207l-1.415 1.408c.51.01.945.197 1.307.56.37.372.554.82.55 1.346.002.527-.182.975-.554 1.346l-1.35 1.346a.282.282 0 0 1-.208.084.28.28 0 0 1-.205-.086.291.291 0 0 1-.088-.207.291.291 0 0 1 .088-.207l1.35-1.344c.257-.257.385-.568.384-.932a1.264 1.264 0 0 0-.383-.933 1.271 1.271 0 0 0-.933-.387c-.363 0-.673.128-.93.385l-1.35 1.343a.284.284 0 0 1-.209.086.28.28 0 0 1-.205-.086.291.291 0 0 1-.088-.207.291.291 0 0 1 .088-.207l3.736-3.722a.28.28 0 0 1 .206-.086zm1.857 5.082c.566 0 1.05.2 1.45.601.4.401.6.885.599 1.451a1.979 1.979 0 0 1-.604 1.45l-1.246 1.242a.282.282 0 0 1-.209.084.28.28 0 0 1-.205-.086.291.291 0 0 1-.088-.207.293.293 0 0 1 .09-.207l.227-.227c-.58 0-1.07-.202-1.47-.603a1.98 1.98 0 0 1-.599-1.451c.001-.567.203-1.05.604-1.45.401-.4.885-.598 1.451-.597zm0 .584c-.404 0-.75.141-1.037.427a1.412 1.412 0 0 0-.432 1.036c0 .404.142.75.428 1.037.286.287.631.43 1.035.431a1.41 1.41 0 0 0 1.037-.427c.287-.286.431-.632.432-1.036 0-.403-.142-.75-.428-1.037a1.412 1.412 0 0 0-1.035-.431z" fill="#fc0f69"/></svg>