<svg xmlns="http://www.w3.org/2000/svg" width="302.942" height="318.56" viewBox="0 0 302.9418 318.55978" class="gf-header__logo"><title>Gaunt Face</title><path d="M49.58 31.756H29.1c-1.41 6.845.726 10.147 7.91 8.4 5.247-1.7 4.326 10.134 1.6 11.69-13.202 5.707-29.894-6.217-27.83-20.97.836-15.658 21.625-24.175 33.2-13.84.04-6.357 2.157-14.836-8.076-13.474C15.744-.572-3.573 20.469 2.33 40.206c4.143 19.848 30.096 28.895 45.893 16.97 3.044-3.936.542-10.777 1.357-15.88v-9.54zm119.86 30.323c5.433-.002 13.396 1.684 7.802-5.682L153.84 0 128 62.08c5.45-.02 12.094 1.717 12.506-5.72.732-6.928 5.437-8.01 11.562-7 4.434 1.25 12.636-3.048 13.627 3.27l3.745 9.45zm-22.8-21.04l7.2-18.08 7.2 18.08h-14.4zm134.04 21.04c12.834.892 24.14-10.81 22-23.675V2.719c-6.14-.675-11.634-.706-9.36 7.03-.473 12.258 1.023 24.765-.9 36.84-6.637 12.178-28.474 5.28-24.46-9.064V2.718c-6.138-.7-11.544-.67-9.28 7.03.5 13.022-1.142 26.28 1.114 39.112 2.85 8.65 12.2 13.353 20.886 13.218zm-232.3 130.72v-62.08c-6.14-.675-11.634-.706-9.36 7.03v31.05l-37.28-40.88v62.16c6.138.702 11.544.67 9.28-7.03v-31.13l37.36 40.88zm124.52-62.08h-42c-1.44 6.85.777 10.043 7.91 8.32 6.844-1.404 10.16.72 8.41 7.91v43.13c6.14.676 11.634.707 9.36-7.03v-44.01h16.32v-8.32zm99.62 8.32h26.4c1.44-6.85-.777-10.042-7.91-8.32h-27.77v59.36c6.138.702 11.544.67 9.28-7.03v-19.77h21.68c1.41-6.845-.726-10.147-7.91-8.4-4.155-1.314-13.838 2.9-13.77-2.636v-13.204zM41.44 318.079c5.433-.003 13.396 1.684 7.802-5.682L25.84 256 0 318.08c5.45-.02 12.094 1.717 12.506-5.72.732-6.928 5.437-8.01 11.562-7 4.434 1.25 12.636-3.048 13.627 3.27l3.745 9.45zm-22.8-21.04l7.2-18.08 7.2 18.08h-14.4zm157.7 3.997c-9.48 14.163-33.87 8.657-36.402-8.155-4.096-16.22 15.8-30.812 30.026-21.806 4.878 5.112 5.053-15.23-4.104-11.32-21.07-5.257-41.618 17.446-34.284 37.884 5.013 18.4 29.2 27.08 44.764 16.036v-12.64zm96.18-33.997h26.32c1.44-6.85-.777-10.042-7.91-8.32h-27.69v59.36h35.6c1.41-6.845-.726-10.147-7.91-8.4h-18.41v-18.4h21.68c1.41-6.845-.726-10.147-7.91-8.4-4.155-1.314-13.838 2.9-13.77-2.636v-13.204z" fill="#757575" fill-rule="evenodd"/></svg>