<svg xmlns="http://www.w3.org/2000/svg" width="345.6" height="345.6" viewBox="0 0 9144 9144" shape-rendering="geometricPrecision" text-rendering="geometricPrecision" image-rendering="optimizeQuality" fill-rule="evenodd" clip-rule="evenodd"><path fill="#fff" d="M0 0h9144v9144H0z"/><path d="M2834 4718c0 508 205 967 538 1300s792 538 1300 538c355 0 687-100 967-274 243-151 449-357 599-601l-33 4c-70 7-139 11-208 11-554 0-1055-225-1418-587-363-363-587-864-587-1418 0-157 18-310 53-457 21-94 50-184 84-272-352 108-659 320-886 600-256 315-409 718-409 1156z" fill="#fccf4d"/><path d="M6468 5441c-166 336-424 618-741 815-307 190-669 300-1055 300-554 0-1055-224-1418-587s-587-864-587-1418c0-477 167-916 447-1261 284-351 685-604 1144-700 45-10 89 19 98 64 4 19 1 38-7 54-62 125-110 257-142 396-32 135-48 275-48 420 0 508 205 967 538 1300 333 332 792 538 1300 538 66 0 129-3 191-10 64-6 127-16 189-29 45-10 89 19 98 64 4 19 1 38-7 54zm-829 674c243-151 449-357 599-601l-33 4c-70 7-139 11-208 11-554 0-1055-225-1418-587-363-363-587-864-587-1418 0-157 18-310 53-457 21-94 50-184 84-272-352 108-659 320-886 600-256 315-409 718-409 1156 0 508 205 967 538 1300s792 538 1300 538c355 0 687-100 967-274z" fill="#364f6b" fill-rule="nonzero"/></svg>