<svg fill="none" stroke-linecap="square" stroke-miterlimit="10" width="1208" height="517" xmlns="http://www.w3.org/2000/svg"><path fill="#fff" d="M0 0h1208v517H0V0z"/><path stroke="#333" stroke-linecap="butt" d="M267.5 25.5v406"/><path stroke="#ccc" stroke-linecap="butt" d="M495.5 25.5v406M724.5 25.5v406M953.5 25.5v406M1182.5 25.5v406"/><clipPath id="a"><path d="M267.11 25.85h915.04v405.3H267.11V25.85z"/></clipPath><path clip-path="url(#a)" d="M267 90V49h786a2 2 0 012 2v37a2 2 0 01-2 2z"/><path fill="#ea4335" clip-path="url(#a)" d="M267 90V49h786a2 2 0 012 2v37a2 2 0 01-2 2z"/><path clip-path="url(#a)" d="M267 154v-41h619a2 2 0 012 2v37a2 2 0 01-2 2z"/><path fill="#e69138" clip-path="url(#a)" d="M267 154v-41h619a2 2 0 012 2v37a2 2 0 01-2 2z"/><path clip-path="url(#a)" d="M267 218v-41h537a2 2 0 012 2v37a2 2 0 01-2 2z"/><path fill="#f1c232" clip-path="url(#a)" d="M267 218v-41h537a2 2 0 012 2v37a2 2 0 01-2 2z"/><path clip-path="url(#a)" d="M267 281v-41h485a2 2 0 012 2v37a2 2 0 01-2 2z"/><path fill="#6aa84f" clip-path="url(#a)" d="M267 281v-41h485a2 2 0 012 2v37a2 2 0 01-2 2z"/><path clip-path="url(#a)" d="M267 345v-41h277a2 2 0 012 2v37a2 2 0 01-2 2z"/><path fill="#15c" clip-path="url(#a)" d="M267 345v-41h277a2 2 0 012 2v37a2 2 0 01-2 2z"/><path clip-path="url(#a)" d="M267 409v-41h245a2 2 0 012 2v37a2 2 0 01-2 2z"/><path fill="#351c75" clip-path="url(#a)" d="M267 409v-41h245a2 2 0 012 2v37a2 2 0 01-2 2z"/><path stroke="#ea4335" stroke-width="3" stroke-linejoin="round" stroke-linecap="round" d="M1010.163 68.281q-1.063-.453-1.547-1.234-.485-.797-.485-1.734 0-1.594 1.11-2.641 1.125-1.047 3.187-1.047 2.047 0 3.172 1.047t1.125 2.64q0 1-.516 1.782-.515.765-1.453 1.187 1.188.469 1.797 1.39.625.923.625 2.126 0 1.969-1.265 3.219-1.25 1.234-3.36 1.234-1.953 0-3.25-1.016-1.531-1.218-1.531-3.328 0-1.156.578-2.125.578-.984 1.813-1.5zm.562-2.765q0 .812.469 1.28.469.454 1.234.454.781 0 1.25-.453.469-.469.469-1.297 0-.766-.469-1.234-.453-.47-1.219-.47-.796 0-1.265.47-.469.468-.469 1.25zm-.25 6.125q0 1.14.578 1.78.578.626 1.453.626.844 0 1.407-.61.562-.609.562-1.765 0-1-.578-1.61-.563-.609-1.422-.609-1.016 0-1.516.688-.484.687-.484 1.5zm17.625-6.454l-2.656.297q-.094-.828-.5-1.218-.406-.391-1.063-.391-.875 0-1.484.781-.594.781-.75 3.25 1.031-1.203 2.547-1.203 1.719 0 2.937 1.313 1.235 1.296 1.235 3.375 0 2.203-1.297 3.53-1.281 1.329-3.297 1.329-2.172 0-3.578-1.688-1.39-1.687-1.39-5.53 0-3.938 1.452-5.673 1.469-1.734 3.782-1.734 1.64 0 2.703.922 1.078.906 1.36 2.64zm-6.219 5.985q0 1.344.61 2.078.625.719 1.422.719.75 0 1.25-.594.515-.594.515-1.953 0-1.406-.547-2.047-.547-.656-1.36-.656-.796 0-1.343.625-.547.625-.547 1.828zm7.953-5.953q0-1.922.844-2.844.844-.938 2.281-.938 1.5 0 2.344.922.844.922.844 2.86 0 1.922-.844 2.86-.844.921-2.297.921-1.484 0-2.328-.922-.844-.922-.844-2.86zm2.141-.016q0 1.39.313 1.875.25.344.671.344.438 0 .688-.344.313-.484.313-1.875 0-1.406-.313-1.875-.25-.36-.688-.36-.421 0-.671.36-.313.469-.313 1.875zm3.078 11.344h-2.031l7.625-15.11h1.969l-7.563 15.11zm4.438-3.766q0-1.922.843-2.844.844-.937 2.313-.937 1.469 0 2.313.938.843.921.843 2.843 0 1.938-.844 2.875-.843.922-2.28.922-1.5 0-2.345-.922-.843-.937-.843-2.875zm2.14 0q0 1.39.313 1.86.25.359.672.359.453 0 .687-.344.313-.484.313-1.875 0-1.406-.313-1.875-.234-.36-.687-.36-.438 0-.672.36-.313.469-.313 1.875z"/><path fill="#fff" d="M1010.163 68.281q-1.063-.453-1.547-1.234-.485-.797-.485-1.734 0-1.594 1.11-2.641 1.125-1.047 3.187-1.047 2.047 0 3.172 1.047t1.125 2.64q0 1-.516 1.782-.515.765-1.453 1.187 1.188.469 1.797 1.39.625.923.625 2.126 0 1.969-1.265 3.219-1.25 1.234-3.36 1.234-1.953 0-3.25-1.016-1.531-1.218-1.531-3.328 0-1.156.578-2.125.578-.984 1.813-1.5zm.562-2.765q0 .812.469 1.28.469.454 1.234.454.781 0 1.25-.453.469-.469.469-1.297 0-.766-.469-1.234-.453-.47-1.219-.47-.796 0-1.265.47-.469.468-.469 1.25zm-.25 6.125q0 1.14.578 1.78.578.626 1.453.626.844 0 1.407-.61.562-.609.562-1.765 0-1-.578-1.61-.563-.609-1.422-.609-1.016 0-1.516.688-.484.687-.484 1.5zm17.625-6.454l-2.656.297q-.094-.828-.5-1.218-.406-.391-1.063-.391-.875 0-1.484.781-.594.781-.75 3.25 1.031-1.203 2.547-1.203 1.719 0 2.937 1.313 1.235 1.296 1.235 3.375 0 2.203-1.297 3.53-1.281 1.329-3.297 1.329-2.172 0-3.578-1.688-1.39-1.687-1.39-5.53 0-3.938 1.452-5.673 1.469-1.734 3.782-1.734 1.64 0 2.703.922 1.078.906 1.36 2.64zm-6.219 5.985q0 1.344.61 2.078.625.719 1.422.719.75 0 1.25-.594.515-.594.515-1.953 0-1.406-.547-2.047-.547-.656-1.36-.656-.796 0-1.343.625-.547.625-.547 1.828zm7.953-5.953q0-1.922.844-2.844.844-.938 2.281-.938 1.5 0 2.344.922.844.922.844 2.86 0 1.922-.844 2.86-.844.921-2.297.921-1.484 0-2.328-.922-.844-.922-.844-2.86zm2.141-.016q0 1.39.313 1.875.25.344.671.344.438 0 .688-.344.313-.484.313-1.875 0-1.406-.313-1.875-.25-.36-.688-.36-.421 0-.671.36-.313.469-.313 1.875zm3.078 11.344h-2.031l7.625-15.11h1.969l-7.563 15.11zm4.438-3.766q0-1.922.843-2.844.844-.937 2.313-.937 1.469 0 2.313.938.843.921.843 2.843 0 1.938-.844 2.875-.843.922-2.28.922-1.5 0-2.345-.922-.843-.937-.843-2.875zm2.14 0q0 1.39.313 1.86.25.359.672.359.453 0 .687-.344.313-.484.313-1.875 0-1.406-.313-1.875-.234-.36-.687-.36-.438 0-.672.36-.313.469-.313 1.875z"/><path stroke="#e69138" stroke-width="3" stroke-linejoin="round" stroke-linecap="round" d="M850.563 129.188l-2.656.296q-.094-.828-.5-1.218-.407-.391-1.063-.391-.875 0-1.484.781-.594.781-.75 3.25 1.03-1.203 2.547-1.203 1.718 0 2.937 1.313 1.234 1.297 1.234 3.375 0 2.203-1.296 3.53-1.282 1.329-3.297 1.329-2.172 0-3.578-1.688-1.391-1.687-1.391-5.53 0-3.938 1.453-5.673 1.469-1.734 3.781-1.734 1.64 0 2.703.922 1.079.906 1.36 2.64zm-6.219 5.984q0 1.344.61 2.078.624.719 1.421.719.75 0 1.25-.594.516-.594.516-1.953 0-1.406-.547-2.047-.547-.656-1.36-.656-.796 0-1.343.625-.547.625-.547 1.828zm10.281-2.89q-1.062-.454-1.547-1.235-.484-.797-.484-1.734 0-1.594 1.11-2.641 1.124-1.047 3.187-1.047 2.047 0 3.172 1.047t1.125 2.64q0 1-.516 1.782-.515.765-1.453 1.187 1.188.469 1.797 1.39.625.923.625 2.126 0 1.969-1.266 3.219-1.25 1.234-3.36 1.234-1.952 0-3.25-1.016-1.53-1.218-1.53-3.328 0-1.156.578-2.125.578-.984 1.812-1.5zm.563-2.766q0 .812.469 1.28.468.454 1.234.454.781 0 1.25-.453.469-.469.469-1.297 0-.766-.47-1.234-.452-.47-1.218-.47-.797 0-1.265.47-.47.468-.47 1.25zm-.25 6.125q0 1.14.578 1.78.578.626 1.453.626.844 0 1.406-.61.563-.609.563-1.765 0-1-.578-1.61-.563-.609-1.422-.609-1.016 0-1.516.688-.484.687-.484 1.5zm8.36-6.422q0-1.922.843-2.844.844-.938 2.281-.938 1.5 0 2.344.922.844.922.844 2.86 0 1.922-.844 2.86-.844.921-2.297.921-1.484 0-2.328-.922-.844-.922-.844-2.86zm2.14-.016q0 1.39.312 1.875.25.344.672.344.438 0 .688-.344.312-.484.312-1.875 0-1.406-.312-1.875-.25-.36-.688-.36-.422 0-.672.36-.312.469-.312 1.875zm3.078 11.344h-2.031l7.625-15.11h1.968l-7.562 15.11zm4.437-3.766q0-1.922.844-2.844.844-.937 2.313-.937 1.468 0 2.312.938.844.921.844 2.843 0 1.938-.844 2.875-.844.922-2.281.922-1.5 0-2.344-.922-.844-.937-.844-2.875zm2.141 0q0 1.39.313 1.86.25.359.671.359.454 0 .688-.344.312-.484.312-1.875 0-1.406-.312-1.875-.234-.36-.688-.36-.437 0-.671.36-.313.469-.313 1.875z"/><path fill="#000" d="M850.563 129.188l-2.656.296q-.094-.828-.5-1.218-.407-.391-1.063-.391-.875 0-1.484.781-.594.781-.75 3.25 1.03-1.203 2.547-1.203 1.718 0 2.937 1.313 1.234 1.297 1.234 3.375 0 2.203-1.296 3.53-1.282 1.329-3.297 1.329-2.172 0-3.578-1.688-1.391-1.687-1.391-5.53 0-3.938 1.453-5.673 1.469-1.734 3.781-1.734 1.64 0 2.703.922 1.079.906 1.36 2.64zm-6.219 5.984q0 1.344.61 2.078.624.719 1.421.719.75 0 1.25-.594.516-.594.516-1.953 0-1.406-.547-2.047-.547-.656-1.36-.656-.796 0-1.343.625-.547.625-.547 1.828zm10.281-2.89q-1.062-.454-1.547-1.235-.484-.797-.484-1.734 0-1.594 1.11-2.641 1.124-1.047 3.187-1.047 2.047 0 3.172 1.047t1.125 2.64q0 1-.516 1.782-.515.765-1.453 1.187 1.188.469 1.797 1.39.625.923.625 2.126 0 1.969-1.266 3.219-1.25 1.234-3.36 1.234-1.952 0-3.25-1.016-1.53-1.218-1.53-3.328 0-1.156.578-2.125.578-.984 1.812-1.5zm.563-2.766q0 .812.469 1.28.468.454 1.234.454.781 0 1.25-.453.469-.469.469-1.297 0-.766-.47-1.234-.452-.47-1.218-.47-.797 0-1.265.47-.47.468-.47 1.25zm-.25 6.125q0 1.14.578 1.78.578.626 1.453.626.844 0 1.406-.61.563-.609.563-1.765 0-1-.578-1.61-.563-.609-1.422-.609-1.016 0-1.516.688-.484.687-.484 1.5zm8.36-6.422q0-1.922.843-2.844.844-.938 2.281-.938 1.5 0 2.344.922.844.922.844 2.86 0 1.922-.844 2.86-.844.921-2.297.921-1.484 0-2.328-.922-.844-.922-.844-2.86zm2.14-.016q0 1.39.312 1.875.25.344.672.344.438 0 .688-.344.312-.484.312-1.875 0-1.406-.312-1.875-.25-.36-.688-.36-.422 0-.672.36-.312.469-.312 1.875zm3.078 11.344h-2.031l7.625-15.11h1.968l-7.562 15.11zm4.437-3.766q0-1.922.844-2.844.844-.937 2.313-.937 1.468 0 2.312.938.844.921.844 2.843 0 1.938-.844 2.875-.844.922-2.281.922-1.5 0-2.344-.922-.844-.937-.844-2.875zm2.141 0q0 1.39.313 1.86.25.359.671.359.454 0 .688-.344.312-.484.312-1.875 0-1.406-.312-1.875-.234-.36-.688-.36-.437 0-.671.36-.313.469-.313 1.875z"/><path stroke="#f1c232" stroke-width="3" stroke-linejoin="round" stroke-linecap="round" d="M758.96 200.313l2.734-.282q.109.938.687 1.485.578.53 1.328.53.86 0 1.453-.687.61-.703.61-2.109 0-1.328-.594-1.984-.594-.657-1.547-.657-1.172 0-2.11 1.047l-2.234-.328 1.407-7.453h7.265v2.578h-5.187l-.422 2.422q.922-.453 1.875-.453 1.828 0 3.094 1.328 1.265 1.328 1.265 3.438 0 1.78-1.015 3.156-1.407 1.906-3.891 1.906-1.969 0-3.219-1.063-1.25-1.078-1.5-2.875zm11.015.375l2.656-.297q.094.812.5 1.203.422.39 1.094.39.844 0 1.437-.78.61-.782.766-3.235-1.031 1.203-2.578 1.203-1.688 0-2.922-1.297-1.219-1.313-1.219-3.406 0-2.172 1.281-3.5 1.297-1.344 3.297-1.344 2.188 0 3.578 1.688 1.407 1.687 1.407 5.53 0 3.938-1.47 5.673-1.452 1.734-3.78 1.734-1.688 0-2.72-.89-1.03-.891-1.327-2.673zm6.219-6q0-1.329-.61-2.047-.61-.735-1.422-.735-.75 0-1.265.594-.5.594-.5 1.969 0 1.39.547 2.047.546.64 1.375.64.78 0 1.328-.625.547-.625.547-1.844zm4.75-1.47q0-1.921.843-2.843.844-.938 2.282-.938 1.5 0 2.343.922.844.922.844 2.86 0 1.922-.844 2.86-.843.921-2.297.921-1.484 0-2.328-.922-.843-.922-.843-2.86zm2.14-.015q0 1.39.313 1.875.25.344.672.344.437 0 .687-.344.313-.484.313-1.875 0-1.406-.313-1.875-.25-.36-.687-.36-.422 0-.672.36-.313.469-.313 1.875zm3.078 11.344h-2.031l7.625-15.11h1.969l-7.563 15.11zm4.438-3.766q0-1.922.844-2.844.843-.937 2.312-.937 1.469 0 2.313.938.843.921.843 2.843 0 1.938-.843 2.875-.844.922-2.282.922-1.5 0-2.343-.922-.844-.937-.844-2.875zm2.14 0q0 1.39.313 1.86.25.359.672.359.453 0 .687-.344.313-.484.313-1.875 0-1.406-.313-1.875-.234-.36-.687-.36-.438 0-.672.36-.313.469-.313 1.875z"/><path fill="#000" d="M758.96 200.313l2.734-.282q.109.938.687 1.485.578.53 1.328.53.86 0 1.453-.687.61-.703.61-2.109 0-1.328-.594-1.984-.594-.657-1.547-.657-1.172 0-2.11 1.047l-2.234-.328 1.407-7.453h7.265v2.578h-5.187l-.422 2.422q.922-.453 1.875-.453 1.828 0 3.094 1.328 1.265 1.328 1.265 3.438 0 1.78-1.015 3.156-1.407 1.906-3.891 1.906-1.969 0-3.219-1.063-1.25-1.078-1.5-2.875zm11.015.375l2.656-.297q.094.812.5 1.203.422.39 1.094.39.844 0 1.437-.78.61-.782.766-3.235-1.031 1.203-2.578 1.203-1.688 0-2.922-1.297-1.219-1.313-1.219-3.406 0-2.172 1.281-3.5 1.297-1.344 3.297-1.344 2.188 0 3.578 1.688 1.407 1.687 1.407 5.53 0 3.938-1.47 5.673-1.452 1.734-3.78 1.734-1.688 0-2.72-.89-1.03-.891-1.327-2.673zm6.219-6q0-1.329-.61-2.047-.61-.735-1.422-.735-.75 0-1.265.594-.5.594-.5 1.969 0 1.39.547 2.047.546.64 1.375.64.78 0 1.328-.625.547-.625.547-1.844zm4.75-1.47q0-1.921.843-2.843.844-.938 2.282-.938 1.5 0 2.343.922.844.922.844 2.86 0 1.922-.844 2.86-.843.921-2.297.921-1.484 0-2.328-.922-.843-.922-.843-2.86zm2.14-.015q0 1.39.313 1.875.25.344.672.344.437 0 .687-.344.313-.484.313-1.875 0-1.406-.313-1.875-.25-.36-.687-.36-.422 0-.672.36-.313.469-.313 1.875zm3.078 11.344h-2.031l7.625-15.11h1.969l-7.563 15.11zm4.438-3.766q0-1.922.844-2.844.843-.937 2.312-.937 1.469 0 2.313.938.843.921.843 2.843 0 1.938-.843 2.875-.844.922-2.282.922-1.5 0-2.343-.922-.844-.937-.844-2.875zm2.14 0q0 1.39.313 1.86.25.359.672.359.453 0 .687-.344.313-.484.313-1.875 0-1.406-.313-1.875-.234-.36-.687-.36-.438 0-.672.36-.313.469-.313 1.875z"/><path stroke="#6aa84f" stroke-width="3" stroke-linejoin="round" stroke-linecap="round" d="M706.802 263.313l2.734-.282q.11.938.688 1.485.578.53 1.328.53.86 0 1.453-.687.61-.703.61-2.109 0-1.328-.594-1.984-.594-.657-1.547-.657-1.172 0-2.11 1.047l-2.234-.328 1.406-7.453h7.266v2.578h-5.188l-.422 2.422q.922-.453 1.875-.453 1.829 0 3.094 1.328 1.266 1.328 1.266 3.438 0 1.78-1.016 3.156-1.406 1.906-3.89 1.906-1.97 0-3.22-1.063-1.25-1.078-1.5-2.875zm10.86-.11l2.655-.328q.125 1.016.688 1.563.563.53 1.344.53.86 0 1.437-.64.578-.656.578-1.75 0-1.031-.562-1.625-.547-.61-1.36-.61-.515 0-1.25.204l.297-2.235q1.11.032 1.688-.484.594-.515.594-1.36 0-.734-.438-1.156-.422-.437-1.125-.437-.703 0-1.203.5-.5.484-.61 1.422l-2.53-.438q.265-1.296.796-2.062.532-.781 1.485-1.219.953-.453 2.14-.453 2.016 0 3.235 1.281 1.015 1.063 1.015 2.39 0 1.892-2.062 3 1.234.267 1.968 1.188.735.922.735 2.22 0 1.89-1.375 3.218t-3.438 1.328q-1.937 0-3.218-1.125-1.282-1.125-1.485-2.922zm11.124-6.984q0-1.922.844-2.844.844-.938 2.281-.938 1.5 0 2.344.922.844.922.844 2.86 0 1.922-.844 2.86-.844.921-2.297.921-1.484 0-2.328-.922-.844-.922-.844-2.86zm2.14-.016q0 1.39.313 1.875.25.344.672.344.438 0 .688-.344.312-.484.312-1.875 0-1.406-.312-1.875-.25-.36-.688-.36-.422 0-.672.36-.312.469-.312 1.875zm3.079 11.344h-2.031l7.625-15.11h1.968l-7.562 15.11zm4.438-3.766q0-1.922.843-2.844.844-.937 2.313-.937 1.468 0 2.312.938.844.921.844 2.843 0 1.938-.844 2.875-.843.922-2.281.922-1.5 0-2.344-.922-.843-.937-.843-2.875zm2.14 0q0 1.39.313 1.86.25.359.672.359.453 0 .687-.344.313-.484.313-1.875 0-1.406-.313-1.875-.234-.36-.688-.36-.437 0-.671.36-.313.469-.313 1.875z"/><path fill="#000" d="M706.802 263.313l2.734-.282q.11.938.688 1.485.578.53 1.328.53.86 0 1.453-.687.61-.703.61-2.109 0-1.328-.594-1.984-.594-.657-1.547-.657-1.172 0-2.11 1.047l-2.234-.328 1.406-7.453h7.266v2.578h-5.188l-.422 2.422q.922-.453 1.875-.453 1.829 0 3.094 1.328 1.266 1.328 1.266 3.438 0 1.78-1.016 3.156-1.406 1.906-3.89 1.906-1.97 0-3.22-1.063-1.25-1.078-1.5-2.875zm10.86-.11l2.655-.328q.125 1.016.688 1.563.563.53 1.344.53.86 0 1.437-.64.578-.656.578-1.75 0-1.031-.562-1.625-.547-.61-1.36-.61-.515 0-1.25.204l.297-2.235q1.11.032 1.688-.484.594-.515.594-1.36 0-.734-.438-1.156-.422-.437-1.125-.437-.703 0-1.203.5-.5.484-.61 1.422l-2.53-.438q.265-1.296.796-2.062.532-.781 1.485-1.219.953-.453 2.14-.453 2.016 0 3.235 1.281 1.015 1.063 1.015 2.39 0 1.892-2.062 3 1.234.267 1.968 1.188.735.922.735 2.22 0 1.89-1.375 3.218t-3.438 1.328q-1.937 0-3.218-1.125-1.282-1.125-1.485-2.922zm11.124-6.984q0-1.922.844-2.844.844-.938 2.281-.938 1.5 0 2.344.922.844.922.844 2.86 0 1.922-.844 2.86-.844.921-2.297.921-1.484 0-2.328-.922-.844-.922-.844-2.86zm2.14-.016q0 1.39.313 1.875.25.344.672.344.438 0 .688-.344.312-.484.312-1.875 0-1.406-.312-1.875-.25-.36-.688-.36-.422 0-.672.36-.312.469-.312 1.875zm3.079 11.344h-2.031l7.625-15.11h1.968l-7.562 15.11zm4.438-3.766q0-1.922.843-2.844.844-.937 2.313-.937 1.468 0 2.312.938.844.921.844 2.843 0 1.938-.844 2.875-.843.922-2.281.922-1.5 0-2.344-.922-.843-.937-.843-2.875zm2.14 0q0 1.39.313 1.86.25.359.672.359.453 0 .687-.344.313-.484.313-1.875 0-1.406-.313-1.875-.234-.36-.688-.36-.437 0-.671.36-.313.469-.313 1.875z"/><path stroke="#15c" stroke-width="3" stroke-linejoin="round" stroke-linecap="round" d="M498.947 327.203l2.656-.328q.125 1.016.688 1.563.562.53 1.344.53.86 0 1.437-.64.578-.656.578-1.75 0-1.031-.562-1.625-.547-.61-1.36-.61-.515 0-1.25.204l.297-2.235q1.11.032 1.688-.484.594-.515.594-1.36 0-.734-.438-1.156-.422-.437-1.125-.437-.703 0-1.203.5-.5.484-.61 1.422l-2.53-.438q.265-1.296.796-2.062.531-.781 1.485-1.219.953-.453 2.14-.453 2.016 0 3.235 1.281 1.015 1.063 1.015 2.39 0 1.892-2.062 3 1.234.267 1.968 1.188.735.922.735 2.22 0 1.89-1.375 3.218t-3.438 1.328q-1.937 0-3.218-1.125-1.282-1.125-1.485-2.922zM517.072 331h-2.75v-10.344q-1.5 1.406-3.547 2.078v-2.484q1.078-.36 2.328-1.328 1.266-.985 1.735-2.297h2.234V331zm4-10.781q0-1.922.844-2.844.844-.938 2.281-.938 1.5 0 2.344.922.844.922.844 2.86 0 1.922-.844 2.86-.844.921-2.297.921-1.484 0-2.328-.922-.844-.922-.844-2.86zm2.14-.016q0 1.39.313 1.875.25.344.672.344.438 0 .688-.344.312-.484.312-1.875 0-1.406-.312-1.875-.25-.36-.688-.36-.422 0-.672.36-.312.469-.312 1.875zm3.079 11.344h-2.031l7.625-15.11h1.968l-7.562 15.11zm4.437-3.766q0-1.922.844-2.844.844-.937 2.313-.937 1.468 0 2.312.938.844.921.844 2.843 0 1.938-.844 2.875-.844.922-2.281.922-1.5 0-2.344-.922-.844-.937-.844-2.875zm2.141 0q0 1.39.313 1.86.25.359.671.359.454 0 .688-.344.312-.484.312-1.875 0-1.406-.312-1.875-.234-.36-.688-.36-.437 0-.671.36-.313.469-.313 1.875z"/><path fill="#fff" d="M498.947 327.203l2.656-.328q.125 1.016.688 1.563.562.53 1.344.53.86 0 1.437-.64.578-.656.578-1.75 0-1.031-.562-1.625-.547-.61-1.36-.61-.515 0-1.25.204l.297-2.235q1.11.032 1.688-.484.594-.515.594-1.36 0-.734-.438-1.156-.422-.437-1.125-.437-.703 0-1.203.5-.5.484-.61 1.422l-2.53-.438q.265-1.296.796-2.062.531-.781 1.485-1.219.953-.453 2.14-.453 2.016 0 3.235 1.281 1.015 1.063 1.015 2.39 0 1.892-2.062 3 1.234.267 1.968 1.188.735.922.735 2.22 0 1.89-1.375 3.218t-3.438 1.328q-1.937 0-3.218-1.125-1.282-1.125-1.485-2.922zM517.072 331h-2.75v-10.344q-1.5 1.406-3.547 2.078v-2.484q1.078-.36 2.328-1.328 1.266-.985 1.735-2.297h2.234V331zm4-10.781q0-1.922.844-2.844.844-.938 2.281-.938 1.5 0 2.344.922.844.922.844 2.86 0 1.922-.844 2.86-.844.921-2.297.921-1.484 0-2.328-.922-.844-.922-.844-2.86zm2.14-.016q0 1.39.313 1.875.25.344.672.344.438 0 .688-.344.312-.484.312-1.875 0-1.406-.312-1.875-.25-.36-.688-.36-.422 0-.672.36-.312.469-.312 1.875zm3.079 11.344h-2.031l7.625-15.11h1.968l-7.562 15.11zm4.437-3.766q0-1.922.844-2.844.844-.937 2.313-.937 1.468 0 2.312.938.844.921.844 2.843 0 1.938-.844 2.875-.844.922-2.281.922-1.5 0-2.344-.922-.844-.937-.844-2.875zm2.141 0q0 1.39.313 1.86.25.359.671.359.454 0 .688-.344.312-.484.312-1.875 0-1.406-.312-1.875-.234-.36-.688-.36-.437 0-.671.36-.313.469-.313 1.875z"/><path stroke="#351c75" stroke-width="3" stroke-linejoin="round" stroke-linecap="round" d="M476.296 392.453V395h-9.625q.156-1.453.937-2.734.782-1.297 3.078-3.438 1.86-1.734 2.282-2.344.562-.843.562-1.687 0-.906-.5-1.39-.484-.5-1.344-.5-.859 0-1.375.515-.5.515-.578 1.719l-2.734-.282q.234-2.265 1.516-3.25 1.296-.984 3.234-.984 2.125 0 3.328 1.14 1.219 1.141 1.219 2.844 0 .97-.36 1.844-.343.875-1.093 1.828-.5.64-1.797 1.828-1.297 1.188-1.64 1.579-.345.39-.563.765h5.453zm1.719-9.031v-2.547h9.39v2q-1.156 1.14-2.36 3.281-1.202 2.14-1.843 4.547-.625 2.406-.61 4.297h-2.64q.063-2.969 1.219-6.047 1.156-3.094 3.094-5.531h-6.25zm11.03.797q0-1.922.845-2.844.843-.938 2.28-.938 1.5 0 2.345.922.843.922.843 2.86 0 1.922-.843 2.86-.844.921-2.297.921-1.485 0-2.328-.922-.844-.922-.844-2.86zm2.141-.016q0 1.39.313 1.875.25.344.672.344.437 0 .687-.344.313-.484.313-1.875 0-1.406-.313-1.875-.25-.36-.687-.36-.422 0-.672.36-.313.469-.313 1.875zm3.079 11.344h-2.032l7.625-15.11h1.97l-7.563 15.11zm4.437-3.766q0-1.922.844-2.844.844-.937 2.312-.937 1.47 0 2.313.938.844.921.844 2.843 0 1.938-.844 2.875-.844.922-2.281.922-1.5 0-2.344-.922-.844-.937-.844-2.875zm2.14 0q0 1.39.313 1.86.25.359.672.359.453 0 .688-.344.312-.484.312-1.875 0-1.406-.312-1.875-.235-.36-.688-.36-.437 0-.672.36-.312.469-.312 1.875z"/><path fill="#fff" d="M476.296 392.453V395h-9.625q.156-1.453.937-2.734.782-1.297 3.078-3.438 1.86-1.734 2.282-2.344.562-.843.562-1.687 0-.906-.5-1.39-.484-.5-1.344-.5-.859 0-1.375.515-.5.515-.578 1.719l-2.734-.282q.234-2.265 1.516-3.25 1.296-.984 3.234-.984 2.125 0 3.328 1.14 1.219 1.141 1.219 2.844 0 .97-.36 1.844-.343.875-1.093 1.828-.5.64-1.797 1.828-1.297 1.188-1.64 1.579-.345.39-.563.765h5.453zm1.719-9.031v-2.547h9.39v2q-1.156 1.14-2.36 3.281-1.202 2.14-1.843 4.547-.625 2.406-.61 4.297h-2.64q.063-2.969 1.219-6.047 1.156-3.094 3.094-5.531h-6.25zm11.03.797q0-1.922.845-2.844.843-.938 2.28-.938 1.5 0 2.345.922.843.922.843 2.86 0 1.922-.843 2.86-.844.921-2.297.921-1.485 0-2.328-.922-.844-.922-.844-2.86zm2.141-.016q0 1.39.313 1.875.25.344.672.344.437 0 .687-.344.313-.484.313-1.875 0-1.406-.313-1.875-.25-.36-.687-.36-.422 0-.672.36-.313.469-.313 1.875zm3.079 11.344h-2.032l7.625-15.11h1.97l-7.563 15.11zm4.437-3.766q0-1.922.844-2.844.844-.937 2.312-.937 1.47 0 2.313.938.844.921.844 2.843 0 1.938-.844 2.875-.844.922-2.281.922-1.5 0-2.344-.922-.844-.937-.844-2.875zm2.14 0q0 1.39.313 1.86.25.359.672.359.453 0 .688-.344.312-.484.312-1.875 0-1.406-.312-1.875-.235-.36-.688-.36-.437 0-.672.36-.312.469-.312 1.875z"/><path fill="#000" d="M669.942 480.54q0-1.078.532-1.828.547-.75 1.578-.75.937 0 1.547.672.625.672.625 1.97 0 1.28-.625 1.968-.625.687-1.532.687-.906 0-1.515-.672-.61-.687-.61-2.046zm2.141-1.734q-.453 0-.765.406-.297.391-.297 1.438 0 .969.297 1.36.312.39.765.39.469 0 .766-.39.312-.391.312-1.454 0-.969-.312-1.36-.313-.39-.766-.39zm0 9.719l5.485-10.563h1l-5.454 10.563h-1.03zm4.344-2.734q0-1.079.531-1.813.547-.75 1.578-.75.938 0 1.563.672t.625 1.969q0 1.281-.625 1.968-.625.688-1.563.688-.906 0-1.515-.672-.594-.687-.594-2.062zm2.14-1.72q-.468 0-.765.407-.297.39-.297 1.438 0 .968.297 1.359.312.39.765.39.47 0 .766-.39.313-.39.313-1.453 0-.969-.313-1.36-.297-.39-.765-.39zm7.032.454q0-2.016 1.125-3 .922-.797 2.281-.797 1.484 0 2.438.984.953.97.953 2.704 0 1.406-.422 2.218-.422.797-1.235 1.25-.797.438-1.734.438-1.531 0-2.469-.985-.937-.984-.937-2.812zm1.265 0q0 1.39.61 2.094.61.687 1.531.687.906 0 1.516-.703.609-.703.609-2.125 0-1.344-.61-2.031-.609-.703-1.515-.703-.922 0-1.531.687-.61.688-.61 2.094zm7.485 3.625v-6.297h-1.094v-.969h1.094v-.765q0-.735.125-1.094.187-.469.625-.766.453-.297 1.265-.297.516 0 1.141.125l-.188 1.063q-.375-.063-.718-.063-.563 0-.797.235-.235.234-.235.89v.672h1.422v.97h-1.422v6.296h-1.218zm7.703 0v-10.016h1.234v3.594q.86-1 2.172-1 .813 0 1.406.328.594.313.844.875.266.547.266 1.625v4.594h-1.235v-4.594q0-.937-.406-1.344-.39-.421-1.125-.421-.547 0-1.031.28-.485.282-.688.766-.203.485-.203 1.344v3.969h-1.234zm7.547-3.625q0-2.016 1.125-3 .922-.797 2.281-.797 1.484 0 2.438.984.953.97.953 2.704 0 1.406-.422 2.218-.422.797-1.235 1.25-.797.438-1.734.438-1.531 0-2.469-.985-.937-.984-.937-2.812zm1.265 0q0 1.39.61 2.094.61.687 1.531.687.906 0 1.516-.703.609-.703.609-2.125 0-1.344-.61-2.031-.609-.703-1.515-.703-.922 0-1.531.687-.61.688-.61 2.094zm7.188 3.625v-7.266h1.11v1.032q.327-.547.89-.86.578-.328 1.297-.328.812 0 1.328.344.515.328.734.922.86-1.266 2.235-1.266 1.078 0 1.656.594.594.594.594 1.844v4.984h-1.235v-4.578q0-.735-.125-1.063-.11-.328-.422-.515-.312-.203-.734-.203-.766 0-1.281.515-.5.5-.5 1.625v4.219h-1.235v-4.719q0-.812-.297-1.219-.296-.421-.984-.421-.515 0-.969.28-.437.266-.64.798-.188.515-.188 1.515v3.766h-1.234zm16.969-2.344l1.28.156q-.312 1.125-1.124 1.75-.813.61-2.078.61-1.594 0-2.532-.985-.921-.984-.921-2.75 0-1.843.937-2.843.953-1.016 2.453-1.016 1.453 0 2.375 1 .922.984.922 2.781v.328h-5.422q.078 1.188.672 1.829.61.64 1.531.64.672 0 1.141-.36.484-.359.766-1.14zm-4.032-1.984h4.047q-.078-.922-.468-1.375-.579-.703-1.516-.703-.86 0-1.438.562-.562.563-.625 1.516zm11.063 7.11v-10.048h1.125v.953q.39-.562.89-.828.5-.28 1.22-.28.921 0 1.624.483.719.47 1.078 1.344.36.875.36 1.906 0 1.11-.407 2.016-.39.89-1.156 1.375-.75.469-1.593.469-.61 0-1.11-.266-.484-.265-.797-.656v3.531h-1.234zm1.11-6.376q0 1.406.562 2.078.578.672 1.39.672.813 0 1.391-.687.594-.703.594-2.157 0-1.39-.578-2.078-.563-.687-1.36-.687-.781 0-1.39.734-.61.735-.61 2.125zm11.624 2.703q-.672.578-1.312.828-.625.235-1.36.235-1.187 0-1.843-.578-.641-.594-.641-1.516 0-.531.234-.969.25-.437.641-.703.406-.265.89-.406.36-.094 1.094-.188 1.5-.171 2.203-.421v-.313q0-.766-.343-1.062-.469-.422-1.407-.422-.859 0-1.28.312-.407.297-.61 1.063l-1.203-.157q.156-.78.531-1.25.39-.468 1.094-.718.718-.266 1.656-.266.922 0 1.5.219t.844.547q.281.328.39.843.063.313.063 1.125v1.641q0 1.719.078 2.172.078.453.313.875h-1.282q-.187-.39-.25-.89zm-.093-2.75q-.672.266-2.016.47-.75.108-1.078.25-.313.124-.485.39-.172.265-.172.578 0 .5.375.828.375.328 1.094.328.719 0 1.266-.312.547-.313.812-.86.203-.406.203-1.219v-.453zm3.14 4.25l1.188.172q.078.547.422.813.453.328 1.25.328.859 0 1.312-.344.469-.328.64-.953.094-.375.079-1.578-.797.953-2 .953-1.5 0-2.328-1.078-.813-1.078-.813-2.594 0-1.031.375-1.906.375-.89 1.078-1.36.719-.484 1.688-.484 1.281 0 2.125 1.031v-.875h1.125v6.282q0 1.703-.344 2.406-.344.703-1.094 1.11-.75.421-1.843.421-1.297 0-2.094-.594-.797-.578-.766-1.75zm1.016-4.375q0 1.438.562 2.094.563.656 1.422.656.844 0 1.422-.656t.578-2.047q0-1.328-.594-2-.593-.687-1.422-.687-.828 0-1.406.672-.562.656-.562 1.968zm12.172 1.422l1.28.156q-.312 1.125-1.124 1.75-.813.61-2.078.61-1.594 0-2.532-.985-.921-.984-.921-2.75 0-1.843.937-2.843.953-1.016 2.453-1.016 1.453 0 2.375 1 .922.984.922 2.781v.328h-5.422q.078 1.188.672 1.829.61.64 1.531.64.672 0 1.141-.36.484-.359.766-1.14zm-4.032-1.984h4.047q-.078-.922-.468-1.375-.579-.703-1.516-.703-.86 0-1.438.562-.562.563-.625 1.516zm6.578 2.156l1.204-.187q.109.734.578 1.125.468.39 1.312.39.844 0 1.25-.344.422-.343.422-.812 0-.422-.375-.656-.25-.172-1.25-.422-1.36-.344-1.89-.594-.516-.25-.782-.687-.265-.438-.265-.97 0-.484.218-.89.22-.422.61-.703.281-.203.765-.344.5-.156 1.078-.156.844 0 1.485.25.656.234.969.656.312.422.422 1.125l-1.204.172q-.078-.562-.484-.875-.39-.312-1.11-.312-.843 0-1.202.281-.36.266-.36.656 0 .235.14.422.157.203.485.328.172.063 1.078.313 1.313.36 1.828.578.516.219.797.64.297.422.297 1.047t-.36 1.172q-.343.531-1.03.844-.672.297-1.532.297-1.406 0-2.156-.594-.734-.594-.938-1.75zM104.579 75.933V61.621h1.89v12.625h7.047v1.687h-8.937zm10.203-5.187q0-2.875 1.594-4.266 1.343-1.156 3.265-1.156 2.14 0 3.485 1.406 1.359 1.406 1.359 3.875 0 2-.594 3.156-.594 1.14-1.75 1.781-1.14.625-2.5.625-2.187 0-3.531-1.39-1.328-1.406-1.328-4.031zm1.797 0q0 2 .86 2.984.874.984 2.202.984 1.313 0 2.172-.984.875-1 .875-3.047 0-1.922-.875-2.906-.875-1-2.172-1-1.328 0-2.203 1-.86.984-.86 2.969zm11.765 5.187l-3.171-10.375h1.812l1.656 5.984.61 2.235q.047-.172.53-2.14l1.657-6.079h1.813l1.547 6.016.515 1.984.594-2 1.781-6h1.703l-3.234 10.375h-1.828l-1.656-6.219-.391-1.765-2.11 7.984h-1.828zm11.407-4.297v-1.765h5.39v1.765h-5.39zm14.453.5l1.719.219q-.282 1.797-1.454 2.812-1.156 1-2.859 1-2.125 0-3.422-1.39-1.297-1.39-1.297-3.985 0-1.687.547-2.937.563-1.266 1.703-1.89 1.14-.641 2.485-.641 1.687 0 2.75.86 1.078.858 1.39 2.42l-1.718.267q-.235-1.047-.86-1.563-.625-.531-1.5-.531-1.328 0-2.156.953-.828.953-.828 3 0 2.094.797 3.047.797.937 2.093.937 1.032 0 1.72-.625.702-.64.89-1.953zm2.578-1.39q0-2.875 1.594-4.266 1.343-1.156 3.265-1.156 2.14 0 3.485 1.406 1.359 1.406 1.359 3.875 0 2-.594 3.156-.593 1.14-1.75 1.781-1.14.625-2.5.625-2.187 0-3.531-1.39-1.328-1.406-1.328-4.031zm1.797 0q0 2 .86 2.984.874.984 2.202.984 1.313 0 2.172-.984.875-1 .875-3.047 0-1.922-.875-2.906-.875-1-2.172-1-1.328 0-2.203 1-.86.984-.86 2.969zm9.844 5.187V65.558h1.593v1.484q1.14-1.718 3.297-1.718.938 0 1.719.343.797.329 1.187.875.391.547.547 1.297.094.5.094 1.72v6.374h-1.766v-6.312q0-1.079-.203-1.61-.203-.531-.734-.844-.516-.312-1.219-.312-1.125 0-1.937.719-.813.703-.813 2.687v5.672h-1.765zm14.843-1.578l.25 1.562q-.734.157-1.328.157-.953 0-1.484-.297-.516-.313-.735-.797-.218-.5-.218-2.078v-5.969h-1.282v-1.375h1.282v-2.562l1.75-1.063v3.625h1.765v1.375h-1.765v6.063q0 .75.093.968.094.203.297.344.219.125.61.125.28 0 .765-.078zm2.14 1.578V65.558h1.579v1.578q.61-1.11 1.125-1.453.516-.36 1.125-.36.89 0 1.813.563l-.61 1.64q-.64-.39-1.281-.39-.578 0-1.047.36-.453.343-.656.953-.281.937-.281 2.047v5.437h-1.766zm13.798-1.281q-.985.828-1.89 1.172-.907.343-1.938.343-1.703 0-2.625-.828-.922-.843-.922-2.14 0-.766.344-1.39.359-.626.921-1 .563-.392 1.266-.595.516-.125 1.563-.265 2.125-.25 3.125-.594.015-.36.015-.469 0-1.062-.5-1.515-.672-.594-2-.594-1.25 0-1.844.437-.578.438-.859 1.547l-1.719-.234q.235-1.11.766-1.781.531-.688 1.547-1.047 1.015-.375 2.36-.375 1.327 0 2.155.312.829.313 1.22.797.39.469.546 1.188.094.453.094 1.625v2.343q0 2.453.11 3.11.109.64.452 1.234h-1.843q-.266-.547-.344-1.281zm-.156-3.922q-.954.39-2.875.656-1.079.156-1.532.36-.437.187-.687.562-.25.375-.25.844 0 .703.531 1.172.531.468 1.563.468 1.015 0 1.796-.437.797-.453 1.172-1.219.282-.61.282-1.765v-.641zm3.671 2.11l1.75-.282q.141 1.047.813 1.61.672.546 1.875.546 1.203 0 1.781-.484.594-.5.594-1.156 0-.594-.516-.938-.36-.234-1.797-.594-1.937-.5-2.687-.843-.734-.36-1.125-.985-.39-.64-.39-1.406 0-.687.312-1.281.328-.594.875-.985.406-.296 1.11-.5.718-.218 1.53-.218 1.22 0 2.141.36.922.343 1.36.952.437.594.609 1.594l-1.719.234q-.125-.797-.688-1.234-.562-.453-1.578-.453-1.218 0-1.734.406-.516.39-.516.922 0 .344.22.625.202.281.671.469.266.093 1.547.437 1.875.5 2.61.828.734.313 1.156.922.421.594.421 1.5 0 .875-.515 1.656-.516.782-1.485 1.204-.968.421-2.187.421-2.016 0-3.078-.843-1.063-.844-1.36-2.485zm14.547 1.515l.25 1.562q-.734.157-1.328.157-.953 0-1.484-.297-.516-.313-.735-.797-.218-.5-.218-2.078v-5.969h-1.282v-1.375h1.282v-2.562l1.75-1.063v3.625h1.765v1.375h-1.765v6.063q0 .75.093.968.094.203.297.344.219.125.61.125.28 0 .765-.078zm12 0l.25 1.562q-.734.157-1.328.157-.953 0-1.484-.297-.516-.313-.735-.797-.218-.5-.218-2.078v-5.969h-1.282v-1.375h1.282v-2.562l1.75-1.063v3.625h1.765v1.375h-1.765v6.063q0 .75.093.968.094.203.297.344.219.125.61.125.28 0 .765-.078zm9.266-1.766l1.812.235q-.421 1.578-1.593 2.468-1.157.875-2.97.875-2.265 0-3.608-1.39-1.329-1.406-1.329-3.938 0-2.625 1.344-4.062 1.344-1.453 3.5-1.453 2.078 0 3.39 1.422 1.329 1.406 1.329 3.984 0 .156-.016.469h-7.734q.094 1.703.969 2.61.875.905 2.172.905.968 0 1.64-.5.688-.515 1.094-1.625zm-5.781-2.843h5.797q-.11-1.297-.657-1.954-.843-1.015-2.187-1.015-1.203 0-2.031.812-.829.797-.922 2.157zm8.5 6.187l3.797-5.39-3.5-4.985h2.187l1.594 2.438q.453.687.719 1.156.437-.64.796-1.14l1.75-2.454h2.094l-3.578 4.89 3.86 5.485h-2.157l-2.14-3.219-.563-.875-2.719 4.094h-2.14zm15.015-1.578l.25 1.562q-.734.157-1.328.157-.953 0-1.484-.297-.516-.313-.735-.797-.218-.5-.218-2.078v-5.969h-1.282v-1.375h1.282v-2.562l1.75-1.063v3.625h1.765v1.375h-1.765v6.063q0 .75.093.968.094.203.297.344.219.125.61.125.28 0 .765-.078zM54.594 127.76v-14.313h2.86l3.375 10.125q.468 1.422.687 2.125.25-.78.766-2.297l3.422-9.953h2.547v14.313h-1.813v-11.985l-4.172 11.985h-1.703l-4.14-12.188v12.188h-1.829zm16.844-12.297v-2.016h1.766v2.016h-1.766zm0 12.297v-10.375h1.766v10.375h-1.766zm3.281-3.094l1.75-.281q.141 1.047.813 1.61.672.546 1.875.546 1.203 0 1.781-.484.594-.5.594-1.157 0-.593-.516-.937-.36-.234-1.797-.594-1.937-.5-2.687-.844-.734-.359-1.125-.984-.39-.64-.39-1.406 0-.688.312-1.281.328-.594.875-.985.406-.297 1.11-.5.718-.219 1.53-.219 1.22 0 2.141.36.922.344 1.36.953.437.594.609 1.594l-1.719.234q-.125-.797-.688-1.234-.562-.453-1.578-.453-1.218 0-1.734.406-.516.39-.516.922 0 .343.22.625.202.281.671.468.266.094 1.547.438 1.875.5 2.61.828.734.313 1.156.922.421.594.421 1.5 0 .875-.515 1.656-.516.781-1.485 1.203-.968.422-2.187.422-2.016 0-3.078-.844-1.063-.843-1.36-2.484zm10 0l1.75-.281q.141 1.047.813 1.61.672.546 1.875.546 1.203 0 1.781-.484.594-.5.594-1.157 0-.593-.516-.937-.36-.234-1.797-.594-1.937-.5-2.687-.844-.734-.359-1.125-.984-.39-.64-.39-1.406 0-.688.312-1.281.328-.594.875-.985.406-.297 1.11-.5.718-.219 1.53-.219 1.22 0 2.141.36.922.344 1.36.953.437.594.609 1.594l-1.719.234q-.125-.797-.688-1.234-.562-.453-1.578-.453-1.218 0-1.734.406-.516.39-.516.922 0 .343.22.625.202.281.671.468.266.094 1.547.438 1.875.5 2.61.828.734.313 1.156.922.421.594.421 1.5 0 .875-.515 1.656-.516.781-1.485 1.203-.968.422-2.187.422-2.016 0-3.078-.844-1.063-.843-1.36-2.484zm10.72-9.203v-2.016h1.765v2.016h-1.766zm0 12.297v-10.375h1.765v10.375h-1.766zm3.984 0v-10.375h1.593v1.484q1.14-1.719 3.297-1.719.938 0 1.719.344.797.328 1.187.875.391.547.547 1.297.094.5.094 1.719v6.375h-1.766v-6.313q0-1.078-.203-1.609-.203-.531-.734-.844-.516-.312-1.219-.312-1.125 0-1.937.718-.813.704-.813 2.688v5.672h-1.766zm10.687.86l1.703.25q.11.796.594 1.155.656.485 1.797.485 1.219 0 1.875-.485.672-.484.906-1.359.14-.547.125-2.266-1.156 1.36-2.875 1.36-2.14 0-3.313-1.547-1.171-1.547-1.171-3.703 0-1.485.53-2.735.548-1.25 1.563-1.937 1.032-.688 2.407-.688 1.828 0 3.03 1.485v-1.25h1.61v8.969q0 2.421-.5 3.421-.484 1.016-1.562 1.594-1.063.594-2.625.594-1.844 0-3-.828-1.14-.828-1.094-2.516zm1.453-6.235q0 2.047.813 2.984.812.938 2.03.938 1.204 0 2.016-.938.829-.937.829-2.922 0-1.906-.844-2.875-.844-.968-2.031-.968-1.172 0-2 .953-.813.953-.813 2.828zm22.64 4.094q-.984.828-1.89 1.171-.906.344-1.937.344-1.703 0-2.625-.828-.922-.844-.922-2.14 0-.766.344-1.391.359-.625.921-1 .563-.39 1.266-.594.516-.125 1.563-.266 2.125-.25 3.125-.593.015-.36.015-.469 0-1.063-.5-1.516-.672-.593-2-.593-1.25 0-1.844.437-.578.438-.859 1.547l-1.719-.234q.235-1.11.766-1.782.531-.687 1.547-1.047 1.015-.375 2.36-.375 1.327 0 2.155.313.829.312 1.22.797.39.469.546 1.187.094.453.094 1.625v2.344q0 2.453.11 3.11.109.64.452 1.234h-1.843q-.266-.547-.344-1.281zm-.155-3.922q-.954.39-2.875.656-1.079.156-1.532.36-.437.187-.687.562-.25.375-.25.844 0 .703.531 1.171.531.47 1.563.47 1.015 0 1.796-.438.797-.453 1.172-1.219.282-.61.282-1.766v-.64zm4.343 5.203v-14.313h1.75v14.313h-1.75zm7.875-1.578l.25 1.562q-.734.156-1.328.156-.953 0-1.484-.296-.516-.313-.735-.797-.218-.5-.218-2.078v-5.97h-1.282v-1.374h1.282v-2.563l1.75-1.062v3.625h1.765v1.375h-1.765v6.062q0 .75.093.97.094.202.297.343.219.125.61.125.28 0 .765-.078zm9.266-1.766l1.812.234q-.421 1.579-1.593 2.47-1.157.874-2.97.874-2.265 0-3.608-1.39-1.329-1.407-1.329-3.938 0-2.625 1.344-4.062 1.344-1.454 3.5-1.454 2.078 0 3.39 1.422 1.329 1.407 1.329 3.985 0 .156-.016.468h-7.734q.094 1.704.969 2.61.875.906 2.172.906.968 0 1.64-.5.688-.516 1.094-1.625zm-5.781-2.844h5.797q-.11-1.297-.657-1.953-.843-1.015-2.187-1.015-1.203 0-2.031.812-.829.797-.922 2.156zm9.656 6.188v-10.375h1.578v1.578q.61-1.11 1.125-1.453.516-.36 1.125-.36.89 0 1.813.563l-.61 1.64q-.64-.39-1.281-.39-.578 0-1.047.36-.453.343-.656.952-.281.938-.281 2.047v5.438h-1.766zm7.016 0v-10.375h1.593v1.484q1.14-1.719 3.297-1.719.938 0 1.719.344.797.328 1.187.875.391.547.547 1.297.094.5.094 1.719v6.375h-1.766v-6.313q0-1.078-.203-1.609-.203-.531-.734-.844-.516-.312-1.219-.312-1.125 0-1.937.718-.813.704-.813 2.688v5.672h-1.765zm17.78-1.281q-.984.828-1.89 1.171-.906.344-1.937.344-1.703 0-2.625-.828-.922-.844-.922-2.14 0-.766.344-1.391.359-.625.921-1 .563-.39 1.266-.594.516-.125 1.563-.266 2.125-.25 3.125-.593.015-.36.015-.469 0-1.063-.5-1.516-.672-.593-2-.593-1.25 0-1.844.437-.578.438-.859 1.547l-1.719-.234q.235-1.11.766-1.782.531-.687 1.547-1.047 1.015-.375 2.36-.375 1.327 0 2.155.313.829.312 1.22.797.39.469.546 1.187.094.453.094 1.625v2.344q0 2.453.11 3.11.109.64.452 1.234h-1.843q-.266-.547-.344-1.281zm-.155-3.922q-.954.39-2.875.656-1.079.156-1.532.36-.437.187-.687.562-.25.375-.25.844 0 .703.531 1.171.531.47 1.563.47 1.015 0 1.796-.438.797-.453 1.172-1.219.282-.61.282-1.766v-.64zm8.218 3.625l.25 1.562q-.734.156-1.328.156-.953 0-1.484-.296-.516-.313-.735-.797-.218-.5-.218-2.078v-5.97h-1.282v-1.374h1.282v-2.563l1.75-1.062v3.625h1.765v1.375h-1.765v6.062q0 .75.093.97.094.202.297.343.219.125.61.125.28 0 .765-.078zm2.172-10.719v-2.016h1.766v2.016h-1.766zm0 12.297v-10.375h1.766v10.375h-1.766zm6.875 0l-3.953-10.375h1.86l2.234 6.219q.36 1 .656 2.078.234-.813.656-1.969l2.297-6.328h1.813l-3.922 10.375h-1.64zm14.219-3.344l1.812.234q-.421 1.579-1.593 2.47-1.157.874-2.97.874-2.265 0-3.608-1.39-1.329-1.407-1.329-3.938 0-2.625 1.344-4.062 1.344-1.454 3.5-1.454 2.078 0 3.39 1.422 1.329 1.407 1.329 3.985 0 .156-.016.468h-7.734q.094 1.704.969 2.61.875.906 2.172.906.968 0 1.64-.5.688-.516 1.094-1.625zm-5.781-2.844h5.797q-.11-1.297-.657-1.953-.843-1.015-2.187-1.015-1.203 0-2.031.812-.829.797-.922 2.156zm19.515 4.61l.25 1.562q-.734.156-1.328.156-.953 0-1.484-.296-.516-.313-.735-.797-.218-.5-.218-2.078v-5.97h-1.282v-1.374h1.282v-2.563l1.75-1.062v3.625h1.765v1.375h-1.765v6.062q0 .75.093.97.094.202.297.343.219.125.61.125.28 0 .765-.078zm9.266-1.766l1.812.234q-.421 1.579-1.593 2.47-1.157.874-2.97.874-2.265 0-3.608-1.39-1.329-1.407-1.329-3.938 0-2.625 1.344-4.062 1.344-1.454 3.5-1.454 2.078 0 3.39 1.422 1.329 1.407 1.329 3.985 0 .156-.016.468h-7.734q.094 1.704.969 2.61.875.906 2.172.906.968 0 1.64-.5.688-.516 1.094-1.625zm-5.781-2.844h5.797q-.11-1.297-.657-1.953-.843-1.015-2.187-1.015-1.203 0-2.031.812-.829.797-.922 2.156zm8.5 6.188l3.797-5.39-3.5-4.985h2.187l1.594 2.437q.453.688.719 1.157.437-.641.796-1.141l1.75-2.453h2.094l-3.578 4.89 3.86 5.485h-2.157l-2.14-3.219-.563-.875-2.719 4.094h-2.14zm15.015-1.578l.25 1.562q-.734.156-1.328.156-.953 0-1.484-.296-.516-.313-.735-.797-.218-.5-.218-2.078v-5.97h-1.282v-1.374h1.282v-2.563l1.75-1.062v3.625h1.765v1.375h-1.765v6.062q0 .75.093.97.094.202.297.343.219.125.61.125.28 0 .765-.078zM164.844 151.76v-9h-1.546v-1.375h1.546v-1.094q0-1.047.188-1.562.25-.688.89-1.11.641-.422 1.797-.422.75 0 1.641.172l-.266 1.531q-.546-.093-1.03-.093-.798 0-1.141.343-.329.344-.329 1.282v.953h2.032v1.375h-2.032v9h-1.75zm4.938-5.188q0-2.875 1.594-4.265 1.343-1.157 3.265-1.157 2.14 0 3.485 1.407 1.359 1.406 1.359 3.875 0 2-.594 3.156-.593 1.14-1.75 1.781-1.14.625-2.5.625-2.187 0-3.531-1.39-1.328-1.407-1.328-4.032zm1.797 0q0 2 .86 2.985.874.984 2.202.984 1.313 0 2.172-.984.875-1 .875-3.047 0-1.922-.875-2.906-.875-1-2.172-1-1.328 0-2.203 1-.86.984-.86 2.968zm9.828 5.188v-10.375h1.578v1.578q.61-1.11 1.125-1.453.516-.36 1.125-.36.89 0 1.813.563l-.61 1.64q-.64-.39-1.281-.39-.578 0-1.047.36-.453.343-.656.952-.281.938-.281 2.047v5.438h-1.766zm13.031-12.297v-2.016h1.766v2.016h-1.766zm0 12.297v-10.375h1.766v10.375h-1.766zm3.985 0v-10.375H200v1.453q.484-.75 1.297-1.219.812-.469 1.843-.469 1.157 0 1.89.485.735.469 1.048 1.328 1.234-1.813 3.203-1.813 1.547 0 2.375.86.828.86.828 2.625v7.125h-1.75v-6.531q0-1.063-.172-1.516-.172-.469-.625-.75-.437-.281-1.047-.281-1.093 0-1.828.734-.719.719-.719 2.313v6.03h-1.75v-6.734q0-1.171-.437-1.75-.422-.593-1.406-.593-.735 0-1.375.39-.625.391-.907 1.141-.28.75-.28 2.172v5.375h-1.766zm23.78-1.281q-.984.828-1.89 1.171-.906.344-1.937.344-1.703 0-2.625-.828-.922-.844-.922-2.14 0-.766.344-1.391.359-.625.921-1 .563-.39 1.266-.594.516-.125 1.563-.266 2.125-.25 3.125-.593.015-.36.015-.469 0-1.063-.5-1.516-.672-.593-2-.593-1.25 0-1.844.437-.578.438-.859 1.547l-1.719-.234q.235-1.11.766-1.782.531-.687 1.547-1.047 1.015-.375 2.36-.375 1.327 0 2.155.313.829.312 1.22.797.39.469.546 1.187.094.453.094 1.625v2.344q0 2.453.11 3.11.109.64.452 1.234h-1.843q-.266-.547-.344-1.281zm-.155-3.922q-.954.39-2.875.656-1.079.156-1.532.36-.437.187-.687.562-.25.375-.25.844 0 .703.531 1.171.531.47 1.563.47 1.015 0 1.796-.438.797-.453 1.172-1.219.282-.61.282-1.766v-.64zm4.062 6.062l1.703.25q.11.797.594 1.156.656.485 1.797.485 1.219 0 1.875-.485.672-.484.906-1.359.14-.547.125-2.266-1.156 1.36-2.875 1.36-2.14 0-3.313-1.547-1.171-1.547-1.171-3.703 0-1.485.53-2.735.548-1.25 1.563-1.937 1.032-.688 2.407-.688 1.828 0 3.03 1.485v-1.25h1.61v8.969q0 2.421-.5 3.421-.484 1.016-1.562 1.594-1.063.594-2.625.594-1.844 0-3-.828-1.14-.828-1.094-2.516zm1.453-6.234q0 2.047.813 2.984.812.938 2.03.938 1.204 0 2.017-.938.828-.937.828-2.922 0-1.906-.844-2.875-.844-.968-2.031-.968-1.172 0-2 .953-.813.953-.813 2.828zm16.969 2.031l1.812.234q-.421 1.579-1.593 2.47-1.157.874-2.97.874-2.265 0-3.608-1.39-1.329-1.407-1.329-3.938 0-2.625 1.344-4.062 1.344-1.454 3.5-1.454 2.078 0 3.39 1.422 1.329 1.407 1.329 3.985 0 .156-.016.468h-7.734q.094 1.704.969 2.61.875.906 2.172.906.968 0 1.64-.5.688-.516 1.094-1.625zm-5.781-2.844h5.797q-.11-1.297-.657-1.953-.843-1.015-2.187-1.015-1.203 0-2.031.812-.829.797-.922 2.156zm8.968 3.094l1.75-.281q.141 1.047.813 1.61.672.546 1.875.546 1.203 0 1.781-.484.594-.5.594-1.157 0-.593-.516-.937-.36-.234-1.797-.594-1.937-.5-2.687-.844-.734-.359-1.125-.984-.39-.64-.39-1.406 0-.688.312-1.281.328-.594.875-.985.406-.297 1.11-.5.718-.219 1.53-.219 1.22 0 2.141.36.922.344 1.36.953.437.594.609 1.594l-1.719.234q-.125-.797-.688-1.234-.562-.453-1.578-.453-1.218 0-1.734.406-.516.39-.516.922 0 .343.22.625.202.281.671.468.266.094 1.547.438 1.875.5 2.61.828.734.313 1.156.922.421.594.421 1.5 0 .875-.515 1.656-.516.781-1.485 1.203-.968.422-2.187.422-2.016 0-3.078-.844-1.063-.843-1.36-2.484zM156.688 203.587v-14.313h10.36v1.688h-8.454v4.375h7.907v1.687h-7.907v4.875h8.782v1.688h-10.688zm12.735 0v-10.375H171v1.453q.484-.75 1.297-1.219.812-.469 1.843-.469 1.157 0 1.89.485.735.468 1.048 1.328 1.234-1.813 3.203-1.813 1.547 0 2.375.86.828.859.828 2.625v7.125h-1.75v-6.532q0-1.062-.172-1.515-.172-.469-.625-.75-.437-.282-1.047-.282-1.093 0-1.828.735-.719.719-.719 2.312v6.032h-1.75v-6.735q0-1.172-.437-1.75-.422-.594-1.406-.594-.735 0-1.375.391-.625.39-.907 1.14-.28.75-.28 2.173v5.375h-1.766zm17 3.968v-14.343h1.609v1.343q.562-.78 1.266-1.172.718-.406 1.734-.406 1.328 0 2.344.688 1.015.687 1.53 1.937.532 1.235.532 2.719 0 1.594-.578 2.875-.563 1.266-1.656 1.953-1.094.672-2.297.672-.875 0-1.578-.375-.688-.375-1.14-.938v5.047h-1.766zm1.593-9.093q0 2 .813 2.953.812.953 1.969.953 1.171 0 2-.985.843-.984.843-3.078 0-1.968-.828-2.953-.812-1-1.937-1t-2 1.063q-.86 1.047-.86 3.047zm13.25 3.546l.25 1.563q-.734.156-1.328.156-.953 0-1.484-.297-.516-.312-.735-.797-.218-.5-.218-2.078v-5.968h-1.282v-1.375h1.282v-2.563l1.75-1.062v3.625h1.765v1.375h-1.765v6.062q0 .75.093.969.094.203.297.344.219.125.61.125.28 0 .765-.079zm2.078 5.579l-.187-1.657q.578.157 1 .157.594 0 .937-.204.36-.187.579-.53.171-.266.546-1.313.047-.157.157-.438l-3.938-10.39h1.89l2.157 6.015q.422 1.14.75 2.39.313-1.202.719-2.359l2.219-6.046h1.765l-3.953 10.546q-.625 1.72-.984 2.36-.47.875-1.078 1.265-.594.407-1.438.407-.516 0-1.14-.203zm16.047-4v-14.313h1.75v14.313h-1.75zm4.047-12.297v-2.016h1.766v2.016h-1.766zm0 12.297v-10.375h1.766v10.375h-1.766zm3.985 0v-10.375h1.593v1.484q1.14-1.719 3.297-1.719.938 0 1.719.344.797.328 1.187.875.391.547.547 1.297.094.5.094 1.719v6.375h-1.766v-6.313q0-1.078-.203-1.61-.203-.53-.734-.843-.516-.313-1.219-.313-1.125 0-1.937.72-.813.702-.813 2.687v5.672h-1.765zm11.015 0v-14.313h1.766v8.156l4.156-4.218h2.266l-3.953 3.843 4.359 6.532h-2.172l-3.422-5.297-1.234 1.187v4.11h-1.766zm9.281-3.094l1.75-.281q.141 1.046.813 1.609.672.547 1.875.547 1.203 0 1.781-.485.594-.5.594-1.156 0-.594-.516-.937-.36-.235-1.797-.594-1.937-.5-2.687-.844-.734-.36-1.125-.984-.39-.64-.39-1.406 0-.688.312-1.282.328-.593.875-.984.406-.297 1.11-.5.718-.219 1.53-.219 1.22 0 2.141.36.922.343 1.36.953.437.593.609 1.593l-1.719.235q-.125-.797-.688-1.235-.562-.453-1.578-.453-1.218 0-1.734.407-.516.39-.516.921 0 .344.22.625.202.282.671.47.266.093 1.547.437 1.875.5 2.61.828.734.312 1.156.922.421.593.421 1.5 0 .875-.515 1.656-.516.781-1.485 1.203-.968.422-2.187.422-2.016 0-3.078-.844-1.063-.844-1.36-2.484zM38.594 267.413v-14.312h2.86l3.375 10.125q.468 1.422.687 2.125.25-.781.766-2.297l3.422-9.953h2.547v14.312h-1.813V255.43l-4.172 11.984h-1.703l-4.14-12.187v12.187h-1.829zm16.844-12.296V253.1h1.766v2.016h-1.766zm0 12.296v-10.375h1.766v10.375h-1.766zm3.281-3.093l1.75-.282q.141 1.047.813 1.61.672.547 1.875.547 1.203 0 1.781-.485.594-.5.594-1.156 0-.594-.516-.937-.36-.235-1.797-.594-1.937-.5-2.687-.844-.734-.36-1.125-.984-.39-.641-.39-1.407 0-.687.312-1.28.328-.595.875-.985.406-.297 1.11-.5.718-.219 1.53-.219 1.22 0 2.141.36.922.343 1.36.953.437.593.609 1.593l-1.719.235q-.125-.797-.688-1.235-.562-.453-1.578-.453-1.218 0-1.734.406-.516.391-.516.922 0 .344.22.625.202.282.671.469.266.094 1.547.438 1.875.5 2.61.828.734.312 1.156.922.421.593.421 1.5 0 .875-.515 1.656-.516.781-1.485 1.203-.968.422-2.187.422-2.016 0-3.078-.844-1.063-.844-1.36-2.484zm10 0l1.75-.282q.141 1.047.813 1.61.672.547 1.875.547 1.203 0 1.781-.485.594-.5.594-1.156 0-.594-.516-.937-.36-.235-1.797-.594-1.937-.5-2.687-.844-.734-.36-1.125-.984-.39-.641-.39-1.407 0-.687.312-1.28.328-.595.875-.985.406-.297 1.11-.5.718-.219 1.53-.219 1.22 0 2.141.36.922.343 1.36.953.437.593.609 1.593l-1.719.235q-.125-.797-.688-1.235-.562-.453-1.578-.453-1.218 0-1.734.406-.516.391-.516.922 0 .344.22.625.202.282.671.469.266.094 1.547.438 1.875.5 2.61.828.734.312 1.156.922.421.593.421 1.5 0 .875-.515 1.656-.516.781-1.485 1.203-.968.422-2.187.422-2.016 0-3.078-.844-1.063-.844-1.36-2.484zm10.72-9.203V253.1h1.765v2.016h-1.766zm0 12.296v-10.375h1.765v10.375h-1.766zm3.984 0v-10.375h1.593v1.485q1.14-1.719 3.297-1.719.938 0 1.719.344.797.328 1.187.875.391.547.547 1.297.094.5.094 1.718v6.375h-1.766v-6.312q0-1.078-.203-1.61-.203-.53-.734-.843-.516-.313-1.219-.313-1.125 0-1.937.719-.813.703-.813 2.688v5.671h-1.766zm10.687.86l1.703.25q.11.797.594 1.156.656.484 1.797.484 1.219 0 1.875-.484.672-.484.906-1.36.14-.546.125-2.265-1.156 1.36-2.875 1.36-2.14 0-3.313-1.547-1.171-1.547-1.171-3.704 0-1.484.53-2.734.548-1.25 1.563-1.937 1.032-.688 2.407-.688 1.828 0 3.03 1.484v-1.25h1.61v8.97q0 2.421-.5 3.421-.484 1.016-1.562 1.594-1.063.594-2.625.594-1.844 0-3-.829-1.14-.828-1.094-2.515zm1.453-6.235q0 2.047.813 2.985.812.937 2.03.937 1.204 0 2.016-.937.829-.938.829-2.922 0-1.906-.844-2.875-.844-.969-2.031-.969-1.172 0-2 .953-.813.953-.813 2.828zm16.281 5.375v-9h-1.546v-1.375h1.546v-1.093q0-1.047.188-1.563.25-.687.89-1.11.641-.421 1.797-.421.75 0 1.641.172l-.266 1.531q-.546-.094-1.03-.094-.798 0-1.141.344-.329.344-.329 1.281v.953h2.032v1.375h-2.032v9h-1.75zm4.938-5.187q0-2.875 1.594-4.266 1.343-1.156 3.265-1.156 2.14 0 3.485 1.406 1.359 1.407 1.359 3.875 0 2-.594 3.157-.594 1.14-1.75 1.78-1.14.626-2.5.626-2.187 0-3.531-1.39-1.328-1.407-1.328-4.032zm1.797 0q0 2 .86 2.984.874.985 2.202.985 1.313 0 2.172-.985.875-1 .875-3.047 0-1.921-.875-2.906-.875-1-2.172-1-1.328 0-2.203 1-.86.985-.86 2.969zm9.828 5.187v-10.375h1.578v1.579q.61-1.11 1.125-1.454.516-.359 1.125-.359.89 0 1.813.563l-.61 1.64q-.64-.39-1.281-.39-.578 0-1.047.359-.453.344-.656.953-.281.938-.281 2.047v5.437h-1.766zm7.016 0v-10.375H137v1.454q.484-.75 1.297-1.22.812-.468 1.843-.468 1.157 0 1.89.484.735.47 1.048 1.329 1.234-1.813 3.203-1.813 1.547 0 2.375.86.828.859.828 2.624v7.125h-1.75v-6.53q0-1.063-.172-1.516-.172-.47-.625-.75-.437-.282-1.047-.282-1.093 0-1.828.735-.719.718-.719 2.312v6.031h-1.75v-6.734q0-1.172-.437-1.75-.422-.594-1.406-.594-.735 0-1.375.39-.625.392-.907 1.142-.28.75-.28 2.171v5.375h-1.766zm23.015-12.296V253.1h1.766v2.016h-1.766zm0 12.296v-10.375h1.766v10.375h-1.766zm3.985 0v-10.375h1.593v1.485q1.14-1.719 3.297-1.719.938 0 1.719.344.797.328 1.187.875.391.547.547 1.297.094.5.094 1.718v6.375h-1.766v-6.312q0-1.078-.203-1.61-.203-.53-.734-.843-.516-.313-1.219-.313-1.125 0-1.937.719-.813.703-.813 2.688v5.671h-1.765zm11 3.97v-14.345h1.609v1.344q.562-.781 1.266-1.172.718-.406 1.734-.406 1.328 0 2.344.688 1.015.687 1.53 1.937.532 1.234.532 2.719 0 1.594-.578 2.875-.563 1.265-1.656 1.953-1.094.672-2.297.672-.875 0-1.578-.375-.688-.375-1.14-.938v5.047h-1.766zm1.593-9.095q0 2 .813 2.954.812.953 1.969.953 1.171 0 2-.985.843-.984.843-3.078 0-1.969-.828-2.953-.812-1-1.937-1t-2 1.063q-.86 1.046-.86 3.046zm16.203 5.125v-1.53q-1.203 1.765-3.28 1.765-.923 0-1.72-.344-.796-.36-1.187-.89-.375-.532-.531-1.313-.11-.516-.11-1.64v-6.423h1.75v5.75q0 1.375.11 1.86.172.687.703 1.094.547.39 1.328.39.797 0 1.484-.406.703-.406.985-1.094.297-.703.297-2.031v-5.563h1.75v10.375h-1.579zm8.047-1.578l.25 1.563q-.734.156-1.328.156-.953 0-1.484-.297-.516-.312-.735-.797-.218-.5-.218-2.078v-5.969h-1.282v-1.375h1.282v-2.562l1.75-1.063v3.625h1.765v1.375h-1.765v6.063q0 .75.093.969.094.203.297.343.219.125.61.125.28 0 .765-.078zm8.125 1.578v-14.312h1.75v14.312h-1.75zm10.813-1.28q-.985.827-1.89 1.171-.907.344-1.938.344-1.703 0-2.625-.828-.922-.844-.922-2.141 0-.766.344-1.39.359-.626.921-1 .563-.391 1.266-.594.516-.125 1.563-.266 2.125-.25 3.125-.594.015-.36.015-.468 0-1.063-.5-1.516-.672-.594-2-.594-1.25 0-1.844.438-.578.437-.859 1.547l-1.719-.235q.235-1.11.766-1.781.531-.688 1.547-1.047 1.015-.375 2.36-.375 1.327 0 2.155.313.829.312 1.22.796.39.47.546 1.188.094.453.094 1.625v2.344q0 2.453.11 3.109.109.64.452 1.234h-1.843q-.266-.546-.344-1.28zm-.156-3.923q-.954.39-2.875.657-1.079.156-1.532.359-.437.187-.687.562-.25.375-.25.844 0 .703.531 1.172t1.563.469q1.015 0 1.796-.438.797-.453 1.172-1.218.282-.61.282-1.766v-.64zm6 5.203h-1.625v-14.312h1.75v5.11q1.125-1.407 2.843-1.407.953 0 1.813.39.86.391 1.406 1.094.547.688.86 1.672.312.985.312 2.11 0 2.672-1.313 4.125-1.312 1.453-3.156 1.453t-2.89-1.531v1.296zm-.016-5.265q0 1.86.5 2.703.844 1.344 2.25 1.344 1.156 0 1.984-1 .844-1 .844-2.985 0-2.031-.813-2.984-.796-.969-1.937-.969-1.156 0-2 1-.828 1-.828 2.89zm16.5 1.922l1.812.234q-.421 1.578-1.593 2.469-1.157.875-2.97.875-2.265 0-3.608-1.39-1.329-1.407-1.329-3.938 0-2.625 1.344-4.063 1.344-1.453 3.5-1.453 2.078 0 3.39 1.422 1.329 1.406 1.329 3.984 0 .157-.016.469h-7.734q.094 1.703.969 2.61.875.906 2.172.906.968 0 1.64-.5.688-.516 1.094-1.625zm-5.781-2.844h5.797q-.11-1.297-.657-1.953-.843-1.016-2.187-1.016-1.203 0-2.031.813-.829.797-.922 2.156zm9.64 6.187v-14.312h1.75v14.312h-1.75zm3.328-3.093l1.75-.282q.141 1.047.813 1.61.672.547 1.875.547 1.203 0 1.781-.485.594-.5.594-1.156 0-.594-.516-.937-.36-.235-1.797-.594-1.937-.5-2.687-.844-.734-.36-1.125-.984-.39-.641-.39-1.407 0-.687.312-1.28.328-.595.875-.985.406-.297 1.11-.5.718-.219 1.53-.219 1.22 0 2.141.36.922.343 1.36.953.437.593.609 1.593l-1.719.235q-.125-.797-.688-1.235-.562-.453-1.578-.453-1.218 0-1.734.406-.516.391-.516.922 0 .344.22.625.202.282.671.469.266.094 1.547.438 1.875.5 2.61.828.734.312 1.156.922.421.593.421 1.5 0 .875-.515 1.656-.516.781-1.485 1.203-.968.422-2.187.422-2.016 0-3.078-.844-1.063-.844-1.36-2.484zM97.594 319.24v-14.312h2.86l3.375 10.125q.469 1.422.687 2.125.25-.782.766-2.297l3.422-9.953h2.547v14.312h-1.813v-11.984l-4.172 11.984h-1.703l-4.14-12.187v12.187h-1.829zm16.844-12.297v-2.015h1.766v2.015h-1.766zm0 12.297v-10.375h1.766v10.375h-1.766zm3.281-3.094l1.75-.28q.141 1.046.813 1.609.672.546 1.875.546 1.203 0 1.781-.484.594-.5.594-1.156 0-.594-.516-.938-.36-.234-1.797-.593-1.937-.5-2.687-.844-.734-.36-1.125-.985-.39-.64-.39-1.406 0-.687.312-1.281.328-.594.875-.984.406-.297 1.11-.5.718-.22 1.53-.22 1.22 0 2.141.36.922.344 1.36.953.437.594.609 1.594l-1.719.234q-.125-.796-.688-1.234-.562-.453-1.578-.453-1.218 0-1.734.406-.516.39-.516.922 0 .344.22.625.202.281.671.469.266.094 1.547.437 1.875.5 2.61.828.734.313 1.156.922.421.594.421 1.5 0 .875-.515 1.657-.516.78-1.485 1.203-.968.422-2.187.422-2.016 0-3.078-.844-1.063-.844-1.36-2.485zm10 0l1.75-.28q.141 1.046.813 1.609.672.546 1.875.546 1.203 0 1.781-.484.594-.5.594-1.156 0-.594-.516-.938-.36-.234-1.797-.593-1.937-.5-2.687-.844-.734-.36-1.125-.985-.39-.64-.39-1.406 0-.687.312-1.281.328-.594.875-.984.406-.297 1.11-.5.718-.22 1.53-.22 1.22 0 2.141.36.922.344 1.36.953.437.594.609 1.594l-1.719.234q-.125-.796-.688-1.234-.562-.453-1.578-.453-1.218 0-1.734.406-.516.39-.516.922 0 .344.22.625.202.281.671.469.266.094 1.547.437 1.875.5 2.61.828.734.313 1.156.922.421.594.421 1.5 0 .875-.515 1.657-.516.78-1.485 1.203-.968.422-2.187.422-2.016 0-3.078-.844-1.063-.844-1.36-2.485zm10.72-9.203v-2.015h1.765v2.015h-1.766zm0 12.297v-10.375h1.765v10.375h-1.766zm3.984 0v-10.375h1.593v1.485q1.14-1.72 3.297-1.72.938 0 1.719.345.797.328 1.187.875.391.546.547 1.296.094.5.094 1.72v6.374h-1.766v-6.312q0-1.078-.203-1.61-.203-.531-.734-.843-.516-.313-1.219-.313-1.125 0-1.937.719-.813.703-.813 2.687v5.672h-1.765zm10.687.86l1.703.25q.11.796.594 1.156.656.484 1.797.484 1.219 0 1.875-.484.672-.485.906-1.36.14-.546.125-2.265-1.156 1.36-2.875 1.36-2.14 0-3.313-1.548-1.171-1.547-1.171-3.703 0-1.484.53-2.734.548-1.25 1.563-1.938 1.032-.687 2.407-.687 1.828 0 3.03 1.484v-1.25h1.61v8.969q0 2.422-.5 3.422-.484 1.015-1.562 1.594-1.063.593-2.625.593-1.844 0-3-.828-1.14-.828-1.094-2.515zm1.453-6.235q0 2.047.813 2.985.812.937 2.03.937 1.204 0 2.017-.937.828-.938.828-2.922 0-1.907-.844-2.875-.844-.97-2.031-.97-1.172 0-2 .954-.813.953-.813 2.828zm22.594 5.375v-1.312q-.984 1.547-2.906 1.547-1.235 0-2.282-.688-1.03-.687-1.609-1.906-.563-1.219-.563-2.813 0-1.562.516-2.828.516-1.265 1.547-1.937 1.047-.672 2.313-.672.937 0 1.671.406.735.39 1.204 1.016v-5.125h1.734v14.312h-1.625zm-5.563-5.172q0 1.985.844 2.969.844.984 1.985.984 1.156 0 1.953-.937.812-.938.812-2.875 0-2.125-.828-3.125-.813-1-2.016-1-1.171 0-1.968.969-.782.953-.782 3.015zm9.188-.015q0-2.875 1.594-4.266 1.343-1.156 3.265-1.156 2.14 0 3.485 1.406 1.359 1.406 1.359 3.875 0 2-.594 3.156-.593 1.14-1.75 1.782-1.14.625-2.5.625-2.187 0-3.531-1.391-1.328-1.406-1.328-4.031zm1.797 0q0 2 .86 2.984.874.984 2.202.984 1.313 0 2.172-.984.875-1 .875-3.047 0-1.922-.875-2.906-.875-1-2.172-1-1.328 0-2.203 1-.86.984-.86 2.969zm16.625 1.39l1.719.219q-.282 1.797-1.454 2.813-1.156 1-2.859 1-2.125 0-3.422-1.391-1.297-1.39-1.297-3.984 0-1.688.547-2.938.563-1.266 1.703-1.89 1.14-.641 2.485-.641 1.687 0 2.75.86 1.078.859 1.39 2.421l-1.718.266q-.235-1.047-.86-1.563-.625-.531-1.5-.531-1.328 0-2.156.953-.828.953-.828 3 0 2.094.797 3.047.797.937 2.093.937 1.032 0 1.72-.625.702-.64.89-1.953zm10.015 3.797v-1.531q-1.203 1.766-3.28 1.766-.923 0-1.72-.344-.796-.36-1.187-.89-.375-.532-.531-1.313-.11-.516-.11-1.641v-6.422h1.75v5.75q0 1.375.11 1.86.172.687.703 1.093.547.39 1.328.39.797 0 1.484-.405.703-.407.985-1.094.297-.703.297-2.031v-5.563h1.75v10.375h-1.579zm4.204 0v-10.375H215v1.453q.484-.75 1.297-1.218.812-.47 1.843-.47 1.157 0 1.89.485.735.469 1.048 1.328 1.234-1.812 3.203-1.812 1.547 0 2.375.86.828.859.828 2.624v7.125h-1.75v-6.531q0-1.063-.172-1.516-.172-.468-.625-.75-.437-.281-1.047-.281-1.093 0-1.828.734-.719.72-.719 2.313v6.031h-1.75v-6.734q0-1.172-.437-1.75-.422-.594-1.406-.594-.735 0-1.375.39-.625.391-.907 1.141-.28.75-.28 2.172v5.375h-1.766zm24.109-3.344l1.812.235q-.421 1.578-1.593 2.469-1.157.875-2.97.875-2.265 0-3.608-1.391-1.329-1.406-1.329-3.938 0-2.625 1.344-4.062 1.344-1.453 3.5-1.453 2.078 0 3.39 1.422 1.329 1.406 1.329 3.984 0 .156-.016.469h-7.734q.094 1.703.969 2.61.875.905 2.172.905.968 0 1.64-.5.688-.515 1.094-1.625zm-5.781-2.843h5.797q-.11-1.297-.657-1.953-.843-1.016-2.187-1.016-1.203 0-2.031.812-.829.797-.922 2.157zm9.672 6.187v-10.375h1.593v1.485q1.14-1.72 3.297-1.72.938 0 1.719.345.797.328 1.187.875.391.546.547 1.296.094.5.094 1.72v6.374h-1.766v-6.312q0-1.078-.203-1.61-.203-.531-.734-.843-.516-.313-1.219-.313-1.125 0-1.937.719-.813.703-.813 2.687v5.672h-1.765zm14.843-1.578l.25 1.563q-.734.156-1.328.156-.953 0-1.484-.297-.516-.313-.735-.797-.218-.5-.218-2.078v-5.969h-1.282v-1.375h1.282v-2.562l1.75-1.063v3.625h1.765v1.375h-1.765v6.063q0 .75.093.968.094.204.297.344.219.125.61.125.28 0 .765-.078zM177.391 343.24v-14.312h1.75v14.312h-1.75zm10.813-1.281q-.985.828-1.89 1.172-.907.344-1.938.344-1.703 0-2.625-.829-.922-.843-.922-2.14 0-.766.344-1.39.359-.626.921-1 .563-.391 1.266-.595.516-.125 1.563-.265 2.125-.25 3.125-.594.015-.36.015-.469 0-1.062-.5-1.515-.672-.594-2-.594-1.25 0-1.844.437-.578.438-.859 1.547l-1.719-.234q.235-1.11.766-1.781.531-.688 1.547-1.047 1.015-.375 2.36-.375 1.327 0 2.155.312.829.313 1.22.797.39.469.546 1.188.094.453.094 1.625v2.343q0 2.454.11 3.11.109.64.452 1.234h-1.843q-.266-.547-.344-1.281zm-.156-3.922q-.954.39-2.875.656-1.079.157-1.532.36-.437.187-.687.562-.25.375-.25.844 0 .703.531 1.172t1.563.469q1.015 0 1.796-.438.797-.453 1.172-1.219.282-.61.282-1.765v-.641zm4.375 5.203v-10.375h1.593v1.485q1.14-1.72 3.297-1.72.938 0 1.719.345.797.328 1.187.875.391.546.547 1.296.094.5.094 1.72v6.374h-1.766v-6.312q0-1.078-.203-1.61-.203-.531-.734-.843-.516-.313-1.219-.313-1.125 0-1.937.719-.813.703-.813 2.687v5.672h-1.765zm10.687.86l1.703.25q.11.796.594 1.156.656.484 1.797.484 1.219 0 1.875-.484.672-.485.906-1.36.14-.546.125-2.265-1.156 1.36-2.875 1.36-2.14 0-3.313-1.548-1.171-1.547-1.171-3.703 0-1.484.53-2.734.548-1.25 1.563-1.938 1.032-.687 2.407-.687 1.828 0 3.03 1.484v-1.25h1.61v8.969q0 2.422-.5 3.422-.484 1.015-1.562 1.594-1.063.593-2.625.593-1.844 0-3-.828-1.14-.828-1.094-2.515zm1.453-6.235q0 2.047.813 2.985.812.937 2.03.937 1.204 0 2.017-.937.828-.938.828-2.922 0-1.907-.844-2.875-.844-.97-2.031-.97-1.172 0-2 .954-.813.953-.813 2.828zm16.656 5.375v-1.531q-1.203 1.766-3.28 1.766-.923 0-1.72-.344-.796-.36-1.187-.89-.375-.532-.531-1.313-.11-.516-.11-1.641v-6.422h1.75v5.75q0 1.375.11 1.86.172.687.703 1.093.547.39 1.328.39.797 0 1.484-.405.703-.407.985-1.094.297-.703.297-2.031v-5.563h1.75v10.375h-1.579zm10.985-1.281q-.985.828-1.89 1.172-.907.344-1.938.344-1.703 0-2.625-.829-.922-.843-.922-2.14 0-.766.344-1.39.359-.626.921-1 .563-.391 1.266-.595.516-.125 1.563-.265 2.125-.25 3.125-.594.015-.36.015-.469 0-1.062-.5-1.515-.672-.594-2-.594-1.25 0-1.844.437-.578.438-.859 1.547l-1.719-.234q.235-1.11.766-1.781.531-.688 1.547-1.047 1.015-.375 2.36-.375 1.327 0 2.155.312.829.313 1.22.797.39.469.546 1.188.094.453.094 1.625v2.343q0 2.454.11 3.11.109.64.452 1.234h-1.843q-.266-.547-.344-1.281zm-.156-3.922q-.954.39-2.875.656-1.079.157-1.532.36-.437.187-.687.562-.25.375-.25.844 0 .703.531 1.172t1.563.469q1.015 0 1.796-.438.797-.453 1.172-1.219.282-.61.282-1.765v-.641zm4.062 6.063l1.703.25q.11.796.594 1.156.656.484 1.797.484 1.219 0 1.875-.484.672-.485.906-1.36.14-.546.125-2.265-1.156 1.36-2.875 1.36-2.14 0-3.313-1.548-1.171-1.547-1.171-3.703 0-1.484.53-2.734.548-1.25 1.563-1.938 1.032-.687 2.407-.687 1.828 0 3.03 1.484v-1.25h1.61v8.969q0 2.422-.5 3.422-.484 1.015-1.562 1.594-1.063.593-2.625.593-1.844 0-3-.828-1.14-.828-1.094-2.515zm1.453-6.235q0 2.047.813 2.985.812.937 2.03.937 1.204 0 2.017-.937.828-.938.828-2.922 0-1.907-.844-2.875-.844-.97-2.031-.97-1.172 0-2 .954-.813.953-.813 2.828zm16.969 2.031l1.812.235q-.421 1.578-1.593 2.469-1.157.875-2.97.875-2.265 0-3.608-1.391-1.329-1.406-1.329-3.938 0-2.625 1.344-4.062 1.344-1.453 3.5-1.453 2.078 0 3.39 1.422 1.329 1.406 1.329 3.984 0 .156-.016.469h-7.734q.094 1.703.969 2.61.875.905 2.172.905.968 0 1.64-.5.688-.515 1.094-1.625zm-5.781-2.843h5.797q-.11-1.297-.657-1.953-.843-1.016-2.187-1.016-1.203 0-2.031.812-.829.797-.922 2.157zM129.688 395.067v-14.313h10.36v1.688h-8.454v4.375h7.907v1.687h-7.907v4.875h8.782v1.688h-10.688zm12.735 0v-10.375H144v1.453q.484-.75 1.297-1.219.812-.468 1.843-.468 1.157 0 1.89.484.735.469 1.048 1.328 1.234-1.812 3.203-1.812 1.547 0 2.375.859.828.86.828 2.625v7.125h-1.75v-6.531q0-1.063-.172-1.516-.172-.469-.625-.75-.437-.281-1.047-.281-1.093 0-1.828.734-.719.719-.719 2.313v6.03h-1.75v-6.733q0-1.172-.437-1.75-.422-.594-1.406-.594-.735 0-1.375.39-.625.391-.907 1.141-.28.75-.28 2.172v5.375h-1.766zm17 3.969v-14.344h1.609v1.344q.562-.782 1.266-1.172.718-.406 1.734-.406 1.328 0 2.344.687 1.015.688 1.53 1.938.532 1.234.532 2.718 0 1.594-.578 2.875-.563 1.266-1.656 1.953-1.094.672-2.297.672-.875 0-1.578-.375-.688-.375-1.14-.937v5.047h-1.766zm1.593-9.094q0 2 .813 2.953.812.953 1.969.953 1.171 0 2-.984.843-.985.843-3.078 0-1.97-.828-2.953-.812-1-1.937-1t-2 1.062q-.86 1.047-.86 3.047zm13.25 3.547l.25 1.562q-.734.157-1.328.157-.953 0-1.484-.297-.516-.313-.735-.797-.218-.5-.218-2.078v-5.97h-1.282v-1.374h1.282v-2.563l1.75-1.062v3.625h1.765v1.375h-1.765v6.062q0 .75.093.97.094.202.297.343.219.125.61.125.28 0 .765-.078zm2.078 5.578l-.187-1.656q.578.156 1 .156.594 0 .937-.203.36-.188.579-.531.171-.266.546-1.313.047-.156.157-.437l-3.938-10.391h1.89l2.157 6.016q.422 1.14.75 2.39.313-1.203.719-2.36l2.219-6.046h1.765l-3.953 10.547q-.625 1.719-.984 2.36-.47.874-1.078 1.265-.594.406-1.438.406-.516 0-1.14-.203zm17.704-4h-1.625v-14.313h1.75v5.11q1.125-1.406 2.843-1.406.953 0 1.813.39t1.406 1.094q.547.687.86 1.672.312.984.312 2.11 0 2.671-1.313 4.124-1.312 1.453-3.156 1.453t-2.89-1.53v1.296zm-.016-5.266q0 1.86.5 2.703.844 1.344 2.25 1.344 1.156 0 1.984-1 .844-1 .844-2.984 0-2.031-.813-2.985-.796-.968-1.937-.968-1.156 0-2 1-.828 1-.828 2.89zm16.187 5.266v-1.531q-1.203 1.765-3.28 1.765-.923 0-1.72-.343-.796-.36-1.187-.891-.375-.531-.531-1.313-.11-.515-.11-1.64v-6.422h1.75v5.75q0 1.375.11 1.86.172.687.703 1.093.547.39 1.328.39.797 0 1.484-.406.703-.406.985-1.093.297-.703.297-2.032v-5.562h1.75v10.375h-1.579zm8.047-1.578l.25 1.562q-.734.157-1.328.157-.953 0-1.484-.297-.516-.313-.735-.797-.218-.5-.218-2.078v-5.97h-1.282v-1.374h1.282v-2.563l1.75-1.062v3.625h1.765v1.375h-1.765v6.062q0 .75.093.97.094.202.297.343.219.125.61.125.28 0 .765-.078zm6 0l.25 1.562q-.734.157-1.328.157-.953 0-1.484-.297-.516-.313-.735-.797-.218-.5-.218-2.078v-5.97h-1.282v-1.374h1.282v-2.563l1.75-1.062v3.625h1.765v1.375h-1.765v6.062q0 .75.093.97.094.202.297.343.219.125.61.125.28 0 .765-.078zm1.516-3.61q0-2.875 1.594-4.265 1.343-1.156 3.265-1.156 2.14 0 3.485 1.406 1.359 1.406 1.359 3.875 0 2-.594 3.156-.593 1.14-1.75 1.781-1.14.625-2.5.625-2.187 0-3.531-1.39-1.328-1.407-1.328-4.032zm1.797 0q0 2 .86 2.985.874.984 2.202.984 1.313 0 2.172-.984.875-1 .875-3.047 0-1.922-.875-2.906-.875-1-2.172-1-1.328 0-2.203 1-.86.984-.86 2.968zm9.844 5.188v-10.375h1.593v1.484q1.14-1.718 3.297-1.718.938 0 1.719.343.797.328 1.187.875.391.547.547 1.297.094.5.094 1.719v6.375h-1.766v-6.313q0-1.078-.203-1.609-.203-.531-.734-.844-.516-.312-1.219-.312-1.125 0-1.937.719-.813.703-.813 2.687v5.672h-1.765zm10.296-3.094l1.75-.281q.141 1.047.813 1.61.672.546 1.875.546 1.203 0 1.781-.484.594-.5.594-1.156 0-.594-.516-.938-.36-.234-1.797-.594-1.937-.5-2.687-.843-.734-.36-1.125-.985-.39-.64-.39-1.406 0-.688.312-1.281.328-.594.875-.985.406-.297 1.11-.5.718-.218 1.53-.218 1.22 0 2.141.359.922.344 1.36.953.437.594.609 1.594l-1.719.234q-.125-.797-.688-1.234-.562-.453-1.578-.453-1.218 0-1.734.406-.516.39-.516.922 0 .344.22.625.202.281.671.469.266.093 1.547.437 1.875.5 2.61.828.734.313 1.156.922.421.594.421 1.5 0 .875-.515 1.656-.516.782-1.485 1.203-.968.422-2.187.422-2.016 0-3.078-.843-1.063-.844-1.36-2.485zM257.688 446.212q0-1.78.36-2.859.375-1.094 1.093-1.672.719-.594 1.813-.594.812 0 1.422.329.609.328 1 .937.406.61.625 1.484.218.875.218 2.375 0 1.766-.359 2.844-.36 1.078-1.078 1.672-.719.594-1.828.594-1.438 0-2.266-1.047-1-1.25-1-4.063zm1.266 0q0 2.47.578 3.282.578.812 1.422.812.86 0 1.437-.812.578-.828.578-3.282 0-2.484-.578-3.296-.578-.813-1.453-.813-.844 0-1.344.719-.64.922-.64 3.39zm6.969-2.671q0-1.079.53-1.829.548-.75 1.579-.75.937 0 1.547.672.625.672.625 1.97 0 1.28-.625 1.968-.625.687-1.531.687-.907 0-1.516-.672-.61-.687-.61-2.046zm2.14-1.735q-.453 0-.765.406-.297.391-.297 1.438 0 .969.297 1.36.312.39.765.39.469 0 .766-.39.312-.391.312-1.454 0-.969-.312-1.36-.313-.39-.766-.39zm0 9.719l5.485-10.563h1l-5.454 10.563h-1.03zm4.344-2.734q0-1.079.531-1.813.547-.75 1.578-.75.938 0 1.563.672t.625 1.969q0 1.281-.625 1.968-.625.688-1.563.688-.906 0-1.515-.672-.594-.687-.594-2.062zm2.14-1.72q-.468 0-.765.407-.297.39-.297 1.438 0 .968.297 1.359.312.39.766.39.468 0 .765-.39.313-.39.313-1.453 0-.969-.313-1.36-.297-.39-.765-.39zM488.917 449.962v1.188h-6.625q-.016-.438.14-.86.266-.671.813-1.328.563-.656 1.61-1.515 1.64-1.344 2.202-2.125.579-.781.579-1.485 0-.734-.532-1.234-.515-.5-1.343-.5-.891 0-1.438.531-.531.532-.531 1.485l-1.266-.14q.125-1.407.969-2.142.86-.75 2.281-.75 1.453 0 2.281.797.844.797.844 1.985 0 .61-.25 1.187-.234.578-.812 1.219-.563.64-1.89 1.766-1.11.921-1.423 1.265-.312.328-.515.656h4.906zm1.531-1.437l1.297-.11q.14.938.656 1.422.531.47 1.266.47.89 0 1.5-.673.625-.672.625-1.765 0-1.063-.594-1.672-.594-.61-1.547-.61-.594 0-1.078.282-.469.265-.75.687l-1.156-.14.969-5.157h4.984v1.188h-4l-.531 2.687q.906-.625 1.89-.625 1.313 0 2.204.907.906.906.906 2.343 0 1.36-.781 2.344-.97 1.219-2.641 1.219-1.36 0-2.234-.766-.86-.765-.985-2.031zm8.235-4.984q0-1.079.53-1.829.548-.75 1.579-.75.937 0 1.547.672.625.672.625 1.97 0 1.28-.625 1.968-.625.687-1.531.687-.907 0-1.516-.672-.61-.687-.61-2.046zm2.14-1.735q-.453 0-.765.406-.297.391-.297 1.438 0 .969.296 1.36.313.39.766.39.469 0 .766-.39.312-.391.312-1.454 0-.969-.312-1.36-.313-.39-.766-.39zm0 9.719l5.485-10.563h1l-5.454 10.563h-1.03zm4.344-2.734q0-1.079.531-1.813.547-.75 1.578-.75.938 0 1.563.672t.625 1.969q0 1.281-.625 1.968-.625.688-1.563.688-.906 0-1.515-.672-.594-.687-.594-2.062zm2.14-1.72q-.468 0-.765.407-.297.39-.297 1.438 0 .968.297 1.359.312.39.766.39.468 0 .765-.39.313-.39.313-1.453 0-.969-.313-1.36-.297-.39-.765-.39zM711.208 448.525l1.297-.11q.14.938.656 1.422.532.47 1.266.47.89 0 1.5-.673.625-.672.625-1.765 0-1.063-.594-1.672-.594-.61-1.547-.61-.593 0-1.078.282-.469.265-.75.687l-1.156-.14.969-5.157h4.984v1.188h-4l-.531 2.687q.906-.625 1.89-.625 1.313 0 2.203.907.907.906.907 2.343 0 1.36-.782 2.344-.968 1.219-2.64 1.219-1.36 0-2.235-.766-.859-.765-.984-2.031zm8-2.313q0-1.78.36-2.859.375-1.094 1.093-1.672.719-.594 1.813-.594.812 0 1.422.329.609.328 1 .937.406.61.625 1.484.218.875.218 2.375 0 1.766-.359 2.844-.36 1.078-1.078 1.672-.719.594-1.828.594-1.438 0-2.266-1.047-1-1.25-1-4.063zm1.266 0q0 2.47.578 3.282.578.812 1.422.812.86 0 1.437-.812.578-.828.578-3.282 0-2.484-.578-3.296-.578-.813-1.453-.813-.844 0-1.344.719-.64.922-.64 3.39zm6.968-2.671q0-1.079.532-1.829.547-.75 1.578-.75.937 0 1.547.672.625.672.625 1.97 0 1.28-.625 1.968-.625.687-1.532.687-.906 0-1.515-.672-.61-.687-.61-2.046zm2.141-1.735q-.453 0-.765.406-.297.391-.297 1.438 0 .969.297 1.36.312.39.765.39.469 0 .766-.39.312-.391.312-1.454 0-.969-.312-1.36-.313-.39-.766-.39zm0 9.719l5.485-10.563h1l-5.454 10.563h-1.03zm4.344-2.734q0-1.079.531-1.813.547-.75 1.578-.75.938 0 1.563.672t.625 1.969q0 1.281-.625 1.968-.625.688-1.563.688-.906 0-1.515-.672-.594-.687-.594-2.062zm2.14-1.72q-.468 0-.765.407-.297.39-.297 1.438 0 .968.297 1.359.312.39.765.39.47 0 .766-.39.313-.39.313-1.453 0-.969-.313-1.36-.297-.39-.765-.39zM940.046 442.447v-1.188h6.5v.953q-.969 1.016-1.906 2.704-.938 1.687-1.453 3.484-.36 1.25-.469 2.75h-1.265q.015-1.188.453-2.86.453-1.671 1.28-3.218.845-1.563 1.782-2.625h-4.922zm7.922 6.078l1.297-.11q.14.938.656 1.422.531.47 1.266.47.89 0 1.5-.673.625-.672.625-1.765 0-1.063-.594-1.672-.594-.61-1.547-.61-.594 0-1.078.282-.469.265-.75.687l-1.156-.14.969-5.157h4.984v1.188h-4l-.531 2.687q.906-.625 1.89-.625 1.313 0 2.203.907.907.906.907 2.343 0 1.36-.782 2.344-.968 1.219-2.64 1.219-1.36 0-2.235-.766-.859-.765-.984-2.031zm8.235-4.984q0-1.079.53-1.829.548-.75 1.579-.75.937 0 1.547.672.625.672.625 1.97 0 1.28-.625 1.968-.625.687-1.532.687-.906 0-1.515-.672-.61-.687-.61-2.046zm2.14-1.735q-.453 0-.765.406-.297.391-.297 1.438 0 .969.297 1.36.312.39.765.39.469 0 .766-.39.312-.391.312-1.454 0-.969-.312-1.36-.313-.39-.766-.39zm0 9.719l5.485-10.563h1l-5.454 10.563h-1.03zm4.344-2.734q0-1.079.531-1.813.547-.75 1.578-.75.938 0 1.563.672t.625 1.969q0 1.281-.625 1.968-.625.688-1.563.688-.906 0-1.515-.672-.594-.687-.594-2.062zm2.14-1.72q-.468 0-.765.407-.297.39-.297 1.438 0 .968.297 1.359.312.39.765.39.47 0 .766-.39.313-.39.313-1.453 0-.969-.313-1.36-.297-.39-.765-.39zM1169.369 451.15h-1.235v-7.844q-.437.422-1.171.86-.72.421-1.282.625v-1.188q1.032-.484 1.797-1.172.781-.687 1.094-1.344h.797v10.063zm3.36-4.938q0-1.78.359-2.859.375-1.094 1.093-1.672.719-.594 1.813-.594.812 0 1.422.329.609.328 1 .937.406.61.625 1.484.218.875.218 2.375 0 1.766-.359 2.844-.36 1.078-1.078 1.672-.719.594-1.828.594-1.438 0-2.266-1.047-1-1.25-1-4.063zm1.265 0q0 2.47.578 3.282.578.812 1.422.812.86 0 1.437-.812.578-.828.578-3.282 0-2.484-.578-3.296-.578-.813-1.453-.813-.844 0-1.344.719-.64.922-.64 3.39zm6.734 0q0-1.78.36-2.859.375-1.094 1.093-1.672.719-.594 1.813-.594.812 0 1.422.329.609.328 1 .937.406.61.625 1.484.218.875.218 2.375 0 1.766-.359 2.844-.36 1.078-1.078 1.672-.719.594-1.828.594-1.438 0-2.266-1.047-1-1.25-1-4.063zm1.266 0q0 2.47.578 3.282.578.812 1.422.812.86 0 1.437-.812.578-.828.578-3.282 0-2.484-.578-3.296-.578-.813-1.453-.813-.844 0-1.344.719-.64.922-.64 3.39zm6.969-2.671q0-1.079.53-1.829.548-.75 1.579-.75.937 0 1.547.672.625.672.625 1.97 0 1.28-.625 1.968-.625.687-1.531.687-.907 0-1.516-.672-.61-.687-.61-2.046zm2.14-1.735q-.453 0-.765.406-.297.391-.297 1.438 0 .969.297 1.36.312.39.765.39.469 0 .766-.39.312-.391.312-1.454 0-.969-.312-1.36-.313-.39-.766-.39zm0 9.719l5.485-10.563h1l-5.454 10.563h-1.03zm4.344-2.734q0-1.079.531-1.813.547-.75 1.578-.75.938 0 1.563.672t.625 1.969q0 1.281-.625 1.968-.625.688-1.563.688-.906 0-1.515-.672-.594-.687-.594-2.062zm2.14-1.72q-.468 0-.765.407-.297.39-.297 1.438 0 .968.297 1.359.312.39.766.39.468 0 .765-.39.313-.39.313-1.453 0-.969-.313-1.36-.297-.39-.765-.39z"/></svg>