<?xml version="1.0" encoding="utf-8"?>
<!-- Generator: Adobe Illustrator 19.0.1, SVG Export Plug-In . SVG Version: 6.00 Build 0)  -->
<svg version="1.1" xmlns="http://www.w3.org/2000/svg" xmlns:xlink="http://www.w3.org/1999/xlink" x="0px" y="0px"
	 viewBox="-787 489 24 24" style="enable-background:new -787 489 24 24;" xml:space="preserve">
<style type="text/css">
	.st0{fill:#E91E63;stroke:#000000;stroke-miterlimit:10;}
	.st1{fill:none;}
	.st2{display:none;}
	.st3{display:inline;fill:none;}
	.st4{display:inline;fill:#00BCD6;stroke:#000000;stroke-miterlimit:10;}
</style>
<g id="Layer_1">
	<path class="st0" d="M-775,491c-3.9,0-7,3.1-7,7c0,5.2,7,13,7,13s7-7.8,7-13C-768,494.1-771.1,491-775,491z M-775,500.5
		c-1.4,0-2.5-1.1-2.5-2.5s1.1-2.5,2.5-2.5s2.5,1.1,2.5,2.5S-773.6,500.5-775,500.5z"/>
	<path class="st1" d="M-787,489h24v24h-24V489z"/>
</g>
<g id="Layer_2" class="st2">
	<path class="st3" d="M-788.3,488h26.6v26.6h-26.6V488z"/>
	<path class="st4" d="M-775,506.9l6.5,3.9l-1.7-7.4l5.8-5l-7.6-0.6l-3-7l-3,7l-7.6,0.6l5.8,5l-1.7,7.4L-775,506.9z"/>
	<path class="st3" d="M-788.3,488h26.6v26.6h-26.6V488z"/>
</g>
</svg>
