<?xml version="1.0" standalone="yes"?>

<svg version="1.1" viewBox="0.0 150.0 1152.0 300.0" fill="none" stroke="none" stroke-linecap="square" stroke-miterlimit="10" xmlns="http://www.w3.org/2000/svg" xmlns:xlink="http://www.w3.org/1999/xlink"><clipPath id="p.0"><path d="m0 0l1152.0 0l0 864.0l-1152.0 0l0 -864.0z" clip-rule="nonzero"></path></clipPath><g clip-path="url(#p.0)"><path fill="#000000" fill-opacity="0.0" d="m0 0l1152.0 0l0 864.0l-1152.0 0z" fill-rule="evenodd"></path><path fill="#3d85c6" d="m156.37534 192.38846l343.62204 0l0 246.61417l-343.62204 0z" fill-rule="evenodd"></path><path stroke="#ffffff" stroke-width="2.0" stroke-linejoin="round" stroke-linecap="butt" d="m156.37534 192.38846l343.62204 0l0 246.61417l-343.62204 0z" fill-rule="evenodd"></path><path fill="#ffffff" d="m283.1033 219.30846l-1.125 -2.8125l-6.3125 0l-1.125 2.8125l-1.796875 0l5.09375 -12.671875l1.953125 0l5.109375 12.671875l-1.796875 0zm-4.28125 -11.03125l-2.703125 6.8125l5.390625 0l-2.6875 -6.8125zm13.650818 11.03125l0 -1.296875q-0.53125 0.609375 -1.390625 1.078125q-0.859375 0.453125 -1.890625 0.453125q-2.921875 0 -2.921875 -2.9375l0 -6.46875l1.421875 0l0 6.03125q0 1.09375 0.5 1.59375q0.5 0.5 1.5625 0.5q0.828125 0 1.5625 -0.40625q0.75 -0.421875 1.15625 -0.984375l0 -6.734375l1.421875 0l0 9.171875l-1.421875 0zm10.732727 0l0 -1.375q-0.515625 0.703125 -1.328125 1.15625q-0.796875 0.453125 -1.765625 0.453125q-1.84375 0 -2.96875 -1.3125q-1.125 -1.3125 -1.125 -3.5q0 -2.203125 1.125 -3.515625q1.140625 -1.3125 2.96875 -1.3125q0.921875 0 1.734375 0.4375q0.8125 0.421875 1.359375 1.171875l0 -4.875l1.421875 0l0 12.671875l-1.421875 0zm-2.765625 -1.046875q0.859375 0 1.609375 -0.40625q0.765625 -0.421875 1.15625 -1.03125l0 -4.171875q-0.390625 -0.609375 -1.15625 -1.03125q-0.75 -0.4375 -1.609375 -0.4375q-1.328125 0 -2.140625 0.96875q-0.796875 0.96875 -0.796875 2.578125q0 1.578125 0.796875 2.5625q0.796875 0.96875 2.140625 0.96875zm7.539856 -9.4375q-0.375 0 -0.671875 -0.265625q-0.28125 -0.28125 -0.28125 -0.6875q0 -0.40625 0.28125 -0.6875q0.296875 -0.28125 0.671875 -0.28125q0.40625 0 0.6875 0.28125q0.28125 0.28125 0.28125 0.6875q0 0.40625 -0.28125 0.6875q-0.28125 0.265625 -0.6875 0.265625zm-0.703125 10.484375l0 -9.171875l1.421875 0l0 9.171875l-1.421875 0zm8.213287 0.234375q-2.0 0 -3.28125 -1.359375q-1.265625 -1.359375 -1.265625 -3.46875q0 -2.125 1.265625 -3.46875q1.28125 -1.34375 3.28125 -1.34375q1.984375 0 3.25 1.34375q1.28125 1.34375 1.28125 3.46875q0 2.109375 -1.28125 3.46875q-1.265625 1.359375 -3.25 1.359375zm0 -1.28125q1.328125 0 2.171875 -1.0q0.859375 -1.0 0.859375 -2.546875q0 -1.546875 -0.859375 -2.53125q-0.84375 -1.0 -2.171875 -1.0q-1.328125 0 -2.203125 0.984375q-0.859375 0.984375 -0.859375 2.546875q0 1.578125 0.84375 2.5625q0.859375 0.984375 2.21875 0.984375zm16.405731 1.046875l-2.796875 -10.21875l-2.78125 10.21875l-1.71875 0l-3.609375 -12.671875l1.75 0l2.8125 10.5625l2.90625 -10.5625l1.3125 0l2.90625 10.5625l2.796875 -10.5625l1.734375 0l-3.609375 12.671875l-1.703125 0zm10.739105 0.234375q-2.0 0 -3.28125 -1.359375q-1.265625 -1.359375 -1.265625 -3.46875q0 -2.125 1.265625 -3.46875q1.28125 -1.34375 3.28125 -1.34375q1.984375 0 3.25 1.34375q1.28125 1.34375 1.28125 3.46875q0 2.109375 -1.28125 3.46875q-1.265625 1.359375 -3.25 1.359375zm0 -1.28125q1.328125 0 2.171875 -1.0q0.859375 -1.0 0.859375 -2.546875q0 -1.546875 -0.859375 -2.53125q-0.84375 -1.0 -2.171875 -1.0q-1.328125 0 -2.203125 0.984375q-0.859375 0.984375 -0.859375 2.546875q0 1.578125 0.84375 2.5625q0.859375 0.984375 2.21875 0.984375zm6.655731 1.046875l0 -9.171875l1.421875 0l0 1.484375q1.28125 -1.671875 3.0625 -1.671875l0 1.453125l-0.5625 -0.0625q-0.65625 0 -1.4375 0.46875q-0.765625 0.46875 -1.0625 1.0l0 6.5l-1.421875 0zm12.406586 0l-3.296875 -4.125l-1.53125 1.5l0 2.625l-1.421875 0l0 -12.671875l1.421875 0l0 8.375l4.828125 -4.875l1.8125 0l-4.0625 4.15625l4.078125 5.015625l-1.828125 0zm3.3392944 0l0 -12.671875l1.421875 0l0 12.671875l-1.421875 0zm8.338287 0.234375q-2.0625 0 -3.375 -1.34375q-1.296875 -1.359375 -1.296875 -3.484375q0 -2.03125 1.296875 -3.421875q1.296875 -1.390625 3.234375 -1.390625q1.96875 0 3.1875 1.375q1.21875 1.359375 1.21875 3.546875l0 0.359375l-7.4375 0q0.078125 1.40625 1.015625 2.296875q0.9375 0.875 2.296875 0.875q1.671875 0 2.828125 -1.15625l0.6875 0.9375q-1.40625 1.40625 -3.65625 1.40625zm2.859375 -5.40625q0 -1.265625 -0.84375 -2.15625q-0.828125 -0.90625 -2.1875 -0.90625q-1.265625 0 -2.109375 0.90625q-0.84375 0.890625 -0.890625 2.15625l6.03125 0zm5.831604 5.40625q-2.046875 0 -2.046875 -2.15625l0 -6.0l-1.515625 0l0 -1.25l1.515625 0l0 -2.515625l1.4375 0l0 2.515625l1.859375 0l0 1.25l-1.859375 0l0 5.703125q0 0.515625 0.21875 0.84375q0.234375 0.328125 0.703125 0.328125q0.59375 0 0.96875 -0.375l0.421875 1.0625q-0.59375 0.59375 -1.703125 0.59375z" fill-rule="nonzero"></path><path fill="#ffffff" d="m316.08408 241.30846l-7.390625 -10.109375l0 10.109375l-1.578125 0l0 -12.671875l1.609375 0l7.296875 9.890625l0 -9.890625l1.578125 0l0 12.671875l-1.515625 0zm8.192993 0.234375q-2.0 0 -3.28125 -1.359375q-1.265625 -1.359375 -1.265625 -3.46875q0 -2.125 1.265625 -3.46875q1.28125 -1.34375 3.28125 -1.34375q1.984375 0 3.25 1.34375q1.28125 1.34375 1.28125 3.46875q0 2.109375 -1.28125 3.46875q-1.265625 1.359375 -3.25 1.359375zm0 -1.28125q1.328125 0 2.171875 -1.0q0.859375 -1.0 0.859375 -2.546875q0 -1.546875 -0.859375 -2.53125q-0.84375 -1.0 -2.171875 -1.0q-1.328125 0 -2.203125 0.984375q-0.859375 0.984375 -0.859375 2.546875q0 1.578125 0.84375 2.5625q0.859375 0.984375 2.21875 0.984375zm13.312012 1.046875l0 -1.375q-0.515625 0.703125 -1.328125 1.15625q-0.796875 0.453125 -1.765625 0.453125q-1.84375 0 -2.96875 -1.3125q-1.125 -1.3125 -1.125 -3.5q0 -2.203125 1.125 -3.515625q1.140625 -1.3125 2.96875 -1.3125q0.921875 0 1.734375 0.4375q0.8125 0.421875 1.359375 1.171875l0 -4.875l1.421875 0l0 12.671875l-1.421875 0zm-2.765625 -1.046875q0.859375 0 1.609375 -0.40625q0.765625 -0.421875 1.15625 -1.03125l0 -4.171875q-0.390625 -0.609375 -1.15625 -1.03125q-0.75 -0.4375 -1.609375 -0.4375q-1.328125 0 -2.140625 0.96875q-0.796875 0.96875 -0.796875 2.578125q0 1.578125 0.796875 2.5625q0.796875 0.96875 2.140625 0.96875zm10.977325 1.28125q-2.0625 0 -3.375 -1.34375q-1.296875 -1.359375 -1.296875 -3.484375q0 -2.03125 1.296875 -3.421875q1.296875 -1.390625 3.234375 -1.390625q1.96875 0 3.1875 1.375q1.21875 1.359375 1.21875 3.546875l0 0.359375l-7.4375 0q0.078125 1.40625 1.015625 2.296875q0.9375 0.875 2.296875 0.875q1.671875 0 2.828125 -1.15625l0.6875 0.9375q-1.40625 1.40625 -3.65625 1.40625zm2.859375 -5.40625q0 -1.265625 -0.84375 -2.15625q-0.828125 -0.90625 -2.1875 -0.90625q-1.265625 0 -2.109375 0.90625q-0.84375 0.890625 -0.890625 2.15625l6.03125 0z" fill-rule="nonzero"></path><path fill="#6aa84f" d="m651.99475 192.38846l343.62207 0l0 246.61417l-343.62207 0z" fill-rule="evenodd"></path><path stroke="#ffffff" stroke-width="2.0" stroke-linejoin="round" stroke-linecap="butt" d="m651.99475 192.38846l343.62207 0l0 246.61417l-343.62207 0z" fill-rule="evenodd"></path><path fill="#ffffff" d="m778.7227 219.30846l-1.125 -2.8125l-6.3125 0l-1.125 2.8125l-1.796875 0l5.09375 -12.671875l1.953125 0l5.109375 12.671875l-1.796875 0zm-4.28125 -11.03125l-2.703125 6.8125l5.390625 0l-2.6875 -6.8125zm13.650818 11.03125l0 -1.296875q-0.53125 0.609375 -1.390625 1.078125q-0.859375 0.453125 -1.890625 0.453125q-2.921875 0 -2.921875 -2.9375l0 -6.46875l1.421875 0l0 6.03125q0 1.09375 0.5 1.59375q0.5 0.5 1.5625 0.5q0.828125 0 1.5625 -0.40625q0.75 -0.421875 1.15625 -0.984375l0 -6.734375l1.421875 0l0 9.171875l-1.421875 0zm10.732727 0l0 -1.375q-0.515625 0.703125 -1.328125 1.15625q-0.796875 0.453125 -1.765625 0.453125q-1.84375 0 -2.96875 -1.3125q-1.125 -1.3125 -1.125 -3.5q0 -2.203125 1.125 -3.515625q1.140625 -1.3125 2.96875 -1.3125q0.921875 0 1.734375 0.4375q0.8125 0.421875 1.359375 1.171875l0 -4.875l1.421875 0l0 12.671875l-1.421875 0zm-2.765625 -1.046875q0.859375 0 1.609375 -0.40625q0.765625 -0.421875 1.15625 -1.03125l0 -4.171875q-0.390625 -0.609375 -1.15625 -1.03125q-0.75 -0.4375 -1.609375 -0.4375q-1.328125 0 -2.140625 0.96875q-0.796875 0.96875 -0.796875 2.578125q0 1.578125 0.796875 2.5625q0.796875 0.96875 2.140625 0.96875zm7.539856 -9.4375q-0.375 0 -0.671875 -0.265625q-0.28125 -0.28125 -0.28125 -0.6875q0 -0.40625 0.28125 -0.6875q0.296875 -0.28125 0.671875 -0.28125q0.40625 0 0.6875 0.28125q0.28125 0.28125 0.28125 0.6875q0 0.40625 -0.28125 0.6875q-0.28125 0.265625 -0.6875 0.265625zm-0.703125 10.484375l0 -9.171875l1.421875 0l0 9.171875l-1.421875 0zm8.213257 0.234375q-2.0 0 -3.28125 -1.359375q-1.265625 -1.359375 -1.265625 -3.46875q0 -2.125 1.265625 -3.46875q1.28125 -1.34375 3.28125 -1.34375q1.984375 0 3.25 1.34375q1.28125 1.34375 1.28125 3.46875q0 2.109375 -1.28125 3.46875q-1.265625 1.359375 -3.25 1.359375zm0 -1.28125q1.328125 0 2.171875 -1.0q0.859375 -1.0 0.859375 -2.546875q0 -1.546875 -0.859375 -2.53125q-0.84375 -1.0 -2.171875 -1.0q-1.328125 0 -2.203125 0.984375q-0.859375 0.984375 -0.859375 2.546875q0 1.578125 0.84375 2.5625q0.859375 0.984375 2.21875 0.984375zm16.405762 1.046875l-2.796875 -10.21875l-2.78125 10.21875l-1.71875 0l-3.609375 -12.671875l1.75 0l2.8125 10.5625l2.90625 -10.5625l1.3125 0l2.90625 10.5625l2.796875 -10.5625l1.734375 0l-3.609375 12.671875l-1.703125 0zm10.739075 0.234375q-2.0 0 -3.28125 -1.359375q-1.265625 -1.359375 -1.265625 -3.46875q0 -2.125 1.265625 -3.46875q1.28125 -1.34375 3.28125 -1.34375q1.984375 0 3.25 1.34375q1.28125 1.34375 1.28125 3.46875q0 2.109375 -1.28125 3.46875q-1.265625 1.359375 -3.25 1.359375zm0 -1.28125q1.328125 0 2.171875 -1.0q0.859375 -1.0 0.859375 -2.546875q0 -1.546875 -0.859375 -2.53125q-0.84375 -1.0 -2.171875 -1.0q-1.328125 0 -2.203125 0.984375q-0.859375 0.984375 -0.859375 2.546875q0 1.578125 0.84375 2.5625q0.859375 0.984375 2.21875 0.984375zm6.6557617 1.046875l0 -9.171875l1.421875 0l0 1.484375q1.28125 -1.671875 3.0625 -1.671875l0 1.453125l-0.5625 -0.0625q-0.65625 0 -1.4375 0.46875q-0.765625 0.46875 -1.0625 1.0l0 6.5l-1.421875 0zm12.406555 0l-3.296875 -4.125l-1.53125 1.5l0 2.625l-1.421875 0l0 -12.671875l1.421875 0l0 8.375l4.828125 -4.875l1.8125 0l-4.0625 4.15625l4.078125 5.015625l-1.828125 0zm3.3393555 0l0 -12.671875l1.421875 0l0 12.671875l-1.421875 0zm8.338257 0.234375q-2.0625 0 -3.375 -1.34375q-1.296875 -1.359375 -1.296875 -3.484375q0 -2.03125 1.296875 -3.421875q1.296875 -1.390625 3.234375 -1.390625q1.96875 0 3.1875 1.375q1.21875 1.359375 1.21875 3.546875l0 0.359375l-7.4375 0q0.078125 1.40625 1.015625 2.296875q0.9375 0.875 2.296875 0.875q1.671875 0 2.828125 -1.15625l0.6875 0.9375q-1.40625 1.40625 -3.65625 1.40625zm2.859375 -5.40625q0 -1.265625 -0.84375 -2.15625q-0.828125 -0.90625 -2.1875 -0.90625q-1.265625 0 -2.109375 0.90625q-0.84375 0.890625 -0.890625 2.15625l6.03125 0zm5.831604 5.40625q-2.046875 0 -2.046875 -2.15625l0 -6.0l-1.515625 0l0 -1.25l1.515625 0l0 -2.515625l1.4375 0l0 2.515625l1.859375 0l0 1.25l-1.859375 0l0 5.703125q0 0.515625 0.21875 0.84375q0.234375 0.328125 0.703125 0.328125q0.59375 0 0.96875 -0.375l0.421875 1.0625q-0.59375 0.59375 -1.703125 0.59375z" fill-rule="nonzero"></path><path fill="#ffffff" d="m784.44226 241.30846l0 -12.671875l5.09375 0q1.796875 0 2.875 1.09375q1.09375 1.078125 1.09375 2.71875q0 1.671875 -1.109375 2.75q-1.09375 1.078125 -2.859375 1.078125l-3.515625 0l0 5.03125l-1.578125 0zm4.90625 -6.4375q1.140625 0 1.828125 -0.65625q0.6875 -0.671875 0.6875 -1.765625q0 -1.078125 -0.6875 -1.734375q-0.6875 -0.671875 -1.828125 -0.671875l-3.328125 0l0 4.828125l3.328125 0zm5.982483 6.4375l0 -9.171875l1.421875 0l0 1.484375q1.28125 -1.671875 3.0625 -1.671875l0 1.453125l-0.5625 -0.0625q-0.65625 0 -1.4375 0.46875q-0.765625 0.46875 -1.0625 1.0l0 6.5l-1.421875 0zm10.17218 0.234375q-2.0 0 -3.28125 -1.359375q-1.265625 -1.359375 -1.265625 -3.46875q0 -2.125 1.265625 -3.46875q1.28125 -1.34375 3.28125 -1.34375q1.984375 0 3.25 1.34375q1.28125 1.34375 1.28125 3.46875q0 2.109375 -1.28125 3.46875q-1.265625 1.359375 -3.25 1.359375zm0 -1.28125q1.328125 0 2.171875 -1.0q0.859375 -1.0 0.859375 -2.546875q0 -1.546875 -0.859375 -2.53125q-0.84375 -1.0 -2.171875 -1.0q-1.328125 0 -2.203125 0.984375q-0.859375 0.984375 -0.859375 2.546875q0 1.578125 0.84375 2.5625q0.859375 0.984375 2.21875 0.984375zm10.702637 1.28125q-2.015625 0 -3.296875 -1.375q-1.28125 -1.375 -1.28125 -3.453125q0 -2.078125 1.28125 -3.4375q1.28125 -1.375 3.296875 -1.375q2.125 0 3.359375 1.59375l-0.9375 0.875q-0.875 -1.1875 -2.34375 -1.1875q-1.40625 0 -2.296875 0.984375q-0.875 0.96875 -0.875 2.546875q0 1.59375 0.875 2.578125q0.875 0.96875 2.296875 0.96875q1.4375 0 2.34375 -1.1875l0.9375 0.859375q-1.234375 1.609375 -3.359375 1.609375zm9.328613 0q-2.0625 0 -3.375 -1.34375q-1.296875 -1.359375 -1.296875 -3.484375q0 -2.03125 1.296875 -3.421875q1.296875 -1.390625 3.234375 -1.390625q1.96875 0 3.1875 1.375q1.21875 1.359375 1.21875 3.546875l0 0.359375l-7.4375 0q0.078125 1.40625 1.015625 2.296875q0.9375 0.875 2.296875 0.875q1.671875 0 2.828125 -1.15625l0.6875 0.9375q-1.40625 1.40625 -3.65625 1.40625zm2.859375 -5.40625q0 -1.265625 -0.84375 -2.15625q-0.828125 -0.90625 -2.1875 -0.90625q-1.265625 0 -2.109375 0.90625q-0.84375 0.890625 -0.890625 2.15625l6.03125 0zm6.409729 5.40625q-2.328125 0 -3.703125 -1.453125l0.75 -1.015625q0.453125 0.53125 1.25 0.921875q0.8125 0.375 1.765625 0.375q1.0625 0 1.609375 -0.4375q0.5625 -0.453125 0.5625 -1.140625q0 -0.59375 -0.609375 -0.9375q-0.59375 -0.359375 -2.234375 -0.75q-1.375 -0.28125 -2.109375 -0.890625q-0.734375 -0.625 -0.734375 -1.671875q0 -1.15625 0.921875 -1.890625q0.9375 -0.75 2.5 -0.75q2.0625 0 3.390625 1.328125l-0.65625 0.984375q-0.421875 -0.484375 -1.140625 -0.8125q-0.703125 -0.34375 -1.59375 -0.34375q-0.953125 0 -1.5 0.421875q-0.53125 0.421875 -0.53125 1.03125q0 0.546875 0.609375 0.875q0.609375 0.3125 2.234375 0.65625q1.390625 0.328125 2.109375 0.984375q0.71875 0.65625 0.71875 1.734375q0 1.28125 -0.984375 2.03125q-0.984375 0.75 -2.625 0.75zm8.67511 0q-2.328125 0 -3.703125 -1.453125l0.75 -1.015625q0.453125 0.53125 1.25 0.921875q0.8125 0.375 1.765625 0.375q1.0625 0 1.609375 -0.4375q0.5625 -0.453125 0.5625 -1.140625q0 -0.59375 -0.609375 -0.9375q-0.59375 -0.359375 -2.234375 -0.75q-1.375 -0.28125 -2.109375 -0.890625q-0.734375 -0.625 -0.734375 -1.671875q0 -1.15625 0.921875 -1.890625q0.9375 -0.75 2.5 -0.75q2.0625 0 3.390625 1.328125l-0.65625 0.984375q-0.421875 -0.484375 -1.140625 -0.8125q-0.703125 -0.34375 -1.59375 -0.34375q-0.953125 0 -1.5 0.421875q-0.53125 0.421875 -0.53125 1.03125q0 0.546875 0.609375 0.875q0.609375 0.3125 2.234375 0.65625q1.390625 0.328125 2.109375 0.984375q0.71875 0.65625 0.71875 1.734375q0 1.28125 -0.984375 2.03125q-0.984375 0.75 -2.625 0.75zm9.784546 0q-2.0 0 -3.28125 -1.359375q-1.265625 -1.359375 -1.265625 -3.46875q0 -2.125 1.265625 -3.46875q1.28125 -1.34375 3.28125 -1.34375q1.984375 0 3.25 1.34375q1.28125 1.34375 1.28125 3.46875q0 2.109375 -1.28125 3.46875q-1.265625 1.359375 -3.25 1.359375zm0 -1.28125q1.328125 0 2.171875 -1.0q0.859375 -1.0 0.859375 -2.546875q0 -1.546875 -0.859375 -2.53125q-0.84375 -1.0 -2.171875 -1.0q-1.328125 0 -2.203125 0.984375q-0.859375 0.984375 -0.859375 2.546875q0 1.578125 0.84375 2.5625q0.859375 0.984375 2.21875 0.984375zm6.6557617 1.046875l0 -9.171875l1.421875 0l0 1.484375q1.28125 -1.671875 3.0625 -1.671875l0 1.453125l-0.5625 -0.0625q-0.65625 0 -1.4375 0.46875q-0.765625 0.46875 -1.0625 1.0l0 6.5l-1.421875 0z" fill-rule="nonzero"></path><path fill="#ffffff" d="m677.7428 266.0l294.14172 0l0 136.0l-294.14172 0z" fill-rule="evenodd"></path><path fill="#000000" d="m771.4212 293.15436q-1.96875 0 -3.109375 -1.625l0 4.890625l-1.421875 0l0 -12.671875l1.421875 0l0 1.359375q0.5 -0.703125 1.3125 -1.140625q0.828125 -0.453125 1.796875 -0.453125q1.84375 0 2.953125 1.296875q1.125 1.28125 1.125 3.515625q0 2.203125 -1.109375 3.515625q-1.109375 1.3125 -2.96875 1.3125zm-0.359375 -1.28125q1.328125 0 2.125 -0.96875q0.8125 -0.96875 0.8125 -2.578125q0 -1.578125 -0.796875 -2.546875q-0.796875 -0.984375 -2.140625 -0.984375q-0.859375 0 -1.609375 0.421875q-0.75 0.421875 -1.140625 1.03125l0 4.140625q0.390625 0.609375 1.140625 1.046875q0.75 0.4375 1.609375 0.4375zm6.4995117 1.046875l0 -9.171875l1.421875 0l0 1.484375q1.28125 -1.671875 3.0625 -1.671875l0 1.453125l-0.5625 -0.0625q-0.65625 0 -1.4375 0.46875q-0.765625 0.46875 -1.0625 1.0l0 6.5l-1.421875 0zm10.17218 0.234375q-2.0 0 -3.28125 -1.359375q-1.265625 -1.359375 -1.265625 -3.46875q0 -2.125 1.265625 -3.46875q1.28125 -1.34375 3.28125 -1.34375q1.984375 0 3.25 1.34375q1.28125 1.34375 1.28125 3.46875q0 2.109375 -1.28125 3.46875q-1.265625 1.359375 -3.25 1.359375zm0 -1.28125q1.328125 0 2.171875 -1.0q0.859375 -1.0 0.859375 -2.546875q0 -1.546875 -0.859375 -2.53125q-0.84375 -1.0 -2.171875 -1.0q-1.328125 0 -2.203125 0.984375q-0.859375 0.984375 -0.859375 2.546875q0 1.578125 0.84375 2.5625q0.859375 0.984375 2.21875 0.984375zm10.702637 1.28125q-2.015625 0 -3.296875 -1.375q-1.28125 -1.375 -1.28125 -3.453125q0 -2.078125 1.28125 -3.4375q1.28125 -1.375 3.296875 -1.375q2.125 0 3.359375 1.59375l-0.9375 0.875q-0.875 -1.1875 -2.34375 -1.1875q-1.40625 0 -2.296875 0.984375q-0.875 0.96875 -0.875 2.546875q0 1.59375 0.875 2.578125q0.875 0.96875 2.296875 0.96875q1.4375 0 2.34375 -1.1875l0.9375 0.859375q-1.234375 1.609375 -3.359375 1.609375zm9.328613 0q-2.0625 0 -3.375 -1.34375q-1.296875 -1.359375 -1.296875 -3.484375q0 -2.03125 1.296875 -3.421875q1.296875 -1.390625 3.234375 -1.390625q1.96875 0 3.1875 1.375q1.21875 1.359375 1.21875 3.546875l0 0.359375l-7.4375 0q0.078125 1.40625 1.015625 2.296875q0.9375 0.875 2.296875 0.875q1.671875 0 2.828125 -1.15625l0.6875 0.9375q-1.40625 1.40625 -3.65625 1.40625zm2.859375 -5.40625q0 -1.265625 -0.84375 -2.15625q-0.828125 -0.90625 -2.1875 -0.90625q-1.265625 0 -2.109375 0.90625q-0.84375 0.890625 -0.890625 2.15625l6.03125 0zm6.409729 5.40625q-2.328125 0 -3.703125 -1.453125l0.75 -1.015625q0.453125 0.53125 1.25 0.921875q0.8125 0.375 1.765625 0.375q1.0625 0 1.609375 -0.4375q0.5625 -0.453125 0.5625 -1.140625q0 -0.59375 -0.609375 -0.9375q-0.59375 -0.359375 -2.234375 -0.75q-1.375 -0.28125 -2.109375 -0.890625q-0.734375 -0.625 -0.734375 -1.671875q0 -1.15625 0.921875 -1.890625q0.9375 -0.75 2.5 -0.75q2.0625 0 3.390625 1.328125l-0.65625 0.984375q-0.421875 -0.484375 -1.140625 -0.8125q-0.703125 -0.34375 -1.59375 -0.34375q-0.953125 0 -1.5 0.421875q-0.53125 0.421875 -0.53125 1.03125q0 0.546875 0.609375 0.875q0.609375 0.3125 2.234375 0.65625q1.390625 0.328125 2.109375 0.984375q0.71875 0.65625 0.71875 1.734375q0 1.28125 -0.984375 2.03125q-0.984375 0.75 -2.625 0.75zm8.67511 0q-2.328125 0 -3.703125 -1.453125l0.75 -1.015625q0.453125 0.53125 1.25 0.921875q0.8125 0.375 1.765625 0.375q1.0625 0 1.609375 -0.4375q0.5625 -0.453125 0.5625 -1.140625q0 -0.59375 -0.609375 -0.9375q-0.59375 -0.359375 -2.234375 -0.75q-1.375 -0.28125 -2.109375 -0.890625q-0.734375 -0.625 -0.734375 -1.671875q0 -1.15625 0.921875 -1.890625q0.9375 -0.75 2.5 -0.75q2.0625 0 3.390625 1.328125l-0.65625 0.984375q-0.421875 -0.484375 -1.140625 -0.8125q-0.703125 -0.34375 -1.59375 -0.34375q-0.953125 0 -1.5 0.421875q-0.53125 0.421875 -0.53125 1.03125q0 0.546875 0.609375 0.875q0.609375 0.3125 2.234375 0.65625q1.390625 0.328125 2.109375 0.984375q0.71875 0.65625 0.71875 1.734375q0 1.28125 -0.984375 2.03125q-0.984375 0.75 -2.625 0.75zm9.784546 0q-2.0 0 -3.28125 -1.359375q-1.265625 -1.359375 -1.265625 -3.46875q0 -2.125 1.265625 -3.46875q1.28125 -1.34375 3.28125 -1.34375q1.984375 0 3.25 1.34375q1.28125 1.34375 1.28125 3.46875q0 2.109375 -1.28125 3.46875q-1.265625 1.359375 -3.25 1.359375zm0 -1.28125q1.328125 0 2.171875 -1.0q0.859375 -1.0 0.859375 -2.546875q0 -1.546875 -0.859375 -2.53125q-0.84375 -1.0 -2.171875 -1.0q-1.328125 0 -2.203125 0.984375q-0.859375 0.984375 -0.859375 2.546875q0 1.578125 0.84375 2.5625q0.859375 0.984375 2.21875 0.984375zm6.6557617 1.046875l0 -9.171875l1.421875 0l0 1.484375q1.28125 -1.671875 3.0625 -1.671875l0 1.453125l-0.5625 -0.0625q-0.65625 0 -1.4375 0.46875q-0.765625 0.46875 -1.0625 1.0l0 6.5l-1.421875 0zm6.92218 0.1875q-0.4375 0 -0.75 -0.296875q-0.296875 -0.3125 -0.296875 -0.75q0 -0.4375 0.296875 -0.734375q0.3125 -0.3125 0.75 -0.3125q0.4375 0 0.734375 0.3125q0.3125 0.296875 0.3125 0.734375q0 0.4375 -0.3125 0.75q-0.296875 0.296875 -0.734375 0.296875zm8.05658 0.046875q-1.96875 0 -3.109375 -1.625l0 4.890625l-1.421875 0l0 -12.671875l1.421875 0l0 1.359375q0.5 -0.703125 1.3125 -1.140625q0.828125 -0.453125 1.796875 -0.453125q1.84375 0 2.953125 1.296875q1.125 1.28125 1.125 3.515625q0 2.203125 -1.109375 3.515625q-1.109375 1.3125 -2.96875 1.3125zm-0.359375 -1.28125q1.328125 0 2.125 -0.96875q0.8125 -0.96875 0.8125 -2.578125q0 -1.578125 -0.796875 -2.546875q-0.796875 -0.984375 -2.140625 -0.984375q-0.859375 0 -1.609375 0.421875q-0.75 0.421875 -1.140625 1.03125l0 4.140625q0.390625 0.609375 1.140625 1.046875q0.75 0.4375 1.609375 0.4375zm10.515137 1.28125q-2.0 0 -3.28125 -1.359375q-1.265625 -1.359375 -1.265625 -3.46875q0 -2.125 1.265625 -3.46875q1.28125 -1.34375 3.28125 -1.34375q1.984375 0 3.25 1.34375q1.28125 1.34375 1.28125 3.46875q0 2.109375 -1.28125 3.46875q-1.265625 1.359375 -3.25 1.359375zm0 -1.28125q1.328125 0 2.171875 -1.0q0.859375 -1.0 0.859375 -2.546875q0 -1.546875 -0.859375 -2.53125q-0.84375 -1.0 -2.171875 -1.0q-1.328125 0 -2.203125 0.984375q-0.859375 0.984375 -0.859375 2.546875q0 1.578125 0.84375 2.5625q0.859375 0.984375 2.21875 0.984375zm6.6557007 1.046875l0 -9.171875l1.421875 0l0 1.484375q1.28125 -1.671875 3.0625 -1.671875l0 1.453125l-0.5625 -0.0625q-0.65625 0 -1.4375 0.46875q-0.765625 0.46875 -1.0625 1.0l0 6.5l-1.421875 0zm8.484741 0.234375q-2.046875 0 -2.046875 -2.15625l0 -6.0l-1.515625 0l0 -1.25l1.515625 0l0 -2.515625l1.4375 0l0 2.515625l1.859375 0l0 1.25l-1.859375 0l0 5.703125q0 0.515625 0.21875 0.84375q0.234375 0.328125 0.703125 0.328125q0.59375 0 0.96875 -0.375l0.421875 1.0625q-0.59375 0.59375 -1.703125 0.59375z" fill-rule="nonzero"></path><path fill="#ffffff" d="m181.11548 266.0l294.14175 0l0 136.0l-294.14175 0z" fill-rule="evenodd"></path><path fill="#000000" d="m296.08286 292.91998l0 -6.0q0 -1.21875 -0.5625 -1.671875q-0.5625 -0.453125 -1.5 -0.453125q-0.796875 0 -1.5625 0.421875q-0.765625 0.421875 -1.15625 1.0l0 6.703125l-1.421875 0l0 -9.171875l1.421875 0l0 1.328125q0.59375 -0.6875 1.453125 -1.125q0.875 -0.4375 1.828125 -0.4375q2.921875 0 2.921875 2.96875l0 6.4375l-1.421875 0zm8.092102 0.234375q-2.0 0 -3.28125 -1.359375q-1.265625 -1.359375 -1.265625 -3.46875q0 -2.125 1.265625 -3.46875q1.28125 -1.34375 3.28125 -1.34375q1.984375 0 3.25 1.34375q1.28125 1.34375 1.28125 3.46875q0 2.109375 -1.28125 3.46875q-1.265625 1.359375 -3.25 1.359375zm0 -1.28125q1.328125 0 2.171875 -1.0q0.859375 -1.0 0.859375 -2.546875q0 -1.546875 -0.859375 -2.53125q-0.84375 -1.0 -2.171875 -1.0q-1.328125 0 -2.203125 0.984375q-0.859375 0.984375 -0.859375 2.546875q0 1.578125 0.84375 2.5625q0.859375 0.984375 2.21875 0.984375zm13.312012 1.046875l0 -1.375q-0.515625 0.703125 -1.328125 1.15625q-0.796875 0.453125 -1.765625 0.453125q-1.84375 0 -2.96875 -1.3125q-1.125 -1.3125 -1.125 -3.5q0 -2.203125 1.125 -3.515625q1.140625 -1.3125 2.96875 -1.3125q0.921875 0 1.734375 0.4375q0.8125 0.421875 1.359375 1.171875l0 -4.875l1.421875 0l0 12.671875l-1.421875 0zm-2.765625 -1.046875q0.859375 0 1.609375 -0.40625q0.765625 -0.421875 1.15625 -1.03125l0 -4.171875q-0.390625 -0.609375 -1.15625 -1.03125q-0.75 -0.4375 -1.609375 -0.4375q-1.328125 0 -2.140625 0.96875q-0.796875 0.96875 -0.796875 2.578125q0 1.578125 0.796875 2.5625q0.796875 0.96875 2.140625 0.96875zm10.977325 1.28125q-2.0625 0 -3.375 -1.34375q-1.296875 -1.359375 -1.296875 -3.484375q0 -2.03125 1.296875 -3.421875q1.296875 -1.390625 3.234375 -1.390625q1.96875 0 3.1875 1.375q1.21875 1.359375 1.21875 3.546875l0 0.359375l-7.4375 0q0.078125 1.40625 1.015625 2.296875q0.9375 0.875 2.296875 0.875q1.671875 0 2.828125 -1.15625l0.6875 0.9375q-1.40625 1.40625 -3.65625 1.40625zm2.859375 -5.40625q0 -1.265625 -0.84375 -2.15625q-0.828125 -0.90625 -2.1875 -0.90625q-1.265625 0 -2.109375 0.90625q-0.84375 0.890625 -0.890625 2.15625l6.03125 0zm4.269104 5.359375q-0.4375 0 -0.75 -0.296875q-0.296875 -0.3125 -0.296875 -0.75q0 -0.4375 0.296875 -0.734375q0.3125 -0.3125 0.75 -0.3125q0.4375 0 0.734375 0.3125q0.3125 0.296875 0.3125 0.734375q0 0.4375 -0.3125 0.75q-0.296875 0.296875 -0.734375 0.296875zm8.056549 0.046875q-1.96875 0 -3.109375 -1.625l0 4.890625l-1.421875 0l0 -12.671875l1.421875 0l0 1.359375q0.5 -0.703125 1.3125 -1.140625q0.828125 -0.453125 1.796875 -0.453125q1.84375 0 2.953125 1.296875q1.125 1.28125 1.125 3.515625q0 2.203125 -1.109375 3.515625q-1.109375 1.3125 -2.96875 1.3125zm-0.359375 -1.28125q1.328125 0 2.125 -0.96875q0.8125 -0.96875 0.8125 -2.578125q0 -1.578125 -0.796875 -2.546875q-0.796875 -0.984375 -2.140625 -0.984375q-0.859375 0 -1.609375 0.421875q-0.75 0.421875 -1.140625 1.03125l0 4.140625q0.390625 0.609375 1.140625 1.046875q0.75 0.4375 1.609375 0.4375zm10.515137 1.28125q-2.0 0 -3.28125 -1.359375q-1.265625 -1.359375 -1.265625 -3.46875q0 -2.125 1.265625 -3.46875q1.28125 -1.34375 3.28125 -1.34375q1.984375 0 3.25 1.34375q1.28125 1.34375 1.28125 3.46875q0 2.109375 -1.28125 3.46875q-1.265625 1.359375 -3.25 1.359375zm0 -1.28125q1.328125 0 2.171875 -1.0q0.859375 -1.0 0.859375 -2.546875q0 -1.546875 -0.859375 -2.53125q-0.84375 -1.0 -2.171875 -1.0q-1.328125 0 -2.203125 0.984375q-0.859375 0.984375 -0.859375 2.546875q0 1.578125 0.84375 2.5625q0.859375 0.984375 2.21875 0.984375zm6.655731 1.046875l0 -9.171875l1.421875 0l0 1.484375q1.28125 -1.671875 3.0625 -1.671875l0 1.453125l-0.5625 -0.0625q-0.65625 0 -1.4375 0.46875q-0.765625 0.46875 -1.0625 1.0l0 6.5l-1.421875 0zm8.484711 0.234375q-2.046875 0 -2.046875 -2.15625l0 -6.0l-1.515625 0l0 -1.25l1.515625 0l0 -2.515625l1.4375 0l0 2.515625l1.859375 0l0 1.25l-1.859375 0l0 5.703125q0 0.515625 0.21875 0.84375q0.234375 0.328125 0.703125 0.328125q0.59375 0 0.96875 -0.375l0.421875 1.0625q-0.59375 0.59375 -1.703125 0.59375z" fill-rule="nonzero"></path><path fill="#cfe2f3" d="m238.78473 317.08014l0 0c0 -2.4846191 2.0141754 -4.4987793 4.4987793 -4.4987793l169.8056 0c1.1931458 0 2.3374329 0.4739685 3.1810913 1.3176575c0.84368896 0.84368896 1.317688 1.9879761 1.317688 3.1811218l0 17.994568c0 2.4846191 -2.0141907 4.4987793 -4.4987793 4.4987793l-169.8056 0c-2.484604 0 -4.4987793 -2.0141602 -4.4987793 -4.4987793z" fill-rule="evenodd"></path><path fill="#000000" d="m287.48596 332.09366q-0.375 0 -0.640625 -0.25q-0.25 -0.265625 -0.25 -0.625q0 -0.375 0.25 -0.625q0.265625 -0.25 0.640625 -0.25q0.359375 0 0.609375 0.25q0.265625 0.25 0.265625 0.625q0 0.359375 -0.265625 0.625q-0.25 0.25 -0.609375 0.25zm6.414398 0.03125q-1.6875 0 -2.765625 -1.140625q-1.0625 -1.140625 -1.0625 -2.921875q0 -1.78125 1.0625 -2.90625q1.078125 -1.140625 2.765625 -1.140625q1.671875 0 2.75 1.140625q1.078125 1.125 1.078125 2.90625q0 1.78125 -1.078125 2.921875q-1.078125 1.140625 -2.75 1.140625zm0 -1.0625q1.125 0 1.84375 -0.84375q0.71875 -0.84375 0.71875 -2.15625q0 -1.296875 -0.71875 -2.125q-0.71875 -0.84375 -1.84375 -0.84375q-1.125 0 -1.859375 0.828125q-0.71875 0.828125 -0.71875 2.140625q0 1.328125 0.71875 2.171875q0.71875 0.828125 1.859375 0.828125zm10.995758 0.875l0 -5.0625q0 -1.015625 -0.484375 -1.390625q-0.46875 -0.390625 -1.25 -0.390625q-0.671875 0 -1.328125 0.359375q-0.640625 0.359375 -0.953125 0.84375l0 5.640625l-1.203125 0l0 -7.734375l1.203125 0l0 1.125q0.484375 -0.578125 1.21875 -0.9375q0.734375 -0.375 1.53125 -0.375q2.453125 0 2.453125 2.5l0 5.421875l-1.1875 0zm12.925415 0l0 -5.25q0 -1.59375 -1.421875 -1.59375q-0.609375 0 -1.1875 0.359375q-0.5625 0.359375 -0.859375 0.828125l0 5.65625l-1.203125 0l0 -5.25q0 -1.59375 -1.421875 -1.59375q-0.59375 0 -1.15625 0.375q-0.5625 0.359375 -0.875 0.828125l0 5.640625l-1.203125 0l0 -7.734375l1.203125 0l0 1.125q0.265625 -0.46875 1.015625 -0.890625q0.75 -0.421875 1.46875 -0.421875q0.90625 0 1.40625 0.421875q0.5 0.40625 0.671875 1.015625q0.40625 -0.625 1.140625 -1.03125q0.734375 -0.40625 1.453125 -0.40625q2.171875 0 2.171875 2.34375l0 5.578125l-1.203125 0zm7.084259 0.1875q-1.75 0 -2.84375 -1.125q-1.09375 -1.140625 -1.09375 -2.9375q0 -1.703125 1.078125 -2.875q1.09375 -1.171875 2.734375 -1.171875q1.65625 0 2.671875 1.15625q1.03125 1.15625 1.03125 2.984375l0 0.3125l-6.25 0q0.0625 1.1875 0.84375 1.9375q0.796875 0.734375 1.9375 0.734375q1.40625 0 2.390625 -0.984375l0.578125 0.796875q-1.1875 1.171875 -3.078125 1.171875zm2.40625 -4.546875q0 -1.0625 -0.703125 -1.8125q-0.703125 -0.75 -1.84375 -0.75q-1.078125 0 -1.796875 0.75q-0.703125 0.75 -0.734375 1.8125l5.078125 0zm5.554901 4.546875q-1.953125 0 -3.109375 -1.21875l0.625 -0.859375q0.375 0.453125 1.046875 0.78125q0.6875 0.328125 1.5 0.328125q0.890625 0 1.34375 -0.375q0.46875 -0.375 0.46875 -0.953125q0 -0.515625 -0.5 -0.8125q-0.5 -0.296875 -1.875 -0.609375q-1.171875 -0.25 -1.796875 -0.765625q-0.609375 -0.515625 -0.609375 -1.40625q0 -0.96875 0.78125 -1.59375q0.78125 -0.625 2.09375 -0.625q1.75 0 2.875 1.125l-0.5625 0.828125q-0.359375 -0.421875 -0.953125 -0.6875q-0.59375 -0.28125 -1.359375 -0.28125q-0.796875 0 -1.25 0.359375q-0.453125 0.34375 -0.453125 0.84375q0 0.46875 0.5 0.75q0.515625 0.265625 1.890625 0.546875q1.171875 0.28125 1.78125 0.828125q0.609375 0.546875 0.609375 1.46875q0 1.0625 -0.828125 1.703125q-0.828125 0.625 -2.21875 0.625zm7.4400024 0q-1.953125 0 -3.109375 -1.21875l0.625 -0.859375q0.375 0.453125 1.046875 0.78125q0.6875 0.328125 1.5 0.328125q0.890625 0 1.34375 -0.375q0.46875 -0.375 0.46875 -0.953125q0 -0.515625 -0.5 -0.8125q-0.5 -0.296875 -1.875 -0.609375q-1.171875 -0.25 -1.796875 -0.765625q-0.609375 -0.515625 -0.609375 -1.40625q0 -0.96875 0.78125 -1.59375q0.78125 -0.625 2.09375 -0.625q1.75 0 2.875 1.125l-0.5625 0.828125q-0.359375 -0.421875 -0.953125 -0.6875q-0.59375 -0.28125 -1.359375 -0.28125q-0.796875 0 -1.25 0.359375q-0.453125 0.34375 -0.453125 0.84375q0 0.46875 0.5 0.75q0.515625 0.265625 1.890625 0.546875q1.171875 0.28125 1.78125 0.828125q0.609375 0.546875 0.609375 1.46875q0 1.0625 -0.828125 1.703125q-0.828125 0.625 -2.21875 0.625zm9.830658 -0.1875l0 -0.875q-0.96875 1.0625 -2.5625 1.0625q-1.171875 0 -1.9375 -0.734375q-0.765625 -0.734375 -0.765625 -1.828125q0 -1.109375 0.75 -1.8125q0.765625 -0.71875 1.953125 -0.71875q1.671875 0 2.5625 1.046875l0 -1.390625q0 -0.78125 -0.5625 -1.203125q-0.546875 -0.421875 -1.390625 -0.421875q-1.359375 0 -2.359375 1.0625l-0.5625 -0.828125q1.234375 -1.28125 3.078125 -1.28125q1.421875 0 2.203125 0.6875q0.796875 0.6875 0.796875 1.921875l0 5.3125l-1.203125 0zm-2.125 -0.671875q1.421875 0 2.125 -0.953125l0 -1.46875q-0.703125 -0.953125 -2.125 -0.953125q-0.84375 0 -1.375 0.46875q-0.53125 0.46875 -0.53125 1.21875q0 0.75 0.53125 1.21875q0.53125 0.46875 1.375 0.46875zm8.822632 3.8125q-0.984375 0 -1.703125 -0.25q-0.71875 -0.234375 -1.40625 -0.90625l0.609375 -0.890625q0.46875 0.5625 1.0625 0.796875q0.609375 0.25 1.4375 0.25q1.1875 0 1.828125 -0.625q0.65625 -0.609375 0.65625 -1.6875l0 -1.109375q-0.40625 0.59375 -1.09375 0.984375q-0.671875 0.390625 -1.5 0.390625q-1.5625 0 -2.5 -1.09375q-0.9375 -1.109375 -0.9375 -2.90625q0 -1.859375 0.953125 -2.9375q0.953125 -1.078125 2.484375 -1.078125q1.609375 0 2.59375 1.359375l0 -1.171875l1.203125 0l0 7.515625q0 1.625 -0.96875 2.484375q-0.953125 0.875 -2.71875 0.875zm0.1875 -4.09375q0.65625 0 1.296875 -0.34375q0.65625 -0.359375 1.0 -0.921875l0 -3.375q-0.34375 -0.5625 -1.0 -0.90625q-0.65625 -0.34375 -1.296875 -0.34375q-1.140625 0 -1.8125 0.8125q-0.671875 0.8125 -0.671875 2.125q0 1.328125 0.6875 2.140625q0.6875 0.8125 1.796875 0.8125zm9.387146 1.140625q-1.75 0 -2.84375 -1.125q-1.09375 -1.140625 -1.09375 -2.9375q0 -1.703125 1.078125 -2.875q1.09375 -1.171875 2.734375 -1.171875q1.65625 0 2.671875 1.15625q1.03125 1.15625 1.03125 2.984375l0 0.3125l-6.25 0q0.0625 1.1875 0.84375 1.9375q0.796875 0.734375 1.9375 0.734375q1.40625 0 2.390625 -0.984375l0.578125 0.796875q-1.1875 1.171875 -3.078125 1.171875zm2.40625 -4.546875q0 -1.0625 -0.703125 -1.8125q-0.703125 -0.75 -1.84375 -0.75q-1.078125 0 -1.796875 0.75q-0.703125 0.75 -0.734375 1.8125l5.078125 0z" fill-rule="nonzero"></path><path fill="#cfe2f3" d="m238.78552 358.07935l0 0c0 -2.4846191 2.0141754 -4.4987793 4.4987793 -4.4987793l169.8056 0c1.1931458 0 2.3374329 0.4739685 3.1811218 1.3176575c0.84368896 0.84368896 1.3176575 1.9879761 1.3176575 3.1811218l0 17.994568c0 2.4846191 -2.0141907 4.4987793 -4.4987793 4.4987793l-169.8056 0c-2.484604 0 -4.4987793 -2.0141602 -4.4987793 -4.4987793z" fill-rule="evenodd"></path><path fill="#000000" d="m277.27075 373.0929q-0.375 0 -0.640625 -0.25q-0.25 -0.265625 -0.25 -0.625q0 -0.375 0.25 -0.625q0.265625 -0.25 0.640625 -0.25q0.359375 0 0.609375 0.25q0.265625 0.25 0.265625 0.625q0 0.359375 -0.265625 0.625q-0.25 0.25 -0.609375 0.25zm6.8518677 0.03125q-1.65625 0 -2.609375 -1.359375l0 4.109375l-1.203125 0l0 -10.671875l1.203125 0l0 1.15625q0.40625 -0.59375 1.09375 -0.96875q0.6875 -0.375 1.515625 -0.375q1.546875 0 2.484375 1.09375q0.953125 1.078125 0.953125 2.953125q0 1.859375 -0.9375 2.96875q-0.9375 1.09375 -2.5 1.09375zm-0.3125 -1.0625q1.125 0 1.796875 -0.8125q0.6875 -0.828125 0.6875 -2.1875q0 -1.328125 -0.671875 -2.140625q-0.671875 -0.828125 -1.8125 -0.828125q-0.71875 0 -1.359375 0.359375q-0.625 0.359375 -0.9375 0.875l0 3.484375q0.3125 0.515625 0.9375 0.890625q0.640625 0.359375 1.359375 0.359375zm9.027039 1.0625q-1.6875 0 -2.765625 -1.140625q-1.0625 -1.140625 -1.0625 -2.921875q0 -1.78125 1.0625 -2.90625q1.078125 -1.140625 2.765625 -1.140625q1.671875 0 2.75 1.140625q1.078125 1.125 1.078125 2.90625q0 1.78125 -1.078125 2.921875q-1.078125 1.140625 -2.75 1.140625zm0 -1.0625q1.125 0 1.84375 -0.84375q0.71875 -0.84375 0.71875 -2.15625q0 -1.296875 -0.71875 -2.125q-0.71875 -0.84375 -1.84375 -0.84375q-1.125 0 -1.859375 0.828125q-0.71875 0.828125 -0.71875 2.140625q0 1.328125 0.71875 2.171875q0.71875 0.828125 1.859375 0.828125zm8.214508 1.0625q-1.953125 0 -3.109375 -1.21875l0.625 -0.859375q0.375 0.453125 1.046875 0.78125q0.6875 0.328125 1.5 0.328125q0.890625 0 1.34375 -0.375q0.46875 -0.375 0.46875 -0.953125q0 -0.515625 -0.5 -0.8125q-0.5 -0.296875 -1.875 -0.609375q-1.171875 -0.25 -1.796875 -0.765625q-0.609375 -0.515625 -0.609375 -1.40625q0 -0.96875 0.78125 -1.59375q0.78125 -0.625 2.09375 -0.625q1.75 0 2.875 1.125l-0.5625 0.828125q-0.359375 -0.421875 -0.953125 -0.6875q-0.59375 -0.28125 -1.359375 -0.28125q-0.796875 0 -1.25 0.359375q-0.453125 0.34375 -0.453125 0.84375q0 0.46875 0.5 0.75q0.515625 0.265625 1.890625 0.546875q1.171875 0.28125 1.78125 0.828125q0.609375 0.546875 0.609375 1.46875q0 1.0625 -0.828125 1.703125q-0.828125 0.625 -2.21875 0.625zm6.955658 0q-1.71875 0 -1.71875 -1.796875l0 -5.0625l-1.28125 0l0 -1.0625l1.28125 0l0 -2.109375l1.203125 0l0 2.109375l1.5625 0l0 1.0625l-1.5625 0l0 4.796875q0 0.4375 0.1875 0.71875q0.203125 0.28125 0.59375 0.28125q0.5 0 0.8125 -0.328125l0.359375 0.90625q-0.5 0.484375 -1.4375 0.484375zm11.92276 -0.1875l0 -8.78125l-3.640625 8.78125l-0.546875 0l-3.609375 -8.78125l0 8.78125l-1.328125 0l0 -10.671875l1.90625 0l3.3125 8.03125l3.328125 -8.03125l1.90625 0l0 10.671875l-1.328125 0zm7.256531 0.1875q-1.75 0 -2.84375 -1.125q-1.09375 -1.140625 -1.09375 -2.9375q0 -1.703125 1.078125 -2.875q1.09375 -1.171875 2.734375 -1.171875q1.65625 0 2.671875 1.15625q1.03125 1.15625 1.03125 2.984375l0 0.3125l-6.25 0q0.0625 1.1875 0.84375 1.9375q0.796875 0.734375 1.9375 0.734375q1.40625 0 2.390625 -0.984375l0.578125 0.796875q-1.1875 1.171875 -3.078125 1.171875zm2.40625 -4.546875q0 -1.0625 -0.703125 -1.8125q-0.703125 -0.75 -1.84375 -0.75q-1.078125 0 -1.796875 0.75q-0.703125 0.75 -0.734375 1.8125l5.078125 0zm5.5548706 4.546875q-1.953125 0 -3.109375 -1.21875l0.625 -0.859375q0.375 0.453125 1.046875 0.78125q0.6875 0.328125 1.5 0.328125q0.890625 0 1.34375 -0.375q0.46875 -0.375 0.46875 -0.953125q0 -0.515625 -0.5 -0.8125q-0.5 -0.296875 -1.875 -0.609375q-1.171875 -0.25 -1.796875 -0.765625q-0.609375 -0.515625 -0.609375 -1.40625q0 -0.96875 0.78125 -1.59375q0.78125 -0.625 2.09375 -0.625q1.75 0 2.875 1.125l-0.5625 0.828125q-0.359375 -0.421875 -0.953125 -0.6875q-0.59375 -0.28125 -1.359375 -0.28125q-0.796875 0 -1.25 0.359375q-0.453125 0.34375 -0.453125 0.84375q0 0.46875 0.5 0.75q0.515625 0.265625 1.890625 0.546875q1.171875 0.28125 1.78125 0.828125q0.609375 0.546875 0.609375 1.46875q0 1.0625 -0.828125 1.703125q-0.828125 0.625 -2.21875 0.625zm7.440033 0q-1.953125 0 -3.109375 -1.21875l0.625 -0.859375q0.375 0.453125 1.046875 0.78125q0.6875 0.328125 1.5 0.328125q0.890625 0 1.34375 -0.375q0.46875 -0.375 0.46875 -0.953125q0 -0.515625 -0.5 -0.8125q-0.5 -0.296875 -1.875 -0.609375q-1.171875 -0.25 -1.796875 -0.765625q-0.609375 -0.515625 -0.609375 -1.40625q0 -0.96875 0.78125 -1.59375q0.78125 -0.625 2.09375 -0.625q1.75 0 2.875 1.125l-0.5625 0.828125q-0.359375 -0.421875 -0.953125 -0.6875q-0.59375 -0.28125 -1.359375 -0.28125q-0.796875 0 -1.25 0.359375q-0.453125 0.34375 -0.453125 0.84375q0 0.46875 0.5 0.75q0.515625 0.265625 1.890625 0.546875q1.171875 0.28125 1.78125 0.828125q0.609375 0.546875 0.609375 1.46875q0 1.0625 -0.828125 1.703125q-0.828125 0.625 -2.21875 0.625zm9.830627 -0.1875l0 -0.875q-0.96875 1.0625 -2.5625 1.0625q-1.171875 0 -1.9375 -0.734375q-0.765625 -0.734375 -0.765625 -1.828125q0 -1.109375 0.75 -1.8125q0.765625 -0.71875 1.953125 -0.71875q1.671875 0 2.5625 1.046875l0 -1.390625q0 -0.78125 -0.5625 -1.203125q-0.546875 -0.421875 -1.390625 -0.421875q-1.359375 0 -2.359375 1.0625l-0.5625 -0.828125q1.234375 -1.28125 3.078125 -1.28125q1.421875 0 2.203125 0.6875q0.796875 0.6875 0.796875 1.921875l0 5.3125l-1.203125 0zm-2.125 -0.671875q1.421875 0 2.125 -0.953125l0 -1.46875q-0.703125 -0.953125 -2.125 -0.953125q-0.84375 0 -1.375 0.46875q-0.53125 0.46875 -0.53125 1.21875q0 0.75 0.53125 1.21875q0.53125 0.46875 1.375 0.46875zm8.822662 3.8125q-0.984375 0 -1.703125 -0.25q-0.71875 -0.234375 -1.40625 -0.90625l0.609375 -0.890625q0.46875 0.5625 1.0625 0.796875q0.609375 0.25 1.4375 0.25q1.1875 0 1.828125 -0.625q0.65625 -0.609375 0.65625 -1.6875l0 -1.109375q-0.40625 0.59375 -1.09375 0.984375q-0.671875 0.390625 -1.5 0.390625q-1.5625 0 -2.5 -1.09375q-0.9375 -1.109375 -0.9375 -2.90625q0 -1.859375 0.953125 -2.9375q0.953125 -1.078125 2.484375 -1.078125q1.609375 0 2.59375 1.359375l0 -1.171875l1.203125 0l0 7.515625q0 1.625 -0.96875 2.484375q-0.953125 0.875 -2.71875 0.875zm0.1875 -4.09375q0.65625 0 1.296875 -0.34375q0.65625 -0.359375 1.0 -0.921875l0 -3.375q-0.34375 -0.5625 -1.0 -0.90625q-0.65625 -0.34375 -1.296875 -0.34375q-1.140625 0 -1.8125 0.8125q-0.671875 0.8125 -0.671875 2.125q0 1.328125 0.6875 2.140625q0.6875 0.8125 1.796875 0.8125zm9.387146 1.140625q-1.75 0 -2.84375 -1.125q-1.09375 -1.140625 -1.09375 -2.9375q0 -1.703125 1.078125 -2.875q1.09375 -1.171875 2.734375 -1.171875q1.65625 0 2.671875 1.15625q1.03125 1.15625 1.03125 2.984375l0 0.3125l-6.25 0q0.0625 1.1875 0.84375 1.9375q0.796875 0.734375 1.9375 0.734375q1.40625 0 2.390625 -0.984375l0.578125 0.796875q-1.1875 1.171875 -3.078125 1.171875zm2.40625 -4.546875q0 -1.0625 -0.703125 -1.8125q-0.703125 -0.75 -1.84375 -0.75q-1.078125 0 -1.796875 0.75q-0.703125 0.75 -0.734375 1.8125l5.078125 0zm4.8673706 7.546875q-1.078125 -1.484375 -1.671875 -3.3125q-0.578125 -1.828125 -0.578125 -3.765625q0 -1.9375 0.578125 -3.75q0.59375 -1.8125 1.671875 -3.3125l0.734375 0.53125q-0.96875 1.921875 -1.328125 3.359375q-0.34375 1.4375 -0.34375 3.171875q0 1.734375 0.359375 3.1875q0.359375 1.453125 1.3125 3.328125l-0.734375 0.5625zm1.2805176 -0.5625q0.953125 -1.859375 1.3125 -3.359375q0.375 -1.515625 0.375 -3.15625q0 -1.625 -0.359375 -3.109375q-0.359375 -1.484375 -1.328125 -3.421875l0.71875 -0.53125q1.109375 1.5 1.6875 3.3125q0.59375 1.8125 0.59375 3.75q0 1.9375 -0.59375 3.765625q-0.578125 1.828125 -1.6875 3.3125l-0.71875 -0.5625z" fill-rule="nonzero"></path><path fill="#cfe2f3" d="m735.4123 317.07883l0 0c0 -2.4845886 2.0141602 -4.4987793 4.4987793 -4.4987793l169.80554 0c1.1931763 0 2.3374634 0.4739685 3.1811523 1.3176575c0.84368896 0.84368896 1.317627 1.9879761 1.317627 3.1811218l0 17.994568c0 2.4846191 -2.0141602 4.4987793 -4.4987793 4.4987793l-169.80554 0c-2.4846191 0 -4.4987793 -2.0141602 -4.4987793 -4.4987793z" fill-rule="evenodd"></path><path fill="#000000" d="m773.89746 332.09238q-0.375 0 -0.640625 -0.25q-0.25 -0.265625 -0.25 -0.625q0 -0.375 0.25 -0.625q0.265625 -0.25 0.640625 -0.25q0.359375 0 0.609375 0.25q0.265625 0.25 0.265625 0.625q0 0.359375 -0.265625 0.625q-0.25 0.25 -0.609375 0.25zm6.8519287 0.03125q-1.65625 0 -2.609375 -1.359375l0 4.109375l-1.203125 0l0 -10.671875l1.203125 0l0 1.15625q0.40625 -0.59375 1.09375 -0.96875q0.6875 -0.375 1.515625 -0.375q1.546875 0 2.484375 1.09375q0.953125 1.078125 0.953125 2.953125q0 1.859375 -0.9375 2.96875q-0.9375 1.09375 -2.5 1.09375zm-0.3125 -1.0625q1.125 0 1.796875 -0.8125q0.6875 -0.828125 0.6875 -2.1875q0 -1.328125 -0.671875 -2.140625q-0.671875 -0.828125 -1.8125 -0.828125q-0.71875 0 -1.359375 0.359375q-0.625 0.359375 -0.9375 0.875l0 3.484375q0.3125 0.515625 0.9375 0.890625q0.640625 0.359375 1.359375 0.359375zm9.026978 1.0625q-1.6875 0 -2.765625 -1.140625q-1.0625 -1.140625 -1.0625 -2.921875q0 -1.78125 1.0625 -2.90625q1.078125 -1.140625 2.765625 -1.140625q1.671875 0 2.75 1.140625q1.078125 1.125 1.078125 2.90625q0 1.78125 -1.078125 2.921875q-1.078125 1.140625 -2.75 1.140625zm0 -1.0625q1.125 0 1.84375 -0.84375q0.71875 -0.84375 0.71875 -2.15625q0 -1.296875 -0.71875 -2.125q-0.71875 -0.84375 -1.84375 -0.84375q-1.125 0 -1.859375 0.828125q-0.71875 0.828125 -0.71875 2.140625q0 1.328125 0.71875 2.171875q0.71875 0.828125 1.859375 0.828125zm8.214539 1.0625q-1.953125 0 -3.109375 -1.21875l0.625 -0.859375q0.375 0.453125 1.046875 0.78125q0.6875 0.328125 1.5 0.328125q0.890625 0 1.34375 -0.375q0.46875 -0.375 0.46875 -0.953125q0 -0.515625 -0.5 -0.8125q-0.5 -0.296875 -1.875 -0.609375q-1.171875 -0.25 -1.796875 -0.765625q-0.609375 -0.515625 -0.609375 -1.40625q0 -0.96875 0.78125 -1.59375q0.78125 -0.625 2.09375 -0.625q1.75 0 2.875 1.125l-0.5625 0.828125q-0.359375 -0.421875 -0.953125 -0.6875q-0.59375 -0.28125 -1.359375 -0.28125q-0.796875 0 -1.25 0.359375q-0.453125 0.34375 -0.453125 0.84375q0 0.46875 0.5 0.75q0.515625 0.265625 1.890625 0.546875q1.171875 0.28125 1.78125 0.828125q0.609375 0.546875 0.609375 1.46875q0 1.0625 -0.828125 1.703125q-0.828125 0.625 -2.21875 0.625zm6.9556274 0q-1.71875 0 -1.71875 -1.796875l0 -5.0625l-1.28125 0l0 -1.0625l1.28125 0l0 -2.109375l1.203125 0l0 2.109375l1.5625 0l0 1.0625l-1.5625 0l0 4.796875q0 0.4375 0.1875 0.71875q0.203125 0.28125 0.59375 0.28125q0.5 0 0.8125 -0.328125l0.359375 0.90625q-0.5 0.484375 -1.4375 0.484375zm11.922791 -0.1875l0 -8.78125l-3.640625 8.78125l-0.546875 0l-3.609375 -8.78125l0 8.78125l-1.328125 0l0 -10.671875l1.90625 0l3.3125 8.03125l3.328125 -8.03125l1.90625 0l0 10.671875l-1.328125 0zm7.256531 0.1875q-1.75 0 -2.84375 -1.125q-1.09375 -1.140625 -1.09375 -2.9375q0 -1.703125 1.078125 -2.875q1.09375 -1.171875 2.734375 -1.171875q1.65625 0 2.671875 1.15625q1.03125 1.15625 1.03125 2.984375l0 0.3125l-6.25 0q0.0625 1.1875 0.84375 1.9375q0.796875 0.734375 1.9375 0.734375q1.40625 0 2.390625 -0.984375l0.578125 0.796875q-1.1875 1.171875 -3.078125 1.171875zm2.40625 -4.546875q0 -1.0625 -0.703125 -1.8125q-0.703125 -0.75 -1.84375 -0.75q-1.078125 0 -1.796875 0.75q-0.703125 0.75 -0.734375 1.8125l5.078125 0zm5.5548706 4.546875q-1.953125 0 -3.109375 -1.21875l0.625 -0.859375q0.375 0.453125 1.046875 0.78125q0.6875 0.328125 1.5 0.328125q0.890625 0 1.34375 -0.375q0.46875 -0.375 0.46875 -0.953125q0 -0.515625 -0.5 -0.8125q-0.5 -0.296875 -1.875 -0.609375q-1.171875 -0.25 -1.796875 -0.765625q-0.609375 -0.515625 -0.609375 -1.40625q0 -0.96875 0.78125 -1.59375q0.78125 -0.625 2.09375 -0.625q1.75 0 2.875 1.125l-0.5625 0.828125q-0.359375 -0.421875 -0.953125 -0.6875q-0.59375 -0.28125 -1.359375 -0.28125q-0.796875 0 -1.25 0.359375q-0.453125 0.34375 -0.453125 0.84375q0 0.46875 0.5 0.75q0.515625 0.265625 1.890625 0.546875q1.171875 0.28125 1.78125 0.828125q0.609375 0.546875 0.609375 1.46875q0 1.0625 -0.828125 1.703125q-0.828125 0.625 -2.21875 0.625zm7.4400024 0q-1.953125 0 -3.109375 -1.21875l0.625 -0.859375q0.375 0.453125 1.046875 0.78125q0.6875 0.328125 1.5 0.328125q0.890625 0 1.34375 -0.375q0.46875 -0.375 0.46875 -0.953125q0 -0.515625 -0.5 -0.8125q-0.5 -0.296875 -1.875 -0.609375q-1.171875 -0.25 -1.796875 -0.765625q-0.609375 -0.515625 -0.609375 -1.40625q0 -0.96875 0.78125 -1.59375q0.78125 -0.625 2.09375 -0.625q1.75 0 2.875 1.125l-0.5625 0.828125q-0.359375 -0.421875 -0.953125 -0.6875q-0.59375 -0.28125 -1.359375 -0.28125q-0.796875 0 -1.25 0.359375q-0.453125 0.34375 -0.453125 0.84375q0 0.46875 0.5 0.75q0.515625 0.265625 1.890625 0.546875q1.171875 0.28125 1.78125 0.828125q0.609375 0.546875 0.609375 1.46875q0 1.0625 -0.828125 1.703125q-0.828125 0.625 -2.21875 0.625zm9.830688 -0.1875l0 -0.875q-0.96875 1.0625 -2.5625 1.0625q-1.171875 0 -1.9375 -0.734375q-0.765625 -0.734375 -0.765625 -1.828125q0 -1.109375 0.75 -1.8125q0.765625 -0.71875 1.953125 -0.71875q1.671875 0 2.5625 1.046875l0 -1.390625q0 -0.78125 -0.5625 -1.203125q-0.546875 -0.421875 -1.390625 -0.421875q-1.359375 0 -2.359375 1.0625l-0.5625 -0.828125q1.234375 -1.28125 3.078125 -1.28125q1.421875 0 2.203125 0.6875q0.796875 0.6875 0.796875 1.921875l0 5.3125l-1.203125 0zm-2.125 -0.671875q1.421875 0 2.125 -0.953125l0 -1.46875q-0.703125 -0.953125 -2.125 -0.953125q-0.84375 0 -1.375 0.46875q-0.53125 0.46875 -0.53125 1.21875q0 0.75 0.53125 1.21875q0.53125 0.46875 1.375 0.46875zm8.822632 3.8125q-0.984375 0 -1.703125 -0.25q-0.71875 -0.234375 -1.40625 -0.90625l0.609375 -0.890625q0.46875 0.5625 1.0625 0.796875q0.609375 0.25 1.4375 0.25q1.1875 0 1.828125 -0.625q0.65625 -0.609375 0.65625 -1.6875l0 -1.109375q-0.40625 0.59375 -1.09375 0.984375q-0.671875 0.390625 -1.5 0.390625q-1.5625 0 -2.5 -1.09375q-0.9375 -1.109375 -0.9375 -2.90625q0 -1.859375 0.953125 -2.9375q0.953125 -1.078125 2.484375 -1.078125q1.609375 0 2.59375 1.359375l0 -1.171875l1.203125 0l0 7.515625q0 1.625 -0.96875 2.484375q-0.953125 0.875 -2.71875 0.875zm0.1875 -4.09375q0.65625 0 1.296875 -0.34375q0.65625 -0.359375 1.0 -0.921875l0 -3.375q-0.34375 -0.5625 -1.0 -0.90625q-0.65625 -0.34375 -1.296875 -0.34375q-1.140625 0 -1.8125 0.8125q-0.671875 0.8125 -0.671875 2.125q0 1.328125 0.6875 2.140625q0.6875 0.8125 1.796875 0.8125zm9.387146 1.140625q-1.75 0 -2.84375 -1.125q-1.09375 -1.140625 -1.09375 -2.9375q0 -1.703125 1.078125 -2.875q1.09375 -1.171875 2.734375 -1.171875q1.65625 0 2.671875 1.15625q1.03125 1.15625 1.03125 2.984375l0 0.3125l-6.25 0q0.0625 1.1875 0.84375 1.9375q0.796875 0.734375 1.9375 0.734375q1.40625 0 2.390625 -0.984375l0.578125 0.796875q-1.1875 1.171875 -3.078125 1.171875zm2.40625 -4.546875q0 -1.0625 -0.703125 -1.8125q-0.703125 -0.75 -1.84375 -0.75q-1.078125 0 -1.796875 0.75q-0.703125 0.75 -0.734375 1.8125l5.078125 0zm4.8673706 7.546875q-1.078125 -1.484375 -1.671875 -3.3125q-0.578125 -1.828125 -0.578125 -3.765625q0 -1.9375 0.578125 -3.75q0.59375 -1.8125 1.671875 -3.3125l0.734375 0.53125q-0.96875 1.921875 -1.328125 3.359375q-0.34375 1.4375 -0.34375 3.171875q0 1.734375 0.359375 3.1875q0.359375 1.453125 1.3125 3.328125l-0.734375 0.5625zm1.2805176 -0.5625q0.953125 -1.859375 1.3125 -3.359375q0.375 -1.515625 0.375 -3.15625q0 -1.625 -0.359375 -3.109375q-0.359375 -1.484375 -1.328125 -3.421875l0.71875 -0.53125q1.109375 1.5 1.6875 3.3125q0.59375 1.8125 0.59375 3.75q0 1.9375 -0.59375 3.765625q-0.578125 1.828125 -1.6875 3.3125l-0.71875 -0.5625z" fill-rule="nonzero"></path><path fill="#cfe2f3" d="m735.4131 358.07803l0 0c0 -2.4845886 2.0141602 -4.4987793 4.4987793 -4.4987793l169.8056 0c1.1931152 0 2.3374023 0.47399902 3.1810913 1.317688c0.84368896 0.84365845 1.317688 1.9879456 1.317688 3.1810913l0 17.994568c0 2.4846191 -2.0142212 4.4987793 -4.4987793 4.4987793l-169.8056 0c-2.4846191 0 -4.4987793 -2.0141602 -4.4987793 -4.4987793z" fill-rule="evenodd"></path><path fill="#000000" d="m784.1143 373.09158q-0.375 0 -0.640625 -0.25q-0.25 -0.265625 -0.25 -0.625q0 -0.375 0.25 -0.625q0.265625 -0.25 0.640625 -0.25q0.359375 0 0.609375 0.25q0.265625 0.25 0.265625 0.625q0 0.359375 -0.265625 0.625q-0.25 0.25 -0.609375 0.25zm6.4143677 0.03125q-1.6875 0 -2.765625 -1.140625q-1.0625 -1.140625 -1.0625 -2.921875q0 -1.78125 1.0625 -2.90625q1.078125 -1.140625 2.765625 -1.140625q1.671875 0 2.75 1.140625q1.078125 1.125 1.078125 2.90625q0 1.78125 -1.078125 2.921875q-1.078125 1.140625 -2.75 1.140625zm0 -1.0625q1.125 0 1.84375 -0.84375q0.71875 -0.84375 0.71875 -2.15625q0 -1.296875 -0.71875 -2.125q-0.71875 -0.84375 -1.84375 -0.84375q-1.125 0 -1.859375 0.828125q-0.71875 0.828125 -0.71875 2.140625q0 1.328125 0.71875 2.171875q0.71875 0.828125 1.859375 0.828125zm10.995789 0.875l0 -5.0625q0 -1.015625 -0.484375 -1.390625q-0.46875 -0.390625 -1.25 -0.390625q-0.671875 0 -1.328125 0.359375q-0.640625 0.359375 -0.953125 0.84375l0 5.640625l-1.203125 0l0 -7.734375l1.203125 0l0 1.125q0.484375 -0.578125 1.21875 -0.9375q0.734375 -0.375 1.53125 -0.375q2.453125 0 2.453125 2.5l0 5.421875l-1.1875 0zm12.925415 0l0 -5.25q0 -1.59375 -1.421875 -1.59375q-0.609375 0 -1.1875 0.359375q-0.5625 0.359375 -0.859375 0.828125l0 5.65625l-1.203125 0l0 -5.25q0 -1.59375 -1.421875 -1.59375q-0.59375 0 -1.15625 0.375q-0.5625 0.359375 -0.875 0.828125l0 5.640625l-1.203125 0l0 -7.734375l1.203125 0l0 1.125q0.265625 -0.46875 1.015625 -0.890625q0.75 -0.421875 1.46875 -0.421875q0.90625 0 1.40625 0.421875q0.5 0.40625 0.671875 1.015625q0.40625 -0.625 1.140625 -1.03125q0.734375 -0.40625 1.453125 -0.40625q2.171875 0 2.171875 2.34375l0 5.578125l-1.203125 0zm7.0842285 0.1875q-1.75 0 -2.84375 -1.125q-1.09375 -1.140625 -1.09375 -2.9375q0 -1.703125 1.078125 -2.875q1.09375 -1.171875 2.734375 -1.171875q1.65625 0 2.671875 1.15625q1.03125 1.15625 1.03125 2.984375l0 0.3125l-6.25 0q0.0625 1.1875 0.84375 1.9375q0.796875 0.734375 1.9375 0.734375q1.40625 0 2.390625 -0.984375l0.578125 0.796875q-1.1875 1.171875 -3.078125 1.171875zm2.40625 -4.546875q0 -1.0625 -0.703125 -1.8125q-0.703125 -0.75 -1.84375 -0.75q-1.078125 0 -1.796875 0.75q-0.703125 0.75 -0.734375 1.8125l5.078125 0zm5.5549316 4.546875q-1.953125 0 -3.109375 -1.21875l0.625 -0.859375q0.375 0.453125 1.046875 0.78125q0.6875 0.328125 1.5 0.328125q0.890625 0 1.34375 -0.375q0.46875 -0.375 0.46875 -0.953125q0 -0.515625 -0.5 -0.8125q-0.5 -0.296875 -1.875 -0.609375q-1.171875 -0.25 -1.796875 -0.765625q-0.609375 -0.515625 -0.609375 -1.40625q0 -0.96875 0.78125 -1.59375q0.78125 -0.625 2.09375 -0.625q1.75 0 2.875 1.125l-0.5625 0.828125q-0.359375 -0.421875 -0.953125 -0.6875q-0.59375 -0.28125 -1.359375 -0.28125q-0.796875 0 -1.25 0.359375q-0.453125 0.34375 -0.453125 0.84375q0 0.46875 0.5 0.75q0.515625 0.265625 1.890625 0.546875q1.171875 0.28125 1.78125 0.828125q0.609375 0.546875 0.609375 1.46875q0 1.0625 -0.828125 1.703125q-0.828125 0.625 -2.21875 0.625zm7.4400024 0q-1.953125 0 -3.109375 -1.21875l0.625 -0.859375q0.375 0.453125 1.046875 0.78125q0.6875 0.328125 1.5 0.328125q0.890625 0 1.34375 -0.375q0.46875 -0.375 0.46875 -0.953125q0 -0.515625 -0.5 -0.8125q-0.5 -0.296875 -1.875 -0.609375q-1.171875 -0.25 -1.796875 -0.765625q-0.609375 -0.515625 -0.609375 -1.40625q0 -0.96875 0.78125 -1.59375q0.78125 -0.625 2.09375 -0.625q1.75 0 2.875 1.125l-0.5625 0.828125q-0.359375 -0.421875 -0.953125 -0.6875q-0.59375 -0.28125 -1.359375 -0.28125q-0.796875 0 -1.25 0.359375q-0.453125 0.34375 -0.453125 0.84375q0 0.46875 0.5 0.75q0.515625 0.265625 1.890625 0.546875q1.171875 0.28125 1.78125 0.828125q0.609375 0.546875 0.609375 1.46875q0 1.0625 -0.828125 1.703125q-0.828125 0.625 -2.21875 0.625zm9.830627 -0.1875l0 -0.875q-0.96875 1.0625 -2.5625 1.0625q-1.171875 0 -1.9375 -0.734375q-0.765625 -0.734375 -0.765625 -1.828125q0 -1.109375 0.75 -1.8125q0.765625 -0.71875 1.953125 -0.71875q1.671875 0 2.5625 1.046875l0 -1.390625q0 -0.78125 -0.5625 -1.203125q-0.546875 -0.421875 -1.390625 -0.421875q-1.359375 0 -2.359375 1.0625l-0.5625 -0.828125q1.234375 -1.28125 3.078125 -1.28125q1.421875 0 2.203125 0.6875q0.796875 0.6875 0.796875 1.921875l0 5.3125l-1.203125 0zm-2.125 -0.671875q1.421875 0 2.125 -0.953125l0 -1.46875q-0.703125 -0.953125 -2.125 -0.953125q-0.84375 0 -1.375 0.46875q-0.53125 0.46875 -0.53125 1.21875q0 0.75 0.53125 1.21875q0.53125 0.46875 1.375 0.46875zm8.822632 3.8125q-0.984375 0 -1.703125 -0.25q-0.71875 -0.234375 -1.40625 -0.90625l0.609375 -0.890625q0.46875 0.5625 1.0625 0.796875q0.609375 0.25 1.4375 0.25q1.1875 0 1.828125 -0.625q0.65625 -0.609375 0.65625 -1.6875l0 -1.109375q-0.40625 0.59375 -1.09375 0.984375q-0.671875 0.390625 -1.5 0.390625q-1.5625 0 -2.5 -1.09375q-0.9375 -1.109375 -0.9375 -2.90625q0 -1.859375 0.953125 -2.9375q0.953125 -1.078125 2.484375 -1.078125q1.609375 0 2.59375 1.359375l0 -1.171875l1.203125 0l0 7.515625q0 1.625 -0.96875 2.484375q-0.953125 0.875 -2.71875 0.875zm0.1875 -4.09375q0.65625 0 1.296875 -0.34375q0.65625 -0.359375 1.0 -0.921875l0 -3.375q-0.34375 -0.5625 -1.0 -0.90625q-0.65625 -0.34375 -1.296875 -0.34375q-1.140625 0 -1.8125 0.8125q-0.671875 0.8125 -0.671875 2.125q0 1.328125 0.6875 2.140625q0.6875 0.8125 1.796875 0.8125zm9.387146 1.140625q-1.75 0 -2.84375 -1.125q-1.09375 -1.140625 -1.09375 -2.9375q0 -1.703125 1.078125 -2.875q1.09375 -1.171875 2.734375 -1.171875q1.65625 0 2.671875 1.15625q1.03125 1.15625 1.03125 2.984375l0 0.3125l-6.25 0q0.0625 1.1875 0.84375 1.9375q0.796875 0.734375 1.9375 0.734375q1.40625 0 2.390625 -0.984375l0.578125 0.796875q-1.1875 1.171875 -3.078125 1.171875zm2.40625 -4.546875q0 -1.0625 -0.703125 -1.8125q-0.703125 -0.75 -1.84375 -0.75q-1.078125 0 -1.796875 0.75q-0.703125 0.75 -0.734375 1.8125l5.078125 0z" fill-rule="nonzero"></path><path fill="#000000" fill-opacity="0.0" d="m735.4123 326.0761c-79.456726 0 -119.18506 0.01574707 -158.91339 0.03149414c-39.728394 0.01574707 -79.456726 0.03149414 -158.91339 0.03149414" fill-rule="evenodd"></path><path stroke="#000000" stroke-width="3.0" stroke-linejoin="round" stroke-linecap="butt" stroke-dasharray="12.0,9.0" d="m735.41223 326.0761c-79.456665 0 -119.185 0.01574707 -158.91333 0.03149414c-19.864197 0.007873535 -39.728333 0.01574707 -64.55856 0.02166748c-12.415131 0.002960205 -26.071747 0.0054016113 -41.590607 0.0071411133l-34.76422 0.0017700195" fill-rule="evenodd"></path><path fill="#000000" stroke="#000000" stroke-width="3.0" stroke-linecap="butt" d="m435.58527 321.18298l-13.614044 4.955902l13.614532 4.9544983z" fill-rule="evenodd"></path><path fill="#000000" fill-opacity="0.0" d="m417.58868 367.07663c79.456696 0 119.18506 0.01574707 158.91339 0.03149414c39.728333 0.01574707 79.456665 0.03149414 158.91339 0.03149414" fill-rule="evenodd"></path><path stroke="#000000" stroke-width="3.0" stroke-linejoin="round" stroke-linecap="butt" stroke-dasharray="12.0,9.0" d="m417.58865 367.07666c79.456696 0 119.18503 0.01574707 158.91342 0.03149414c19.864136 0.007873535 39.728333 0.01574707 64.55853 0.021636963c12.4151 0.002960205 26.071716 0.005432129 41.590637 0.0071411133l34.76422 0.0017700195" fill-rule="evenodd"></path><path fill="#000000" stroke="#000000" stroke-width="3.0" stroke-linecap="butt" d="m717.41516 372.0939l13.614563 -4.9544983l-13.614014 -4.9558716z" fill-rule="evenodd"></path><path fill="#000000" fill-opacity="0.0" d="m500.0 248.58005l152.0 0l0 64.0l-152.0 0z" fill-rule="evenodd"></path><path fill="#000000" d="m533.0631 276.94006l0 -0.875q-0.96875 1.0625 -2.5625 1.0625q-1.171875 0 -1.9375 -0.734375q-0.765625 -0.734375 -0.765625 -1.828125q0 -1.109375 0.75 -1.8125q0.765625 -0.71875 1.953125 -0.71875q1.671875 0 2.5625 1.046875l0 -1.390625q0 -0.78125 -0.5625 -1.203125q-0.546875 -0.421875 -1.390625 -0.421875q-1.359375 0 -2.359375 1.0625l-0.5625 -0.828125q1.234375 -1.28125 3.078125 -1.28125q1.421875 0 2.203125 0.6875q0.796875 0.6875 0.796875 1.921875l0 5.3125l-1.203125 0zm-2.125 -0.671875q1.421875 0 2.125 -0.953125l0 -1.46875q-0.703125 -0.953125 -2.125 -0.953125q-0.84375 0 -1.375 0.46875q-0.53125 0.46875 -0.53125 1.21875q0 0.75 0.53125 1.21875q0.53125 0.46875 1.375 0.46875zm8.166443 0.859375q-1.953125 0 -3.109375 -1.21875l0.625 -0.859375q0.375 0.453125 1.046875 0.78125q0.6875 0.328125 1.5 0.328125q0.890625 0 1.34375 -0.375q0.46875 -0.375 0.46875 -0.953125q0 -0.515625 -0.5 -0.8125q-0.5 -0.296875 -1.875 -0.609375q-1.171875 -0.25 -1.796875 -0.765625q-0.609375 -0.515625 -0.609375 -1.40625q0 -0.96875 0.78125 -1.59375q0.78125 -0.625 2.09375 -0.625q1.75 0 2.875 1.125l-0.5625 0.828125q-0.359375 -0.421875 -0.953125 -0.6875q-0.59375 -0.28125 -1.359375 -0.28125q-0.796875 0 -1.25 0.359375q-0.453125 0.34375 -0.453125 0.84375q0 0.46875 0.5 0.75q0.515625 0.265625 1.890625 0.546875q1.171875 0.28125 1.78125 0.828125q0.609375 0.546875 0.609375 1.46875q0 1.0625 -0.828125 1.703125q-0.828125 0.625 -2.21875 0.625zm4.7525024 1.75q0.265625 0.125 0.65625 0.125q0.40625 0 0.671875 -0.171875q0.28125 -0.15625 0.484375 -0.640625l0.515625 -1.171875l-3.234375 -7.8125l1.296875 0l2.578125 6.34375l2.5625 -6.34375l1.3125 0l-3.875 9.296875q-0.640625 1.546875 -2.28125 1.578125q-0.453125 0 -0.875 -0.109375l0.1875 -1.09375zm13.308777 -1.9375l0 -5.0625q0 -1.015625 -0.484375 -1.390625q-0.46875 -0.390625 -1.25 -0.390625q-0.671875 0 -1.328125 0.359375q-0.640625 0.359375 -0.953125 0.84375l0 5.640625l-1.203125 0l0 -7.734375l1.203125 0l0 1.125q0.484375 -0.578125 1.21875 -0.9375q0.734375 -0.375 1.53125 -0.375q2.453125 0 2.453125 2.5l0 5.421875l-1.1875 0zm7.003479 0.1875q-1.703125 0 -2.78125 -1.140625q-1.078125 -1.15625 -1.078125 -2.921875q0 -1.734375 1.078125 -2.890625q1.078125 -1.15625 2.78125 -1.15625q1.796875 0 2.828125 1.34375l-0.796875 0.734375q-0.734375 -1.0 -1.96875 -1.0q-1.1875 0 -1.9375 0.828125q-0.734375 0.8125 -0.734375 2.140625q0 1.34375 0.734375 2.171875q0.734375 0.828125 1.9375 0.828125q1.21875 0 1.96875 -1.015625l0.796875 0.734375q-1.03125 1.34375 -2.828125 1.34375zm9.748169 -0.1875l0 -5.09375q0 -0.859375 -0.421875 -1.296875q-0.40625 -0.453125 -1.328125 -0.453125q-0.65625 0 -1.28125 0.34375q-0.609375 0.328125 -1.0 0.859375l0 5.640625l-1.203125 0l0 -10.671875l1.203125 0l0 4.0625q0.5 -0.59375 1.234375 -0.953125q0.75 -0.359375 1.53125 -0.359375q2.453125 0 2.453125 2.46875l0 5.453125l-1.1875 0zm3.5976562 0l0 -7.734375l1.203125 0l0 1.25q1.0625 -1.40625 2.5625 -1.40625l0 1.234375l-0.46875 -0.046875q-0.546875 0 -1.203125 0.390625q-0.65625 0.390625 -0.890625 0.84375l0 5.46875l-1.203125 0zm8.654968 0.1875q-1.6875 0 -2.765625 -1.140625q-1.0625 -1.140625 -1.0625 -2.921875q0 -1.78125 1.0625 -2.90625q1.078125 -1.140625 2.765625 -1.140625q1.671875 0 2.75 1.140625q1.078125 1.125 1.078125 2.90625q0 1.78125 -1.078125 2.921875q-1.078125 1.140625 -2.75 1.140625zm0 -1.0625q1.125 0 1.84375 -0.84375q0.71875 -0.84375 0.71875 -2.15625q0 -1.296875 -0.71875 -2.125q-0.71875 -0.84375 -1.84375 -0.84375q-1.125 0 -1.859375 0.828125q-0.71875 0.828125 -0.71875 2.140625q0 1.328125 0.71875 2.171875q0.71875 0.828125 1.859375 0.828125zm10.995789 0.875l0 -5.0625q0 -1.015625 -0.484375 -1.390625q-0.46875 -0.390625 -1.25 -0.390625q-0.671875 0 -1.328125 0.359375q-0.640625 0.359375 -0.953125 0.84375l0 5.640625l-1.203125 0l0 -7.734375l1.203125 0l0 1.125q0.484375 -0.578125 1.21875 -0.9375q0.734375 -0.375 1.53125 -0.375q2.453125 0 2.453125 2.5l0 5.421875l-1.1875 0zm6.97229 0.1875q-1.6875 0 -2.765625 -1.140625q-1.0625 -1.140625 -1.0625 -2.921875q0 -1.78125 1.0625 -2.90625q1.078125 -1.140625 2.765625 -1.140625q1.671875 0 2.75 1.140625q1.078125 1.125 1.078125 2.90625q0 1.78125 -1.078125 2.921875q-1.078125 1.140625 -2.75 1.140625zm0 -1.0625q1.125 0 1.84375 -0.84375q0.71875 -0.84375 0.71875 -2.15625q0 -1.296875 -0.71875 -2.125q-0.71875 -0.84375 -1.84375 -0.84375q-1.125 0 -1.859375 0.828125q-0.71875 0.828125 -0.71875 2.140625q0 1.328125 0.71875 2.171875q0.71875 0.828125 1.859375 0.828125zm10.995789 0.875l0 -1.09375q-0.453125 0.515625 -1.171875 0.90625q-0.71875 0.375 -1.59375 0.375q-2.453125 0 -2.453125 -2.453125l0 -5.46875l1.203125 0l0 5.09375q0 0.90625 0.40625 1.34375q0.421875 0.421875 1.3125 0.421875q0.703125 0 1.328125 -0.34375q0.625 -0.359375 0.96875 -0.828125l0 -5.6875l1.1875 0l0 7.734375l-1.1875 0zm6.034729 0.1875q-1.953125 0 -3.109375 -1.21875l0.625 -0.859375q0.375 0.453125 1.046875 0.78125q0.6875 0.328125 1.5 0.328125q0.890625 0 1.34375 -0.375q0.46875 -0.375 0.46875 -0.953125q0 -0.515625 -0.5 -0.8125q-0.5 -0.296875 -1.875 -0.609375q-1.171875 -0.25 -1.796875 -0.765625q-0.609375 -0.515625 -0.609375 -1.40625q0 -0.96875 0.78125 -1.59375q0.78125 -0.625 2.09375 -0.625q1.75 0 2.875 1.125l-0.5625 0.828125q-0.359375 -0.421875 -0.953125 -0.6875q-0.59375 -0.28125 -1.359375 -0.28125q-0.796875 0 -1.25 0.359375q-0.453125 0.34375 -0.453125 0.84375q0 0.46875 0.5 0.75q0.515625 0.265625 1.890625 0.546875q1.171875 0.28125 1.78125 0.828125q0.609375 0.546875 0.609375 1.46875q0 1.0625 -0.828125 1.703125q-0.828125 0.625 -2.21875 0.625z" fill-rule="nonzero"></path><path fill="#000000" d="m525.7151 295.94006l0 -5.25q0 -1.59375 -1.421875 -1.59375q-0.609375 0 -1.1875 0.359375q-0.5625 0.359375 -0.859375 0.828125l0 5.65625l-1.203125 0l0 -5.25q0 -1.59375 -1.421875 -1.59375q-0.59375 0 -1.15625 0.375q-0.5625 0.359375 -0.875 0.828125l0 5.640625l-1.203125 0l0 -7.734375l1.203125 0l0 1.125q0.265625 -0.46875 1.015625 -0.890625q0.75 -0.421875 1.46875 -0.421875q0.90625 0 1.40625 0.421875q0.5 0.40625 0.671875 1.015625q0.40625 -0.625 1.140625 -1.03125q0.734375 -0.40625 1.453125 -0.40625q2.171875 0 2.171875 2.34375l0 5.578125l-1.203125 0zm7.0842896 0.1875q-1.75 0 -2.84375 -1.125q-1.09375 -1.140625 -1.09375 -2.9375q0 -1.703125 1.078125 -2.875q1.09375 -1.171875 2.734375 -1.171875q1.65625 0 2.671875 1.15625q1.03125 1.15625 1.03125 2.984375l0 0.3125l-6.25 0q0.0625 1.1875 0.84375 1.9375q0.796875 0.734375 1.9375 0.734375q1.40625 0 2.390625 -0.984375l0.578125 0.796875q-1.1875 1.171875 -3.078125 1.171875zm2.40625 -4.546875q0 -1.0625 -0.703125 -1.8125q-0.703125 -0.75 -1.84375 -0.75q-1.078125 0 -1.796875 0.75q-0.703125 0.75 -0.734375 1.8125l5.078125 0zm5.5548706 4.546875q-1.953125 0 -3.109375 -1.21875l0.625 -0.859375q0.375 0.453125 1.046875 0.78125q0.6875 0.328125 1.5 0.328125q0.890625 0 1.34375 -0.375q0.46875 -0.375 0.46875 -0.953125q0 -0.515625 -0.5 -0.8125q-0.5 -0.296875 -1.875 -0.609375q-1.171875 -0.25 -1.796875 -0.765625q-0.609375 -0.515625 -0.609375 -1.40625q0 -0.96875 0.78125 -1.59375q0.78125 -0.625 2.09375 -0.625q1.75 0 2.875 1.125l-0.5625 0.828125q-0.359375 -0.421875 -0.953125 -0.6875q-0.59375 -0.28125 -1.359375 -0.28125q-0.796875 0 -1.25 0.359375q-0.453125 0.34375 -0.453125 0.84375q0 0.46875 0.5 0.75q0.515625 0.265625 1.890625 0.546875q1.171875 0.28125 1.78125 0.828125q0.609375 0.546875 0.609375 1.46875q0 1.0625 -0.828125 1.703125q-0.828125 0.625 -2.21875 0.625zm7.4400635 0q-1.953125 0 -3.109375 -1.21875l0.625 -0.859375q0.375 0.453125 1.046875 0.78125q0.6875 0.328125 1.5 0.328125q0.890625 0 1.34375 -0.375q0.46875 -0.375 0.46875 -0.953125q0 -0.515625 -0.5 -0.8125q-0.5 -0.296875 -1.875 -0.609375q-1.171875 -0.25 -1.796875 -0.765625q-0.609375 -0.515625 -0.609375 -1.40625q0 -0.96875 0.78125 -1.59375q0.78125 -0.625 2.09375 -0.625q1.75 0 2.875 1.125l-0.5625 0.828125q-0.359375 -0.421875 -0.953125 -0.6875q-0.59375 -0.28125 -1.359375 -0.28125q-0.796875 0 -1.25 0.359375q-0.453125 0.34375 -0.453125 0.84375q0 0.46875 0.5 0.75q0.515625 0.265625 1.890625 0.546875q1.171875 0.28125 1.78125 0.828125q0.609375 0.546875 0.609375 1.46875q0 1.0625 -0.828125 1.703125q-0.828125 0.625 -2.21875 0.625zm9.830627 -0.1875l0 -0.875q-0.96875 1.0625 -2.5625 1.0625q-1.171875 0 -1.9375 -0.734375q-0.765625 -0.734375 -0.765625 -1.828125q0 -1.109375 0.75 -1.8125q0.765625 -0.71875 1.953125 -0.71875q1.671875 0 2.5625 1.046875l0 -1.390625q0 -0.78125 -0.5625 -1.203125q-0.546875 -0.421875 -1.390625 -0.421875q-1.359375 0 -2.359375 1.0625l-0.5625 -0.828125q1.234375 -1.28125 3.078125 -1.28125q1.421875 0 2.203125 0.6875q0.796875 0.6875 0.796875 1.921875l0 5.3125l-1.203125 0zm-2.125 -0.671875q1.421875 0 2.125 -0.953125l0 -1.46875q-0.703125 -0.953125 -2.125 -0.953125q-0.84375 0 -1.375 0.46875q-0.53125 0.46875 -0.53125 1.21875q0 0.75 0.53125 1.21875q0.53125 0.46875 1.375 0.46875zm8.822632 3.8125q-0.984375 0 -1.703125 -0.25q-0.71875 -0.234375 -1.40625 -0.90625l0.609375 -0.890625q0.46875 0.5625 1.0625 0.796875q0.609375 0.25 1.4375 0.25q1.1875 0 1.828125 -0.625q0.65625 -0.609375 0.65625 -1.6875l0 -1.109375q-0.40625 0.59375 -1.09375 0.984375q-0.671875 0.390625 -1.5 0.390625q-1.5625 0 -2.5 -1.09375q-0.9375 -1.109375 -0.9375 -2.90625q0 -1.859375 0.953125 -2.9375q0.953125 -1.078125 2.484375 -1.078125q1.609375 0 2.59375 1.359375l0 -1.171875l1.203125 0l0 7.515625q0 1.625 -0.96875 2.484375q-0.953125 0.875 -2.71875 0.875zm0.1875 -4.09375q0.65625 0 1.296875 -0.34375q0.65625 -0.359375 1.0 -0.921875l0 -3.375q-0.34375 -0.5625 -1.0 -0.90625q-0.65625 -0.34375 -1.296875 -0.34375q-1.140625 0 -1.8125 0.8125q-0.671875 0.8125 -0.671875 2.125q0 1.328125 0.6875 2.140625q0.6875 0.8125 1.796875 0.8125zm9.387146 1.140625q-1.75 0 -2.84375 -1.125q-1.09375 -1.140625 -1.09375 -2.9375q0 -1.703125 1.078125 -2.875q1.09375 -1.171875 2.734375 -1.171875q1.65625 0 2.671875 1.15625q1.03125 1.15625 1.03125 2.984375l0 0.3125l-6.25 0q0.0625 1.1875 0.84375 1.9375q0.796875 0.734375 1.9375 0.734375q1.40625 0 2.390625 -0.984375l0.578125 0.796875q-1.1875 1.171875 -3.078125 1.171875zm2.40625 -4.546875q0 -1.0625 -0.703125 -1.8125q-0.703125 -0.75 -1.84375 -0.75q-1.078125 0 -1.796875 0.75q-0.703125 0.75 -0.734375 1.8125l5.078125 0zm11.057922 4.546875q-1.65625 0 -2.609375 -1.359375l0 4.109375l-1.203125 0l0 -10.671875l1.203125 0l0 1.15625q0.40625 -0.59375 1.09375 -0.96875q0.6875 -0.375 1.515625 -0.375q1.546875 0 2.484375 1.09375q0.953125 1.078125 0.953125 2.953125q0 1.859375 -0.9375 2.96875q-0.9375 1.09375 -2.5 1.09375zm-0.3125 -1.0625q1.125 0 1.796875 -0.8125q0.6875 -0.828125 0.6875 -2.1875q0 -1.328125 -0.671875 -2.140625q-0.671875 -0.828125 -1.8125 -0.828125q-0.71875 0 -1.359375 0.359375q-0.625 0.359375 -0.9375 0.875l0 3.484375q0.3125 0.515625 0.9375 0.890625q0.640625 0.359375 1.359375 0.359375zm10.480164 0.875l0 -0.875q-0.96875 1.0625 -2.5625 1.0625q-1.171875 0 -1.9375 -0.734375q-0.765625 -0.734375 -0.765625 -1.828125q0 -1.109375 0.75 -1.8125q0.765625 -0.71875 1.953125 -0.71875q1.671875 0 2.5625 1.046875l0 -1.390625q0 -0.78125 -0.5625 -1.203125q-0.546875 -0.421875 -1.390625 -0.421875q-1.359375 0 -2.359375 1.0625l-0.5625 -0.828125q1.234375 -1.28125 3.078125 -1.28125q1.421875 0 2.203125 0.6875q0.796875 0.6875 0.796875 1.921875l0 5.3125l-1.203125 0zm-2.125 -0.671875q1.421875 0 2.125 -0.953125l0 -1.46875q-0.703125 -0.953125 -2.125 -0.953125q-0.84375 0 -1.375 0.46875q-0.53125 0.46875 -0.53125 1.21875q0 0.75 0.53125 1.21875q0.53125 0.46875 1.375 0.46875zm8.166382 0.859375q-1.953125 0 -3.109375 -1.21875l0.625 -0.859375q0.375 0.453125 1.046875 0.78125q0.6875 0.328125 1.5 0.328125q0.890625 0 1.34375 -0.375q0.46875 -0.375 0.46875 -0.953125q0 -0.515625 -0.5 -0.8125q-0.5 -0.296875 -1.875 -0.609375q-1.171875 -0.25 -1.796875 -0.765625q-0.609375 -0.515625 -0.609375 -1.40625q0 -0.96875 0.78125 -1.59375q0.78125 -0.625 2.09375 -0.625q1.75 0 2.875 1.125l-0.5625 0.828125q-0.359375 -0.421875 -0.953125 -0.6875q-0.59375 -0.28125 -1.359375 -0.28125q-0.796875 0 -1.25 0.359375q-0.453125 0.34375 -0.453125 0.84375q0 0.46875 0.5 0.75q0.515625 0.265625 1.890625 0.546875q1.171875 0.28125 1.78125 0.828125q0.609375 0.546875 0.609375 1.46875q0 1.0625 -0.828125 1.703125q-0.828125 0.625 -2.21875 0.625zm7.4400024 0q-1.953125 0 -3.109375 -1.21875l0.625 -0.859375q0.375 0.453125 1.046875 0.78125q0.6875 0.328125 1.5 0.328125q0.890625 0 1.34375 -0.375q0.46875 -0.375 0.46875 -0.953125q0 -0.515625 -0.5 -0.8125q-0.5 -0.296875 -1.875 -0.609375q-1.171875 -0.25 -1.796875 -0.765625q-0.609375 -0.515625 -0.609375 -1.40625q0 -0.96875 0.78125 -1.59375q0.78125 -0.625 2.09375 -0.625q1.75 0 2.875 1.125l-0.5625 0.828125q-0.359375 -0.421875 -0.953125 -0.6875q-0.59375 -0.28125 -1.359375 -0.28125q-0.796875 0 -1.25 0.359375q-0.453125 0.34375 -0.453125 0.84375q0 0.46875 0.5 0.75q0.515625 0.265625 1.890625 0.546875q1.171875 0.28125 1.78125 0.828125q0.609375 0.546875 0.609375 1.46875q0 1.0625 -0.828125 1.703125q-0.828125 0.625 -2.21875 0.625zm5.5962524 -9.015625q-0.328125 0 -0.578125 -0.234375q-0.234375 -0.234375 -0.234375 -0.5625q0 -0.34375 0.234375 -0.578125q0.25 -0.25 0.578125 -0.25q0.328125 0 0.5625 0.25q0.25 0.234375 0.25 0.578125q0 0.328125 -0.25 0.5625q-0.234375 0.234375 -0.5625 0.234375zm-0.59375 8.828125l0 -7.734375l1.203125 0l0 7.734375l-1.203125 0zm8.818787 0l0 -5.0625q0 -1.015625 -0.484375 -1.390625q-0.46875 -0.390625 -1.25 -0.390625q-0.671875 0 -1.328125 0.359375q-0.640625 0.359375 -0.953125 0.84375l0 5.640625l-1.203125 0l0 -7.734375l1.203125 0l0 1.125q0.484375 -0.578125 1.21875 -0.9375q0.734375 -0.375 1.53125 -0.375q2.453125 0 2.453125 2.5l0 5.421875l-1.1875 0zm6.690979 3.140625q-0.984375 0 -1.703125 -0.25q-0.71875 -0.234375 -1.40625 -0.90625l0.609375 -0.890625q0.46875 0.5625 1.0625 0.796875q0.609375 0.25 1.4375 0.25q1.1875 0 1.828125 -0.625q0.65625 -0.609375 0.65625 -1.6875l0 -1.109375q-0.40625 0.59375 -1.09375 0.984375q-0.671875 0.390625 -1.5 0.390625q-1.5625 0 -2.5 -1.09375q-0.9375 -1.109375 -0.9375 -2.90625q0 -1.859375 0.953125 -2.9375q0.953125 -1.078125 2.484375 -1.078125q1.609375 0 2.59375 1.359375l0 -1.171875l1.203125 0l0 7.515625q0 1.625 -0.96875 2.484375q-0.953125 0.875 -2.71875 0.875zm0.1875 -4.09375q0.65625 0 1.296875 -0.34375q0.65625 -0.359375 1.0 -0.921875l0 -3.375q-0.34375 -0.5625 -1.0 -0.90625q-0.65625 -0.34375 -1.296875 -0.34375q-1.140625 0 -1.8125 0.8125q-0.671875 0.8125 -0.671875 2.125q0 1.328125 0.6875 2.140625q0.6875 0.8125 1.796875 0.8125z" fill-rule="nonzero"></path></g></svg>

