<?xml version="1.0" standalone="yes"?>

<svg version="1.1" viewBox="0.0 150.0 1152.0 450.0" fill="none" stroke="none" stroke-linecap="square" stroke-miterlimit="10" xmlns="http://www.w3.org/2000/svg" xmlns:xlink="http://www.w3.org/1999/xlink"><clipPath id="p.0"><path d="m0 0l1152.0 0l0 864.0l-1152.0 0l0 -864.0z" clip-rule="nonzero"></path></clipPath><g clip-path="url(#p.0)"><path fill="#000000" fill-opacity="0.0" d="m0 0l1152.0 0l0 864.0l-1152.0 0z" fill-rule="evenodd"></path><path fill="#3d85c6" d="m156.37534 192.38846l373.00784 0l0 355.49606l-373.00784 0z" fill-rule="evenodd"></path><path stroke="#ffffff" stroke-width="2.0" stroke-linejoin="round" stroke-linecap="butt" d="m156.37534 192.38846l373.00784 0l0 355.49606l-373.00784 0z" fill-rule="evenodd"></path><path fill="#ffffff" d="m297.79623 219.30846l-1.125 -2.8125l-6.3125 0l-1.125 2.8125l-1.796875 0l5.09375 -12.671875l1.953125 0l5.109375 12.671875l-1.796875 0zm-4.28125 -11.03125l-2.703125 6.8125l5.390625 0l-2.6875 -6.8125zm13.650818 11.03125l0 -1.296875q-0.53125 0.609375 -1.390625 1.078125q-0.859375 0.453125 -1.890625 0.453125q-2.921875 0 -2.921875 -2.9375l0 -6.46875l1.421875 0l0 6.03125q0 1.09375 0.5 1.59375q0.5 0.5 1.5625 0.5q0.828125 0 1.5625 -0.40625q0.75 -0.421875 1.15625 -0.984375l0 -6.734375l1.421875 0l0 9.171875l-1.421875 0zm10.732727 0l0 -1.375q-0.515625 0.703125 -1.328125 1.15625q-0.796875 0.453125 -1.765625 0.453125q-1.84375 0 -2.96875 -1.3125q-1.125 -1.3125 -1.125 -3.5q0 -2.203125 1.125 -3.515625q1.140625 -1.3125 2.96875 -1.3125q0.921875 0 1.734375 0.4375q0.8125 0.421875 1.359375 1.171875l0 -4.875l1.421875 0l0 12.671875l-1.421875 0zm-2.765625 -1.046875q0.859375 0 1.609375 -0.40625q0.765625 -0.421875 1.15625 -1.03125l0 -4.171875q-0.390625 -0.609375 -1.15625 -1.03125q-0.75 -0.4375 -1.609375 -0.4375q-1.328125 0 -2.140625 0.96875q-0.796875 0.96875 -0.796875 2.578125q0 1.578125 0.796875 2.5625q0.796875 0.96875 2.140625 0.96875zm7.5398254 -9.4375q-0.375 0 -0.671875 -0.265625q-0.28125 -0.28125 -0.28125 -0.6875q0 -0.40625 0.28125 -0.6875q0.296875 -0.28125 0.671875 -0.28125q0.40625 0 0.6875 0.28125q0.28125 0.28125 0.28125 0.6875q0 0.40625 -0.28125 0.6875q-0.28125 0.265625 -0.6875 0.265625zm-0.703125 10.484375l0 -9.171875l1.421875 0l0 9.171875l-1.421875 0zm8.213287 0.234375q-2.0 0 -3.28125 -1.359375q-1.265625 -1.359375 -1.265625 -3.46875q0 -2.125 1.265625 -3.46875q1.28125 -1.34375 3.28125 -1.34375q1.984375 0 3.25 1.34375q1.28125 1.34375 1.28125 3.46875q0 2.109375 -1.28125 3.46875q-1.265625 1.359375 -3.25 1.359375zm0 -1.28125q1.328125 0 2.171875 -1.0q0.859375 -1.0 0.859375 -2.546875q0 -1.546875 -0.859375 -2.53125q-0.84375 -1.0 -2.171875 -1.0q-1.328125 0 -2.203125 0.984375q-0.859375 0.984375 -0.859375 2.546875q0 1.578125 0.84375 2.5625q0.859375 0.984375 2.21875 0.984375zm16.405762 1.046875l-2.796875 -10.21875l-2.78125 10.21875l-1.71875 0l-3.609375 -12.671875l1.75 0l2.8125 10.5625l2.90625 -10.5625l1.3125 0l2.90625 10.5625l2.796875 -10.5625l1.734375 0l-3.609375 12.671875l-1.703125 0zm10.739075 0.234375q-2.0 0 -3.28125 -1.359375q-1.265625 -1.359375 -1.265625 -3.46875q0 -2.125 1.265625 -3.46875q1.28125 -1.34375 3.28125 -1.34375q1.984375 0 3.25 1.34375q1.28125 1.34375 1.28125 3.46875q0 2.109375 -1.28125 3.46875q-1.265625 1.359375 -3.25 1.359375zm0 -1.28125q1.328125 0 2.171875 -1.0q0.859375 -1.0 0.859375 -2.546875q0 -1.546875 -0.859375 -2.53125q-0.84375 -1.0 -2.171875 -1.0q-1.328125 0 -2.203125 0.984375q-0.859375 0.984375 -0.859375 2.546875q0 1.578125 0.84375 2.5625q0.859375 0.984375 2.21875 0.984375zm6.6557617 1.046875l0 -9.171875l1.421875 0l0 1.484375q1.28125 -1.671875 3.0625 -1.671875l0 1.453125l-0.5625 -0.0625q-0.65625 0 -1.4375 0.46875q-0.765625 0.46875 -1.0625 1.0l0 6.5l-1.421875 0zm12.406555 0l-3.296875 -4.125l-1.53125 1.5l0 2.625l-1.421875 0l0 -12.671875l1.421875 0l0 8.375l4.828125 -4.875l1.8125 0l-4.0625 4.15625l4.078125 5.015625l-1.828125 0zm3.339325 0l0 -12.671875l1.421875 0l0 12.671875l-1.421875 0zm8.338287 0.234375q-2.0625 0 -3.375 -1.34375q-1.296875 -1.359375 -1.296875 -3.484375q0 -2.03125 1.296875 -3.421875q1.296875 -1.390625 3.234375 -1.390625q1.96875 0 3.1875 1.375q1.21875 1.359375 1.21875 3.546875l0 0.359375l-7.4375 0q0.078125 1.40625 1.015625 2.296875q0.9375 0.875 2.296875 0.875q1.671875 0 2.828125 -1.15625l0.6875 0.9375q-1.40625 1.40625 -3.65625 1.40625zm2.859375 -5.40625q0 -1.265625 -0.84375 -2.15625q-0.828125 -0.90625 -2.1875 -0.90625q-1.265625 0 -2.109375 0.90625q-0.84375 0.890625 -0.890625 2.15625l6.03125 0zm5.8315735 5.40625q-2.046875 0 -2.046875 -2.15625l0 -6.0l-1.515625 0l0 -1.25l1.515625 0l0 -2.515625l1.4375 0l0 2.515625l1.859375 0l0 1.25l-1.859375 0l0 5.703125q0 0.515625 0.21875 0.84375q0.234375 0.328125 0.703125 0.328125q0.59375 0 0.96875 -0.375l0.421875 1.0625q-0.59375 0.59375 -1.703125 0.59375z" fill-rule="nonzero"></path><path fill="#ffffff" d="m330.77698 241.30846l-7.390625 -10.109375l0 10.109375l-1.578125 0l0 -12.671875l1.609375 0l7.296875 9.890625l0 -9.890625l1.578125 0l0 12.671875l-1.515625 0zm8.193024 0.234375q-2.0 0 -3.28125 -1.359375q-1.265625 -1.359375 -1.265625 -3.46875q0 -2.125 1.265625 -3.46875q1.28125 -1.34375 3.28125 -1.34375q1.984375 0 3.25 1.34375q1.28125 1.34375 1.28125 3.46875q0 2.109375 -1.28125 3.46875q-1.265625 1.359375 -3.25 1.359375zm0 -1.28125q1.328125 0 2.171875 -1.0q0.859375 -1.0 0.859375 -2.546875q0 -1.546875 -0.859375 -2.53125q-0.84375 -1.0 -2.171875 -1.0q-1.328125 0 -2.203125 0.984375q-0.859375 0.984375 -0.859375 2.546875q0 1.578125 0.84375 2.5625q0.859375 0.984375 2.21875 0.984375zm13.311981 1.046875l0 -1.375q-0.515625 0.703125 -1.328125 1.15625q-0.796875 0.453125 -1.765625 0.453125q-1.84375 0 -2.96875 -1.3125q-1.125 -1.3125 -1.125 -3.5q0 -2.203125 1.125 -3.515625q1.140625 -1.3125 2.96875 -1.3125q0.921875 0 1.734375 0.4375q0.8125 0.421875 1.359375 1.171875l0 -4.875l1.421875 0l0 12.671875l-1.421875 0zm-2.765625 -1.046875q0.859375 0 1.609375 -0.40625q0.765625 -0.421875 1.15625 -1.03125l0 -4.171875q-0.390625 -0.609375 -1.15625 -1.03125q-0.75 -0.4375 -1.609375 -0.4375q-1.328125 0 -2.140625 0.96875q-0.796875 0.96875 -0.796875 2.578125q0 1.578125 0.796875 2.5625q0.796875 0.96875 2.140625 0.96875zm10.977356 1.28125q-2.0625 0 -3.375 -1.34375q-1.296875 -1.359375 -1.296875 -3.484375q0 -2.03125 1.296875 -3.421875q1.296875 -1.390625 3.234375 -1.390625q1.96875 0 3.1875 1.375q1.21875 1.359375 1.21875 3.546875l0 0.359375l-7.4375 0q0.078125 1.40625 1.015625 2.296875q0.9375 0.875 2.296875 0.875q1.671875 0 2.828125 -1.15625l0.6875 0.9375q-1.40625 1.40625 -3.65625 1.40625zm2.859375 -5.40625q0 -1.265625 -0.84375 -2.15625q-0.828125 -0.90625 -2.1875 -0.90625q-1.265625 0 -2.109375 0.90625q-0.84375 0.890625 -0.890625 2.15625l6.03125 0z" fill-rule="nonzero"></path><path fill="#6aa84f" d="m622.609 192.38846l373.00793 0l0 355.49606l-373.00793 0z" fill-rule="evenodd"></path><path stroke="#ffffff" stroke-width="2.0" stroke-linejoin="round" stroke-linecap="butt" d="m622.609 192.38846l373.00793 0l0 355.49606l-373.00793 0z" fill-rule="evenodd"></path><path fill="#ffffff" d="m764.0299 219.30846l-1.125 -2.8125l-6.3125 0l-1.125 2.8125l-1.796875 0l5.09375 -12.671875l1.953125 0l5.109375 12.671875l-1.796875 0zm-4.28125 -11.03125l-2.703125 6.8125l5.390625 0l-2.6875 -6.8125zm13.650818 11.03125l0 -1.296875q-0.53125 0.609375 -1.390625 1.078125q-0.859375 0.453125 -1.890625 0.453125q-2.921875 0 -2.921875 -2.9375l0 -6.46875l1.421875 0l0 6.03125q0 1.09375 0.5 1.59375q0.5 0.5 1.5625 0.5q0.828125 0 1.5625 -0.40625q0.75 -0.421875 1.15625 -0.984375l0 -6.734375l1.421875 0l0 9.171875l-1.421875 0zm10.732727 0l0 -1.375q-0.515625 0.703125 -1.328125 1.15625q-0.796875 0.453125 -1.765625 0.453125q-1.84375 0 -2.96875 -1.3125q-1.125 -1.3125 -1.125 -3.5q0 -2.203125 1.125 -3.515625q1.140625 -1.3125 2.96875 -1.3125q0.921875 0 1.734375 0.4375q0.8125 0.421875 1.359375 1.171875l0 -4.875l1.421875 0l0 12.671875l-1.421875 0zm-2.765625 -1.046875q0.859375 0 1.609375 -0.40625q0.765625 -0.421875 1.15625 -1.03125l0 -4.171875q-0.390625 -0.609375 -1.15625 -1.03125q-0.75 -0.4375 -1.609375 -0.4375q-1.328125 0 -2.140625 0.96875q-0.796875 0.96875 -0.796875 2.578125q0 1.578125 0.796875 2.5625q0.796875 0.96875 2.140625 0.96875zm7.539856 -9.4375q-0.375 0 -0.671875 -0.265625q-0.28125 -0.28125 -0.28125 -0.6875q0 -0.40625 0.28125 -0.6875q0.296875 -0.28125 0.671875 -0.28125q0.40625 0 0.6875 0.28125q0.28125 0.28125 0.28125 0.6875q0 0.40625 -0.28125 0.6875q-0.28125 0.265625 -0.6875 0.265625zm-0.703125 10.484375l0 -9.171875l1.421875 0l0 9.171875l-1.421875 0zm8.213318 0.234375q-2.0 0 -3.28125 -1.359375q-1.265625 -1.359375 -1.265625 -3.46875q0 -2.125 1.265625 -3.46875q1.28125 -1.34375 3.28125 -1.34375q1.984375 0 3.25 1.34375q1.28125 1.34375 1.28125 3.46875q0 2.109375 -1.28125 3.46875q-1.265625 1.359375 -3.25 1.359375zm0 -1.28125q1.328125 0 2.171875 -1.0q0.859375 -1.0 0.859375 -2.546875q0 -1.546875 -0.859375 -2.53125q-0.84375 -1.0 -2.171875 -1.0q-1.328125 0 -2.203125 0.984375q-0.859375 0.984375 -0.859375 2.546875q0 1.578125 0.84375 2.5625q0.859375 0.984375 2.21875 0.984375zm16.4057 1.046875l-2.796875 -10.21875l-2.78125 10.21875l-1.71875 0l-3.609375 -12.671875l1.75 0l2.8125 10.5625l2.90625 -10.5625l1.3125 0l2.90625 10.5625l2.796875 -10.5625l1.734375 0l-3.609375 12.671875l-1.703125 0zm10.739136 0.234375q-2.0 0 -3.28125 -1.359375q-1.265625 -1.359375 -1.265625 -3.46875q0 -2.125 1.265625 -3.46875q1.28125 -1.34375 3.28125 -1.34375q1.984375 0 3.25 1.34375q1.28125 1.34375 1.28125 3.46875q0 2.109375 -1.28125 3.46875q-1.265625 1.359375 -3.25 1.359375zm0 -1.28125q1.328125 0 2.171875 -1.0q0.859375 -1.0 0.859375 -2.546875q0 -1.546875 -0.859375 -2.53125q-0.84375 -1.0 -2.171875 -1.0q-1.328125 0 -2.203125 0.984375q-0.859375 0.984375 -0.859375 2.546875q0 1.578125 0.84375 2.5625q0.859375 0.984375 2.21875 0.984375zm6.6557007 1.046875l0 -9.171875l1.421875 0l0 1.484375q1.28125 -1.671875 3.0625 -1.671875l0 1.453125l-0.5625 -0.0625q-0.65625 0 -1.4375 0.46875q-0.765625 0.46875 -1.0625 1.0l0 6.5l-1.421875 0zm12.406616 0l-3.296875 -4.125l-1.53125 1.5l0 2.625l-1.421875 0l0 -12.671875l1.421875 0l0 8.375l4.828125 -4.875l1.8125 0l-4.0625 4.15625l4.078125 5.015625l-1.828125 0zm3.3392944 0l0 -12.671875l1.421875 0l0 12.671875l-1.421875 0zm8.338257 0.234375q-2.0625 0 -3.375 -1.34375q-1.296875 -1.359375 -1.296875 -3.484375q0 -2.03125 1.296875 -3.421875q1.296875 -1.390625 3.234375 -1.390625q1.96875 0 3.1875 1.375q1.21875 1.359375 1.21875 3.546875l0 0.359375l-7.4375 0q0.078125 1.40625 1.015625 2.296875q0.9375 0.875 2.296875 0.875q1.671875 0 2.828125 -1.15625l0.6875 0.9375q-1.40625 1.40625 -3.65625 1.40625zm2.859375 -5.40625q0 -1.265625 -0.84375 -2.15625q-0.828125 -0.90625 -2.1875 -0.90625q-1.265625 0 -2.109375 0.90625q-0.84375 0.890625 -0.890625 2.15625l6.03125 0zm5.831604 5.40625q-2.046875 0 -2.046875 -2.15625l0 -6.0l-1.515625 0l0 -1.25l1.515625 0l0 -2.515625l1.4375 0l0 2.515625l1.859375 0l0 1.25l-1.859375 0l0 5.703125q0 0.515625 0.21875 0.84375q0.234375 0.328125 0.703125 0.328125q0.59375 0 0.96875 -0.375l0.421875 1.0625q-0.59375 0.59375 -1.703125 0.59375z" fill-rule="nonzero"></path><path fill="#ffffff" d="m769.74945 241.30846l0 -12.671875l5.09375 0q1.796875 0 2.875 1.09375q1.09375 1.078125 1.09375 2.71875q0 1.671875 -1.109375 2.75q-1.09375 1.078125 -2.859375 1.078125l-3.515625 0l0 5.03125l-1.578125 0zm4.90625 -6.4375q1.140625 0 1.828125 -0.65625q0.6875 -0.671875 0.6875 -1.765625q0 -1.078125 -0.6875 -1.734375q-0.6875 -0.671875 -1.828125 -0.671875l-3.328125 0l0 4.828125l3.328125 0zm5.982483 6.4375l0 -9.171875l1.421875 0l0 1.484375q1.28125 -1.671875 3.0625 -1.671875l0 1.453125l-0.5625 -0.0625q-0.65625 0 -1.4375 0.46875q-0.765625 0.46875 -1.0625 1.0l0 6.5l-1.421875 0zm10.17218 0.234375q-2.0 0 -3.28125 -1.359375q-1.265625 -1.359375 -1.265625 -3.46875q0 -2.125 1.265625 -3.46875q1.28125 -1.34375 3.28125 -1.34375q1.984375 0 3.25 1.34375q1.28125 1.34375 1.28125 3.46875q0 2.109375 -1.28125 3.46875q-1.265625 1.359375 -3.25 1.359375zm0 -1.28125q1.328125 0 2.171875 -1.0q0.859375 -1.0 0.859375 -2.546875q0 -1.546875 -0.859375 -2.53125q-0.84375 -1.0 -2.171875 -1.0q-1.328125 0 -2.203125 0.984375q-0.859375 0.984375 -0.859375 2.546875q0 1.578125 0.84375 2.5625q0.859375 0.984375 2.21875 0.984375zm10.702637 1.28125q-2.015625 0 -3.296875 -1.375q-1.28125 -1.375 -1.28125 -3.453125q0 -2.078125 1.28125 -3.4375q1.28125 -1.375 3.296875 -1.375q2.125 0 3.359375 1.59375l-0.9375 0.875q-0.875 -1.1875 -2.34375 -1.1875q-1.40625 0 -2.296875 0.984375q-0.875 0.96875 -0.875 2.546875q0 1.59375 0.875 2.578125q0.875 0.96875 2.296875 0.96875q1.4375 0 2.34375 -1.1875l0.9375 0.859375q-1.234375 1.609375 -3.359375 1.609375zm9.328613 0q-2.0625 0 -3.375 -1.34375q-1.296875 -1.359375 -1.296875 -3.484375q0 -2.03125 1.296875 -3.421875q1.296875 -1.390625 3.234375 -1.390625q1.96875 0 3.1875 1.375q1.21875 1.359375 1.21875 3.546875l0 0.359375l-7.4375 0q0.078125 1.40625 1.015625 2.296875q0.9375 0.875 2.296875 0.875q1.671875 0 2.828125 -1.15625l0.6875 0.9375q-1.40625 1.40625 -3.65625 1.40625zm2.859375 -5.40625q0 -1.265625 -0.84375 -2.15625q-0.828125 -0.90625 -2.1875 -0.90625q-1.265625 0 -2.109375 0.90625q-0.84375 0.890625 -0.890625 2.15625l6.03125 0zm6.409729 5.40625q-2.328125 0 -3.703125 -1.453125l0.75 -1.015625q0.453125 0.53125 1.25 0.921875q0.8125 0.375 1.765625 0.375q1.0625 0 1.609375 -0.4375q0.5625 -0.453125 0.5625 -1.140625q0 -0.59375 -0.609375 -0.9375q-0.59375 -0.359375 -2.234375 -0.75q-1.375 -0.28125 -2.109375 -0.890625q-0.734375 -0.625 -0.734375 -1.671875q0 -1.15625 0.921875 -1.890625q0.9375 -0.75 2.5 -0.75q2.0625 0 3.390625 1.328125l-0.65625 0.984375q-0.421875 -0.484375 -1.140625 -0.8125q-0.703125 -0.34375 -1.59375 -0.34375q-0.953125 0 -1.5 0.421875q-0.53125 0.421875 -0.53125 1.03125q0 0.546875 0.609375 0.875q0.609375 0.3125 2.234375 0.65625q1.390625 0.328125 2.109375 0.984375q0.71875 0.65625 0.71875 1.734375q0 1.28125 -0.984375 2.03125q-0.984375 0.75 -2.625 0.75zm8.67511 0q-2.328125 0 -3.703125 -1.453125l0.75 -1.015625q0.453125 0.53125 1.25 0.921875q0.8125 0.375 1.765625 0.375q1.0625 0 1.609375 -0.4375q0.5625 -0.453125 0.5625 -1.140625q0 -0.59375 -0.609375 -0.9375q-0.59375 -0.359375 -2.234375 -0.75q-1.375 -0.28125 -2.109375 -0.890625q-0.734375 -0.625 -0.734375 -1.671875q0 -1.15625 0.921875 -1.890625q0.9375 -0.75 2.5 -0.75q2.0625 0 3.390625 1.328125l-0.65625 0.984375q-0.421875 -0.484375 -1.140625 -0.8125q-0.703125 -0.34375 -1.59375 -0.34375q-0.953125 0 -1.5 0.421875q-0.53125 0.421875 -0.53125 1.03125q0 0.546875 0.609375 0.875q0.609375 0.3125 2.234375 0.65625q1.390625 0.328125 2.109375 0.984375q0.71875 0.65625 0.71875 1.734375q0 1.28125 -0.984375 2.03125q-0.984375 0.75 -2.625 0.75zm9.784546 0q-2.0 0 -3.28125 -1.359375q-1.265625 -1.359375 -1.265625 -3.46875q0 -2.125 1.265625 -3.46875q1.28125 -1.34375 3.28125 -1.34375q1.984375 0 3.25 1.34375q1.28125 1.34375 1.28125 3.46875q0 2.109375 -1.28125 3.46875q-1.265625 1.359375 -3.25 1.359375zm0 -1.28125q1.328125 0 2.171875 -1.0q0.859375 -1.0 0.859375 -2.546875q0 -1.546875 -0.859375 -2.53125q-0.84375 -1.0 -2.171875 -1.0q-1.328125 0 -2.203125 0.984375q-0.859375 0.984375 -0.859375 2.546875q0 1.578125 0.84375 2.5625q0.859375 0.984375 2.21875 0.984375zm6.6557617 1.046875l0 -9.171875l1.421875 0l0 1.484375q1.28125 -1.671875 3.0625 -1.671875l0 1.453125l-0.5625 -0.0625q-0.65625 0 -1.4375 0.46875q-0.765625 0.46875 -1.0625 1.0l0 6.5l-1.421875 0z" fill-rule="nonzero"></path><path fill="#ffffff" d="m662.0486 441.38583l294.14172 0l0 71.99997l-294.14172 0z" fill-rule="evenodd"></path><path fill="#000000" d="m690.59076 484.30582l-3.8125 -9.171875l1.53125 0l3.0625 7.515625l3.03125 -7.515625l1.5625 0l-3.8125 9.171875l-1.5625 0zm12.422791 0l0 -1.046875q-1.15625 1.28125 -3.03125 1.28125q-1.390625 0 -2.3125 -0.875q-0.90625 -0.875 -0.90625 -2.171875q0 -1.328125 0.90625 -2.171875q0.90625 -0.84375 2.3125 -0.84375q1.96875 0 3.03125 1.25l0 -1.65625q0 -0.921875 -0.65625 -1.421875q-0.640625 -0.515625 -1.65625 -0.515625q-1.609375 0 -2.8125 1.28125l-0.65625 -1.0q1.453125 -1.515625 3.65625 -1.515625q1.6875 0 2.625 0.828125q0.9375 0.8125 0.9375 2.265625l0 6.3125l-1.4375 0zm-2.515625 -0.796875q1.6875 0 2.515625 -1.140625l0 -1.734375q-0.828125 -1.140625 -2.515625 -1.140625q-1.015625 0 -1.640625 0.5625q-0.625 0.5625 -0.625 1.453125q0 0.875 0.625 1.4375q0.625 0.5625 1.640625 0.5625zm6.613098 0.796875l0 -12.671875l1.421875 0l0 12.671875l-1.421875 0zm10.400818 0l0 -1.296875q-0.53125 0.609375 -1.390625 1.078125q-0.859375 0.453125 -1.890625 0.453125q-2.921875 0 -2.921875 -2.9375l0 -6.46875l1.421875 0l0 6.03125q0 1.09375 0.5 1.59375q0.5 0.5 1.5625 0.5q0.828125 0 1.5625 -0.40625q0.75 -0.421875 1.15625 -0.984375l0 -6.734375l1.421875 0l0 9.171875l-1.421875 0zm8.217102 0.234375q-2.0625 0 -3.375 -1.34375q-1.296875 -1.359375 -1.296875 -3.484375q0 -2.03125 1.296875 -3.421875q1.296875 -1.390625 3.234375 -1.390625q1.96875 0 3.1875 1.375q1.21875 1.359375 1.21875 3.546875l0 0.359375l-7.4375 0q0.078125 1.40625 1.015625 2.296875q0.9375 0.875 2.296875 0.875q1.671875 0 2.828125 -1.15625l0.6875 0.9375q-1.40625 1.40625 -3.65625 1.40625zm2.859375 -5.40625q0 -1.265625 -0.84375 -2.15625q-0.828125 -0.90625 -2.1875 -0.90625q-1.265625 0 -2.109375 0.90625q-0.84375 0.890625 -0.890625 2.15625l6.03125 0zm6.409668 5.40625q-2.328125 0 -3.703125 -1.453125l0.75 -1.015625q0.453125 0.53125 1.25 0.921875q0.8125 0.375 1.765625 0.375q1.0625 0 1.609375 -0.4375q0.5625 -0.453125 0.5625 -1.140625q0 -0.59375 -0.609375 -0.9375q-0.59375 -0.359375 -2.234375 -0.75q-1.375 -0.28125 -2.109375 -0.890625q-0.734375 -0.625 -0.734375 -1.671875q0 -1.15625 0.921875 -1.890625q0.9375 -0.75 2.5 -0.75q2.0625 0 3.390625 1.328125l-0.65625 0.984375q-0.421875 -0.484375 -1.140625 -0.8125q-0.703125 -0.34375 -1.59375 -0.34375q-0.953125 0 -1.5 0.421875q-0.53125 0.421875 -0.53125 1.03125q0 0.546875 0.609375 0.875q0.609375 0.3125 2.234375 0.65625q1.390625 0.328125 2.109375 0.984375q0.71875 0.65625 0.71875 1.734375q0 1.28125 -0.984375 2.03125q-0.984375 0.75 -2.625 0.75zm9.707214 -7.90625l0 -1.015625l8.390625 0l0 1.015625l-8.390625 0zm0 3.65625l0 -0.984375l8.390625 0l0 0.984375l-8.390625 0zm19.529053 4.25q-1.96875 0 -3.109375 -1.625l0 4.890625l-1.421875 0l0 -12.671875l1.421875 0l0 1.359375q0.5 -0.703125 1.3125 -1.140625q0.828125 -0.453125 1.796875 -0.453125q1.84375 0 2.953125 1.296875q1.125 1.28125 1.125 3.515625q0 2.203125 -1.109375 3.515625q-1.109375 1.3125 -2.96875 1.3125zm-0.359375 -1.28125q1.328125 0 2.125 -0.96875q0.8125 -0.96875 0.8125 -2.578125q0 -1.578125 -0.796875 -2.546875q-0.796875 -0.984375 -2.140625 -0.984375q-0.859375 0 -1.609375 0.421875q-0.75 0.421875 -1.140625 1.03125l0 4.140625q0.390625 0.609375 1.140625 1.046875q0.75 0.4375 1.609375 0.4375zm12.233887 1.046875l0 -1.046875q-1.15625 1.28125 -3.03125 1.28125q-1.390625 0 -2.3125 -0.875q-0.90625 -0.875 -0.90625 -2.171875q0 -1.328125 0.90625 -2.171875q0.90625 -0.84375 2.3125 -0.84375q1.96875 0 3.03125 1.25l0 -1.65625q0 -0.921875 -0.65625 -1.421875q-0.640625 -0.515625 -1.65625 -0.515625q-1.609375 0 -2.8125 1.28125l-0.65625 -1.0q1.453125 -1.515625 3.65625 -1.515625q1.6875 0 2.625 0.828125q0.9375 0.8125 0.9375 2.265625l0 6.3125l-1.4375 0zm-2.515625 -0.796875q1.6875 0 2.515625 -1.140625l0 -1.734375q-0.828125 -1.140625 -2.515625 -1.140625q-1.015625 0 -1.640625 0.5625q-0.625 0.5625 -0.625 1.453125q0 0.875 0.625 1.4375q0.625 0.5625 1.640625 0.5625zm6.613098 0.796875l0 -9.171875l1.421875 0l0 1.484375q1.28125 -1.671875 3.0625 -1.671875l0 1.453125l-0.5625 -0.0625q-0.65625 0 -1.4375 0.46875q-0.765625 0.46875 -1.0625 1.0l0 6.5l-1.421875 0zm11.89093 0l0 -1.046875q-1.15625 1.28125 -3.03125 1.28125q-1.390625 0 -2.3125 -0.875q-0.90625 -0.875 -0.90625 -2.171875q0 -1.328125 0.90625 -2.171875q0.90625 -0.84375 2.3125 -0.84375q1.96875 0 3.03125 1.25l0 -1.65625q0 -0.921875 -0.65625 -1.421875q-0.640625 -0.515625 -1.65625 -0.515625q-1.609375 0 -2.8125 1.28125l-0.65625 -1.0q1.453125 -1.515625 3.65625 -1.515625q1.6875 0 2.625 0.828125q0.9375 0.8125 0.9375 2.265625l0 6.3125l-1.4375 0zm-2.515625 -0.796875q1.6875 0 2.515625 -1.140625l0 -1.734375q-0.828125 -1.140625 -2.515625 -1.140625q-1.015625 0 -1.640625 0.5625q-0.625 0.5625 -0.625 1.453125q0 0.875 0.625 1.4375q0.625 0.5625 1.640625 0.5625zm17.691223 0.796875l0 -6.234375q0 -1.890625 -1.6875 -1.890625q-0.71875 0 -1.40625 0.421875q-0.671875 0.421875 -1.03125 0.984375l0 6.71875l-1.421875 0l0 -6.234375q0 -1.890625 -1.6875 -1.890625q-0.703125 0 -1.375 0.4375q-0.65625 0.421875 -1.046875 0.984375l0 6.703125l-1.421875 0l0 -9.171875l1.421875 0l0 1.328125q0.328125 -0.546875 1.21875 -1.046875q0.890625 -0.515625 1.75 -0.515625q1.0625 0 1.65625 0.5q0.609375 0.484375 0.8125 1.21875q0.484375 -0.75 1.34375 -1.234375q0.875 -0.484375 1.734375 -0.484375q2.5625 0 2.5625 2.78125l0 6.625l-1.421875 0zm8.13678 0.234375q-2.0625 0 -3.375 -1.34375q-1.296875 -1.359375 -1.296875 -3.484375q0 -2.03125 1.296875 -3.421875q1.296875 -1.390625 3.234375 -1.390625q1.96875 0 3.1875 1.375q1.21875 1.359375 1.21875 3.546875l0 0.359375l-7.4375 0q0.078125 1.40625 1.015625 2.296875q0.9375 0.875 2.296875 0.875q1.671875 0 2.828125 -1.15625l0.6875 0.9375q-1.40625 1.40625 -3.65625 1.40625zm2.859375 -5.40625q0 -1.265625 -0.84375 -2.15625q-0.828125 -0.90625 -2.1875 -0.90625q-1.265625 0 -2.109375 0.90625q-0.84375 0.890625 -0.890625 2.15625l6.03125 0zm5.831543 5.40625q-2.046875 0 -2.046875 -2.15625l0 -6.0l-1.515625 0l0 -1.25l1.515625 0l0 -2.515625l1.4375 0l0 2.515625l1.859375 0l0 1.25l-1.859375 0l0 5.703125q0 0.515625 0.21875 0.84375q0.234375 0.328125 0.703125 0.328125q0.59375 0 0.96875 -0.375l0.421875 1.0625q-0.59375 0.59375 -1.703125 0.59375zm7.2974854 0q-2.0625 0 -3.375 -1.34375q-1.296875 -1.359375 -1.296875 -3.484375q0 -2.03125 1.296875 -3.421875q1.296875 -1.390625 3.234375 -1.390625q1.96875 0 3.1875 1.375q1.21875 1.359375 1.21875 3.546875l0 0.359375l-7.4375 0q0.078125 1.40625 1.015625 2.296875q0.9375 0.875 2.296875 0.875q1.671875 0 2.828125 -1.15625l0.6875 0.9375q-1.40625 1.40625 -3.65625 1.40625zm2.859375 -5.40625q0 -1.265625 -0.84375 -2.15625q-0.828125 -0.90625 -2.1875 -0.90625q-1.265625 0 -2.109375 0.90625q-0.84375 0.890625 -0.890625 2.15625l6.03125 0zm3.503418 5.171875l0 -9.171875l1.421875 0l0 1.484375q1.28125 -1.671875 3.0625 -1.671875l0 1.453125l-0.5625 -0.0625q-0.65625 0 -1.4375 0.46875q-0.765625 0.46875 -1.0625 1.0l0 6.5l-1.421875 0zm9.062866 0.234375q-2.328125 0 -3.703125 -1.453125l0.75 -1.015625q0.453125 0.53125 1.25 0.921875q0.8125 0.375 1.765625 0.375q1.0625 0 1.609375 -0.4375q0.5625 -0.453125 0.5625 -1.140625q0 -0.59375 -0.609375 -0.9375q-0.59375 -0.359375 -2.234375 -0.75q-1.375 -0.28125 -2.109375 -0.890625q-0.734375 -0.625 -0.734375 -1.671875q0 -1.15625 0.921875 -1.890625q0.9375 -0.75 2.5 -0.75q2.0625 0 3.390625 1.328125l-0.65625 0.984375q-0.421875 -0.484375 -1.140625 -0.8125q-0.703125 -0.34375 -1.59375 -0.34375q-0.953125 0 -1.5 0.421875q-0.53125 0.421875 -0.53125 1.03125q0 0.546875 0.609375 0.875q0.609375 0.3125 2.234375 0.65625q1.390625 0.328125 2.109375 0.984375q0.71875 0.65625 0.71875 1.734375q0 1.28125 -0.984375 2.03125q-0.984375 0.75 -2.625 0.75zm6.534485 -0.046875q-0.4375 0 -0.75 -0.296875q-0.296875 -0.3125 -0.296875 -0.75q0 -0.4375 0.296875 -0.734375q0.3125 -0.3125 0.75 -0.3125q0.4375 0 0.734375 0.3125q0.3125 0.296875 0.3125 0.734375q0 0.4375 -0.3125 0.75q-0.296875 0.296875 -0.734375 0.296875zm14.603455 -0.1875l0 -6.234375q0 -1.890625 -1.6875 -1.890625q-0.71875 0 -1.40625 0.421875q-0.671875 0.421875 -1.03125 0.984375l0 6.71875l-1.421875 0l0 -6.234375q0 -1.890625 -1.6875 -1.890625q-0.703125 0 -1.375 0.4375q-0.65625 0.421875 -1.046875 0.984375l0 6.703125l-1.421875 0l0 -9.171875l1.421875 0l0 1.328125q0.328125 -0.546875 1.21875 -1.046875q0.890625 -0.515625 1.75 -0.515625q1.0625 0 1.65625 0.5q0.609375 0.484375 0.8125 1.21875q0.484375 -0.75 1.34375 -1.234375q0.875 -0.484375 1.734375 -0.484375q2.5625 0 2.5625 2.78125l0 6.625l-1.421875 0zm3.7149048 2.296875q0.296875 0.15625 0.78125 0.15625q0.46875 0 0.796875 -0.203125q0.328125 -0.203125 0.5625 -0.765625l0.609375 -1.390625l-3.828125 -9.265625l1.53125 0l3.0625 7.515625l3.03125 -7.515625l1.5625 0l-4.59375 11.03125q-0.765625 1.828125 -2.703125 1.859375q-0.546875 0 -1.046875 -0.125l0.234375 -1.296875zm9.485291 -2.296875l0 -12.671875l5.09375 0q1.796875 0 2.875 1.09375q1.09375 1.078125 1.09375 2.71875q0 1.671875 -1.109375 2.75q-1.09375 1.078125 -2.859375 1.078125l-3.515625 0l0 5.03125l-1.578125 0zm4.90625 -6.4375q1.140625 0 1.828125 -0.65625q0.6875 -0.671875 0.6875 -1.765625q0 -1.078125 -0.6875 -1.734375q-0.6875 -0.671875 -1.828125 -0.671875l-3.328125 0l0 4.828125l3.328125 0zm11.716858 6.4375l0 -1.046875q-1.15625 1.28125 -3.03125 1.28125q-1.390625 0 -2.3125 -0.875q-0.90625 -0.875 -0.90625 -2.171875q0 -1.328125 0.90625 -2.171875q0.90625 -0.84375 2.3125 -0.84375q1.96875 0 3.03125 1.25l0 -1.65625q0 -0.921875 -0.65625 -1.421875q-0.640625 -0.515625 -1.65625 -0.515625q-1.609375 0 -2.8125 1.28125l-0.65625 -1.0q1.453125 -1.515625 3.65625 -1.515625q1.6875 0 2.625 0.828125q0.9375 0.8125 0.9375 2.265625l0 6.3125l-1.4375 0zm-2.515625 -0.796875q1.6875 0 2.515625 -1.140625l0 -1.734375q-0.828125 -1.140625 -2.515625 -1.140625q-1.015625 0 -1.640625 0.5625q-0.625 0.5625 -0.625 1.453125q0 0.875 0.625 1.4375q0.625 0.5625 1.640625 0.5625zm6.613098 0.796875l0 -9.171875l1.421875 0l0 1.484375q1.28125 -1.671875 3.0625 -1.671875l0 1.453125l-0.5625 -0.0625q-0.65625 0 -1.4375 0.46875q-0.765625 0.46875 -1.0625 1.0l0 6.5l-1.421875 0zm11.89093 0l0 -1.046875q-1.15625 1.28125 -3.03125 1.28125q-1.390625 0 -2.3125 -0.875q-0.90625 -0.875 -0.90625 -2.171875q0 -1.328125 0.90625 -2.171875q0.90625 -0.84375 2.3125 -0.84375q1.96875 0 3.03125 1.25l0 -1.65625q0 -0.921875 -0.65625 -1.421875q-0.640625 -0.515625 -1.65625 -0.515625q-1.609375 0 -2.8125 1.28125l-0.65625 -1.0q1.453125 -1.515625 3.65625 -1.515625q1.6875 0 2.625 0.828125q0.9375 0.8125 0.9375 2.265625l0 6.3125l-1.4375 0zm-2.515625 -0.796875q1.6875 0 2.515625 -1.140625l0 -1.734375q-0.828125 -1.140625 -2.515625 -1.140625q-1.015625 0 -1.640625 0.5625q-0.625 0.5625 -0.625 1.453125q0 0.875 0.625 1.4375q0.625 0.5625 1.640625 0.5625zm17.691223 0.796875l0 -6.234375q0 -1.890625 -1.6875 -1.890625q-0.71875 0 -1.40625 0.421875q-0.671875 0.421875 -1.03125 0.984375l0 6.71875l-1.421875 0l0 -6.234375q0 -1.890625 -1.6875 -1.890625q-0.703125 0 -1.375 0.4375q-0.65625 0.421875 -1.046875 0.984375l0 6.703125l-1.421875 0l0 -9.171875l1.421875 0l0 1.328125q0.328125 -0.546875 1.21875 -1.046875q0.890625 -0.515625 1.75 -0.515625q1.0625 0 1.65625 0.5q0.609375 0.484375 0.8125 1.21875q0.484375 -0.75 1.34375 -1.234375q0.875 -0.484375 1.734375 -0.484375q2.5625 0 2.5625 2.78125l0 6.625l-1.421875 0z" fill-rule="nonzero"></path><path fill="#ffffff" d="m197.28871 307.75854l294.14172 0l0 72.0l-294.14172 0z" fill-rule="evenodd"></path><path fill="#000000" d="m290.71744 348.67853l0 -6.0q0 -1.21875 -0.5625 -1.671875q-0.5625 -0.453125 -1.5 -0.453125q-0.796875 0 -1.5625 0.421875q-0.765625 0.421875 -1.15625 1.0l0 6.703125l-1.421875 0l0 -9.171875l1.421875 0l0 1.328125q0.59375 -0.6875 1.453125 -1.125q0.875 -0.4375 1.828125 -0.4375q2.921875 0 2.921875 2.96875l0 6.4375l-1.421875 0zm8.092102 0.234375q-2.0 0 -3.28125 -1.359375q-1.265625 -1.359375 -1.265625 -3.46875q0 -2.125 1.265625 -3.46875q1.28125 -1.34375 3.28125 -1.34375q1.984375 0 3.25 1.34375q1.28125 1.34375 1.28125 3.46875q0 2.109375 -1.28125 3.46875q-1.265625 1.359375 -3.25 1.359375zm0 -1.28125q1.328125 0 2.171875 -1.0q0.859375 -1.0 0.859375 -2.546875q0 -1.546875 -0.859375 -2.53125q-0.84375 -1.0 -2.171875 -1.0q-1.328125 0 -2.203125 0.984375q-0.859375 0.984375 -0.859375 2.546875q0 1.578125 0.84375 2.5625q0.859375 0.984375 2.21875 0.984375zm13.312012 1.046875l0 -1.375q-0.515625 0.703125 -1.328125 1.15625q-0.796875 0.453125 -1.765625 0.453125q-1.84375 0 -2.96875 -1.3125q-1.125 -1.3125 -1.125 -3.5q0 -2.203125 1.125 -3.515625q1.140625 -1.3125 2.96875 -1.3125q0.921875 0 1.734375 0.4375q0.8125 0.421875 1.359375 1.171875l0 -4.875l1.421875 0l0 12.671875l-1.421875 0zm-2.765625 -1.046875q0.859375 0 1.609375 -0.40625q0.765625 -0.421875 1.15625 -1.03125l0 -4.171875q-0.390625 -0.609375 -1.15625 -1.03125q-0.75 -0.4375 -1.609375 -0.4375q-1.328125 0 -2.140625 0.96875q-0.796875 0.96875 -0.796875 2.578125q0 1.578125 0.796875 2.5625q0.796875 0.96875 2.140625 0.96875zm10.977325 1.28125q-2.0625 0 -3.375 -1.34375q-1.296875 -1.359375 -1.296875 -3.484375q0 -2.03125 1.296875 -3.421875q1.296875 -1.390625 3.234375 -1.390625q1.96875 0 3.1875 1.375q1.21875 1.359375 1.21875 3.546875l0 0.359375l-7.4375 0q0.078125 1.40625 1.015625 2.296875q0.9375 0.875 2.296875 0.875q1.671875 0 2.828125 -1.15625l0.6875 0.9375q-1.40625 1.40625 -3.65625 1.40625zm2.859375 -5.40625q0 -1.265625 -0.84375 -2.15625q-0.828125 -0.90625 -2.1875 -0.90625q-1.265625 0 -2.109375 0.90625q-0.84375 0.890625 -0.890625 2.15625l6.03125 0zm4.269104 5.359375q-0.4375 0 -0.75 -0.296875q-0.296875 -0.3125 -0.296875 -0.75q0 -0.4375 0.296875 -0.734375q0.3125 -0.3125 0.75 -0.3125q0.4375 0 0.734375 0.3125q0.3125 0.296875 0.3125 0.734375q0 0.4375 -0.3125 0.75q-0.296875 0.296875 -0.734375 0.296875zm14.603424 -0.1875l0 -6.234375q0 -1.890625 -1.6875 -1.890625q-0.71875 0 -1.40625 0.421875q-0.671875 0.421875 -1.03125 0.984375l0 6.71875l-1.421875 0l0 -6.234375q0 -1.890625 -1.6875 -1.890625q-0.703125 0 -1.375 0.4375q-0.65625 0.421875 -1.046875 0.984375l0 6.703125l-1.421875 0l0 -9.171875l1.421875 0l0 1.328125q0.328125 -0.546875 1.21875 -1.046875q0.890625 -0.515625 1.75 -0.515625q1.0625 0 1.65625 0.5q0.609375 0.484375 0.8125 1.21875q0.484375 -0.75 1.34375 -1.234375q0.875 -0.484375 1.734375 -0.484375q2.5625 0 2.5625 2.78125l0 6.625l-1.421875 0zm3.7148743 2.296875q0.296875 0.15625 0.78125 0.15625q0.46875 0 0.796875 -0.203125q0.328125 -0.203125 0.5625 -0.765625l0.609375 -1.390625l-3.828125 -9.265625l1.53125 0l3.0625 7.515625l3.03125 -7.515625l1.5625 0l-4.59375 11.03125q-0.765625 1.828125 -2.703125 1.859375q-0.546875 0 -1.046875 -0.125l0.234375 -1.296875zm9.485321 -2.296875l0 -12.671875l5.09375 0q1.796875 0 2.875 1.09375q1.09375 1.078125 1.09375 2.71875q0 1.671875 -1.109375 2.75q-1.09375 1.078125 -2.859375 1.078125l-3.515625 0l0 5.03125l-1.578125 0zm4.90625 -6.4375q1.140625 0 1.828125 -0.65625q0.6875 -0.671875 0.6875 -1.765625q0 -1.078125 -0.6875 -1.734375q-0.6875 -0.671875 -1.828125 -0.671875l-3.328125 0l0 4.828125l3.328125 0zm11.716858 6.4375l0 -1.046875q-1.15625 1.28125 -3.03125 1.28125q-1.390625 0 -2.3125 -0.875q-0.90625 -0.875 -0.90625 -2.171875q0 -1.328125 0.90625 -2.171875q0.90625 -0.84375 2.3125 -0.84375q1.96875 0 3.03125 1.25l0 -1.65625q0 -0.921875 -0.65625 -1.421875q-0.640625 -0.515625 -1.65625 -0.515625q-1.609375 0 -2.8125 1.28125l-0.65625 -1.0q1.453125 -1.515625 3.65625 -1.515625q1.6875 0 2.625 0.828125q0.9375 0.8125 0.9375 2.265625l0 6.3125l-1.4375 0zm-2.515625 -0.796875q1.6875 0 2.515625 -1.140625l0 -1.734375q-0.828125 -1.140625 -2.515625 -1.140625q-1.015625 0 -1.640625 0.5625q-0.625 0.5625 -0.625 1.453125q0 0.875 0.625 1.4375q0.625 0.5625 1.640625 0.5625zm6.613098 0.796875l0 -9.171875l1.421875 0l0 1.484375q1.28125 -1.671875 3.0625 -1.671875l0 1.453125l-0.5625 -0.0625q-0.65625 0 -1.4375 0.46875q-0.765625 0.46875 -1.0625 1.0l0 6.5l-1.421875 0zm11.89093 0l0 -1.046875q-1.15625 1.28125 -3.03125 1.28125q-1.390625 0 -2.3125 -0.875q-0.90625 -0.875 -0.90625 -2.171875q0 -1.328125 0.90625 -2.171875q0.90625 -0.84375 2.3125 -0.84375q1.96875 0 3.03125 1.25l0 -1.65625q0 -0.921875 -0.65625 -1.421875q-0.640625 -0.515625 -1.65625 -0.515625q-1.609375 0 -2.8125 1.28125l-0.65625 -1.0q1.453125 -1.515625 3.65625 -1.515625q1.6875 0 2.625 0.828125q0.9375 0.8125 0.9375 2.265625l0 6.3125l-1.4375 0zm-2.515625 -0.796875q1.6875 0 2.515625 -1.140625l0 -1.734375q-0.828125 -1.140625 -2.515625 -1.140625q-1.015625 0 -1.640625 0.5625q-0.625 0.5625 -0.625 1.453125q0 0.875 0.625 1.4375q0.625 0.5625 1.640625 0.5625zm17.691223 0.796875l0 -6.234375q0 -1.890625 -1.6875 -1.890625q-0.71875 0 -1.40625 0.421875q-0.671875 0.421875 -1.03125 0.984375l0 6.71875l-1.421875 0l0 -6.234375q0 -1.890625 -1.6875 -1.890625q-0.703125 0 -1.375 0.4375q-0.65625 0.421875 -1.046875 0.984375l0 6.703125l-1.421875 0l0 -9.171875l1.421875 0l0 1.328125q0.328125 -0.546875 1.21875 -1.046875q0.890625 -0.515625 1.75 -0.515625q1.0625 0 1.65625 0.5q0.609375 0.484375 0.8125 1.21875q0.484375 -0.75 1.34375 -1.234375q0.875 -0.484375 1.734375 -0.484375q2.5625 0 2.5625 2.78125l0 6.625l-1.421875 0z" fill-rule="nonzero"></path><path fill="#000000" fill-opacity="0.0" d="m663.24243 403.95786l189.22833 0l0 36.0l-189.22833 0z" fill-rule="evenodd"></path><path fill="#ffffff" d="m678.67993 429.11224q-1.765625 0 -2.828125 -1.40625l0 4.671875l-2.40625 0l0 -12.671875l2.40625 0l0 1.15625q1.109375 -1.390625 2.828125 -1.390625q1.828125 0 2.9375 1.28125q1.125 1.28125 1.125 3.53125q0 2.203125 -1.109375 3.515625q-1.109375 1.3125 -2.953125 1.3125zm-0.75 -2.15625q1.03125 0 1.671875 -0.734375q0.640625 -0.75 0.640625 -1.9375q0 -1.203125 -0.640625 -1.9375q-0.640625 -0.734375 -1.671875 -0.734375q-0.59375 0 -1.1875 0.3125q-0.59375 0.296875 -0.890625 0.734375l0 3.25q0.296875 0.4375 0.890625 0.75q0.59375 0.296875 1.1875 0.296875zm6.392212 1.921875l0 -9.171875l2.40625 0l0 1.25q0.5 -0.609375 1.28125 -1.046875q0.796875 -0.4375 1.640625 -0.4375l0 2.359375l-0.65625 -0.0625q-0.65625 0 -1.3125 0.3125q-0.65625 0.296875 -0.953125 0.734375l0 6.0625l-2.40625 0zm10.966248 0.234375q-2.125 0 -3.484375 -1.375q-1.359375 -1.375 -1.359375 -3.453125q0 -2.09375 1.359375 -3.453125q1.359375 -1.359375 3.484375 -1.359375q2.125 0 3.484375 1.359375q1.375 1.359375 1.375 3.453125q0 2.109375 -1.375 3.46875q-1.359375 1.359375 -3.484375 1.359375zm0 -2.15625q1.046875 0 1.703125 -0.75q0.65625 -0.75 0.65625 -1.921875q0 -1.140625 -0.65625 -1.90625q-0.65625 -0.765625 -1.703125 -0.765625q-1.0 0 -1.671875 0.734375q-0.671875 0.734375 -0.671875 1.9375q0 1.21875 0.671875 1.953125q0.671875 0.71875 1.671875 0.71875zm10.724304 2.15625q-2.15625 0 -3.515625 -1.375q-1.34375 -1.375 -1.34375 -3.453125q0 -2.078125 1.34375 -3.4375q1.359375 -1.375 3.515625 -1.375q1.40625 0 2.28125 0.515625q0.890625 0.515625 1.34375 1.140625l-1.5625 1.484375q-0.671875 -1.0 -1.9375 -1.0q-1.109375 0 -1.8125 0.734375q-0.6875 0.734375 -0.6875 1.9375q0 1.1875 0.6875 1.9375q0.703125 0.734375 1.8125 0.734375q1.234375 0 1.9375 -0.984375l1.5625 1.46875q-0.453125 0.640625 -1.34375 1.15625q-0.875 0.515625 -2.28125 0.515625zm9.356384 0q-2.171875 0 -3.546875 -1.34375q-1.359375 -1.34375 -1.359375 -3.484375q0 -2.0625 1.359375 -3.4375q1.359375 -1.375 3.390625 -1.375q2.03125 0 3.3125 1.40625q1.28125 1.390625 1.28125 3.65625l0 0.53125l-6.8125 0q0.109375 0.875 0.78125 1.5q0.671875 0.625 1.859375 0.625q0.5625 0 1.265625 -0.234375q0.703125 -0.25 1.1875 -0.6875l1.0625 1.5625q-0.6875 0.625 -1.703125 0.953125q-1.0 0.328125 -2.078125 0.328125zm2.109375 -5.6875q-0.0625 -0.90625 -0.6875 -1.46875q-0.625 -0.5625 -1.578125 -0.5625q-0.953125 0 -1.5625 0.578125q-0.609375 0.578125 -0.703125 1.453125l4.53125 0zm7.1918945 5.6875q-1.1875 0 -2.28125 -0.375q-1.09375 -0.390625 -1.8125 -1.0625l1.03125 -1.6875q0.5625 0.515625 1.46875 0.890625q0.90625 0.359375 1.703125 0.359375q1.546875 0 1.546875 -0.984375q0 -0.375 -0.40625 -0.5625q-0.40625 -0.1875 -1.0 -0.328125l-1.3125 -0.265625q-2.734375 -0.59375 -2.734375 -2.734375q0 -1.28125 1.046875 -2.078125q1.0625 -0.8125 2.71875 -0.8125q2.140625 0 3.703125 1.25l-0.96875 1.65625q-0.421875 -0.4375 -1.140625 -0.75q-0.71875 -0.3125 -1.578125 -0.3125q-0.671875 0 -1.0625 0.265625q-0.375 0.265625 -0.375 0.640625q0 0.34375 0.390625 0.515625q0.40625 0.171875 1.0 0.296875q0.609375 0.125 1.3125 0.296875q0.703125 0.15625 1.3125 0.484375q0.609375 0.3125 1.0 0.875q0.40625 0.546875 0.40625 1.46875q0 1.328125 -1.078125 2.140625q-1.078125 0.8125 -2.890625 0.8125zm8.899048 0q-1.1875 0 -2.28125 -0.375q-1.09375 -0.390625 -1.8125 -1.0625l1.03125 -1.6875q0.5625 0.515625 1.46875 0.890625q0.90625 0.359375 1.703125 0.359375q1.546875 0 1.546875 -0.984375q0 -0.375 -0.40625 -0.5625q-0.40625 -0.1875 -1.0 -0.328125l-1.3125 -0.265625q-2.734375 -0.59375 -2.734375 -2.734375q0 -1.28125 1.046875 -2.078125q1.0625 -0.8125 2.71875 -0.8125q2.140625 0 3.703125 1.25l-0.96875 1.65625q-0.421875 -0.4375 -1.140625 -0.75q-0.71875 -0.3125 -1.578125 -0.3125q-0.671875 0 -1.0625 0.265625q-0.375 0.265625 -0.375 0.640625q0 0.34375 0.390625 0.515625q0.40625 0.171875 1.0 0.296875q0.609375 0.125 1.3125 0.296875q0.703125 0.15625 1.3125 0.484375q0.609375 0.3125 1.0 0.875q0.40625 0.546875 0.40625 1.46875q0 1.328125 -1.078125 2.140625q-1.078125 0.8125 -2.890625 0.8125zm8.180237 3.546875q-1.40625 -1.59375 -2.203125 -3.859375q-0.796875 -2.265625 -0.796875 -4.53125q0 -2.3125 0.796875 -4.5625q0.796875 -2.25 2.203125 -3.84375l1.515625 1.140625q-1.078125 2.0 -1.5 3.6875q-0.421875 1.6875 -0.421875 3.578125q0 1.9375 0.4375 3.640625q0.4375 1.703125 1.484375 3.578125l-1.515625 1.171875zm2.0878296 -1.171875q0.96875 -1.671875 1.453125 -3.359375q0.484375 -1.6875 0.484375 -3.859375q0 -2.09375 -0.46875 -3.765625q-0.453125 -1.671875 -1.46875 -3.5l1.515625 -1.140625q1.375 1.515625 2.203125 3.78125q0.84375 2.25 0.84375 4.625q0 2.34375 -0.84375 4.609375q-0.828125 2.265625 -2.203125 3.78125l-1.515625 -1.171875z" fill-rule="nonzero"></path><path fill="#ffffff" d="m766.3635 428.87787l0 -6.234375q0 -1.890625 -1.6875 -1.890625q-0.71875 0 -1.40625 0.421875q-0.671875 0.421875 -1.03125 0.984375l0 6.71875l-1.421875 0l0 -6.234375q0 -1.890625 -1.6875 -1.890625q-0.703125 0 -1.375 0.4375q-0.65625 0.421875 -1.046875 0.984375l0 6.703125l-1.421875 0l0 -9.171875l1.421875 0l0 1.328125q0.328125 -0.546875 1.21875 -1.046875q0.890625 -0.515625 1.75 -0.515625q1.0625 0 1.65625 0.5q0.609375 0.484375 0.8125 1.21875q0.484375 -0.75 1.34375 -1.234375q0.875 -0.484375 1.734375 -0.484375q2.5625 0 2.5625 2.78125l0 6.625l-1.421875 0zm8.13678 0.234375q-2.0625 0 -3.375 -1.34375q-1.296875 -1.359375 -1.296875 -3.484375q0 -2.03125 1.296875 -3.421875q1.296875 -1.390625 3.234375 -1.390625q1.96875 0 3.1875 1.375q1.21875 1.359375 1.21875 3.546875l0 0.359375l-7.4375 0q0.078125 1.40625 1.015625 2.296875q0.9375 0.875 2.296875 0.875q1.671875 0 2.828125 -1.15625l0.6875 0.9375q-1.40625 1.40625 -3.65625 1.40625zm2.859375 -5.40625q0 -1.265625 -0.84375 -2.15625q-0.828125 -0.90625 -2.1875 -0.90625q-1.265625 0 -2.109375 0.90625q-0.84375 0.890625 -0.890625 2.15625l6.03125 0zm5.831543 5.40625q-2.046875 0 -2.046875 -2.15625l0 -6.0l-1.515625 0l0 -1.25l1.515625 0l0 -2.515625l1.4375 0l0 2.515625l1.859375 0l0 1.25l-1.859375 0l0 5.703125q0 0.515625 0.21875 0.84375q0.234375 0.328125 0.703125 0.328125q0.59375 0 0.96875 -0.375l0.421875 1.0625q-0.59375 0.59375 -1.703125 0.59375zm9.37561 -0.234375l0 -6.046875q0 -1.015625 -0.484375 -1.546875q-0.484375 -0.53125 -1.59375 -0.53125q-0.78125 0 -1.515625 0.40625q-0.71875 0.390625 -1.203125 1.015625l0 6.703125l-1.421875 0l0 -12.671875l1.421875 0l0 4.828125q0.609375 -0.703125 1.484375 -1.125q0.875 -0.4375 1.8125 -0.4375q2.921875 0 2.921875 2.921875l0 6.484375l-1.421875 0zm8.095093 0.234375q-2.0 0 -3.28125 -1.359375q-1.265625 -1.359375 -1.265625 -3.46875q0 -2.125 1.265625 -3.46875q1.28125 -1.34375 3.28125 -1.34375q1.984375 0 3.25 1.34375q1.28125 1.34375 1.28125 3.46875q0 2.109375 -1.28125 3.46875q-1.265625 1.359375 -3.25 1.359375zm0 -1.28125q1.328125 0 2.171875 -1.0q0.859375 -1.0 0.859375 -2.546875q0 -1.546875 -0.859375 -2.53125q-0.84375 -1.0 -2.171875 -1.0q-1.328125 0 -2.203125 0.984375q-0.859375 0.984375 -0.859375 2.546875q0 1.578125 0.84375 2.5625q0.859375 0.984375 2.21875 0.984375zm13.312012 1.046875l0 -1.375q-0.515625 0.703125 -1.328125 1.15625q-0.796875 0.453125 -1.765625 0.453125q-1.84375 0 -2.96875 -1.3125q-1.125 -1.3125 -1.125 -3.5q0 -2.203125 1.125 -3.515625q1.140625 -1.3125 2.96875 -1.3125q0.921875 0 1.734375 0.4375q0.8125 0.421875 1.359375 1.171875l0 -4.875l1.421875 0l0 12.671875l-1.421875 0zm-2.765625 -1.046875q0.859375 0 1.609375 -0.40625q0.765625 -0.421875 1.15625 -1.03125l0 -4.171875q-0.390625 -0.609375 -1.15625 -1.03125q-0.75 -0.4375 -1.609375 -0.4375q-1.328125 0 -2.140625 0.96875q-0.796875 0.96875 -0.796875 2.578125q0 1.578125 0.796875 2.5625q0.796875 0.96875 2.140625 0.96875zm7.602356 -6.171875q-0.4375 0 -0.75 -0.296875q-0.296875 -0.3125 -0.296875 -0.75q0 -0.4375 0.296875 -0.734375q0.3125 -0.3125 0.75 -0.3125q0.4375 0 0.734375 0.3125q0.3125 0.296875 0.3125 0.734375q0 0.4375 -0.3125 0.75q-0.296875 0.296875 -0.734375 0.296875zm0 7.40625q-0.4375 0 -0.75 -0.296875q-0.296875 -0.3125 -0.296875 -0.75q0 -0.4375 0.296875 -0.734375q0.3125 -0.3125 0.75 -0.3125q0.4375 0 0.734375 0.3125q0.3125 0.296875 0.3125 0.734375q0 0.4375 -0.3125 0.75q-0.296875 0.296875 -0.734375 0.296875z" fill-rule="nonzero"></path><path fill="#ffffff" d="m662.0486 307.75854l294.14172 0l0 72.0l-294.14172 0z" fill-rule="evenodd"></path><path fill="#000000" d="m733.7685 354.2879q-0.984375 0 -1.6875 -0.734375q-0.6875 -0.734375 -0.6875 -1.8125l0 -3.90625q0 -0.53125 -0.25 -0.921875q-0.234375 -0.390625 -0.734375 -0.390625l0 -0.953125q0.5 0 0.734375 -0.390625q0.25 -0.390625 0.25 -0.921875l0 -3.890625q0 -1.109375 0.6875 -1.828125q0.703125 -0.734375 1.6875 -0.734375l1.15625 0l0 1.03125l-1.15625 0q-0.515625 0 -0.890625 0.4375q-0.359375 0.421875 -0.359375 1.09375l0 4.0q0 1.296875 -0.875 1.671875q0.875 0.390625 0.875 1.671875l0 4.015625q0 0.65625 0.359375 1.078125q0.375 0.4375 0.890625 0.4375l1.15625 0l0 1.046875l-1.15625 0zm13.835815 -3.609375l0 -6.0q0 -1.21875 -0.5625 -1.671875q-0.5625 -0.453125 -1.5 -0.453125q-0.796875 0 -1.5625 0.421875q-0.765625 0.421875 -1.15625 1.0l0 6.703125l-1.421875 0l0 -9.171875l1.421875 0l0 1.328125q0.59375 -0.6875 1.453125 -1.125q0.875 -0.4375 1.828125 -0.4375q2.921875 0 2.921875 2.96875l0 6.4375l-1.421875 0zm9.810852 0l0 -1.046875q-1.15625 1.28125 -3.03125 1.28125q-1.390625 0 -2.3125 -0.875q-0.90625 -0.875 -0.90625 -2.171875q0 -1.328125 0.90625 -2.171875q0.90625 -0.84375 2.3125 -0.84375q1.96875 0 3.03125 1.25l0 -1.65625q0 -0.921875 -0.65625 -1.421875q-0.640625 -0.515625 -1.65625 -0.515625q-1.609375 0 -2.8125 1.28125l-0.65625 -1.0q1.453125 -1.515625 3.65625 -1.515625q1.6875 0 2.625 0.828125q0.9375 0.8125 0.9375 2.265625l0 6.3125l-1.4375 0zm-2.515625 -0.796875q1.6875 0 2.515625 -1.140625l0 -1.734375q-0.828125 -1.140625 -2.515625 -1.140625q-1.015625 0 -1.640625 0.5625q-0.625 0.5625 -0.625 1.453125q0 0.875 0.625 1.4375q0.625 0.5625 1.640625 0.5625zm17.691223 0.796875l0 -6.234375q0 -1.890625 -1.6875 -1.890625q-0.71875 0 -1.40625 0.421875q-0.671875 0.421875 -1.03125 0.984375l0 6.71875l-1.421875 0l0 -6.234375q0 -1.890625 -1.6875 -1.890625q-0.703125 0 -1.375 0.4375q-0.65625 0.421875 -1.046875 0.984375l0 6.703125l-1.421875 0l0 -9.171875l1.421875 0l0 1.328125q0.328125 -0.546875 1.21875 -1.046875q0.890625 -0.515625 1.75 -0.515625q1.0625 0 1.65625 0.5q0.609375 0.484375 0.8125 1.21875q0.484375 -0.75 1.34375 -1.234375q0.875 -0.484375 1.734375 -0.484375q2.5625 0 2.5625 2.78125l0 6.625l-1.421875 0zm8.13678 0.234375q-2.0625 0 -3.375 -1.34375q-1.296875 -1.359375 -1.296875 -3.484375q0 -2.03125 1.296875 -3.421875q1.296875 -1.390625 3.234375 -1.390625q1.96875 0 3.1875 1.375q1.21875 1.359375 1.21875 3.546875l0 0.359375l-7.4375 0q0.078125 1.40625 1.015625 2.296875q0.9375 0.875 2.296875 0.875q1.671875 0 2.828125 -1.15625l0.6875 0.9375q-1.40625 1.40625 -3.65625 1.40625zm2.859375 -5.40625q0 -1.265625 -0.84375 -2.15625q-0.828125 -0.90625 -2.1875 -0.90625q-1.265625 0 -2.109375 0.90625q-0.84375 0.890625 -0.890625 2.15625l6.03125 0zm4.269104 -2.046875q-0.4375 0 -0.75 -0.296875q-0.296875 -0.3125 -0.296875 -0.75q0 -0.4375 0.296875 -0.734375q0.3125 -0.3125 0.75 -0.3125q0.4375 0 0.734375 0.3125q0.3125 0.296875 0.3125 0.734375q0 0.4375 -0.3125 0.75q-0.296875 0.296875 -0.734375 0.296875zm0 7.40625q-0.4375 0 -0.75 -0.296875q-0.296875 -0.3125 -0.296875 -0.75q0 -0.4375 0.296875 -0.734375q0.3125 -0.3125 0.75 -0.3125q0.4375 0 0.734375 0.3125q0.3125 0.296875 0.3125 0.734375q0 0.4375 -0.3125 0.75q-0.296875 0.296875 -0.734375 0.296875zm8.447998 -8.015625q-0.5 -3.640625 -0.5 -4.15625q0 -0.359375 0.234375 -0.609375q0.25 -0.265625 0.609375 -0.265625q0.390625 0 0.625 0.265625q0.25 0.25 0.25 0.609375l-0.515625 4.15625l-0.703125 0zm14.681335 7.828125l0 -6.234375q0 -1.890625 -1.6875 -1.890625q-0.71875 0 -1.40625 0.421875q-0.671875 0.421875 -1.03125 0.984375l0 6.71875l-1.421875 0l0 -6.234375q0 -1.890625 -1.6875 -1.890625q-0.703125 0 -1.375 0.4375q-0.65625 0.421875 -1.046875 0.984375l0 6.703125l-1.421875 0l0 -9.171875l1.421875 0l0 1.328125q0.328125 -0.546875 1.21875 -1.046875q0.890625 -0.515625 1.75 -0.515625q1.0625 0 1.65625 0.5q0.609375 0.484375 0.8125 1.21875q0.484375 -0.75 1.34375 -1.234375q0.875 -0.484375 1.734375 -0.484375q2.5625 0 2.5625 2.78125l0 6.625l-1.421875 0zm3.7149048 2.296875q0.296875 0.15625 0.78125 0.15625q0.46875 0 0.796875 -0.203125q0.328125 -0.203125 0.5625 -0.765625l0.609375 -1.390625l-3.828125 -9.265625l1.53125 0l3.0625 7.515625l3.03125 -7.515625l1.5625 0l-4.59375 11.03125q-0.765625 1.828125 -2.703125 1.859375q-0.546875 0 -1.046875 -0.125l0.234375 -1.296875zm9.485291 -2.296875l0 -12.671875l5.09375 0q1.796875 0 2.875 1.09375q1.09375 1.078125 1.09375 2.71875q0 1.671875 -1.109375 2.75q-1.09375 1.078125 -2.859375 1.078125l-3.515625 0l0 5.03125l-1.578125 0zm4.90625 -6.4375q1.140625 0 1.828125 -0.65625q0.6875 -0.671875 0.6875 -1.765625q0 -1.078125 -0.6875 -1.734375q-0.6875 -0.671875 -1.828125 -0.671875l-3.328125 0l0 4.828125l3.328125 0zm11.716858 6.4375l0 -1.046875q-1.15625 1.28125 -3.03125 1.28125q-1.390625 0 -2.3125 -0.875q-0.90625 -0.875 -0.90625 -2.171875q0 -1.328125 0.90625 -2.171875q0.90625 -0.84375 2.3125 -0.84375q1.96875 0 3.03125 1.25l0 -1.65625q0 -0.921875 -0.65625 -1.421875q-0.640625 -0.515625 -1.65625 -0.515625q-1.609375 0 -2.8125 1.28125l-0.65625 -1.0q1.453125 -1.515625 3.65625 -1.515625q1.6875 0 2.625 0.828125q0.9375 0.8125 0.9375 2.265625l0 6.3125l-1.4375 0zm-2.515625 -0.796875q1.6875 0 2.515625 -1.140625l0 -1.734375q-0.828125 -1.140625 -2.515625 -1.140625q-1.015625 0 -1.640625 0.5625q-0.625 0.5625 -0.625 1.453125q0 0.875 0.625 1.4375q0.625 0.5625 1.640625 0.5625zm6.613098 0.796875l0 -9.171875l1.421875 0l0 1.484375q1.28125 -1.671875 3.0625 -1.671875l0 1.453125l-0.5625 -0.0625q-0.65625 0 -1.4375 0.46875q-0.765625 0.46875 -1.0625 1.0l0 6.5l-1.421875 0zm11.89093 0l0 -1.046875q-1.15625 1.28125 -3.03125 1.28125q-1.390625 0 -2.3125 -0.875q-0.90625 -0.875 -0.90625 -2.171875q0 -1.328125 0.90625 -2.171875q0.90625 -0.84375 2.3125 -0.84375q1.96875 0 3.03125 1.25l0 -1.65625q0 -0.921875 -0.65625 -1.421875q-0.640625 -0.515625 -1.65625 -0.515625q-1.609375 0 -2.8125 1.28125l-0.65625 -1.0q1.453125 -1.515625 3.65625 -1.515625q1.6875 0 2.625 0.828125q0.9375 0.8125 0.9375 2.265625l0 6.3125l-1.4375 0zm-2.515625 -0.796875q1.6875 0 2.515625 -1.140625l0 -1.734375q-0.828125 -1.140625 -2.515625 -1.140625q-1.015625 0 -1.640625 0.5625q-0.625 0.5625 -0.625 1.453125q0 0.875 0.625 1.4375q0.625 0.5625 1.640625 0.5625zm17.691223 0.796875l0 -6.234375q0 -1.890625 -1.6875 -1.890625q-0.71875 0 -1.40625 0.421875q-0.671875 0.421875 -1.03125 0.984375l0 6.71875l-1.421875 0l0 -6.234375q0 -1.890625 -1.6875 -1.890625q-0.703125 0 -1.375 0.4375q-0.65625 0.421875 -1.046875 0.984375l0 6.703125l-1.421875 0l0 -9.171875l1.421875 0l0 1.328125q0.328125 -0.546875 1.21875 -1.046875q0.890625 -0.515625 1.75 -0.515625q1.0625 0 1.65625 0.5q0.609375 0.484375 0.8125 1.21875q0.484375 -0.75 1.34375 -1.234375q0.875 -0.484375 1.734375 -0.484375q2.5625 0 2.5625 2.78125l0 6.625l-1.421875 0zm4.10553 -7.828125q-0.5 -3.640625 -0.5 -4.15625q0 -0.359375 0.234375 -0.609375q0.25 -0.265625 0.609375 -0.265625q0.390625 0 0.625 0.265625q0.25 0.25 0.25 0.609375l-0.515625 4.15625l-0.703125 0zm7.322754 10.390625l1.15625 0q0.515625 0 0.875 -0.4375q0.375 -0.421875 0.375 -1.078125l0 -4.015625q0 -1.28125 0.875 -1.671875q-0.875 -0.375 -0.875 -1.671875l0 -4.0q0 -0.671875 -0.375 -1.09375q-0.359375 -0.4375 -0.875 -0.4375l-1.15625 0l0 -1.03125l1.15625 0q0.984375 0 1.671875 0.734375q0.703125 0.71875 0.703125 1.828125l0 3.890625q0 0.53125 0.234375 0.921875q0.25 0.390625 0.75 0.390625l0 0.953125q-0.5 0 -0.75 0.390625q-0.234375 0.390625 -0.234375 0.921875l0 3.90625q0 1.109375 -0.703125 1.828125q-0.703125 0.71875 -1.671875 0.71875l-1.15625 0l0 -1.046875z" fill-rule="nonzero"></path><path fill="#000000" fill-opacity="0.0" d="m662.03546 271.75854l294.14172 0l0 36.0l-294.14172 0z" fill-rule="evenodd"></path><path fill="#ffffff" d="m677.47296 296.9129q-1.765625 0 -2.828125 -1.40625l0 4.671875l-2.40625 0l0 -12.671875l2.40625 0l0 1.15625q1.109375 -1.390625 2.828125 -1.390625q1.828125 0 2.9375 1.28125q1.125 1.28125 1.125 3.53125q0 2.203125 -1.109375 3.515625q-1.109375 1.3125 -2.953125 1.3125zm-0.75 -2.15625q1.03125 0 1.671875 -0.734375q0.640625 -0.75 0.640625 -1.9375q0 -1.203125 -0.640625 -1.9375q-0.640625 -0.734375 -1.671875 -0.734375q-0.59375 0 -1.1875 0.3125q-0.59375 0.296875 -0.890625 0.734375l0 3.25q0.296875 0.4375 0.890625 0.75q0.59375 0.296875 1.1875 0.296875zm11.892212 1.921875l0 -0.953125q-1.0 1.1875 -2.90625 1.1875q-1.328125 0 -2.265625 -0.84375q-0.921875 -0.859375 -0.921875 -2.203125q0 -1.34375 0.875 -2.15625q0.890625 -0.8125 2.3125 -0.8125q1.984375 0 2.90625 1.125l0 -1.234375q0 -0.703125 -0.546875 -1.109375q-0.546875 -0.421875 -1.46875 -0.421875q-1.515625 0 -2.671875 1.078125l-0.90625 -1.625q1.671875 -1.4375 4.0 -1.4375q1.9375 0 2.96875 0.90625q1.046875 0.90625 1.046875 2.578125l0 5.921875l-2.421875 0zm-1.9375 -1.40625q1.328125 0 1.9375 -0.796875l0 -1.140625q-0.609375 -0.796875 -1.9375 -0.796875q-0.71875 0 -1.21875 0.359375q-0.5 0.359375 -0.5 1.03125q0 0.640625 0.5 1.0q0.5 0.34375 1.21875 0.34375zm6.56781 1.40625l0 -9.171875l2.40625 0l0 1.25q0.5 -0.609375 1.28125 -1.046875q0.796875 -0.4375 1.640625 -0.4375l0 2.359375l-0.65625 -0.0625q-0.65625 0 -1.3125 0.3125q-0.65625 0.296875 -0.953125 0.734375l0 6.0625l-2.40625 0zm12.216248 0l0 -0.953125q-1.0 1.1875 -2.90625 1.1875q-1.328125 0 -2.265625 -0.84375q-0.921875 -0.859375 -0.921875 -2.203125q0 -1.34375 0.875 -2.15625q0.890625 -0.8125 2.3125 -0.8125q1.984375 0 2.90625 1.125l0 -1.234375q0 -0.703125 -0.546875 -1.109375q-0.546875 -0.421875 -1.46875 -0.421875q-1.515625 0 -2.671875 1.078125l-0.90625 -1.625q1.671875 -1.4375 4.0 -1.4375q1.9375 0 2.96875 0.90625q1.046875 0.90625 1.046875 2.578125l0 5.921875l-2.421875 0zm-1.9375 -1.40625q1.328125 0 1.9375 -0.796875l0 -1.140625q-0.609375 -0.796875 -1.9375 -0.796875q-0.71875 0 -1.21875 0.359375q-0.5 0.359375 -0.5 1.03125q0 0.640625 0.5 1.0q0.5 0.34375 1.21875 0.34375zm17.942871 1.40625l0 -5.796875q0 -1.46875 -1.375 -1.46875q-0.640625 0 -1.140625 0.34375q-0.484375 0.34375 -0.75 0.734375l0 6.1875l-2.4375 0l0 -5.796875q0 -1.46875 -1.359375 -1.46875q-0.625 0 -1.140625 0.359375q-0.5 0.34375 -0.765625 0.734375l0 6.171875l-2.40625 0l0 -9.171875l2.40625 0l0 1.1875q0.328125 -0.515625 1.203125 -0.96875q0.890625 -0.453125 1.796875 -0.453125q2.0 0 2.546875 1.671875q0.4375 -0.703125 1.3125 -1.1875q0.875 -0.484375 1.84375 -0.484375q2.703125 0 2.703125 2.78125l0 6.625l-2.4375 0zm8.832642 0.234375q-2.171875 0 -3.546875 -1.34375q-1.359375 -1.34375 -1.359375 -3.484375q0 -2.0625 1.359375 -3.4375q1.359375 -1.375 3.390625 -1.375q2.03125 0 3.3125 1.40625q1.28125 1.390625 1.28125 3.65625l0 0.53125l-6.8125 0q0.109375 0.875 0.78125 1.5q0.671875 0.625 1.859375 0.625q0.5625 0 1.265625 -0.234375q0.703125 -0.25 1.1875 -0.6875l1.0625 1.5625q-0.6875 0.625 -1.703125 0.953125q-1.0 0.328125 -2.078125 0.328125zm2.109375 -5.6875q-0.0625 -0.90625 -0.6875 -1.46875q-0.625 -0.5625 -1.578125 -0.5625q-0.953125 0 -1.5625 0.578125q-0.609375 0.578125 -0.703125 1.453125l4.53125 0zm6.9731445 5.6875q-2.609375 0 -2.609375 -2.515625l0 -4.78125l-1.515625 0l0 -2.109375l1.515625 0l0 -2.515625l2.4375 0l0 2.515625l1.859375 0l0 2.109375l-1.859375 0l0 4.140625q0 0.4375 0.21875 0.71875q0.21875 0.28125 0.609375 0.28125q0.578125 0 0.84375 -0.265625l0.5 1.828125q-0.625 0.59375 -2.0 0.59375zm7.540161 0q-2.171875 0 -3.546875 -1.34375q-1.359375 -1.34375 -1.359375 -3.484375q0 -2.0625 1.359375 -3.4375q1.359375 -1.375 3.390625 -1.375q2.03125 0 3.3125 1.40625q1.28125 1.390625 1.28125 3.65625l0 0.53125l-6.8125 0q0.109375 0.875 0.78125 1.5q0.671875 0.625 1.859375 0.625q0.5625 0 1.265625 -0.234375q0.703125 -0.25 1.1875 -0.6875l1.0625 1.5625q-0.6875 0.625 -1.703125 0.953125q-1.0 0.328125 -2.078125 0.328125zm2.109375 -5.6875q-0.0625 -0.90625 -0.6875 -1.46875q-0.625 -0.5625 -1.578125 -0.5625q-0.953125 0 -1.5625 0.578125q-0.609375 0.578125 -0.703125 1.453125l4.53125 0zm3.8950806 5.453125l0 -9.171875l2.40625 0l0 1.25q0.5 -0.609375 1.28125 -1.046875q0.796875 -0.4375 1.640625 -0.4375l0 2.359375l-0.65625 -0.0625q-0.65625 0 -1.3125 0.3125q-0.65625 0.296875 -0.953125 0.734375l0 6.0625l-2.40625 0zm6.7631226 0l0 -12.671875l5.0 0q3.0 0 4.859375 1.75q1.875 1.75 1.875 4.59375q0 2.828125 -1.875 4.578125q-1.859375 1.75 -4.859375 1.75l-5.0 0zm5.0 -2.375q1.765625 0 2.859375 -1.109375q1.109375 -1.109375 1.109375 -2.84375q0 -1.796875 -1.0625 -2.875q-1.046875 -1.09375 -2.90625 -1.09375l-2.296875 0l0 7.921875l2.296875 0zm12.660767 2.609375q-2.171875 0 -3.546875 -1.34375q-1.359375 -1.34375 -1.359375 -3.484375q0 -2.0625 1.359375 -3.4375q1.359375 -1.375 3.390625 -1.375q2.03125 0 3.3125 1.40625q1.28125 1.390625 1.28125 3.65625l0 0.53125l-6.8125 0q0.109375 0.875 0.78125 1.5q0.671875 0.625 1.859375 0.625q0.5625 0 1.265625 -0.234375q0.703125 -0.25 1.1875 -0.6875l1.0625 1.5625q-0.6875 0.625 -1.703125 0.953125q-1.0 0.328125 -2.078125 0.328125zm2.109375 -5.6875q-0.0625 -0.90625 -0.6875 -1.46875q-0.625 -0.5625 -1.578125 -0.5625q-0.953125 0 -1.5625 0.578125q-0.609375 0.578125 -0.703125 1.453125l4.53125 0zm7.1919556 5.6875q-1.1875 0 -2.28125 -0.375q-1.09375 -0.390625 -1.8125 -1.0625l1.03125 -1.6875q0.5625 0.515625 1.46875 0.890625q0.90625 0.359375 1.703125 0.359375q1.546875 0 1.546875 -0.984375q0 -0.375 -0.40625 -0.5625q-0.40625 -0.1875 -1.0 -0.328125l-1.3125 -0.265625q-2.734375 -0.59375 -2.734375 -2.734375q0 -1.28125 1.046875 -2.078125q1.0625 -0.8125 2.71875 -0.8125q2.140625 0 3.703125 1.25l-0.96875 1.65625q-0.421875 -0.4375 -1.140625 -0.75q-0.71875 -0.3125 -1.578125 -0.3125q-0.671875 0 -1.0625 0.265625q-0.375 0.265625 -0.375 0.640625q0 0.34375 0.390625 0.515625q0.40625 0.171875 1.0 0.296875q0.609375 0.125 1.3125 0.296875q0.703125 0.15625 1.3125 0.484375q0.609375 0.3125 1.0 0.875q0.40625 0.546875 0.40625 1.46875q0 1.328125 -1.078125 2.140625q-1.078125 0.8125 -2.890625 0.8125zm9.867737 0q-2.15625 0 -3.515625 -1.375q-1.34375 -1.375 -1.34375 -3.453125q0 -2.078125 1.34375 -3.4375q1.359375 -1.375 3.515625 -1.375q1.40625 0 2.28125 0.515625q0.890625 0.515625 1.34375 1.140625l-1.5625 1.484375q-0.671875 -1.0 -1.9375 -1.0q-1.109375 0 -1.8125 0.734375q-0.6875 0.734375 -0.6875 1.9375q0 1.1875 0.6875 1.9375q0.703125 0.734375 1.8125 0.734375q1.234375 0 1.9375 -0.984375l1.5625 1.46875q-0.453125 0.640625 -1.34375 1.15625q-0.875 0.515625 -2.28125 0.515625zm5.0438843 -0.234375l0 -9.171875l2.40625 0l0 1.25q0.5 -0.609375 1.28125 -1.046875q0.796875 -0.4375 1.640625 -0.4375l0 2.359375l-0.65625 -0.0625q-0.65625 0 -1.3125 0.3125q-0.65625 0.296875 -0.953125 0.734375l0 6.0625l-2.40625 0zm7.9037476 -10.171875q-0.578125 0 -1.015625 -0.40625q-0.421875 -0.421875 -0.421875 -1.03125q0 -0.609375 0.421875 -1.015625q0.4375 -0.40625 1.015625 -0.40625q0.609375 0 1.03125 0.40625q0.421875 0.40625 0.421875 1.015625q0 0.609375 -0.421875 1.03125q-0.421875 0.40625 -1.03125 0.40625zm-1.1875 10.171875l0 -9.171875l2.40625 0l0 9.171875l-2.40625 0zm9.954407 0.234375q-1.765625 0 -2.828125 -1.40625l0 4.671875l-2.40625 0l0 -12.671875l2.40625 0l0 1.15625q1.109375 -1.390625 2.828125 -1.390625q1.828125 0 2.9375 1.28125q1.125 1.28125 1.125 3.53125q0 2.203125 -1.109375 3.515625q-1.109375 1.3125 -2.953125 1.3125zm-0.75 -2.15625q1.03125 0 1.671875 -0.734375q0.640625 -0.75 0.640625 -1.9375q0 -1.203125 -0.640625 -1.9375q-0.640625 -0.734375 -1.671875 -0.734375q-0.59375 0 -1.1875 0.3125q-0.59375 0.296875 -0.890625 0.734375l0 3.25q0.296875 0.4375 0.890625 0.75q0.59375 0.296875 1.1875 0.296875zm9.470337 2.15625q-2.609375 0 -2.609375 -2.515625l0 -4.78125l-1.515625 0l0 -2.109375l1.515625 0l0 -2.515625l2.4375 0l0 2.515625l1.859375 0l0 2.109375l-1.859375 0l0 4.140625q0 0.4375 0.21875 0.71875q0.21875 0.28125 0.609375 0.28125q0.578125 0 0.84375 -0.265625l0.5 1.828125q-0.625 0.59375 -2.0 0.59375zm7.477661 0q-2.125 0 -3.484375 -1.375q-1.359375 -1.375 -1.359375 -3.453125q0 -2.09375 1.359375 -3.453125q1.359375 -1.359375 3.484375 -1.359375q2.125 0 3.484375 1.359375q1.375 1.359375 1.375 3.453125q0 2.109375 -1.375 3.46875q-1.359375 1.359375 -3.484375 1.359375zm0 -2.15625q1.046875 0 1.703125 -0.75q0.65625 -0.75 0.65625 -1.921875q0 -1.140625 -0.65625 -1.90625q-0.65625 -0.765625 -1.703125 -0.765625q-1.0 0 -1.671875 0.734375q-0.671875 0.734375 -0.671875 1.9375q0 1.21875 0.671875 1.953125q0.671875 0.71875 1.671875 0.71875zm6.45874 1.921875l0 -9.171875l2.40625 0l0 1.25q0.5 -0.609375 1.28125 -1.046875q0.796875 -0.4375 1.640625 -0.4375l0 2.359375l-0.65625 -0.0625q-0.65625 0 -1.3125 0.3125q-0.65625 0.296875 -0.953125 0.734375l0 6.0625l-2.40625 0zm10.013123 0.234375q-1.1875 0 -2.28125 -0.375q-1.09375 -0.390625 -1.8125 -1.0625l1.03125 -1.6875q0.5625 0.515625 1.46875 0.890625q0.90625 0.359375 1.703125 0.359375q1.546875 0 1.546875 -0.984375q0 -0.375 -0.40625 -0.5625q-0.40625 -0.1875 -1.0 -0.328125l-1.3125 -0.265625q-2.734375 -0.59375 -2.734375 -2.734375q0 -1.28125 1.046875 -2.078125q1.0625 -0.8125 2.71875 -0.8125q2.140625 0 3.703125 1.25l-0.96875 1.65625q-0.421875 -0.4375 -1.140625 -0.75q-0.71875 -0.3125 -1.578125 -0.3125q-0.671875 0 -1.0625 0.265625q-0.375 0.265625 -0.375 0.640625q0 0.34375 0.390625 0.515625q0.40625 0.171875 1.0 0.296875q0.609375 0.125 1.3125 0.296875q0.703125 0.15625 1.3125 0.484375q0.609375 0.3125 1.0 0.875q0.40625 0.546875 0.40625 1.46875q0 1.328125 -1.078125 2.140625q-1.078125 0.8125 -2.890625 0.8125zm8.180237 3.546875q-1.40625 -1.59375 -2.203125 -3.859375q-0.796875 -2.265625 -0.796875 -4.53125q0 -2.3125 0.796875 -4.5625q0.796875 -2.25 2.203125 -3.84375l1.515625 1.140625q-1.078125 2.0 -1.5 3.6875q-0.421875 1.6875 -0.421875 3.578125q0 1.9375 0.4375 3.640625q0.4375 1.703125 1.484375 3.578125l-1.515625 1.171875zm2.0878296 -1.171875q0.96875 -1.671875 1.453125 -3.359375q0.484375 -1.6875 0.484375 -3.859375q0 -2.09375 -0.46875 -3.765625q-0.453125 -1.671875 -1.46875 -3.5l1.515625 -1.140625q1.375 1.515625 2.203125 3.78125q0.84375 2.25 0.84375 4.625q0 2.34375 -0.84375 4.609375q-0.828125 2.265625 -2.203125 3.78125l-1.515625 -1.171875z" fill-rule="nonzero"></path><path fill="#ffffff" d="m876.30774 300.39728q-1.171875 0 -2.03125 -0.28125q-0.859375 -0.28125 -1.671875 -1.078125l0.71875 -1.0625q0.578125 0.671875 1.28125 0.953125q0.71875 0.296875 1.703125 0.296875q1.40625 0 2.171875 -0.734375q0.78125 -0.734375 0.78125 -2.015625l0 -1.3125q-0.5 0.703125 -1.3125 1.171875q-0.796875 0.453125 -1.765625 0.453125q-1.875 0 -2.984375 -1.3125q-1.109375 -1.3125 -1.109375 -3.4375q0 -2.203125 1.125 -3.484375q1.140625 -1.28125 2.96875 -1.28125q1.890625 0 3.078125 1.609375l0 -1.375l1.421875 0l0 8.90625q0 1.9375 -1.140625 2.953125q-1.140625 1.03125 -3.234375 1.03125zm0.203125 -4.859375q0.78125 0 1.546875 -0.40625q0.78125 -0.421875 1.203125 -1.09375l0 -4.015625q-0.421875 -0.65625 -1.203125 -1.0625q-0.78125 -0.40625 -1.546875 -0.40625q-1.34375 0 -2.140625 0.96875q-0.796875 0.96875 -0.796875 2.515625q0 1.578125 0.8125 2.546875q0.828125 0.953125 2.125 0.953125zm10.958679 1.375q-2.0625 0 -3.375 -1.34375q-1.296875 -1.359375 -1.296875 -3.484375q0 -2.03125 1.296875 -3.421875q1.296875 -1.390625 3.234375 -1.390625q1.96875 0 3.1875 1.375q1.21875 1.359375 1.21875 3.546875l0 0.359375l-7.4375 0q0.078125 1.40625 1.015625 2.296875q0.9375 0.875 2.296875 0.875q1.671875 0 2.828125 -1.15625l0.6875 0.9375q-1.40625 1.40625 -3.65625 1.40625zm2.859375 -5.40625q0 -1.265625 -0.84375 -2.15625q-0.828125 -0.90625 -2.1875 -0.90625q-1.265625 0 -2.109375 0.90625q-0.84375 0.890625 -0.890625 2.15625l6.03125 0zm5.831604 5.40625q-2.046875 0 -2.046875 -2.15625l0 -6.0l-1.515625 0l0 -1.25l1.515625 0l0 -2.515625l1.4375 0l0 2.515625l1.859375 0l0 1.25l-1.859375 0l0 5.703125q0 0.515625 0.21875 0.84375q0.234375 0.328125 0.703125 0.328125q0.59375 0 0.96875 -0.375l0.421875 1.0625q-0.59375 0.59375 -1.703125 0.59375zm5.4849243 0q-2.046875 0 -2.046875 -2.15625l0 -6.0l-1.515625 0l0 -1.25l1.515625 0l0 -2.515625l1.4375 0l0 2.515625l1.859375 0l0 1.25l-1.859375 0l0 5.703125q0 0.515625 0.21875 0.84375q0.234375 0.328125 0.703125 0.328125q0.59375 0 0.96875 -0.375l0.421875 1.0625q-0.59375 0.59375 -1.703125 0.59375zm7.2974854 0q-2.0625 0 -3.375 -1.34375q-1.296875 -1.359375 -1.296875 -3.484375q0 -2.03125 1.296875 -3.421875q1.296875 -1.390625 3.234375 -1.390625q1.96875 0 3.1875 1.375q1.21875 1.359375 1.21875 3.546875l0 0.359375l-7.4375 0q0.078125 1.40625 1.015625 2.296875q0.9375 0.875 2.296875 0.875q1.671875 0 2.828125 -1.15625l0.6875 0.9375q-1.40625 1.40625 -3.65625 1.40625zm2.859375 -5.40625q0 -1.265625 -0.84375 -2.15625q-0.828125 -0.90625 -2.1875 -0.90625q-1.265625 0 -2.109375 0.90625q-0.84375 0.890625 -0.890625 2.15625l6.03125 0zm3.503418 5.171875l0 -9.171875l1.421875 0l0 1.484375q1.28125 -1.671875 3.062561 -1.671875l0 1.453125l-0.5625 -0.0625q-0.65625 0 -1.437561 0.46875q-0.765625 0.46875 -1.0625 1.0l0 6.5l-1.421875 0zm6.922241 -7.21875q-0.4375 0 -0.75 -0.296875q-0.296875 -0.3125 -0.296875 -0.75q0 -0.4375 0.296875 -0.734375q0.3125 -0.3125 0.75 -0.3125q0.4375 0 0.734375 0.3125q0.3125 0.296875 0.3125 0.734375q0 0.4375 -0.3125 0.75q-0.296875 0.296875 -0.734375 0.296875zm0 7.40625q-0.4375 0 -0.75 -0.296875q-0.296875 -0.3125 -0.296875 -0.75q0 -0.4375 0.296875 -0.734375q0.3125 -0.3125 0.75 -0.3125q0.4375 0 0.734375 0.3125q0.3125 0.296875 0.3125 0.734375q0 0.4375 -0.3125 0.75q-0.296875 0.296875 -0.734375 0.296875z" fill-rule="nonzero"></path><path fill="#000000" fill-opacity="0.0" d="m662.0486 343.75854c-42.65442 0 -63.982056 0.01574707 -85.30884 0.03149414c-21.326782 0.01574707 -42.65265 0.03149414 -85.30536 0.03149414" fill-rule="evenodd"></path><path stroke="#000000" stroke-width="3.0" stroke-linejoin="round" stroke-linecap="butt" d="m662.0486 343.75854c-42.65442 0 -63.982056 0.01574707 -85.30884 0.03149414c-10.663391 0.007873535 -21.326538 0.01574707 -34.655457 0.021636963c-6.6644897 0.002960205 -13.995361 0.005432129 -22.325928 0.0071411133l-10.323975 9.765625E-4" fill-rule="evenodd"></path><path fill="#000000" stroke="#000000" stroke-width="3.0" stroke-linecap="butt" d="m509.4339 338.8646l-13.6138 4.9565125l13.614746 4.953888z" fill-rule="evenodd"></path><path fill="#000000" fill-opacity="0.0" d="m489.19946 477.38583c43.212585 0 64.81891 0.01574707 86.42523 0.03149414c21.606262 0.01574707 43.212585 0.03149414 86.42517 0.03149414" fill-rule="evenodd"></path><path stroke="#000000" stroke-width="3.0" stroke-linejoin="round" stroke-linecap="butt" d="m489.19946 477.38583c43.212585 0 64.81891 0.01574707 86.42523 0.03149414c10.803101 0.007873535 21.606262 0.01574707 35.11023 0.021636963c6.751953 0.002960205 14.179138 0.005432129 22.61908 0.0071411133l10.695862 0.0010375977" fill-rule="evenodd"></path><path fill="#000000" stroke="#000000" stroke-width="3.0" stroke-linecap="butt" d="m644.0494 482.4023l13.614807 -4.9539185l-13.613831 -4.956482z" fill-rule="evenodd"></path><path fill="#000000" fill-opacity="0.0" d="m517.11694 313.37073l119.24414 0l0 29.259857l-119.24414 0z" fill-rule="evenodd"></path><path fill="#000000" d="m559.07153 334.92065l0 -1.375q-0.515625 0.703125 -1.328125 1.15625q-0.796875 0.453125 -1.765625 0.453125q-1.84375 0 -2.96875 -1.3125q-1.125 -1.3125 -1.125 -3.5q0 -2.203125 1.125 -3.515625q1.140625 -1.3125 2.96875 -1.3125q0.921875 0 1.734375 0.4375q0.8125 0.421875 1.359375 1.171875l0 -4.875l1.421875 0l0 12.671875l-1.421875 0zm-2.765625 -1.046875q0.859375 0 1.609375 -0.40625q0.765625 -0.421875 1.15625 -1.03125l0 -4.171875q-0.390625 -0.609375 -1.15625 -1.03125q-0.75 -0.4375 -1.609375 -0.4375q-1.328125 0 -2.140625 0.96875q-0.796875 0.96875 -0.796875 2.578125q0 1.578125 0.796875 2.5625q0.796875 0.96875 2.140625 0.96875zm10.977295 1.28125q-2.0625 0 -3.375 -1.34375q-1.296875 -1.359375 -1.296875 -3.484375q0 -2.03125 1.296875 -3.421875q1.296875 -1.390625 3.234375 -1.390625q1.96875 0 3.1875 1.375q1.21875 1.359375 1.21875 3.546875l0 0.359375l-7.4375 0q0.078125 1.40625 1.015625 2.296875q0.9375 0.875 2.296875 0.875q1.671875 0 2.828125 -1.15625l0.6875 0.9375q-1.40625 1.40625 -3.65625 1.40625zm2.859375 -5.40625q0 -1.265625 -0.84375 -2.15625q-0.828125 -0.90625 -2.1875 -0.90625q-1.265625 0 -2.109375 0.90625q-0.84375 0.890625 -0.890625 2.15625l6.03125 0zm3.909729 5.171875l0 -7.921875l-1.53125 0l0 -1.25l1.53125 0l0 -0.703125q0 -1.4375 0.703125 -2.203125q0.71875 -0.78125 1.953125 -0.78125q1.15625 0 1.9375 0.703125l-0.59375 0.921875q-0.484375 -0.453125 -1.140625 -0.453125q-1.4375 0 -1.4375 1.8125l0 0.703125l1.859375 0l0 1.25l-1.859375 0l0 7.921875l-1.421875 0zm5.576599 -10.484375q-0.375 0 -0.671875 -0.265625q-0.28125 -0.28125 -0.28125 -0.6875q0 -0.40625 0.28125 -0.6875q0.296875 -0.28125 0.671875 -0.28125q0.40625 0 0.6875 0.28125q0.28125 0.28125 0.28125 0.6875q0 0.40625 -0.28125 0.6875q-0.28125 0.265625 -0.6875 0.265625zm-0.703125 10.484375l0 -9.171875l1.421875 0l0 9.171875l-1.421875 0zm10.400818 0l0 -6.0q0 -1.21875 -0.5625 -1.671875q-0.5625 -0.453125 -1.5 -0.453125q-0.796875 0 -1.5625 0.421875q-0.765625 0.421875 -1.15625 1.0l0 6.703125l-1.421875 0l0 -9.171875l1.421875 0l0 1.328125q0.59375 -0.6875 1.453125 -1.125q0.875 -0.4375 1.828125 -0.4375q2.921875 0 2.921875 2.96875l0 6.4375l-1.421875 0zm8.217102 0.234375q-2.0625 0 -3.375 -1.34375q-1.296875 -1.359375 -1.296875 -3.484375q0 -2.03125 1.296875 -3.421875q1.296875 -1.390625 3.234375 -1.390625q1.96875 0 3.1875 1.375q1.21875 1.359375 1.21875 3.546875l0 0.359375l-7.4375 0q0.078125 1.40625 1.015625 2.296875q0.9375 0.875 2.296875 0.875q1.671875 0 2.828125 -1.15625l0.6875 0.9375q-1.40625 1.40625 -3.65625 1.40625zm2.859375 -5.40625q0 -1.265625 -0.84375 -2.15625q-0.828125 -0.90625 -2.1875 -0.90625q-1.265625 0 -2.109375 0.90625q-0.84375 0.890625 -0.890625 2.15625l6.03125 0z" fill-rule="nonzero"></path><path fill="#000000" fill-opacity="0.0" d="m516.0034 479.75656l119.24414 0l0 29.259857l-119.24414 0z" fill-rule="evenodd"></path><path fill="#000000" d="m545.13434 501.54086q-2.015625 0 -3.296875 -1.375q-1.28125 -1.375 -1.28125 -3.453125q0 -2.078125 1.28125 -3.4375q1.28125 -1.375 3.296875 -1.375q2.125 0 3.359375 1.59375l-0.9375 0.875q-0.875 -1.1875 -2.34375 -1.1875q-1.40625 0 -2.296875 0.984375q-0.875 0.96875 -0.875 2.546875q0 1.59375 0.875 2.578125q0.875 0.96875 2.296875 0.96875q1.4375 0 2.34375 -1.1875l0.9375 0.859375q-1.234375 1.609375 -3.359375 1.609375zm9.203552 0q-2.0 0 -3.28125 -1.359375q-1.265625 -1.359375 -1.265625 -3.46875q0 -2.125 1.265625 -3.46875q1.28125 -1.34375 3.28125 -1.34375q1.984375 0 3.25 1.34375q1.28125 1.34375 1.28125 3.46875q0 2.109375 -1.28125 3.46875q-1.265625 1.359375 -3.25 1.359375zm0 -1.28125q1.328125 0 2.171875 -1.0q0.859375 -1.0 0.859375 -2.546875q0 -1.546875 -0.859375 -2.53125q-0.84375 -1.0 -2.171875 -1.0q-1.328125 0 -2.203125 0.984375q-0.859375 0.984375 -0.859375 2.546875q0 1.578125 0.84375 2.5625q0.859375 0.984375 2.21875 0.984375zm17.733887 1.046875l0 -6.234375q0 -1.890625 -1.6875 -1.890625q-0.71875 0 -1.40625 0.421875q-0.671875 0.421875 -1.03125 0.984375l0 6.71875l-1.421875 0l0 -6.234375q0 -1.890625 -1.6875 -1.890625q-0.703125 0 -1.375 0.4375q-0.65625 0.421875 -1.046875 0.984375l0 6.703125l-1.421875 0l0 -9.171875l1.421875 0l0 1.328125q0.328125 -0.546875 1.21875 -1.046875q0.890625 -0.515625 1.75 -0.515625q1.0625 0 1.65625 0.5q0.609375 0.484375 0.8125 1.21875q0.484375 -0.75 1.34375 -1.234375q0.875 -0.484375 1.734375 -0.484375q2.5625 0 2.5625 2.78125l0 6.625l-1.421875 0zm8.527405 0.234375q-1.96875 0 -3.109375 -1.625l0 4.890625l-1.421875 0l0 -12.671875l1.421875 0l0 1.359375q0.5 -0.703125 1.3125 -1.140625q0.828125 -0.453125 1.796875 -0.453125q1.84375 0 2.953125 1.296875q1.125 1.28125 1.125 3.515625q0 2.203125 -1.109375 3.515625q-1.109375 1.3125 -2.96875 1.3125zm-0.359375 -1.28125q1.328125 0 2.125 -0.96875q0.8125 -0.96875 0.8125 -2.578125q0 -1.578125 -0.796875 -2.546875q-0.796875 -0.984375 -2.140625 -0.984375q-0.859375 0 -1.609375 0.421875q-0.75 0.421875 -1.140625 1.03125l0 4.140625q0.390625 0.609375 1.140625 1.046875q0.75 0.4375 1.609375 0.4375zm12.702576 1.046875l0 -1.296875q-0.53125 0.609375 -1.390625 1.078125q-0.859375 0.453125 -1.890625 0.453125q-2.921875 0 -2.921875 -2.9375l0 -6.46875l1.421875 0l0 6.03125q0 1.09375 0.5 1.59375q0.5 0.5 1.5625 0.5q0.828125 0 1.5625 -0.40625q0.75 -0.421875 1.15625 -0.984375l0 -6.734375l1.421875 0l0 9.171875l-1.421875 0zm6.404602 0.234375q-2.046875 0 -2.046875 -2.15625l0 -6.0l-1.515625 0l0 -1.25l1.515625 0l0 -2.515625l1.4375 0l0 2.515625l1.859375 0l0 1.25l-1.859375 0l0 5.703125q0 0.515625 0.21875 0.84375q0.234375 0.328125 0.703125 0.328125q0.59375 0 0.96875 -0.375l0.421875 1.0625q-0.59375 0.59375 -1.703125 0.59375zm7.2974854 0q-2.0625 0 -3.375 -1.34375q-1.296875 -1.359375 -1.296875 -3.484375q0 -2.03125 1.296875 -3.421875q1.296875 -1.390625 3.234375 -1.390625q1.96875 0 3.1875 1.375q1.21875 1.359375 1.21875 3.546875l0 0.359375l-7.4375 0q0.078125 1.40625 1.015625 2.296875q0.9375 0.875 2.296875 0.875q1.671875 0 2.828125 -1.15625l0.6875 0.9375q-1.40625 1.40625 -3.65625 1.40625zm2.859375 -5.40625q0 -1.265625 -0.84375 -2.15625q-0.828125 -0.90625 -2.1875 -0.90625q-1.265625 0 -2.109375 0.90625q-0.84375 0.890625 -0.890625 2.15625l6.03125 0z" fill-rule="nonzero"></path><path fill="#ffffff" d="m195.05774 441.38583l294.14172 0l0 71.99997l-294.14172 0z" fill-rule="evenodd"></path><path fill="#000000" d="m288.48648 469.30582l0 -6.0q0 -1.21875 -0.5625 -1.671875q-0.5625 -0.453125 -1.5 -0.453125q-0.796875 0 -1.5625 0.421875q-0.765625 0.421875 -1.15625 1.0l0 6.703125l-1.421875 0l0 -9.171875l1.421875 0l0 1.328125q0.59375 -0.6875 1.453125 -1.125q0.875 -0.4375 1.828125 -0.4375q2.921875 0 2.921875 2.96875l0 6.4375l-1.421875 0zm8.092102 0.234375q-2.0 0 -3.28125 -1.359375q-1.265625 -1.359375 -1.265625 -3.46875q0 -2.125 1.265625 -3.46875q1.28125 -1.34375 3.28125 -1.34375q1.984375 0 3.25 1.34375q1.28125 1.34375 1.28125 3.46875q0 2.109375 -1.28125 3.46875q-1.265625 1.359375 -3.25 1.359375zm0 -1.28125q1.328125 0 2.171875 -1.0q0.859375 -1.0 0.859375 -2.546875q0 -1.546875 -0.859375 -2.53125q-0.84375 -1.0 -2.171875 -1.0q-1.328125 0 -2.203125 0.984375q-0.859375 0.984375 -0.859375 2.546875q0 1.578125 0.84375 2.5625q0.859375 0.984375 2.21875 0.984375zm13.311981 1.046875l0 -1.375q-0.515625 0.703125 -1.328125 1.15625q-0.796875 0.453125 -1.765625 0.453125q-1.84375 0 -2.96875 -1.3125q-1.125 -1.3125 -1.125 -3.5q0 -2.203125 1.125 -3.515625q1.140625 -1.3125 2.96875 -1.3125q0.921875 0 1.734375 0.4375q0.8125 0.421875 1.359375 1.171875l0 -4.875l1.421875 0l0 12.671875l-1.421875 0zm-2.765625 -1.046875q0.859375 0 1.609375 -0.40625q0.765625 -0.421875 1.15625 -1.03125l0 -4.171875q-0.390625 -0.609375 -1.15625 -1.03125q-0.75 -0.4375 -1.609375 -0.4375q-1.328125 0 -2.140625 0.96875q-0.796875 0.96875 -0.796875 2.578125q0 1.578125 0.796875 2.5625q0.796875 0.96875 2.140625 0.96875zm10.977356 1.28125q-2.0625 0 -3.375 -1.34375q-1.296875 -1.359375 -1.296875 -3.484375q0 -2.03125 1.296875 -3.421875q1.296875 -1.390625 3.234375 -1.390625q1.96875 0 3.1875 1.375q1.21875 1.359375 1.21875 3.546875l0 0.359375l-7.4375 0q0.078125 1.40625 1.015625 2.296875q0.9375 0.875 2.296875 0.875q1.671875 0 2.828125 -1.15625l0.6875 0.9375q-1.40625 1.40625 -3.65625 1.40625zm2.859375 -5.40625q0 -1.265625 -0.84375 -2.15625q-0.828125 -0.90625 -2.1875 -0.90625q-1.265625 0 -2.109375 0.90625q-0.84375 0.890625 -0.890625 2.15625l6.03125 0zm4.2690735 5.359375q-0.4375 0 -0.75 -0.296875q-0.296875 -0.3125 -0.296875 -0.75q0 -0.4375 0.296875 -0.734375q0.3125 -0.3125 0.75 -0.3125q0.4375 0 0.734375 0.3125q0.3125 0.296875 0.3125 0.734375q0 0.4375 -0.3125 0.75q-0.296875 0.296875 -0.734375 0.296875zm14.603455 -0.1875l0 -6.234375q0 -1.890625 -1.6875 -1.890625q-0.71875 0 -1.40625 0.421875q-0.671875 0.421875 -1.03125 0.984375l0 6.71875l-1.421875 0l0 -6.234375q0 -1.890625 -1.6875 -1.890625q-0.703125 0 -1.375 0.4375q-0.65625 0.421875 -1.046875 0.984375l0 6.703125l-1.421875 0l0 -9.171875l1.421875 0l0 1.328125q0.328125 -0.546875 1.21875 -1.046875q0.890625 -0.515625 1.75 -0.515625q1.0625 0 1.65625 0.5q0.609375 0.484375 0.8125 1.21875q0.484375 -0.75 1.34375 -1.234375q0.875 -0.484375 1.734375 -0.484375q2.5625 0 2.5625 2.78125l0 6.625l-1.421875 0zm3.7148743 2.296875q0.296875 0.15625 0.78125 0.15625q0.46875 0 0.796875 -0.203125q0.328125 -0.203125 0.5625 -0.765625l0.609375 -1.390625l-3.828125 -9.265625l1.53125 0l3.0625 7.515625l3.03125 -7.515625l1.5625 0l-4.59375 11.03125q-0.765625 1.828125 -2.703125 1.859375q-0.546875 0 -1.046875 -0.125l0.234375 -1.296875zm9.485321 -2.296875l0 -12.671875l5.09375 0q1.796875 0 2.875 1.09375q1.09375 1.078125 1.09375 2.71875q0 1.671875 -1.109375 2.75q-1.09375 1.078125 -2.859375 1.078125l-3.515625 0l0 5.03125l-1.578125 0zm4.90625 -6.4375q1.140625 0 1.828125 -0.65625q0.6875 -0.671875 0.6875 -1.765625q0 -1.078125 -0.6875 -1.734375q-0.6875 -0.671875 -1.828125 -0.671875l-3.328125 0l0 4.828125l3.328125 0zm11.716827 6.4375l0 -1.046875q-1.15625 1.28125 -3.03125 1.28125q-1.390625 0 -2.3125 -0.875q-0.90625 -0.875 -0.90625 -2.171875q0 -1.328125 0.90625 -2.171875q0.90625 -0.84375 2.3125 -0.84375q1.96875 0 3.03125 1.25l0 -1.65625q0 -0.921875 -0.65625 -1.421875q-0.640625 -0.515625 -1.65625 -0.515625q-1.609375 0 -2.8125 1.28125l-0.65625 -1.0q1.453125 -1.515625 3.65625 -1.515625q1.6875 0 2.625 0.828125q0.9375 0.8125 0.9375 2.265625l0 6.3125l-1.4375 0zm-2.515625 -0.796875q1.6875 0 2.515625 -1.140625l0 -1.734375q-0.828125 -1.140625 -2.515625 -1.140625q-1.015625 0 -1.640625 0.5625q-0.625 0.5625 -0.625 1.453125q0 0.875 0.625 1.4375q0.625 0.5625 1.640625 0.5625zm6.613098 0.796875l0 -9.171875l1.421875 0l0 1.484375q1.28125 -1.671875 3.0625 -1.671875l0 1.453125l-0.5625 -0.0625q-0.65625 0 -1.4375 0.46875q-0.765625 0.46875 -1.0625 1.0l0 6.5l-1.421875 0zm11.890961 0l0 -1.046875q-1.15625 1.28125 -3.03125 1.28125q-1.390625 0 -2.3125 -0.875q-0.90625 -0.875 -0.90625 -2.171875q0 -1.328125 0.90625 -2.171875q0.90625 -0.84375 2.3125 -0.84375q1.96875 0 3.03125 1.25l0 -1.65625q0 -0.921875 -0.65625 -1.421875q-0.640625 -0.515625 -1.65625 -0.515625q-1.609375 0 -2.8125 1.28125l-0.65625 -1.0q1.453125 -1.515625 3.65625 -1.515625q1.6875 0 2.625 0.828125q0.9375 0.8125 0.9375 2.265625l0 6.3125l-1.4375 0zm-2.515625 -0.796875q1.6875 0 2.515625 -1.140625l0 -1.734375q-0.828125 -1.140625 -2.515625 -1.140625q-1.015625 0 -1.640625 0.5625q-0.625 0.5625 -0.625 1.453125q0 0.875 0.625 1.4375q0.625 0.5625 1.640625 0.5625zm17.691223 0.796875l0 -6.234375q0 -1.890625 -1.6875 -1.890625q-0.71875 0 -1.40625 0.421875q-0.671875 0.421875 -1.03125 0.984375l0 6.71875l-1.421875 0l0 -6.234375q0 -1.890625 -1.6875 -1.890625q-0.703125 0 -1.375 0.4375q-0.65625 0.421875 -1.046875 0.984375l0 6.703125l-1.421875 0l0 -9.171875l1.421875 0l0 1.328125q0.328125 -0.546875 1.21875 -1.046875q0.890625 -0.515625 1.75 -0.515625q1.0625 0 1.65625 0.5q0.609375 0.484375 0.8125 1.21875q0.484375 -0.75 1.34375 -1.234375q0.875 -0.484375 1.734375 -0.484375q2.5625 0 2.5625 2.78125l0 6.625l-1.421875 0z" fill-rule="nonzero"></path><path fill="#000000" d="m228.21823 495.49332q-0.4375 0 -0.75 -0.296875q-0.296875 -0.3125 -0.296875 -0.75q0 -0.4375 0.296875 -0.734375q0.3125 -0.3125 0.75 -0.3125q0.4375 0 0.734375 0.3125q0.3125 0.296875 0.3125 0.734375q0 0.4375 -0.3125 0.75q-0.296875 0.296875 -0.734375 0.296875zm3.5253143 -0.1875l0 -12.671875l1.421875 0l0 12.671875l-1.421875 0zm4.9007874 -10.484375q-0.375 0 -0.671875 -0.265625q-0.28125 -0.28125 -0.28125 -0.6875q0 -0.40625 0.28125 -0.6875q0.296875 -0.28125 0.671875 -0.28125q0.40625 0 0.6875 0.28125q0.28125 0.28125 0.28125 0.6875q0 0.40625 -0.28125 0.6875q-0.28125 0.265625 -0.6875 0.265625zm-0.703125 10.484375l0 -9.171875l1.421875 0l0 9.171875l-1.421875 0zm10.400787 0l0 -6.0q0 -1.21875 -0.5625 -1.671875q-0.5625 -0.453125 -1.5 -0.453125q-0.796875 0 -1.5625 0.421875q-0.765625 0.421875 -1.15625 1.0l0 6.703125l-1.421875 0l0 -9.171875l1.421875 0l0 1.328125q0.59375 -0.6875 1.453125 -1.125q0.875 -0.4375 1.828125 -0.4375q2.921875 0 2.921875 2.96875l0 6.4375l-1.421875 0zm8.217102 0.234375q-2.0625 0 -3.375 -1.34375q-1.296875 -1.359375 -1.296875 -3.484375q0 -2.03125 1.296875 -3.421875q1.296875 -1.390625 3.234375 -1.390625q1.9687347 0 3.1874847 1.375q1.21875 1.359375 1.21875 3.546875l0 0.359375l-7.4374847 0q0.078125 1.40625 1.015625 2.296875q0.9375 0.875 2.296875 0.875q1.6718597 0 2.8281097 -1.15625l0.6875 0.9375q-1.40625 1.40625 -3.6562347 1.40625zm2.8593597 -5.40625q0 -1.265625 -0.84375 -2.15625q-0.82810974 -0.90625 -2.1874847 -0.90625q-1.265625 0 -2.109375 0.90625q-0.84375 0.890625 -0.890625 2.15625l6.0312347 0zm9.237854 5.171875l0 -1.046875q-1.15625 1.28125 -3.03125 1.28125q-1.390625 0 -2.3125 -0.875q-0.90625 -0.875 -0.90625 -2.171875q0 -1.328125 0.90625 -2.171875q0.90625 -0.84375 2.3125 -0.84375q1.96875 0 3.03125 1.25l0 -1.65625q0 -0.921875 -0.65625 -1.421875q-0.640625 -0.515625 -1.65625 -0.515625q-1.609375 0 -2.8125 1.28125l-0.65625 -1.0q1.453125 -1.515625 3.65625 -1.515625q1.6875 0 2.625 0.828125q0.9375 0.8125 0.9375 2.265625l0 6.3125l-1.4375 0zm-2.515625 -0.796875q1.6875 0 2.515625 -1.140625l0 -1.734375q-0.828125 -1.140625 -2.515625 -1.140625q-1.015625 0 -1.640625 0.5625q-0.625 0.5625 -0.625 1.453125q0 0.875 0.625 1.4375q0.625 0.5625 1.640625 0.5625zm6.613098 0.796875l0 -9.171875l1.421875 0l0 1.484375q1.28125 -1.671875 3.0625 -1.671875l0 1.453125l-0.5625 -0.0625q-0.65625 0 -1.4375 0.46875q-0.765625 0.46875 -1.0625 1.0l0 6.5l-1.421875 0zm13.54718 0l-3.21875 -5.03125l-2.53125 0l0 5.03125l-1.578125 0l0 -12.671875l5.09375 0q1.78125 0 2.875 1.0625q1.09375 1.0625 1.09375 2.75q0 1.59375 -0.921875 2.578125q-0.921875 0.984375 -2.359375 1.109375l3.40625 5.171875l-1.859375 0zm-2.421875 -6.421875q1.140625 0 1.828125 -0.671875q0.6875 -0.671875 0.6875 -1.765625q0 -1.078125 -0.6875 -1.734375q-0.6875 -0.671875 -1.828125 -0.671875l-3.328125 0l0 4.84375l3.328125 0zm12.108643 6.421875l0 -1.046875q-1.15625 1.28125 -3.03125 1.28125q-1.390625 0 -2.3125 -0.875q-0.90625 -0.875 -0.90625 -2.171875q0 -1.328125 0.90625 -2.171875q0.90625 -0.84375 2.3125 -0.84375q1.96875 0 3.03125 1.25l0 -1.65625q0 -0.921875 -0.65625 -1.421875q-0.640625 -0.515625 -1.65625 -0.515625q-1.609375 0 -2.8125 1.28125l-0.65625 -1.0q1.453125 -1.515625 3.65625 -1.515625q1.6875 0 2.625 0.828125q0.9375 0.8125 0.9375 2.265625l0 6.3125l-1.4375 0zm-2.515625 -0.796875q1.6875 0 2.515625 -1.140625l0 -1.734375q-0.828125 -1.140625 -2.515625 -1.140625q-1.015625 0 -1.640625 0.5625q-0.625 0.5625 -0.625 1.453125q0 0.875 0.625 1.4375q0.625 0.5625 1.640625 0.5625zm17.691223 0.796875l0 -6.234375q0 -1.890625 -1.6875 -1.890625q-0.71875 0 -1.40625 0.421875q-0.671875 0.421875 -1.03125 0.984375l0 6.71875l-1.421875 0l0 -6.234375q0 -1.890625 -1.6875 -1.890625q-0.703125 0 -1.375 0.4375q-0.65625 0.421875 -1.046875 0.984375l0 6.703125l-1.421875 0l0 -9.171875l1.421875 0l0 1.328125q0.328125 -0.546875 1.21875 -1.046875q0.890625 -0.515625 1.75 -0.515625q1.0625 0 1.65625 0.5q0.609375 0.484375 0.8125 1.21875q0.484375 -0.75 1.34375 -1.234375q0.875 -0.484375 1.734375 -0.484375q2.5625 0 2.5625 2.78125l0 6.625l-1.421875 0zm8.527374 0.234375q-1.96875 0 -3.109375 -1.625l0 4.890625l-1.421875 0l0 -12.671875l1.421875 0l0 1.359375q0.5 -0.703125 1.3125 -1.140625q0.828125 -0.453125 1.796875 -0.453125q1.84375 0 2.953125 1.296875q1.125 1.28125 1.125 3.515625q0 2.203125 -1.109375 3.515625q-1.109375 1.3125 -2.96875 1.3125zm-0.359375 -1.28125q1.328125 0 2.125 -0.96875q0.8125 -0.96875 0.8125 -2.578125q0 -1.578125 -0.796875 -2.546875q-0.796875 -0.984375 -2.140625 -0.984375q-0.859375 0 -1.609375 0.421875q-0.75 0.421875 -1.140625 1.03125l0 4.140625q0.390625 0.609375 1.140625 1.046875q0.75 0.4375 1.609375 0.4375zm9.686981 1.046875l0 -11.265625l-4.0 0l0 -1.40625l9.609375 0l0 1.40625l-4.03125 0l0 11.265625l-1.578125 0zm11.462189 0.234375q-2.0 0 -3.28125 -1.359375q-1.265625 -1.359375 -1.265625 -3.46875q0 -2.125 1.265625 -3.46875q1.28125 -1.34375 3.28125 -1.34375q1.984375 0 3.25 1.34375q1.28125 1.34375 1.28125 3.46875q0 2.109375 -1.28125 3.46875q-1.265625 1.359375 -3.25 1.359375zm0 -1.28125q1.328125 0 2.171875 -1.0q0.859375 -1.0 0.859375 -2.546875q0 -1.546875 -0.859375 -2.53125q-0.84375 -1.0 -2.171875 -1.0q-1.328125 0 -2.203125 0.984375q-0.859375 0.984375 -0.859375 2.546875q0 1.578125 0.84375 2.5625q0.859375 0.984375 2.21875 0.984375zm10.499512 1.046875l-5.09375 -12.671875l1.796875 0l4.28125 10.9375l4.28125 -10.9375l1.796875 0l-5.109375 12.671875l-1.953125 0zm14.166443 0l0 -1.046875q-1.15625 1.28125 -3.03125 1.28125q-1.390625 0 -2.3125 -0.875q-0.90625 -0.875 -0.90625 -2.171875q0 -1.328125 0.90625 -2.171875q0.90625 -0.84375 2.3125 -0.84375q1.96875 0 3.03125 1.25l0 -1.65625q0 -0.921875 -0.65625 -1.421875q-0.640625 -0.515625 -1.65625 -0.515625q-1.609375 0 -2.8125 1.28125l-0.65625 -1.0q1.453125 -1.515625 3.65625 -1.515625q1.6875 0 2.625 0.828125q0.9375 0.8125 0.9375 2.265625l0 6.3125l-1.4375 0zm-2.515625 -0.796875q1.6875 0 2.515625 -1.140625l0 -1.734375q-0.828125 -1.140625 -2.515625 -1.140625q-1.015625 0 -1.640625 0.5625q-0.625 0.5625 -0.625 1.453125q0 0.875 0.625 1.4375q0.625 0.5625 1.640625 0.5625zm6.613098 0.796875l0 -12.671875l1.421875 0l0 12.671875l-1.421875 0zm10.400787 0l0 -1.296875q-0.53125 0.609375 -1.390625 1.078125q-0.859375 0.453125 -1.890625 0.453125q-2.921875 0 -2.921875 -2.9375l0 -6.46875l1.421875 0l0 6.03125q0 1.09375 0.5 1.59375q0.5 0.5 1.5625 0.5q0.828125 0 1.5625 -0.40625q0.75 -0.421875 1.15625 -0.984375l0 -6.734375l1.421875 0l0 9.171875l-1.421875 0zm8.217102 0.234375q-2.0625 0 -3.375 -1.34375q-1.296875 -1.359375 -1.296875 -3.484375q0 -2.03125 1.296875 -3.421875q1.296875 -1.390625 3.234375 -1.390625q1.96875 0 3.1875 1.375q1.21875 1.359375 1.21875 3.546875l0 0.359375l-7.4375 0q0.078125 1.40625 1.015625 2.296875q0.9375 0.875 2.296875 0.875q1.671875 0 2.828125 -1.15625l0.6875 0.9375q-1.40625 1.40625 -3.65625 1.40625zm2.859375 -5.40625q0 -1.265625 -0.84375 -2.15625q-0.828125 -0.90625 -2.1875 -0.90625q-1.265625 0 -2.109375 0.90625q-0.84375 0.890625 -0.890625 2.15625l6.03125 0zm12.6128235 5.171875l-1.125 -2.8125l-6.3125 0l-1.125 2.8125l-1.796875 0l5.09375 -12.671875l1.953125 0l5.109375 12.671875l-1.796875 0zm-4.28125 -11.03125l-2.703125 6.8125l5.390625 0l-2.6875 -6.8125zm9.775818 11.265625q-2.046875 0 -2.046875 -2.15625l0 -6.0l-1.515625 0l0 -1.25l1.515625 0l0 -2.515625l1.4375 0l0 2.515625l1.859375 0l0 1.25l-1.859375 0l0 5.703125q0 0.515625 0.21875 0.84375q0.234375 0.328125 0.703125 0.328125q0.59375 0 0.96875 -0.375l0.421875 1.0625q-0.59375 0.59375 -1.703125 0.59375zm6.34433 -0.234375l0 -11.265625l-4.0 0l0 -1.40625l9.609375 0l0 1.40625l-4.03125 0l0 11.265625l-1.578125 0zm8.149689 -10.484375q-0.375 0 -0.671875 -0.265625q-0.28125 -0.28125 -0.28125 -0.6875q0 -0.40625 0.28125 -0.6875q0.296875 -0.28125 0.671875 -0.28125q0.40625 0 0.6875 0.28125q0.28125 0.28125 0.28125 0.6875q0 0.40625 -0.28125 0.6875q-0.28125 0.265625 -0.6875 0.265625zm-0.703125 10.484375l0 -9.171875l1.421875 0l0 9.171875l-1.421875 0zm15.275787 0l0 -6.234375q0 -1.890625 -1.6875 -1.890625q-0.71875 0 -1.40625 0.421875q-0.671875 0.421875 -1.03125 0.984375l0 6.71875l-1.421875 0l0 -6.234375q0 -1.890625 -1.6875 -1.890625q-0.703125 0 -1.375 0.4375q-0.65625 0.421875 -1.046875 0.984375l0 6.703125l-1.421875 0l0 -9.171875l1.421875 0l0 1.328125q0.328125 -0.546875 1.21875 -1.046875q0.890625 -0.515625 1.75 -0.515625q1.0625 0 1.65625 0.5q0.609375 0.484375 0.8125 1.21875q0.484375 -0.75 1.34375 -1.234375q0.875 -0.484375 1.734375 -0.484375q2.5625 0 2.5625 2.78125l0 6.625l-1.421875 0zm8.136749 0.234375q-2.0625 0 -3.375 -1.34375q-1.296875 -1.359375 -1.296875 -3.484375q0 -2.03125 1.296875 -3.421875q1.296875 -1.390625 3.234375 -1.390625q1.96875 0 3.1875 1.375q1.21875 1.359375 1.21875 3.546875l0 0.359375l-7.4375 0q0.078125 1.40625 1.015625 2.296875q0.9375 0.875 2.296875 0.875q1.671875 0 2.828125 -1.15625l0.6875 0.9375q-1.40625 1.40625 -3.65625 1.40625zm2.859375 -5.40625q0 -1.265625 -0.84375 -2.15625q-0.828125 -0.90625 -2.1875 -0.90625q-1.265625 0 -2.109375 0.90625q-0.84375 0.890625 -0.890625 2.15625l6.03125 0zm5.5971985 8.953125q-1.296875 -1.765625 -1.984375 -3.921875q-0.6875 -2.171875 -0.6875 -4.46875q0 -2.3125 0.6875 -4.46875q0.6875 -2.15625 1.984375 -3.9375l0.859375 0.640625q-1.140625 2.28125 -1.5625 3.984375q-0.421875 1.703125 -0.421875 3.78125q0 2.046875 0.421875 3.78125q0.4375 1.71875 1.5625 3.9375l-0.859375 0.671875zm1.43927 -0.671875q1.109375 -2.203125 1.546875 -3.984375q0.4375 -1.796875 0.4375 -3.734375q0 -1.953125 -0.421875 -3.703125q-0.421875 -1.75 -1.5625 -4.0625l0.84375 -0.640625q1.3125 1.78125 2.0 3.9375q0.703125 2.15625 0.703125 4.46875q0 2.296875 -0.703125 4.46875q-0.6875 2.15625 -2.0 3.921875l-0.84375 -0.671875z" fill-rule="nonzero"></path><path fill="#000000" fill-opacity="0.0" d="m195.0572 403.958l294.14172 0l0 36.0l-294.14172 0z" fill-rule="evenodd"></path><path fill="#ffffff" d="m211.21346 428.878l0 -1.046875q-1.15625 1.28125 -3.03125 1.28125q-1.390625 0 -2.3125 -0.875q-0.90625 -0.875 -0.90625 -2.171875q0 -1.328125 0.90625 -2.171875q0.90625 -0.84375 2.3125 -0.84375q1.96875 0 3.03125 1.25l0 -1.65625q0 -0.921875 -0.65625 -1.421875q-0.640625 -0.515625 -1.65625 -0.515625q-1.609375 0 -2.8125 1.28125l-0.65625 -1.0q1.453125 -1.515625 3.65625 -1.515625q1.6875 0 2.625 0.828125q0.9375 0.8125 0.9375 2.265625l0 6.3125l-1.4375 0zm-2.515625 -0.796875q1.6875 0 2.515625 -1.140625l0 -1.734375q-0.828125 -1.140625 -2.515625 -1.140625q-1.015625 0 -1.640625 0.5625q-0.625 0.5625 -0.625 1.453125q0 0.875 0.625 1.4375q0.625 0.5625 1.640625 0.5625zm12.816223 0.796875l0 -1.296875q-0.53125 0.609375 -1.390625 1.078125q-0.859375 0.453125 -1.890625 0.453125q-2.921875 0 -2.921875 -2.9375l0 -6.46875l1.421875 0l0 6.03125q0 1.09375 0.5 1.59375q0.5 0.5 1.5625 0.5q0.828125 0 1.5625 -0.40625q0.75 -0.421875 1.15625 -0.984375l0 -6.734375l1.421875 0l0 9.171875l-1.421875 0zm6.404602 0.234375q-2.046875 0 -2.046875 -2.15625l0 -6.0l-1.515625 0l0 -1.25l1.515625 0l0 -2.515625l1.4375 0l0 2.515625l1.859375 0l0 1.25l-1.859375 0l0 5.703125q0 0.515625 0.21875 0.84375q0.234375 0.328125 0.703125 0.328125q0.59375 0 0.96875 -0.375l0.421875 1.0625q-0.59375 0.59375 -1.703125 0.59375zm7.1724396 0q-2.0 0 -3.28125 -1.359375q-1.265625 -1.359375 -1.265625 -3.46875q0 -2.125 1.265625 -3.46875q1.28125 -1.34375 3.28125 -1.34375q1.984375 0 3.25 1.34375q1.28125 1.34375 1.28125 3.46875q0 2.109375 -1.28125 3.46875q-1.265625 1.359375 -3.25 1.359375zm0 -1.28125q1.328125 0 2.171875 -1.0q0.859375 -1.0 0.859375 -2.546875q0 -1.546875 -0.859375 -2.53125q-0.84375 -1.0 -2.171875 -1.0q-1.328125 0 -2.203125 0.984375q-0.859375 0.984375 -0.859375 2.546875q0 1.578125 0.84375 2.5625q0.859375 0.984375 2.21875 0.984375zm17.733871 1.046875l0 -6.234375q0 -1.890625 -1.6875 -1.890625q-0.71875 0 -1.40625 0.421875q-0.671875 0.421875 -1.03125 0.984375l0 6.71875l-1.421875 0l0 -6.234375q0 -1.890625 -1.6875 -1.890625q-0.703125 0 -1.375 0.4375q-0.65625 0.421875 -1.046875 0.984375l0 6.703125l-1.421875 0l0 -9.171875l1.421875 0l0 1.328125q0.328125 -0.546875 1.21875 -1.046875q0.890625 -0.515625 1.75 -0.515625q1.0625 0 1.65625 0.5q0.609375 0.484375 0.8125 1.21875q0.484375 -0.75 1.34375 -1.234375q0.875 -0.484375 1.734375 -0.484375q2.5625 0 2.5625 2.78125l0 6.625l-1.421875 0zm9.730515 0l0 -1.046875q-1.15625 1.28125 -3.03125 1.28125q-1.390625 0 -2.3125 -0.875q-0.90625 -0.875 -0.90625 -2.171875q0 -1.328125 0.90625 -2.171875q0.90625 -0.84375 2.3125 -0.84375q1.96875 0 3.03125 1.25l0 -1.65625q0 -0.921875 -0.65625 -1.421875q-0.640625 -0.515625 -1.65625 -0.515625q-1.609375 0 -2.8125 1.28125l-0.65625 -1.0q1.453125 -1.515625 3.65625 -1.515625q1.6875 0 2.625 0.828125q0.9375 0.8125 0.9375 2.265625l0 6.3125l-1.4375 0zm-2.515625 -0.796875q1.6875 0 2.515625 -1.140625l0 -1.734375q-0.828125 -1.140625 -2.515625 -1.140625q-1.015625 0 -1.640625 0.5625q-0.625 0.5625 -0.625 1.453125q0 0.875 0.625 1.4375q0.625 0.5625 1.640625 0.5625zm8.941223 1.03125q-2.046875 0 -2.046875 -2.15625l0 -6.0l-1.515625 0l0 -1.25l1.515625 0l0 -2.515625l1.4375 0l0 2.515625l1.859375 0l0 1.25l-1.859375 0l0 5.703125q0 0.515625 0.21875 0.84375q0.234375 0.328125 0.703125 0.328125q0.59375 0 0.96875 -0.375l0.421875 1.0625q-0.59375 0.59375 -1.703125 0.59375zm3.8599243 -10.71875q-0.375 0 -0.671875 -0.265625q-0.28125 -0.28125 -0.28125 -0.6875q0 -0.40625 0.28125 -0.6875q0.296875 -0.28125 0.671875 -0.28125q0.40625 0 0.6875 0.28125q0.28125 0.28125 0.28125 0.6875q0 0.40625 -0.28125 0.6875q-0.28125 0.265625 -0.6875 0.265625zm-0.703125 10.484375l0 -9.171875l1.421875 0l0 9.171875l-1.421875 0zm8.213287 0.234375q-2.0 0 -3.28125 -1.359375q-1.265625 -1.359375 -1.265625 -3.46875q0 -2.125 1.265625 -3.46875q1.28125 -1.34375 3.28125 -1.34375q1.984375 0 3.25 1.34375q1.28125 1.34375 1.28125 3.46875q0 2.109375 -1.28125 3.46875q-1.265625 1.359375 -3.25 1.359375zm0 -1.28125q1.328125 0 2.171875 -1.0q0.859375 -1.0 0.859375 -2.546875q0 -1.546875 -0.859375 -2.53125q-0.84375 -1.0 -2.171875 -1.0q-1.328125 0 -2.203125 0.984375q-0.859375 0.984375 -0.859375 2.546875q0 1.578125 0.84375 2.5625q0.859375 0.984375 2.21875 0.984375zm12.858887 1.046875l0 -6.0q0 -1.21875 -0.5625 -1.671875q-0.5625 -0.453125 -1.5 -0.453125q-0.796875 0 -1.5625 0.421875q-0.765625 0.421875 -1.15625 1.0l0 6.703125l-1.421875 0l0 -9.171875l1.421875 0l0 1.328125q0.59375 -0.6875 1.453125 -1.125q0.875 -0.4375 1.828125 -0.4375q2.921875 0 2.921875 2.96875l0 6.4375l-1.421875 0z" fill-rule="nonzero"></path><path fill="#ffffff" d="m298.30215 422.64362q-0.625 0 -1.09375 -0.453125q-0.453125 -0.453125 -0.453125 -1.078125q0 -0.625 0.453125 -1.078125q0.46875 -0.46875 1.09375 -0.46875q0.625 0 1.078125 0.46875q0.453125 0.453125 0.453125 1.078125q0 0.625 -0.453125 1.078125q-0.453125 0.453125 -1.078125 0.453125zm0 6.4375q-0.625 0 -1.09375 -0.453125q-0.453125 -0.453125 -0.453125 -1.078125q0 -0.625 0.453125 -1.078125q0.46875 -0.46875 1.09375 -0.46875q0.625 0 1.078125 0.46875q0.453125 0.453125 0.453125 1.078125q0 0.625 -0.453125 1.078125q-0.453125 0.453125 -1.078125 0.453125z" fill-rule="nonzero"></path><path fill="#000000" fill-opacity="0.0" d="m197.28818 271.75854l294.14172 0l0 36.0l-294.14172 0z" fill-rule="evenodd"></path><path fill="#ffffff" d="m213.91318 296.67853l0 -1.296875q-0.53125 0.609375 -1.390625 1.078125q-0.859375 0.453125 -1.890625 0.453125q-2.921875 0 -2.921875 -2.9375l0 -6.46875l1.421875 0l0 6.03125q0 1.09375 0.5 1.59375q0.5 0.5 1.5625 0.5q0.828125 0 1.5625 -0.40625q0.75 -0.421875 1.15625 -0.984375l0 -6.734375l1.421875 0l0 9.171875l-1.421875 0zm8.607727 0.234375q-1.96875 0 -3.109375 -1.625l0 4.890625l-1.421875 0l0 -12.671875l1.421875 0l0 1.359375q0.5 -0.703125 1.3125 -1.140625q0.828125 -0.453125 1.796875 -0.453125q1.84375 0 2.953125 1.296875q1.125 1.28125 1.125 3.515625q0 2.203125 -1.109375 3.515625q-1.109375 1.3125 -2.96875 1.3125zm-0.359375 -1.28125q1.328125 0 2.125 -0.96875q0.8125 -0.96875 0.8125 -2.578125q0 -1.578125 -0.796875 -2.546875q-0.796875 -0.984375 -2.140625 -0.984375q-0.859375 0 -1.609375 0.421875q-0.75 0.421875 -1.140625 1.03125l0 4.140625q0.390625 0.609375 1.140625 1.046875q0.75 0.4375 1.609375 0.4375zm10.515121 1.28125q-2.0 0 -3.28125 -1.359375q-1.265625 -1.359375 -1.265625 -3.46875q0 -2.125 1.265625 -3.46875q1.28125 -1.34375 3.28125 -1.34375q1.984375 0 3.25 1.34375q1.28125 1.34375 1.28125 3.46875q0 2.109375 -1.28125 3.46875q-1.265625 1.359375 -3.25 1.359375zm0 -1.28125q1.328125 0 2.171875 -1.0q0.859375 -1.0 0.859375 -2.546875q0 -1.546875 -0.859375 -2.53125q-0.84375 -1.0 -2.171875 -1.0q-1.328125 0 -2.203125 0.984375q-0.859375 0.984375 -0.859375 2.546875q0 1.578125 0.84375 2.5625q0.859375 0.984375 2.21875 0.984375zm12.858871 1.046875l0 -6.0q0 -1.21875 -0.5625 -1.671875q-0.5625 -0.453125 -1.5 -0.453125q-0.796875 0 -1.5625 0.421875q-0.765625 0.421875 -1.15625 1.0l0 6.703125l-1.421875 0l0 -9.171875l1.421875 0l0 1.328125q0.59375 -0.6875 1.453125 -1.125q0.875 -0.4375 1.828125 -0.4375q2.921875 0 2.921875 2.96875l0 6.4375l-1.421875 0zm12.936676 0.234375q-2.015625 0 -3.2968903 -1.375q-1.28125 -1.375 -1.28125 -3.453125q0 -2.078125 1.28125 -3.4375q1.2812653 -1.375 3.2968903 -1.375q2.125 0 3.359375 1.59375l-0.9375 0.875q-0.875 -1.1875 -2.34375 -1.1875q-1.40625 0 -2.296875 0.984375q-0.87501526 0.96875 -0.87501526 2.546875q0 1.59375 0.87501526 2.578125q0.875 0.96875 2.296875 0.96875q1.4375 0 2.34375 -1.1875l0.9375 0.859375q-1.234375 1.609375 -3.359375 1.609375zm9.203583 0q-2.0 0 -3.28125 -1.359375q-1.265625 -1.359375 -1.265625 -3.46875q0 -2.125 1.265625 -3.46875q1.28125 -1.34375 3.28125 -1.34375q1.984375 0 3.25 1.34375q1.28125 1.34375 1.28125 3.46875q0 2.109375 -1.28125 3.46875q-1.265625 1.359375 -3.25 1.359375zm0 -1.28125q1.328125 0 2.171875 -1.0q0.859375 -1.0 0.859375 -2.546875q0 -1.546875 -0.859375 -2.53125q-0.84375 -1.0 -2.171875 -1.0q-1.328125 0 -2.203125 0.984375q-0.859375 0.984375 -0.859375 2.546875q0 1.578125 0.84375 2.5625q0.859375 0.984375 2.21875 0.984375zm12.858887 1.046875l0 -6.0q0 -1.21875 -0.5625 -1.671875q-0.5625 -0.453125 -1.5 -0.453125q-0.796875 0 -1.5625 0.421875q-0.765625 0.421875 -1.15625 1.0l0 6.703125l-1.421875 0l0 -9.171875l1.421875 0l0 1.328125q0.59375 -0.6875 1.453125 -1.125q0.875 -0.4375 1.828125 -0.4375q2.921875 0 2.921875 2.96875l0 6.4375l-1.421875 0zm6.982727 0.234375q-2.328125 0 -3.703125 -1.453125l0.75 -1.015625q0.453125 0.53125 1.25 0.921875q0.8125 0.375 1.765625 0.375q1.0625 0 1.609375 -0.4375q0.5625 -0.453125 0.5625 -1.140625q0 -0.59375 -0.609375 -0.9375q-0.59375 -0.359375 -2.234375 -0.75q-1.375 -0.28125 -2.109375 -0.890625q-0.734375 -0.625 -0.734375 -1.671875q0 -1.15625 0.921875 -1.890625q0.9375 -0.75 2.5 -0.75q2.0625 0 3.390625 1.328125l-0.65625 0.984375q-0.421875 -0.484375 -1.140625 -0.8125q-0.703125 -0.34375 -1.59375 -0.34375q-0.953125 0 -1.5 0.421875q-0.53125 0.421875 -0.53125 1.03125q0 0.546875 0.609375 0.875q0.609375 0.3125 2.234375 0.65625q1.390625 0.328125 2.109375 0.984375q0.71875 0.65625 0.71875 1.734375q0 1.28125 -0.984375 2.03125q-0.984375 0.75 -2.625 0.75zm8.097015 0q-2.046875 0 -2.046875 -2.15625l0 -6.0l-1.515625 0l0 -1.25l1.515625 0l0 -2.515625l1.4375 0l0 2.515625l1.859375 0l0 1.25l-1.859375 0l0 5.703125q0 0.515625 0.21875 0.84375q0.234375 0.328125 0.703125 0.328125q0.59375 0 0.96875 -0.375l0.421875 1.0625q-0.59375 0.59375 -1.703125 0.59375zm3.1568298 -0.234375l0 -9.171875l1.421875 0l0 1.484375q1.28125 -1.671875 3.0625 -1.671875l0 1.453125l-0.5625 -0.0625q-0.65625 0 -1.4375 0.46875q-0.765625 0.46875 -1.0625 1.0l0 6.5l-1.421875 0zm12.35968 0l0 -1.296875q-0.53125 0.609375 -1.390625 1.078125q-0.859375 0.453125 -1.890625 0.453125q-2.921875 0 -2.921875 -2.9375l0 -6.46875l1.421875 0l0 6.03125q0 1.09375 0.5 1.59375q0.5 0.5 1.5625 0.5q0.828125 0 1.5625 -0.40625q0.75 -0.421875 1.15625 -0.984375l0 -6.734375l1.421875 0l0 9.171875l-1.421875 0zm8.123352 0.234375q-2.015625 0 -3.296875 -1.375q-1.28125 -1.375 -1.28125 -3.453125q0 -2.078125 1.28125 -3.4375q1.28125 -1.375 3.296875 -1.375q2.125 0 3.359375 1.59375l-0.9375 0.875q-0.875 -1.1875 -2.34375 -1.1875q-1.40625 0 -2.296875 0.984375q-0.875 0.96875 -0.875 2.546875q0 1.59375 0.875 2.578125q0.875 0.96875 2.296875 0.96875q1.4375 0 2.34375 -1.1875l0.9375 0.859375q-1.234375 1.609375 -3.359375 1.609375zm7.5161133 0q-2.046875 0 -2.046875 -2.15625l0 -6.0l-1.515625 0l0 -1.25l1.515625 0l0 -2.515625l1.4375 0l0 2.515625l1.859375 0l0 1.25l-1.859375 0l0 5.703125q0 0.515625 0.21875 0.84375q0.234375 0.328125 0.703125 0.328125q0.59375 0 0.96875 -0.375l0.421875 1.0625q-0.59375 0.59375 -1.703125 0.59375zm3.8599243 -10.71875q-0.375 0 -0.671875 -0.265625q-0.28125 -0.28125 -0.28125 -0.6875q0 -0.40625 0.28125 -0.6875q0.296875 -0.28125 0.671875 -0.28125q0.40625 0 0.6875 0.28125q0.28125 0.28125 0.28125 0.6875q0 0.40625 -0.28125 0.6875q-0.28125 0.265625 -0.6875 0.265625zm-0.703125 10.484375l0 -9.171875l1.421875 0l0 9.171875l-1.421875 0zm8.213287 0.234375q-2.0 0 -3.28125 -1.359375q-1.265625 -1.359375 -1.265625 -3.46875q0 -2.125 1.265625 -3.46875q1.28125 -1.34375 3.28125 -1.34375q1.984375 0 3.25 1.34375q1.28125 1.34375 1.28125 3.46875q0 2.109375 -1.28125 3.46875q-1.265625 1.359375 -3.25 1.359375zm0 -1.28125q1.328125 0 2.171875 -1.0q0.859375 -1.0 0.859375 -2.546875q0 -1.546875 -0.859375 -2.53125q-0.84375 -1.0 -2.171875 -1.0q-1.328125 0 -2.203125 0.984375q-0.859375 0.984375 -0.859375 2.546875q0 1.578125 0.84375 2.5625q0.859375 0.984375 2.21875 0.984375zm12.858887 1.046875l0 -6.0q0 -1.21875 -0.5625 -1.671875q-0.5625 -0.453125 -1.5 -0.453125q-0.796875 0 -1.5625 0.421875q-0.765625 0.421875 -1.15625 1.0l0 6.703125l-1.421875 0l0 -9.171875l1.421875 0l0 1.328125q0.59375 -0.6875 1.453125 -1.125q0.875 -0.4375 1.828125 -0.4375q2.921875 0 2.921875 2.96875l0 6.4375l-1.421875 0z" fill-rule="nonzero"></path><path fill="#ffffff" d="m356.09146 290.44415q-0.625 0 -1.09375 -0.453125q-0.453125 -0.453125 -0.453125 -1.078125q0 -0.625 0.453125 -1.078125q0.46875 -0.46875 1.09375 -0.46875q0.625 0 1.078125 0.46875q0.453125 0.453125 0.453125 1.078125q0 0.625 -0.453125 1.078125q-0.453125 0.453125 -1.078125 0.453125zm0 6.4375q-0.625 0 -1.09375 -0.453125q-0.453125 -0.453125 -0.453125 -1.078125q0 -0.625 0.453125 -1.078125q0.46875 -0.46875 1.09375 -0.46875q0.625 0 1.078125 0.46875q0.453125 0.453125 0.453125 1.078125q0 0.625 -0.453125 1.078125q-0.453125 0.453125 -1.078125 0.453125z" fill-rule="nonzero"></path></g></svg>

