<?xml version="1.0" standalone="yes"?>

<svg version="1.1" viewBox="0.0 150.0 1152.0 350.0" fill="none" stroke="none" stroke-linecap="square" stroke-miterlimit="10" xmlns="http://www.w3.org/2000/svg" xmlns:xlink="http://www.w3.org/1999/xlink"><clipPath id="p.0"><path d="m0 0l1152.0 0l0 864.0l-1152.0 0l0 -864.0z" clip-rule="nonzero"></path></clipPath><g clip-path="url(#p.0)"><path fill="#000000" fill-opacity="0.0" d="m0 0l1152.0 0l0 864.0l-1152.0 0z" fill-rule="evenodd"></path><path fill="#cfe2f3" d="m233.0 213.33873l0 0c0 -6.805786 5.5171967 -12.322983 12.322983 -12.322983l279.54297 0c3.2683105 0 6.40271 1.2983093 8.713684 3.609314c2.3110352 2.31102 3.609314 5.4454193 3.609314 8.713669l0 210.34615c0 6.8058167 -5.517151 12.322998 -12.322998 12.322998l-279.54297 0c-6.805786 0 -12.322983 -5.5171814 -12.322983 -12.322998z" fill-rule="evenodd"></path><path fill="#000000" d="m310.69302 234.10503l0 -11.53125l-4.765625 11.53125l-0.71875 0l-4.75 -11.53125l0 11.53125l-1.734375 0l0 -14.0l2.5 0l4.34375 10.53125l4.375 -10.53125l2.484375 0l0 14.0l-1.734375 0zm11.567017 0l0 -1.15625q-1.28125 1.40625 -3.359375 1.40625q-1.53125 0 -2.546875 -0.96875q-1.0 -0.96875 -1.0 -2.390625q0 -1.46875 0.984375 -2.40625q1.0 -0.9375 2.5625 -0.9375q2.171875 0 3.359375 1.390625l0 -1.828125q0 -1.03125 -0.734375 -1.578125q-0.71875 -0.5625 -1.828125 -0.5625q-1.796875 0 -3.109375 1.40625l-0.734375 -1.09375q1.609375 -1.671875 4.046875 -1.671875q1.875 0 2.890625 0.90625q1.03125 0.890625 1.03125 2.515625l0 6.96875l-1.5625 0zm-2.796875 -0.875q1.875 0 2.796875 -1.265625l0 -1.90625q-0.921875 -1.265625 -2.796875 -1.265625q-1.109375 0 -1.8125 0.625q-0.6875 0.609375 -0.6875 1.59375q0 0.96875 0.6875 1.59375q0.703125 0.625 1.8125 0.625zm8.474335 -10.71875q-0.421875 0 -0.75 -0.296875q-0.3125 -0.3125 -0.3125 -0.75q0 -0.4375 0.3125 -0.75q0.328125 -0.328125 0.75 -0.328125q0.4375 0 0.75 0.328125q0.3125 0.3125 0.3125 0.75q0 0.4375 -0.3125 0.75q-0.3125 0.296875 -0.75 0.296875zm-0.78125 11.59375l0 -10.140625l1.578125 0l0 10.140625l-1.578125 0zm11.642578 0l0 -6.640625q0 -1.34375 -0.625 -1.84375q-0.609375 -0.5 -1.640625 -0.5q-0.890625 0 -1.75 0.46875q-0.84375 0.46875 -1.25 1.109375l0 7.40625l-1.578125 0l0 -10.140625l1.578125 0l0 1.46875q0.640625 -0.75 1.59375 -1.234375q0.96875 -0.484375 2.015625 -0.484375q3.234375 0 3.234375 3.265625l0 7.125l-1.578125 0zm17.113922 0.265625q-3.09375 0 -5.15625 -2.0625q-2.046875 -2.0625 -2.046875 -5.203125q0 -3.15625 2.0625 -5.1875q2.0625 -2.046875 5.140625 -2.046875q3.296875 0 5.4375 2.625l-1.390625 0.859375q-0.671875 -0.859375 -1.734375 -1.390625q-1.0625 -0.546875 -2.3125 -0.546875q-2.34375 0 -3.875 1.625q-1.53125 1.609375 -1.53125 4.0625q0 2.484375 1.546875 4.109375q1.546875 1.609375 3.859375 1.609375q1.046875 0 2.046875 -0.40625q1.015625 -0.40625 1.703125 -1.109375l0 -2.859375l-4.8125 0l0 -1.546875l6.5625 0l0 5.0625q-2.1875 2.40625 -5.5 2.40625zm8.503876 -0.265625l0 -14.0l1.578125 0l0 14.0l-1.578125 0zm9.220734 0.25q-2.203125 0 -3.609375 -1.5q-1.40625 -1.5 -1.40625 -3.828125q0 -2.359375 1.40625 -3.828125q1.40625 -1.484375 3.609375 -1.484375q2.21875 0 3.625 1.484375q1.40625 1.46875 1.40625 3.828125q0 2.328125 -1.40625 3.828125q-1.40625 1.5 -3.625 1.5zm0 -1.40625q1.46875 0 2.40625 -1.09375q0.953125 -1.109375 0.953125 -2.828125q0 -1.703125 -0.953125 -2.796875q-0.9375 -1.109375 -2.40625 -1.109375q-1.46875 0 -2.421875 1.09375q-0.953125 1.09375 -0.953125 2.8125q0 1.734375 0.9375 2.828125q0.953125 1.09375 2.4375 1.09375zm9.355988 -1.59375q0.40625 0.671875 1.234375 1.140625q0.84375 0.453125 1.78125 0.453125q1.5 0 2.390625 -1.078125q0.890625 -1.078125 0.890625 -2.828125q0 -1.765625 -0.890625 -2.84375q-0.875 -1.078125 -2.390625 -1.078125q-0.9375 0 -1.78125 0.484375q-0.828125 0.484375 -1.234375 1.15625l0 4.59375zm-1.578125 2.75l0 -14.0l1.578125 0l0 5.390625q1.296875 -1.78125 3.421875 -1.78125q2.015625 0 3.265625 1.46875q1.25 1.46875 1.25 3.859375q0 2.4375 -1.25 3.875q-1.25 1.4375 -3.265625 1.4375q-1.078125 0 -1.96875 -0.484375q-0.890625 -0.5 -1.453125 -1.28125l0 1.515625l-1.578125 0zm18.607452 0l0 -1.15625q-1.28125 1.40625 -3.359375 1.40625q-1.53125 0 -2.546875 -0.96875q-1.0 -0.96875 -1.0 -2.390625q0 -1.46875 0.984375 -2.40625q1.0 -0.9375 2.5625 -0.9375q2.171875 0 3.359375 1.390625l0 -1.828125q0 -1.03125 -0.734375 -1.578125q-0.71875 -0.5625 -1.828125 -0.5625q-1.796875 0 -3.109375 1.40625l-0.734375 -1.09375q1.609375 -1.671875 4.046875 -1.671875q1.875 0 2.890625 0.90625q1.03125 0.890625 1.03125 2.515625l0 6.96875l-1.5625 0zm-2.796875 -0.875q1.875 0 2.796875 -1.265625l0 -1.90625q-0.921875 -1.265625 -2.796875 -1.265625q-1.109375 0 -1.8125 0.625q-0.6875 0.609375 -0.6875 1.59375q0 0.96875 0.6875 1.59375q0.703125 0.625 1.8125 0.625zm7.6930847 0.875l0 -14.0l1.578125 0l0 14.0l-1.578125 0zm14.895294 0.25q-3.375 0 -5.375 -2.21875l1.03125 -1.328125q0.859375 0.96875 2.015625 1.484375q1.15625 0.515625 2.390625 0.515625q1.515625 0 2.40625 -0.671875q0.890625 -0.671875 0.890625 -1.75q0 -1.65625 -2.59375 -2.375q-3.09375 -0.8125 -3.953125 -1.296875q-0.84375 -0.484375 -1.296875 -1.203125q-0.453125 -0.734375 -0.453125 -1.734375q0 -1.6875 1.359375 -2.78125q1.359375 -1.109375 3.453125 -1.109375q3.15625 0 4.984375 1.953125l-1.0625 1.28125q-1.5 -1.671875 -4.046875 -1.671875q-1.265625 0 -2.078125 0.609375q-0.796875 0.609375 -0.796875 1.609375q0 0.734375 0.671875 1.25q0.671875 0.515625 1.953125 0.828125q2.984375 0.828125 3.84375 1.359375q0.875 0.515625 1.34375 1.28125q0.484375 0.765625 0.484375 1.859375q0 1.921875 -1.40625 3.015625q-1.40625 1.09375 -3.765625 1.09375zm12.373322 0q-2.21875 0 -3.640625 -1.5q-1.421875 -1.515625 -1.421875 -3.828125q0 -2.296875 1.421875 -3.796875q1.421875 -1.515625 3.640625 -1.515625q2.359375 0 3.71875 1.765625l-1.046875 0.953125q-0.96875 -1.3125 -2.59375 -1.3125q-1.546875 0 -2.53125 1.078125q-0.96875 1.078125 -0.96875 2.828125q0 1.765625 0.96875 2.84375q0.96875 1.078125 2.53125 1.078125q1.609375 0 2.59375 -1.328125l1.046875 0.96875q-1.359375 1.765625 -3.71875 1.765625zm10.51059 0q-2.203125 0 -3.609375 -1.5q-1.40625 -1.5 -1.40625 -3.828125q0 -2.359375 1.40625 -3.828125q1.40625 -1.484375 3.609375 -1.484375q2.21875 0 3.625 1.484375q1.40625 1.46875 1.40625 3.828125q0 2.328125 -1.40625 3.828125q-1.40625 1.5 -3.625 1.5zm0 -1.40625q1.46875 0 2.40625 -1.09375q0.953125 -1.109375 0.953125 -2.828125q0 -1.703125 -0.953125 -2.796875q-0.9375 -1.109375 -2.40625 -1.109375q-1.46875 0 -2.421875 1.09375q-0.953125 1.09375 -0.953125 2.8125q0 1.734375 0.9375 2.828125q0.953125 1.09375 2.4375 1.09375zm12.777863 1.40625q-2.171875 0 -3.421875 -1.78125l0 5.390625l-1.578125 0l0 -14.0l1.578125 0l0 1.515625q0.546875 -0.78125 1.4375 -1.265625q0.90625 -0.5 1.984375 -0.5q2.03125 0 3.265625 1.4375q1.25 1.421875 1.25 3.875q0 2.4375 -1.234375 3.890625q-1.234375 1.4375 -3.28125 1.4375zm-0.40625 -1.40625q1.46875 0 2.359375 -1.0625q0.890625 -1.078125 0.890625 -2.859375q0 -1.75 -0.875 -2.828125q-0.875 -1.078125 -2.375 -1.078125q-0.9375 0 -1.78125 0.46875q-0.828125 0.46875 -1.234375 1.140625l0 4.578125q0.40625 0.671875 1.234375 1.15625q0.84375 0.484375 1.78125 0.484375zm12.184113 1.40625q-2.296875 0 -3.734375 -1.484375q-1.4375 -1.5 -1.4375 -3.84375q0 -2.25 1.421875 -3.78125q1.4375 -1.53125 3.578125 -1.53125q2.1875 0 3.53125 1.515625q1.34375 1.5 1.34375 3.921875l0 0.390625l-8.21875 0q0.09375 1.5625 1.125 2.546875q1.046875 0.96875 2.53125 0.96875q1.84375 0 3.125 -1.28125l0.765625 1.03125q-1.5625 1.546875 -4.03125 1.546875zm3.140625 -5.96875q0 -1.40625 -0.921875 -2.390625q-0.921875 -0.984375 -2.40625 -0.984375q-1.40625 0 -2.34375 0.984375q-0.9375 0.984375 -0.984375 2.390625l6.65625 0z" fill-rule="nonzero"></path><path fill="#b6d7a8" d="m614.811 213.33873l0 0c0 -6.805786 5.517212 -12.322983 12.322998 -12.322983l279.54303 0c3.2682495 0 6.402649 1.2983093 8.713623 3.609314c2.3110352 2.31102 3.609314 5.4454193 3.609314 8.713669l0 210.34615c0 6.8058167 -5.517151 12.322998 -12.322937 12.322998l-279.54303 0c-6.805786 0 -12.322998 -5.5171814 -12.322998 -12.322998z" fill-rule="evenodd"></path><path fill="#000000" d="m654.98114 234.10503l-1.25 -3.109375l-6.96875 0l-1.234375 3.109375l-2.0 0l5.625 -14.0l2.171875 0l5.640625 14.0l-1.984375 0zm-4.734375 -12.203125l-2.984375 7.546875l5.953125 0l-2.96875 -7.546875zm15.549561 12.203125l0 -1.421875q-0.59375 0.671875 -1.546875 1.171875q-0.9375 0.5 -2.0625 0.5q-3.234375 0 -3.234375 -3.234375l0 -7.15625l1.578125 0l0 6.671875q0 1.203125 0.53125 1.765625q0.546875 0.546875 1.734375 0.546875q0.921875 0 1.734375 -0.453125q0.828125 -0.46875 1.265625 -1.078125l0 -7.453125l1.578125 0l0 10.140625l-1.578125 0zm12.251831 0l0 -1.515625q-0.5625 0.78125 -1.453125 1.28125q-0.890625 0.484375 -1.96875 0.484375q-2.03125 0 -3.28125 -1.4375q-1.234375 -1.453125 -1.234375 -3.875q0 -2.4375 1.25 -3.875q1.25 -1.453125 3.265625 -1.453125q1.03125 0 1.921875 0.46875q0.890625 0.46875 1.5 1.3125l0 -5.390625l1.578125 0l0 14.0l-1.578125 0zm-3.046875 -1.15625q0.953125 0 1.78125 -0.453125q0.84375 -0.46875 1.265625 -1.140625l0 -4.59375q-0.421875 -0.671875 -1.265625 -1.15625q-0.828125 -0.484375 -1.78125 -0.484375q-1.46875 0 -2.359375 1.078125q-0.890625 1.0625 -0.890625 2.84375q0 1.75 0.875 2.828125q0.890625 1.078125 2.375 1.078125zm8.748108 -10.4375q-0.421875 0 -0.75 -0.296875q-0.3125 -0.3125 -0.3125 -0.75q0 -0.4375 0.3125 -0.75q0.328125 -0.328125 0.75 -0.328125q0.4375 0 0.75 0.328125q0.3125 0.3125 0.3125 0.75q0 0.4375 -0.3125 0.75q-0.3125 0.296875 -0.75 0.296875zm-0.78125 11.59375l0 -10.140625l1.578125 0l0 10.140625l-1.578125 0zm9.220703 0.25q-2.203125 0 -3.609375 -1.5q-1.40625 -1.5 -1.40625 -3.828125q0 -2.359375 1.40625 -3.828125q1.40625 -1.484375 3.609375 -1.484375q2.21875 0 3.625 1.484375q1.40625 1.46875 1.40625 3.828125q0 2.328125 -1.40625 3.828125q-1.40625 1.5 -3.625 1.5zm0 -1.40625q1.46875 0 2.40625 -1.09375q0.953125 -1.109375 0.953125 -2.828125q0 -1.703125 -0.953125 -2.796875q-0.9375 -1.109375 -2.40625 -1.109375q-1.46875 0 -2.421875 1.09375q-0.953125 1.09375 -0.953125 2.8125q0 1.734375 0.9375 2.828125q0.953125 1.09375 2.4375 1.09375zm18.543518 1.15625l-3.078125 -11.296875l-3.09375 11.296875l-1.890625 0l-3.984375 -14.0l1.921875 0l3.109375 11.671875l3.21875 -11.671875l1.453125 0l3.203125 11.671875l3.09375 -11.671875l1.9375 0l-4.0 14.0l-1.890625 0zm12.489075 0.25q-2.203125 0 -3.609375 -1.5q-1.40625 -1.5 -1.40625 -3.828125q0 -2.359375 1.40625 -3.828125q1.40625 -1.484375 3.609375 -1.484375q2.21875 0 3.625 1.484375q1.40625 1.46875 1.40625 3.828125q0 2.328125 -1.40625 3.828125q-1.40625 1.5 -3.625 1.5zm0 -1.40625q1.46875 0 2.40625 -1.09375q0.953125 -1.109375 0.953125 -2.828125q0 -1.703125 -0.953125 -2.796875q-0.9375 -1.109375 -2.40625 -1.109375q-1.46875 0 -2.421875 1.09375q-0.953125 1.09375 -0.953125 2.8125q0 1.734375 0.9375 2.828125q0.953125 1.09375 2.4375 1.09375zm7.777832 1.15625l0 -10.140625l1.578125 0l0 1.640625q1.40625 -1.859375 3.375 -1.859375l0 1.625l-0.625 -0.0625q-0.71875 0 -1.578125 0.515625q-0.859375 0.515625 -1.171875 1.09375l0 7.1875l-1.578125 0zm13.94458 0l-3.65625 -4.5625l-1.671875 1.671875l0 2.890625l-1.578125 0l0 -14.0l1.578125 0l0 9.25l5.328125 -5.390625l2.0 0l-4.5 4.59375l4.515625 5.546875l-2.015625 0zm4.0564575 0l0 -14.0l1.578125 0l0 14.0l-1.578125 0zm9.376953 0.25q-2.296875 0 -3.734375 -1.484375q-1.4375 -1.5 -1.4375 -3.84375q0 -2.25 1.421875 -3.78125q1.4375 -1.53125 3.578125 -1.53125q2.1875 0 3.53125 1.515625q1.34375 1.5 1.34375 3.921875l0 0.390625l-8.21875 0q0.09375 1.5625 1.125 2.546875q1.046875 0.96875 2.53125 0.96875q1.84375 0 3.125 -1.28125l0.765625 1.03125q-1.5625 1.546875 -4.03125 1.546875zm3.140625 -5.96875q0 -1.40625 -0.921875 -2.390625q-0.921875 -0.984375 -2.40625 -0.984375q-1.40625 0 -2.34375 0.984375q-0.9375 0.984375 -0.984375 2.390625l6.65625 0zm6.8515625 5.96875q-2.25 0 -2.25 -2.375l0 -6.625l-1.6875 0l0 -1.390625l1.6875 0l0 -2.78125l1.578125 0l0 2.78125l2.046875 0l0 1.390625l-2.046875 0l0 6.296875q0 0.5625 0.25 0.9375q0.25 0.359375 0.78125 0.359375q0.640625 0 1.0625 -0.421875l0.46875 1.171875q-0.65625 0.65625 -1.890625 0.65625zm10.411072 0.015625q-3.09375 0 -5.15625 -2.0625q-2.046875 -2.0625 -2.046875 -5.203125q0 -3.15625 2.0625 -5.1875q2.0625 -2.046875 5.140625 -2.046875q3.296875 0 5.4375 2.625l-1.390625 0.859375q-0.671875 -0.859375 -1.734375 -1.390625q-1.0625 -0.546875 -2.3125 -0.546875q-2.34375 0 -3.875 1.625q-1.53125 1.609375 -1.53125 4.0625q0 2.484375 1.546875 4.109375q1.546875 1.609375 3.859375 1.609375q1.046875 0 2.046875 -0.40625q1.015625 -0.40625 1.703125 -1.109375l0 -2.859375l-4.8125 0l0 -1.546875l6.5625 0l0 5.0625q-2.1875 2.40625 -5.5 2.40625zm8.503906 -0.265625l0 -14.0l1.578125 0l0 14.0l-1.578125 0zm9.220703 0.25q-2.203125 0 -3.609375 -1.5q-1.40625 -1.5 -1.40625 -3.828125q0 -2.359375 1.40625 -3.828125q1.40625 -1.484375 3.609375 -1.484375q2.21875 0 3.625 1.484375q1.40625 1.46875 1.40625 3.828125q0 2.328125 -1.40625 3.828125q-1.40625 1.5 -3.625 1.5zm0 -1.40625q1.46875 0 2.40625 -1.09375q0.953125 -1.109375 0.953125 -2.828125q0 -1.703125 -0.953125 -2.796875q-0.9375 -1.109375 -2.40625 -1.109375q-1.46875 0 -2.421875 1.09375q-0.953125 1.09375 -0.953125 2.8125q0 1.734375 0.9375 2.828125q0.953125 1.09375 2.4375 1.09375zm9.356018 -1.59375q0.40625 0.671875 1.234375 1.140625q0.84375 0.453125 1.78125 0.453125q1.5 0 2.390625 -1.078125q0.890625 -1.078125 0.890625 -2.828125q0 -1.765625 -0.890625 -2.84375q-0.875 -1.078125 -2.390625 -1.078125q-0.9375 0 -1.78125 0.484375q-0.828125 0.484375 -1.234375 1.15625l0 4.59375zm-1.578125 2.75l0 -14.0l1.578125 0l0 5.390625q1.296875 -1.78125 3.421875 -1.78125q2.015625 0 3.265625 1.46875q1.25 1.46875 1.25 3.859375q0 2.4375 -1.25 3.875q-1.25 1.4375 -3.265625 1.4375q-1.078125 0 -1.96875 -0.484375q-0.890625 -0.5 -1.453125 -1.28125l0 1.515625l-1.578125 0zm18.607483 0l0 -1.15625q-1.28125 1.40625 -3.359375 1.40625q-1.53125 0 -2.546875 -0.96875q-1.0 -0.96875 -1.0 -2.390625q0 -1.46875 0.984375 -2.40625q1.0 -0.9375 2.5625 -0.9375q2.171875 0 3.359375 1.390625l0 -1.828125q0 -1.03125 -0.734375 -1.578125q-0.71875 -0.5625 -1.828125 -0.5625q-1.796875 0 -3.109375 1.40625l-0.734375 -1.09375q1.609375 -1.671875 4.046875 -1.671875q1.875 0 2.890625 0.90625q1.03125 0.890625 1.03125 2.515625l0 6.96875l-1.5625 0zm-2.796875 -0.875q1.875 0 2.796875 -1.265625l0 -1.90625q-0.921875 -1.265625 -2.796875 -1.265625q-1.109375 0 -1.8125 0.625q-0.6875 0.609375 -0.6875 1.59375q0 0.96875 0.6875 1.59375q0.703125 0.625 1.8125 0.625zm7.693054 0.875l0 -14.0l1.578125 0l0 14.0l-1.578125 0zm9.392578 0.25q-3.375 0 -5.375 -2.21875l1.03125 -1.328125q0.859375 0.96875 2.015625 1.484375q1.15625 0.515625 2.390625 0.515625q1.515625 0 2.40625 -0.671875q0.890625 -0.671875 0.890625 -1.75q0 -1.65625 -2.59375 -2.375q-3.09375 -0.8125 -3.953125 -1.296875q-0.84375 -0.484375 -1.296875 -1.203125q-0.453125 -0.734375 -0.453125 -1.734375q0 -1.6875 1.359375 -2.78125q1.359375 -1.109375 3.453125 -1.109375q3.15625 0 4.984375 1.953125l-1.0625 1.28125q-1.5 -1.671875 -4.046875 -1.671875q-1.265625 0 -2.078125 0.609375q-0.796875 0.609375 -0.796875 1.609375q0 0.734375 0.671875 1.25q0.671875 0.515625 1.953125 0.828125q2.984375 0.828125 3.84375 1.359375q0.875 0.515625 1.34375 1.28125q0.484375 0.765625 0.484375 1.859375q0 1.921875 -1.40625 3.015625q-1.40625 1.09375 -3.765625 1.09375zm12.373352 0q-2.21875 0 -3.640625 -1.5q-1.421875 -1.515625 -1.421875 -3.828125q0 -2.296875 1.421875 -3.796875q1.421875 -1.515625 3.640625 -1.515625q2.359375 0 3.71875 1.765625l-1.046875 0.953125q-0.96875 -1.3125 -2.59375 -1.3125q-1.546875 0 -2.53125 1.078125q-0.96875 1.078125 -0.96875 2.828125q0 1.765625 0.96875 2.84375q0.96875 1.078125 2.53125 1.078125q1.609375 0 2.59375 -1.328125l1.046875 0.96875q-1.359375 1.765625 -3.71875 1.765625zm10.51062 0q-2.203125 0 -3.609375 -1.5q-1.40625 -1.5 -1.40625 -3.828125q0 -2.359375 1.40625 -3.828125q1.40625 -1.484375 3.609375 -1.484375q2.21875 0 3.625 1.484375q1.40625 1.46875 1.40625 3.828125q0 2.328125 -1.40625 3.828125q-1.40625 1.5 -3.625 1.5zm0 -1.40625q1.46875 0 2.40625 -1.09375q0.953125 -1.109375 0.953125 -2.828125q0 -1.703125 -0.953125 -2.796875q-0.9375 -1.109375 -2.40625 -1.109375q-1.46875 0 -2.421875 1.09375q-0.953125 1.09375 -0.953125 2.8125q0 1.734375 0.9375 2.828125q0.953125 1.09375 2.4375 1.09375zm12.777832 1.40625q-2.171875 0 -3.421875 -1.78125l0 5.390625l-1.578125 0l0 -14.0l1.578125 0l0 1.515625q0.546875 -0.78125 1.4375 -1.265625q0.90625 -0.5 1.984375 -0.5q2.03125 0 3.265625 1.4375q1.25 1.421875 1.25 3.875q0 2.4375 -1.234375 3.890625q-1.234375 1.4375 -3.28125 1.4375zm-0.40625 -1.40625q1.46875 0 2.359375 -1.0625q0.890625 -1.078125 0.890625 -2.859375q0 -1.75 -0.875 -2.828125q-0.875 -1.078125 -2.375 -1.078125q-0.9375 0 -1.78125 0.46875q-0.828125 0.46875 -1.234375 1.140625l0 4.578125q0.40625 0.671875 1.234375 1.15625q0.84375 0.484375 1.78125 0.484375zm12.184143 1.40625q-2.296875 0 -3.734375 -1.484375q-1.4375 -1.5 -1.4375 -3.84375q0 -2.25 1.421875 -3.78125q1.4375 -1.53125 3.578125 -1.53125q2.1875 0 3.53125 1.515625q1.34375 1.5 1.34375 3.921875l0 0.390625l-8.21875 0q0.09375 1.5625 1.125 2.546875q1.046875 0.96875 2.53125 0.96875q1.84375 0 3.125 -1.28125l0.765625 1.03125q-1.5625 1.546875 -4.03125 1.546875zm3.140625 -5.96875q0 -1.40625 -0.921875 -2.390625q-0.921875 -0.984375 -2.40625 -0.984375q-1.40625 0 -2.34375 0.984375q-0.9375 0.984375 -0.984375 2.390625l6.65625 0z" fill-rule="nonzero"></path><path fill="#3d85c6" d="m289.18896 258.01575l191.81104 0l0 145.98425l-191.81104 0z" fill-rule="evenodd"></path><path stroke="#ffffff" stroke-width="2.0" stroke-linejoin="round" stroke-linecap="butt" d="m289.18896 258.01575l191.81104 0l0 145.98425l-191.81104 0z" fill-rule="evenodd"></path><path fill="#ffffff" d="m340.01144 326.9279l-1.125 -2.8125l-6.3125 0l-1.125 2.8125l-1.796875 0l5.09375 -12.671875l1.953125 0l5.109375 12.671875l-1.796875 0zm-4.28125 -11.03125l-2.703125 6.8125l5.390625 0l-2.6875 -6.8125zm13.650818 11.03125l0 -1.296875q-0.53125 0.609375 -1.390625 1.078125q-0.859375 0.453125 -1.890625 0.453125q-2.921875 0 -2.921875 -2.9375l0 -6.46875l1.421875 0l0 6.03125q0 1.09375 0.5 1.59375q0.5 0.5 1.5625 0.5q0.828125 0 1.5625 -0.40625q0.75 -0.421875 1.15625 -0.984375l0 -6.734375l1.421875 0l0 9.171875l-1.421875 0zm10.732727 0l0 -1.375q-0.515625 0.703125 -1.328125 1.15625q-0.796875 0.453125 -1.765625 0.453125q-1.84375 0 -2.96875 -1.3125q-1.125 -1.3125 -1.125 -3.5q0 -2.203125 1.125 -3.515625q1.140625 -1.3125 2.96875 -1.3125q0.921875 0 1.734375 0.4375q0.8125 0.421875 1.359375 1.171875l0 -4.875l1.421875 0l0 12.671875l-1.421875 0zm-2.765625 -1.046875q0.859375 0 1.609375 -0.40625q0.765625 -0.421875 1.15625 -1.03125l0 -4.171875q-0.390625 -0.609375 -1.15625 -1.03125q-0.75 -0.4375 -1.609375 -0.4375q-1.328125 0 -2.140625 0.96875q-0.796875 0.96875 -0.796875 2.578125q0 1.578125 0.796875 2.5625q0.796875 0.96875 2.140625 0.96875zm7.539856 -9.4375q-0.375 0 -0.671875 -0.265625q-0.28125 -0.28125 -0.28125 -0.6875q0 -0.40625 0.28125 -0.6875q0.296875 -0.28125 0.671875 -0.28125q0.40625 0 0.6875 0.28125q0.28125 0.28125 0.28125 0.6875q0 0.40625 -0.28125 0.6875q-0.28125 0.265625 -0.6875 0.265625zm-0.703125 10.484375l0 -9.171875l1.421875 0l0 9.171875l-1.421875 0zm8.213287 0.234375q-2.0 0 -3.28125 -1.359375q-1.265625 -1.359375 -1.265625 -3.46875q0 -2.125 1.265625 -3.46875q1.28125 -1.34375 3.28125 -1.34375q1.984375 0 3.25 1.34375q1.28125 1.34375 1.28125 3.46875q0 2.109375 -1.28125 3.46875q-1.265625 1.359375 -3.25 1.359375zm0 -1.28125q1.328125 0 2.171875 -1.0q0.859375 -1.0 0.859375 -2.546875q0 -1.546875 -0.859375 -2.53125q-0.84375 -1.0 -2.171875 -1.0q-1.328125 0 -2.203125 0.984375q-0.859375 0.984375 -0.859375 2.546875q0 1.578125 0.84375 2.5625q0.859375 0.984375 2.21875 0.984375zm16.405731 1.046875l-2.796875 -10.21875l-2.78125 10.21875l-1.71875 0l-3.609375 -12.671875l1.75 0l2.8125 10.5625l2.90625 -10.5625l1.3125 0l2.90625 10.5625l2.796875 -10.5625l1.734375 0l-3.609375 12.671875l-1.703125 0zm10.739105 0.234375q-2.0 0 -3.28125 -1.359375q-1.265625 -1.359375 -1.265625 -3.46875q0 -2.125 1.265625 -3.46875q1.28125 -1.34375 3.28125 -1.34375q1.984375 0 3.25 1.34375q1.28125 1.34375 1.28125 3.46875q0 2.109375 -1.28125 3.46875q-1.265625 1.359375 -3.25 1.359375zm0 -1.28125q1.328125 0 2.171875 -1.0q0.859375 -1.0 0.859375 -2.546875q0 -1.546875 -0.859375 -2.53125q-0.84375 -1.0 -2.171875 -1.0q-1.328125 0 -2.203125 0.984375q-0.859375 0.984375 -0.859375 2.546875q0 1.578125 0.84375 2.5625q0.859375 0.984375 2.21875 0.984375zm6.655731 1.046875l0 -9.171875l1.421875 0l0 1.484375q1.28125 -1.671875 3.0625 -1.671875l0 1.453125l-0.5625 -0.0625q-0.65625 0 -1.4375 0.46875q-0.765625 0.46875 -1.0625 1.0l0 6.5l-1.421875 0zm12.406555 0l-3.2968445 -4.125l-1.53125 1.5l0 2.625l-1.421875 0l0 -12.671875l1.421875 0l0 8.375l4.8280945 -4.875l1.8125 0l-4.0624695 4.15625l4.0780945 5.015625l-1.828125 0zm3.339325 0l0 -12.671875l1.421875 0l0 12.671875l-1.421875 0zm8.338287 0.234375q-2.0625 0 -3.375 -1.34375q-1.296875 -1.359375 -1.296875 -3.484375q0 -2.03125 1.296875 -3.421875q1.296875 -1.390625 3.234375 -1.390625q1.96875 0 3.1875 1.375q1.21875 1.359375 1.21875 3.546875l0 0.359375l-7.4375 0q0.078125 1.40625 1.015625 2.296875q0.9375 0.875 2.296875 0.875q1.671875 0 2.828125 -1.15625l0.6875 0.9375q-1.40625 1.40625 -3.65625 1.40625zm2.859375 -5.40625q0 -1.265625 -0.84375 -2.15625q-0.828125 -0.90625 -2.1875 -0.90625q-1.265625 0 -2.109375 0.90625q-0.84375 0.890625 -0.890625 2.15625l6.03125 0zm5.8315735 5.40625q-2.046875 0 -2.046875 -2.15625l0 -6.0l-1.515625 0l0 -1.25l1.515625 0l0 -2.515625l1.4375 0l0 2.515625l1.859375 0l0 1.25l-1.859375 0l0 5.703125q0 0.515625 0.21875 0.84375q0.234375 0.328125 0.703125 0.328125q0.59375 0 0.96875 -0.375l0.421875 1.0625q-0.59375 0.59375 -1.703125 0.59375z" fill-rule="nonzero"></path><path fill="#ffffff" d="m372.99222 348.9279l-7.390625 -10.109375l0 10.109375l-1.578125 0l0 -12.671875l1.609375 0l7.296875 9.890625l0 -9.890625l1.578125 0l0 12.671875l-1.515625 0zm8.192993 0.234375q-2.0 0 -3.28125 -1.359375q-1.265625 -1.359375 -1.265625 -3.46875q0 -2.125 1.265625 -3.46875q1.28125 -1.34375 3.28125 -1.34375q1.984375 0 3.25 1.34375q1.28125 1.34375 1.28125 3.46875q0 2.109375 -1.28125 3.46875q-1.265625 1.359375 -3.25 1.359375zm0 -1.28125q1.328125 0 2.171875 -1.0q0.859375 -1.0 0.859375 -2.546875q0 -1.546875 -0.859375 -2.53125q-0.84375 -1.0 -2.171875 -1.0q-1.328125 0 -2.203125 0.984375q-0.859375 0.984375 -0.859375 2.546875q0 1.578125 0.84375 2.5625q0.859375 0.984375 2.21875 0.984375zm13.312012 1.046875l0 -1.375q-0.515625 0.703125 -1.328125 1.15625q-0.796875 0.453125 -1.765625 0.453125q-1.84375 0 -2.96875 -1.3125q-1.125 -1.3125 -1.125 -3.5q0 -2.203125 1.125 -3.515625q1.140625 -1.3125 2.96875 -1.3125q0.921875 0 1.734375 0.4375q0.8125 0.421875 1.359375 1.171875l0 -4.875l1.421875 0l0 12.671875l-1.421875 0zm-2.765625 -1.046875q0.859375 0 1.609375 -0.40625q0.765625 -0.421875 1.15625 -1.03125l0 -4.171875q-0.390625 -0.609375 -1.15625 -1.03125q-0.75 -0.4375 -1.609375 -0.4375q-1.328125 0 -2.140625 0.96875q-0.796875 0.96875 -0.796875 2.578125q0 1.578125 0.796875 2.5625q0.796875 0.96875 2.140625 0.96875zm10.977325 1.28125q-2.0625 0 -3.375 -1.34375q-1.296875 -1.359375 -1.296875 -3.484375q0 -2.03125 1.296875 -3.421875q1.296875 -1.390625 3.234375 -1.390625q1.96875 0 3.1875 1.375q1.21875 1.359375 1.21875 3.546875l0 0.359375l-7.4375 0q0.078125 1.40625 1.015625 2.296875q0.9375 0.875 2.296875 0.875q1.671875 0 2.828125 -1.15625l0.6875 0.9375q-1.40625 1.40625 -3.65625 1.40625zm2.859375 -5.40625q0 -1.265625 -0.84375 -2.15625q-0.828125 -0.90625 -2.1875 -0.90625q-1.265625 0 -2.109375 0.90625q-0.84375 0.890625 -0.890625 2.15625l6.03125 0z" fill-rule="nonzero"></path><path fill="#6aa84f" d="m671.0 258.01575l191.81104 0l0 145.98425l-191.81104 0z" fill-rule="evenodd"></path><path stroke="#ffffff" stroke-width="2.0" stroke-linejoin="round" stroke-linecap="butt" d="m671.0 258.01575l191.81104 0l0 145.98425l-191.81104 0z" fill-rule="evenodd"></path><path fill="#ffffff" d="m721.82245 284.93576l-1.125 -2.8125l-6.3125 0l-1.125 2.8125l-1.796875 0l5.09375 -12.671875l1.953125 0l5.109375 12.671875l-1.796875 0zm-4.28125 -11.03125l-2.703125 6.8125l5.390625 0l-2.6875 -6.8125zm13.650818 11.03125l0 -1.296875q-0.53125 0.609375 -1.390625 1.078125q-0.859375 0.453125 -1.890625 0.453125q-2.921875 0 -2.921875 -2.9375l0 -6.46875l1.421875 0l0 6.03125q0 1.09375 0.5 1.59375q0.5 0.5 1.5625 0.5q0.828125 0 1.5625 -0.40625q0.75 -0.421875 1.15625 -0.984375l0 -6.734375l1.421875 0l0 9.171875l-1.421875 0zm10.732727 0l0 -1.375q-0.515625 0.703125 -1.328125 1.15625q-0.796875 0.453125 -1.765625 0.453125q-1.84375 0 -2.96875 -1.3125q-1.125 -1.3125 -1.125 -3.5q0 -2.203125 1.125 -3.515625q1.140625 -1.3125 2.96875 -1.3125q0.921875 0 1.734375 0.4375q0.8125 0.421875 1.359375 1.171875l0 -4.875l1.421875 0l0 12.671875l-1.421875 0zm-2.765625 -1.046875q0.859375 0 1.609375 -0.40625q0.765625 -0.421875 1.15625 -1.03125l0 -4.171875q-0.390625 -0.609375 -1.15625 -1.03125q-0.75 -0.4375 -1.609375 -0.4375q-1.328125 0 -2.140625 0.96875q-0.796875 0.96875 -0.796875 2.578125q0 1.578125 0.796875 2.5625q0.796875 0.96875 2.140625 0.96875zm7.539856 -9.4375q-0.375 0 -0.671875 -0.265625q-0.28125 -0.28125 -0.28125 -0.6875q0 -0.40625 0.28125 -0.6875q0.296875 -0.28125 0.671875 -0.28125q0.40625 0 0.6875 0.28125q0.28125 0.28125 0.28125 0.6875q0 0.40625 -0.28125 0.6875q-0.28125 0.265625 -0.6875 0.265625zm-0.703125 10.484375l0 -9.171875l1.421875 0l0 9.171875l-1.421875 0zm8.213318 0.234375q-2.0 0 -3.28125 -1.359375q-1.265625 -1.359375 -1.265625 -3.46875q0 -2.125 1.265625 -3.46875q1.28125 -1.34375 3.28125 -1.34375q1.984375 0 3.25 1.34375q1.28125 1.34375 1.28125 3.46875q0 2.109375 -1.28125 3.46875q-1.265625 1.359375 -3.25 1.359375zm0 -1.28125q1.328125 0 2.171875 -1.0q0.859375 -1.0 0.859375 -2.546875q0 -1.546875 -0.859375 -2.53125q-0.84375 -1.0 -2.171875 -1.0q-1.328125 0 -2.203125 0.984375q-0.859375 0.984375 -0.859375 2.546875q0 1.578125 0.84375 2.5625q0.859375 0.984375 2.21875 0.984375zm16.4057 1.046875l-2.796875 -10.21875l-2.78125 10.21875l-1.71875 0l-3.609375 -12.671875l1.75 0l2.8125 10.5625l2.90625 -10.5625l1.3125 0l2.90625 10.5625l2.796875 -10.5625l1.734375 0l-3.609375 12.671875l-1.703125 0zm10.739136 0.234375q-2.0 0 -3.28125 -1.359375q-1.265625 -1.359375 -1.265625 -3.46875q0 -2.125 1.265625 -3.46875q1.28125 -1.34375 3.28125 -1.34375q1.984375 0 3.25 1.34375q1.28125 1.34375 1.28125 3.46875q0 2.109375 -1.28125 3.46875q-1.265625 1.359375 -3.25 1.359375zm0 -1.28125q1.328125 0 2.171875 -1.0q0.859375 -1.0 0.859375 -2.546875q0 -1.546875 -0.859375 -2.53125q-0.84375 -1.0 -2.171875 -1.0q-1.328125 0 -2.203125 0.984375q-0.859375 0.984375 -0.859375 2.546875q0 1.578125 0.84375 2.5625q0.859375 0.984375 2.21875 0.984375zm6.6557007 1.046875l0 -9.171875l1.421875 0l0 1.484375q1.28125 -1.671875 3.0625 -1.671875l0 1.453125l-0.5625 -0.0625q-0.65625 0 -1.4375 0.46875q-0.765625 0.46875 -1.0625 1.0l0 6.5l-1.421875 0zm12.406555 0l-3.296814 -4.125l-1.53125 1.5l0 2.625l-1.421875 0l0 -12.671875l1.421875 0l0 8.375l4.828064 -4.875l1.8125 0l-4.062439 4.15625l4.078064 5.015625l-1.828125 0zm3.3393555 0l0 -12.671875l1.421875 0l0 12.671875l-1.421875 0zm8.338257 0.234375q-2.0625 0 -3.375 -1.34375q-1.296875 -1.359375 -1.296875 -3.484375q0 -2.03125 1.296875 -3.421875q1.296875 -1.390625 3.234375 -1.390625q1.96875 0 3.1875 1.375q1.21875 1.359375 1.21875 3.546875l0 0.359375l-7.4375 0q0.078125 1.40625 1.015625 2.296875q0.9375 0.875 2.296875 0.875q1.671875 0 2.828125 -1.15625l0.6875 0.9375q-1.40625 1.40625 -3.65625 1.40625zm2.859375 -5.40625q0 -1.265625 -0.84375 -2.15625q-0.828125 -0.90625 -2.1875 -0.90625q-1.265625 0 -2.109375 0.90625q-0.84375 0.890625 -0.890625 2.15625l6.03125 0zm5.831604 5.40625q-2.046875 0 -2.046875 -2.15625l0 -6.0l-1.515625 0l0 -1.25l1.515625 0l0 -2.515625l1.4375 0l0 2.515625l1.859375 0l0 1.25l-1.859375 0l0 5.703125q0 0.515625 0.21875 0.84375q0.234375 0.328125 0.703125 0.328125q0.59375 0 0.96875 -0.375l0.421875 1.0625q-0.59375 0.59375 -1.703125 0.59375z" fill-rule="nonzero"></path><path fill="#ffffff" d="m727.542 306.93576l0 -12.671875l5.09375 0q1.796875 0 2.875 1.09375q1.09375 1.078125 1.09375 2.71875q0 1.671875 -1.109375 2.75q-1.09375 1.078125 -2.859375 1.078125l-3.515625 0l0 5.03125l-1.578125 0zm4.90625 -6.4375q1.140625 0 1.828125 -0.65625q0.6875 -0.671875 0.6875 -1.765625q0 -1.078125 -0.6875 -1.734375q-0.6875 -0.671875 -1.828125 -0.671875l-3.328125 0l0 4.828125l3.328125 0zm5.982483 6.4375l0 -9.171875l1.421875 0l0 1.484375q1.28125 -1.671875 3.0625 -1.671875l0 1.453125l-0.5625 -0.0625q-0.65625 0 -1.4375 0.46875q-0.765625 0.46875 -1.0625 1.0l0 6.5l-1.421875 0zm10.17218 0.234375q-2.0 0 -3.28125 -1.359375q-1.265625 -1.359375 -1.265625 -3.46875q0 -2.125 1.265625 -3.46875q1.28125 -1.34375 3.28125 -1.34375q1.984375 0 3.25 1.34375q1.28125 1.34375 1.28125 3.46875q0 2.109375 -1.28125 3.46875q-1.265625 1.359375 -3.25 1.359375zm0 -1.28125q1.328125 0 2.171875 -1.0q0.859375 -1.0 0.859375 -2.546875q0 -1.546875 -0.859375 -2.53125q-0.84375 -1.0 -2.171875 -1.0q-1.328125 0 -2.203125 0.984375q-0.859375 0.984375 -0.859375 2.546875q0 1.578125 0.84375 2.5625q0.859375 0.984375 2.21875 0.984375zm10.702637 1.28125q-2.015625 0 -3.296875 -1.375q-1.28125 -1.375 -1.28125 -3.453125q0 -2.078125 1.28125 -3.4375q1.28125 -1.375 3.296875 -1.375q2.125 0 3.359375 1.59375l-0.9375 0.875q-0.875 -1.1875 -2.34375 -1.1875q-1.40625 0 -2.296875 0.984375q-0.875 0.96875 -0.875 2.546875q0 1.59375 0.875 2.578125q0.875 0.96875 2.296875 0.96875q1.4375 0 2.34375 -1.1875l0.9375 0.859375q-1.234375 1.609375 -3.359375 1.609375zm9.328613 0q-2.0625 0 -3.375 -1.34375q-1.296875 -1.359375 -1.296875 -3.484375q0 -2.03125 1.296875 -3.421875q1.296875 -1.390625 3.234375 -1.390625q1.96875 0 3.1875 1.375q1.21875 1.359375 1.21875 3.546875l0 0.359375l-7.4375 0q0.078125 1.40625 1.015625 2.296875q0.9375 0.875 2.296875 0.875q1.671875 0 2.828125 -1.15625l0.6875 0.9375q-1.40625 1.40625 -3.65625 1.40625zm2.859375 -5.40625q0 -1.265625 -0.84375 -2.15625q-0.828125 -0.90625 -2.1875 -0.90625q-1.265625 0 -2.109375 0.90625q-0.84375 0.890625 -0.890625 2.15625l6.03125 0zm6.409729 5.40625q-2.328125 0 -3.703125 -1.453125l0.75 -1.015625q0.453125 0.53125 1.25 0.921875q0.8125 0.375 1.765625 0.375q1.0625 0 1.609375 -0.4375q0.5625 -0.453125 0.5625 -1.140625q0 -0.59375 -0.609375 -0.9375q-0.59375 -0.359375 -2.234375 -0.75q-1.375 -0.28125 -2.109375 -0.890625q-0.734375 -0.625 -0.734375 -1.671875q0 -1.15625 0.921875 -1.890625q0.9375 -0.75 2.5 -0.75q2.0625 0 3.390625 1.328125l-0.65625 0.984375q-0.421875 -0.484375 -1.140625 -0.8125q-0.703125 -0.34375 -1.59375 -0.34375q-0.953125 0 -1.5 0.421875q-0.53125 0.421875 -0.53125 1.03125q0 0.546875 0.609375 0.875q0.609375 0.3125 2.234375 0.65625q1.390625 0.328125 2.109375 0.984375q0.71875 0.65625 0.71875 1.734375q0 1.28125 -0.984375 2.03125q-0.984375 0.75 -2.625 0.75zm8.67511 0q-2.328125 0 -3.703125 -1.453125l0.75 -1.015625q0.453125 0.53125 1.25 0.921875q0.8125 0.375 1.765625 0.375q1.0625 0 1.609375 -0.4375q0.5625 -0.453125 0.5625 -1.140625q0 -0.59375 -0.609375 -0.9375q-0.59375 -0.359375 -2.234375 -0.75q-1.375 -0.28125 -2.109375 -0.890625q-0.734375 -0.625 -0.734375 -1.671875q0 -1.15625 0.921875 -1.890625q0.9375 -0.75 2.5 -0.75q2.0625 0 3.390625 1.328125l-0.65625 0.984375q-0.421875 -0.484375 -1.140625 -0.8125q-0.703125 -0.34375 -1.59375 -0.34375q-0.953125 0 -1.5 0.421875q-0.53125 0.421875 -0.53125 1.03125q0 0.546875 0.609375 0.875q0.609375 0.3125 2.234375 0.65625q1.390625 0.328125 2.109375 0.984375q0.71875 0.65625 0.71875 1.734375q0 1.28125 -0.984375 2.03125q-0.984375 0.75 -2.625 0.75zm9.784546 0q-2.0 0 -3.28125 -1.359375q-1.265625 -1.359375 -1.265625 -3.46875q0 -2.125 1.265625 -3.46875q1.28125 -1.34375 3.28125 -1.34375q1.984375 0 3.25 1.34375q1.28125 1.34375 1.28125 3.46875q0 2.109375 -1.28125 3.46875q-1.265625 1.359375 -3.25 1.359375zm0 -1.28125q1.328125 0 2.171875 -1.0q0.859375 -1.0 0.859375 -2.546875q0 -1.546875 -0.859375 -2.53125q-0.84375 -1.0 -2.171875 -1.0q-1.328125 0 -2.203125 0.984375q-0.859375 0.984375 -0.859375 2.546875q0 1.578125 0.84375 2.5625q0.859375 0.984375 2.21875 0.984375zm6.6557617 1.046875l0 -9.171875l1.421875 0l0 1.484375q1.28125 -1.671875 3.0625 -1.671875l0 1.453125l-0.5625 -0.0625q-0.65625 0 -1.4375 0.46875q-0.765625 0.46875 -1.0625 1.0l0 6.5l-1.421875 0z" fill-rule="nonzero"></path><path fill="#ffffff" d="m694.0 335.0l150.01575 0l0 42.992126l-150.01575 0z" fill-rule="evenodd"></path><path fill="#000000" d="m726.59906 363.65045q-3.0625 0 -4.875 -2.015625l0.9375 -1.203125q0.78125 0.875 1.8125 1.34375q1.046875 0.46875 2.171875 0.46875q1.375 0 2.171875 -0.609375q0.8125 -0.609375 0.8125 -1.578125q0 -1.5 -2.359375 -2.15625q-2.78125 -0.734375 -3.5625 -1.171875q-0.765625 -0.4375 -1.171875 -1.09375q-0.40625 -0.65625 -0.40625 -1.5625q0 -1.53125 1.21875 -2.515625q1.234375 -1.0 3.125 -1.0q2.859375 0 4.5 1.765625l-0.9375 1.15625q-1.375 -1.515625 -3.671875 -1.515625q-1.140625 0 -1.875 0.546875q-0.734375 0.546875 -0.734375 1.46875q0 0.65625 0.609375 1.125q0.609375 0.46875 1.765625 0.75q2.703125 0.734375 3.484375 1.21875q0.796875 0.46875 1.21875 1.171875q0.4375 0.6875 0.4375 1.671875q0 1.75 -1.28125 2.75q-1.265625 0.984375 -3.390625 0.984375zm10.807617 0q-2.015625 0 -3.296875 -1.375q-1.28125 -1.375 -1.28125 -3.453125q0 -2.078125 1.28125 -3.4375q1.28125 -1.375 3.296875 -1.375q2.125 0 3.359375 1.59375l-0.9375 0.875q-0.875 -1.1875 -2.34375 -1.1875q-1.40625 0 -2.296875 0.984375q-0.875 0.96875 -0.875 2.546875q0 1.59375 0.875 2.578125q0.875 0.96875 2.296875 0.96875q1.4375 0 2.34375 -1.1875l0.9375 0.859375q-1.234375 1.609375 -3.359375 1.609375zm5.1879272 -0.234375l0 -9.171875l1.421875 0l0 1.484375q1.28125 -1.671875 3.0625 -1.671875l0 1.453125l-0.5625 -0.0625q-0.65625 0 -1.4375 0.46875q-0.765625 0.46875 -1.0625 1.0l0 6.5l-1.421875 0zm6.859741 -10.484375q-0.375 0 -0.671875 -0.265625q-0.28125 -0.28125 -0.28125 -0.6875q0 -0.40625 0.28125 -0.6875q0.296875 -0.28125 0.671875 -0.28125q0.40625 0 0.6875 0.28125q0.28125 0.28125 0.28125 0.6875q0 0.40625 -0.28125 0.6875q-0.28125 0.265625 -0.6875 0.265625zm-0.703125 10.484375l0 -9.171875l1.421875 0l0 9.171875l-1.421875 0zm8.728882 0.234375q-1.96875 0 -3.109375 -1.625l0 4.890625l-1.421875 0l0 -12.671875l1.421875 0l0 1.359375q0.5 -0.703125 1.3125 -1.140625q0.828125 -0.453125 1.796875 -0.453125q1.84375 0 2.953125 1.296875q1.125 1.28125 1.125 3.515625q0 2.203125 -1.109375 3.515625q-1.109375 1.3125 -2.96875 1.3125zm-0.359375 -1.28125q1.328125 0 2.125 -0.96875q0.8125 -0.96875 0.8125 -2.578125q0 -1.578125 -0.796875 -2.546875q-0.796875 -0.984375 -2.140625 -0.984375q-0.859375 0 -1.609375 0.421875q-0.75 0.421875 -1.140625 1.03125l0 4.140625q0.390625 0.609375 1.140625 1.046875q0.75 0.4375 1.609375 0.4375zm8.827637 1.28125q-2.046875 0 -2.046875 -2.15625l0 -6.0l-1.515625 0l0 -1.25l1.515625 0l0 -2.515625l1.4375 0l0 2.515625l1.859375 0l0 1.25l-1.859375 0l0 5.703125q0 0.515625 0.21875 0.84375q0.234375 0.328125 0.703125 0.328125q0.59375 0 0.96875 -0.375l0.421875 1.0625q-0.59375 0.59375 -1.703125 0.59375zm14.032593 0q-2.796875 0 -4.65625 -1.84375q-1.859375 -1.84375 -1.859375 -4.71875q0 -2.875 1.859375 -4.703125q1.859375 -1.84375 4.65625 -1.84375q3.015625 0 4.8125 2.5l-1.328125 0.734375q-0.5625 -0.796875 -1.484375 -1.3125q-0.921875 -0.515625 -2.0 -0.515625q-2.109375 0 -3.5 1.46875q-1.375 1.453125 -1.375 3.671875q0 2.25 1.375 3.703125q1.375 1.453125 3.5 1.453125q1.078125 0 2.0 -0.515625q0.921875 -0.515625 1.484375 -1.328125l1.34375 0.734375q-1.84375 2.515625 -4.828125 2.515625zm10.564758 0q-2.0 0 -3.28125 -1.359375q-1.265625 -1.359375 -1.265625 -3.46875q0 -2.125 1.265625 -3.46875q1.28125 -1.34375 3.28125 -1.34375q1.984375 0 3.25 1.34375q1.28125 1.34375 1.28125 3.46875q0 2.109375 -1.28125 3.46875q-1.265625 1.359375 -3.25 1.359375zm0 -1.28125q1.328125 0 2.171875 -1.0q0.859375 -1.0 0.859375 -2.546875q0 -1.546875 -0.859375 -2.53125q-0.84375 -1.0 -2.171875 -1.0q-1.328125 0 -2.203125 0.984375q-0.859375 0.984375 -0.859375 2.546875q0 1.578125 0.84375 2.5625q0.859375 0.984375 2.21875 0.984375zm13.312012 1.046875l0 -1.375q-0.515625 0.703125 -1.328125 1.15625q-0.796875 0.453125 -1.765625 0.453125q-1.84375 0 -2.96875 -1.3125q-1.125 -1.3125 -1.125 -3.5q0 -2.203125 1.125 -3.515625q1.140625 -1.3125 2.96875 -1.3125q0.921875 0 1.734375 0.4375q0.8125 0.421875 1.359375 1.171875l0 -4.875l1.421875 0l0 12.671875l-1.421875 0zm-2.765625 -1.046875q0.859375 0 1.609375 -0.40625q0.765625 -0.421875 1.15625 -1.03125l0 -4.171875q-0.390625 -0.609375 -1.15625 -1.03125q-0.75 -0.4375 -1.609375 -0.4375q-1.328125 0 -2.140625 0.96875q-0.796875 0.96875 -0.796875 2.578125q0 1.578125 0.796875 2.5625q0.796875 0.96875 2.140625 0.96875zm10.977356 1.28125q-2.0625 0 -3.375 -1.34375q-1.296875 -1.359375 -1.296875 -3.484375q0 -2.03125 1.296875 -3.421875q1.296875 -1.390625 3.234375 -1.390625q1.96875 0 3.1875 1.375q1.21875 1.359375 1.21875 3.546875l0 0.359375l-7.4375 0q0.078125 1.40625 1.015625 2.296875q0.9375 0.875 2.296875 0.875q1.671875 0 2.828125 -1.15625l0.6875 0.9375q-1.40625 1.40625 -3.65625 1.40625zm2.859375 -5.40625q0 -1.265625 -0.84375 -2.15625q-0.828125 -0.90625 -2.1875 -0.90625q-1.265625 0 -2.109375 0.90625q-0.84375 0.890625 -0.890625 2.15625l6.03125 0z" fill-rule="nonzero"></path><path fill="#000000" fill-opacity="0.0" d="m671.0 331.00787l-190.01575 0" fill-rule="evenodd"></path><path stroke="#434343" stroke-width="4.0" stroke-linejoin="round" stroke-linecap="butt" d="m647.0 331.00787l-142.01575 0" fill-rule="evenodd"></path><path fill="#434343" stroke="#434343" stroke-width="4.0" stroke-linecap="butt" d="m647.0 337.6148l18.152405 -6.6069336l-18.152405 -6.6069336z" fill-rule="evenodd"></path><path fill="#434343" stroke="#434343" stroke-width="4.0" stroke-linecap="butt" d="m504.98425 324.40094l-18.152405 6.6069336l18.152405 6.6069336z" fill-rule="evenodd"></path><path fill="#000000" fill-opacity="0.0" d="m307.59842 436.00787l154.99213 0l0 50.015747l-154.99213 0z" fill-rule="evenodd"></path><path fill="#000000" d="m346.22354 467.93576l0 -10.4375l-4.3125 10.4375l-0.640625 0l-4.296875 -10.4375l0 10.4375l-1.578125 0l0 -12.671875l2.265625 0l3.921875 9.53125l3.953125 -9.53125l2.265625 0l0 12.671875l-1.578125 0zm9.936676 0l0 -1.046875q-1.15625 1.28125 -3.03125 1.28125q-1.390625 0 -2.3125 -0.875q-0.90625 -0.875 -0.90625 -2.171875q0 -1.328125 0.90625 -2.171875q0.90625 -0.84375 2.3125 -0.84375q1.96875 0 3.03125 1.25l0 -1.65625q0 -0.921875 -0.65625 -1.421875q-0.640625 -0.515625 -1.65625 -0.515625q-1.609375 0 -2.8125 1.28125l-0.65625 -1.0q1.453125 -1.515625 3.65625 -1.515625q1.6875 0 2.625 0.828125q0.9375 0.8125 0.9375 2.265625l0 6.3125l-1.4375 0zm-2.515625 -0.796875q1.6875 0 2.515625 -1.140625l0 -1.734375q-0.828125 -1.140625 -2.515625 -1.140625q-1.015625 0 -1.640625 0.5625q-0.625 0.5625 -0.625 1.453125q0 0.875 0.625 1.4375q0.625 0.5625 1.640625 0.5625zm7.316223 -9.6875q-0.375 0 -0.671875 -0.265625q-0.28125 -0.28125 -0.28125 -0.6875q0 -0.40625 0.28125 -0.6875q0.296875 -0.28125 0.671875 -0.28125q0.40625 0 0.6875 0.28125q0.28125 0.28125 0.28125 0.6875q0 0.40625 -0.28125 0.6875q-0.28125 0.265625 -0.6875 0.265625zm-0.703125 10.484375l0 -9.171875l1.421875 0l0 9.171875l-1.421875 0zm10.400787 0l0 -6.0q0 -1.21875 -0.5625 -1.671875q-0.5625 -0.453125 -1.5 -0.453125q-0.796875 0 -1.5625 0.421875q-0.765625 0.421875 -1.15625 1.0l0 6.703125l-1.421875 0l0 -9.171875l1.421875 0l0 1.328125q0.59375 -0.6875 1.453125 -1.125q0.875 -0.4375 1.828125 -0.4375q2.921875 0 2.921875 2.96875l0 6.4375l-1.421875 0zm12.0772705 0l0 -11.265625l-4.0 0l0 -1.40625l9.609375 0l0 1.40625l-4.03125 0l0 11.265625l-1.578125 0zm13.665314 0l0 -6.046875q0 -1.015625 -0.484375 -1.546875q-0.484375 -0.53125 -1.59375 -0.53125q-0.78125 0 -1.515625 0.40625q-0.71875 0.390625 -1.203125 1.015625l0 6.703125l-1.421875 0l0 -12.671875l1.421875 0l0 4.828125q0.609375 -0.703125 1.484375 -1.125q0.875 -0.4375 1.8125 -0.4375q2.921875 0 2.921875 2.921875l0 6.484375l-1.421875 0zm4.0794983 0l0 -9.171875l1.421875 0l0 1.484375q1.28125 -1.671875 3.0625 -1.671875l0 1.453125l-0.5625 -0.0625q-0.65625 0 -1.4375 0.46875q-0.765625 0.46875 -1.0625 1.0l0 6.5l-1.421875 0zm10.297211 0.234375q-2.0625 0 -3.375 -1.34375q-1.296875 -1.359375 -1.296875 -3.484375q0 -2.03125 1.296875 -3.421875q1.296875 -1.390625 3.234375 -1.390625q1.96875 0 3.1875 1.375q1.21875 1.359375 1.21875 3.546875l0 0.359375l-7.4375 0q0.078125 1.40625 1.015625 2.296875q0.9375 0.875 2.296875 0.875q1.671875 0 2.828125 -1.15625l0.6875 0.9375q-1.40625 1.40625 -3.65625 1.40625zm2.859375 -5.40625q0 -1.265625 -0.84375 -2.15625q-0.828125 -0.90625 -2.1875 -0.90625q-1.265625 0 -2.109375 0.90625q-0.84375 0.890625 -0.890625 2.15625l6.03125 0zm9.2378235 5.171875l0 -1.046875q-1.15625 1.28125 -3.03125 1.28125q-1.390625 0 -2.3125 -0.875q-0.90625 -0.875 -0.90625 -2.171875q0 -1.328125 0.90625 -2.171875q0.90625 -0.84375 2.3125 -0.84375q1.96875 0 3.03125 1.25l0 -1.65625q0 -0.921875 -0.65625 -1.421875q-0.640625 -0.515625 -1.65625 -0.515625q-1.609375 0 -2.8125 1.28125l-0.65625 -1.0q1.453125 -1.515625 3.65625 -1.515625q1.6875 0 2.625 0.828125q0.9375 0.8125 0.9375 2.265625l0 6.3125l-1.4375 0zm-2.515625 -0.796875q1.6875 0 2.515625 -1.140625l0 -1.734375q-0.828125 -1.140625 -2.515625 -1.140625q-1.015625 0 -1.640625 0.5625q-0.625 0.5625 -0.625 1.453125q0 0.875 0.625 1.4375q0.625 0.5625 1.640625 0.5625zm13.269348 0.796875l0 -1.375q-0.515625 0.703125 -1.328125 1.15625q-0.796875 0.453125 -1.765625 0.453125q-1.84375 0 -2.96875 -1.3125q-1.125 -1.3125 -1.125 -3.5q0 -2.203125 1.125 -3.515625q1.140625 -1.3125 2.96875 -1.3125q0.921875 0 1.734375 0.4375q0.8125 0.421875 1.359375 1.171875l0 -4.875l1.421875 0l0 12.671875l-1.421875 0zm-2.765625 -1.046875q0.859375 0 1.609375 -0.40625q0.765625 -0.421875 1.15625 -1.03125l0 -4.171875q-0.390625 -0.609375 -1.15625 -1.03125q-0.75 -0.4375 -1.609375 -0.4375q-1.328125 0 -2.140625 0.96875q-0.796875 0.96875 -0.796875 2.578125q0 1.578125 0.796875 2.5625q0.796875 0.96875 2.140625 0.96875z" fill-rule="nonzero"></path><path fill="#000000" fill-opacity="0.0" d="m619.01575 436.00787l300.0 0l0 50.015747l-300.0 0z" fill-rule="evenodd"></path><path fill="#000000" d="m673.6138 467.93576l-2.796875 -10.21875l-2.78125 10.21875l-1.71875 0l-3.609375 -12.671875l1.75 0l2.8125 10.5625l2.90625 -10.5625l1.3125 0l2.90625 10.5625l2.796875 -10.5625l1.734375 0l-3.609375 12.671875l-1.703125 0zm10.864136 0.234375q-2.0625 0 -3.375 -1.34375q-1.296875 -1.359375 -1.296875 -3.484375q0 -2.03125 1.296875 -3.421875q1.296875 -1.390625 3.234375 -1.390625q1.96875 0 3.1875 1.375q1.21875 1.359375 1.21875 3.546875l0 0.359375l-7.4375 0q0.078125 1.40625 1.015625 2.296875q0.9375 0.875 2.296875 0.875q1.671875 0 2.828125 -1.15625l0.6875 0.9375q-1.40625 1.40625 -3.65625 1.40625zm2.859375 -5.40625q0 -1.265625 -0.84375 -2.15625q-0.828125 -0.90625 -2.1875 -0.90625q-1.265625 0 -2.109375 0.90625q-0.84375 0.890625 -0.890625 2.15625l6.03125 0zm4.925293 2.6875q0.390625 0.609375 1.140625 1.03125q0.75 0.40625 1.609375 0.40625q1.34375 0 2.140625 -0.96875q0.8125 -0.984375 0.8125 -2.5625q0 -1.59375 -0.796875 -2.5625q-0.796875 -0.984375 -2.15625 -0.984375q-0.859375 0 -1.609375 0.4375q-0.75 0.421875 -1.140625 1.03125l0 4.171875zm-1.421875 2.484375l0 -12.671875l1.421875 0l0 4.875q1.1875 -1.609375 3.109375 -1.609375q1.8125 0 2.9375 1.328125q1.140625 1.328125 1.140625 3.5q0 2.203125 -1.140625 3.515625q-1.125 1.296875 -2.9375 1.296875q-0.96875 0 -1.78125 -0.453125q-0.8125 -0.453125 -1.328125 -1.15625l0 1.375l-1.421875 0zm19.836731 0l-1.125 -2.8125l-6.3125 0l-1.125 2.8125l-1.796875 0l5.09375 -12.671875l1.953125 0l5.109375 12.671875l-1.796875 0zm-4.28125 -11.03125l-2.703125 6.8125l5.390625 0l-2.6875 -6.8125zm13.650818 11.03125l0 -1.296875q-0.53125 0.609375 -1.390625 1.078125q-0.859375 0.453125 -1.890625 0.453125q-2.921875 0 -2.921875 -2.9375l0 -6.46875l1.421875 0l0 6.03125q0 1.09375 0.5 1.59375q0.5 0.5 1.5625 0.5q0.828125 0 1.5625 -0.40625q0.75 -0.421875 1.15625 -0.984375l0 -6.734375l1.421875 0l0 9.171875l-1.421875 0zm10.732727 0l0 -1.375q-0.515625 0.703125 -1.328125 1.15625q-0.796875 0.453125 -1.765625 0.453125q-1.84375 0 -2.96875 -1.3125q-1.125 -1.3125 -1.125 -3.5q0 -2.203125 1.125 -3.515625q1.140625 -1.3125 2.96875 -1.3125q0.921875 0 1.734375 0.4375q0.8125 0.421875 1.359375 1.171875l0 -4.875l1.421875 0l0 12.671875l-1.421875 0zm-2.765625 -1.046875q0.859375 0 1.609375 -0.40625q0.765625 -0.421875 1.15625 -1.03125l0 -4.171875q-0.390625 -0.609375 -1.15625 -1.03125q-0.75 -0.4375 -1.609375 -0.4375q-1.328125 0 -2.140625 0.96875q-0.796875 0.96875 -0.796875 2.578125q0 1.578125 0.796875 2.5625q0.796875 0.96875 2.140625 0.96875zm7.539856 -9.4375q-0.375 0 -0.671875 -0.265625q-0.28125 -0.28125 -0.28125 -0.6875q0 -0.40625 0.28125 -0.6875q0.296875 -0.28125 0.671875 -0.28125q0.40625 0 0.6875 0.28125q0.28125 0.28125 0.28125 0.6875q0 0.40625 -0.28125 0.6875q-0.28125 0.265625 -0.6875 0.265625zm-0.703125 10.484375l0 -9.171875l1.421875 0l0 9.171875l-1.421875 0zm8.213257 0.234375q-2.0 0 -3.28125 -1.359375q-1.265625 -1.359375 -1.265625 -3.46875q0 -2.125 1.265625 -3.46875q1.28125 -1.34375 3.28125 -1.34375q1.984375 0 3.25 1.34375q1.281311 1.34375 1.281311 3.46875q0 2.109375 -1.281311 3.46875q-1.265625 1.359375 -3.25 1.359375zm0 -1.28125q1.328125 0 2.171875 -1.0q0.859375 -1.0 0.859375 -2.546875q0 -1.546875 -0.859375 -2.53125q-0.84375 -1.0 -2.171875 -1.0q-1.328125 0 -2.203125 0.984375q-0.859375 0.984375 -0.859375 2.546875q0 1.578125 0.84375 2.5625q0.859375 0.984375 2.21875 0.984375zm18.859741 1.046875l-3.21875 -5.03125l-2.53125 0l0 5.03125l-1.578125 0l0 -12.671875l5.09375 0q1.78125 0 2.875 1.0625q1.09375 1.0625 1.09375 2.75q0 1.59375 -0.921875 2.578125q-0.921875 0.984375 -2.359375 1.109375l3.40625 5.171875l-1.859375 0zm-2.421875 -6.421875q1.140625 0 1.828125 -0.671875q0.6875 -0.671875 0.6875 -1.765625q0 -1.078125 -0.6875 -1.734375q-0.6875 -0.671875 -1.828125 -0.671875l-3.328125 0l0 4.84375l3.328125 0zm10.514832 6.65625q-2.0625 0 -3.375 -1.34375q-1.296875 -1.359375 -1.296875 -3.484375q0 -2.03125 1.296875 -3.421875q1.296875 -1.390625 3.234375 -1.390625q1.96875 0 3.1875 1.375q1.21875 1.359375 1.21875 3.546875l0 0.359375l-7.4375 0q0.078125 1.40625 1.015625 2.296875q0.9375 0.875 2.296875 0.875q1.671875 0 2.828125 -1.15625l0.6875 0.9375q-1.40625 1.40625 -3.65625 1.40625zm2.859375 -5.40625q0 -1.265625 -0.84375 -2.15625q-0.828125 -0.90625 -2.1875 -0.90625q-1.265625 0 -2.109375 0.90625q-0.84375 0.890625 -0.890625 2.15625l6.03125 0zm9.706604 5.171875l0 -6.0q0 -1.21875 -0.5625 -1.671875q-0.5625 -0.453125 -1.5 -0.453125q-0.796875 0 -1.5625 0.421875q-0.765625 0.421875 -1.15625 1.0l0 6.703125l-1.421875 0l0 -9.171875l1.421875 0l0 1.328125q0.59375 -0.6875 1.453125 -1.125q0.875 -0.4375 1.828125 -0.4375q2.921875 0 2.921875 2.96875l0 6.4375l-1.421875 0zm10.732727 0l0 -1.375q-0.515625 0.703125 -1.328125 1.15625q-0.796875 0.453125 -1.765625 0.453125q-1.84375 0 -2.96875 -1.3125q-1.125 -1.3125 -1.125 -3.5q0 -2.203125 1.125 -3.515625q1.140625 -1.3125 2.96875 -1.3125q0.921875 0 1.734375 0.4375q0.8125 0.421875 1.359375 1.171875l0 -4.875l1.421875 0l0 12.671875l-1.421875 0zm-2.765625 -1.046875q0.859375 0 1.609375 -0.40625q0.765625 -0.421875 1.15625 -1.03125l0 -4.171875q-0.390625 -0.609375 -1.15625 -1.03125q-0.75 -0.4375 -1.609375 -0.4375q-1.328125 0 -2.140625 0.96875q-0.796875 0.96875 -0.796875 2.578125q0 1.578125 0.796875 2.5625q0.796875 0.96875 2.140625 0.96875zm10.977356 1.28125q-2.0625 0 -3.375 -1.34375q-1.296875 -1.359375 -1.296875 -3.484375q0 -2.03125 1.296875 -3.421875q1.296875 -1.390625 3.234375 -1.390625q1.96875 0 3.1875 1.375q1.21875 1.359375 1.21875 3.546875l0 0.359375l-7.4375 0q0.078125 1.40625 1.015625 2.296875q0.9375 0.875 2.296875 0.875q1.671875 0 2.828125 -1.15625l0.6875 0.9375q-1.40625 1.40625 -3.65625 1.40625zm2.859375 -5.40625q0 -1.265625 -0.84375 -2.15625q-0.828125 -0.90625 -2.1875 -0.90625q-1.265625 0 -2.109375 0.90625q-0.84375 0.890625 -0.890625 2.15625l6.03125 0zm3.503479 5.171875l0 -9.171875l1.421875 0l0 1.484375q1.28125 -1.671875 3.0625 -1.671875l0 1.453125l-0.5625 -0.0625q-0.65625 0 -1.4375 0.46875q-0.765625 0.46875 -1.0625 1.0l0 6.5l-1.421875 0zm14.157349 0l0 -11.265625l-4.0 0l0 -1.40625l9.609375 0l0 1.40625l-4.03125 0l0 11.265625l-1.578125 0zm13.665344 0l0 -6.046875q0 -1.015625 -0.484375 -1.546875q-0.484375 -0.53125 -1.59375 -0.53125q-0.78125 0 -1.515625 0.40625q-0.71875 0.390625 -1.203125 1.015625l0 6.703125l-1.421875 0l0 -12.671875l1.421875 0l0 4.828125q0.609375 -0.703125 1.484375 -1.125q0.875 -0.4375 1.8125 -0.4375q2.921875 0 2.921875 2.921875l0 6.484375l-1.421875 0zm4.079468 0l0 -9.171875l1.421875 0l0 1.484375q1.28125 -1.671875 3.0625 -1.671875l0 1.453125l-0.5625 -0.0625q-0.65625 0 -1.4375 0.46875q-0.765625 0.46875 -1.0625 1.0l0 6.5l-1.421875 0zm10.29718 0.234375q-2.0625 0 -3.375 -1.34375q-1.296875 -1.359375 -1.296875 -3.484375q0 -2.03125 1.296875 -3.421875q1.296875 -1.390625 3.234375 -1.390625q1.96875 0 3.1875 1.375q1.21875 1.359375 1.21875 3.546875l0 0.359375l-7.4375 0q0.078125 1.40625 1.015625 2.296875q0.9375 0.875 2.296875 0.875q1.671875 0 2.828125 -1.15625l0.6875 0.9375q-1.40625 1.40625 -3.65625 1.40625zm2.859375 -5.40625q0 -1.265625 -0.84375 -2.15625q-0.828125 -0.90625 -2.1875 -0.90625q-1.265625 0 -2.109375 0.90625q-0.84375 0.890625 -0.890625 2.15625l6.03125 0zm9.237854 5.171875l0 -1.046875q-1.15625 1.28125 -3.03125 1.28125q-1.390625 0 -2.3125 -0.875q-0.90625 -0.875 -0.90625 -2.171875q0 -1.328125 0.90625 -2.171875q0.90625 -0.84375 2.3125 -0.84375q1.96875 0 3.03125 1.25l0 -1.65625q0 -0.921875 -0.65625 -1.421875q-0.640625 -0.515625 -1.65625 -0.515625q-1.609375 0 -2.8125 1.28125l-0.65625 -1.0q1.453125 -1.515625 3.65625 -1.515625q1.6875 0 2.625 0.828125q0.9375 0.8125 0.9375 2.265625l0 6.3125l-1.4375 0zm-2.515625 -0.796875q1.6875 0 2.515625 -1.140625l0 -1.734375q-0.828125 -1.140625 -2.515625 -1.140625q-1.015625 0 -1.640625 0.5625q-0.625 0.5625 -0.625 1.453125q0 0.875 0.625 1.4375q0.625 0.5625 1.640625 0.5625zm13.269348 0.796875l0 -1.375q-0.515625 0.703125 -1.328125 1.15625q-0.796875 0.453125 -1.765625 0.453125q-1.84375 0 -2.96875 -1.3125q-1.125 -1.3125 -1.125 -3.5q0 -2.203125 1.125 -3.515625q1.140625 -1.3125 2.96875 -1.3125q0.921875 0 1.734375 0.4375q0.8125 0.421875 1.359375 1.171875l0 -4.875l1.421875 0l0 12.671875l-1.421875 0zm-2.765625 -1.046875q0.859375 0 1.609375 -0.40625q0.765625 -0.421875 1.15625 -1.03125l0 -4.171875q-0.390625 -0.609375 -1.15625 -1.03125q-0.75 -0.4375 -1.609375 -0.4375q-1.328125 0 -2.140625 0.96875q-0.796875 0.96875 -0.796875 2.578125q0 1.578125 0.796875 2.5625q0.796875 0.96875 2.140625 0.96875z" fill-rule="nonzero"></path></g></svg>

