<?xml version="1.0" encoding="UTF-8" standalone="no"?>
<svg width="43px" height="58px" viewBox="0 0 43 58" version="1.1" xmlns="http://www.w3.org/2000/svg" xmlns:xlink="http://www.w3.org/1999/xlink" xmlns:sketch="http://www.bohemiancoding.com/sketch/ns">
    <title>Slice 1</title>
    <description>Created with Sketch (http://www.bohemiancoding.com/sketch)</description>
    <defs></defs>
    <g id="Page-1" stroke="none" stroke-width="1" fill="none" fill-rule="evenodd" sketch:type="MSPage">
        <g id="device-access" sketch:type="MSLayerGroup" transform="translate(-2.000000, 4.000000)" stroke="#4D4D4D" fill="#4D4D4D">
            <g id="Page-1" sketch:type="MSShapeGroup">
                <path d="M8.00254308,0 C3.58286058,0 0,3.5882405 0,7.99367773 L0,48.0063223 C0,52.4211086 3.58463172,56 8.00254308,56 L32.9974569,56 C37.4171394,56 41,52.4117595 41,48.0063223 L41,7.99367773 C41,3.57889143 37.4153683,0 32.9974569,0 L8.00254308,0 Z M20.5,54 C21.8807119,54 23,52.8807119 23,51.5 C23,50.1192881 21.8807119,49 20.5,49 C19.1192881,49 18,50.1192881 18,51.5 C18,52.8807119 19.1192881,54 20.5,54 Z M19.0729733,4 L10.0042738,4.00000036 C7.24048969,4.00000016 5,6.23629957 5,8.99571021 L5,42.0042898 C5,44.7633444 7.22944355,47 9.99790202,47 L31.002098,47 C33.762363,47 36,44.7637004 36,42.0042898 L36,8.99571021 C36,6.23665565 33.7626521,4 30.9971303,4 L19.0729733,4 Z" id="Rectangle-1"></path>
            </g>
        </g>
    </g>
</svg>