<?xml version="1.0" encoding="UTF-8" standalone="no"?>
<svg width="118px" height="235px" viewBox="0 0 118 235" version="1.1" xmlns="http://www.w3.org/2000/svg" xmlns:xlink="http://www.w3.org/1999/xlink" xmlns:sketch="http://www.bohemiancoding.com/sketch/ns">
    <title>monetization</title>
    <description>Created with Sketch (http://www.bohemiancoding.com/sketch)</description>
    <defs></defs>
    <g id="Page-1" stroke="none" stroke-width="1" fill="none" fill-rule="evenodd" sketch:type="MSPage">
        <g id="monetization" sketch:type="MSLayerGroup" transform="translate(3.000000, 3.000000)" stroke-width="6" stroke="#4D4D4D" fill="#4D4D4D">
            <g id="Page-1" sketch:type="MSShapeGroup">
                <path d="M80.3586055,140.054315 C75.242471,134.93818 66.8489388,130.381691 55.177757,126.384711 C39.0299575,121.508396 26.8393512,114.993416 18.6055722,106.839577 C10.3717933,98.685737 6.25496555,87.8141146 6.25496555,74.2243823 C6.25496555,61.0343481 10.0320551,50.282633 17.5863474,41.9689144 C25.1406397,33.6551959 35.5526166,28.6590457 48.8225905,26.9803141 L48.8225905,0.48046875 L67.7681813,0.48046875 L67.7681813,27.1002229 C81.1980343,29.0187733 91.6100112,34.7543537 99.004424,44.3071361 C106.398837,53.8599184 110.095989,66.6700474 110.095989,82.7379073 L86.5938633,82.7379073 C86.5938633,71.8661215 84.0758036,63.0728973 79.0396087,56.3579707 C74.0034138,49.6430442 67.0088036,46.2856313 58.0555682,46.2856313 C48.6226953,46.2856313 41.5681313,48.7437372 36.8916646,53.6600227 C32.2151979,58.5763082 29.8769997,65.3111186 29.8769997,73.8646559 C29.8769997,81.6187972 32.2951363,87.8939618 37.1314822,92.6903379 C41.9678281,97.486714 50.7010985,102.043203 63.3315556,106.359941 C79.7191738,111.635955 91.869811,118.210889 99.783832,126.084939 C107.697852,133.95899 111.654803,144.650751 111.654803,158.160544 C111.654803,171.910156 107.537975,182.841732 99.304196,190.955602 C91.0704174,199.069471 79.7591335,203.88576 65.3700052,205.404612 L65.3700052,228.427102 L46.5443232,228.427102 L46.5443232,205.524521 C32.7947118,204.085608 21.523397,199.069474 12.7300409,190.475966 C3.93668473,181.882459 -0.30005059,169.272176 0.01970782,152.644739 L0.25952542,152.045195 L23.0421979,152.045195 C23.0421979,164.355894 26.139811,173.129133 32.3351301,178.365177 C38.5304492,183.601221 46.144582,186.219204 55.177757,186.219204 C65.4899656,186.219204 73.5437596,183.761098 79.3393807,178.844813 C85.1350018,173.928527 88.0327689,167.113778 88.0327689,158.400362 C88.0327689,151.285737 85.47474,145.170449 80.3586055,140.054315 L80.3586055,140.054315 Z" id="$"></path>
            </g>
        </g>
    </g>
</svg>