<?xml version="1.0" encoding="UTF-8" standalone="no"?>
<svg width="118px" height="235px" viewBox="0 0 118 235" version="1.1" xmlns="http://www.w3.org/2000/svg" xmlns:xlink="http://www.w3.org/1999/xlink" xmlns:sketch="http://www.bohemiancoding.com/sketch/ns">
    <title>monetization</title>
    <description>Created with Sketch (http://www.bohemiancoding.com/sketch)</description>
    <defs></defs>
    <g id="Page-1" stroke="none" stroke-width="1" fill="none" fill-rule="evenodd" sketch:type="MSPage">
        <path d="M83.3586055,143.054315 C78.242471,137.93818 69.8489388,133.381691 58.177757,129.384711 C42.0299575,124.508396 29.8393512,117.993416 21.6055722,109.839577 C13.3717933,101.685737 9.25496555,90.8141146 9.25496555,77.2243823 C9.25496555,64.0343481 13.0320551,53.282633 20.5863474,44.9689144 C28.1406397,36.6551959 38.5526166,31.6590457 51.8225905,29.9803141 L51.8225905,3.48046875 L70.7681813,3.48046875 L70.7681813,30.1002229 C84.1980343,32.0187733 94.6100112,37.7543537 102.004424,47.3071361 C109.398837,56.8599184 113.095989,69.6700474 113.095989,85.7379073 L89.5938633,85.7379073 C89.5938633,74.8661215 87.0758036,66.0728973 82.0396087,59.3579707 C77.0034138,52.6430442 70.0088036,49.2856313 61.0555682,49.2856313 C51.6226953,49.2856313 44.5681313,51.7437372 39.8916646,56.6600227 C35.2151979,61.5763082 32.8769997,68.3111186 32.8769997,76.8646559 C32.8769997,84.6187972 35.2951363,90.8939618 40.1314822,95.6903379 C44.9678281,100.486714 53.7010985,105.043203 66.3315556,109.359941 C82.7191738,114.635955 94.869811,121.210889 102.783832,129.084939 C110.697852,136.95899 114.654803,147.650751 114.654803,161.160544 C114.654803,174.910156 110.537975,185.841732 102.304196,193.955602 C94.0704174,202.069471 82.7591335,206.88576 68.3700052,208.404612 L68.3700052,231.427102 L49.5443232,231.427102 L49.5443232,208.524521 C35.7947118,207.085608 24.523397,202.069474 15.7300409,193.475966 C6.93668473,184.882459 2.69994941,172.272176 3.01970782,155.644739 L3.25952542,155.045195 L26.0421979,155.045195 C26.0421979,167.355894 29.139811,176.129133 35.3351301,181.365177 C41.5304492,186.601221 49.144582,189.219204 58.177757,189.219204 C68.4899656,189.219204 76.5437596,186.761098 82.3393807,181.844813 C88.1350018,176.928527 91.0327689,170.113778 91.0327689,161.400362 C91.0327689,154.285737 88.47474,148.170449 83.3586055,143.054315 Z" id="$" stroke="#979797" stroke-width="6" sketch:type="MSShapeGroup"></path>
    </g>
</svg>