<?xml version="1.0" encoding="utf-8"?>
<!DOCTYPE svg PUBLIC "-//W3C//DTD SVG 1.1//EN" "http://www.w3.org/Graphics/SVG/1.1/DTD/svg11.dtd">
<svg version="1.1" id="Layer_1" xmlns="http://www.w3.org/2000/svg" xmlns:xlink="http://www.w3.org/1999/xlink" x="0px" y="0px"
	 viewBox="11.6 238.5 591.7 260.1" enable-background="new 11.6 238.5 591.7 260.1" xml:space="preserve">
<rect x="0" y="223.9" fill="none" width="612" height="344.2"/>
<path fill="#CCCCCC" d="M383.1,239.5h219.3v3.7H383.1V239.5z"/>
<path fill="#C9DAF8" d="M547.5,243.2h54.8V351h-54.8V243.2z"/>
<path fill="#1C4587" d="M437.9,243.2h109.6V351H437.9V243.2z"/>
<path fill="#3C78D8" d="M383.1,243.2h54.8V351h-54.8V243.2z"/>
<path fill-opacity="0" d="M383.1,239.5h219.3V351H383.1V239.5z"/>
<path fill="none" stroke="#000000" stroke-width="2" stroke-linejoin="round" stroke-miterlimit="10" d="M383.1,239.5h219.3V351
	H383.1V239.5z"/>
<path fill="#CCCCCC" d="M204.8,239.5h164.4v3.7H204.8V239.5z"/>
<path fill="#C9DAF8" d="M204.8,351H370v48.9H204.8V351z"/>
<path fill="#3C78D8" d="M204.8,243.2h54.8V351h-54.8V243.2z"/>
<path fill="#1C4587" d="M259.6,243.2h109.6V351H259.6V243.2z"/>
<path fill-opacity="0" d="M204.8,239.5h164.4V351H204.8V239.5z"/>
<path fill="none" stroke="#000000" stroke-width="2" stroke-linejoin="round" stroke-miterlimit="10" d="M204.8,239.5h164.4V351
	H204.8V239.5z"/>
<path fill="#CCCCCC" d="M81.3,239.5h109.6v3.7H81.3V239.5z"/>
<path fill="#3C78D8" d="M81.3,302h109.6v65.2H81.3V302z"/>
<path fill="#1C4587" d="M81.3,243.2h109.6V302H81.3V243.2z"/>
<path fill-opacity="0" d="M81.3,239.5h109.6V351H81.3V239.5z"/>
<path fill="none" stroke="#000000" stroke-width="2" stroke-linejoin="round" stroke-miterlimit="10" d="M81.3,239.5h109.6V351H81.3
	V239.5z"/>
<path fill="#C9DAF8" d="M81.3,367.3h109.6v65.2H81.3V367.3z"/>
<path fill="#1C4587" d="M12.6,243.2h54.8v125H12.6L12.6,243.2z"/>
<path fill="#CCCCCC" d="M12.6,239.5h54.8v3.7H12.6L12.6,239.5z"/>
<path fill-opacity="0" d="M12.6,239.5h54.8V351H12.6L12.6,239.5z"/>
<path fill="none" stroke="#000000" stroke-width="2" stroke-linejoin="round" stroke-miterlimit="10" d="M12.6,239.5h54.8V351H12.6
	L12.6,239.5z"/>
<path fill="#3C78D8" d="M12.6,368.2h54.8v65.2H12.6L12.6,368.2z"/>
<path fill="#C9DAF8" d="M12.6,433.4h54.8v65.2H12.6L12.6,433.4z"/>
</svg>
