<svg xmlns="http://www.w3.org/2000/svg" viewBox="0 0 30 30"><path d="M15.5 26.3c-.2 0-.4-.1-.5-.3l-2.4-7.3-7.3-2.4c-.1-.1-.3-.3-.3-.5s.1-.4.2-.5l24-14c.2-.1.4-.1.5 0 .2.2.3.4.3.6l-4 21c0 .1-.1.3-.2.3-.1.1-.3.1-.4 0L16.9 20l-.9 5.9c0 .2-.2.4-.5.4zM6.7 15.7l6.5 2.2c.1 0 .3.2.3.3l1.8 5.5.7-4.5c0-.2.1-.3.2-.4.1-.1.3-.1.4 0l8.4 3.3 3.7-19.3-22 12.9z" fill="#fc0f69"/><path d="M16.5 19.8c-.1 0-.2 0-.3-.1-.2-.2-.3-.5-.1-.7L25 7 13.4 18.6c-.2.2-.5.2-.7 0s-.2-.5 0-.7L29.1 1.4c.2-.2.5-.2.7 0s.2.5.1.7l-13 17.5c-.1.1-.2.2-.4.2zm-1 6.5c-.1 0-.2 0-.3-.1-.2-.2-.3-.5-.1-.7l4-5c.2-.2.5-.2.7-.1.2.2.3.5.1.7l-4 5c-.1.1-.3.2-.4.2zM1.4 24.7c-.1 0-.2 0-.3-.1l-.9-.9c-.2-.2-.2-.5 0-.7s.5-.2.7 0l.9.9c.2.2.2.5 0 .7-.1 0-.3.1-.4.1zm7.4 4c-.6-.1-1.2-.2-1.7-.4-.3-.1-.4-.4-.3-.6s.4-.4.6-.3c.5.2 1 .3 1.5.3.3 0 .5.3.4.6 0 .2-.2.4-.5.4zm2.4 0c-.2 0-.5-.2-.5-.4 0-.3.1-.5.4-.6.2 0 .3-.1.5-.1.3-.1.5.1.6.4.1.3-.1.5-.4.6-.1 0-.3 0-.6.1.1 0 .1 0 0 0zm-6.1-1.3c-.1 0-.2 0-.2-.1-.5-.3-.9-.6-1.4-.9-.2-.2-.3-.5-.1-.7.2-.2.5-.3.7-.1.4.3.9.6 1.3.8.2.1.3.4.2.7-.2.2-.3.3-.5.3zm8 .7c-.2 0-.4-.1-.5-.3-.1-.3 0-.5.3-.7.4-.2.7-.3 1.1-.5.2-.1.5-.1.7.2.1.2.1.5-.2.7l-1.2.6h-.2z" fill="#fc0f69"/></svg>