<svg xmlns="http://www.w3.org/2000/svg" viewBox="0 0 340.773 175.44"><path fill="#fff" fill-rule="evenodd" d="M114.713 3.38h219.622v165.667H114.713z" clip-rule="evenodd"/><path fill="none" stroke="#000" d="M114.713 3.38h219.622v165.667H114.713zM89.995 27.882h19.673" stroke-linecap="round" stroke-linejoin="round"/><path d="M108.792 30.883l5.182-2.992-5.182-2.991z"/><path fill="#ecbec0" fill-rule="evenodd" d="M3.38 3.38h87.016v40.413H3.38z" clip-rule="evenodd"/><path fill="none" stroke="#000" d="M3.38 3.38h87.016v40.413H3.38z" stroke-linecap="round" stroke-linejoin="round"/><path fill="#ccc" fill-rule="evenodd" stroke="#000" d="M159.667 20.047h137.169v71.334H159.667z" clip-rule="evenodd" stroke-linecap="round" stroke-linejoin="round"/><path fill="#fddfbb" fill-rule="evenodd" stroke="#000" d="M159.668 110.047h137.169v25.667H159.668z" clip-rule="evenodd" stroke-linecap="round" stroke-linejoin="round"/><path fill="#fddfbb" fill-rule="evenodd" stroke="#000" d="M159.668 135.713h137.169v25.666H159.668zM10.046 23.586h73.683v20.206H10.046z" clip-rule="evenodd" stroke-linecap="round" stroke-linejoin="round"/><path fill="#e6e6e6" fill-rule="evenodd" d="M3.38 43.792h87.016v31.821H3.38z" clip-rule="evenodd"/><path fill="none" stroke="#000" d="M3.38 43.792h87.016v31.821H3.38z" stroke-linecap="round" stroke-linejoin="round"/><path fill="#b2d4eb" fill-rule="evenodd" d="M3.381 75.614h87.016v31.821H3.381z" clip-rule="evenodd"/><path fill="none" stroke="#000" d="M3.381 75.614h87.016v31.821H3.381z" stroke-linecap="round" stroke-linejoin="round"/><path fill="#b2dec7" fill-rule="evenodd" d="M3.381 107.435h87.016v31.821H3.381z" clip-rule="evenodd"/><path fill="none" stroke="#000" d="M3.381 107.435h87.016v31.821H3.381z" stroke-linecap="round" stroke-linejoin="round"/><path fill="none" stroke="#009245" d="M159.668 80.38h-18v68.165h13.667" stroke-linecap="round" stroke-linejoin="round"/><path fill="#009245" d="M154.459 151.546l5.182-2.991-5.182-2.992z"/><path fill="none" stroke="#f7931e" d="M306.668 45.243h9v78.103h-13.667" stroke-linecap="round" stroke-linejoin="round"/><path fill="#f7931e" d="M302.876 120.345l-5.181 2.991 5.181 2.992z"/><path fill="none" stroke="#f7931e" d="M300.58 27.171c7.189 2.585-2.591 16.059 4.175 18.071-6.766 2.013 3.014 15.487-4.175 18.071" stroke-linejoin="round"/><path d="M11.913 15.068l-.36 1.749h-1.039l1.499-6.736h1.249l1.39 6.736h-1.04l-.36-1.749h-1.339zm1.23-.84l-.28-1.549c-.09-.439-.18-1.06-.25-1.529h-.03c-.07.47-.17 1.119-.25 1.539l-.3 1.539h1.11zm2.201-.749c0-.66-.02-1.12-.04-1.529h.93l.06.59h.02c.23-.46.6-.67 1.02-.67.97 0 1.469 1.039 1.469 2.499 0 1.778-.759 2.528-1.549 2.528-.43 0-.69-.26-.83-.51h-.02v2.349h-1.06v-5.257zm1.059 1.559c0 .15.02.3.05.41.13.47.38.569.56.569.54 0 .72-.77.72-1.629 0-.97-.23-1.619-.72-1.619-.27 0-.51.3-.569.63-.03.109-.04.229-.04.359v1.28zm3.191-1.559c0-.66-.02-1.12-.04-1.529h.93l.06.59h.02c.23-.46.6-.67 1.02-.67.97 0 1.469 1.039 1.469 2.499 0 1.778-.759 2.528-1.549 2.528-.43 0-.69-.26-.83-.51h-.02v2.349h-1.06v-5.257zm1.059 1.559c0 .15.02.3.05.41.13.47.38.569.56.569.54 0 .72-.77.72-1.629 0-.97-.23-1.619-.72-1.619-.27 0-.51.3-.569.63-.03.109-.04.229-.04.359v1.28zm3.19-5.137h1.069v6.916h-1.069V9.901zm2.61 1.399c-.31 0-.56-.25-.56-.62 0-.38.26-.619.569-.619.34 0 .58.239.58.619 0 .37-.24.62-.58.62h-.009zm-.51 5.517V11.95h1.069v4.867h-1.069zm4.609-.1c-.15.08-.46.159-.819.159-1.16 0-1.929-.859-1.929-2.458 0-1.459.81-2.539 2.099-2.539.29 0 .569.07.699.14l-.16.85c-.11-.04-.28-.109-.52-.109-.689 0-1.049.739-1.049 1.639 0 1 .4 1.6 1.049 1.6.2 0 .37-.04.52-.11l.11.828zm3.629-1.009c0 .38.01.79.06 1.109h-.959l-.06-.489h-.02c-.25.369-.609.569-1.029.569-.7 0-1.229-.58-1.229-1.439 0-1.249 1.06-1.779 2.159-1.789v-.13c0-.51-.2-.859-.73-.859-.35 0-.64.1-.909.27l-.2-.729c.24-.149.75-.35 1.339-.35 1.259 0 1.579.859 1.579 1.899v1.938zm-1.049-1.33c-.42.01-1.169.12-1.169.97 0 .549.29.749.53.749.27 0 .52-.18.61-.56.02-.07.03-.16.03-.25v-.909zm3.221-3.638v1.21h.939v.77h-.939v2.528c0 .6.23.75.5.75.12 0 .22-.01.33-.03l.02.83c-.16.05-.4.079-.7.079-.34 0-.649-.09-.859-.3-.24-.239-.36-.589-.36-1.319V12.72h-.58v-.77h.58v-.84l1.069-.37zm2.09.56c-.31 0-.56-.25-.56-.62 0-.38.26-.619.569-.619.34 0 .58.239.58.619 0 .37-.24.62-.58.62h-.009zm-.51 5.517V11.95h1.069v4.867h-1.069zm3.599.08c-1.03 0-1.739-.859-1.739-2.499 0-1.769.87-2.528 1.779-2.528 1.019 0 1.719.89 1.719 2.499 0 1.969-1.02 2.528-1.749 2.528h-.01zm.04-.819c.529 0 .649-.96.649-1.699 0-.71-.12-1.689-.669-1.689-.58 0-.69.979-.69 1.689 0 .819.14 1.699.7 1.699h.01zm2.511-2.759c0-.55-.02-.939-.04-1.369h.93l.05.569h.02c.23-.39.64-.649 1.149-.649.819 0 1.249.63 1.249 1.759v3.188h-1.069v-3.088c0-.49-.1-.96-.569-.96-.26 0-.5.2-.6.6-.03.1-.05.26-.05.439v3.009h-1.069v-3.498zm7.778-3.418c-.57.899-1.049 2.219-1.049 4.067 0 1.799.479 3.129 1.049 4.048h-.79c-.54-.749-1.119-2.108-1.119-4.048.03-1.959.58-3.308 1.119-4.067h.79zm1.871.18v2.788h1.599v-2.788H56.4v6.736h-1.069v-2.969h-1.599v2.969h-1.069v-6.736h1.069zm4.6.979h-1.209v-.979h3.488v.979h-1.209v5.757h-1.069V11.06zm3.88 0h-1.209v-.979h3.488v.979h-1.209v5.757h-1.069V11.06zm3.01-.88c.34-.079.779-.13 1.249-.13.71 0 1.29.13 1.689.51.36.34.54.859.54 1.44 0 .68-.19 1.14-.5 1.499-.399.47-1.049.7-1.619.7-.11 0-.2 0-.3-.011v2.629h-1.059V10.18zm1.059 3.129c.08.02.15.02.26.02.699 0 1.089-.479 1.089-1.249 0-.63-.26-1.159-.979-1.159-.15 0-.28.02-.37.05v2.338zm4.521 3.508v-.71l.6-.789c.81-1.069 1.599-2.109 1.599-3.168 0-.61-.3-1.01-.87-1.01-.439 0-.759.21-.959.34l-.209-.819c.26-.19.77-.42 1.359-.42 1.27 0 1.729.879 1.729 1.839 0 1.219-.779 2.289-1.549 3.258l-.41.52v.021h2.059v.939h-3.349zm4.929.08c-.35 0-.64-.29-.64-.739 0-.431.3-.74.649-.74.37 0 .65.28.65.74 0 .449-.26.739-.65.739h-.009zm3.05 0c-1.229 0-1.769-1.43-1.769-3.309 0-2.019.62-3.348 1.839-3.348 1.299 0 1.739 1.519 1.739 3.308 0 2.349-.8 3.349-1.799 3.349h-.01zm.05-.909c.5 0 .689-.9.689-2.419 0-1.459-.18-2.419-.699-2.419-.51 0-.75.88-.74 2.419-.01 1.549.21 2.419.74 2.419h.01zm2.221 2.028c.57-.909 1.049-2.259 1.049-4.077 0-1.8-.479-3.129-1.049-4.038h.79c.54.739 1.119 2.068 1.119 4.048-.03 1.969-.58 3.298-1.119 4.067h-.79zM22.178 29.988c.36-.079.819-.13 1.329-.13.61 0 1.189.101 1.599.47.33.29.48.72.48 1.199 0 .63-.34 1.2-.99 1.479v.03c.77.21 1.209.85 1.209 1.659 0 .56-.18.999-.49 1.329-.39.439-1.049.649-2.019.649-.5 0-.859-.03-1.119-.069v-6.616zm1.059 2.709h.31c.55 0 .989-.439.989-1.05 0-.56-.26-.979-.919-.979-.16 0-.29.011-.38.04v1.989zm0 3.118c.09.02.2.03.34.03.65 0 1.129-.39 1.129-1.159 0-.79-.55-1.189-1.159-1.189h-.31v2.318zm3.881-4.707c-.31 0-.56-.25-.56-.62 0-.38.26-.619.569-.619.34 0 .58.239.58.619 0 .37-.24.62-.58.62h-.009zm-.51 5.517v-4.867h1.069v4.867h-1.069zm2.05-3.499c0-.55-.02-.939-.04-1.369h.93l.05.569h.02c.23-.39.64-.649 1.149-.649.819 0 1.249.63 1.249 1.759v3.188h-1.069v-3.088c0-.49-.1-.96-.569-.96-.26 0-.5.2-.6.6-.03.1-.05.26-.05.439v3.009h-1.069v-3.498zm7.308 2.389c0 .38.01.79.06 1.109h-.959l-.06-.489h-.02c-.25.369-.609.569-1.029.569-.7 0-1.229-.58-1.229-1.439 0-1.249 1.06-1.779 2.159-1.789v-.13c0-.51-.2-.859-.73-.859-.35 0-.64.1-.909.27l-.2-.729c.24-.149.75-.35 1.339-.35 1.259 0 1.579.859 1.579 1.899v1.938zm-1.049-1.329c-.42.01-1.169.12-1.169.97 0 .549.29.749.53.749.27 0 .52-.18.61-.56.02-.07.03-.16.03-.25v-.909zm2.041-1.06c0-.45-.02-.96-.04-1.369h.93l.06.729h.03c.19-.49.59-.81.989-.81.1 0 .16.01.23.02v1.06c-.07-.01-.14-.01-.23-.01-.37 0-.739.31-.859.84-.02.109-.04.279-.04.46v2.578h-1.069v-3.498zm3.689-1.369l.55 2.648c.07.33.12.62.17.899h.02c.04-.26.1-.58.16-.89l.48-2.658h1.049l-.91 3.478c-.26 1.05-.589 2.1-1.139 2.769-.38.46-.81.69-1 .76l-.35-.919a2.182 2.182 0 0 0 1.089-1.18c.04-.1.06-.16.06-.229 0-.061-.01-.12-.03-.181l-1.289-4.497h1.14zm4.65-1.869h2.769v.93h-1.699v2.009h1.589v.89h-1.589v2.908h-1.069v-6.737zm3.52 3.238c0-.45-.02-.96-.04-1.369h.93l.06.729h.03c.19-.49.59-.81.989-.81.1 0 .16.01.23.02v1.06c-.07-.01-.14-.01-.23-.01-.37 0-.739.31-.859.84-.02.109-.04.279-.04.46v2.578h-1.069v-3.498zm5.699 2.389c0 .38.01.79.06 1.109h-.959l-.06-.489h-.02c-.25.369-.609.569-1.029.569-.7 0-1.229-.58-1.229-1.439 0-1.249 1.06-1.779 2.159-1.789v-.13c0-.51-.2-.859-.73-.859-.35 0-.64.1-.909.27l-.2-.729c.24-.149.75-.35 1.339-.35 1.259 0 1.579.859 1.579 1.899v1.938zm-1.05-1.329c-.42.01-1.169.12-1.169.97 0 .549.29.749.53.749.27 0 .52-.18.61-.56.02-.07.03-.16.03-.25v-.909zm2.041-1.06c0-.55-.02-.939-.04-1.369h.93l.05.579h.02c.23-.369.629-.659 1.139-.659.5 0 .86.24 1.04.699h.02c.12-.21.3-.399.48-.52.2-.12.43-.18.679-.18.78 0 1.22.6 1.22 1.799v3.148h-1.06v-2.948c0-.59-.08-1.109-.55-1.109-.28 0-.5.21-.589.569-.03.101-.04.24-.04.39v3.099h-1.06v-3.118c0-.43-.06-.939-.54-.939-.26 0-.51.2-.6.59-.02.109-.04.25-.04.39v3.078h-1.06v-3.499zm7.04-2.018c-.31 0-.56-.25-.56-.62 0-.38.26-.619.569-.619.34 0 .58.239.58.619 0 .37-.24.62-.58.62h-.009zm-.509 5.517v-4.867h1.069v4.867h-1.069zm2.049-3.499c0-.55-.02-.939-.04-1.369h.93l.05.569h.02c.23-.39.64-.649 1.149-.649.819 0 1.249.63 1.249 1.759v3.188h-1.069v-3.088c0-.49-.1-.96-.569-.96-.26 0-.5.2-.6.6-.03.1-.05.26-.05.439v3.009h-1.069v-3.498zm7.619 2.918c0 1.149-.18 1.68-.54 2.049-.33.34-.819.53-1.449.53-.439 0-.849-.09-1.159-.23l.22-.829c.22.11.53.21.92.21.64 0 .949-.41.949-1.319v-.38h-.02c-.17.34-.51.53-.899.53-.99 0-1.479-1.1-1.479-2.379 0-1.699.77-2.549 1.589-2.549.45 0 .729.27.899.6h.02l.06-.52h.939c-.03.399-.05.869-.05 1.529v2.758zm-1.06-2.558c0-.13-.02-.26-.05-.359-.07-.26-.22-.55-.54-.55-.51 0-.75.689-.75 1.609 0 1.06.32 1.569.729 1.569.2 0 .43-.101.55-.51.05-.13.06-.271.06-.41v-1.349zM11.185 61.749c.23.14.63.27.97.27.699 0 1.119-.459 1.119-1.139 0-.62-.36-1-.89-1.399-.53-.37-1.269-.999-1.269-1.869 0-1.02.72-1.769 1.779-1.769.42 0 .79.14.95.249l-.19.66a1.41 1.41 0 0 0-.8-.229c-.66 0-.969.499-.969.959 0 .67.35.939.989 1.39.81.569 1.169 1.189 1.169 1.938 0 1.159-.819 1.889-1.889 1.889-.46 0-.95-.149-1.14-.3l.171-.65zm4.309-1.459c.01 1.489.589 1.799 1.139 1.799.34 0 .61-.08.8-.18l.13.56c-.27.15-.68.229-1.069.229-1.149 0-1.75-.939-1.75-2.429 0-1.568.66-2.548 1.629-2.548.979 0 1.379 1.039 1.379 2.129 0 .189-.01.319-.02.439h-2.238zm1.519-.57c.01-.97-.35-1.399-.72-1.399-.5 0-.76.739-.79 1.399h1.51zm1.441 2.118c.17.11.47.25.78.25.43 0 .709-.27.709-.699 0-.37-.13-.63-.62-.95-.63-.409-.969-.829-.969-1.379 0-.789.58-1.339 1.329-1.339.38 0 .66.119.859.25l-.2.579c-.19-.13-.39-.22-.65-.22-.41 0-.62.3-.62.62 0 .319.12.509.6.829.56.359 1 .81 1 1.479 0 .969-.66 1.438-1.459 1.438-.35 0-.74-.109-.95-.279l.191-.579zm2.89 0c.17.11.47.25.78.25.43 0 .709-.27.709-.699 0-.37-.13-.63-.62-.95-.63-.409-.969-.829-.969-1.379 0-.789.58-1.339 1.329-1.339.38 0 .66.119.859.25l-.2.579c-.19-.13-.39-.22-.65-.22-.41 0-.62.3-.62.62 0 .319.12.509.6.829.56.359 1 .81 1 1.479 0 .969-.66 1.438-1.459 1.438-.35 0-.74-.109-.95-.279l.191-.579zm3.38-4.787c-.25 0-.439-.2-.439-.5s.2-.499.45-.499c.28 0 .459.199.459.499s-.18.5-.459.5h-.011zm-.36 5.587v-4.837h.77v4.837h-.77zm3.199.08c-.87 0-1.569-.79-1.569-2.488 0-1.77.79-2.509 1.619-2.509.87 0 1.56.799 1.56 2.488 0 1.879-.86 2.509-1.599 2.509h-.011zm.04-.609c.66 0 .799-1.13.799-1.89 0-.749-.14-1.889-.819-1.889-.689 0-.819 1.14-.819 1.889 0 .8.14 1.89.829 1.89h.01zm2.431-3.059c0-.569-.03-.859-.04-1.249h.67l.04.579h.02c.209-.39.6-.659 1.109-.659.669 0 1.169.489 1.169 1.669v3.248h-.77V59.52c0-.58-.11-1.149-.669-1.149-.32 0-.63.27-.72.789-.03.11-.04.261-.04.431v3.048h-.77V59.05zm7.359-3.328c-.57.899-1.04 2.249-1.04 4.067 0 1.789.47 3.139 1.04 4.048h-.6c-.52-.76-1.089-2.099-1.089-4.058.02-1.959.569-3.309 1.089-4.058h.6zm1.75.869h-1.229v-.689h3.229v.689h-1.229v6.047h-.77v-6.047zm2.751-.689h.77v6.087h1.889v.649h-2.659v-6.736zm3.29 5.847c.23.14.63.27.97.27.699 0 1.119-.459 1.119-1.139 0-.62-.36-1-.89-1.399-.53-.37-1.269-.999-1.269-1.869 0-1.02.72-1.769 1.779-1.769.42 0 .79.14.95.249l-.19.66a1.41 1.41 0 0 0-.8-.229c-.66 0-.969.499-.969.959 0 .67.35.939.989 1.39.81.569 1.169 1.189 1.169 1.938 0 1.159-.819 1.889-1.889 1.889-.46 0-.95-.149-1.14-.3l.171-.65zm3.41 2.088c.569-.899 1.039-2.269 1.039-4.067s-.47-3.148-1.039-4.048h.6c.52.739 1.089 2.068 1.089 4.048-.02 1.979-.57 3.298-1.089 4.067h-.6zm6.128-8.115c-.57.899-1.04 2.249-1.04 4.067 0 1.789.47 3.139 1.04 4.048h-.6c-.52-.76-1.089-2.099-1.089-4.058.02-1.959.569-3.309 1.089-4.058h.6zm2.05 6.996c-.87 0-1.569-.79-1.569-2.488 0-1.77.79-2.509 1.619-2.509.87 0 1.56.799 1.56 2.488 0 1.879-.86 2.509-1.599 2.509h-.011zm.041-.609c.66 0 .799-1.13.799-1.89 0-.749-.14-1.889-.819-1.889-.689 0-.819 1.14-.819 1.889 0 .8.14 1.89.829 1.89h.01zm2.42-2.799c0-.739-.03-1.169-.04-1.509h.689l.04.609h.02c.26-.51.65-.689 1.02-.689.85 0 1.399.89 1.399 2.488 0 1.799-.74 2.509-1.489 2.509-.46 0-.72-.28-.85-.55h-.02v2.389h-.77V59.31zm.77 1.56c0 .14.01.279.04.399.15.689.49.81.7.81.64 0 .849-.88.849-1.849 0-1.01-.24-1.85-.849-1.85-.35 0-.67.439-.71.88-.03.12-.03.239-.03.369v1.241zm4.169-4.199v1.13h.93v.579h-.93v2.879c0 .64.22.799.5.799.13 0 .23-.01.31-.029l.04.59c-.14.05-.32.079-.569.079-.31 0-.58-.079-.76-.289-.2-.221-.29-.55-.29-1.22V58.38h-.589v-.579h.589v-.82l.769-.31zm1.971.38c-.25 0-.439-.2-.439-.5s.2-.499.45-.499c.28 0 .459.199.459.499s-.18.5-.459.5h-.011zm-.36 5.587v-4.837h.77v4.837h-.77zm3.199.08c-.87 0-1.569-.79-1.569-2.488 0-1.77.79-2.509 1.619-2.509.87 0 1.56.799 1.56 2.488 0 1.879-.86 2.509-1.599 2.509h-.011zm.04-.609c.66 0 .799-1.13.799-1.89 0-.749-.14-1.889-.819-1.889-.689 0-.819 1.14-.819 1.889 0 .8.14 1.89.829 1.89h.01zm2.431-3.059c0-.569-.03-.859-.04-1.249h.67l.04.579h.02c.209-.39.6-.659 1.109-.659.669 0 1.169.489 1.169 1.669v3.248h-.77V59.52c0-.58-.11-1.149-.669-1.149-.32 0-.63.27-.72.789-.03.11-.04.261-.04.431v3.048h-.77V59.05zm6.598 2.489c0 .37 0 .79.05 1.1h-.689l-.05-.51h-.03c-.21.37-.55.59-.959.59-.649 0-1.149-.54-1.149-1.379 0-1.22.97-1.749 2.059-1.76v-.15c0-.649-.16-1.1-.77-1.1-.3 0-.57.09-.8.25l-.17-.54c.21-.149.65-.319 1.129-.319.97 0 1.379.64 1.379 1.719v2.099zm-.749-1.41c-.4 0-1.33.08-1.33 1.13 0 .64.32.859.59.859.34 0 .62-.25.709-.729.02-.09.03-.19.03-.28v-.98zm1.841-4.407h.77v6.916h-.77v-6.916zm1.62 8.115c.569-.899 1.039-2.269 1.039-4.067s-.47-3.148-1.039-4.048h.6c.52.739 1.089 2.068 1.089 4.048-.02 1.979-.57 3.298-1.089 4.067h-.6zm80.138 37.401v2.602h1.702v-2.602h.693v6.067h-.693v-2.836h-1.702v2.836h-.693v-6.067h.693zm4.185.621h-1.107v-.621h2.908v.621h-1.107v5.446h-.693v-5.446zm3.285 0h-1.107v-.621h2.908v.621h-1.107v5.446h-.693v-5.446zm2.474-.531a3.982 3.982 0 0 1 1.008-.117c.558 0 1.036.135 1.351.441.288.288.441.729.441 1.26 0 .559-.135.937-.369 1.242-.324.45-.892.676-1.432.676-.117 0-.207 0-.306-.009v2.484h-.693v-5.977zm.694 2.917c.081.009.162.018.279.018.675 0 1.135-.45 1.135-1.306 0-.621-.252-1.179-1.026-1.179-.162 0-.297.018-.387.045v2.422zm4.058 3.06v-.45l.486-.666c.703-.973 1.521-2.07 1.521-3.169 0-.648-.279-1.044-.828-1.044-.423 0-.702.225-.846.323l-.172-.521a1.834 1.834 0 0 1 1.144-.396c.973 0 1.396.721 1.396 1.603 0 1.099-.721 2.17-1.449 3.151l-.387.54v.018h1.944v.612h-2.809zm4.068.072c-.252 0-.45-.207-.45-.522 0-.306.207-.522.46-.522.27 0 .459.207.459.522s-.172.522-.459.522h-.01zm2.557 0c-.909 0-1.459-1.081-1.459-2.989 0-1.972.586-3.007 1.54-3.007.945 0 1.44 1.125 1.44 2.989 0 2.134-.676 3.007-1.513 3.007h-.008zm.045-.594c.559 0 .783-.999.783-2.403 0-1.368-.225-2.403-.783-2.403-.567 0-.811.99-.811 2.403-.009 1.413.234 2.403.801 2.403h.01zm-21.366-96.545v2.602h1.702v-2.602h.693v6.067h-.693v-2.836h-1.702v2.836h-.693v-6.067h.693zm4.185.621h-1.107v-.621h2.908v.621h-1.107v5.446h-.693v-5.446zm3.285 0h-1.107v-.621h2.908v.621h-1.107v5.446h-.693v-5.446zm2.475-.531a3.982 3.982 0 0 1 1.008-.117c.558 0 1.036.135 1.35.441.289.288.441.729.441 1.26 0 .559-.135.937-.369 1.242-.324.45-.891.676-1.431.676-.117 0-.207 0-.306-.009v2.484h-.693v-5.977zm.693 2.917c.081.009.162.018.279.018.675 0 1.135-.45 1.135-1.306 0-.621-.252-1.179-1.026-1.179-.162 0-.297.018-.387.045v2.422zm5.463-2.089h-.019l-.972.558-.135-.54 1.233-.72h.566v5.852H177v-5.15zm2.663 5.221c-.252 0-.449-.207-.449-.522 0-.306.207-.522.459-.522.27 0 .459.207.459.522s-.171.522-.459.522h-.01zm2.548-5.221h-.019l-.972.558-.135-.54 1.233-.72h.566v5.852h-.675v-5.15zM24.924 88.413h-1.229v-.689h3.229v.689h-1.229v6.047h-.77v-6.047zm2.14 2.459c0-.41-.03-.89-.04-1.249h.689l.04.759h.02c.16-.459.57-.839 1.02-.839.06 0 .11 0 .16.01v.789c-.05-.01-.1-.01-.16-.01-.49 0-.85.45-.93 1.01-.02.13-.03.27-.03.439v2.679h-.77v-3.588zm4.979 2.488c0 .37 0 .79.05 1.1h-.689l-.05-.51h-.03c-.21.37-.55.59-.959.59-.649 0-1.149-.54-1.149-1.379 0-1.22.97-1.749 2.059-1.76v-.149c0-.649-.16-1.1-.77-1.1-.3 0-.57.09-.8.25l-.17-.54c.21-.149.65-.319 1.129-.319.97 0 1.379.64 1.379 1.719v2.098zm-.75-1.409c-.4 0-1.33.08-1.33 1.13 0 .64.32.859.59.859.34 0 .62-.25.709-.729.02-.09.03-.19.03-.28v-.98zm1.841-1.079c0-.569-.03-.859-.04-1.249h.67l.04.579h.02c.21-.39.6-.659 1.109-.659.669 0 1.169.489 1.169 1.669v3.248h-.77v-3.118c0-.58-.11-1.149-.669-1.149-.32 0-.629.27-.72.789-.03.11-.04.261-.04.431v3.048h-.77v-3.589zm3.92 2.788c.17.11.47.25.78.25.43 0 .709-.27.709-.699 0-.37-.13-.63-.62-.95-.63-.409-.969-.829-.969-1.379 0-.789.58-1.339 1.329-1.339.38 0 .66.119.859.25l-.2.579c-.19-.13-.39-.22-.65-.22-.41 0-.62.3-.62.62 0 .319.12.509.6.829.56.359 1 .81 1 1.479 0 .969-.66 1.438-1.459 1.438-.35 0-.74-.109-.95-.279l.191-.579zm3.01-2.529c0-.739-.03-1.169-.04-1.509h.689l.04.609h.02c.26-.51.65-.689 1.02-.689.85 0 1.399.89 1.399 2.488 0 1.799-.74 2.509-1.489 2.509-.46 0-.72-.28-.85-.55h-.02v2.389h-.77v-5.247zm.77 1.56c0 .14.01.279.04.399.15.689.49.81.7.81.64 0 .849-.88.849-1.849 0-1.01-.24-1.85-.849-1.85-.35 0-.67.439-.71.88-.03.12-.03.239-.03.369v1.241zm4.589 1.849c-.87 0-1.569-.79-1.569-2.488 0-1.77.79-2.509 1.619-2.509.87 0 1.56.799 1.56 2.488 0 1.879-.86 2.509-1.599 2.509h-.011zm.04-.61c.66 0 .799-1.13.799-1.89 0-.749-.14-1.889-.819-1.889-.689 0-.819 1.14-.819 1.889 0 .8.14 1.89.829 1.89h.01zm2.421-3.058c0-.41-.03-.89-.04-1.249h.689l.04.759h.02c.16-.459.57-.839 1.02-.839.06 0 .11 0 .16.01v.789c-.05-.01-.1-.01-.16-.01-.49 0-.85.45-.93 1.01-.02.13-.03.27-.03.439v2.679h-.77v-3.588zm3.669-2.379v1.13h.93v.579h-.93v2.879c0 .64.22.799.5.799.13 0 .23-.01.31-.029l.04.59c-.14.05-.32.079-.57.079-.31 0-.58-.079-.759-.289-.2-.221-.29-.55-.29-1.22v-2.809h-.589v-.579h.589v-.82l.769-.31zm4.92-.95c-.57.899-1.04 2.249-1.04 4.067 0 1.789.47 3.139 1.04 4.048h-.6c-.52-.76-1.089-2.099-1.089-4.058.02-1.959.569-3.309 1.089-4.058h.6zm1.75.87h-1.229v-.689h3.229v.689h-1.229v6.047h-.77v-6.047zm5.379 5.926c-.209.11-.549.18-.969.18-1.309 0-2.259-1.049-2.259-3.338 0-2.668 1.319-3.518 2.389-3.518.4 0 .7.08.83.17l-.17.649c-.16-.07-.32-.14-.669-.14-.72 0-1.569.699-1.569 2.758 0 2.069.76 2.738 1.589 2.738.29 0 .54-.069.699-.14l.129.641zm.781-6.516c.31-.079.67-.13 1.12-.13.62 0 1.149.15 1.499.49.32.319.49.81.49 1.399 0 .619-.15 1.039-.41 1.379-.36.5-.99.75-1.589.75-.13 0-.23 0-.34-.011v2.759h-.77v-6.636zm.769 3.238c.09.011.18.021.31.021.75 0 1.259-.5 1.259-1.449 0-.689-.28-1.31-1.14-1.31-.18 0-.33.021-.43.05v2.688zm2.811 4.598c.569-.899 1.039-2.269 1.039-4.067s-.47-3.148-1.039-4.048h.6c.52.739 1.089 2.068 1.089 4.048-.02 1.979-.57 3.298-1.089 4.067h-.6zM28.09 126.281v-6.736h.719l1.239 3.158c.28.729.63 1.619.86 2.349h.02c-.06-1.06-.09-1.929-.09-3.098v-2.409h.689v6.736h-.72l-1.279-3.238c-.28-.68-.57-1.449-.81-2.289h-.02c.06.899.08 1.76.08 3.198v2.329h-.688zm5.079-2.349c.01 1.489.589 1.799 1.139 1.799.34 0 .61-.08.8-.18l.13.56c-.27.15-.68.229-1.07.229-1.149 0-1.749-.939-1.749-2.429 0-1.568.66-2.548 1.629-2.548.979 0 1.379 1.039 1.379 2.129 0 .189-.01.319-.02.439h-2.238zm1.519-.569c.01-.97-.35-1.399-.72-1.399-.5 0-.759.739-.79 1.399h1.51zm2.511-3.049v1.13h.93v.579h-.93v2.879c0 .64.22.799.5.799.13 0 .23-.01.31-.029l.04.59c-.14.05-.32.079-.569.079-.31 0-.58-.079-.76-.289-.2-.221-.29-.55-.29-1.22v-2.809h-.59v-.579h.589v-.82l.77-.31zm2.1 1.13l.47 2.368c.1.52.2 1.039.26 1.539h.04c.07-.5.19-1.06.3-1.519l.56-2.389h.59l.529 2.318c.12.54.23 1.05.31 1.589h.04c.06-.51.15-1.009.26-1.559l.46-2.349h.77l-1.219 4.837h-.63l-.56-2.349c-.12-.47-.19-.899-.27-1.449h-.02c-.08.569-.17 1.02-.28 1.479l-.58 2.318h-.65l-1.179-4.837h.799zm6.5 4.917c-.87 0-1.569-.79-1.569-2.488 0-1.77.79-2.509 1.619-2.509.87 0 1.56.799 1.56 2.488 0 1.879-.86 2.509-1.599 2.509h-.011zm.04-.61c.66 0 .799-1.13.799-1.89 0-.749-.14-1.889-.819-1.889-.689 0-.819 1.14-.819 1.889 0 .8.14 1.89.829 1.89h.01zm2.421-3.058c0-.41-.03-.89-.04-1.249h.689l.04.759h.02c.16-.459.57-.839 1.02-.839.06 0 .11 0 .16.01v.789c-.05-.01-.1-.01-.16-.01-.49 0-.85.45-.93 1.01-.02.13-.03.27-.03.439v2.679h-.77v-3.588zm3.249.999h.02c.09-.189.17-.38.26-.539l.959-1.709h.83l-1.279 2.038 1.399 2.799h-.86l-1.049-2.278-.28.449v1.829h-.77v-6.916h.77v4.327zm6.089-4.327c-.57.899-1.04 2.249-1.04 4.067 0 1.789.47 3.139 1.04 4.048h-.6c-.52-.76-1.089-2.099-1.089-4.058.02-1.959.569-3.309 1.089-4.058h.6zm1.621.179v6.736h-.77v-6.736h.77zm1.22.1c.31-.079.67-.13 1.12-.13.62 0 1.149.15 1.499.49.32.319.49.81.49 1.399 0 .619-.15 1.039-.41 1.379-.36.5-.99.75-1.589.75-.13 0-.23 0-.34-.011v2.759h-.77v-6.636zm.77 3.238c.09.011.18.021.31.021.75 0 1.259-.5 1.259-1.449 0-.689-.28-1.31-1.14-1.31-.18 0-.33.021-.43.05v2.688zm2.81 4.598c.569-.899 1.039-2.269 1.039-4.067s-.47-3.148-1.039-4.048h.6c.52.739 1.089 2.068 1.089 4.048-.02 1.979-.57 3.298-1.089 4.067h-.6zM166.39 27.227c.34-.079.779-.13 1.249-.13.71 0 1.29.13 1.689.51.36.34.54.859.54 1.439 0 .68-.19 1.14-.5 1.499-.399.47-1.049.7-1.619.7-.11 0-.2 0-.3-.011v2.629h-1.059v-6.636zm1.059 3.128c.08.02.15.02.26.02.699 0 1.089-.479 1.089-1.249 0-.63-.26-1.159-.979-1.159-.15 0-.28.02-.37.05v2.338zm4.95 3.588c-1.339 0-2.009-1.419-2.009-3.458 0-2.02.76-3.438 2.119-3.438 1.41 0 1.969 1.539 1.969 3.358 0 2.538-.889 3.538-2.068 3.538h-.011zm.06-.929c.689 0 .909-1.209.909-2.559 0-1.22-.199-2.479-.919-2.479-.71 0-.959 1.249-.95 2.499-.01 1.329.24 2.538.95 2.538h.01zm2.741-.29c.25.15.689.271 1.039.271.66 0 1.02-.38 1.02-.939 0-.54-.33-.85-.879-1.229-.75-.48-1.27-1.149-1.27-1.879 0-1.05.709-1.879 1.969-1.879.43 0 .819.13 1 .239l-.19.92c-.19-.12-.47-.23-.829-.23-.61 0-.9.41-.9.82 0 .52.27.759.96 1.199.849.56 1.188 1.209 1.188 1.929 0 1.209-.859 1.979-2.068 1.979-.5 0-1.01-.14-1.219-.279l.179-.922zm4.69-4.618h-1.209v-.979h3.488v.979h-1.21v5.757h-1.069v-5.757zm4.08 6.157l2.149-7.216h.579l-2.148 7.216h-.58zm6.168-1.719c0 .529.031.96.041 1.319h-.67l-.061-.51h-.02c-.141.24-.51.59-1.029.59-.84 0-1.18-.66-1.18-1.859v-3.058h.77v2.948c0 .749.12 1.319.65 1.319.449 0 .648-.42.689-.65.029-.13.039-.27.039-.43v-3.188h.77v3.519zm1.072-2.009c0-.739-.031-1.169-.041-1.509h.689l.041.609h.02c.26-.51.65-.689 1.02-.689.85 0 1.399.89 1.399 2.488 0 1.799-.739 2.509-1.489 2.509-.46 0-.72-.28-.85-.55h-.02v2.389h-.77v-5.247zm.77 1.56c0 .14.01.279.039.399.15.689.49.81.7.81.64 0 .849-.88.849-1.849 0-1.01-.239-1.85-.849-1.85-.351 0-.67.439-.71.88-.029.12-.029.239-.029.369v1.241zm3.23-5.148h.77v6.916h-.77v-6.916zm3.269 6.996c-.87 0-1.569-.79-1.569-2.488 0-1.77.79-2.509 1.619-2.509.869 0 1.56.799 1.56 2.488 0 1.879-.86 2.509-1.599 2.509h-.011zm.04-.609c.66 0 .799-1.13.799-1.89 0-.749-.139-1.889-.818-1.889-.689 0-.82 1.14-.82 1.889 0 .8.141 1.89.83 1.89h.009zm4.979-.57c0 .37 0 .79.05 1.1h-.689l-.05-.51h-.03c-.21.37-.55.59-.959.59-.65 0-1.15-.54-1.15-1.379 0-1.22.971-1.749 2.06-1.76v-.149c0-.649-.16-1.1-.77-1.1-.3 0-.569.09-.8.25l-.17-.54c.21-.149.65-.319 1.129-.319.971 0 1.38.64 1.38 1.719v2.098zm-.749-1.409c-.4 0-1.33.08-1.33 1.13 0 .64.32.859.59.859.34 0 .619-.25.709-.729.021-.09.031-.19.031-.28v-.98zm4.759-4.408v5.757c0 .33.03.879.04 1.159h-.66l-.049-.6h-.041c-.149.34-.5.68-1.009.68-.819 0-1.409-.88-1.409-2.479 0-1.72.709-2.519 1.459-2.519.35 0 .689.159.879.569h.021v-2.568h.769zm-.77 3.918c0-.101 0-.21-.01-.32-.04-.5-.351-.939-.72-.939-.64 0-.859.89-.859 1.859 0 1.02.26 1.839.819 1.839.239 0 .569-.13.739-.83.03-.09.03-.199.03-.319v-1.29zm4.531-3.738v2.788h1.6v-2.788h1.068v6.736h-1.068v-2.969h-1.6v2.969H210.2v-6.736h1.069zm4.599.979h-1.209v-.979h3.488v.979h-1.209v5.757h-1.07v-5.757zm3.881 0h-1.21v-.979h3.488v.979h-1.21v5.757h-1.068v-5.757zm3.01-.879c.34-.079.779-.13 1.249-.13.71 0 1.29.13 1.688.51.36.34.541.859.541 1.439 0 .68-.19 1.14-.5 1.499-.4.47-1.05.7-1.619.7-.11 0-.2 0-.301-.011v2.629h-1.059v-6.636zm1.058 3.128c.08.02.15.02.261.02.699 0 1.089-.479 1.089-1.249 0-.63-.26-1.159-.979-1.159-.15 0-.28.02-.371.05v2.338zm2.573 3.908l2.258-7.216h.73l-2.26 7.216h-.728zm4.718-5.866h-.02l-1.09.59-.189-.83 1.429-.789h.919v6.496h-1.049v-5.467zm3.38 5.546c-.35 0-.64-.29-.64-.739 0-.431.3-.74.649-.74.37 0 .649.28.649.74 0 .449-.26.739-.649.739h-.009zm2.861-5.546h-.021l-1.089.59-.19-.83 1.429-.789h.92v6.496h-1.049v-5.467zm-69.889 8.73v2.788h1.599v-2.788h1.069v6.736h-1.069v-2.969h-1.599v2.969h-1.069v-6.736h1.069zm5.259 6.816c-1.03 0-1.739-.859-1.739-2.499 0-1.769.87-2.528 1.779-2.528 1.02 0 1.719.89 1.719 2.499 0 1.969-1.02 2.528-1.749 2.528h-.01zm.04-.819c.529 0 .65-.96.65-1.699 0-.71-.121-1.689-.67-1.689-.58 0-.69.979-.69 1.689 0 .819.14 1.699.7 1.699h.01zm2.431-.27c.18.12.51.26.84.26.379 0 .609-.199.609-.56 0-.3-.141-.499-.59-.789-.73-.43-.99-.899-.99-1.39 0-.839.61-1.459 1.49-1.459.389 0 .699.11.93.24l-.211.789a1.232 1.232 0 0 0-.67-.21c-.369 0-.549.24-.549.51 0 .26.119.41.58.71.648.39.999.869.999 1.479 0 .99-.69 1.489-1.609 1.489-.38 0-.829-.109-1.04-.279l.211-.79zm4.439-5.068v1.21h.939v.77h-.939v2.528c0 .6.229.75.499.75.121 0 .221-.01.33-.03l.021.83c-.16.05-.399.079-.7.079-.34 0-.648-.09-.859-.3-.24-.239-.359-.589-.359-1.319v-2.538h-.58v-.77h.58v-.84l1.068-.37zm2.221 2.699c-.35 0-.62-.29-.62-.71 0-.399.28-.71.63-.71.37 0 .63.28.63.71 0 .42-.24.71-.63.71h-.01zm0 3.458c-.35 0-.62-.29-.62-.71 0-.399.28-.709.63-.709.37 0 .63.279.63.709 0 .42-.24.71-.63.71h-.01zm3.53-4.917l.469 2.368c.1.52.2 1.039.26 1.539h.041c.069-.5.189-1.06.299-1.519l.561-2.389h.59l.529 2.318c.119.54.229 1.05.31 1.589h.04c.061-.51.15-1.009.26-1.559l.46-2.349h.77l-1.22 4.837h-.629l-.561-2.349c-.119-.47-.189-.899-.27-1.449h-.02c-.08.569-.17 1.02-.28 1.479l-.579 2.318h-.65l-1.18-4.837h.8zm5.859 0l.47 2.368c.1.52.2 1.039.26 1.539h.04c.07-.5.189-1.06.3-1.519l.56-2.389h.59l.529 2.318c.12.54.23 1.05.311 1.589h.039c.061-.51.15-1.009.26-1.559l.461-2.349h.77l-1.22 4.837h-.63l-.56-2.349c-.12-.47-.19-.899-.271-1.449h-.02c-.08.569-.17 1.02-.279 1.479l-.58 2.318h-.65l-1.179-4.837h.799zm5.86 0l.471 2.368c.1.52.199 1.039.26 1.539h.039c.07-.5.19-1.06.301-1.519l.559-2.389h.59l.53 2.318c.12.54.229 1.05.31 1.589h.04c.06-.51.149-1.009.26-1.559l.46-2.349h.77l-1.219 4.837h-.631l-.559-2.349a13.4 13.4 0 0 1-.271-1.449h-.021c-.08.569-.17 1.02-.279 1.479l-.58 2.318h-.649l-1.179-4.837h.798zm5.29 4.917c-.28 0-.499-.23-.499-.58 0-.34.229-.579.51-.579.299 0 .51.229.51.579s-.19.58-.51.58h-.011zm2.03-2.428c.01 1.489.59 1.799 1.139 1.799.34 0 .61-.08.801-.18l.129.56c-.27.15-.68.229-1.069.229-1.149 0-1.749-.939-1.749-2.429 0-1.568.66-2.548 1.629-2.548.98 0 1.38 1.039 1.38 2.129 0 .189-.011.319-.021.439h-2.239zm1.52-.57c.01-.97-.351-1.399-.721-1.399-.499 0-.759.739-.789 1.399h1.51zm1.929-1.919l.451 1.029c.119.279.219.56.319.85h.02c.11-.311.22-.59.33-.85l.43-1.029h.79l-1.15 2.378 1.141 2.459h-.84l-.46-1.09c-.11-.26-.2-.509-.319-.829h-.021c-.101.29-.21.56-.319.829l-.44 1.09h-.79l1.15-2.429-1.109-2.408h.817zm5.52 3.738c0 .37 0 .79.05 1.1h-.689l-.05-.51h-.03c-.21.37-.55.59-.96.59-.648 0-1.148-.54-1.148-1.379 0-1.22.969-1.749 2.059-1.76v-.149c0-.649-.16-1.1-.77-1.1-.3 0-.57.09-.8.25l-.17-.54c.21-.149.649-.319 1.13-.319.969 0 1.379.64 1.379 1.719v2.098zm-.75-1.409c-.399 0-1.329.08-1.329 1.13 0 .64.319.859.59.859.34 0 .62-.25.71-.729.02-.09.029-.19.029-.28v-.98zm1.842-1.08c0-.569-.03-.859-.041-1.249h.68l.041.589h.02c.21-.39.57-.669 1.08-.669.449 0 .839.21 1.02.729h.02c.13-.24.3-.43.47-.55.2-.12.419-.18.669-.18.66 0 1.17.47 1.17 1.709v3.208h-.77v-3.038c0-.63-.09-1.239-.67-1.239-.32 0-.6.27-.709.729-.03.12-.03.27-.03.43v3.118h-.77v-3.179c0-.529-.091-1.099-.659-1.099-.32 0-.631.27-.721.789-.02.12-.029.26-.029.41v3.078h-.77v-3.586zm6.189.26c0-.739-.03-1.169-.04-1.509h.689l.04.609h.02c.26-.51.65-.689 1.02-.689.85 0 1.4.89 1.4 2.488 0 1.799-.74 2.509-1.49 2.509-.459 0-.719-.28-.85-.55h-.02v2.389h-.77v-5.247zm.77 1.56c0 .14.01.279.04.399.149.689.489.81.7.81.639 0 .849-.88.849-1.849 0-1.01-.239-1.85-.849-1.85-.351 0-.67.439-.711.88-.029.12-.029.239-.029.369v1.241zm3.23-5.148h.77v6.916h-.77v-6.916zm2.449 4.568c.01 1.489.59 1.799 1.14 1.799.34 0 .61-.08.8-.18l.13.56c-.271.15-.68.229-1.069.229-1.149 0-1.75-.939-1.75-2.429 0-1.568.66-2.548 1.63-2.548.979 0 1.38 1.039 1.38 2.129 0 .189-.011.319-.021.439h-2.24zm1.52-.57c.01-.97-.35-1.399-.72-1.399-.499 0-.76.739-.79 1.399h1.51zm1.92 2.998c-.279 0-.499-.23-.499-.58 0-.34.229-.579.51-.579.3 0 .51.229.51.579s-.19.58-.51.58h-.011zm2.849 0c-.869 0-1.568-.79-1.568-2.488 0-1.77.789-2.509 1.619-2.509.869 0 1.559.799 1.559 2.488 0 1.879-.859 2.509-1.599 2.509h-.011zm.041-.609c.659 0 .799-1.13.799-1.89 0-.749-.14-1.889-.819-1.889-.689 0-.819 1.14-.819 1.889 0 .8.14 1.89.829 1.89h.01zm2.42-3.059c0-.41-.029-.89-.039-1.249h.689l.039.759h.021c.16-.459.569-.839 1.02-.839.06 0 .11 0 .159.01v.789c-.049-.01-.1-.01-.159-.01-.489 0-.85.45-.93 1.01-.021.13-.03.27-.03.439v2.679h-.77v-3.588zm5.269 2.968c0 1.27-.159 1.749-.479 2.109-.3.319-.75.51-1.289.51-.41 0-.811-.1-1.06-.24l.18-.6c.19.101.51.21.89.21.609 0 .989-.38.989-1.479v-.489h-.021c-.159.38-.52.59-.919.59-.859 0-1.419-.97-1.419-2.389 0-1.789.799-2.519 1.52-2.519.51 0 .749.34.898.619h.021l.04-.539h.689c-.01.329-.04.759-.04 1.509v2.708zm-.77-2.548c0-.13-.01-.25-.04-.36-.08-.319-.26-.729-.699-.729-.55 0-.85.75-.85 1.819 0 1.239.39 1.799.85 1.799.24 0 .539-.11.689-.689.05-.15.05-.3.05-.439v-1.401zm-70.879 13.058c-.2.101-.55.17-.989.17-1.54 0-2.419-1.259-2.419-3.338 0-2.589 1.369-3.518 2.569-3.518.439 0 .75.09.879.17l-.2.909c-.16-.08-.32-.14-.64-.14-.729 0-1.479.669-1.479 2.508 0 1.81.68 2.459 1.489 2.459.25 0 .5-.06.66-.12l.13.9zm2.092.19c-1.03 0-1.739-.859-1.739-2.499 0-1.769.87-2.528 1.779-2.528 1.02 0 1.72.89 1.72 2.499 0 1.969-1.02 2.528-1.75 2.528h-.01zm.039-.819c.53 0 .65-.96.65-1.699 0-.71-.12-1.689-.669-1.689-.58 0-.69.979-.69 1.689 0 .819.14 1.699.7 1.699h.009zm2.511-2.759c0-.55-.02-.939-.04-1.369h.93l.05.569h.02c.23-.39.641-.649 1.15-.649.818 0 1.248.63 1.248 1.759v3.188h-1.068v-3.088c0-.49-.1-.96-.57-.96-.26 0-.5.2-.6.6-.029.1-.05.26-.05.439v3.009h-1.069v-3.498zm5.58-2.579v1.21h.939v.77h-.939v2.528c0 .6.229.75.499.75.12 0 .22-.01.33-.03l.021.83c-.16.05-.4.079-.7.079-.34 0-.649-.09-.859-.3-.24-.239-.36-.589-.36-1.319v-2.538h-.579v-.77h.579v-.84l1.069-.37zm2.369 3.929c.011 1.089.51 1.389 1.08 1.389.359 0 .66-.08.869-.17l.16.76c-.31.14-.779.229-1.219.229-1.26 0-1.93-.909-1.93-2.418 0-1.609.77-2.589 1.809-2.589 1.02 0 1.54.93 1.54 2.229 0 .28-.011.44-.03.57h-2.279zm1.32-.76c.01-.779-.25-1.239-.63-1.239-.46 0-.67.669-.69 1.239h1.32zm1.761-.59c0-.55-.021-.939-.04-1.369h.93l.05.569h.021c.229-.39.639-.649 1.148-.649.82 0 1.25.63 1.25 1.759v3.188h-1.07v-3.088c0-.49-.1-.96-.568-.96-.261 0-.5.2-.601.6-.03.1-.05.26-.05.439v3.009h-1.069v-3.498zm5.579-2.579v1.21h.939v.77h-.939v2.528c0 .6.23.75.5.75.119 0 .22-.01.33-.03l.02.83c-.16.05-.4.079-.699.079-.34 0-.65-.09-.859-.3-.24-.239-.36-.589-.36-1.319v-2.538h-.579v-.77h.579v-.84l1.068-.37zm3.47 2.999v.779h-2.079v-.779h2.079zm1.341-2.679h-1.21v-.979h3.488v.979h-1.21v5.757h-1.068v-5.757zm3.269.89l.55 2.648c.069.33.12.62.17.899h.021c.039-.26.1-.58.159-.89l.479-2.658h1.05l-.909 3.478c-.26 1.05-.59 2.1-1.14 2.769-.38.46-.81.69-.999.76l-.35-.919a2.194 2.194 0 0 0 1.089-1.18c.04-.1.06-.16.06-.229a.6.6 0 0 0-.029-.181l-1.289-4.497h1.138zm2.971 1.529c0-.66-.021-1.12-.041-1.529h.93l.061.59h.02c.23-.46.6-.67 1.02-.67.97 0 1.469 1.039 1.469 2.499 0 1.778-.759 2.528-1.549 2.528-.43 0-.689-.26-.829-.51h-.021v2.349h-1.059v-5.257zm1.059 1.559c0 .15.021.3.051.41.129.47.379.569.559.569.541 0 .721-.77.721-1.629 0-.97-.23-1.619-.721-1.619-.27 0-.51.3-.568.63a1.316 1.316 0 0 0-.041.359v1.28zm4.05-.369c.01 1.089.51 1.389 1.079 1.389.36 0 .659-.08.87-.17l.159.76c-.31.14-.779.229-1.22.229-1.259 0-1.928-.909-1.928-2.418 0-1.609.77-2.589 1.809-2.589 1.02 0 1.539.93 1.539 2.229 0 .28-.01.44-.03.57h-2.278zm1.319-.76c.011-.779-.25-1.239-.629-1.239-.46 0-.67.669-.689 1.239h1.318zm2.401-.47c-.35 0-.62-.29-.62-.71 0-.399.28-.71.63-.71.37 0 .63.28.63.71 0 .42-.24.71-.63.71h-.01zm0 3.458c-.35 0-.62-.29-.62-.71 0-.399.28-.709.63-.709.37 0 .63.279.63.709 0 .42-.24.71-.63.71h-.01zm5.689-1.179c0 .37 0 .79.051 1.1h-.689l-.051-.51h-.029c-.211.37-.551.59-.96.59-.649 0-1.149-.54-1.149-1.379 0-1.22.97-1.749 2.059-1.76v-.149c0-.649-.16-1.1-.77-1.1-.299 0-.569.09-.799.25l-.17-.54c.209-.149.649-.319 1.129-.319.97 0 1.379.64 1.379 1.719v2.098zm-.749-1.409c-.399 0-1.329.08-1.329 1.13 0 .64.319.859.59.859.34 0 .619-.25.709-.729.02-.09.03-.19.03-.28v-.98zm1.831-.82c0-.739-.03-1.169-.04-1.509h.689l.04.609h.02c.26-.51.65-.689 1.02-.689.85 0 1.4.89 1.4 2.488 0 1.799-.74 2.509-1.49 2.509-.459 0-.719-.28-.85-.55h-.02v2.389h-.77v-5.247zm.769 1.56c0 .14.01.279.04.399.149.689.489.81.7.81.639 0 .849-.88.849-1.849 0-1.01-.239-1.85-.849-1.85-.351 0-.67.439-.711.88-.029.12-.029.239-.029.369v1.241zm3.221-1.56c0-.739-.031-1.169-.041-1.509h.689l.041.609h.02c.26-.51.65-.689 1.02-.689.85 0 1.399.89 1.399 2.488 0 1.799-.739 2.509-1.489 2.509-.46 0-.72-.28-.85-.55h-.02v2.389h-.77v-5.247zm.769 1.56c0 .14.01.279.039.399.15.689.49.81.7.81.64 0 .849-.88.849-1.849 0-1.01-.239-1.85-.849-1.85-.351 0-.67.439-.71.88-.029.12-.029.239-.029.369v1.241zm3.23-5.148h.77v6.916h-.77v-6.916zm2.27 1.329c-.25 0-.439-.2-.439-.5s.199-.499.449-.499c.279 0 .459.199.459.499s-.18.5-.459.5h-.01zm-.36 5.587v-4.837h.77v4.837h-.77zm4.198-.12c-.17.101-.459.18-.799.18-1.06 0-1.77-.85-1.77-2.448 0-1.39.699-2.519 1.909-2.519.26 0 .54.07.68.16l-.149.619a1.265 1.265 0 0 0-.551-.13c-.779 0-1.119.92-1.119 1.869 0 1.129.43 1.809 1.14 1.809.2 0 .38-.04.55-.13l.109.59zm3.211-.979c0 .37 0 .79.049 1.1h-.689l-.05-.51h-.03c-.209.37-.549.59-.959.59-.649 0-1.149-.54-1.149-1.379 0-1.22.97-1.749 2.06-1.76v-.149c0-.649-.16-1.1-.77-1.1-.301 0-.57.09-.801.25l-.17-.54c.211-.149.65-.319 1.13-.319.97 0 1.38.64 1.38 1.719v2.098zm-.75-1.409c-.4 0-1.33.08-1.33 1.13 0 .64.32.859.59.859.34 0 .62-.25.71-.729.021-.09.03-.19.03-.28v-.98zm2.69-3.458v1.13h.93v.579h-.93v2.879c0 .64.221.799.5.799.131 0 .23-.01.311-.029l.039.59a1.68 1.68 0 0 1-.569.079c-.31 0-.579-.079-.759-.289-.2-.221-.291-.55-.291-1.22v-2.809h-.589v-.579h.589v-.82l.769-.31zm1.97.379c-.25 0-.439-.2-.439-.5s.199-.499.449-.499c.28 0 .46.199.46.499s-.18.5-.46.5h-.01zm-.359 5.587v-4.837h.77v4.837h-.77zm3.199.08c-.87 0-1.57-.79-1.57-2.488 0-1.77.79-2.509 1.619-2.509.87 0 1.561.799 1.561 2.488 0 1.879-.86 2.509-1.6 2.509h-.01zm.039-.609c.66 0 .8-1.13.8-1.89 0-.749-.14-1.889-.819-1.889-.689 0-.819 1.14-.819 1.889 0 .8.14 1.89.829 1.89h.009zm2.432-3.059c0-.569-.03-.859-.041-1.249h.67l.041.579h.02c.21-.39.6-.659 1.109-.659.67 0 1.17.489 1.17 1.669v3.248h-.771v-3.118c0-.58-.11-1.149-.669-1.149-.32 0-.63.27-.721.789a1.81 1.81 0 0 0-.039.431v3.048h-.77v-3.589zm3.59 3.988l2.149-7.216h.579l-2.148 7.216h-.58zm2.45.99c.22-.051.489-.141.649-.37.17-.26.23-.63.23-1.539v-4.317h.77v4.527c0 1.02-.15 1.489-.49 1.858-.289.29-.76.44-1.059.45l-.1-.609zm1.259-6.977c-.26 0-.449-.2-.449-.5s.199-.499.459-.499c.271 0 .45.199.45.499s-.18.5-.45.5h-.01zm1.31 4.787c.17.11.47.25.779.25.43 0 .71-.27.71-.699 0-.37-.13-.63-.62-.95-.629-.409-.969-.829-.969-1.379 0-.789.58-1.339 1.329-1.339.38 0 .659.119.859.25l-.2.579a1.1 1.1 0 0 0-.649-.22c-.409 0-.62.3-.62.62 0 .319.121.509.6.829.561.359 1 .81 1 1.479 0 .969-.66 1.438-1.459 1.438-.35 0-.74-.109-.949-.279l.189-.579zm4.379.88c-.869 0-1.568-.79-1.568-2.488 0-1.77.789-2.509 1.619-2.509.869 0 1.559.799 1.559 2.488 0 1.879-.859 2.509-1.599 2.509h-.011zm.041-.609c.659 0 .799-1.13.799-1.89 0-.749-.14-1.889-.819-1.889-.689 0-.819 1.14-.819 1.889 0 .8.14 1.89.829 1.89h.01zm2.43-3.059c0-.569-.029-.859-.039-1.249h.67l.039.579h.021c.21-.39.6-.659 1.109-.659.669 0 1.169.489 1.169 1.669v3.248h-.77v-3.118c0-.58-.109-1.149-.67-1.149-.319 0-.629.27-.719.789-.03.11-.041.261-.041.431v3.048h-.77v-3.589zm-89.89 13.478c-.2.101-.55.17-.989.17-1.54 0-2.419-1.259-2.419-3.338 0-2.589 1.369-3.518 2.569-3.518.439 0 .75.09.879.17l-.2.909c-.16-.08-.32-.14-.64-.14-.729 0-1.479.669-1.479 2.508 0 1.81.68 2.459 1.489 2.459.25 0 .5-.06.66-.12l.13.9zm2.092.19c-1.03 0-1.739-.859-1.739-2.499 0-1.769.87-2.528 1.779-2.528 1.02 0 1.72.89 1.72 2.499 0 1.969-1.02 2.528-1.75 2.528h-.01zm.039-.819c.53 0 .65-.96.65-1.699 0-.71-.12-1.689-.669-1.689-.58 0-.69.979-.69 1.689 0 .819.14 1.699.7 1.699h.009zm2.511-2.759c0-.55-.02-.939-.04-1.369h.93l.05.569h.02c.23-.39.641-.649 1.15-.649.818 0 1.248.63 1.248 1.759v3.188h-1.068v-3.088c0-.49-.1-.96-.57-.96-.26 0-.5.2-.6.6-.029.1-.05.26-.05.439v3.009h-1.069v-3.498zm5.58-2.579v1.21h.939v.77h-.939v2.528c0 .6.229.75.499.75.12 0 .22-.01.33-.03l.021.83c-.16.05-.4.079-.7.079-.34 0-.649-.09-.859-.3-.24-.239-.36-.589-.36-1.319v-2.538h-.579v-.77h.579v-.84l1.069-.37zm2.369 3.929c.011 1.089.51 1.389 1.08 1.389.359 0 .66-.08.869-.17l.16.76c-.31.14-.779.229-1.219.229-1.26 0-1.93-.909-1.93-2.418 0-1.609.77-2.589 1.809-2.589 1.02 0 1.54.93 1.54 2.229 0 .28-.011.44-.03.57h-2.279zm1.32-.76c.01-.779-.25-1.239-.63-1.239-.46 0-.67.669-.69 1.239h1.32zm1.761-.59c0-.55-.021-.939-.04-1.369h.93l.05.569h.021c.229-.39.639-.649 1.148-.649.82 0 1.25.63 1.25 1.759v3.188h-1.07v-3.088c0-.49-.1-.96-.568-.96-.261 0-.5.2-.601.6-.03.1-.05.26-.05.439v3.009h-1.069v-3.498zm5.579-2.579v1.21h.939v.77h-.939v2.528c0 .6.23.75.5.75.119 0 .22-.01.33-.03l.02.83c-.16.05-.4.079-.699.079-.34 0-.65-.09-.859-.3-.24-.239-.36-.589-.36-1.319v-2.538h-.579v-.77h.579v-.84l1.068-.37zm3.47 2.999v.779h-2.079v-.779h2.079zm.891-3.658h1.069v5.837h1.799v.899H195.1v-6.736zm4.299 4.588c.01 1.089.51 1.389 1.079 1.389.36 0 .659-.08.87-.17l.159.76c-.31.14-.779.229-1.22.229-1.259 0-1.928-.909-1.928-2.418 0-1.609.77-2.589 1.809-2.589 1.02 0 1.539.93 1.539 2.229 0 .28-.01.44-.03.57h-2.278zm1.319-.76c.011-.779-.25-1.239-.629-1.239-.46 0-.67.669-.689 1.239h1.318zm1.762-.59c0-.55-.02-.939-.039-1.369h.93l.049.569h.021c.229-.39.64-.649 1.149-.649.819 0 1.249.63 1.249 1.759v3.188h-1.069v-3.088c0-.49-.1-.96-.569-.96-.261 0-.5.2-.601.6-.029.1-.049.26-.049.439v3.009h-1.07v-3.498zm7.619 2.918c0 1.149-.181 1.68-.541 2.049-.329.34-.818.53-1.449.53-.439 0-.849-.09-1.158-.23l.219-.829c.221.11.53.21.92.21.64 0 .949-.41.949-1.319v-.38h-.02c-.17.34-.51.53-.899.53-.989 0-1.479-1.1-1.479-2.379 0-1.699.77-2.549 1.59-2.549.449 0 .729.27.898.6h.021l.06-.52h.939c-.029.399-.049.869-.049 1.529v2.758zm-1.061-2.558c0-.13-.02-.26-.049-.359-.07-.26-.221-.55-.541-.55-.51 0-.749.689-.749 1.609 0 1.06.319 1.569.729 1.569.2 0 .43-.101.55-.51.05-.13.06-.271.06-.41v-1.349zm3.311-2.939v1.21h.939v.77h-.939v2.528c0 .6.23.75.5.75.119 0 .22-.01.33-.03l.02.83c-.16.05-.4.079-.699.079-.34 0-.65-.09-.859-.3-.24-.239-.36-.589-.36-1.319v-2.538h-.581v-.77h.579v-.84l1.07-.37zm1.581-.839h1.069v2.559h.02c.11-.17.26-.31.42-.41.18-.109.4-.18.65-.18.77 0 1.199.64 1.199 1.869v3.078h-1.07v-3.038c0-.53-.109-1.01-.559-1.01-.28 0-.51.19-.62.6-.021.09-.04.25-.04.37v3.078h-1.069v-6.916zm4.979 3.538c-.35 0-.619-.29-.619-.71 0-.399.279-.71.629-.71.37 0 .63.28.63.71 0 .42-.239.71-.63.71h-.01zm0 3.458c-.35 0-.619-.29-.619-.71 0-.399.279-.709.629-.709.37 0 .63.279.63.709 0 .42-.239.71-.63.71h-.01zm4.48-5.796h-.021l-1.078.619-.15-.6 1.369-.799h.629v6.496h-.749v-5.716zm5.299-.1h-1.749l-.27 1.729c.08-.02.149-.02.24-.02.35 0 .898.159 1.238.489.35.34.551.819.551 1.479 0 1.299-.82 2.219-1.97 2.219-.399 0-.85-.11-1.109-.28l.17-.609c.2.11.55.25.909.25.66 0 1.229-.5 1.229-1.499 0-1.029-.63-1.46-1.469-1.46-.24 0-.39.011-.51.03l.409-3.008h2.329v.68zM166.09 80.735c.549 0 .679-.37.679-.71 0-.29-.03-.569-.06-.85-.03-.29-.06-.58-.06-.89 0-.899.55-1.279 1.249-1.279h.12v.52h-.14c-.419.051-.589.3-.589.75 0 .27.03.529.06.779.02.25.05.49.05.74.01.77-.26 1.049-.689 1.179v.021c.43.12.699.39.689 1.189 0 .239-.03.499-.06.739-.02.26-.05.51-.05.779 0 .45.14.71.6.76h.13v.52h-.13c-.65 0-1.239-.329-1.239-1.279 0-.31.03-.6.06-.899.03-.279.06-.569.06-.859 0-.32-.13-.71-.689-.71l.009-.5zm3.789-3.708c-.21.81-.64 1.849-.9 2.299l-.459.069c.21-.579.479-1.579.58-2.269l.779-.099zm1.33 0c-.22.81-.64 1.849-.91 2.299l-.45.069c.21-.579.48-1.579.58-2.269l.78-.099zm.231 3.248c0-.569-.03-.859-.04-1.249h.68l.04.589h.02c.21-.39.57-.669 1.08-.669.449 0 .839.21 1.02.729h.02c.13-.24.3-.43.47-.55.2-.12.419-.18.669-.18.66 0 1.17.47 1.17 1.709v3.208h-.77v-3.038c0-.63-.09-1.239-.67-1.239-.32 0-.6.27-.709.729-.03.12-.03.27-.03.43v3.118h-.77v-3.179c0-.529-.091-1.099-.66-1.099-.32 0-.63.27-.72.789-.02.12-.03.26-.03.41v3.078h-.77v-3.586zm6.07 2.788c.17.11.47.25.78.25.43 0 .709-.27.709-.699 0-.37-.13-.63-.619-.95-.631-.409-.97-.829-.97-1.379 0-.789.579-1.339 1.329-1.339.38 0 .66.119.859.25l-.199.579c-.19-.13-.391-.22-.65-.22-.41 0-.619.3-.619.62 0 .319.119.509.6.829.56.359.999.81.999 1.479 0 .969-.659 1.438-1.459 1.438-.351 0-.739-.109-.95-.279l.19-.579zm5.938.18c0 1.27-.16 1.749-.479 2.109-.3.319-.749.51-1.29.51-.409 0-.809-.1-1.059-.24l.18-.6c.189.101.51.21.89.21.609 0 .989-.38.989-1.479v-.489h-.02c-.16.38-.52.59-.92.59-.859 0-1.42-.97-1.42-2.389 0-1.789.801-2.519 1.52-2.519.51 0 .75.34.9.619h.02l.04-.539h.689c-.01.329-.04.759-.04 1.509v2.708zm-.769-2.548c0-.13-.01-.25-.04-.36-.08-.319-.26-.729-.7-.729-.549 0-.849.75-.849 1.819 0 1.239.39 1.799.849 1.799.24 0 .541-.11.69-.689.05-.15.05-.3.05-.439v-1.401zm2.67-3.668c-.209.81-.639 1.849-.899 2.299l-.46.069c.211-.579.48-1.579.58-2.269l.779-.099zm1.33 0c-.221.81-.641 1.849-.91 2.299l-.449.069c.209-.579.479-1.579.579-2.269l.78-.099zm1.18 3.248c-.28 0-.489-.23-.489-.56 0-.33.22-.57.5-.57.299 0 .499.23.499.57 0 .329-.18.56-.499.56h-.011zm0 3.668c-.28 0-.489-.23-.489-.56 0-.33.22-.57.5-.57.299 0 .499.23.499.57 0 .329-.18.56-.499.56h-.011zm2.499-6.916c-.209.81-.639 1.849-.899 2.299l-.46.069c.211-.579.48-1.579.58-2.269l.779-.099zm1.331 0c-.221.81-.641 1.849-.91 2.299l-.449.069c.209-.579.479-1.579.579-2.269l.78-.099zm.73-.08h.77v2.599h.021c.101-.17.25-.32.41-.43.17-.11.37-.17.64-.17.609 0 1.129.479 1.129 1.709v3.208h-.77v-3.118c0-.6-.13-1.149-.649-1.149-.36 0-.63.26-.749.77-.021.11-.031.25-.031.359v3.139h-.77v-6.917zm4.59 4.568c.01 1.489.59 1.799 1.14 1.799.34 0 .61-.08.8-.18l.13.56c-.271.15-.68.229-1.069.229-1.149 0-1.75-.939-1.75-2.429 0-1.568.66-2.548 1.63-2.548.979 0 1.38 1.039 1.38 2.129 0 .189-.011.319-.021.439h-2.24zm1.519-.57c.01-.97-.35-1.399-.72-1.399-.499 0-.76.739-.79 1.399h1.51zm1.571-3.998h.77v6.916h-.77v-6.916zm1.91 0h.77v6.916h-.77v-6.916zm3.269 6.996c-.869 0-1.569-.79-1.569-2.488 0-1.77.79-2.509 1.619-2.509.87 0 1.56.799 1.56 2.488 0 1.879-.859 2.509-1.6 2.509h-.01zm.04-.609c.659 0 .8-1.13.8-1.89 0-.749-.141-1.889-.82-1.889-.689 0-.818 1.14-.818 1.889 0 .8.139 1.89.828 1.89h.01zm3.231-6.307c-.21.81-.64 1.849-.899 2.299l-.46.069c.21-.579.479-1.579.579-2.269l.78-.099zm1.329 0c-.22.81-.64 1.849-.91 2.299l-.449.069c.21-.579.48-1.579.58-2.269l.779-.099zm2.43 4.207c-.549 0-.68.39-.68.71 0 .29.031.58.061.859.029.3.061.59.061.899 0 .95-.59 1.279-1.24 1.279h-.129v-.52h.129c.46-.05.6-.31.6-.76 0-.27-.029-.52-.05-.779-.03-.24-.06-.5-.06-.739-.01-.8.26-1.069.689-1.189v-.021c-.43-.13-.699-.409-.689-1.179 0-.25.029-.49.06-.74.021-.25.05-.51.05-.779 0-.45-.17-.699-.59-.75h-.139v-.52h.119c.699 0 1.25.38 1.25 1.279 0 .31-.031.6-.061.89-.029.28-.061.56-.061.85 0 .34.131.71.689.71l-.009.5zm-7.186 37.845v2.788h1.6v-2.788h1.068v6.736h-1.068v-2.969h-1.6v2.969h-1.069v-6.736h1.069zm6.52 3.668h-1.6v2.139h1.818v.93h-2.888v-6.736h2.769v.93h-1.699v1.849h1.6v.888zm2.04 1.319l-.36 1.749h-1.039l1.5-6.736h1.248l1.391 6.736h-1.04l-.36-1.749h-1.34zm1.229-.84l-.279-1.549c-.091-.439-.181-1.06-.25-1.529h-.03c-.07.47-.17 1.119-.25 1.539l-.3 1.539h1.109zm2.301-4.048a5.11 5.11 0 0 1 1.199-.13c.779 0 1.34.19 1.739.56.55.49.89 1.37.89 2.719 0 1.449-.359 2.359-.869 2.858-.45.46-1.109.68-1.979.68-.371 0-.74-.03-.98-.069v-6.618zm1.06 5.787c.091.021.19.021.261.021.738 0 1.408-.62 1.408-2.669 0-1.529-.43-2.409-1.359-2.409-.109 0-.219.011-.31.03v5.027zm6.309-2.218h-1.6v2.139h1.819v.93h-2.888v-6.736h2.768v.93h-1.699v1.849h1.6v.888zm1.092-3.569c.369-.09.839-.13 1.279-.13.699 0 1.279.12 1.668.49.381.359.51.81.51 1.369 0 .779-.379 1.389-1.059 1.699v.02c.479.17.719.62.859 1.42.14.819.3 1.539.41 1.769h-1.109c-.08-.189-.23-.85-.34-1.639-.131-.88-.381-1.16-.92-1.16h-.24v2.799h-1.059v-6.637zm1.058 3.019h.279c.641 0 1.04-.5 1.04-1.189 0-.659-.27-1.109-.96-1.119-.139 0-.27.01-.359.04v2.268zm3.221 2.478c.25.15.689.271 1.039.271.66 0 1.02-.38 1.02-.939 0-.54-.33-.85-.879-1.229-.75-.48-1.27-1.149-1.27-1.879 0-1.05.709-1.879 1.969-1.879.43 0 .819.13 1 .239l-.19.92c-.19-.12-.47-.23-.829-.23-.61 0-.9.41-.9.82 0 .52.27.759.96 1.199.849.56 1.188 1.209 1.188 1.929 0 1.209-.859 1.979-2.068 1.979-.5 0-1.01-.14-1.219-.279l.179-.922zm5.62 1.14v-4.258h-.61v-.579h.61v-.3c0-.521.08-1.06.43-1.449.28-.311.669-.41.97-.41.26 0 .459.05.6.12l-.12.6a1.091 1.091 0 0 0-.43-.08c-.55 0-.68.59-.68 1.209v.311h.88v.579h-.88v4.258h-.77zm2.111-3.588c0-.41-.031-.89-.041-1.249h.689l.041.759h.02c.16-.459.57-.839 1.02-.839.061 0 .109 0 .16.01v.789c-.051-.01-.1-.01-.16-.01-.49 0-.85.45-.93 1.01-.02.13-.029.27-.029.439v2.679h-.77v-3.588zm4.978 2.488c0 .37 0 .79.049 1.1h-.689l-.05-.51h-.03c-.209.37-.549.59-.959.59-.649 0-1.149-.54-1.149-1.379 0-1.22.97-1.749 2.06-1.76v-.149c0-.649-.16-1.1-.77-1.1-.301 0-.57.09-.801.25l-.17-.54c.211-.149.65-.319 1.13-.319.97 0 1.38.64 1.38 1.719v2.098zm-.75-1.409c-.4 0-1.33.08-1.33 1.13 0 .64.32.859.59.859.34 0 .62-.25.71-.729.021-.09.03-.19.03-.28v-.98zm1.841-1.079c0-.569-.03-.859-.04-1.249h.68l.04.589h.021c.209-.39.569-.669 1.079-.669.45 0 .839.21 1.02.729h.02c.13-.24.3-.43.47-.55.2-.12.42-.18.67-.18.66 0 1.17.47 1.17 1.709v3.208h-.77v-3.038c0-.63-.091-1.239-.67-1.239-.32 0-.6.27-.71.729-.03.12-.03.27-.03.43v3.118h-.77v-3.179c0-.529-.09-1.099-.659-1.099-.319 0-.63.27-.72.789-.02.12-.03.26-.03.41v3.078h-.77v-3.586zm6.739 1.239c.01 1.489.59 1.799 1.14 1.799.34 0 .61-.08.8-.18l.13.56c-.271.15-.68.229-1.069.229-1.149 0-1.75-.939-1.75-2.429 0-1.568.66-2.548 1.63-2.548.979 0 1.38 1.039 1.38 2.129 0 .189-.011.319-.021.439h-2.24zm1.52-.569c.01-.97-.35-1.399-.72-1.399-.499 0-.76.739-.79 1.399h1.51zm-41.199 21.947a5.11 5.11 0 0 1 1.199-.13c.779 0 1.34.19 1.739.56.55.49.89 1.37.89 2.719 0 1.449-.359 2.359-.869 2.858-.45.46-1.109.68-1.979.68-.371 0-.74-.03-.98-.069v-6.618zm1.059 5.787c.091.021.19.021.261.021.738 0 1.408-.62 1.408-2.669 0-1.529-.43-2.409-1.359-2.409-.109 0-.219.011-.31.03v5.027zm4.41-.899l-.36 1.749h-1.039l1.5-6.736h1.248l1.391 6.736h-1.04l-.36-1.749h-1.34zm1.23-.84l-.279-1.549c-.09-.439-.181-1.06-.25-1.529h-.03c-.07.47-.17 1.119-.25 1.539l-.3 1.539h1.109zm2.511-3.168h-1.21v-.979h3.488v.979h-1.209v5.757h-1.069v-5.757zm3.569 4.008l-.359 1.749h-1.039l1.499-6.736h1.249l1.39 6.736h-1.04l-.359-1.749h-1.341zm1.23-.84l-.28-1.549c-.091-.439-.181-1.06-.25-1.529h-.03c-.07.47-.17 1.119-.25 1.539l-.299 1.539h1.109zm3.991 2.589v-4.258h-.609v-.579h.609v-.3c0-.521.08-1.06.43-1.449.28-.311.67-.41.97-.41.261 0 .46.05.601.12l-.121.6c-.1-.04-.229-.08-.43-.08-.549 0-.68.59-.68 1.209v.311h.88v.579h-.88v4.258h-.77zm2.11-3.588c0-.41-.03-.89-.04-1.249h.689l.04.759h.021c.16-.459.569-.839 1.02-.839.06 0 .109 0 .159.01v.789c-.05-.01-.1-.01-.159-.01-.49 0-.85.45-.93 1.01-.021.13-.03.27-.03.439v2.679h-.77v-3.588zm4.978 2.488c0 .37 0 .79.05 1.1h-.689l-.051-.51h-.029c-.21.37-.55.59-.959.59-.65 0-1.15-.54-1.15-1.379 0-1.22.971-1.749 2.06-1.76v-.149c0-.649-.16-1.1-.77-1.1-.3 0-.569.09-.8.25l-.17-.54c.21-.149.65-.319 1.129-.319.971 0 1.38.64 1.38 1.719v2.098zm-.749-1.409c-.4 0-1.33.08-1.33 1.13 0 .64.32.859.59.859.34 0 .619-.25.709-.729.021-.09.031-.19.031-.28v-.98zm1.84-1.079c0-.569-.029-.859-.039-1.249h.68l.039.589h.021c.21-.39.569-.669 1.079-.669.45 0 .84.21 1.02.729h.02c.131-.24.301-.43.471-.55.199-.12.42-.18.67-.18.659 0 1.169.47 1.169 1.709v3.208h-.77v-3.038c0-.63-.091-1.239-.67-1.239-.319 0-.6.27-.71.729-.029.12-.029.27-.029.43v3.118h-.77v-3.179c0-.529-.09-1.099-.66-1.099-.319 0-.629.27-.719.789-.021.12-.031.26-.031.41v3.078h-.77v-3.586zm6.74 1.239c.01 1.489.59 1.799 1.139 1.799.34 0 .61-.08.801-.18l.129.56c-.27.15-.68.229-1.068.229-1.15 0-1.75-.939-1.75-2.429 0-1.568.66-2.548 1.629-2.548.98 0 1.38 1.039 1.38 2.129 0 .189-.011.319-.021.439h-2.239zm1.52-.569c.01-.97-.351-1.399-.721-1.399-.499 0-.76.739-.789 1.399h1.51z"/></svg>