<svg xmlns="http://www.w3.org/2000/svg" xmlns:xlink="http://www.w3.org/1999/xlink" viewBox="0 0 521 220"><path fill="none" stroke="#7e7e7e" stroke-miterlimit="10" d="M87.11 37.87l-6.94 19.26" stroke-linecap="round" stroke-linejoin="round" stroke-dasharray="1 4"/><path fill="none" stroke="#7e7e7e" stroke-miterlimit="10" d="M77.45 64.66l5.54-6.51-5.65-2.04z"/><path fill="gray" d="M11.99 23.6h1.07l-1.32 6.24h-1.08L12 23.59zm.5-2.37h1.08l-.26 1.2h-1.07l.25-1.2zm2.17 2.33h1.04l-.18.9c.31-.32.59-.54.82-.68.4-.24.81-.36 1.26-.36.5 0 .87.13 1.13.37.14.14.25.35.33.62.31-.33.64-.58.99-.74s.72-.25 1.11-.25c.85 0 1.36.3 1.53.92.1.33.08.77-.03 1.32l-.89 4.18h-1.1l.93-4.36c.09-.42.04-.7-.13-.86s-.42-.23-.72-.23c-.41 0-.8.13-1.15.41s-.6.74-.75 1.39l-.77 3.65h-1.07l.87-4.1c.09-.42.1-.73.04-.93-.1-.3-.36-.44-.8-.44-.4 0-.8.16-1.19.47s-.67.86-.84 1.67l-.7 3.33h-1.06l1.33-6.28zm9.91.04h1.02l-.17.82c.27-.28.54-.5.83-.66.4-.23.85-.35 1.33-.35.71 0 1.26.27 1.64.82s.46 1.32.24 2.33c-.29 1.37-.85 2.35-1.7 2.93-.52.37-1.09.56-1.7.56-.46 0-.84-.1-1.12-.31a1.94 1.94 0 0 1-.5-.6l-.67 3.2H22.7l1.86-8.75zm3.8 3.06c.1-.5.12-.93.05-1.29-.13-.69-.55-1.03-1.28-1.03s-1.3.36-1.73 1.1a4.9 4.9 0 0 0-.58 2.72c.14.64.57.97 1.3.97.49 0 .94-.2 1.35-.62s.71-1.03.89-1.85zm3.49-5.43h1.05l-1.82 8.6h-1.06l1.83-8.6zM34 23.6h1.06l-1.32 6.24h-1.07l1.32-6.25zm.5-2.37h1.07l-.26 1.2h-1.07l.25-1.2zm6.66 4.44h-1.02c.02-.39-.06-.7-.23-.96s-.5-.39-.98-.39c-.68 0-1.23.33-1.66.99-.27.42-.48.95-.61 1.57-.14.63-.12 1.16.06 1.6s.55.64 1.12.64c.43 0 .8-.14 1.12-.4s.57-.64.76-1.1h1.03c-.3.83-.72 1.44-1.27 1.82s-1.19.58-1.92.58c-.82 0-1.41-.3-1.77-.9s-.45-1.35-.26-2.25c.24-1.1.69-1.96 1.35-2.57s1.42-.92 2.24-.92c.71 0 1.25.17 1.62.52s.5.93.42 1.77zm1.5-2.07h1.07l-1.32 6.24h-1.08l1.33-6.25zm.5-2.37h1.07l-.25 1.2H42.9l.26-1.2zm2.75.58h1.07l-.37 1.75h1l-.18.86h-1l-.88 4.1c-.05.22 0 .36.13.44.07.04.2.06.4.06a4.83 4.83 0 0 0 .37-.02l-.17.84a2.61 2.61 0 0 1-.83.1c-.5 0-.8-.13-.92-.38s-.15-.58-.06-.98l.89-4.16h-.85l.18-.86h.85l.38-1.75zm6.12 1.75h1l-.23 1.09c.13-.21.38-.47.77-.77a1.95 1.95 0 0 1 1.3-.45l.23.02-.23 1.11a1.32 1.32 0 0 0-.34-.03c-.53 0-.98.18-1.33.52s-.59.73-.69 1.18l-.76 3.6H50.7l1.33-6.27zm8.74 3.01c-.21 1.01-.64 1.85-1.27 2.5s-1.46 1-2.5 1c-.86 0-1.49-.3-1.87-.88s-.47-1.37-.26-2.35c.22-1.06.67-1.9 1.34-2.52s1.45-.94 2.35-.94c.81 0 1.44.27 1.88.8s.56 1.34.33 2.39zm-1.1.03a3 3 0 0 0 .02-1.43c-.18-.58-.63-.87-1.35-.87-.65 0-1.17.25-1.57.74s-.66 1.08-.81 1.78c-.14.67-.11 1.22.08 1.67s.62.67 1.25.67c.7 0 1.24-.27 1.61-.8s.63-1.11.77-1.76zm7.78-.03c-.22 1.01-.64 1.85-1.27 2.5s-1.47 1-2.5 1c-.87 0-1.5-.3-1.87-.88s-.48-1.37-.27-2.35c.23-1.06.68-1.9 1.34-2.52s1.46-.94 2.36-.94c.8 0 1.43.27 1.88.8s.55 1.34.33 2.39zm-1.1.03c.12-.59.12-1.06.01-1.43-.17-.58-.62-.87-1.35-.87-.65 0-1.17.25-1.56.74s-.67 1.08-.82 1.78c-.14.67-.11 1.22.09 1.67s.61.67 1.25.67c.7 0 1.23-.27 1.6-.8s.63-1.11.77-1.76zm3.58-4.79h1.06l-.37 1.75h1l-.18.86h-1l-.88 4.1c-.04.22 0 .36.13.44.08.04.2.06.4.06a4.83 4.83 0 0 0 .38-.02l-.18.84a2.61 2.61 0 0 1-.83.1c-.49 0-.8-.13-.92-.38s-.14-.58-.06-.98l.89-4.16h-.85l.18-.86h.85l.38-1.75z"/><path fill="#0f0" d="M87.83 71.01a15.6 15.6 0 1 1-22.05 22.06 15.6 15.6 0 0 1 22.05-22.06" opacity=".2"/><path fill="none" stroke="#b3b3b3" stroke-miterlimit="10" d="M87.83 71.01a15.6 15.6 0 1 1-22.06 22.06 15.6 15.6 0 0 1 22.06-22.06" stroke-linecap="round" stroke-linejoin="round"/><path d="M75.86 70.9h2.04l3.05 8.64H79l-.57-1.77h-3.18l-.59 1.77h-1.89l3.09-8.64zm-.12 5.38h2.2l-1.08-3.4-1.12 3.4z"/><path fill="#4c4c4c" d="M71.74 87.1v-.75c.7-.06 1.19-.18 1.46-.34s.48-.53.62-1.13h.76v7.66h-1.03V87.1h-1.81zm5.82 3.71c.24-.49.7-.94 1.4-1.34l1.03-.6c.46-.26.78-.49.97-.68.29-.3.44-.64.44-1.02 0-.45-.14-.8-.4-1.07s-.63-.4-1.08-.4c-.66 0-1.12.26-1.38.76-.13.27-.2.64-.22 1.12h-.98c0-.67.13-1.22.37-1.64.42-.74 1.15-1.12 2.21-1.12.89 0 1.53.24 1.94.72.4.48.6 1 .6 1.59 0 .62-.21 1.14-.65 1.58-.25.25-.7.56-1.34.92l-.74.41c-.35.2-.63.38-.83.55-.35.32-.58.66-.67 1.04h4.2v.91h-5.28c.03-.66.17-1.24.41-1.73z"/><path fill="#fff" d="M109.17 15.8a15.6 15.6 0 1 1-22.05 22.07 15.6 15.6 0 0 1 22.05-22.06"/><path fill="none" stroke="#b3b3b3" stroke-miterlimit="10" d="M109.17 15.8a15.6 15.6 0 1 1-22.05 22.07 15.6 15.6 0 0 1 22.05-22.06" stroke-linecap="round" stroke-linejoin="round" stroke-dasharray="1 4"/><path fill="none" d="M0 0h521v220H0z"/><defs><path id="a" d="M109.17 15.8a15.6 15.6 0 1 1-22.05 22.07 15.6 15.6 0 0 1 22.05-22.06"/></defs><clipPath id="b"><use xlink:href="#a" overflow="visible"/></clipPath><g clip-path="url(#b)"><defs><path id="c" d="M0 0h521v220H0z"/></defs><clipPath id="d"><use xlink:href="#c" overflow="visible"/></clipPath><g clip-path="url(#d)"><path fill="#666" d="M95.17 21.05l2.04.66v-2.35h1.7v2.35l2.03-.66.46 1.45-2.08.64 1.36 1.95-1.25.89-1.36-1.84-1.4 1.84-1.24-.9 1.36-1.93-2.08-.64.46-1.46z"/></g></g><path fill="none" stroke="#7e7e7e" stroke-miterlimit="10" d="M109.17 37.87l6.33 19.17" stroke-linecap="round" stroke-linejoin="round" stroke-dasharray="1 4"/><path fill="none" stroke="#7e7e7e" stroke-miterlimit="10" d="M118.01 64.64l.34-8.54-5.69 1.88z"/><path fill="red" d="M129.64 71.01a15.6 15.6 0 1 1-22.06 22.06 15.6 15.6 0 0 1 22.06-22.06" opacity=".15"/><path fill="none" stroke="#b3b3b3" stroke-miterlimit="10" d="M129.64 71.01a15.6 15.6 0 1 1-22.07 22.06 15.6 15.6 0 0 1 22.07-22.06" stroke-linecap="round" stroke-linejoin="round"/><path d="M121.63 71.82c.27.37.4.81.4 1.32 0 .53-.14.95-.4 1.27-.15.18-.37.35-.66.5.44.16.77.4 1 .76s.33.77.33 1.26a2.52 2.52 0 0 1-1.97 2.5c-.38.07-.78.11-1.22.11h-3.9V70.9h4.18c1.06.02 1.8.33 2.24.92zm-4.69.58v1.9h2.1c.38 0 .68-.06.91-.2.24-.15.36-.4.36-.77 0-.4-.16-.66-.47-.8-.27-.08-.6-.13-1.02-.13h-1.88zm0 3.34v2.3h2.1c.37 0 .66-.05.87-.15.38-.19.57-.55.57-1.08 0-.45-.18-.76-.55-.93a2.2 2.2 0 0 0-.86-.14h-2.13z"/><path fill="#4c4c4c" d="M119.2 92.54v-1.88h-3.37v-.94l3.52-4.9h.82v5h1.13v.84h-1.13v1.88h-.97zm-.01-2.72v-3.5l-2.47 3.5h2.47z"/><path fill="none" stroke="#7e7e7e" stroke-miterlimit="10" d="M212.99 97.64l-.26 14.11" stroke-linecap="round" stroke-linejoin="round"/><path fill="#7e7e7e" d="M212.58 119.75l3.15-7.95-6-.11z"/><path fill="none" stroke="#7e7e7e" stroke-miterlimit="10" d="M212.58 119.75l3.15-7.95-6-.11z"/><path fill="#6cf" d="M223.58 126.21a15.6 15.6 0 1 1-22.06 22.06 15.6 15.6 0 0 1 22.06-22.06" opacity=".25"/><path fill="none" stroke="#b3b3b3" stroke-miterlimit="10" d="M223.58 126.21a15.6 15.6 0 1 1-22.06 22.06 15.6 15.6 0 0 1 22.06-22.06" stroke-linecap="round" stroke-linejoin="round"/><path d="M209.95 127.01a3.55 3.55 0 0 1 2.66-1.07c1.44 0 2.49.48 3.15 1.43.37.54.57 1.08.6 1.62h-1.81a2.46 2.46 0 0 0-.45-.94c-.32-.38-.8-.56-1.42-.56-.65 0-1.15.26-1.53.79s-.55 1.28-.55 2.25.2 1.69.59 2.17.89.73 1.49.73c.62 0 1.09-.21 1.41-.62.18-.23.33-.56.45-1h1.8c-.16.93-.56 1.7-1.2 2.3s-1.44.88-2.43.88c-1.23 0-2.2-.4-2.9-1.2-.7-.8-1.06-1.9-1.06-3.3 0-1.5.4-2.66 1.2-3.48z"/><path fill="#4c4c4c" d="M210.53 143.24a1.52 1.52 0 0 1-.42-1.11c0-.58.2-1.07.62-1.48.42-.41 1-.62 1.77-.62.73 0 1.31.2 1.73.58s.63.85.63 1.36c0 .48-.12.87-.37 1.17-.13.17-.34.33-.63.5a1.94 1.94 0 0 1 1.27 1.9c0 .67-.23 1.25-.69 1.72s-1.1.7-1.92.7c-.75 0-1.38-.2-1.9-.6-.52-.41-.78-1-.78-1.78 0-.45.11-.84.34-1.18.22-.33.55-.58.98-.76a1.92 1.92 0 0 1-.63-.4zm3.12 3.48c.3-.24.45-.6.45-1.08 0-.5-.16-.88-.46-1.13s-.7-.4-1.17-.4c-.46 0-.84.14-1.13.4-.3.27-.44.63-.44 1.1 0 .4.13.74.4 1.04.27.29.68.43 1.24.43.45 0 .82-.12 1.11-.36zm-.18-3.8c.24-.24.36-.52.36-.86 0-.28-.11-.55-.34-.79-.23-.24-.58-.36-1.04-.36-.47 0-.8.12-1.01.36-.21.24-.31.52-.31.85 0 .36.13.64.4.85.27.2.58.3.95.3.42 0 .75-.11 1-.35z"/><path fill="#fff" d="M224.01 15.8a15.6 15.6 0 1 1-22.05 22.07A15.6 15.6 0 0 1 224 15.8"/><path fill="none" stroke="#b3b3b3" stroke-miterlimit="10" d="M224.01 15.8a15.6 15.6 0 1 1-22.05 22.07A15.6 15.6 0 0 1 224 15.8" stroke-linecap="round" stroke-linejoin="round" stroke-dasharray="1 4"/><path fill="none" d="M0 0h521v220H0z"/><defs><path id="e" d="M224.01 15.8a15.6 15.6 0 1 1-22.05 22.07A15.6 15.6 0 0 1 224 15.8"/></defs><clipPath id="f"><use xlink:href="#e" overflow="visible"/></clipPath><g clip-path="url(#f)"><defs><path id="g" d="M0 0h521v220H0z"/></defs><clipPath id="h"><use xlink:href="#g" overflow="visible"/></clipPath><g clip-path="url(#h)"><path fill="#666" d="M210.01 21.05l2.04.66v-2.35h1.7v2.35l2.03-.66.46 1.45-2.08.64 1.36 1.95-1.25.89-1.36-1.84-1.4 1.84-1.25-.9 1.37-1.93-2.08-.64.46-1.46z"/></g></g><path fill="none" stroke="#7e7e7e" stroke-miterlimit="10" d="M212.99 42.44v14.1" stroke-linecap="round" stroke-linejoin="round" stroke-dasharray="1 4"/><path fill="none" stroke="#7e7e7e" stroke-miterlimit="10" d="M212.99 64.54l3-8h-6z"/><path fill="#e6e6e6" d="M224.01 71.01a15.6 15.6 0 1 1-22.05 22.06A15.6 15.6 0 0 1 224 71.01"/><path fill="none" stroke="#b3b3b3" stroke-miterlimit="10" d="M224.01 71.01a15.6 15.6 0 1 1-22.05 22.06A15.6 15.6 0 0 1 224 71.01" stroke-linecap="round" stroke-linejoin="round"/><path d="M214.63 71.1c.6.2 1.1.56 1.47 1.09.3.43.5.9.61 1.4.11.5.17.97.17 1.42 0 1.15-.23 2.12-.7 2.92a3.12 3.12 0 0 1-2.9 1.61h-3.71v-8.63h3.72c.53 0 .98.06 1.34.18zm-3.31 1.3v5.64h1.66c.86 0 1.45-.42 1.79-1.26.18-.46.27-1 .27-1.65a4 4 0 0 0-.41-2.02c-.28-.47-.82-.7-1.65-.7h-1.66z"/><path fill="#4c4c4c" d="M210.98 87.1v-.75c.7-.06 1.18-.18 1.46-.34s.48-.53.62-1.13h.76v7.66h-1.03V87.1h-1.81z"/><path fill="none" stroke="#7e7e7e" stroke-miterlimit="10" d="M324.47 97.64l-.26 14.11" stroke-linecap="round" stroke-linejoin="round"/><path fill="#7e7e7e" d="M324.06 119.75l3.15-7.95-6-.11z"/><path fill="none" stroke="#7e7e7e" stroke-miterlimit="10" d="M324.06 119.75l3.15-7.95-6-.11z"/><path fill="#6cf" d="M335.06 126.21A15.6 15.6 0 1 1 313 148.27a15.6 15.6 0 0 1 22.06-22.06" opacity=".25"/><path fill="none" stroke="#b3b3b3" stroke-miterlimit="10" d="M335.06 126.21A15.6 15.6 0 1 1 313 148.27a15.6 15.6 0 0 1 22.06-22.06" stroke-linecap="round" stroke-linejoin="round"/><path d="M321.44 127.01a3.55 3.55 0 0 1 2.65-1.07c1.44 0 2.49.48 3.15 1.43.37.54.57 1.08.6 1.62h-1.81a2.46 2.46 0 0 0-.44-.94c-.32-.38-.8-.56-1.43-.56-.65 0-1.15.26-1.52.79s-.56 1.28-.56 2.25.2 1.69.59 2.17c.4.49.89.73 1.5.73s1.08-.21 1.4-.62c.19-.23.34-.56.45-1h1.8c-.16.93-.55 1.7-1.19 2.3s-1.45.88-2.44.88c-1.23 0-2.2-.4-2.9-1.2-.7-.8-1.05-1.9-1.05-3.3 0-1.5.4-2.66 1.2-3.48z"/><path fill="#4c4c4c" d="M322.02 143.24a1.52 1.52 0 0 1-.43-1.11c0-.58.21-1.07.63-1.48.41-.41 1-.62 1.76-.62.74 0 1.32.2 1.73.58s.63.85.63 1.36c0 .48-.12.87-.36 1.17-.14.17-.35.33-.64.5.32.14.58.3.76.5.34.36.51.82.51 1.4 0 .67-.23 1.25-.68 1.72-.46.47-1.1.7-1.93.7-.75 0-1.38-.2-1.9-.6s-.77-1-.77-1.78c0-.45.1-.84.33-1.18.22-.33.55-.58.99-.76a1.9 1.9 0 0 1-.63-.4zm3.12 3.48c.3-.24.44-.6.44-1.08 0-.5-.15-.88-.46-1.13-.3-.26-.7-.4-1.17-.4-.46 0-.84.14-1.13.4-.3.27-.44.63-.44 1.1 0 .4.14.74.4 1.04.27.29.68.43 1.24.43.45 0 .82-.12 1.12-.36zm-.18-3.8a1.14 1.14 0 0 0 .01-1.65c-.23-.24-.58-.36-1.04-.36-.47 0-.8.12-1.01.36-.2.24-.31.52-.31.85 0 .36.13.64.4.85.27.2.58.3.95.3.43 0 .76-.11 1-.35z"/><path fill="#fff" d="M335.5 15.8a15.6 15.6 0 1 1-22.06 22.07A15.6 15.6 0 0 1 335.5 15.8"/><path fill="none" stroke="#b3b3b3" stroke-miterlimit="10" d="M335.5 15.8a15.6 15.6 0 1 1-22.06 22.07A15.6 15.6 0 0 1 335.5 15.8" stroke-linecap="round" stroke-linejoin="round" stroke-dasharray="1 4"/><path fill="none" d="M0 0h521v220H0z"/><defs><path id="i" d="M335.5 15.8a15.6 15.6 0 1 1-22.06 22.07A15.6 15.6 0 0 1 335.5 15.8"/></defs><clipPath id="j"><use xlink:href="#i" overflow="visible"/></clipPath><g clip-path="url(#j)"><defs><path id="k" d="M0 0h521v220H0z"/></defs><clipPath id="l"><use xlink:href="#k" overflow="visible"/></clipPath><g clip-path="url(#l)"><path fill="#666" d="M321.5 21.05l2.04.66v-2.35h1.68v2.35l2.04-.66.46 1.45-2.08.64L327 25.1l-1.25.89-1.35-1.84-1.4 1.84-1.25-.9 1.37-1.93-2.08-.64.45-1.46z"/></g></g><path fill="none" stroke="#7e7e7e" stroke-miterlimit="10" d="M324.47 42.44v14.1" stroke-linecap="round" stroke-linejoin="round" stroke-dasharray="1 4"/><path fill="none" stroke="#7e7e7e" stroke-miterlimit="10" d="M324.47 64.54l3-8h-6z"/><path fill="#e6e6e6" d="M335.5 71.01a15.6 15.6 0 1 1-22.06 22.06 15.6 15.6 0 0 1 22.06-22.06"/><path fill="none" stroke="#b3b3b3" stroke-miterlimit="10" d="M335.5 71.01a15.6 15.6 0 1 1-22.06 22.06 15.6 15.6 0 0 1 22.06-22.06" stroke-linecap="round" stroke-linejoin="round"/><path d="M326.1 71.1c.61.2 1.1.56 1.48 1.09.3.43.5.9.62 1.4.1.5.16.97.16 1.42 0 1.15-.23 2.12-.7 2.92a3.12 3.12 0 0 1-2.89 1.61h-3.72v-8.63h3.72c.54 0 .98.06 1.34.18zm-3.3 1.3v5.64h1.67c.85 0 1.44-.42 1.78-1.26.19-.46.28-1 .28-1.65 0-.87-.14-1.55-.42-2.02s-.82-.7-1.64-.7h-1.67z"/><path fill="#4c4c4c" d="M322.46 87.1v-.75c.7-.06 1.19-.18 1.46-.34.28-.16.48-.53.62-1.13h.76v7.66h-1.03V87.1h-1.8z"/><path fill="none" stroke="#7e7e7e" stroke-miterlimit="10" d="M313 148.27l-6.33 19.18" stroke-linecap="round" stroke-linejoin="round"/><path fill="#7e7e7e" d="M304.16 175.04l5.36-6.65-5.7-1.88z"/><path fill="none" stroke="#7e7e7e" stroke-miterlimit="10" d="M304.16 175.04l5.36-6.65-5.7-1.88z"/><path fill="#0f0" d="M314.6 181.42a15.6 15.6 0 1 1-22.07 22.06 15.6 15.6 0 0 1 22.07-22.06" opacity=".2"/><path fill="none" stroke="#b3b3b3" stroke-miterlimit="10" d="M314.6 181.42a15.6 15.6 0 1 1-22.07 22.06 15.6 15.6 0 0 1 22.07-22.06" stroke-linecap="round" stroke-linejoin="round"/><path d="M302.62 181.31h2.04l3.05 8.64h-1.95l-.57-1.78H302l-.59 1.78h-1.89l3.09-8.64zm-.12 5.37h2.2l-1.08-3.4-1.12 3.4z"/><path fill="#4c4c4c" d="M298.5 197.5v-.74c.7-.07 1.19-.18 1.46-.34.28-.16.48-.54.62-1.13h.76v7.66h-1.03v-5.45h-1.8zm5.82 3.72c.24-.5.7-.94 1.4-1.34l1.02-.6c.47-.27.8-.5.98-.68.3-.3.44-.64.44-1.03 0-.44-.14-.8-.4-1.06s-.63-.4-1.08-.4c-.66 0-1.12.25-1.37.76-.14.27-.22.64-.23 1.12h-.98c0-.67.13-1.22.37-1.64.42-.75 1.16-1.12 2.22-1.12.88 0 1.52.24 1.93.71s.6 1.01.6 1.6c0 .61-.21 1.14-.64 1.57-.25.26-.7.57-1.35.93l-.74.4c-.35.2-.62.38-.82.56a2 2 0 0 0-.68 1.04h4.2v.9h-5.28c.03-.66.17-1.23.41-1.72z"/><path fill="none" stroke="#7e7e7e" stroke-miterlimit="10" d="M335.06 148.27l6.95 19.27" stroke-linecap="round" stroke-linejoin="round"/><path fill="#7e7e7e" d="M344.72 175.06l.11-8.54-5.64 2.03z"/><path fill="none" stroke="#7e7e7e" stroke-miterlimit="10" d="M344.72 175.06l.11-8.54-5.64 2.03z"/><path fill="red" d="M356.4 181.42a15.6 15.6 0 1 1-22.06 22.06 15.6 15.6 0 0 1 22.06-22.06" opacity=".15"/><path fill="none" stroke="#b3b3b3" stroke-miterlimit="10" d="M356.4 181.42a15.6 15.6 0 1 1-22.06 22.06 15.6 15.6 0 0 1 22.06-22.06" stroke-linecap="round" stroke-linejoin="round"/><path d="M348.4 182.23c.26.37.39.8.39 1.32s-.14.95-.4 1.27a2.1 2.1 0 0 1-.66.49c.44.16.77.41 1 .76.22.35.33.77.33 1.27a2.52 2.52 0 0 1-1.97 2.49 5.8 5.8 0 0 1-1.22.12h-3.9v-8.64h4.18c1.06.01 1.8.32 2.24.92zm-4.7.58v1.9h2.1c.38 0 .68-.07.91-.21.24-.14.36-.4.36-.76 0-.4-.16-.67-.47-.8-.27-.09-.6-.13-1.02-.13h-1.88zm0 3.33v2.3h2.1c.37 0 .66-.04.87-.14.38-.2.57-.55.57-1.08 0-.45-.18-.76-.55-.93-.2-.1-.5-.14-.86-.14h-2.13z"/><path fill="#4c4c4c" d="M345.96 202.95v-1.88h-3.37v-.95l3.52-4.89h.82v5h1.13v.84h-1.13v1.88h-.97zm-.01-2.73v-3.49l-2.47 3.5h2.47z"/><path fill="none" stroke="#7e7e7e" stroke-miterlimit="10" d="M463.2 93.07l6.33 19.18" stroke-linecap="round" stroke-linejoin="round"/><path fill="#7e7e7e" d="M472.04 119.84l.34-8.54-5.7 1.89z"/><path fill="none" stroke="#7e7e7e" stroke-miterlimit="10" d="M472.04 119.84l.34-8.54-5.7 1.89z"/><path fill="#6cf" d="M483.67 126.21a15.6 15.6 0 1 1-22.06 22.06 15.6 15.6 0 0 1 22.06-22.06" opacity=".25"/><path fill="none" stroke="#b3b3b3" stroke-miterlimit="10" d="M483.67 126.21a15.6 15.6 0 1 1-22.06 22.06 15.6 15.6 0 0 1 22.06-22.06" stroke-linecap="round" stroke-linejoin="round"/><path d="M470.04 127.01a3.55 3.55 0 0 1 2.66-1.07c1.44 0 2.49.48 3.15 1.43.37.54.56 1.08.6 1.62h-1.81a2.46 2.46 0 0 0-.44-.94c-.33-.38-.8-.56-1.43-.56-.65 0-1.15.26-1.52.79s-.56 1.28-.56 2.25.2 1.69.59 2.17.89.73 1.49.73c.62 0 1.09-.21 1.41-.62.18-.23.33-.56.45-1h1.8c-.16.93-.56 1.7-1.2 2.3s-1.44.88-2.43.88c-1.23 0-2.2-.4-2.9-1.2-.7-.8-1.06-1.9-1.06-3.3 0-1.5.4-2.66 1.2-3.48z"/><path fill="#4c4c4c" d="M470.63 143.24a1.52 1.52 0 0 1-.43-1.11c0-.58.2-1.07.62-1.48.42-.41 1-.62 1.77-.62.74 0 1.31.2 1.73.58.42.4.63.85.63 1.36 0 .48-.12.87-.36 1.17-.14.17-.35.33-.64.5.32.14.57.3.76.5.34.36.5.82.5 1.4a2.4 2.4 0 0 1-.67 1.72c-.46.47-1.1.7-1.93.7-.75 0-1.38-.2-1.9-.6s-.78-1-.78-1.78c0-.45.11-.84.34-1.18s.55-.58.98-.76a1.9 1.9 0 0 1-.62-.4zm3.11 3.48c.3-.24.45-.6.45-1.08 0-.5-.16-.88-.46-1.13-.3-.26-.7-.4-1.17-.4-.46 0-.84.14-1.13.4-.3.27-.44.63-.44 1.1 0 .4.13.74.4 1.04.27.29.68.43 1.24.43.45 0 .82-.12 1.11-.36zm-.18-3.8c.24-.24.36-.52.36-.86 0-.28-.11-.55-.34-.79-.23-.24-.58-.36-1.05-.36-.46 0-.8.12-1 .36-.21.24-.31.52-.31.85 0 .36.13.64.4.85.27.2.58.3.95.3.42 0 .75-.11 1-.35z"/><path fill="#fff" d="M463.2 15.8a15.6 15.6 0 1 1-22.05 22.07A15.6 15.6 0 0 1 463.2 15.8"/><path fill="none" stroke="#b3b3b3" stroke-miterlimit="10" d="M463.2 15.8a15.6 15.6 0 1 1-22.06 22.07A15.6 15.6 0 0 1 463.2 15.8" stroke-linecap="round" stroke-linejoin="round" stroke-dasharray="1 4"/><path fill="none" d="M0 0h521v220H0z"/><defs><path id="m" d="M463.2 15.8a15.6 15.6 0 1 1-22.05 22.07A15.6 15.6 0 0 1 463.2 15.8"/></defs><clipPath id="n"><use xlink:href="#m" overflow="visible"/></clipPath><g clip-path="url(#n)"><defs><path id="o" d="M0 0h521v220H0z"/></defs><clipPath id="p"><use xlink:href="#o" overflow="visible"/></clipPath><g clip-path="url(#p)"><path fill="#666" d="M449.2 21.05l2.04.66v-2.35h1.69v2.35l2.04-.66.46 1.45-2.08.64 1.36 1.95-1.25.89-1.36-1.84-1.4 1.84-1.25-.9 1.37-1.93-2.08-.64.46-1.46z"/></g></g><path fill="none" stroke="#7e7e7e" stroke-miterlimit="10" d="M452.17 42.44v14.1" stroke-linecap="round" stroke-linejoin="round" stroke-dasharray="1 4"/><path fill="none" stroke="#7e7e7e" stroke-miterlimit="10" d="M452.17 64.54l3-8h-6z"/><path fill="#e6e6e6" d="M463.2 71.01a15.6 15.6 0 1 1-22.05 22.06 15.6 15.6 0 0 1 22.05-22.06"/><path fill="none" stroke="#b3b3b3" stroke-miterlimit="10" d="M463.2 71.01a15.6 15.6 0 1 1-22.06 22.06 15.6 15.6 0 0 1 22.06-22.06" stroke-linecap="round" stroke-linejoin="round"/><path d="M453.81 71.1c.61.2 1.1.56 1.48 1.09.3.43.5.9.61 1.4s.17.97.17 1.42c0 1.15-.23 2.12-.7 2.92a3.12 3.12 0 0 1-2.9 1.61h-3.72v-8.63h3.73c.53 0 .98.06 1.33.18zm-3.3 1.3v5.64h1.66c.86 0 1.45-.42 1.79-1.26.18-.46.27-1 .27-1.65 0-.87-.14-1.55-.41-2.02-.28-.47-.83-.7-1.65-.7h-1.66z"/><path fill="#4c4c4c" d="M450.17 87.1v-.75c.7-.06 1.18-.18 1.46-.34.27-.16.48-.53.62-1.13h.76v7.66h-1.03V87.1h-1.81z"/><path fill="none" stroke="#7e7e7e" stroke-miterlimit="10" d="M461.61 148.27l-6.33 19.18" stroke-linecap="round" stroke-linejoin="round"/><path fill="#7e7e7e" d="M452.77 175.04l5.36-6.65-5.7-1.88z"/><path fill="none" stroke="#7e7e7e" stroke-miterlimit="10" d="M452.77 175.04l5.36-6.65-5.7-1.88z"/><path fill="#0f0" d="M463.2 181.42a15.6 15.6 0 1 1-22.05 22.06 15.6 15.6 0 0 1 22.05-22.06" opacity=".2"/><path fill="none" stroke="#b3b3b3" stroke-miterlimit="10" d="M463.2 181.42a15.6 15.6 0 1 1-22.06 22.06 15.6 15.6 0 0 1 22.06-22.06" stroke-linecap="round" stroke-linejoin="round"/><path d="M451.22 181.31h2.05l3.05 8.64h-1.96l-.56-1.78h-3.19l-.58 1.78h-1.89l3.08-8.64zm-.12 5.37h2.22l-1.1-3.4-1.12 3.4z"/><path fill="#4c4c4c" d="M447.1 197.5v-.74c.7-.07 1.2-.18 1.47-.34.27-.16.48-.54.62-1.13h.76v7.66h-1.03v-5.45h-1.81zm5.83 3.72c.24-.5.7-.94 1.4-1.34l1.02-.6c.46-.27.79-.5.98-.68.29-.3.44-.64.44-1.03 0-.44-.14-.8-.4-1.06s-.63-.4-1.08-.4c-.66 0-1.12.25-1.38.76-.13.27-.2.64-.22 1.12h-.98c0-.67.13-1.22.37-1.64.41-.75 1.15-1.12 2.21-1.12.89 0 1.53.24 1.94.71s.6 1.01.6 1.6c0 .61-.21 1.14-.64 1.57-.26.26-.7.57-1.35.93l-.74.4c-.35.2-.63.38-.83.56-.35.31-.58.66-.67 1.04h4.2v.9h-5.28c.03-.66.17-1.23.4-1.72z"/><path fill="none" stroke="#7e7e7e" stroke-miterlimit="10" d="M483.67 148.27l6.95 19.27" stroke-linecap="round" stroke-linejoin="round"/><path fill="#7e7e7e" d="M493.33 175.06l.11-8.54-5.65 2.03z"/><path fill="none" stroke="#7e7e7e" stroke-miterlimit="10" d="M493.33 175.06l.11-8.54-5.64 2.03z"/><path fill="red" d="M505 181.42a15.6 15.6 0 1 1-22.05 22.06 15.6 15.6 0 0 1 22.06-22.06" opacity=".15"/><path fill="none" stroke="#b3b3b3" stroke-miterlimit="10" d="M505 181.42a15.6 15.6 0 1 1-22.05 22.06 15.6 15.6 0 0 1 22.06-22.06" stroke-linecap="round" stroke-linejoin="round"/><path d="M497 182.23c.26.37.4.8.4 1.32s-.14.95-.4 1.27a2.1 2.1 0 0 1-.66.49c.44.16.77.41 1 .76.22.35.33.77.33 1.27a2.52 2.52 0 0 1-1.97 2.49c-.38.08-.78.12-1.22.12h-3.9v-8.64h4.18c1.05.01 1.8.32 2.24.92zm-4.69.58v1.9h2.1c.37 0 .68-.07.91-.21.24-.14.35-.4.35-.76 0-.4-.15-.67-.46-.8-.27-.09-.6-.13-1.02-.13h-1.88zm0 3.33v2.3h2.1c.37 0 .66-.04.87-.14.38-.2.57-.55.57-1.08 0-.45-.19-.76-.55-.93-.2-.1-.5-.14-.86-.14h-2.13z"/><path fill="#4c4c4c" d="M494.57 202.95v-1.88h-3.37v-.95l3.52-4.89h.82v5h1.13v.84h-1.13v1.88h-.97zm-.02-2.73v-3.49l-2.46 3.5h2.46z"/><path fill="none" stroke="#7e7e7e" stroke-miterlimit="10" d="M441.14 93.07l-6.95 19.26" stroke-linecap="round" stroke-linejoin="round"/><path fill="#7e7e7e" d="M431.48 119.86l5.53-6.51-5.64-2.04z"/><path fill="none" stroke="#7e7e7e" stroke-miterlimit="10" d="M431.48 119.86l5.53-6.51-5.64-2.04z"/><path fill="#ff6" d="M441.86 126.21a15.6 15.6 0 1 1-22.06 22.06 15.6 15.6 0 0 1 22.06-22.06" opacity=".25"/><path fill="none" stroke="#b3b3b3" stroke-miterlimit="10" d="M441.86 126.21a15.6 15.6 0 1 1-22.06 22.06 15.6 15.6 0 0 1 22.06-22.06" stroke-linecap="round" stroke-linejoin="round"/><path d="M434.13 127.64h-4.57v1.83h4.2v1.5h-4.2v2.22h4.78v1.56h-6.54v-8.64h6.33v1.53z"/><path fill="#4c4c4c" d="M428.82 143.24a1.52 1.52 0 0 1-.42-1.11c0-.58.2-1.07.62-1.48.41-.41 1-.62 1.76-.62.74 0 1.32.2 1.74.58.41.4.62.85.62 1.36 0 .48-.12.87-.36 1.17-.14.17-.35.33-.63.5a1.94 1.94 0 0 1 1.27 1.9c0 .67-.23 1.25-.69 1.72-.45.47-1.1.7-1.93.7-.75 0-1.38-.2-1.9-.6-.51-.41-.77-1-.77-1.78 0-.45.1-.84.33-1.18.22-.33.55-.58.99-.76a1.93 1.93 0 0 1-.63-.4zm3.12 3.48c.3-.24.44-.6.44-1.08 0-.5-.15-.88-.46-1.13-.3-.26-.69-.4-1.17-.4-.46 0-.84.14-1.13.4-.29.27-.44.63-.44 1.1 0 .4.14.74.4 1.04s.68.43 1.24.43c.45 0 .82-.12 1.12-.36zm-.18-3.8a1.14 1.14 0 0 0 .01-1.65c-.22-.24-.57-.36-1.04-.36-.47 0-.8.12-1 .36a1.2 1.2 0 0 0-.32.85c0 .36.13.64.4.85.27.2.59.3.95.3.43 0 .76-.11 1-.35z"/><path fill="gray" d="M14.43 76.4c-.03.3 0 .51.1.64.16.22.51.33 1.07.33.33 0 .6-.05.81-.15s.35-.24.4-.43c.03-.2-.02-.33-.15-.43s-.69-.27-1.64-.5c-.68-.19-1.14-.41-1.38-.68-.24-.27-.31-.65-.2-1.15.12-.59.46-1.1 1.02-1.52s1.24-.64 2.08-.64c.8 0 1.42.16 1.85.48s.6.87.52 1.65h-1.67a.88.88 0 0 0-.08-.5c-.14-.24-.43-.35-.87-.35-.36 0-.63.06-.8.17s-.29.25-.32.4c-.04.2 0 .33.16.42.14.09.69.24 1.64.46.63.15 1.07.4 1.34.7.26.33.34.73.24 1.2-.14.64-.48 1.16-1.04 1.56s-1.32.6-2.3.6c-1.01 0-1.7-.21-2.1-.64s-.51-.96-.37-1.62h1.69zm5.37-3.1l.26-1.18h.9l.37-1.79h1.65l-.38 1.79h1.04l-.25 1.18h-1.04l-.72 3.38c-.05.26-.06.42 0 .49s.25.1.59.1h.16l.17-.02-.27 1.25-.8.03c-.79.03-1.3-.1-1.53-.41-.14-.2-.17-.49-.09-.89l.84-3.93h-.9zm8.65-1.38l-.37 1.7-.27-.02h-.2c-.67 0-1.17.22-1.5.65-.18.25-.32.63-.43 1.14l-.65 3.05h-1.68l1.36-6.38h1.59l-.23 1.11c.34-.43.63-.72.85-.87a2.2 2.2 0 0 1 1.52-.38zm5.72 1.21c.18.38.24.82.21 1.32a9.5 9.5 0 0 1-.21 1.26H29.8c-.12.64-.01 1.1.31 1.35.2.16.46.24.78.24.35 0 .65-.1.9-.3.14-.1.28-.25.4-.43h1.71a3.57 3.57 0 0 1-3.33 2.09c-.81 0-1.47-.27-1.98-.8s-.64-1.37-.4-2.55c.24-1.1.7-1.95 1.39-2.54a3.54 3.54 0 0 1 3.74-.59c.39.2.67.52.85.95zm-4.1 1.48h2.6c.07-.44 0-.77-.19-1s-.47-.35-.82-.35c-.39 0-.71.12-.98.37s-.47.57-.6.98zm7.97-.05a3 3 0 0 0 .7-.15c.26-.1.4-.26.46-.47.05-.26 0-.44-.16-.54s-.42-.15-.77-.15c-.4 0-.7.1-.9.29-.15.14-.27.34-.36.59H35.4a3.2 3.2 0 0 1 .76-1.38c.56-.56 1.38-.85 2.46-.85.7 0 1.29.14 1.77.42s.65.8.48 1.57l-.63 2.93-.14.74c-.03.22-.03.37 0 .44s.11.15.2.2l-.04.24h-1.81a1.14 1.14 0 0 1-.03-.36l.03-.39c-.28.25-.6.47-.93.64-.4.2-.84.31-1.29.31-.58 0-1.02-.16-1.33-.5s-.4-.8-.26-1.4c.16-.78.59-1.35 1.27-1.7.37-.2.89-.33 1.55-.41l.58-.07zm.85.78a2.16 2.16 0 0 1-.82.27l-.39.07c-.36.06-.63.14-.8.23a1 1 0 0 0-.54.71c-.06.28-.03.5.1.62s.32.19.54.19c.36 0 .71-.1 1.06-.32s.59-.6.72-1.15l.13-.62zm12.44-2.69c.13.23.2.5.19.82 0 .22-.06.53-.14.95l-.87 4.02H48.8l.86-4.06c.05-.25.06-.45.01-.6-.08-.3-.33-.45-.72-.45-.47 0-.82.2-1.08.58-.14.2-.23.44-.3.73l-.8 3.8H45.1l.8-3.8c.08-.38.1-.66.06-.83-.07-.3-.31-.46-.73-.46-.47 0-.83.15-1.06.46-.12.18-.22.44-.3.79l-.8 3.84h-1.7l1.35-6.37h1.62l-.2.93c.28-.33.53-.57.74-.7a2.3 2.3 0 0 1 1.34-.38c.49 0 .86.1 1.12.32.2.2.33.45.39.77.3-.38.62-.65.99-.83.38-.18.78-.26 1.2-.26.28 0 .54.05.8.16s.45.3.62.57zM18.08 85.7l.14 4.52 2.09-4.53h1.08l.17 4.5 2.13-4.5h.97l-2.89 5.75h-1L20.54 87l-2.08 4.45h-1l-.44-5.75h1.06zm11.76.9c.13.28.19.62.17 1 0 .27-.06.7-.18 1.28H25.6c-.1.58-.07 1.05.12 1.4.18.35.54.53 1.08.53.5 0 .95-.17 1.32-.5.21-.2.38-.42.5-.67h.96a3.36 3.36 0 0 1-1 1.34 2.9 2.9 0 0 1-1.23.58c-.24.06-.51.09-.8.09-.72 0-1.28-.26-1.66-.78-.39-.53-.48-1.26-.28-2.2.2-.92.6-1.67 1.23-2.24s1.34-.87 2.15-.87c.4 0 .78.1 1.13.29s.58.44.7.74zM29 88.1c.05-.41.03-.75-.06-1-.17-.46-.56-.7-1.18-.7-.44 0-.85.16-1.22.48s-.61.73-.74 1.23H29zm2.69-2.38h.98l-1.22 5.72h-.98l1.22-5.72zm.46-2.17h.98l-.24 1.1h-.98l.24-1.1zm5.15 2.37c.16.13.3.3.44.55l.15-.73h.9l-1.12 5.24a4.5 4.5 0 0 1-.68 1.72c-.57.79-1.41 1.18-2.53 1.18-.62 0-1.1-.14-1.47-.42-.37-.28-.5-.71-.43-1.3h.98a1 1 0 0 0 .15.6c.18.2.5.31.97.31.74 0 1.28-.26 1.62-.78.2-.3.38-.86.53-1.65-.25.3-.53.51-.83.66-.3.14-.68.21-1.13.21-.62 0-1.12-.22-1.5-.66-.37-.44-.44-1.17-.23-2.2.2-.96.6-1.71 1.19-2.25a2.73 2.73 0 0 1 1.88-.81c.45 0 .82.11 1.1.33zm-1.12.52c-.68 0-1.21.32-1.6.96-.2.34-.36.78-.48 1.34-.14.64-.11 1.14.08 1.47.2.34.51.51.96.51.7 0 1.25-.31 1.66-.94.23-.35.4-.77.5-1.24.16-.71.12-1.24-.1-1.58s-.56-.52-1.02-.52zm4.54-2.91h.96l-.63 2.94c.3-.3.55-.5.76-.61.35-.2.76-.31 1.23-.31.83 0 1.33.3 1.5.88.1.31.09.76-.03 1.32l-.79 3.7h-1l.78-3.63c.09-.43.1-.73.04-.93-.12-.32-.41-.48-.9-.48a2 2 0 0 0-1.17.42c-.39.27-.66.8-.83 1.56L40 91.44h-.97l1.69-7.91zm6.18.55h.99l-.35 1.61h.92l-.17.79h-.91l-.8 3.75c-.05.2 0 .34.11.4a.8.8 0 0 0 .37.07h.15l.2-.02-.17.76a2.43 2.43 0 0 1-.76.1c-.45 0-.73-.12-.84-.35a1.38 1.38 0 0 1-.05-.9l.8-3.81h-.77l.16-.8h.78l.35-1.6z"/><path fill="none" d="M0 0h521v220H0z"/></svg>