<?xml version="1.0" encoding="utf-8"?>
<!-- Generator: Adobe Illustrator 18.0.0, SVG Export Plug-In . SVG Version: 6.00 Build 0)  -->
<!DOCTYPE svg PUBLIC "-//W3C//DTD SVG 1.1//EN" "http://www.w3.org/Graphics/SVG/1.1/DTD/svg11.dtd">
<svg version="1.1" id="logo_x5F_google_x5F_best_x5F_practices_x5F_192px_x5F_clr"
	 xmlns="http://www.w3.org/2000/svg" xmlns:xlink="http://www.w3.org/1999/xlink" x="0px" y="0px" width="96px" height="96px"
	 viewBox="0 0 192 192" enable-background="new 0 0 192 192" xml:space="preserve">
<g>
	<defs>
		<rect id="SVGID_1_" width="192" height="192"/>
	</defs>
	<clipPath id="SVGID_2_">
		<use xlink:href="#SVGID_1_"  overflow="visible"/>
	</clipPath>
	<g clip-path="url(#SVGID_2_)">
		<g>
			<defs>
				<path id="SVGID_3_" d="M180.49,55.94l-20.23-20.4c-4.68-4.72-12.28-4.72-16.96,0L77.41,102L48.7,73.05
					c-4.68-4.72-12.28-4.72-16.96,0l-20.23,20.4c-4.68,4.72-4.68,12.38,0,17.1l57.41,57.91c4.68,4.72,12.28,4.72,16.96,0l94.6-95.41
					C185.17,68.32,185.17,60.67,180.49,55.94z"/>
			</defs>
			<clipPath id="SVGID_4_">
				<use xlink:href="#SVGID_3_"  overflow="visible"/>
			</clipPath>
			<g clip-path="url(#SVGID_4_)">
				<path fill="#DB4437" d="M68.93,168.46L40.22,139.5L77.41,102l37.19,37.5l-28.71,28.95C81.2,173.18,73.61,173.18,68.93,168.46z"
					/>
				<polygon fill="#F4B400" points="114.59,139.5 77.41,102 114.59,64.5 151.78,102 				"/>
				<path fill="#0F9D58" d="M151.78,102l-37.19-37.5l28.71-28.95c4.68-4.72,12.28-4.72,16.96,0l20.23,20.4
					c4.68,4.72,4.68,12.38,0,17.1L151.78,102z"/>
				<path fill="#4285F4" d="M40.22,139.5l-28.71-28.95c-4.68-4.72-4.68-12.38,0-17.1l20.23-20.4c4.68-4.72,12.28-4.72,16.96,0
					L77.41,102L40.22,139.5z"/>
			</g>
			<g clip-path="url(#SVGID_4_)">
				<path opacity="0.2" fill="#FFFFFF" d="M183.99,64.92c-0.14-2.9-1.31-5.77-3.5-7.98l-20.23-20.4c-4.68-4.72-12.28-4.72-16.96,0
					L77.41,103L48.7,74.05c-4.68-4.73-12.28-4.73-16.96,0l-20.23,20.4c-2.19,2.21-3.36,5.07-3.5,7.97c-0.11-3.23,1.05-6.5,3.5-8.97
					l20.23-20.4c4.68-4.73,12.28-4.73,16.96,0L77.41,102l65.89-66.46c4.68-4.72,12.28-4.72,16.96,0l20.23,20.4
					C182.94,58.41,184.1,61.68,183.99,64.92z"/>
				<path opacity="0.2" d="M183.99,64.08c0.11,3.23-1.05,6.5-3.5,8.97l-94.6,95.41c-4.69,4.72-12.28,4.72-16.96,0l-57.42-57.91
					c-2.45-2.47-3.61-5.74-3.5-8.97c0.14,2.9,1.31,5.76,3.5,7.97l57.42,57.91c4.68,4.72,12.27,4.72,16.96,0l94.6-95.41
					C182.68,69.83,183.85,66.97,183.99,64.08z"/>
			</g>
		</g>
		<radialGradient id="SVGID_5_" cx="62.5" cy="59.5" r="143.3675" gradientUnits="userSpaceOnUse">
			<stop  offset="0" style="stop-color:#FFFFFF;stop-opacity:0.1"/>
			<stop  offset="1" style="stop-color:#FFFFFF;stop-opacity:0"/>
		</radialGradient>
		<path fill="url(#SVGID_5_)" d="M180.49,55.94l-20.23-20.4c-4.68-4.72-12.28-4.72-16.96,0L77.41,102L48.7,73.05
			c-4.68-4.72-12.28-4.72-16.96,0l-20.23,20.4c-4.68,4.72-4.68,12.38,0,17.1l57.41,57.91c4.68,4.72,12.28,4.72,16.96,0l94.6-95.41
			C185.17,68.32,185.17,60.67,180.49,55.94z"/>
	</g>
</g>
</svg>
