<?xml version="1.0" encoding="UTF-8" standalone="no"?>
<svg
   xmlns:dc="http://purl.org/dc/elements/1.1/"
   xmlns:cc="http://creativecommons.org/ns#"
   xmlns:rdf="http://www.w3.org/1999/02/22-rdf-syntax-ns#"
   xmlns:svg="http://www.w3.org/2000/svg"
   xmlns="http://www.w3.org/2000/svg"
   xmlns:sodipodi="http://sodipodi.sourceforge.net/DTD/sodipodi-0.dtd"
   xmlns:inkscape="http://www.inkscape.org/namespaces/inkscape"
   height="440"
   viewBox="0 0 800 440"
   width="800"
   id="svg2"
   version="1.1"
   inkscape:version="0.48.4 r9939"
   sodipodi:docname="performance.svg"
   style="fill:#000000">
  <metadata
     id="metadata12">
    <rdf:RDF>
      <cc:Work
         rdf:about="">
        <dc:format>image/svg+xml</dc:format>
        <dc:type
           rdf:resource="http://purl.org/dc/dcmitype/StillImage" />
      </cc:Work>
    </rdf:RDF>
  </metadata>
  <defs
     id="defs10" />
  <sodipodi:namedview
     pagecolor="#ffffff"
     bordercolor="#666666"
     borderopacity="1"
     objecttolerance="10"
     gridtolerance="10"
     guidetolerance="10"
     inkscape:pageopacity="0"
     inkscape:pageshadow="2"
     inkscape:window-width="1620"
     inkscape:window-height="933"
     id="namedview8"
     showgrid="false"
     inkscape:zoom="0.43457604"
     inkscape:cx="-376.87118"
     inkscape:cy="324.5746"
     inkscape:window-x="0"
     inkscape:window-y="27"
     inkscape:window-maximized="0"
     inkscape:current-layer="svg2" />
  <path
     d="M 0,0 H 800 V 440 H 0 z"
     id="path4"
     inkscape:connector-curvature="0"
     style="fill:none" />
  <path
     d="m 487.75,62.5 c -3.825,0 -7.2,2.025 -9.225,5.175 L 476.95,71.05 360.4,333.175 c -3.6,6.525 -5.85,13.725 -5.85,21.6 0,24.975 20.25,45.225 45.225,45.225 21.6,0 39.825,-15.3 44.1,-35.775 L 444.1,363.55 499,73.75 c 0,-6.3 -4.95,-11.25 -11.25,-11.25 z m -335.25,90 45,45 c 64.8,-64.8 152.775,-91.8 236.925,-81.45 L 461.2,55.75 C 352.525,36.4 236.65,68.575 152.5,152.5 z m 450,45 45,-45 C 610.6,115.6 567.625,89.05 521.725,72.175 l -11.925,63.45 c 33.75,13.95 65.25,34.425 92.7,61.875 z m -90,90 45,-45 c -18,-18 -38.25,-31.95 -59.85,-42.525 l -12.375,65.7 c 9.45,6.075 18.675,13.275 27.225,21.825 z m -270,-45 45,45 c 25.425,-25.425 57.6,-40.275 90.675,-45 l 28.8,-64.8 C 347.8,175.9 287.725,197.275 242.5,242.5 z"
     id="path6"
     style="fill:#616161;fill-opacity:1"
     inkscape:connector-curvature="0" />
</svg>
