<?xml version="1.0" encoding="UTF-8" standalone="no"?>
<svg
   xmlns:dc="http://purl.org/dc/elements/1.1/"
   xmlns:cc="http://creativecommons.org/ns#"
   xmlns:rdf="http://www.w3.org/1999/02/22-rdf-syntax-ns#"
   xmlns:svg="http://www.w3.org/2000/svg"
   xmlns="http://www.w3.org/2000/svg"
   xmlns:sodipodi="http://sodipodi.sourceforge.net/DTD/sodipodi-0.dtd"
   xmlns:inkscape="http://www.inkscape.org/namespaces/inkscape"
   version="1.1"
   viewBox="0 0 800 800"
   enable-background="new 0 0 1952.00 734.93"
   xml:space="preserve"
   id="svg2"
   inkscape:version="0.48.4 r9939"
   width="100%"
   height="100%"
   sodipodi:docname="pwa.svg"><metadata
     id="metadata16"><rdf:RDF><cc:Work
         rdf:about=""><dc:format>image/svg+xml</dc:format><dc:type
           rdf:resource="http://purl.org/dc/dcmitype/StillImage" /></cc:Work></rdf:RDF></metadata><defs
     id="defs14" /><sodipodi:namedview
     pagecolor="#ffffff"
     bordercolor="#666666"
     borderopacity="1"
     objecttolerance="10"
     gridtolerance="10"
     guidetolerance="10"
     inkscape:pageopacity="0"
     inkscape:pageshadow="2"
     inkscape:window-width="1658"
     inkscape:window-height="968"
     id="namedview12"
     showgrid="false"
     inkscape:zoom="0.17827869"
     inkscape:cx="-678.71264"
     inkscape:cy="367.465"
     inkscape:window-x="101"
     inkscape:window-y="235"
     inkscape:window-maximized="0"
     inkscape:current-layer="g4" /><g
     id="g4"
     transform="translate(0,65.070001)"><path
       d="m 588.77868,431.58422 23.11066,-58.44221 66.72951,0 L 646.95082,284.48832 686.55737,184.3287 800,485.53053 l -83.65984,0 -19.38525,-53.94631 -108.17623,0 z"
       id="path6"
       style="fill:#616161;fill-opacity:1;stroke-width:0.2;stroke-linejoin:round"
       inkscape:connector-curvature="0" /><path
       d="m 517.40574,485.53135 121.44262,-301.20223 -80.5123,0 -83.07376,194.64363 -59.07377,-194.64323 -61.88566,0 -63.42951,194.64323 -44.73196,-88.69508 -40.48074,124.71394 41.1,70.53934 79.23402,0 57.31844,-174.55328 54.65,174.55328 79.44262,0 z"
       id="path8"
       inkscape:connector-curvature="0"
       style="fill:#fb8c00;fill-opacity:1;stroke-width:0.2;stroke-linejoin:round" /><path
       d="m 76.42459,382.13299 49.5914,0 c 15.02213,0 28.39877,-1.67664 40.12991,-5.02992 l 12.825,-39.51147 35.84386,-110.42869 c -2.73115,-4.3289 -5.84918,-8.42185 -9.3541,-12.27832 -18.40369,-20.37087 -45.32992,-30.55594 -80.77951,-30.55594 l -124.6811519073502,0 0,301.20188 76.4245919073502,0 0,-103.39754 z M 142.0664,253.62315 c 7.18852,7.23484 10.78237,16.91639 10.78237,29.04549 0,12.22213 -3.16106,21.91558 -9.48278,29.08033 -6.93033,7.96107 -19.6914,11.9414 -38.28238,11.9414 l -28.65902,0 0,-80.92009 28.86967,0 c 17.32664,0 29.58402,3.61763 36.77214,10.85287 z"
       id="path10"
       style="fill:#616161;fill-opacity:1;stroke-width:0.2;stroke-linejoin:round"
       inkscape:connector-curvature="0" /></g></svg>