<?xml version="1.0" encoding="UTF-8" standalone="no"?>
<svg
   xmlns:dc="http://purl.org/dc/elements/1.1/"
   xmlns:cc="http://creativecommons.org/ns#"
   xmlns:rdf="http://www.w3.org/1999/02/22-rdf-syntax-ns#"
   xmlns:svg="http://www.w3.org/2000/svg"
   xmlns="http://www.w3.org/2000/svg"
   xmlns:sodipodi="http://sodipodi.sourceforge.net/DTD/sodipodi-0.dtd"
   xmlns:inkscape="http://www.inkscape.org/namespaces/inkscape"
   version="1.1"
   height="440"
   viewBox="0 0 800 440"
   width="800"
   enable-background="new 0 0 1952.00 734.93"
   xml:space="preserve"
   id="svg2"
   inkscape:version="0.48.4 r9939"
   sodipodi:docname="pwa.svg"><metadata
     id="metadata16"><rdf:RDF><cc:Work
         rdf:about=""><dc:format>image/svg+xml</dc:format><dc:type
           rdf:resource="http://purl.org/dc/dcmitype/StillImage" /><dc:title /></cc:Work></rdf:RDF></metadata><defs
     id="defs14" /><sodipodi:namedview
     pagecolor="#ffffff"
     bordercolor="#666666"
     borderopacity="1"
     objecttolerance="10"
     gridtolerance="10"
     guidetolerance="10"
     inkscape:pageopacity="0"
     inkscape:pageshadow="2"
     inkscape:window-width="1920"
     inkscape:window-height="1145"
     id="namedview12"
     showgrid="false"
     inkscape:zoom="0.71311476"
     inkscape:cx="-18.868652"
     inkscape:cy="299.77245"
     inkscape:window-x="0"
     inkscape:window-y="27"
     inkscape:window-maximized="1"
     inkscape:current-layer="g4" /><g
     id="g4"
     transform="translate(0,-294.93)"><path
       d="m 574.62028,615.63026 21.37736,-54.05905 61.7248,0 L 628.42951,479.56655 665.06557,386.9189 770,665.53059 l -77.38535,0 -17.93136,-49.90033 -100.06301,0 z"
       id="path6"
       style="fill:#616161;fill-opacity:1;stroke-width:0.2;stroke-linejoin:round"
       inkscape:connector-curvature="0" /><path
       d="m 508.60031,665.53135 112.33442,-278.61206 -74.47387,0 -76.84324,180.04536 -54.64323,-180.04499 -57.24423,0 -58.6723,180.04499 -41.37707,-82.04296 -37.44468,115.3604 38.0175,65.24889 73.29147,0 53.01955,-161.46179 50.55125,161.46179 73.48443,0 z"
       id="path8"
       inkscape:connector-curvature="0"
       style="fill:#fb8c00;fill-opacity:1;stroke-width:0.2;stroke-linejoin:round" /><path
       d="m 100.69275,569.88787 45.87204,0 c 13.89547,0 26.26886,-1.55089 37.12016,-4.65268 l 11.86313,-36.54811 33.15557,-102.14654 c -2.52631,-4.00423 -5.41049,-7.79021 -8.65254,-11.35744 -17.02341,-18.84306 -41.93018,-28.26424 -74.72105,-28.26424 l -115.33006,0 0,278.61173 70.69275,0 0,-95.64272 z m 60.71867,-118.8716 c 6.64938,6.69222 9.97369,15.64766 9.97369,26.86708 0,11.30546 -2.92398,20.27191 -8.77157,26.8993 -6.41055,7.36399 -18.21454,11.04579 -35.4112,11.04579 l -26.50959,0 0,-74.85108 26.70444,0 c 16.02714,0 27.36522,3.34631 34.01423,10.0389 z"
       id="path10"
       style="fill:#616161;fill-opacity:1;stroke-width:0.2;stroke-linejoin:round"
       inkscape:connector-curvature="0" /><rect
       style="fill:#616161;fill-opacity:0;stroke:none"
       id="rect3012"
       width="800"
       height="440"
       x="9.5367511e-07"
       y="294.92999" /></g></svg>
