<?xml version="1.0" encoding="UTF-8" standalone="no"?>
<svg width="40px" height="40px" viewBox="0 0 40 40" version="1.1" xmlns="http://www.w3.org/2000/svg" xmlns:xlink="http://www.w3.org/1999/xlink" xmlns:sketch="http://www.bohemiancoding.com/sketch/ns">
    <title>Slice 1</title>
    <description>Created with Sketch (http://www.bohemiancoding.com/sketch)</description>
    <defs></defs>
    <g id="Page-1" stroke="none" stroke-width="1" fill="none" fill-rule="evenodd" sketch:type="MSPage">
        <g id="principles" sketch:type="MSLayerGroup" fill="#000000">
            <g id="Icon" sketch:type="MSShapeGroup">
                <g id="Group">
                    <path d="M20,17.8 C18.8,17.8 17.8,18.8 17.8,20 C17.8,21.2 18.8,22.2 20,22.2 C21.2,22.2 22.2,21.2 22.2,20 C22.2,18.8 21.2,17.8 20,17.8 L20,17.8 Z M20,0 C9,0 0,9 0,20 C0,31 9,40 20,40 C31,40 40,31 40,20 C40,9 31,0 20,0 L20,0 Z M24.4,24.4 L8,32 L15.6,15.6 L32,8 L24.4,24.4 L24.4,24.4 Z" id="Shape"></path>
                </g>
            </g>
        </g>
    </g>
</svg>