<?xml version="1.0" encoding="utf-8"?>
<!-- Generator: Adobe Illustrator 16.0.4, SVG Export Plug-In . SVG Version: 6.00 Build 0)  -->
<!DOCTYPE svg PUBLIC "-//W3C//DTD SVG 1.1//EN" "http://www.w3.org/Graphics/SVG/1.1/DTD/svg11.dtd">
<svg version="1.1" id="Layer_1" xmlns="http://www.w3.org/2000/svg" xmlns:xlink="http://www.w3.org/1999/xlink" x="0px" y="0px"
	 width="44px" height="44px" viewBox="0 0 44 44" enable-background="new 0 0 44 44" xml:space="preserve">
<g>
	<g>
		<path fill="#4D4D4D" d="M15.561,32c0.02-3,0.513-4.908,1.477-6.289c0.964-1.375,2.726-3.018,5.283-4.809
			c1.319-0.826,2.357-1.88,3.114-3.099c0.758-1.22,1.136-2.641,1.136-4.236c0-1.653-0.441-2.978-1.326-3.962
			c-0.887-0.983-2.146-1.48-3.78-1.48c-1.318,0-2.42,0.435-3.305,1.242C17.273,10.174,16.811,12,16.772,13H7.061l-0.059-0.211
			c-0.06-4.094,1.244-7.184,3.91-9.241C13.579,1.492,17.097,0,21.464,0c4.684,0,8.369,1.63,11.055,3.992
			c2.686,2.362,4.028,5.549,4.028,9.564c0,2.459-0.733,4.719-2.198,6.785c-1.466,2.067-3.331,3.69-5.594,4.872
			c-1.26,0.828-2.111,1.832-2.553,2.787c-0.444,0.955-0.664,3-0.664,4H15.561z M25,44h-9v-7h9V44z"/>
	</g>
</g>
</svg>
