<?xml version="1.0" encoding="UTF-8" standalone="no"?>
<svg width="282px" height="292px" viewBox="0 0 282 292" version="1.1" xmlns="http://www.w3.org/2000/svg" xmlns:xlink="http://www.w3.org/1999/xlink" xmlns:sketch="http://www.bohemiancoding.com/sketch/ns">
    <!-- Generator: Sketch 3.0.4 (8053) - http://www.bohemiancoding.com/sketch -->
    <title>container-two-views 2</title>
    <desc>Created with Sketch.</desc>
    <defs></defs>
    <g id="Page-1" stroke="none" stroke-width="1" fill="none" fill-rule="evenodd" sketch:type="MSPage">
        <g id="container-two-views-2" sketch:type="MSArtboardGroup">
            <path d="M17,12.5840358 L204.708239,12.5840358 L204.708239,131.386719 L17,131.386719 L17,12.5840358 L17,12.5840358 Z" id="Shape" fill="#1C4587" sketch:type="MSShapeGroup"></path>
            <path d="M204.025664,12.5840358 L204.025664,15.514502 L17,15.514502 L17,12.5840358 L204.025664,12.5840358 Z" id="Shape" fill="#CCCCCC" sketch:type="MSShapeGroup"></path>
            <path d="M204.708239,14.9600894 L265.693616,14.9600894 L265.693616,128.218647 L204.708239,128.218647 L204.708239,14.9600894 L204.708239,14.9600894 Z" id="Shape" fill="#3C78D8" sketch:type="MSShapeGroup"></path>
            <path d="M18.5840358,14.7521073 L203.124203,14.7521073 L203.124203,129.802683 L18.5840358,129.802683 L18.5840358,14.7521073 L18.5840358,14.7521073 Z" id="Shape-2" stroke="#C9DAF8" stroke-width="2" sketch:type="MSShapeGroup"></path>
            <path d="M17,11 L204.708239,11 L204.708239,131.386719 L17,131.386719 L17,11 L17,11 Z" id="Shape" stroke="#000000" stroke-width="2" sketch:type="MSShapeGroup"></path>
            <g id="Group" sketch:type="MSLayerGroup" transform="translate(17.000000, 153.000000)">
                <path d="M-1.42108547e-14,1.58403577 L187.708239,1.58403577 L187.708239,120.386719 L-1.42108547e-14,120.386719 L-1.42108547e-14,1.58403577 L-1.42108547e-14,1.58403577 Z" id="Shape-7" fill="#1C4587" sketch:type="MSShapeGroup"></path>
                <path d="M187.025664,1.58403577 L187.025664,4.51450195 L0,4.51450195 L0,1.58403577 L187.025664,1.58403577 Z" id="Shape-3" fill="#CCCCCC" sketch:type="MSShapeGroup"></path>
                <path d="M125.708239,3.96008943 L186.693616,3.96008943 L186.693616,117.218647 L125.708239,117.218647 L125.708239,3.96008943 L125.708239,3.96008943 Z" id="Shape-4" fill="#3C78D8" sketch:type="MSShapeGroup"></path>
                <path d="M1.58403577,3.75210732 L186.124203,3.75210732 L186.124203,118.802683 L1.58403577,118.802683 L1.58403577,3.75210732 L1.58403577,3.75210732 Z" id="Shape-5" stroke="#C9DAF8" stroke-width="2" sketch:type="MSShapeGroup"></path>
                <path d="M-1.42108547e-14,0 L187.708239,0 L187.708239,120.386719 L-1.42108547e-14,120.386719 L-1.42108547e-14,0 L-1.42108547e-14,0 Z" id="Shape-6" stroke="#000000" stroke-width="2" sketch:type="MSShapeGroup"></path>
            </g>
        </g>
    </g>
</svg>