<?xml version="1.0" encoding="UTF-8" standalone="no"?>
<svg width="560px" height="447px" viewBox="0 0 560 447" version="1.1" xmlns="http://www.w3.org/2000/svg" xmlns:xlink="http://www.w3.org/1999/xlink" xmlns:sketch="http://www.bohemiancoding.com/sketch/ns">
    <path d="M71.2384107,350.569663 L137.39928,245.534015 L260.516101,447 L130.257818,447 L71.2384107,350.569663 Z M124.163022,223.875683 L57.9918146,328.925803 L5.06766748,242.459183 C1.75125025,237.031759 0,230.549864 0,223.699937 C0,216.854146 1.75125025,210.361913 5.06766748,204.934489 L130.258283,0.400200655 L260.516566,0.400200655 L124.055507,223.699937 L124.163022,223.875683 Z M554.936468,242.471588 L429.741717,446.999674 L299.483434,446.999674 L435.950695,223.69787 L435.76668,223.400137 L501.937887,118.347949 L554.936468,204.934489 C558.261155,210.361913 560,216.854146 560,223.699937 C560,230.549864 558.261155,237.044164 554.936468,242.471588 Z M337.399346,62.4339013 L299.490051,0.399993896 L429.748333,0.399993896 L467.715522,62.4339013 L488.69124,96.7062757 L422.530371,201.739856 L337.399346,62.4339013 Z" id="path3051" sketch:type="MSShapeGroup"></path>
</svg>
