<svg xmlns="http://www.w3.org/2000/svg" xmlns:xlink="http://www.w3.org/1999/xlink" width="48px" height="48px" viewBox="0 0 48 48" fill="#000000">
    <defs>
        <path id="yt-a" d="M0 0h47.99v48H0z"/>
    </defs>
    <clipPath id="yt-b">
        <use xlink:href="#yt-a" overflow="visible"/>
    </clipPath>
    <path clip-path="url(#yt-b)" d="M47.48 13.21s-.46-3.3-1.9-4.74c-1.82-1.92-3.86-1.92-4.8-2.04C34.08 5.94 24 6 24 6s-10.04-.06-16.74.42c-.92.12-2.96.12-4.78 2.04C1.04 9.9.56 13.2.56 13.2S.08 17.09 0 20.96v4.05c.08 3.88.56 7.75.56 7.75s.48 3.3 1.92 4.76c1.82 1.9 4.2 1.84 5.28 2.04 3.76.36 15.82.44 16.24.44 0 0 10.1.02 16.8-.46.92-.12 2.96-.12 4.78-2.04 1.44-1.44 1.92-4.74 1.92-4.74s.48-3.88.5-7.75v-4.05c-.04-3.87-.52-7.75-.52-7.75zM19.14 30V15.98L32 23.26 19.14 30z"/>
</svg>
