<svg xmlns="http://www.w3.org/2000/svg" width="48px" height="48px" viewBox="0 0 48 48" fill="#000000">
    <path fill="none" d="M0 0h48v48H0V0z"/>
    <path d="M45 22h-4v-4h-3v4h-4v3h4v4h3v-4h4z"/>
    <path fill="none" d="M3 10h28v28H3z"/>
    <path d="M17 21.49v5.37h7.6c-.6 3.27-3.44 5.64-7.6 5.64-4.61 0-8.34-3.89-8.34-8.5s3.73-8.5 8.34-8.5c2.07 0 3.93.71 5.4 2.11v.01l3.97-3.97C23.94 11.39 20.78 10 17 10 9.27 10 3 16.27 3 24s6.27 14 14 14c8.09 0 13.44-5.68 13.44-13.68 0-.98-.09-1.93-.24-2.83H17z"/>
</svg>
