<svg id="Layer_1" data-name="Layer 1" xmlns="http://www.w3.org/2000/svg" width="9.8in" height="1.7in" viewBox="0 0 704 123.2"><defs><style>.cls-1{fill:#fff051;}.cls-1,.cls-2,.cls-3,.cls-5{stroke:#010102;stroke-linecap:round;stroke-linejoin:round;stroke-width:2px;}.cls-2{fill:#8f91ff;}.cls-3{fill:#7bce7f;}.cls-4,.cls-6{font-size:20px;font-family:Courier, Courier;}.cls-4{fill:#010102;}.cls-5{fill:none;}</style></defs><title>figure-1</title><polygon class="cls-1" points="217 55 1 55 1 1 235 1 217 55"/><polygon class="cls-2" points="451 55 217 55 235 1 469 1 451 55"/><polygon class="cls-3" points="703 55 451 55 469 1 703 1 703 55"/><text class="cls-4" transform="translate(70 34.3)">Download</text><text class="cls-4" transform="translate(292 34.3)">Decompress</text><text class="cls-4" transform="translate(478 34.3)">Parse/Compile/Exec</text><polyline class="cls-5" points="1 55 1 91 11.7 91"/><text class="cls-6" transform="translate(15.3 91)">300KB<tspan x="0" y="24">compressed</tspan></text><polyline class="cls-5" points="217 55 217 91 227.7 91"/><text class="cls-6" transform="translate(231.3 91)">900KB<tspan x="0" y="24">decompressed</tspan></text><polyline class="cls-5" points="451 55 451 91 461.7 91"/><text class="cls-6" transform="translate(465.3 91)">900KB<tspan x="0" y="24">processed</tspan></text></svg>