<?xml version="1.0" encoding="utf-8"?>
<!-- Generator: Adobe Illustrator 22.0.1, SVG Export Plug-In . SVG Version: 6.00 Build 0)  -->
<svg version="1.1" id="Layer_1" xmlns="http://www.w3.org/2000/svg" xmlns:xlink="http://www.w3.org/1999/xlink" x="0px" y="0px"
	 viewBox="0 0 699.4 122.4" style="enable-background:new 0 0 699.4 122.4;" xml:space="preserve">
<style type="text/css">
	.st0{fill:#FFF051;stroke:#010102;stroke-width:2;stroke-linecap:round;stroke-linejoin:round;}
	.st1{fill:#8F91FF;stroke:#010102;stroke-width:2;stroke-linecap:round;stroke-linejoin:round;}
	.st2{fill:#7BCE7F;stroke:#010102;stroke-width:2;stroke-linecap:round;stroke-linejoin:round;}
	.st3{fill:#010102;}
	.st4{font-family:'Courier';}
	.st5{font-size:19.8701px;}
	.st6{fill:none;stroke:#010102;stroke-width:2;stroke-linecap:round;stroke-linejoin:round;}
</style>
<title>figure-1</title>
<polygon class="st0" points="215.6,54.6 1,54.6 1,1 233.5,1 "/>
<polygon class="st1" points="448.1,54.6 215.6,54.6 233.5,1 466,1 "/>
<polygon class="st2" points="698.4,54.6 448.1,54.6 466,1 698.4,1 "/>
<text transform="matrix(1 0 0 1 69.5516 34.0836)" class="st3 st4 st5">Download</text>
<text transform="matrix(1 0 0 1 290.1102 34.0836)" class="st3 st4 st5">Decompress</text>
<text transform="matrix(1 0 0 1 474.9022 34.0836)" class="st3 st4 st5">Parse/Compile/Exec</text>
<polyline class="st6" points="687.8,90.4 698.4,90.4 698.4,54.6 "/>
<text transform="matrix(1 0 0 1 138.1468 90.4157)" class="st4 st5">300KB</text>
<text transform="matrix(1 0 0 1 78.5266 114.2599)" class="st4 st5">compressed</text>
<polyline class="st6" points="437.4,90.4 448.1,90.4 448.1,54.6 "/>
<text transform="matrix(1 0 0 1 370.6273 90.4157)" class="st4 st5">900KB</text>
<text transform="matrix(1 0 0 1 287.1595 114.2599)" class="st4 st5">decompressed</text>
<polyline class="st6" points="205,90.4 215.6,90.4 215.6,54.6 "/>
<text transform="matrix(1 0 0 1 620.991 90.4157)" class="st4 st5">900KB</text>
<text transform="matrix(1 0 0 1 573.2952 114.2599)" class="st4 st5">processed</text>
</svg>
