<?xml version="1.0" encoding="UTF-8" standalone="no"?>
<svg
   xmlns:sketch="http://www.bohemiancoding.com/sketch/ns"
   xmlns:dc="http://purl.org/dc/elements/1.1/"
   xmlns:cc="http://creativecommons.org/ns#"
   xmlns:rdf="http://www.w3.org/1999/02/22-rdf-syntax-ns#"
   xmlns:svg="http://www.w3.org/2000/svg"
   xmlns="http://www.w3.org/2000/svg"
   xmlns:sodipodi="http://sodipodi.sourceforge.net/DTD/sodipodi-0.dtd"
   xmlns:inkscape="http://www.inkscape.org/namespaces/inkscape"
   width="697.62256"
   height="91.949997"
   viewBox="0 0 697.62256 91.949997"
   version="1.1"
   id="svg2"
   inkscape:version="0.91 r13725"
   sodipodi:docname="developers-logo_short-old.svg">
  <metadata
     id="metadata96">
    <rdf:RDF>
      <cc:Work
         rdf:about="">
        <dc:format>image/svg+xml</dc:format>
        <dc:type
           rdf:resource="http://purl.org/dc/dcmitype/StillImage" />
        <dc:title>Slice 1</dc:title>
      </cc:Work>
    </rdf:RDF>
  </metadata>
  <sodipodi:namedview
     pagecolor="#ffffff"
     bordercolor="#666666"
     borderopacity="1"
     objecttolerance="10"
     gridtolerance="10"
     guidetolerance="10"
     inkscape:pageopacity="0"
     inkscape:pageshadow="2"
     inkscape:window-width="1843"
     inkscape:window-height="1173"
     id="namedview94"
     showgrid="false"
     inkscape:zoom="1.6166884"
     inkscape:cx="469.04973"
     inkscape:cy="183.05421"
     inkscape:window-x="0"
     inkscape:window-y="0"
     inkscape:window-maximized="0"
     inkscape:current-layer="svg2"
     fit-margin-top="0"
     fit-margin-left="0"
     fit-margin-right="0"
     fit-margin-bottom="0" />
  <title
     id="title4">Slice 1</title>
  <description>Created with Sketch (http://www.bohemiancoding.com/sketch)</description>
  <defs
     id="defs6">
    <radialGradient
       cx="24.939445"
       cy="-4.5289497"
       fx="24.939445"
       fy="-4.5289497"
       r="96.027046"
       id="radialGradient-1"
       gradientTransform="scale(0.85310237,1.1721923)"
       gradientUnits="userSpaceOnUse">
      <stop
         stop-color="#727272"
         offset="0%"
         id="stop9" />
      <stop
         stop-color="#5F5F5F"
         offset="100%"
         id="stop11" />
    </radialGradient>
    <radialGradient
       cx="27.150969"
       cy="40.732094"
       fx="27.150969"
       fy="40.732094"
       r="68.674843"
       id="radialGradient-2"
       gradientTransform="scale(0.88478978,1.130212)"
       gradientUnits="userSpaceOnUse">
      <stop
         stop-color="#CECECE"
         offset="0%"
         id="stop14" />
      <stop
         stop-color="#C3C3C3"
         offset="100%"
         id="stop16" />
    </radialGradient>
    <linearGradient
       x1="53.288078"
       y1="46.91637"
       x2="21.401886"
       y2="46.91637"
       id="linearGradient-3"
       gradientTransform="scale(0.81126964,1.2326358)"
       gradientUnits="userSpaceOnUse">
      <stop
         stop-color="#202020"
         stop-opacity="0.2"
         offset="0%"
         id="stop19" />
      <stop
         stop-color="#F2F2F2"
         stop-opacity="0.25"
         offset="100%"
         id="stop21" />
    </linearGradient>
    <radialGradient
       cx="37.209946"
       cy="82.988914"
       fx="37.209946"
       fy="82.988914"
       r="96.02153"
       id="radialGradient-4"
       gradientTransform="scale(0.8531617,1.1721107)"
       gradientUnits="userSpaceOnUse">
      <stop
         stop-color="#808080"
         offset="0%"
         id="stop24" />
      <stop
         stop-color="#7C7C7C"
         offset="100%"
         id="stop26" />
    </radialGradient>
    <radialGradient
       cx="32.775749"
       cy="40.638542"
       fx="32.775749"
       fy="40.638542"
       r="68.677567"
       id="radialGradient-5"
       gradientTransform="scale(0.88478531,1.1302177)"
       gradientUnits="userSpaceOnUse">
      <stop
         stop-color="#767676"
         offset="0%"
         id="stop29" />
      <stop
         stop-color="#636363"
         offset="100%"
         id="stop31" />
    </radialGradient>
    <linearGradient
       x1="12.070577"
       y1="27.693312"
       x2="43.957954"
       y2="27.693312"
       id="linearGradient-6"
       gradientTransform="scale(0.81131164,1.232572)"
       gradientUnits="userSpaceOnUse">
      <stop
         stop-color="#202020"
         stop-opacity="0.2"
         offset="0%"
         id="stop34" />
      <stop
         stop-color="#F2F2F2"
         stop-opacity="0.25"
         offset="100%"
         id="stop36" />
    </linearGradient>
  </defs>
  <g
     id="Page-1"
     sketch:type="MSPage"
     style="fill:none;fill-rule:evenodd;stroke:none;stroke-width:1"
     transform="translate(-0.0085,-0.007)">
    <g
       id="developers-logo_short"
       sketch:type="MSLayerGroup">
      <g
         id="EDITIABLE_TYPE"
         transform="translate(394,9)"
         sketch:type="MSShapeGroup"
         style="fill:#6c6d6d" />
      <g
         id="MARK"
         sketch:type="MSShapeGroup">
        <g
           id="g76">
          <g
             transform="translate(64,0)"
             id="g78">
            <path
               d="m 37.646,66.296 c 1.193,1.974 1.218,5.084 0.189,7.226 l 14.22,-23.686 c 1.272,-2.121 1.272,-5.582 0,-7.694 L 29.073,3.855 C 27.796,1.744 24.737,0.007 22.269,0.007 l -20.032,0 c -2.464,0 -3.445,1.736 -2.175,3.848 L 14.37,27.676 c 0.087,0.12 0.21,0.229 0.285,0.339 l 22.991,38.281 0,0 z"
               id="path80"
               inkscape:connector-curvature="0"
               style="fill:url(#radialGradient-1)" />
            <path
               d="m 2.237,91.957 20.032,0 c 2.468,0 5.527,-1.724 6.804,-3.849 l 8.763,-14.589 c 1.029,-2.141 1.004,-5.251 -0.189,-7.226 L 23.059,42.138 c 1.266,2.112 1.266,5.573 0,7.694 L 8.833,73.502 c -0.075,0.159 -0.109,0.344 -0.188,0.491 l -8.733,14.535 c -0.892,1.913 0.027,3.429 2.325,3.429 l 0,0 z"
               id="path82"
               inkscape:connector-curvature="0"
               style="fill:url(#radialGradient-2)" />
            <path
               d="M 37.646,66.296 23.058,42.14 c 1.266,2.112 1.266,5.573 0,7.694 l -5.137,8.561 19.914,15.127 c 1.029,-2.142 1.003,-5.253 -0.189,-7.226 l 0,0 z"
               id="path84"
               inkscape:connector-curvature="0"
               style="fill:url(#linearGradient-3)" />
          </g>
          <g
             id="g86">
            <path
               d="m 15.372,25.668 c -1.18,-1.975 -1.219,-5.087 -0.181,-7.227 L 0.961,42.13 c -1.27,2.122 -1.27,5.583 0,7.697 l 22.997,38.281 c 1.268,2.112 4.331,3.849 6.79,3.849 l 20.032,0 c 2.472,0 3.455,-1.735 2.183,-3.849 L 38.648,64.289 c -0.08,-0.123 -0.21,-0.229 -0.281,-0.342 l -22.995,-38.279 0,0 z"
               id="path88"
               inkscape:connector-curvature="0"
               style="fill:url(#radialGradient-4)" />
            <path
               d="m 50.78,0.007 -20.032,0 c -2.458,0 -5.522,1.727 -6.79,3.848 L 15.19,18.442 c -1.038,2.14 -0.999,5.251 0.181,7.227 l 14.597,24.159 c -1.272,-2.114 -1.272,-5.576 0,-7.697 l 14.22,-23.67 c 0.07,-0.158 0.106,-0.339 0.198,-0.492 L 53.114,3.437 C 54.006,1.525 53.078,0.007 50.78,0.007 l 0,0 z"
               id="path90"
               inkscape:connector-curvature="0"
               style="fill:url(#radialGradient-5)" />
            <path
               d="m 15.372,25.668 14.597,24.159 c -1.272,-2.114 -1.272,-5.576 0,-7.697 L 35.106,33.574 15.19,18.442 c -1.037,2.139 -0.998,5.252 0.182,7.226 l 0,0 z"
               id="path92"
               inkscape:connector-curvature="0"
               style="fill:url(#linearGradient-6)" />
          </g>
        </g>
      </g>
    </g>
  </g>
  <g
     id="g4352"
     transform="matrix(2.6181181,0,0,2.6181181,132.10902,1.5907351)">
    <path
       id="path4342"
       d="m 73.21,7.44 2.88,0 0,19.56 -2.88,0 0,-19.56 z M 42.84,20.9 c 0,3.85 -3,6.68 -6.68,6.68 -3.68,0 -6.68,-2.84 -6.68,-6.68 0,-3.87 3,-6.69 6.68,-6.69 3.68,0 6.68,2.82 6.68,6.69 z m -2.92,0 c 0,-2.4 -1.74,-4.05 -3.76,-4.05 -2.02,0 -3.76,1.65 -3.76,4.05 0,2.38 1.74,4.05 3.76,4.05 2.02,0 3.76,-1.67 3.76,-4.05 z m 17.51,0.03 c 0,3.85 -3,6.68 -6.68,6.68 -3.68,0 -6.68,-2.83 -6.68,-6.68 0,-3.87 3,-6.68 6.68,-6.68 3.68,0 6.68,2.8 6.68,6.68 z m -2.93,0 c 0,-2.4 -1.74,-4.05 -3.76,-4.05 -2.02,0 -3.76,1.65 -3.76,4.05 0,2.38 1.74,4.05 3.76,4.05 2.03,0 3.76,-1.68 3.76,-4.05 z m 14.17,-6.16 2.78,0 0,11.88 c 0,4.93 -2.91,6.96 -6.35,6.96 -3.24,0 -5.19,-2.18 -5.92,-3.95 l 2.55,-1.06 c 0.46,1.09 1.57,2.38 3.37,2.38 2.21,0 3.57,-1.37 3.57,-3.93 l 0,-0.96 -0.1,0 c -0.66,0.8 -1.92,1.52 -3.52,1.52 -3.34,0 -6.4,-2.91 -6.4,-6.66 0,-3.77 3.06,-6.71 6.4,-6.71 1.59,0 2.86,0.71 3.52,1.49 l 0.1,0 0,-0.96 z m 0.2,6.18 c 0,-2.36 -1.57,-4.08 -3.57,-4.08 -2.02,0 -3.72,1.72 -3.72,4.08 0,2.33 1.7,4.02 3.72,4.02 2,0.01 3.57,-1.69 3.57,-4.02 z M 18.5,24.68 c -4.19,0 -7.47,-3.38 -7.47,-7.57 0,-4.19 3.28,-7.57 7.47,-7.57 2.26,0 3.91,0.89 5.13,2.03 L 25.64,9.56 C 23.94,7.93 21.67,6.69 18.5,6.69 c -5.74,0 -10.57,4.68 -10.57,10.42 0,5.74 4.83,10.42 10.57,10.42 3.1,0 5.44,-1.02 7.27,-2.92 1.88,-1.88 2.46,-4.52 2.46,-6.66 0,-0.67 -0.08,-1.36 -0.17,-1.87 l -9.56,0 0,2.78 6.81,0 c -0.2,1.74 -0.75,2.93 -1.56,3.74 -0.98,0.99 -2.53,2.08 -5.25,2.08 z m 68.94,-1.55 2.28,1.52 c -0.74,1.09 -2.51,2.96 -5.57,2.96 -3.8,0 -6.63,-2.94 -6.63,-6.68 0,-3.98 2.86,-6.68 6.31,-6.68 3.47,0 5.17,2.76 5.72,4.25 l 0.3,0.76 -8.94,3.7 c 0.68,1.34 1.74,2.02 3.24,2.02 1.5,0 2.54,-0.74 3.29,-1.85 z m -7.01,-2.41 5.97,-2.48 c -0.33,-0.83 -1.31,-1.42 -2.48,-1.42 -1.49,0 -3.56,1.32 -3.49,3.9 z"
       inkscape:connector-curvature="0"
       style="fill:#ffffff" />
    <path
       id="path4344"
       d="m 95.96,27 5.46,0 c 5.56,0 9.05,-3.69 9.05,-8.92 0,-5.21 -3.49,-8.92 -9.05,-8.92 l -5.46,0 0,17.84 z m 2.29,-2.19 0,-13.46 3.17,0 c 4.09,0 6.71,2.47 6.71,6.73 0,4.29 -2.62,6.73 -6.71,6.73 l -3.17,0 z m 19.87,2.59 c 2.82,0 4.61,-1.6 5.33,-3.34 l -2.04,-0.85 c -0.65,1.55 -1.99,2.09 -3.34,2.09 -1.89,0 -3.76,-1.4 -3.89,-3.99 l 9.65,0 c 0,0 0.02,-0.25 0.02,-0.42 0,-3.94 -2.34,-6.51 -5.98,-6.51 -3.59,0 -5.98,3.04 -5.98,6.51 -0.01,3.69 2.49,6.51 6.23,6.51 z m 3.29,-7.98 -7.08,0 c 0.45,-1.79 1.79,-2.94 3.49,-2.94 2.61,0 3.51,1.87 3.59,2.94 z m 7.92,7.58 2.29,0 4.99,-12.21 -2.44,0 -3.64,9.47 -0.05,0 -3.59,-9.47 -2.49,0 4.93,12.21 z m 14.06,0.4 c 2.82,0 4.61,-1.6 5.33,-3.34 l -2.04,-0.85 c -0.65,1.55 -1.99,2.09 -3.34,2.09 -1.89,0 -3.76,-1.4 -3.89,-3.99 l 9.65,0 c 0,0 0.02,-0.25 0.02,-0.42 0,-3.94 -2.34,-6.51 -5.98,-6.51 -3.59,0 -5.98,3.04 -5.98,6.51 0,3.69 2.49,6.51 6.23,6.51 z m 3.29,-7.98 -7.08,0 c 0.45,-1.79 1.79,-2.94 3.49,-2.94 2.62,0 3.52,1.87 3.59,2.94 z m 6.83,7.58 0,-17.85 -2.29,0 0,17.85 2.29,0 z m 8.25,-12.61 c -3.66,0 -6.28,2.79 -6.28,6.51 0,3.72 2.62,6.51 6.28,6.51 3.66,0 6.28,-2.79 6.28,-6.51 0,-3.72 -2.61,-6.51 -6.28,-6.51 z m 0,10.91 c -2.04,0 -3.99,-1.62 -3.99,-4.41 0,-2.79 1.94,-4.41 3.99,-4.41 2.05,0 3.99,1.62 3.99,4.41 0,2.79 -1.94,4.41 -3.99,4.41 z m 14.71,2.1 c 3.09,0 5.81,-2.77 5.81,-6.51 0,-3.74 -2.72,-6.51 -5.81,-6.51 -1.94,0 -3.46,0.97 -4.16,2.09 l -0.1,0 0,-1.69 -2.19,0 0,17.6 2.29,0 0,-5.38 -0.1,-1.69 0.1,0 c 0.69,1.12 2.21,2.09 4.16,2.09 z m -0.38,-2.1 c -2.04,0 -3.89,-1.62 -3.89,-4.41 0,-2.79 1.84,-4.41 3.89,-4.41 2.04,0 3.89,1.67 3.89,4.41 0,2.74 -1.84,4.41 -3.89,4.41 z m 13.81,2.1 c 2.82,0 4.61,-1.6 5.33,-3.34 l -2.04,-0.85 c -0.65,1.55 -1.99,2.09 -3.34,2.09 -1.89,0 -3.76,-1.4 -3.89,-3.99 l 9.65,0 c 0,0 0.02,-0.25 0.02,-0.42 0,-3.94 -2.34,-6.51 -5.98,-6.51 -3.59,0 -5.98,3.04 -5.98,6.51 0,3.69 2.49,6.51 6.23,6.51 z m 3.29,-7.98 -7.08,0 c 0.45,-1.79 1.79,-2.94 3.49,-2.94 2.62,0 3.52,1.87 3.59,2.94 z m 6.83,7.58 0,-6.68 c 0,-2.24 1.6,-3.56 3.17,-3.56 0.5,0 0.9,0.05 1.22,0.17 l 0.87,-2.14 c -0.47,-0.2 -0.97,-0.3 -1.72,-0.3 -1.27,0 -3.04,0.9 -3.54,2.29 l -0.1,0 0,-1.99 -2.19,0 0,12.21 2.29,0 z m 11.17,0.4 c 2.87,0 4.81,-1.67 4.81,-3.84 0,-1.5 -0.95,-2.99 -3.36,-3.56 l -2.42,-0.57 c -0.97,-0.22 -1.62,-0.65 -1.62,-1.42 0,-1 1.12,-1.57 2.42,-1.57 1.2,0 2.32,0.47 2.79,1.62 l 1.99,-0.82 c -0.75,-1.87 -2.59,-2.84 -4.71,-2.84 -2.54,0 -4.84,1.42 -4.84,3.64 0,2.14 2.14,3.12 3.27,3.39 l 2.47,0.6 c 1.3,0.32 1.67,1 1.67,1.62 0,1.02 -1.02,1.72 -2.44,1.72 -1.47,0 -2.67,-0.75 -3.32,-2.29 l -2.04,0.85 c 0.72,1.72 2.39,3.47 5.33,3.47 z"
       inkscape:connector-curvature="0"
       style="fill:#ffffff" />
  </g>
</svg>
