<?xml version="1.0" encoding="UTF-8" standalone="no"?>
<!-- Generator: Adobe Illustrator 17.1.0, SVG Export Plug-In . SVG Version: 6.00 Build 0)  -->
<svg
    xmlns:svg="http://www.w3.org/2000/svg"
    xmlns="http://www.w3.org/2000/svg"
    version="1.1"
    x="0px"
    y="0px"
    viewBox="0 0 47.999998 48.000002"
    xml:space="preserve"
    width="48"
    height="48">
  <path
    d="m 23.928175,1.1509478 c -12.928167,0 -23.41434679,10.4861792 -23.41434679,23.4143462 0,10.342533 6.75137599,19.104958 15.94473879,22.265176 1.14917,0.143646 1.580109,-0.574585 1.580109,-1.14917 0,-0.574585 0,-2.011048 0,-4.022097 C 11.574593,43.095666 10.13813,38.498985 10.13813,38.498985 9.1326061,35.769705 7.5524968,35.051474 7.5524968,35.051474 5.3978023,33.615011 7.6961431,33.615011 7.6961431,33.615011 9.9944842,33.758657 11.2873,36.056998 11.2873,36.056998 c 2.154695,3.591157 5.45856,2.585633 6.751376,2.011048 0.143647,-1.580109 0.861878,-2.585633 1.436463,-3.160219 -5.171266,-0.574585 -10.6298255,-2.585633 -10.6298255,-11.63535 0,-2.585633 0.8618778,-4.596681 2.4419865,-6.320437 -0.287292,-0.574585 -1.005524,-3.016572 0.287293,-6.176791 0,0 2.011048,-0.574585 6.464083,2.441987 1.867402,-0.574585 3.87845,-0.718231 5.889499,-0.718231 2.011048,0 4.022096,0.287292 5.889498,0.718231 4.453035,-3.016572 6.464083,-2.441987 6.464083,-2.441987 1.292817,3.160219 0.430939,5.602206 0.287293,6.176791 1.436463,1.580109 2.441987,3.734804 2.441987,6.320437 0,9.049717 -5.458559,10.917119 -10.629826,11.491704 0.861878,0.718232 1.580109,2.154695 1.580109,4.309389 0,3.160219 0,5.602206 0,6.464083 0,0.574586 0.430939,1.292817 1.580109,1.149171 C 40.878438,43.526605 47.486167,34.764181 47.486167,24.421648 47.342521,11.637127 36.856341,1.1509478 23.928175,1.1509478 Z"
    style="clip-rule:evenodd;fill:#ffffff;fill-rule:evenodd" />
  </svg>
