<svg xmlns="http://www.w3.org/2000/svg" viewBox="0 0 820 200"><style><![CDATA[.label,.tag{dominant-baseline:central}.tag{font-weight:700;font-family:monospace;font-size:13px}.label{font-family:sans-serif;font-size:10px}.parser{stroke:#6eae00;fill:#6eae00}.fetch{stroke:#0035ff;fill:#0035ff}.execution{stroke:red;fill:red}.progress{stroke-width:2}.progress.parser:not(.first){marker-start:url(#parser-marker)}.progress.parser:not(.last){marker-end:url(#parser-marker)}.progress.fetch:not(.first){marker-start:url(#fetch-marker)}.progress.fetch:not(.last){marker-end:url(#fetch-marker)}.progress.execution:not(.first){marker-start:url(#execution-marker)}.progress.execution:not(.last){marker-end:url(#execution-marker)}marker>circle{stroke-width:0}.connector{stroke:#cecece;stroke-width:1}]]></style><g stroke="#6a9400" stroke-dasharray="1,1"><path d="M0 33.5h820M0 66.5h820M0 99.5h820M0 132.5h820M245.5 1v28M245.5 38v24M245.5 68v27M245.5 104v24M245.5 137v28"/></g><defs><marker id="parser-marker" refX="1.5" refY="1.5"><circle cx="1.5" cy="1.5" r="1.5" class="parser"/></marker><marker id="fetch-marker" refX="1.5" refY="1.5"><circle cx="1.5" cy="1.5" r="1.5" class="fetch"/></marker><marker id="execution-marker" refX="1.5" refY="1.5"><circle cx="1.5" cy="1.5" r="1.5" class="execution"/></marker></defs><text x="12" y="16.75" class="tag">&lt;script&gt;</text><text y="9" class="label" transform="translate(252)">Scripting:</text><text y="24" class="label" transform="translate(252)">HTML Parser:</text><path class="connector" d="M509 9v15M656 9v15"/><path class="parser progress first" d="M358 24h151"/><path class="fetch progress" d="M509 9h97"/><path class="execution progress" d="M606 9h50"/><path class="parser progress last" d="M656 24h128"/><g><text x="12" y="16.75" class="tag" transform="translate(0 33)">&lt;script defer&gt;</text><text y="9" class="label" transform="translate(252 33)">Scripting:</text><text y="24" class="label" transform="translate(252 33)">HTML Parser:</text><path class="connector" d="M736 42v15"/><path class="parser progress first" d="M358 57h378"/><path class="fetch progress" d="M509 42h97"/><path class="execution progress last" d="M736 42h48"/></g><g><text x="12" y="16.75" class="tag" transform="translate(0 66)">&lt;script async&gt;</text><text y="9" class="label" transform="translate(252 66)">Scripting:</text><text y="24" class="label" transform="translate(252 66)">HTML Parser:</text><path class="connector" d="M606 75v15M656 75v15"/><path class="parser progress first" d="M358 90h248"/><path class="fetch progress" d="M509 75h97"/><path class="execution progress" d="M606 75h50"/><path class="parser progress last" d="M656 90h128"/></g><g><text x="12" y="16.75" class="tag" transform="translate(0 99)">&lt;script type=&quot;module&quot;&gt;</text><text y="9" class="label" transform="translate(252 99)">Scripting:</text><text y="24" class="label" transform="translate(252 99)">HTML Parser:</text><path class="connector" d="M736 108v15"/><path class="parser progress first" d="M358 123h378"/><path class="fetch progress" d="M509 108h97M606 108h20M606 108l20 7.5M626 115.5h20M646 115.5h20M646 115.5l20-7.5"/><path class="execution progress last" d="M736 108h48"/></g><g><text x="12" y="16.75" class="tag" transform="translate(0 132)">&lt;script type=&quot;module&quot; async&gt;</text><text y="9" class="label" transform="translate(252 132)">Scripting:</text><text y="24" class="label" transform="translate(252 132)">HTML Parser:</text><path class="connector" d="M666 141v15M716 141v15"/><path class="parser progress first" d="M358 156h308"/><path class="fetch progress" d="M509 141h97M606 141h20M606 141l20 7.5M626 148.5h20M646 148.5h20M646 148.5l20-7.5"/><path class="execution progress" d="M666 141h50"/><path class="parser progress last" d="M716 156h68"/></g><g class="legend" transform="translate(357.5 172)"><circle cx="3" cy="3" r="3" class="parser"/><text x="9" y="3" class="label">parser</text><circle cx="50" cy="3" r="3" class="fetch"/><text x="56" y="3" class="label">fetch</text><circle cx="90" cy="3" r="3" class="execution"/><text x="96" y="3" class="label">execution</text></g><text x="782" y="175" text-anchor="end" class="label">runtime →</text></svg>