<?xml version="1.0" encoding="utf-8"?>
<!-- Generator: Adobe Illustrator 19.0.0, SVG Export Plug-In . SVG Version: 6.00 Build 0)  -->
<svg version="1.1" id="logo_x5F_avatar_x5F_anonymous_x5F_192px_x5F_clr"
	 xmlns="http://www.w3.org/2000/svg" xmlns:xlink="http://www.w3.org/1999/xlink" x="0px" y="0px" width="48px" height="48px"
	 viewBox="0 0 192 192" enable-background="new 0 0 192 192" xml:space="preserve">
<g id="XMLID_1_">
	<path id="XMLID_2045_" fill="#E0E0E0" d="M96,0C43.01,0,0,43.01,0,96s43.01,96,96,96s96-43.01,96-96S148.99,0,96,0z"/>
	<path id="XMLID_1734_" fill="#BDBDBD" d="M96,85.09c13.28,0,24-10.72,24-24c0-13.28-10.72-24-24-24s-24,10.72-24,24
		C72,74.37,82.72,85.09,96,85.09z"/>
	<path id="XMLID_2789_" fill="#BDBDBD" d="M96,99.27c-29.33,0-52.36,14.18-52.36,27.27c11.09,17.06,30.51,28.36,52.36,28.36
		s41.27-11.3,52.36-28.36C148.36,113.45,125.33,99.27,96,99.27z"/>
	<rect id="XMLID_70_" fill="none" width="192" height="192"/>
</g>
</svg>
