<svg xmlns="http://www.w3.org/2000/svg" width="960" height="520"><defs><clipPath clipPathUnits="userSpaceOnUse" id="cp1"><path d="M-43 0h960v720H-43V0z"/></clipPath></defs><style>.shp0{fill:none}.shp1{fill:#cfe2f3}.shp2{fill:none;stroke:#000;stroke-linejoin:round}.shp3,.shp5{fill:#000}.shp5{stroke:#000}</style><g id="Clip-Path" clip-path="url(#cp1)"><g id="Layer"><path id="Layer" class="shp0" d="M-43 0h960v720H-43V0z"/><path id="Layer" fill-rule="evenodd" class="shp1" d="M284.74 141.34h143.38v274.48H284.74V141.34z"/><path id="Layer" class="shp2" d="M284.74 141.34h143.38v274.48H284.74V141.34z"/><path id="Layer" fill-rule="evenodd" class="shp3" d="M296.47 190.26h-1.51V176.9h1.64v4.76c.69-.86 1.58-1.29 2.65-1.29.6 0 1.16.12 1.69.35.53.24.97.58 1.31 1.02.35.43.61.95.8 1.56.2.62.3 1.27.3 1.97 0 1.66-.41 2.94-1.24 3.85-.81.9-1.79 1.35-2.95 1.35-1.14 0-2.03-.47-2.69-1.43v1.22zm-.01-4.91c0 1.16.16 1.99.48 2.52.51.84 1.21 1.26 2.09 1.26.72 0 1.34-.31 1.86-.94.52-.62.79-1.55.79-2.78 0-1.26-.25-2.19-.75-2.79-.5-.61-1.11-.91-1.83-.91-.71 0-1.33.31-1.86.94-.52.62-.78 1.52-.78 2.7zm8.28.06c0-1.79.49-3.11 1.48-3.97.84-.72 1.85-1.07 3.05-1.07 1.33 0 2.42.43 3.27 1.31.84.86 1.26 2.07 1.26 3.61 0 1.24-.19 2.22-.56 2.93-.38.71-.92 1.27-1.64 1.66-.71.4-1.49.59-2.33.59-1.35 0-2.45-.43-3.28-1.29-.84-.88-1.25-2.13-1.25-3.77zm1.69 0c0 1.24.26 2.17.79 2.8.54.61 1.23.92 2.05.92.81 0 1.49-.31 2.03-.92.54-.63.81-1.57.81-2.84 0-1.2-.27-2.11-.81-2.72-.54-.62-1.22-.93-2.03-.93-.82 0-1.51.31-2.05.93-.53.6-.79 1.52-.79 2.76zm15.56 4.85v-1.22c-.61.96-1.51 1.43-2.7 1.43-.77 0-1.48-.21-2.13-.64-.64-.42-1.14-1.02-1.5-1.78-.35-.76-.53-1.63-.53-2.62 0-.97.16-1.85.48-2.63.33-.79.81-1.39 1.44-1.81.65-.42 1.37-.62 2.17-.62.59 0 1.1.12 1.55.37.46.24.83.56 1.11.95v-4.79h1.64v13.36h-1.53zm-5.17-4.83c0 1.24.26 2.16.78 2.78.52.61 1.13.92 1.84.92.72 0 1.33-.29 1.83-.87.5-.6.75-1.49.75-2.69 0-1.32-.25-2.29-.77-2.91-.51-.62-1.14-.94-1.89-.94-.71 0-1.32.3-1.81.9-.49.59-.73 1.53-.73 2.81zm9.2 8.54l-.19-1.53c.37.1.68.14.94.14.37 0 .66-.06.88-.18.21-.12.4-.28.54-.5.11-.17.27-.58.5-1.22.03-.1.08-.23.14-.41l-3.67-9.69h1.77l2.01 5.6c.26.72.5 1.47.71 2.25.18-.75.41-1.49.67-2.21l2.08-5.64h1.64l-3.69 9.83c-.4 1.08-.7 1.81-.92 2.21-.29.54-.63.93-1 1.18-.38.25-.83.38-1.35.38-.32 0-.67-.07-1.06-.21zm13.87-9.29c.47-.01.85-.14 1.14-.38.3-.24.5-.56.6-.98.09-.42.14-1.13.14-2.14.01-1.02.03-1.69.06-2.02.06-.51.17-.92.31-1.23.15-.31.33-.56.55-.74.22-.18.5-.32.84-.42.23-.06.61-.09 1.13-.09h.51v1.42h-.28c-.63 0-1.06.11-1.26.34-.21.23-.32.74-.32 1.53 0 1.6-.03 2.6-.09 3.02-.1.65-.29 1.15-.56 1.5-.26.35-.67.67-1.24.94.67.28 1.15.71 1.44 1.28.3.57.45 1.51.45 2.81 0 1.19.02 1.9.05 2.13.04.4.16.69.36.86.2.16.59.25 1.17.25h.28v1.42h-.51c-.6 0-1.03-.05-1.3-.14-.38-.14-.71-.37-.97-.69-.25-.31-.41-.71-.5-1.19-.07-.48-.11-1.26-.12-2.36 0-1.09-.05-1.85-.14-2.26-.1-.42-.3-.75-.6-.99-.29-.25-.67-.38-1.14-.39v-1.48zM311.65 208.71l1.61.22c-.18 1.1-.63 1.97-1.36 2.61-.72.62-1.61.93-2.67.93-1.32 0-2.39-.43-3.19-1.29-.8-.87-1.2-2.11-1.2-3.72 0-1.05.17-1.97.51-2.75.35-.78.87-1.37 1.58-1.75.71-.4 1.48-.59 2.31-.59 1.06 0 1.92.26 2.58.79.67.53 1.1 1.29 1.28 2.27l-1.59.23c-.16-.64-.43-1.13-.81-1.45-.39-.33-.85-.5-1.39-.5-.83 0-1.5.3-2.02.89-.52.59-.78 1.53-.78 2.81 0 1.3.25 2.25.75 2.85.5.58 1.15.87 1.95.87.65 0 1.19-.2 1.61-.59.44-.4.72-1.01.83-1.83zm2.41-1.3c0-1.79.49-3.11 1.48-3.97.83-.72 1.85-1.07 3.05-1.07 1.33 0 2.42.43 3.26 1.31.85.86 1.27 2.07 1.27 3.61 0 1.24-.19 2.22-.56 2.93-.38.71-.92 1.27-1.64 1.66-.71.4-1.49.59-2.33.59-1.36 0-2.45-.43-3.28-1.29-.84-.88-1.25-2.13-1.25-3.77zm1.68 0c0 1.24.27 2.17.8 2.8.54.61 1.23.92 2.05.92.81 0 1.49-.31 2.03-.92.54-.63.81-1.57.81-2.84 0-1.2-.27-2.11-.81-2.72-.54-.62-1.22-.93-2.03-.93-.82 0-1.51.31-2.05.93-.53.6-.8 1.52-.8 2.76zm9.26 4.85V198.9h1.64v13.36H325zm3.58-4.85c0-1.79.49-3.11 1.48-3.97.84-.72 1.85-1.07 3.05-1.07 1.33 0 2.42.43 3.26 1.31.85.86 1.27 2.07 1.27 3.61 0 1.24-.19 2.22-.56 2.93-.38.71-.92 1.27-1.64 1.66-.71.4-1.49.59-2.33.59-1.36 0-2.45-.43-3.28-1.29-.84-.88-1.25-2.13-1.25-3.77zm1.69 0c0 1.24.26 2.17.79 2.8.54.61 1.23.92 2.05.92.81 0 1.49-.31 2.03-.92.54-.63.81-1.57.81-2.84 0-1.2-.27-2.11-.81-2.72-.54-.62-1.22-.93-2.03-.93-.82 0-1.51.31-2.05.93-.53.6-.79 1.52-.79 2.76zm9.28 4.85v-9.68h1.47v1.47c.37-.68.71-1.14 1.03-1.36.32-.22.67-.32 1.06-.32.55 0 1.11.17 1.69.53l-.57 1.51c-.4-.24-.8-.36-1.2-.36-.36 0-.69.11-.97.33-.28.22-.48.52-.61.89-.18.58-.28 1.23-.28 1.92v5.07h-1.62zm6.68-7.82v-1.86h1.86v1.86h-1.86zm0 7.82v-1.88h1.86v1.88h-1.86zm11.41 0h-1.51V198.9h1.64v4.76c.7-.86 1.58-1.29 2.65-1.29.6 0 1.16.12 1.69.35.53.24.97.58 1.31 1.02.35.43.61.95.8 1.56.2.62.3 1.27.3 1.97 0 1.66-.41 2.94-1.24 3.85-.81.9-1.79 1.35-2.95 1.35-1.14 0-2.03-.47-2.69-1.43v1.22zm-.01-4.91c0 1.16.16 1.99.48 2.52.51.84 1.21 1.26 2.09 1.26.72 0 1.34-.31 1.86-.94.52-.62.79-1.55.79-2.78 0-1.26-.25-2.19-.75-2.79-.5-.61-1.11-.91-1.83-.91-.71 0-1.33.31-1.86.94-.52.62-.78 1.52-.78 2.7zm8.84 4.91V198.9h1.64v13.36h-1.64zm10.51-1.19c-.62.51-1.21.87-1.77 1.09-.55.21-1.15.31-1.8.31-1.06 0-1.88-.26-2.45-.78-.57-.52-.86-1.18-.86-1.98 0-.48.11-.91.33-1.3.22-.39.5-.71.84-.94.36-.23.75-.42 1.19-.54.31-.09.8-.17 1.45-.25 1.33-.16 2.3-.35 2.92-.56.02-.23.02-.37.02-.43 0-.66-.16-1.14-.47-1.42-.42-.36-1.04-.55-1.87-.55-.77 0-1.34.14-1.71.41-.36.27-.63.75-.81 1.42l-1.61-.22c.15-.67.39-1.22.72-1.64.33-.42.82-.75 1.45-.98.64-.23 1.37-.34 2.19-.34.83 0 1.51.09 2.02.29.52.19.9.43 1.14.74.25.29.42.66.51 1.11.05.28.08.78.08 1.51v2.19c0 1.52.04 2.48.11 2.89.07.4.21.78.41 1.16h-1.71c-.17-.35-.28-.74-.32-1.19zm-.15-3.67c-.59.25-1.48.45-2.67.62-.67.1-1.15.2-1.43.33-.29.12-.5.3-.66.53-.15.23-.22.49-.22.78 0 .44.17.8.5 1.1.33.29.82.43 1.45.43s1.19-.13 1.68-.4c.5-.28.86-.66 1.09-1.14.18-.38.26-.93.26-1.64v-.61zm10.52 1.31l1.61.22c-.18 1.1-.63 1.97-1.36 2.61-.72.62-1.61.93-2.67.93-1.32 0-2.39-.43-3.19-1.29-.8-.87-1.2-2.11-1.2-3.72 0-1.05.17-1.97.51-2.75.35-.78.87-1.37 1.58-1.75.71-.4 1.48-.59 2.31-.59 1.06 0 1.92.26 2.58.79.67.53 1.1 1.29 1.28 2.27l-1.59.23c-.16-.64-.43-1.13-.81-1.45-.39-.33-.85-.5-1.39-.5-.83 0-1.5.3-2.02.89-.52.59-.78 1.53-.78 2.81 0 1.3.25 2.25.75 2.85.5.58 1.15.87 1.95.87.65 0 1.19-.2 1.61-.59.44-.4.72-1.01.83-1.83zm3.02 3.55V198.9h1.64v7.62l3.89-3.94h2.11l-3.69 3.6 4.06 6.08h-2.01l-3.21-4.96-1.15 1.13v3.83h-1.64zm9.75-7.82v-1.86h1.87v1.86h-1.87zm0 7.82v-1.88h1.87v1.88c0 .68-.12 1.24-.37 1.65-.24.43-.63.76-1.16.99l-.45-.71c.34-.14.6-.37.76-.67.17-.29.26-.71.28-1.26h-.93z"/><path id="Layer" class="shp3" d="M299.44 228.68v1.48c-.47.01-.85.14-1.14.39-.29.24-.49.57-.59.99-.1.41-.15 1.13-.16 2.15 0 1.01-.02 1.68-.05 2-.05.51-.15.92-.31 1.22-.15.31-.33.56-.55.75-.21.19-.5.33-.84.42-.23.07-.6.1-1.12.1h-.52v-1.42h.28c.64 0 1.06-.12 1.27-.35.2-.23.31-.74.31-1.53 0-1.52.02-2.48.08-2.89.09-.68.28-1.21.58-1.61.29-.41.7-.72 1.25-.95-.7-.34-1.2-.78-1.49-1.33-.28-.55-.42-1.48-.42-2.78 0-1.19-.02-1.9-.05-2.13-.04-.4-.16-.68-.36-.84-.2-.17-.59-.25-1.17-.25h-.28v-1.42h.52c.59 0 1.02.04 1.29.14.39.13.71.36.96.69.26.31.42.7.5 1.18.08.48.12 1.27.12 2.36.01 1.1.06 1.85.16 2.27.1.4.3.73.59.98.29.24.67.37 1.14.38z"/><path id="Layer" fill-rule="evenodd" class="shp1" d="M61.47 146.46h125.98v60.41H61.47v-60.41z"/><path id="Layer" class="shp2" d="M61.47 146.46h125.98v60.41H61.47v-60.41z"/><path id="Layer" fill-rule="evenodd" class="shp3" d="M95.4 177.74v-1.53l8.84-3.74v1.65l-7.01 2.87 7.01 2.91v1.62l-8.84-3.78zm10.46 2.95l1.62-.25c.09.65.34 1.15.75 1.5.42.35 1 .52 1.75.52s1.31-.15 1.67-.45c.37-.32.55-.68.55-1.1 0-.36-.16-.65-.48-.87-.22-.15-.78-.33-1.68-.55-1.2-.31-2.04-.58-2.51-.8-.46-.22-.81-.52-1.05-.9-.24-.4-.36-.84-.36-1.32 0-.42.1-.82.3-1.18.2-.38.47-.69.81-.92.25-.19.6-.35 1.03-.47.45-.14.93-.21 1.43-.21.76 0 1.42.11 2 .33.57.22.99.52 1.26.89.28.38.48.88.58 1.5l-1.61.22c-.07-.5-.29-.89-.64-1.17-.34-.28-.83-.42-1.47-.42-.76 0-1.3.12-1.62.37-.32.25-.47.54-.47.88 0 .21.06.4.18.58.14.17.35.32.64.43.16.07.64.21 1.44.42 1.17.31 1.98.56 2.44.75.46.2.82.49 1.08.86.26.38.39.85.39 1.41 0 .55-.16 1.07-.49 1.55-.31.48-.77.85-1.37 1.12-.6.26-1.29.39-2.05.39-1.25 0-2.21-.26-2.87-.78-.66-.52-1.08-1.3-1.25-2.33zm13.56 1.43l.23 1.45c-.45.09-.87.14-1.23.14-.59 0-1.06-.09-1.39-.28-.32-.19-.55-.43-.69-.74-.13-.31-.2-.95-.2-1.93v-5.58h-1.2v-1.27h1.2v-2.39l1.62-.98v3.37h1.66v1.27h-1.66v5.67c0 .46.03.75.08.89.06.14.16.25.28.33.14.07.33.11.58.11.18 0 .42-.02.72-.06zm1.53 5.18l-.19-1.53c.36.1.68.14.94.14.36 0 .65-.06.87-.19.22-.11.4-.28.55-.5.1-.16.27-.57.5-1.21.03-.1.08-.23.14-.41l-3.67-9.69h1.76l2.02 5.6c.26.71.49 1.46.7 2.25.19-.75.41-1.49.67-2.21l2.08-5.64h1.64l-3.68 9.83c-.4 1.07-.71 1.81-.93 2.2-.29.55-.62.94-1 1.19-.37.25-.82.38-1.34.38-.32 0-.68-.07-1.06-.21zm9.36-3.72v-13.36h1.64v13.36h-1.64zm10.81-3.11l1.69.21c-.27.99-.77 1.76-1.48 2.31-.72.54-1.64.81-2.77.81-1.42 0-2.54-.43-3.37-1.29-.83-.88-1.24-2.1-1.24-3.68 0-1.63.42-2.9 1.25-3.79.84-.9 1.93-1.35 3.27-1.35 1.29 0 2.34.45 3.15 1.33.83.88 1.24 2.11 1.24 3.7v.44h-7.22c.06 1.06.36 1.88.9 2.46.55.56 1.22.84 2.02.84.6 0 1.12-.16 1.55-.47.42-.32.76-.83 1.01-1.52zm-5.39-2.65h5.41c-.07-.81-.28-1.42-.63-1.83-.52-.64-1.19-.95-2.03-.95-.75 0-1.38.25-1.9.76-.51.5-.8 1.17-.85 2.02zm17.77-.08l-8.85 3.78v-1.62l7.02-2.91-7.02-2.87v-1.65l8.85 3.74v1.53z"/><path id="Layer" fill-rule="evenodd" class="shp1" d="M61.47 250.93h125.98v60.41H61.47v-60.41z"/><path id="Layer" class="shp2" d="M61.47 250.93h125.98v60.41H61.47v-60.41z"/><path id="Layer" class="shp3" d="M100.58 282.22v-1.54l8.85-3.73v1.64l-7.02 2.88 7.02 2.9V286l-8.85-3.78zm11.07 5.84V274.7h1.64v13.36h-1.64zm4.19-11.47v-1.89h1.64v1.89h-1.64zm0 11.47v-9.67h1.64v9.67h-1.64zm4.15 0v-9.67h1.47v1.37c.7-1.06 1.73-1.59 3.07-1.59.59 0 1.12.1 1.61.31s.86.49 1.1.83c.25.33.42.73.51 1.2.06.3.1.84.1 1.6v5.95h-1.64v-5.89c0-.67-.07-1.16-.21-1.49-.12-.33-.35-.59-.67-.79-.32-.2-.7-.3-1.14-.3-.7 0-1.3.22-1.81.67-.5.44-.75 1.28-.75 2.52v5.28h-1.64zm10.37 0V274.7H132v7.62l3.89-3.93H138l-3.68 3.59 4.06 6.08h-2.02l-3.2-4.95-1.16 1.12v3.83h-1.64zm17.96-5.84l-8.85 3.78v-1.63l7.02-2.9-7.02-2.88v-1.64l8.85 3.73v1.54z"/><path id="Layer" fill-rule="evenodd" class="shp1" d="M61.47 355.41h125.98v60.41H61.47v-60.41z"/><path id="Layer" d="M61.47 355.41h125.98v60.41H61.47v-60.41z" fill="none" stroke="#000" stroke-linejoin="round" stroke-dasharray="4,3"/><path id="Layer" fill-rule="evenodd" class="shp3" d="M101.22 387.85l1.77.45c-.38 1.45-1.04 2.56-2 3.33-.96.76-2.14 1.14-3.53 1.14-1.44 0-2.61-.29-3.52-.88-.9-.59-1.58-1.44-2.06-2.54-.47-1.12-.7-2.32-.7-3.6 0-1.38.26-2.59.79-3.62.53-1.04 1.29-1.83 2.27-2.36.99-.54 2.07-.81 3.25-.81 1.33 0 2.45.33 3.36 1.01.91.68 1.55 1.64 1.9 2.88l-1.73.4c-.31-.97-.77-1.67-1.36-2.11-.58-.44-1.32-.67-2.2-.67-1.03 0-1.89.25-2.58.74-.69.49-1.17 1.15-1.45 1.98-.29.82-.43 1.68-.43 2.56 0 1.14.17 2.13.5 2.97.34.85.85 1.48 1.55 1.91.7.41 1.45.62 2.27.62.99 0 1.82-.28 2.51-.86.69-.57 1.15-1.42 1.39-2.54zm3.35.39l1.66-.14c.08.66.26 1.21.54 1.64.29.42.74.77 1.35 1.04.61.26 1.3.39 2.06.39.67 0 1.26-.09 1.78-.29.52-.2.91-.47 1.16-.81.25-.36.37-.74.37-1.16 0-.42-.12-.78-.37-1.09-.24-.32-.64-.58-1.19-.8-.37-.14-1.16-.35-2.39-.64-1.22-.3-2.07-.59-2.56-.85-.65-.33-1.13-.74-1.44-1.23-.31-.5-.47-1.06-.47-1.67 0-.67.19-1.29.58-1.88.38-.59.94-1.04 1.67-1.34.74-.3 1.56-.45 2.45-.45.99 0 1.86.16 2.61.48.76.31 1.35.78 1.75 1.41.41.61.63 1.31.66 2.09l-1.69.13c-.09-.85-.41-1.48-.94-1.91-.52-.44-1.29-.66-2.31-.66-1.07 0-1.85.2-2.34.6-.49.39-.74.87-.74 1.42 0 .48.18.87.53 1.17.34.31 1.22.64 2.66.97 1.44.32 2.42.6 2.95.84.78.36 1.36.81 1.72 1.36.38.55.56 1.19.56 1.91 0 .71-.2 1.38-.6 2.01-.41.63-.99 1.12-1.75 1.47-.76.35-1.62.52-2.58.52-1.21 0-2.23-.18-3.05-.53-.81-.36-1.45-.89-1.92-1.6-.46-.7-.7-1.51-.72-2.4zm12.44 0l1.66-.14c.08.66.27 1.21.55 1.64.29.42.74.77 1.34 1.04.61.26 1.3.39 2.06.39.67 0 1.26-.09 1.78-.29.52-.2.91-.47 1.16-.81.25-.36.38-.74.38-1.16 0-.42-.13-.78-.38-1.09-.24-.32-.64-.58-1.19-.8-.36-.14-1.16-.35-2.39-.64-1.22-.3-2.07-.59-2.56-.85-.65-.33-1.13-.74-1.44-1.23-.31-.5-.47-1.06-.47-1.67 0-.67.2-1.29.58-1.88.39-.59.94-1.04 1.67-1.34.74-.3 1.56-.45 2.46-.45.99 0 1.86.16 2.61.48.76.31 1.34.78 1.75 1.41.4.61.62 1.31.65 2.09l-1.69.13c-.09-.85-.4-1.48-.93-1.91-.52-.44-1.29-.66-2.32-.66-1.07 0-1.85.2-2.34.6-.49.39-.73.87-.73 1.42 0 .48.17.87.53 1.17.33.31 1.22.64 2.65.97 1.44.32 2.43.6 2.96.84.78.36 1.35.81 1.72 1.36.37.55.56 1.19.56 1.91 0 .71-.2 1.38-.61 2.01-.41.63-.99 1.12-1.75 1.47-.76.35-1.62.52-2.58.52-1.21 0-2.22-.18-3.05-.53-.81-.36-1.45-.89-1.92-1.6-.46-.7-.7-1.51-.72-2.4zm12.51-2.21c0-2.21.59-3.95 1.78-5.2 1.19-1.26 2.72-1.89 4.61-1.89 1.23 0 2.34.3 3.33.89.99.58 1.74 1.41 2.26 2.47.52 1.05.79 2.24.79 3.58 0 1.35-.28 2.57-.83 3.64-.54 1.06-1.32 1.87-2.32 2.42-1 .55-2.08.83-3.25.83-1.25 0-2.37-.3-3.35-.91a5.913 5.913 0 01-2.25-2.5 7.397 7.397 0 01-.77-3.33zm1.81.02c0 1.61.43 2.89 1.3 3.81.86.93 1.95 1.39 3.26 1.39 1.34 0 2.43-.47 3.29-1.4.85-.94 1.28-2.27 1.28-3.99 0-1.08-.19-2.03-.55-2.84-.36-.81-.9-1.44-1.61-1.88-.71-.44-1.5-.67-2.37-.67-1.26 0-2.35.43-3.25 1.3-.9.85-1.35 2.28-1.35 4.28zm13.19 6.48v-13.36h2.65l3.16 9.46c.29.88.5 1.54.64 1.98.15-.49.39-1.2.7-2.14l3.2-9.3h2.38v13.36h-1.7v-11.17l-3.88 11.17h-1.59l-3.86-11.37v11.37h-1.7z"/><path id="Layer" class="shp0" d="M187.45 281.13l97.29-2.55"/><path id="Layer" class="shp2" d="M187.45 281.13l91.29-2.4"/><path id="Layer" fill-rule="evenodd" class="shp5" d="M278.78 280.39l4.5-1.77-4.58-1.54.08 3.31z"/><path id="Layer" class="shp0" d="M187.45 385.61l97.29-39.43"/><path id="Layer" class="shp2" d="M187.45 385.61l91.73-37.18"/><path id="Layer" fill-rule="evenodd" class="shp5" d="M279.8 349.97l3.59-3.24-4.83.17 1.24 3.07z"/><path id="Layer" class="shp0" d="M187.45 176.66l98.3 23.06"/><path id="Layer" class="shp2" d="M187.45 176.66l92.46 21.69"/><path id="Layer" fill-rule="evenodd" class="shp5" d="M279.53 199.96l4.8-.57-4.04-2.65-.76 3.22z"/><path id="Layer" class="shp0" d="M256.1 72.2h210.99v60.41H256.1V72.2z"/><path id="Layer" fill-rule="evenodd" class="shp3" d="M286.81 99.12V85.77h4.61c1.03 0 1.82.06 2.37.2.76.17 1.41.48 1.96.95.7.6 1.23 1.36 1.57 2.28.36.93.53 1.99.53 3.17 0 1.02-.12 1.92-.35 2.71-.24.78-.55 1.42-.93 1.94-.36.51-.76.91-1.2 1.21-.44.3-.97.52-1.59.68-.63.14-1.34.21-2.14.21h-4.83zm1.76-1.57h2.86c.88 0 1.57-.08 2.07-.24.5-.16.9-.4 1.2-.7.41-.42.74-.98.97-1.69.24-.71.36-1.57.36-2.58 0-1.39-.23-2.47-.69-3.22-.46-.75-1.02-1.25-1.67-1.5-.47-.18-1.23-.28-2.28-.28h-2.82v10.21zm18.13-1.53l1.69.2c-.27.99-.77 1.76-1.48 2.31-.72.54-1.65.81-2.77.81-1.42 0-2.54-.43-3.38-1.29-.82-.88-1.23-2.1-1.23-3.68 0-1.63.42-2.9 1.25-3.79.84-.9 1.93-1.35 3.27-1.35 1.29 0 2.34.45 3.15 1.33.83.88 1.24 2.11 1.24 3.71v.43h-7.22c.06 1.07.36 1.88.9 2.46.55.56 1.22.84 2.02.84.6 0 1.12-.16 1.55-.47.42-.32.76-.83 1.01-1.51zm-5.39-2.66h5.41c-.07-.81-.28-1.42-.63-1.83-.52-.63-1.19-.95-2.03-.95-.75 0-1.38.25-1.9.76-.51.5-.8 1.18-.85 2.02zm11.83 5.76l-3.69-9.67h1.74l2.08 5.8c.21.62.42 1.27.62 1.94.14-.51.34-1.12.61-1.83l2.14-5.91h1.69l-3.66 9.67h-1.53zm10.25 0V87.34h-4.41v-1.57h10.58v1.57h-4.4v11.78h-1.77zm5.11-4.84c0-1.79.49-3.11 1.48-3.97.84-.72 1.85-1.08 3.05-1.08 1.33 0 2.42.44 3.27 1.32.84.86 1.26 2.06 1.26 3.61 0 1.24-.19 2.21-.56 2.93-.38.71-.92 1.26-1.64 1.66-.71.4-1.49.59-2.33.59-1.35 0-2.45-.43-3.28-1.29-.83-.88-1.25-2.13-1.25-3.77zm1.69 0c0 1.24.26 2.17.79 2.8.54.61 1.23.92 2.05.92.81 0 1.49-.31 2.03-.92.54-.63.81-1.58.81-2.85 0-1.19-.27-2.1-.81-2.71-.54-.62-1.22-.93-2.03-.93-.82 0-1.51.31-2.05.93-.53.6-.79 1.52-.79 2.76zm8.68 0c0-1.79.5-3.11 1.49-3.97.83-.72 1.85-1.08 3.05-1.08 1.33 0 2.42.44 3.26 1.32.85.86 1.27 2.06 1.27 3.61 0 1.24-.19 2.21-.57 2.93-.37.71-.92 1.26-1.64 1.66-.7.4-1.48.59-2.32.59-1.36 0-2.45-.43-3.29-1.29-.83-.88-1.25-2.13-1.25-3.77zm1.69 0c0 1.24.27 2.17.8 2.8.54.61 1.22.92 2.05.92.81 0 1.49-.31 2.03-.92.54-.63.81-1.58.81-2.85 0-1.19-.27-2.1-.81-2.71-.54-.62-1.22-.93-2.03-.93-.83 0-1.51.31-2.05.93-.53.6-.8 1.52-.8 2.76zm9.25 4.84V85.77h1.64v13.35h-1.64zm3.54-2.89l1.62-.25c.09.65.34 1.15.75 1.5.42.35 1 .52 1.75.52s1.31-.15 1.68-.45c.36-.32.54-.68.54-1.1 0-.36-.16-.65-.48-.87-.22-.15-.78-.33-1.67-.55-1.21-.31-2.05-.58-2.52-.8a2.39 2.39 0 01-1.05-.9c-.24-.4-.36-.84-.36-1.31 0-.43.1-.83.3-1.19.2-.38.47-.68.81-.92.25-.19.6-.35 1.03-.47.45-.14.93-.21 1.43-.21.76 0 1.42.11 2 .33.57.22.99.52 1.26.89.28.38.48.88.58 1.5l-1.61.22c-.07-.5-.29-.89-.64-1.17-.34-.28-.83-.42-1.47-.42-.76 0-1.3.12-1.62.37-.32.25-.47.54-.47.88 0 .21.06.4.19.58.13.17.34.32.64.43.15.07.63.21 1.43.43 1.17.3 1.98.55 2.44.75.46.19.82.48 1.08.85.26.38.39.85.39 1.41 0 .55-.16 1.07-.48 1.55-.32.48-.78.85-1.38 1.12-.6.26-1.29.39-2.05.39-1.25 0-2.21-.26-2.87-.78-.66-.52-1.07-1.29-1.25-2.33zm16.67 2.89h-1.52V85.77h1.64v4.76c.7-.86 1.58-1.3 2.66-1.3.59 0 1.15.12 1.68.36.54.24.97.58 1.32 1.02.34.43.61.95.79 1.56.2.62.3 1.27.3 1.97 0 1.66-.41 2.94-1.23 3.84-.82.91-1.8 1.36-2.96 1.36-1.13 0-2.03-.48-2.68-1.43v1.21zm-.02-4.9c0 1.15.16 1.99.48 2.51.52.85 1.21 1.27 2.1 1.27.72 0 1.34-.31 1.86-.94.52-.62.78-1.55.78-2.78 0-1.26-.25-2.19-.75-2.8-.5-.6-1.11-.9-1.83-.9-.71 0-1.33.31-1.86.94-.52.62-.78 1.52-.78 2.7zm15.2 3.72c-.61.51-1.2.87-1.76 1.09-.55.21-1.15.31-1.8.31-1.06 0-1.88-.26-2.45-.78-.57-.52-.86-1.18-.86-1.98 0-.48.11-.91.33-1.3.22-.39.5-.71.84-.94.36-.24.75-.42 1.19-.54.31-.09.8-.17 1.45-.25 1.32-.16 2.3-.35 2.92-.57.01-.23.02-.37.02-.42 0-.66-.16-1.14-.47-1.42-.42-.36-1.04-.55-1.87-.55-.78 0-1.34.14-1.71.41-.36.27-.63.74-.81 1.42l-1.61-.22c.15-.67.39-1.22.72-1.64.33-.42.82-.75 1.45-.98.64-.23 1.37-.35 2.19-.35.83 0 1.5.1 2.02.3.52.19.9.43 1.14.74.25.29.42.66.51 1.1.05.29.08.79.08 1.52v2.19c0 1.52.04 2.48.11 2.89.07.39.21.78.41 1.15h-1.71c-.17-.34-.28-.73-.33-1.18zm-.14-3.67c-.59.25-1.48.45-2.67.62-.68.09-1.15.2-1.44.33-.28.12-.5.3-.65.53-.15.23-.22.49-.22.78 0 .44.17.8.5 1.09.33.3.82.44 1.45.44s1.18-.13 1.67-.4c.5-.29.87-.67 1.1-1.14.17-.38.26-.93.26-1.65v-.6zm10.52 1.31l1.61.22c-.18 1.1-.63 1.97-1.36 2.61-.72.62-1.61.93-2.67.93-1.33 0-2.39-.43-3.19-1.29-.8-.87-1.2-2.11-1.2-3.72 0-1.05.17-1.97.51-2.75.35-.78.87-1.37 1.58-1.75.71-.4 1.48-.6 2.31-.6 1.06 0 1.91.27 2.58.8.67.53 1.1 1.29 1.28 2.27l-1.59.23c-.16-.64-.43-1.13-.81-1.45-.39-.34-.85-.5-1.39-.5-.83 0-1.5.29-2.02.89-.52.59-.78 1.53-.78 2.81 0 1.3.25 2.25.75 2.84.5.59 1.15.88 1.95.88.65 0 1.18-.2 1.61-.59.44-.4.72-1.01.83-1.83zm3.02 3.54V85.77h1.64v7.62l3.89-3.94h2.11l-3.69 3.6 4.06 6.07h-2.01l-3.21-4.95-1.15 1.13v3.82h-1.64zm15.95-3.1l1.69.2c-.27.99-.77 1.76-1.49 2.31-.72.54-1.64.81-2.76.81-1.42 0-2.55-.43-3.38-1.29-.82-.88-1.23-2.1-1.23-3.68 0-1.63.41-2.9 1.25-3.79.84-.9 1.93-1.35 3.26-1.35 1.29 0 2.35.45 3.16 1.33.82.88 1.23 2.11 1.23 3.71v.43h-7.22c.07 1.07.37 1.88.91 2.46.54.56 1.21.84 2.02.84.6 0 1.12-.16 1.54-.47.43-.32.77-.83 1.02-1.51zm-5.39-2.66h5.4c-.07-.81-.28-1.42-.62-1.83-.52-.63-1.2-.95-2.03-.95-.75 0-1.39.25-1.91.76-.51.5-.79 1.18-.84 2.02zm9.14 5.76v-9.67h1.47v1.38c.71-1.06 1.73-1.6 3.08-1.6.58 0 1.12.11 1.61.32.49.2.85.48 1.09.82.25.34.42.74.51 1.21.07.3.1.83.1 1.59v5.95h-1.64v-5.89c0-.66-.07-1.16-.21-1.48-.12-.33-.34-.6-.67-.8-.32-.2-.7-.29-1.14-.29-.7 0-1.3.22-1.81.67-.5.44-.75 1.27-.75 2.51v5.28h-1.64zm16.64 0v-1.21c-.6.95-1.5 1.43-2.7 1.43-.77 0-1.48-.21-2.13-.64-.64-.42-1.14-1.02-1.5-1.78-.35-.76-.53-1.63-.53-2.62 0-.97.16-1.85.49-2.63.32-.79.8-1.39 1.43-1.81.65-.42 1.37-.63 2.17-.63.59 0 1.1.13 1.55.38.46.24.83.56 1.11.95v-4.79h1.64v13.35h-1.53zm-5.17-4.82c0 1.24.26 2.16.78 2.78.52.61 1.14.92 1.84.92.72 0 1.33-.29 1.83-.88.5-.59.75-1.48.75-2.68 0-1.33-.25-2.29-.76-2.91-.51-.62-1.14-.94-1.89-.94-.72 0-1.33.3-1.82.89-.49.6-.73 1.54-.73 2.82zM299.58 124.83v-13.38h1.48v1.25c.35-.49.75-.85 1.19-1.09.45-.25.99-.38 1.62-.38.83 0 1.55.22 2.17.64.64.42 1.12 1.02 1.44 1.8.32.77.49 1.62.49 2.55 0 .99-.18 1.88-.53 2.67-.36.79-.87 1.4-1.55 1.83-.68.42-1.39.62-2.14.62-.54 0-1.03-.11-1.47-.34a3.07 3.07 0 01-1.06-.88v4.71h-1.64zm1.48-8.49c0 1.24.25 2.16.75 2.77.51.59 1.12.89 1.83.89.73 0 1.35-.31 1.87-.92.52-.63.78-1.59.78-2.88 0-1.23-.25-2.15-.76-2.76-.5-.62-1.11-.92-1.81-.92s-1.32.32-1.86.98c-.53.65-.8 1.59-.8 2.84zm15.2 3.6c-.61.51-1.2.87-1.76 1.09-.55.21-1.15.31-1.8.31-1.06 0-1.88-.26-2.45-.78-.57-.52-.86-1.18-.86-1.98 0-.48.11-.91.33-1.3.22-.39.5-.71.84-.94.36-.24.75-.42 1.19-.54.31-.09.8-.17 1.45-.25 1.32-.16 2.3-.35 2.92-.57.01-.23.02-.37.02-.42 0-.66-.16-1.14-.47-1.42-.42-.36-1.04-.55-1.87-.55-.78 0-1.34.14-1.71.41-.36.27-.63.74-.81 1.42l-1.61-.22c.15-.67.39-1.22.72-1.64.33-.42.82-.75 1.45-.98.64-.23 1.37-.35 2.19-.35.83 0 1.5.1 2.02.3.52.19.9.43 1.14.74.25.29.42.66.51 1.1.05.29.08.79.08 1.52v2.19c0 1.52.04 2.48.11 2.89.07.39.21.78.41 1.15h-1.71c-.17-.34-.28-.73-.33-1.18zm-.14-3.67c-.59.25-1.48.45-2.67.62-.68.09-1.15.2-1.44.33-.28.12-.5.3-.65.53-.15.23-.22.49-.22.78 0 .44.17.8.5 1.09.33.3.82.44 1.45.44s1.18-.13 1.67-.4c.5-.29.87-.67 1.1-1.14.17-.38.26-.93.26-1.65v-.6zm4.19 4.85v-9.67h1.47v1.47c.38-.69.72-1.14 1.03-1.36.32-.22.68-.33 1.06-.33.56 0 1.12.18 1.69.54l-.56 1.51c-.41-.24-.81-.36-1.2-.36-.37 0-.69.11-.97.33-.28.22-.49.52-.61.89-.19.58-.28 1.22-.28 1.92v5.06h-1.63zm5.57-2.89l1.63-.25c.08.65.33 1.15.75 1.5.42.35 1 .52 1.75.52s1.31-.15 1.67-.45c.37-.32.55-.68.55-1.1 0-.36-.16-.65-.49-.87-.22-.15-.77-.33-1.67-.55-1.21-.31-2.05-.58-2.51-.8a2.39 2.39 0 01-1.05-.9c-.24-.4-.36-.84-.36-1.31 0-.43.1-.83.3-1.19.19-.38.46-.68.81-.92.25-.19.59-.35 1.03-.47.45-.14.92-.21 1.42-.21.76 0 1.43.11 2 .33.57.22 1 .52 1.27.89.28.38.47.88.58 1.5l-1.61.22c-.08-.5-.29-.89-.64-1.17-.35-.28-.84-.42-1.47-.42-.76 0-1.31.12-1.63.37-.31.25-.47.54-.47.88 0 .21.07.4.19.58.14.17.35.32.64.43.16.07.64.21 1.44.43 1.17.3 1.98.55 2.44.75.45.19.81.48 1.07.85.26.38.39.85.39 1.41 0 .55-.16 1.07-.48 1.55-.31.48-.77.85-1.37 1.12-.61.26-1.29.39-2.05.39-1.25 0-2.21-.26-2.88-.78-.65-.52-1.07-1.29-1.25-2.33zm16.61-.21l1.69.2c-.27.99-.77 1.76-1.48 2.31-.72.54-1.64.81-2.77.81-1.42 0-2.54-.43-3.37-1.29-.83-.88-1.24-2.1-1.24-3.68 0-1.63.42-2.9 1.25-3.79.84-.9 1.93-1.35 3.27-1.35 1.29 0 2.34.45 3.15 1.33.83.88 1.24 2.11 1.24 3.71v.43h-7.22c.06 1.07.36 1.88.9 2.46.55.56 1.22.84 2.02.84.6 0 1.12-.16 1.55-.47.42-.32.76-.83 1.01-1.51zm-5.39-2.66h5.41c-.07-.81-.28-1.42-.63-1.83-.52-.63-1.19-.95-2.03-.95-.75 0-1.38.25-1.9.76-.51.5-.8 1.18-.85 2.02zm8.49 2.87l1.62-.25c.09.65.34 1.15.75 1.5.42.35 1 .52 1.75.52s1.31-.15 1.67-.45c.37-.32.55-.68.55-1.1 0-.36-.16-.65-.48-.87-.22-.15-.78-.33-1.68-.55-1.2-.31-2.04-.58-2.51-.8a2.39 2.39 0 01-1.05-.9c-.24-.4-.36-.84-.36-1.31 0-.43.1-.83.3-1.19.2-.38.47-.68.81-.92.25-.19.6-.35 1.03-.47.45-.14.93-.21 1.43-.21.76 0 1.42.11 2 .33.57.22.99.52 1.26.89.28.38.48.88.58 1.5l-1.61.22c-.07-.5-.29-.89-.64-1.17-.34-.28-.83-.42-1.47-.42-.76 0-1.3.12-1.62.37-.32.25-.47.54-.47.88 0 .21.06.4.18.58.14.17.35.32.64.43.16.07.64.21 1.44.43 1.17.3 1.98.55 2.44.75.46.19.82.48 1.08.85.26.38.39.85.39 1.41 0 .55-.16 1.07-.49 1.55-.31.48-.77.85-1.37 1.12-.6.26-1.29.39-2.05.39-1.25 0-2.21-.26-2.87-.78-.66-.52-1.08-1.29-1.25-2.33zm14.51 0l1.62-.25c.09.65.34 1.15.75 1.5.42.35 1 .52 1.75.52s1.31-.15 1.68-.45c.36-.32.54-.68.54-1.1 0-.36-.16-.65-.48-.87-.22-.15-.78-.33-1.67-.55-1.21-.31-2.05-.58-2.52-.8a2.39 2.39 0 01-1.05-.9c-.24-.4-.36-.84-.36-1.31 0-.43.1-.83.3-1.19.2-.38.47-.68.81-.92.25-.19.6-.35 1.04-.47.44-.14.92-.21 1.42-.21.76 0 1.42.11 2 .33.57.22.99.52 1.26.89.28.38.48.88.58 1.5l-1.61.22c-.07-.5-.29-.89-.64-1.17-.34-.28-.83-.42-1.47-.42-.76 0-1.3.12-1.62.37-.32.25-.47.54-.47.88 0 .21.06.4.19.58.13.17.34.32.64.43.15.07.63.21 1.43.43 1.17.3 1.98.55 2.44.75.46.19.82.48 1.08.85.26.38.39.85.39 1.41 0 .55-.16 1.07-.48 1.55-.32.48-.78.85-1.38 1.12-.6.26-1.29.39-2.05.39-1.25 0-2.2-.26-2.87-.78-.66-.52-1.07-1.29-1.25-2.33zm9.37-1.95c0-1.79.5-3.11 1.49-3.97.83-.72 1.85-1.08 3.05-1.08 1.33 0 2.42.44 3.26 1.32.84.86 1.27 2.06 1.27 3.61 0 1.24-.19 2.21-.57 2.93-.37.71-.92 1.26-1.64 1.66-.71.4-1.48.59-2.32.59-1.36 0-2.45-.43-3.29-1.29-.83-.88-1.25-2.13-1.25-3.77zm1.69 0c0 1.24.27 2.17.8 2.8.54.61 1.22.92 2.05.92.81 0 1.48-.31 2.03-.92.54-.63.81-1.58.81-2.85 0-1.19-.27-2.1-.81-2.71-.55-.62-1.22-.93-2.03-.93-.83 0-1.51.31-2.05.93-.53.6-.8 1.52-.8 2.76zm15.63 4.84v-1.42c-.75 1.1-1.77 1.64-3.07 1.64-.57 0-1.1-.11-1.6-.32-.49-.22-.86-.5-1.1-.83-.24-.34-.4-.74-.5-1.22-.07-.31-.11-.82-.11-1.53v-5.99h1.64v5.36c0 .86.04 1.43.11 1.74.11.42.33.76.66 1.01s.74.38 1.23.38.95-.13 1.38-.38c.44-.26.74-.6.92-1.03.18-.44.27-1.07.27-1.89v-5.19h1.64v9.67h-1.47zm4.03 0v-9.67h1.47v1.47c.37-.69.72-1.14 1.03-1.36.32-.22.68-.33 1.06-.33.55 0 1.12.18 1.69.54l-.56 1.51c-.41-.24-.81-.36-1.21-.36-.36 0-.68.11-.97.33-.28.22-.48.52-.6.89-.19.58-.29 1.22-.29 1.92v5.06h-1.62zm12.54-3.54l1.61.22c-.18 1.1-.63 1.97-1.36 2.61-.72.62-1.61.93-2.67.93-1.32 0-2.39-.43-3.19-1.29-.8-.87-1.2-2.11-1.2-3.72 0-1.05.17-1.97.51-2.75.35-.78.87-1.37 1.58-1.75.71-.4 1.48-.6 2.31-.6 1.06 0 1.92.27 2.58.8.67.53 1.1 1.29 1.28 2.27l-1.59.23c-.16-.64-.43-1.13-.81-1.45-.39-.34-.85-.5-1.39-.5-.83 0-1.5.29-2.02.89-.52.59-.78 1.53-.78 2.81 0 1.3.25 2.25.75 2.84.5.59 1.15.88 1.95.88.65 0 1.18-.2 1.61-.59.44-.4.72-1.01.83-1.83zm9.64.44l1.69.2c-.27.99-.77 1.76-1.49 2.31-.72.54-1.64.81-2.76.81-1.42 0-2.54-.43-3.38-1.29-.82-.88-1.23-2.1-1.23-3.68 0-1.63.42-2.9 1.25-3.79.84-.9 1.93-1.35 3.26-1.35 1.3 0 2.35.45 3.16 1.33.82.88 1.23 2.11 1.23 3.71v.43h-7.21c.06 1.07.36 1.88.9 2.46.54.56 1.22.84 2.02.84.6 0 1.12-.16 1.54-.47.43-.32.77-.83 1.02-1.51zm-5.39-2.66h5.41c-.08-.81-.29-1.42-.63-1.83-.52-.63-1.2-.95-2.03-.95-.75 0-1.39.25-1.91.76-.51.5-.79 1.18-.84 2.02zm8.48 2.87l1.63-.25c.08.65.33 1.15.75 1.5.42.35 1 .52 1.75.52s1.31-.15 1.67-.45c.37-.32.55-.68.55-1.1 0-.36-.16-.65-.49-.87-.21-.15-.77-.33-1.67-.55-1.21-.31-2.04-.58-2.51-.8a2.39 2.39 0 01-1.05-.9c-.24-.4-.36-.84-.36-1.31 0-.43.1-.83.3-1.19.2-.38.47-.68.81-.92.25-.19.59-.35 1.03-.47.45-.14.92-.21 1.42-.21.76 0 1.43.11 2 .33.58.22 1 .52 1.27.89.28.38.47.88.58 1.5l-1.61.22c-.08-.5-.29-.89-.64-1.17-.35-.28-.84-.42-1.47-.42-.76 0-1.3.12-1.63.37-.31.25-.47.54-.47.88 0 .21.07.4.19.58.14.17.35.32.64.43.16.07.64.21 1.44.43 1.17.3 1.98.55 2.44.75.46.19.82.48 1.08.85.26.38.39.85.39 1.41 0 .55-.17 1.07-.49 1.55-.31.48-.77.85-1.37 1.12-.61.26-1.29.39-2.05.39-1.25 0-2.21-.26-2.88-.78-.65-.52-1.07-1.29-1.25-2.33z"/><path id="Layer" class="shp0" d="M80.41 78.35h88.1v48.12h-88.1V78.35z"/><path id="Layer" fill-rule="evenodd" class="shp3" d="M90.26 100.97l1.65-.14c.09.67.27 1.21.55 1.64.29.43.74.78 1.34 1.05.62.26 1.3.39 2.07.39.66 0 1.26-.1 1.78-.3.52-.2.9-.47 1.15-.81.25-.36.38-.74.38-1.16 0-.42-.13-.78-.38-1.09-.24-.31-.63-.58-1.18-.8-.37-.13-1.17-.35-2.4-.64-1.21-.3-2.07-.58-2.56-.84-.64-.34-1.12-.75-1.44-1.24a3.11 3.11 0 01-.46-1.67c0-.67.19-1.29.57-1.87.39-.6.95-1.05 1.68-1.35.74-.3 1.55-.45 2.45-.45.99 0 1.86.16 2.61.48.76.32 1.34.78 1.75 1.41.4.61.62 1.31.65 2.09l-1.68.13c-.1-.85-.41-1.48-.94-1.91-.52-.44-1.29-.65-2.31-.65-1.08 0-1.86.19-2.35.59-.49.39-.73.87-.73 1.42 0 .48.18.87.53 1.17.33.32 1.22.64 2.66.97 1.43.32 2.42.61 2.95.85.78.35 1.35.8 1.72 1.35.37.56.56 1.19.56 1.91 0 .71-.2 1.38-.61 2.02-.4.62-.99 1.11-1.75 1.47-.76.34-1.62.51-2.58.51-1.21 0-2.22-.18-3.04-.53-.82-.35-1.46-.89-1.93-1.59a4.6 4.6 0 01-.71-2.41zm12.22-.55c0-1.79.5-3.11 1.49-3.97.83-.71 1.84-1.07 3.04-1.07 1.34 0 2.42.43 3.27 1.31.84.86 1.26 2.07 1.26 3.61 0 1.24-.18 2.22-.56 2.94-.37.7-.92 1.26-1.64 1.65-.71.4-1.48.6-2.33.6-1.35 0-2.45-.44-3.28-1.3-.83-.88-1.25-2.13-1.25-3.77zm1.69 0c0 1.24.26 2.17.8 2.8.54.61 1.22.92 2.04.92.81 0 1.49-.31 2.03-.92.54-.63.82-1.57.82-2.84 0-1.2-.28-2.11-.82-2.72-.54-.62-1.22-.92-2.03-.92-.82 0-1.5.3-2.04.92-.54.6-.8 1.52-.8 2.76zm15.62 4.85v-1.43c-.75 1.1-1.77 1.65-3.06 1.65-.57 0-1.11-.11-1.61-.33-.49-.22-.85-.5-1.09-.83-.24-.33-.41-.74-.5-1.22-.07-.31-.11-.82-.11-1.53v-5.99h1.64v5.36c0 .86.04 1.44.11 1.74.1.43.32.76.66 1.01.33.25.74.38 1.23.38s.95-.13 1.37-.38c.44-.26.75-.6.93-1.03.17-.43.26-1.07.26-1.89v-5.19h1.64v9.68h-1.47zm4.04 0v-9.68h1.46v1.47c.38-.68.72-1.14 1.04-1.36.32-.21.67-.32 1.06-.32.55 0 1.11.17 1.69.53l-.57 1.51c-.4-.24-.8-.36-1.2-.36-.36 0-.69.11-.97.33-.28.22-.48.52-.61.89-.19.59-.28 1.23-.28 1.92v5.07h-1.62zm12.54-3.55l1.61.22c-.18 1.1-.63 1.97-1.36 2.61-.72.62-1.61.94-2.68.94-1.32 0-2.38-.44-3.18-1.3-.8-.87-1.21-2.11-1.21-3.72 0-1.05.18-1.97.52-2.75s.87-1.37 1.58-1.75c.71-.4 1.48-.59 2.31-.59 1.05 0 1.91.26 2.58.79.67.53 1.09 1.29 1.28 2.27l-1.59.23c-.16-.64-.43-1.13-.82-1.45-.38-.33-.85-.5-1.39-.5-.82 0-1.49.3-2.01.89-.52.59-.78 1.53-.78 2.81 0 1.3.25 2.25.75 2.85.5.58 1.15.87 1.95.87.64 0 1.18-.2 1.61-.59.44-.4.71-1.01.83-1.83zm9.64.44l1.68.2c-.27.99-.76 1.76-1.48 2.31-.72.54-1.64.82-2.77.82-1.41 0-2.54-.44-3.37-1.3-.82-.88-1.23-2.1-1.23-3.67 0-1.64.41-2.9 1.25-3.8.84-.9 1.93-1.34 3.26-1.34 1.29 0 2.34.44 3.16 1.32.82.88 1.23 2.11 1.23 3.71v.43h-7.22c.07 1.07.37 1.88.91 2.46.54.56 1.21.84 2.01.84.61 0 1.12-.15 1.55-.47.43-.32.77-.83 1.02-1.51zm-5.39-2.66h5.4c-.07-.81-.28-1.42-.62-1.83-.52-.63-1.2-.95-2.03-.95-.75 0-1.39.25-1.91.77-.51.5-.79 1.17-.84 2.01zm8.48 2.88l1.63-.25c.08.64.33 1.14.75 1.5.41.34 1 .51 1.75.51s1.3-.15 1.67-.45c.36-.31.55-.68.55-1.1 0-.36-.17-.65-.49-.87-.22-.15-.77-.33-1.67-.55-1.21-.31-2.05-.58-2.52-.79-.45-.22-.8-.53-1.04-.91-.24-.4-.36-.83-.36-1.31 0-.43.1-.83.29-1.19.2-.38.47-.68.82-.92.25-.19.59-.35 1.03-.47.45-.14.92-.2 1.42-.2.76 0 1.43.11 2 .32.57.22.99.52 1.27.89.28.38.47.88.57 1.5l-1.61.22c-.07-.5-.28-.89-.64-1.17-.34-.28-.83-.42-1.47-.42-.76 0-1.3.12-1.62.37-.31.25-.47.55-.47.88 0 .21.06.4.19.58.13.17.35.32.64.44.16.06.63.2 1.44.42 1.16.3 1.98.55 2.43.75.46.19.82.48 1.08.86.26.37.39.84.39 1.4 0 .55-.16 1.07-.48 1.55-.31.48-.77.85-1.38 1.12-.6.26-1.28.4-2.04.4-1.25 0-2.21-.27-2.88-.79-.65-.52-1.07-1.29-1.25-2.32z"/><path id="Layer" class="shp0" d="M46.1 447.57h589.93v68.82H46.1v-68.82z"/><path id="Layer" fill-rule="evenodd" class="shp1" d="M503.9 201.78c0-6.34 5.14-11.47 11.47-11.47h137.85a11.475 11.475 0 0111.47 11.47v45.88c0 6.33-5.14 11.47-11.47 11.47H515.37c-6.33 0-11.47-5.14-11.47-11.47v-45.88z"/><path id="Layer" class="shp2" d="M503.9 201.78c0-6.34 5.14-11.47 11.47-11.47h137.85a11.475 11.475 0 0111.47 11.47v45.88c0 6.33-5.14 11.47-11.47 11.47H515.37c-6.33 0-11.47-5.14-11.47-11.47v-45.88z"/><path id="Layer" fill-rule="evenodd" class="shp3" d="M518.62 218.03h-1.31v-11.46h1.4v4.08c.6-.74 1.36-1.11 2.28-1.11.51 0 .99.11 1.44.31.46.2.83.49 1.13.86.3.38.53.83.7 1.36.17.52.25 1.08.25 1.68 0 1.42-.35 2.53-1.06 3.31-.7.77-1.54 1.15-2.53 1.15-.98 0-1.75-.41-2.3-1.23v1.05zm-.02-4.22c0 1 .14 1.72.41 2.15.44.73 1.04 1.1 1.8 1.1.61 0 1.14-.27 1.59-.8.45-.54.67-1.34.67-2.39 0-1.08-.22-1.88-.65-2.39-.43-.52-.95-.78-1.55-.78-.62 0-1.15.26-1.59.8-.45.53-.68 1.3-.68 2.31zm7.09.06c0-1.53.43-2.67 1.28-3.41.72-.61 1.59-.92 2.61-.92 1.15 0 2.08.38 2.8 1.13.73.74 1.09 1.77 1.09 3.09 0 1.06-.16 1.9-.48 2.52-.33.61-.8 1.09-1.41 1.43-.6.34-1.27.5-2 .5-1.16 0-2.09-.37-2.81-1.11-.72-.75-1.08-1.82-1.08-3.23zm1.45 0c0 1.06.23 1.86.69 2.39.47.53 1.05.8 1.75.8s1.28-.27 1.73-.8c.47-.53.71-1.34.71-2.44 0-1.02-.24-1.79-.71-2.32-.45-.54-1.03-.8-1.73-.8s-1.28.26-1.75.8c-.46.52-.69 1.31-.69 2.37zm13.35 4.16v-1.05c-.52.82-1.29 1.23-2.31 1.23-.67 0-1.27-.18-1.83-.54-.55-.37-.98-.88-1.29-1.53-.31-.66-.46-1.41-.46-2.25 0-.84.14-1.59.41-2.25.28-.68.7-1.2 1.25-1.55.55-.37 1.17-.55 1.86-.55.5 0 .94.11 1.33.31.39.21.71.49.95.83v-4.11h1.41v11.46h-1.32zm-4.43-4.14c0 1.06.22 1.86.67 2.39.45.52.97.78 1.58.78.61 0 1.13-.25 1.56-.75.44-.51.66-1.28.66-2.31 0-1.14-.22-1.97-.66-2.5-.44-.54-.98-.8-1.63-.8-.62 0-1.14.25-1.56.76-.42.51-.62 1.32-.62 2.43zm7.9 7.34l-.16-1.33c.3.08.57.13.8.13.31 0 .56-.06.75-.16.18-.1.34-.25.46-.44.09-.13.23-.48.43-1.04.03-.08.07-.19.12-.35l-3.14-8.31h1.52l1.72 4.8c.22.61.43 1.25.6 1.92.16-.65.35-1.28.58-1.89l1.77-4.83h1.4l-3.15 8.44c-.34.91-.6 1.54-.78 1.89-.25.46-.54.79-.86 1.01-.33.22-.71.33-1.16.33-.27 0-.57-.06-.9-.17zM520.01 240.4c-.78-.98-1.44-2.12-1.98-3.44-.54-1.32-.8-2.68-.8-4.09 0-1.24.2-2.43.61-3.56.47-1.31 1.19-2.63 2.17-3.94h1c-.63 1.08-1.04 1.86-1.25 2.33-.31.72-.56 1.47-.75 2.25-.22.97-.33 1.95-.33 2.94 0 2.5.78 5 2.33 7.51h-1zm2.61-3.37v-11.46h1.41v11.46h-1.41zm3.59-9.85v-1.61h1.4v1.61h-1.4zm0 9.85v-8.3h1.4v8.3h-1.4zm3.55 0v-8.3h1.27v1.17c.6-.9 1.48-1.36 2.64-1.36.5 0 .95.09 1.37.27.42.17.73.41.94.7.21.29.35.64.44 1.05.05.26.07.71.07 1.36v5.11h-1.4v-5.05c0-.57-.06-1-.17-1.28-.11-.29-.3-.52-.58-.69-.27-.17-.6-.25-.97-.25-.61 0-1.13.19-1.56.58-.43.37-.64 1.09-.64 2.16v4.53h-1.41zm14.57-2.68l1.45.18c-.23.85-.65 1.51-1.28 1.98-.61.47-1.4.7-2.36.7-1.22 0-2.18-.37-2.89-1.12-.71-.75-1.06-1.8-1.06-3.14 0-1.4.36-2.48 1.08-3.25.72-.77 1.65-1.16 2.79-1.16 1.11 0 2.01.38 2.71 1.14.71.75 1.06 1.81 1.06 3.17v.38h-6.19c.05.92.31 1.62.77 2.11.47.48 1.05.72 1.73.72.52 0 .97-.14 1.33-.41.37-.27.65-.7.86-1.3zm-4.61-2.28h4.63c-.07-.69-.24-1.22-.54-1.56-.44-.54-1.02-.81-1.73-.81-.65 0-1.19.22-1.64.65-.44.43-.68 1-.72 1.72zm11.89-.7c0-1.35.14-2.44.41-3.27.28-.82.7-1.45 1.25-1.9.55-.45 1.24-.67 2.08-.67.61 0 1.15.12 1.61.37.46.24.85.6 1.15 1.06.3.47.54 1.04.7 1.71.18.66.27 1.56.27 2.7 0 1.34-.14 2.43-.42 3.27-.27.82-.68 1.46-1.24 1.92-.55.45-1.24.67-2.07.67-1.11 0-1.98-.4-2.61-1.2-.75-.95-1.13-2.5-1.13-4.66zm1.44 0c0 1.89.22 3.14.66 3.77.44.61.99.92 1.64.92.64 0 1.18-.31 1.62-.94.44-.62.66-1.87.66-3.75 0-1.89-.22-3.14-.66-3.75-.44-.62-.98-.94-1.64-.94-.65 0-1.16.28-1.55.83-.49.7-.73 1.99-.73 3.86zm7.3 2.22v-1.42h4.32v1.42h-4.32zm5.49-2.22c0-1.35.13-2.44.4-3.27.29-.82.7-1.45 1.25-1.9.56-.45 1.25-.67 2.08-.67.62 0 1.15.12 1.61.37.47.24.86.6 1.16 1.06.3.47.53 1.04.7 1.71.18.66.27 1.56.27 2.7 0 1.34-.14 2.43-.43 3.27-.27.82-.68 1.46-1.23 1.92-.55.45-1.24.67-2.08.67-1.1 0-1.97-.4-2.61-1.2-.75-.95-1.12-2.5-1.12-4.66zm1.44 0c0 1.89.21 3.14.65 3.77.45.61 1 .92 1.64.92.65 0 1.19-.31 1.63-.94.43-.62.65-1.87.65-3.75 0-1.89-.22-3.14-.65-3.75-.44-.62-.99-.94-1.64-.94-.65 0-1.16.28-1.55.83-.49.7-.73 1.99-.73 3.86zm8.21 5.66v-1.61h1.61v1.61c0 .59-.11 1.06-.32 1.42-.21.36-.54.64-1 .84l-.39-.59c.3-.14.52-.33.66-.58.14-.25.22-.61.23-1.09h-.79zm13.93-3.05l1.39.19c-.15.95-.54 1.69-1.17 2.23-.61.54-1.37.81-2.28.81-1.13 0-2.05-.37-2.75-1.11-.69-.75-1.03-1.81-1.03-3.2 0-.89.15-1.68.44-2.34.3-.68.75-1.18 1.36-1.52a4.1 4.1 0 011.98-.5c.91 0 1.65.23 2.22.69.57.45.94 1.09 1.09 1.94l-1.36.2c-.13-.55-.37-.97-.7-1.25-.32-.28-.72-.42-1.19-.42-.7 0-1.28.25-1.73.76-.44.5-.66 1.31-.66 2.41 0 1.11.22 1.93.64 2.44.43.5.99.75 1.68.75.55 0 1.01-.17 1.37-.5.38-.35.61-.87.7-1.58zm2.07-1.11c0-1.53.42-2.67 1.28-3.41.72-.61 1.59-.92 2.61-.92 1.14 0 2.08.38 2.79 1.13.73.74 1.1 1.77 1.1 3.09 0 1.06-.16 1.9-.49 2.52-.32.61-.79 1.09-1.4 1.43-.61.34-1.27.5-2 .5-1.16 0-2.1-.37-2.82-1.11-.71-.75-1.07-1.82-1.07-3.23zm1.45 0c0 1.06.23 1.86.69 2.39.47.53 1.05.8 1.75.8.69 0 1.27-.27 1.73-.8.47-.53.7-1.34.7-2.44 0-1.02-.23-1.79-.7-2.32-.46-.54-1.04-.8-1.73-.8-.7 0-1.28.26-1.75.8-.46.52-.69 1.31-.69 2.37zm7.94 4.16v-11.46h1.41v11.46h-1.41zm7.65-5.66c0-1.35.13-2.44.4-3.27.28-.82.7-1.45 1.25-1.9.55-.45 1.25-.67 2.08-.67.61 0 1.15.12 1.61.37.47.24.85.6 1.16 1.06.3.47.53 1.04.7 1.71.18.66.26 1.56.26 2.7 0 1.34-.14 2.43-.42 3.27-.27.82-.68 1.46-1.23 1.92-.55.45-1.25.67-2.08.67-1.1 0-1.97-.4-2.61-1.2-.75-.95-1.12-2.5-1.12-4.66zm1.43 0c0 1.89.22 3.14.66 3.77.45.61.99.92 1.64.92.65 0 1.19-.31 1.62-.94.44-.62.66-1.87.66-3.75 0-1.89-.22-3.14-.66-3.75-.43-.62-.98-.94-1.64-.94-.64 0-1.16.28-1.54.83-.49.7-.74 1.99-.74 3.86zm7.31 2.22v-1.42h4.31v1.42h-4.31zm9.98 3.44v-2.75h-4.97V233l5.24-7.43h1.14V233h1.55v1.28h-1.55v2.75h-1.41zm0-4.03v-5.18l-3.58 5.18h3.58zm5.71 7.4h-1.01c1.56-2.51 2.34-5.01 2.34-7.51 0-.98-.11-1.96-.34-2.93-.18-.78-.42-1.53-.74-2.25-.21-.46-.63-1.25-1.26-2.34h1.01c.98 1.31 1.71 2.63 2.17 3.94.4 1.13.6 2.32.6 3.56 0 1.41-.27 2.77-.81 4.09-.54 1.32-1.19 2.46-1.96 3.44z"/><path id="Layer" fill-rule="evenodd" class="shp1" d="M503.9 331.83c0-5.94 4.82-10.75 10.76-10.75h139.27c2.85 0 5.59 1.13 7.61 3.15 2.01 2.02 3.15 4.75 3.15 7.6v43.03c0 5.94-4.82 10.75-10.76 10.75H514.66c-5.94 0-10.76-4.81-10.76-10.75v-43.03z"/><path id="Layer" class="shp2" d="M503.9 331.83c0-5.94 4.82-10.75 10.76-10.75h139.27c2.85 0 5.59 1.13 7.61 3.15 2.01 2.02 3.15 4.75 3.15 7.6v43.03c0 5.94-4.82 10.75-10.76 10.75H514.66c-5.94 0-10.76-4.81-10.76-10.75v-43.03z"/><path id="Layer" fill-rule="evenodd" class="shp3" d="M522.52 345.54l1.39.19c-.16.95-.55 1.69-1.17 2.23-.62.55-1.38.82-2.28.82-1.14 0-2.06-.37-2.75-1.11-.69-.75-1.03-1.82-1.03-3.21 0-.89.14-1.67.43-2.34.31-.68.76-1.18 1.36-1.52.62-.33 1.28-.5 1.99-.5.9 0 1.64.23 2.22.69.57.45.93 1.1 1.09 1.94l-1.36.2c-.14-.55-.37-.97-.7-1.25-.33-.28-.72-.42-1.19-.42-.71 0-1.29.26-1.74.77-.43.5-.65 1.3-.65 2.4 0 1.12.21 1.93.64 2.44.43.5.98.75 1.67.75.55 0 1.01-.17 1.38-.5.37-.34.61-.87.7-1.58zm2.06-1.11c0-1.53.43-2.66 1.28-3.4.72-.62 1.59-.93 2.61-.93 1.15 0 2.08.38 2.8 1.13.73.74 1.09 1.77 1.09 3.09 0 1.07-.16 1.9-.48 2.52a3.49 3.49 0 01-1.41 1.44c-.6.33-1.27.5-2 .5-1.15 0-2.09-.37-2.81-1.11-.72-.75-1.08-1.83-1.08-3.24zm1.45 0c0 1.07.23 1.86.69 2.39.47.53 1.05.8 1.75.8s1.28-.27 1.74-.8c.47-.53.7-1.34.7-2.43 0-1.02-.23-1.8-.7-2.33-.46-.53-1.04-.8-1.74-.8s-1.28.27-1.75.8c-.46.52-.69 1.31-.69 2.37zm7.95 4.16v-11.45h1.41v11.45h-1.41zm3.05-4.16c0-1.53.43-2.66 1.29-3.4.71-.62 1.58-.93 2.61-.93 1.14 0 2.07.38 2.79 1.13.73.74 1.1 1.77 1.1 3.09 0 1.07-.17 1.9-.49 2.52-.32.61-.79 1.09-1.4 1.44-.61.33-1.28.5-2 .5-1.16 0-2.1-.37-2.82-1.11-.72-.75-1.08-1.83-1.08-3.24zm1.46 0c0 1.07.23 1.86.69 2.39.46.53 1.05.8 1.75.8.69 0 1.27-.27 1.73-.8.47-.53.7-1.34.7-2.43 0-1.02-.23-1.8-.7-2.33-.46-.53-1.04-.8-1.73-.8-.7 0-1.29.27-1.75.8-.46.52-.69 1.31-.69 2.37zm7.96 4.16v-8.3h1.26v1.25c.33-.58.62-.97.9-1.15.27-.19.57-.29.9-.29.47 0 .95.16 1.44.46l-.49 1.29a2.09 2.09 0 00-1.03-.29c-.3 0-.57.09-.82.28-.24.18-.42.43-.52.76-.16.5-.23 1.05-.23 1.65v4.34h-1.41zm5.73-6.7v-1.6h1.6v1.6h-1.6zm0 6.7v-1.61h1.6v1.61h-1.6zm9.8 0h-1.31v-11.45h1.4v4.07c.6-.74 1.36-1.11 2.29-1.11.51 0 .98.11 1.43.32.46.2.84.48 1.13.86.3.37.53.82.7 1.36.17.52.25 1.07.25 1.67 0 1.42-.35 2.53-1.06 3.31-.7.77-1.54 1.16-2.53 1.16-.98 0-1.75-.41-2.3-1.24v1.05zm-.02-4.22c0 1 .14 1.72.41 2.16.44.73 1.04 1.09 1.8 1.09.61 0 1.14-.27 1.59-.8.45-.54.67-1.34.67-2.39 0-1.08-.22-1.88-.65-2.39-.43-.52-.95-.78-1.55-.78-.61 0-1.15.27-1.59.8-.45.53-.68 1.3-.68 2.31zm7.59 4.22v-11.45h1.41v11.45h-1.41zm8.99-1.03c-.52.45-1.02.76-1.5.95-.48.18-.99.27-1.54.27-.92 0-1.62-.23-2.11-.68-.49-.44-.74-1.01-.74-1.7a2.344 2.344 0 011-1.92c.3-.21.64-.36 1.02-.47.28-.07.7-.14 1.25-.2 1.13-.14 1.97-.3 2.51-.49v-.37c0-.57-.13-.98-.39-1.2-.36-.33-.9-.49-1.61-.49-.65 0-1.14.12-1.47.36-.31.23-.54.64-.68 1.22l-1.38-.19c.13-.58.33-1.06.61-1.42.29-.36.71-.64 1.25-.83.54-.2 1.17-.3 1.88-.3.7 0 1.28.09 1.72.25.44.17.77.38.98.63.21.25.35.57.44.95.05.24.08.67.08 1.3v1.87c0 1.32.02 2.15.07 2.49.07.34.19.68.36 1h-1.47a3.11 3.11 0 01-.28-1.03zm-.11-3.14c-.51.21-1.27.38-2.29.53-.59.08-1 .18-1.24.28-.24.1-.42.26-.56.47-.13.2-.19.42-.19.65 0 .38.14.69.42.94.3.25.71.38 1.25.38.55 0 1.02-.12 1.44-.35.43-.24.74-.56.94-.98.16-.31.23-.78.23-1.41v-.51zm9.01 1.12l1.39.19c-.15.95-.55 1.69-1.17 2.23-.61.55-1.38.82-2.28.82-1.14 0-2.05-.37-2.75-1.11-.69-.75-1.03-1.82-1.03-3.21 0-.89.14-1.67.43-2.34.31-.68.76-1.18 1.36-1.52.62-.33 1.28-.5 1.99-.5.9 0 1.64.23 2.22.69.57.45.93 1.1 1.09 1.94l-1.36.2c-.13-.55-.37-.97-.7-1.25-.32-.28-.72-.42-1.19-.42-.71 0-1.29.26-1.73.77-.44.5-.66 1.3-.66 2.4 0 1.12.21 1.93.64 2.44.43.5.99.75 1.67.75.56 0 1.01-.17 1.38-.5.37-.34.61-.87.7-1.58zm2.59 3.05v-11.45h1.41v6.53l3.33-3.38h1.83l-3.17 3.08 3.48 5.22h-1.73l-2.74-4.25-1 .95v3.3h-1.41zm8.36-6.7v-1.6H600v1.6h-1.61zm0 6.7v-1.61H600v1.61c0 .59-.1 1.07-.31 1.42-.21.37-.54.65-1 .84l-.39-.59c.3-.13.52-.33.66-.58.14-.25.22-.61.23-1.09h-.8zM519.8 370.96c-.78-.98-1.44-2.12-1.98-3.43-.54-1.33-.8-2.69-.8-4.1 0-1.24.2-2.42.61-3.56.47-1.31 1.19-2.62 2.17-3.94h1c-.62 1.09-1.04 1.86-1.25 2.33-.31.72-.56 1.47-.75 2.25-.22.97-.33 1.95-.33 2.94 0 2.5.78 5 2.33 7.51h-1zm2.61-3.37v-11.45h1.41v11.45h-1.41zm3.59-9.84v-1.61h1.4v1.61H526zm0 9.84v-8.3h1.4v8.3H526zm3.55 0v-8.3h1.27v1.17c.6-.9 1.48-1.36 2.64-1.36.5 0 .96.09 1.37.27.42.18.73.41.94.7.21.3.35.64.44 1.05.05.26.07.71.07 1.36v5.11h-1.4v-5.05c0-.57-.06-1-.17-1.28-.11-.29-.3-.52-.58-.69-.27-.16-.6-.25-.97-.25-.6 0-1.13.2-1.56.58-.43.38-.64 1.1-.64 2.16v4.53h-1.41zm14.57-2.67l1.45.17c-.23.85-.65 1.51-1.28 1.98-.61.47-1.4.71-2.36.71-1.22 0-2.18-.38-2.89-1.13-.71-.75-1.06-1.8-1.06-3.14 0-1.39.36-2.48 1.08-3.25.72-.77 1.65-1.16 2.8-1.16 1.1 0 2 .38 2.7 1.15.71.75 1.06 1.8 1.06 3.17v.37h-6.19c.06.92.31 1.62.77 2.11.47.48 1.05.72 1.73.72.52 0 .97-.14 1.33-.41.37-.27.65-.7.86-1.29zm-4.61-2.28h4.63c-.07-.7-.24-1.22-.53-1.57-.45-.54-1.03-.81-1.74-.81-.64 0-1.19.22-1.64.66-.44.42-.68 1-.72 1.72zm11.89-.71c0-1.35.14-2.44.41-3.26.28-.83.7-1.46 1.25-1.91.55-.45 1.24-.67 2.08-.67.61 0 1.15.12 1.61.37.46.24.85.6 1.15 1.07.3.47.54 1.03.71 1.7.17.67.26 1.57.26 2.7 0 1.35-.14 2.44-.42 3.27-.27.82-.68 1.46-1.24 1.92-.55.45-1.24.67-2.07.67-1.11 0-1.98-.4-2.61-1.2-.75-.95-1.13-2.5-1.13-4.66zm1.44 0c0 1.89.22 3.14.66 3.77.44.61.99.92 1.64.92.64 0 1.18-.31 1.62-.94.44-.62.66-1.87.66-3.75s-.22-3.13-.66-3.75c-.44-.62-.98-.93-1.64-.93-.64 0-1.16.27-1.55.82-.49.7-.73 1.99-.73 3.86zm7.3 2.22v-1.42h4.32v1.42h-4.32zm12.88 2.08v1.36h-7.58c-.01-.34.05-.67.17-.99.19-.51.5-1.01.92-1.51.43-.5 1.05-1.08 1.85-1.74 1.24-1.02 2.08-1.82 2.51-2.42.44-.6.66-1.17.66-1.7 0-.55-.2-1.02-.59-1.41-.4-.38-.92-.57-1.57-.57-.67 0-1.21.2-1.62.6-.41.41-.61.97-.61 1.69l-1.45-.14c.1-1.08.48-1.9 1.12-2.47.65-.56 1.51-.84 2.6-.84 1.1 0 1.97.31 2.6.92.65.61.97 1.36.97 2.25 0 .46-.09.91-.28 1.36-.19.44-.5.9-.94 1.39-.43.49-1.16 1.16-2.17 2.02-.84.7-1.38 1.19-1.62 1.45-.24.25-.44.5-.6.75h5.63zm2.26 1.36v-1.61h1.61v1.61c0 .59-.11 1.07-.32 1.42-.2.37-.54.65-1 .84l-.39-.59c.31-.13.52-.33.66-.58.15-.25.22-.61.23-1.09h-.79zm13.93-3.05l1.4.19c-.16.95-.55 1.69-1.18 2.23-.61.55-1.37.82-2.28.82-1.13 0-2.05-.37-2.75-1.11-.69-.75-1.03-1.82-1.03-3.21 0-.89.15-1.67.44-2.34.3-.68.75-1.18 1.36-1.52a4.1 4.1 0 011.98-.5c.91 0 1.65.23 2.22.69.57.45.94 1.1 1.09 1.94l-1.35.2c-.14-.55-.37-.97-.71-1.25-.32-.28-.72-.42-1.19-.42-.7 0-1.28.26-1.73.77-.44.5-.66 1.3-.66 2.4 0 1.12.22 1.93.64 2.44.43.5.99.75 1.68.75.55 0 1.01-.17 1.37-.5.38-.34.61-.87.7-1.58zm2.07-1.11c0-1.53.42-2.66 1.28-3.4.72-.62 1.59-.93 2.61-.93 1.14 0 2.08.38 2.79 1.13.73.74 1.1 1.77 1.1 3.09 0 1.07-.16 1.9-.49 2.52-.32.61-.79 1.09-1.4 1.44-.61.33-1.27.5-2 .5-1.16 0-2.1-.37-2.81-1.11-.72-.75-1.08-1.83-1.08-3.24zm1.45 0c0 1.07.23 1.86.69 2.39.47.53 1.05.8 1.75.8s1.27-.27 1.73-.8c.47-.53.71-1.34.71-2.43 0-1.02-.24-1.8-.71-2.33-.46-.53-1.03-.8-1.73-.8s-1.28.27-1.75.8c-.46.52-.69 1.31-.69 2.37zm7.95 4.16v-11.45h1.4v11.45h-1.4zm12.14 0v-2.75h-4.97v-1.28l5.23-7.42h1.14v7.42h1.55v1.28h-1.55v2.75h-1.4zm0-4.03v-5.17l-3.58 5.17h3.58zm4.24.59v-1.42h4.31v1.42h-4.31zm10.78 3.44h-1.41v-8.97c-.34.32-.79.65-1.34.97-.54.32-1.03.57-1.47.73v-1.36a8.75 8.75 0 002.05-1.34c.59-.53 1.01-1.04 1.26-1.53h.91v11.5zm4.91 3.37h-1.01c1.56-2.51 2.34-5.01 2.34-7.51 0-.98-.11-1.95-.34-2.92-.18-.78-.42-1.53-.74-2.25-.2-.47-.63-1.25-1.26-2.35h1.01c.98 1.32 1.71 2.63 2.18 3.94a10.896 10.896 0 01-.22 7.66c-.53 1.31-1.19 2.45-1.96 3.43z"/><path id="Layer" class="shp0" d="M434.2 226.01l69.7-1.29"/><path id="Layer" class="shp2" d="M434.2 226.01l63.7-1.18"/><path id="Layer" fill-rule="evenodd" class="shp5" d="M497.93 226.48l4.51-1.74-4.57-1.56.06 3.3z"/><path id="Layer" class="shp0" d="M432.31 353.43l67.4-.16"/><path id="Layer" class="shp2" d="M432.31 353.43l61.4-.15"/><path id="Layer" fill-rule="evenodd" class="shp5" d="M493.72 354.93l4.53-1.66-4.54-1.64.01 3.3z"/><path id="Layer" fill-rule="evenodd" class="shp1" d="M752.79 141.34h132.12v274.48H752.79V141.34z"/><path id="Layer" class="shp2" d="M752.79 141.34h132.12v274.48H752.79V141.34z"/><path id="Layer" fill-rule="evenodd" class="shp3" d="M781.92 274.5v-13.36h4.61c1.03 0 1.82.07 2.38.2.76.17 1.41.49 1.95.95.71.6 1.23 1.36 1.58 2.29.35.92.53 1.98.53 3.17 0 1.01-.12 1.91-.36 2.7-.24.78-.55 1.43-.92 1.94s-.77.91-1.2 1.22c-.44.29-.97.51-1.6.67-.62.14-1.34.22-2.14.22h-4.83zm1.77-1.58h2.86c.87 0 1.56-.08 2.06-.24.5-.16.9-.4 1.2-.7.42-.41.74-.98.97-1.69.24-.7.36-1.56.36-2.57 0-1.4-.23-2.47-.69-3.22-.45-.75-1.01-1.25-1.67-1.5-.47-.19-1.23-.28-2.28-.28h-2.81v10.2zm18.13-1.53l1.68.2c-.27.99-.76 1.76-1.48 2.31s-1.64.82-2.77.82c-1.41 0-2.54-.44-3.37-1.3-.82-.88-1.23-2.1-1.23-3.67 0-1.64.41-2.9 1.25-3.8.84-.9 1.93-1.34 3.26-1.34 1.29 0 2.34.44 3.16 1.32.82.88 1.23 2.11 1.23 3.71v.44h-7.22c.07 1.06.37 1.88.91 2.45.54.56 1.21.84 2.01.84.61 0 1.12-.15 1.55-.47.43-.32.77-.82 1.02-1.51zm-5.39-2.66h5.4c-.07-.81-.28-1.42-.62-1.83-.52-.63-1.2-.95-2.03-.95-.75 0-1.39.26-1.91.77-.51.5-.79 1.17-.84 2.01zm11.83 5.77l-3.69-9.67h1.73l2.08 5.79c.22.63.43 1.27.63 1.94.13-.51.33-1.12.6-1.83l2.15-5.9h1.68l-3.65 9.67h-1.53zm10.25 0v-11.78h-4.41v-1.58h10.58v1.58h-4.41v11.78h-1.76zm5.1-4.85c0-1.79.5-3.11 1.49-3.97.83-.71 1.85-1.07 3.05-1.07 1.33 0 2.42.43 3.26 1.31.84.86 1.27 2.07 1.27 3.61 0 1.24-.19 2.22-.57 2.94-.37.7-.92 1.26-1.64 1.65-.71.4-1.48.6-2.32.6-1.36 0-2.45-.44-3.29-1.3-.83-.88-1.25-2.13-1.25-3.77zm1.69 0c0 1.24.27 2.18.8 2.8.54.62 1.22.92 2.05.92.81 0 1.48-.3 2.03-.92.54-.62.81-1.57.81-2.84 0-1.2-.27-2.11-.81-2.72-.55-.62-1.22-.92-2.03-.92-.83 0-1.51.3-2.05.92-.53.6-.8 1.52-.8 2.76zm8.69 0c0-1.79.49-3.11 1.48-3.97.84-.71 1.85-1.07 3.05-1.07 1.33 0 2.42.43 3.27 1.31.84.86 1.26 2.07 1.26 3.61 0 1.24-.19 2.22-.56 2.94-.38.7-.92 1.26-1.64 1.65-.71.4-1.49.6-2.33.6-1.35 0-2.45-.44-3.28-1.3-.83-.88-1.25-2.13-1.25-3.77zm1.69 0c0 1.24.26 2.18.79 2.8.55.62 1.23.92 2.05.92.81 0 1.49-.3 2.03-.92.54-.62.81-1.57.81-2.84 0-1.2-.27-2.11-.81-2.72-.54-.62-1.22-.92-2.03-.92-.82 0-1.5.3-2.05.92-.53.6-.79 1.52-.79 2.76zm9.25 4.85v-13.36h1.64v13.36h-1.64zm3.53-2.89l1.63-.25c.08.64.33 1.14.75 1.5.41.34 1 .51 1.75.51s1.31-.15 1.67-.45c.36-.31.55-.68.55-1.09 0-.37-.16-.66-.49-.88-.22-.15-.77-.33-1.67-.55-1.21-.31-2.05-.57-2.51-.79-.46-.22-.81-.52-1.05-.91-.24-.4-.36-.83-.36-1.31 0-.43.1-.82.3-1.19.19-.37.46-.68.81-.92.25-.19.59-.35 1.03-.47.45-.14.92-.2 1.42-.2.76 0 1.43.11 2 .32.57.22 1 .52 1.27.9.28.37.47.87.58 1.5l-1.61.21c-.08-.5-.29-.89-.64-1.17-.35-.28-.84-.42-1.47-.42-.76 0-1.31.13-1.63.38-.31.25-.47.54-.47.87 0 .21.07.4.19.58.14.18.35.32.64.44.16.06.64.2 1.44.42 1.16.3 1.98.55 2.44.75.45.2.81.48 1.07.86.26.37.39.84.39 1.4 0 .56-.16 1.07-.48 1.55-.31.48-.77.85-1.37 1.13-.61.26-1.29.39-2.05.39-1.25 0-2.21-.26-2.88-.79-.65-.52-1.07-1.29-1.25-2.32zM783.05 296.5v-13.36h9.01v1.58h-7.25v4.14h6.27v1.57h-6.27v6.07h-1.76zm11.08 0v-9.67h1.47v1.46c.37-.68.72-1.14 1.03-1.36.32-.21.68-.32 1.06-.32.55 0 1.12.17 1.69.53l-.56 1.51c-.41-.24-.81-.36-1.21-.36-.36 0-.68.11-.97.33-.28.22-.48.52-.61.89-.18.59-.28 1.23-.28 1.92v5.07h-1.62zm5.62-4.85c0-1.79.49-3.11 1.48-3.97.84-.71 1.85-1.07 3.05-1.07 1.33 0 2.42.43 3.26 1.31.85.86 1.27 2.07 1.27 3.61 0 1.24-.19 2.22-.56 2.94-.38.7-.92 1.26-1.64 1.65-.71.4-1.49.6-2.33.6-1.36 0-2.45-.44-3.28-1.3-.84-.88-1.25-2.13-1.25-3.77zm1.68 0c0 1.24.27 2.18.8 2.8.54.62 1.23.92 2.05.92.81 0 1.49-.3 2.03-.92.54-.62.81-1.57.81-2.84 0-1.2-.27-2.11-.81-2.72-.54-.62-1.22-.92-2.03-.92-.82 0-1.51.3-2.05.92-.53.6-.8 1.52-.8 2.76zm9.3 4.85v-9.67h1.47v1.37c.71-1.06 1.74-1.59 3.08-1.59.58 0 1.12.1 1.61.31s.85.48 1.09.83c.25.33.42.73.52 1.2.06.3.09.83.09 1.59v5.96h-1.64v-5.89c0-.67-.07-1.16-.2-1.49-.13-.33-.35-.6-.67-.79-.33-.2-.71-.3-1.14-.3-.7 0-1.31.22-1.82.67-.5.44-.75 1.28-.75 2.52v5.28h-1.64zm13.96-1.47l.23 1.45c-.46.1-.87.14-1.23.14-.6 0-1.06-.09-1.39-.28-.33-.19-.56-.43-.69-.73-.14-.32-.2-.96-.2-1.94v-5.58h-1.21v-1.26h1.21v-2.4l1.62-.98v3.38h1.66v1.26h-1.66v5.67c0 .46.03.76.08.89.06.14.15.25.28.33.13.07.33.11.58.11.17 0 .41-.02.72-.06zm8.23-1.64l1.68.2c-.27.99-.76 1.76-1.48 2.31s-1.64.82-2.77.82c-1.41 0-2.54-.44-3.37-1.3-.82-.88-1.24-2.1-1.24-3.67 0-1.64.42-2.9 1.25-3.8.85-.9 1.94-1.34 3.27-1.34 1.29 0 2.34.44 3.16 1.32.82.88 1.23 2.11 1.23 3.71v.44h-7.22c.06 1.06.37 1.88.91 2.45.54.56 1.21.84 2.01.84.61 0 1.12-.15 1.55-.47.43-.32.77-.82 1.02-1.51zm-5.39-2.66h5.4c-.07-.81-.28-1.42-.62-1.83-.52-.63-1.2-.95-2.03-.95-.75 0-1.39.26-1.91.77-.51.5-.79 1.17-.84 2.01zm9.14 5.77v-9.67h1.47v1.37c.7-1.06 1.73-1.59 3.07-1.59.59 0 1.12.1 1.61.31s.86.48 1.1.83c.25.33.42.73.51 1.2.07.3.1.83.1 1.59v5.96h-1.64v-5.89c0-.67-.07-1.16-.21-1.49-.12-.33-.35-.6-.67-.79-.32-.2-.7-.3-1.14-.3-.7 0-1.3.22-1.81.67-.5.44-.75 1.28-.75 2.52v5.28h-1.64zm16.64 0v-1.22c-.61.96-1.51 1.44-2.7 1.44-.78 0-1.48-.22-2.13-.64-.65-.43-1.15-1.03-1.5-1.79-.35-.76-.53-1.63-.53-2.62 0-.97.16-1.84.48-2.63.33-.79.81-1.39 1.44-1.81a3.98 3.98 0 012.17-.62c.59 0 1.1.12 1.55.37.46.24.83.56 1.11.95v-4.79h1.64v13.36h-1.53zm-5.17-4.83c0 1.24.26 2.17.78 2.78.52.62 1.13.92 1.84.92.72 0 1.33-.29 1.83-.87.5-.6.75-1.49.75-2.69 0-1.32-.26-2.29-.77-2.91-.51-.62-1.14-.93-1.89-.93-.72 0-1.32.29-1.81.89-.49.59-.73 1.53-.73 2.81z"/><path id="Layer" class="shp0" d="M664.69 224.72l88.66.53"/><path id="Layer" class="shp2" d="M664.69 224.72l82.66.5"/><path id="Layer" fill-rule="evenodd" class="shp5" d="M747.34 226.87l4.55-1.63-4.53-1.68-.02 3.31z"/><path id="Layer" class="shp0" d="M664.69 353.35l90.96-1.36"/><path id="Layer" class="shp2" d="M664.69 353.35l84.96-1.27"/><path id="Layer" fill-rule="evenodd" class="shp5" d="M749.67 353.73l4.52-1.72-4.57-1.58.05 3.3z"/><path id="Layer" class="shp0" d="M562.47 129.8h439.78v51.3H562.47v-51.3z"/><path id="Layer" class="shp0" d="M478.8 78.35h210.99v60.41H478.8V78.35z"/><path id="Layer" fill-rule="evenodd" class="shp3" d="M491.36 105.27V91.91h5.05c.88 0 1.56.04 2.03.12.65.12 1.19.33 1.64.64.45.3.81.73 1.08 1.28.27.56.4 1.17.4 1.83 0 1.14-.36 2.1-1.09 2.89-.72.78-2.03 1.17-3.92 1.17h-3.42v5.43h-1.77zm1.77-7h3.45c1.15 0 1.96-.22 2.44-.64.48-.43.72-1.03.72-1.8 0-.56-.14-1.04-.43-1.44-.28-.39-.65-.65-1.12-.78-.29-.08-.84-.12-1.64-.12h-3.42v4.78zm16.78 5.81c-.61.51-1.2.87-1.76 1.09-.55.21-1.15.32-1.8.32-1.06 0-1.88-.27-2.45-.79-.57-.52-.86-1.18-.86-1.98 0-.48.11-.91.33-1.3.22-.39.5-.71.84-.93.36-.24.75-.43 1.19-.55.31-.08.8-.17 1.45-.25 1.32-.16 2.3-.35 2.92-.56.01-.23.02-.37.02-.43 0-.66-.16-1.14-.47-1.42-.42-.36-1.04-.54-1.87-.54-.78 0-1.34.13-1.71.4-.36.27-.63.75-.81 1.42l-1.61-.22c.15-.67.39-1.22.72-1.64.33-.42.82-.75 1.45-.98.64-.23 1.37-.34 2.19-.34.83 0 1.51.09 2.02.29.52.19.9.44 1.14.74.25.29.42.66.51 1.11.05.28.08.78.08 1.51v2.19c0 1.52.04 2.48.11 2.89.07.4.21.78.41 1.16h-1.71c-.17-.35-.28-.74-.33-1.19zm-.14-3.67c-.59.25-1.48.46-2.67.62-.68.1-1.15.21-1.44.33-.28.13-.5.3-.65.53-.15.23-.22.49-.22.78 0 .44.17.8.5 1.1.33.29.82.43 1.45.43s1.18-.13 1.67-.4c.5-.28.87-.66 1.1-1.14.18-.38.26-.92.26-1.64v-.61zm4.19 4.86v-9.68h1.47v1.47c.38-.68.72-1.14 1.03-1.36.33-.21.68-.32 1.06-.32.56 0 1.12.17 1.69.53l-.56 1.51c-.41-.24-.81-.36-1.2-.36-.37 0-.69.11-.97.33-.28.22-.49.52-.61.89-.19.59-.28 1.23-.28 1.92v5.07h-1.63zm5.57-2.89l1.63-.25c.08.64.33 1.14.75 1.5.42.34 1 .51 1.75.51s1.31-.15 1.67-.45c.37-.31.55-.68.55-1.1 0-.36-.16-.65-.49-.87-.22-.15-.77-.33-1.67-.55-1.21-.31-2.05-.58-2.51-.79-.46-.22-.81-.52-1.05-.91-.24-.4-.36-.83-.36-1.31 0-.43.1-.83.3-1.19.19-.38.47-.68.81-.92.25-.19.59-.35 1.03-.47.45-.14.92-.2 1.42-.2.76 0 1.43.11 2 .32.58.22 1 .52 1.27.89.28.38.47.88.58 1.5l-1.61.22c-.08-.5-.29-.89-.64-1.17-.35-.28-.84-.42-1.47-.42-.76 0-1.3.12-1.63.37-.31.25-.47.55-.47.88 0 .21.07.4.19.58.14.17.35.32.64.44.16.06.64.2 1.44.42 1.17.3 1.98.55 2.44.75.46.2.81.48 1.07.86.27.37.4.84.4 1.4 0 .55-.17 1.07-.49 1.55-.31.48-.77.85-1.37 1.12-.61.27-1.29.4-2.05.4-1.25 0-2.21-.27-2.88-.79-.65-.52-1.07-1.29-1.25-2.32zm16.61-.22l1.69.2c-.27.99-.76 1.76-1.48 2.31-.72.54-1.64.82-2.77.82-1.42 0-2.54-.44-3.37-1.3-.83-.88-1.24-2.1-1.24-3.67 0-1.64.42-2.9 1.25-3.8.85-.9 1.93-1.34 3.27-1.34 1.29 0 2.34.44 3.15 1.32.83.88 1.24 2.11 1.24 3.71v.43h-7.22c.06 1.07.36 1.88.91 2.46.54.56 1.21.84 2.01.84.61 0 1.12-.15 1.55-.47.43-.32.76-.83 1.01-1.51zm-5.39-2.66h5.41c-.07-.81-.28-1.42-.63-1.83-.52-.63-1.19-.95-2.03-.95-.75 0-1.38.25-1.9.77-.51.5-.79 1.17-.85 2.01zm15.41 5.77v-1.22c-.6.96-1.51 1.44-2.7 1.44-.77 0-1.48-.22-2.13-.65-.64-.42-1.14-1.02-1.5-1.78-.35-.76-.53-1.63-.53-2.62 0-.97.16-1.85.48-2.63.33-.79.81-1.39 1.44-1.81.65-.42 1.37-.62 2.17-.62.59 0 1.1.12 1.55.37.46.24.83.56 1.11.95v-4.79h1.64v13.36h-1.53zm-5.17-4.83c0 1.24.26 2.17.78 2.78.52.61 1.13.92 1.84.92.72 0 1.33-.29 1.83-.87.5-.6.75-1.49.75-2.69 0-1.32-.25-2.29-.76-2.91-.51-.62-1.15-.93-1.9-.93-.71 0-1.32.29-1.81.89-.49.59-.73 1.53-.73 2.81zm20.73 4.83v-1.22c-.61.96-1.51 1.44-2.7 1.44-.78 0-1.48-.22-2.13-.65-.65-.42-1.15-1.02-1.5-1.78-.35-.76-.53-1.63-.53-2.62 0-.97.16-1.85.48-2.63.33-.79.81-1.39 1.44-1.81.65-.42 1.37-.62 2.17-.62.59 0 1.1.12 1.55.37.46.24.83.56 1.11.95v-4.79h1.64v13.36h-1.53zm-5.17-4.83c0 1.24.26 2.17.78 2.78.52.61 1.13.92 1.84.92.72 0 1.33-.29 1.83-.87.5-.6.75-1.49.75-2.69 0-1.32-.26-2.29-.77-2.91-.51-.62-1.14-.93-1.89-.93-.71 0-1.32.29-1.81.89-.49.59-.73 1.53-.73 2.81zm15.59 3.64c-.61.51-1.2.87-1.76 1.09-.56.21-1.16.32-1.8.32-1.06 0-1.88-.27-2.45-.79-.58-.52-.86-1.18-.86-1.98 0-.48.11-.91.32-1.3.22-.39.5-.71.85-.93.35-.24.75-.43 1.19-.55.31-.08.79-.17 1.45-.25 1.32-.16 2.3-.35 2.92-.56.01-.23.02-.37.02-.43 0-.66-.16-1.14-.47-1.42-.42-.36-1.04-.54-1.88-.54-.77 0-1.34.13-1.7.4-.36.27-.64.75-.81 1.42l-1.61-.22c.14-.67.38-1.22.72-1.64.33-.42.81-.75 1.45-.98.64-.23 1.36-.34 2.19-.34.83 0 1.5.09 2.01.29.52.19.9.44 1.14.74.25.29.43.66.52 1.11.05.28.08.78.08 1.51v2.19c0 1.52.03 2.48.11 2.89.07.4.2.78.4 1.16h-1.7c-.18-.35-.29-.74-.33-1.19zm-.14-3.67c-.59.25-1.48.46-2.67.62-.68.1-1.16.21-1.44.33-.28.13-.5.3-.65.53-.15.23-.22.49-.22.78 0 .44.16.8.5 1.1.33.29.81.43 1.45.43.62 0 1.18-.13 1.67-.4.5-.28.87-.66 1.1-1.14.17-.38.26-.92.26-1.64v-.61zm7.78 3.39l.24 1.45c-.46.09-.87.14-1.24.14-.59 0-1.05-.09-1.39-.28-.32-.19-.55-.43-.69-.73-.13-.32-.2-.96-.2-1.94v-5.58h-1.2v-1.27h1.2V93.2l1.63-.98v3.37h1.65v1.27h-1.65v5.67c0 .46.02.76.07.89.07.14.16.25.29.33.13.07.32.11.57.11.18 0 .42-.02.72-.06zm7.92.28c-.61.51-1.2.87-1.77 1.09-.55.21-1.15.32-1.79.32-1.06 0-1.88-.27-2.46-.79-.57-.52-.85-1.18-.85-1.98 0-.48.1-.91.32-1.3s.5-.71.85-.93c.35-.24.75-.43 1.18-.55.32-.08.8-.17 1.46-.25 1.32-.16 2.29-.35 2.92-.56.01-.23.02-.37.02-.43 0-.66-.16-1.14-.47-1.42-.42-.36-1.04-.54-1.88-.54-.77 0-1.34.13-1.7.4-.37.27-.64.75-.81 1.42l-1.61-.22c.14-.67.38-1.22.72-1.64.33-.42.81-.75 1.45-.98.63-.23 1.36-.34 2.19-.34.83 0 1.5.09 2.01.29.52.19.9.44 1.14.74.25.29.42.66.52 1.11.05.28.08.78.08 1.51v2.19c0 1.52.03 2.48.11 2.89.07.4.2.78.4 1.16h-1.7c-.18-.35-.29-.74-.33-1.19zm-.14-3.67c-.59.25-1.48.46-2.67.62-.68.1-1.16.21-1.44.33-.28.13-.5.3-.66.53-.14.23-.21.49-.21.78 0 .44.16.8.5 1.1.33.29.81.43 1.45.43.62 0 1.18-.13 1.67-.4.5-.28.87-.66 1.09-1.14.18-.38.27-.92.27-1.64v-.61zm9.39-6.61v-1.89h1.64v1.89h-1.64zm0 11.47v-9.68h1.64v9.68h-1.64zm3.49-2.89l1.62-.25c.08.64.33 1.14.75 1.5.42.34 1 .51 1.75.51s1.31-.15 1.67-.45c.37-.31.55-.68.55-1.1 0-.36-.16-.65-.48-.87-.22-.15-.78-.33-1.68-.55-1.21-.31-2.04-.58-2.51-.79-.46-.22-.81-.52-1.05-.91-.24-.4-.36-.83-.36-1.31 0-.43.1-.83.3-1.19.2-.38.47-.68.81-.92.25-.19.59-.35 1.03-.47.45-.14.92-.2 1.42-.2.76 0 1.43.11 2 .32.58.22 1 .52 1.27.89.28.38.47.88.58 1.5l-1.61.22c-.07-.5-.29-.89-.64-1.17-.35-.28-.84-.42-1.47-.42-.76 0-1.3.12-1.63.37-.31.25-.46.55-.46.88 0 .21.06.4.18.58.14.17.35.32.64.44.16.06.64.2 1.44.42 1.17.3 1.98.55 2.44.75.46.2.82.48 1.08.86.26.37.39.84.39 1.4 0 .55-.16 1.07-.49 1.55-.31.48-.77.85-1.37 1.12-.61.27-1.29.4-2.05.4-1.25 0-2.21-.27-2.87-.79-.66-.52-1.08-1.29-1.25-2.32zm14.51 0l1.62-.25c.09.64.34 1.14.75 1.5.42.34 1 .51 1.75.51s1.31-.15 1.67-.45c.37-.31.55-.68.55-1.1 0-.36-.16-.65-.48-.87-.22-.15-.78-.33-1.68-.55-1.2-.31-2.04-.58-2.51-.79-.46-.22-.81-.52-1.05-.91-.24-.4-.36-.83-.36-1.31 0-.43.1-.83.3-1.19.2-.38.47-.68.81-.92.25-.19.6-.35 1.03-.47.45-.14.93-.2 1.43-.2.76 0 1.42.11 2 .32.57.22.99.52 1.26.89.28.38.47.88.58 1.5l-1.61.22c-.07-.5-.29-.89-.64-1.17-.34-.28-.83-.42-1.47-.42-.76 0-1.3.12-1.62.37-.32.25-.47.55-.47.88 0 .21.06.4.18.58.14.17.35.32.64.44.16.06.64.2 1.44.42 1.17.3 1.98.55 2.44.75.46.2.82.48 1.08.86.26.37.39.84.39 1.4 0 .55-.16 1.07-.49 1.55-.31.48-.77.85-1.37 1.12-.61.27-1.29.4-2.05.4-1.25 0-2.21-.27-2.87-.79-.66-.52-1.08-1.29-1.25-2.32zm16.61-.22l1.68.2c-.27.99-.76 1.76-1.48 2.31-.72.54-1.64.82-2.77.82-1.41 0-2.54-.44-3.37-1.3-.82-.88-1.24-2.1-1.24-3.67 0-1.64.42-2.9 1.25-3.8.85-.9 1.94-1.34 3.27-1.34 1.29 0 2.34.44 3.16 1.32.82.88 1.23 2.11 1.23 3.71v.43h-7.22c.06 1.07.37 1.88.91 2.46.54.56 1.21.84 2.01.84.61 0 1.12-.15 1.55-.47.43-.32.77-.83 1.02-1.51zm-5.39-2.66h5.4c-.07-.81-.28-1.42-.62-1.83-.52-.63-1.2-.95-2.03-.95-.75 0-1.39.25-1.91.77-.51.5-.79 1.17-.84 2.01zm9.14 5.77v-9.68h1.47v1.38c.7-1.06 1.73-1.59 3.07-1.59.59 0 1.12.1 1.61.31s.86.48 1.1.83c.25.33.42.73.51 1.2.07.3.1.83.1 1.59v5.96h-1.64v-5.89c0-.67-.07-1.17-.21-1.49-.12-.33-.35-.6-.67-.8-.32-.19-.7-.29-1.14-.29-.7 0-1.3.22-1.81.67-.5.44-.75 1.28-.75 2.52v5.28h-1.64zm13.95-1.47l.24 1.45c-.46.09-.87.14-1.24.14-.59 0-1.06-.09-1.39-.28-.32-.19-.55-.43-.69-.73-.13-.32-.2-.96-.2-1.94v-5.58h-1.2v-1.27h1.2V93.2l1.62-.98v3.37h1.66v1.27h-1.66v5.67c0 .46.03.76.08.89.07.14.16.25.28.33.14.07.33.11.58.11.18 0 .42-.02.72-.06zm9.48 1.47l-3.69-9.68h1.73l2.08 5.8c.22.63.43 1.27.63 1.94.13-.51.34-1.12.61-1.83l2.14-5.91h1.68l-3.65 9.68h-1.53zm6.64-11.47v-1.89h1.64v1.89h-1.64zm0 11.47v-9.68h1.64v9.68h-1.64zm10.45-1.19c-.61.51-1.2.87-1.76 1.09-.55.21-1.15.32-1.8.32-1.06 0-1.88-.27-2.45-.79-.57-.52-.86-1.18-.86-1.98 0-.48.11-.91.33-1.3.22-.39.5-.71.84-.93.36-.24.75-.43 1.19-.55.31-.08.8-.17 1.45-.25 1.33-.16 2.3-.35 2.92-.56.01-.23.02-.37.02-.43 0-.66-.16-1.14-.47-1.42-.42-.36-1.04-.54-1.87-.54-.77 0-1.34.13-1.71.4-.36.27-.63.75-.81 1.42l-1.61-.22c.15-.67.39-1.22.72-1.64.33-.42.82-.75 1.45-.98.64-.23 1.37-.34 2.19-.34.83 0 1.51.09 2.02.29.52.19.9.44 1.14.74.25.29.42.66.51 1.11.05.28.08.78.08 1.51v2.19c0 1.52.04 2.48.11 2.89.07.4.21.78.41 1.16h-1.71c-.17-.35-.28-.74-.33-1.19zm-.14-3.67c-.59.25-1.48.46-2.67.62-.67.1-1.15.21-1.44.33-.28.13-.5.3-.65.53-.15.23-.22.49-.22.78 0 .44.17.8.5 1.1.33.29.82.43 1.45.43s1.19-.13 1.67-.4c.5-.28.87-.66 1.1-1.14.18-.38.26-.92.26-1.64v-.61zM575.57 122.58l1.76.45c-.37 1.45-1.04 2.56-2 3.33-.95.76-2.13 1.14-3.53 1.14-1.44 0-2.61-.29-3.51-.87-.9-.6-1.59-1.45-2.07-2.55-.46-1.12-.7-2.31-.7-3.59 0-1.39.27-2.6.8-3.63.53-1.04 1.28-1.83 2.26-2.36.99-.54 2.08-.81 3.25-.81 1.34 0 2.46.34 3.36 1.01.92.68 1.56 1.64 1.91 2.88l-1.74.41c-.31-.97-.76-1.68-1.35-2.11-.59-.45-1.32-.68-2.21-.68-1.03 0-1.89.25-2.58.74-.68.49-1.17 1.15-1.45 1.98-.28.83-.42 1.68-.42 2.57 0 1.13.17 2.12.5 2.96.33.85.85 1.48 1.55 1.91.69.42 1.45.63 2.26.63.99 0 1.83-.29 2.52-.86.68-.58 1.15-1.43 1.39-2.55zm3.94 4.69v-13.36h4.61c1.03 0 1.82.06 2.37.2.76.17 1.42.48 1.96.95.71.6 1.23 1.36 1.58 2.28.35.93.53 1.99.53 3.18 0 1.01-.12 1.91-.36 2.7-.24.78-.55 1.43-.92 1.94s-.77.91-1.21 1.22c-.44.29-.97.51-1.59.67-.63.14-1.34.22-2.14.22h-4.83zm1.77-1.58h2.85c.88 0 1.57-.08 2.07-.24.5-.16.9-.4 1.2-.7.42-.42.74-.98.97-1.69.24-.7.36-1.56.36-2.57 0-1.4-.23-2.47-.69-3.22-.46-.75-1.01-1.25-1.67-1.5-.47-.19-1.23-.28-2.28-.28h-2.81v10.2zm11.7 1.58v-13.36h5.05c.88 0 1.56.04 2.03.12.65.12 1.19.33 1.64.64.45.3.81.73 1.08 1.28.27.56.41 1.17.41 1.83 0 1.14-.37 2.1-1.1 2.89-.72.78-2.02 1.17-3.92 1.17h-3.42v5.43h-1.77zm1.77-7h3.45c1.15 0 1.96-.22 2.44-.64.48-.43.72-1.03.72-1.8 0-.56-.14-1.04-.42-1.44-.29-.39-.66-.65-1.13-.78-.29-.08-.84-.12-1.64-.12h-3.42v4.78z"/></g></g></svg>