<svg id="Layer_1" data-name="Layer 1" xmlns="http://www.w3.org/2000/svg" viewBox="0 0 552.5 312.8"><defs><style>.cls-2{fill:#f1f2eb}.cls-3{fill:#2d3142}.cls-4{fill:#fff}.cls-5{fill:none;stroke:#000;stroke-linecap:round;stroke-linejoin:round}</style></defs><path fill="#369" d="M360.6 84.6h191.8v84H360.6z"/><path class="cls-2" d="M17.7 37.1h319v239h-319z"/><path d="M336.2 37.6v238h-318v-238h318m1-1h-320v240h320v-240z"/><path class="cls-3" d="M81.2 84.6h256v192h-256z"/><path class="cls-2" d="M91.2 97.7l5.1 2.3.4.3a.4.4 0 0 1 .1.3l-.1.4h-.5l-.4-.2-5.4-2.5h-.1a1 1 0 0 1-.6-.7q0-.3.6-.6h.1l5.4-2.5.3-.2h.6a.4.4 0 0 1 .1.3l-.1.4-.4.2zm11.3 3.4h2.6l.1.4a1 1 0 0 1-.1.3h-6.2a.4.4 0 0 1-.1-.3l.1-.4h2.5v-4.4h-1.7a.5.5 0 0 1-.2-.4c0-.2.1-.3.2-.3l.4-.2h2.3l.1.2zm-1.3-7.3a2.5 2.5 0 0 1 .1-1 1 1 0 0 1 1.2 0l.1.8-.1.7h-1.2a.7.7 0 0 1-.1-.5zm11.6 4.4a3.9 3.9 0 0 0-.2-1.3.6.6 0 0 0-.6-.3.9.9 0 0 0-.8.4 2.1 2.1 0 0 0-.3 1.2v2.9h.7l.1.4a.4.4 0 0 1-.1.3H110l-.1-.6v-3.5a1.1 1.1 0 0 0-.3-.8.6.6 0 0 0-.6-.3l-.6.2-.4.5v3.8h.8l.1.4-.1.3h-2.6l-.2-.3.2-.4h.8v-4.4h-.8a.5.5 0 0 1-.2-.4c0-.2.1-.3.2-.3l.4-.2h1.3a.4.4 0 0 1 .1.3l.6-.4h.7a1.1 1.1 0 0 1 .8.2 1 1 0 0 1 .5.6 1.7 1.7 0 0 1 .6-.6 1.5 1.5 0 0 1 .9-.2 1.4 1.4 0 0 1 1.3.5 3.2 3.2 0 0 1 .4 1.9v3.1h.7l.1.4a.4.4 0 0 1-.1.3h-1.6a.7.7 0 0 1-.1-.5zm8.6 3.5a4.2 4.2 0 0 1-.1 1.3 1.5 1.5 0 0 1-.3.7 2.3 2.3 0 0 1-1.1.8 3.8 3.8 0 0 1-1.6.3l-1.2-.2a.5.5 0 0 1-.3-.5c0-.1 0-.2.2-.3l.4-.2h1.1a2.1 2.1 0 0 0 1.5-.4 3.4 3.4 0 0 0 .4-1.6v-.9a1.8 1.8 0 0 1-.9.7 2.7 2.7 0 0 1-1.2.3 2.6 2.6 0 0 1-2.1-.9 2.9 2.9 0 0 1-.9-2.1 2.9 2.9 0 0 1 .9-2.2 2.9 2.9 0 0 1 2.1-.9l1.1.2 1 .6V96l.1-.2h1.3a.5.5 0 0 1 .4.2l.1.3-.1.4h-.8zm-3-5a2.1 2.1 0 0 0-2 2 2 2 0 0 0 .6 1.5 2.2 2.2 0 0 0 1.4.5 2.5 2.5 0 0 0 1.5-.5 2 2 0 0 0 .6-1.5 2 2 0 0 0-.6-1.4 2 2 0 0 0-1.5-.6zm-14.5 16.2a.4.4 0 0 1 .1-.3h.8a1.5 1.5 0 0 1 .1.7v1.3l-.1.4h-.7a1.1 1.1 0 0 1-.3-.5l-.8-.8a2.3 2.3 0 0 0-1.1-.3 2.4 2.4 0 0 0-1.8.7 2.4 2.4 0 0 0 0 3.2 2.1 2.1 0 0 0 1.7.7h.8a2 2 0 0 0 .8-.4l.4-.3.7-.3h.3l.1.4c0 .2-.3.7-1 1.1a5.4 5.4 0 0 1-2.1.5 3.5 3.5 0 0 1-2.5-.9 3.3 3.3 0 0 1-1-2.4 3.1 3.1 0 0 1 1-2.4 3.4 3.4 0 0 1 2.4-.9h1.1zm5.9-2h-2a.5.5 0 0 1 0-.8h2.9l.1.2v7.7h2.5a.5.5 0 0 1 .2.4l-.2.3h-5.9l-.1-.3a.5.5 0 0 1 .2-.4h2.3zm10.4 7.1l-1.2.8-1.4.2a2.8 2.8 0 0 1-1.6-.5 2 2 0 0 1-.6-1.5 1.9 1.9 0 0 1 .8-1.7 3.7 3.7 0 0 1 2.3-.6h1.7a1.9 1.9 0 0 0-.4-1.2 2.1 2.1 0 0 0-1.2-.4l-1.2.3-.9.3c-.1 0-.2 0-.3-.2l-.1-.4c0-.2.2-.5.7-.7l2-.2a2.1 2.1 0 0 1 2.4 2.4v3.1h1a.5.5 0 0 1 .2.4l-.2.3h-1.8l-.1-.3zm0-2.2l-.8-.2h-.7a3.5 3.5 0 0 0-1.6.3 1.2 1.2 0 0 0-.6 1 1.1 1.1 0 0 0 .3.8 1.7 1.7 0 0 0 1 .3 3 3 0 0 0 1.6-.5c.5-.3.8-.6.8-.9zm3.9 2.6v-1.3l.1-.4.3-.1a.5.5 0 0 1 .5.4l.2.3a1.6 1.6 0 0 0 .8.6l1.3.2a2 2 0 0 0 1.1-.3c.3-.2.5-.4.5-.7a.7.7 0 0 0-.4-.7c-.2-.2-.6-.2-1.2-.2h-.4a4.1 4.1 0 0 1-2.1-.5 1.7 1.7 0 0 1 0-2.8 3 3 0 0 1 2-.5h1.1l.5.2.3-.2h.4l.4.2a.7.7 0 0 1 .1.5v.8a.7.7 0 0 1-.1.5l-.4.2-.5-.4-.3-.3a1.8 1.8 0 0 0-.8-.5l-.9-.2a1.8 1.8 0 0 0-1.1.3 1 1 0 0 0-.4.7.7.7 0 0 0 .4.6 5.4 5.4 0 0 0 1.8.3 3.5 3.5 0 0 1 2 .4 1.7 1.7 0 0 1 .7 1.5 1.8 1.8 0 0 1-.7 1.5 3.9 3.9 0 0 1-2 .5h-.9l-1.2-.2-.4.2h-.3l-.3-.2-.1-.4zm8.4 0v-1.3l.1-.4.3-.1a.5.5 0 0 1 .5.4l.2.3a1.6 1.6 0 0 0 .8.6l1.3.2a2 2 0 0 0 1.1-.3c.3-.2.5-.4.5-.7a.7.7 0 0 0-.4-.7c-.2-.2-.6-.2-1.2-.2h-.4a4.1 4.1 0 0 1-2.1-.5 1.8 1.8 0 0 1 0-2.8 3 3 0 0 1 2-.5h1.1l.5.2.3-.2h.4l.4.2a.7.7 0 0 1 .1.5v.8a.7.7 0 0 1-.1.5l-.4.2-.5-.4-.3-.3a1.8 1.8 0 0 0-.8-.5l-.9-.2a1.8 1.8 0 0 0-1.1.3 1 1 0 0 0-.4.7.7.7 0 0 0 .4.6 5.4 5.4 0 0 0 1.8.3 3.5 3.5 0 0 1 2 .4 1.7 1.7 0 0 1 .7 1.5 1.8 1.8 0 0 1-.7 1.5 3.9 3.9 0 0 1-2 .5h-.9l-1.2-.2a.5.5 0 0 1-.4.2h-.3l-.3-.2-.1-.4zm8.3-5.5h6.4l.1.4-.1.4h-6.4l-.3-.1a.5.5 0 0 1 0-.8zm0 2.3h6.4l.1.4a.6.6 0 0 1-.1.4h-6.7l-.2-.4a.5.5 0 0 1 .2-.4zm10.2-2.3h-.3l-.1-.4-.2-2.5.1-.2h1.1v.2l-.2 2.5a.8.8 0 0 0-.1.4h-.3zm2.4 0h-.3l-.1-.4-.2-2.5.1-.2h1.1l.1.2-.2 2.5-.1.4h-.4zm9.3 0a.4.4 0 0 1 .1-.3h.8a1.5 1.5 0 0 1 .1.7v1.3l-.1.4h-.7a1.1 1.1 0 0 1-.3-.5l-.8-.8a2 2 0 0 0-1.1-.3 2.1 2.1 0 0 0-1.7.7 1.9 1.9 0 0 0-.7 1.6 2.1 2.1 0 0 0 .6 1.6 2.2 2.2 0 0 0 1.7.7h.8a2 2 0 0 0 .8-.4l.4-.3.7-.3h.3a.5.5 0 0 1 .2.4c0 .3-.4.7-1.1 1.1a5.4 5.4 0 0 1-2.1.5 3.5 3.5 0 0 1-2.5-.9 3.3 3.3 0 0 1-1-2.4 3.1 3.1 0 0 1 1-2.4 3.4 3.4 0 0 1 2.4-.9h1.1zm9.9 2.8a3 3 0 0 1-1 2.4 3.6 3.6 0 0 1-2.6.9 3.5 3.5 0 0 1-2.5-.9 3.4 3.4 0 0 1 0-4.8 3.5 3.5 0 0 1 2.5-.9 3.6 3.6 0 0 1 2.6.9 3 3 0 0 1 1 2.4zm-3.6 2.4a2.9 2.9 0 0 0 1.8-.7 2.5 2.5 0 0 0 .6-1.7 2.4 2.4 0 0 0-.6-1.7 2.4 2.4 0 0 0-1.8-.7 2.2 2.2 0 0 0-1.7.7 2.7 2.7 0 0 0 0 3.4 2.6 2.6 0 0 0 1.7.7zm5.9-.2v-4.4h-.8l-.1-.4.1-.4h1.7v.7a4.6 4.6 0 0 1 1-.7 1.8 1.8 0 0 1 1-.2 2.4 2.4 0 0 1 1.7.6 2.4 2.4 0 0 1 .6 1.8v3.1h.8l.1.4-.1.3h-2.7l-.1-.3.1-.4h.8v-3a2.1 2.1 0 0 0-.3-1.2 1.4 1.4 0 0 0-1.1-.4 1.7 1.7 0 0 0-1.2.5 1.4 1.4 0 0 0-.6 1.1v2.9h.8a.5.5 0 0 1 .2.4l-.2.3H174a.4.4 0 0 1-.1-.3l.1-.4h.8zm12.8-5h.5a.5.5 0 0 1 0 .8H185v2.3a2.2 2.2 0 0 0 .3 1.4 1.1 1.1 0 0 0 1 .4 3.4 3.4 0 0 0 1.5-.4l1.1-.3h.3a.4.4 0 0 1 .1.3l-.1.4-.6.4-1.2.3-1 .2a2.9 2.9 0 0 1-1.4-.3 2.7 2.7 0 0 1-.8-.7l-.2-.6v-3.5h-1.6a.5.5 0 0 1 0-.8h1.6v-1.7a.7.7 0 0 1 .1-.5h.8a1.7 1.7 0 0 1 .1.8v1.4zm4.2 3.1a2.2 2.2 0 0 0 2.4 2.1 4.1 4.1 0 0 0 1.7-.5 3.1 3.1 0 0 1 1.2-.4h.3l.1.4a.4.4 0 0 1-.1.3l-.5.3a3.4 3.4 0 0 1-1.4.5 3.4 3.4 0 0 1-1.4.2 3.3 3.3 0 0 1-2.5-5.7 3.9 3.9 0 0 1 2.6-.9 3.2 3.2 0 0 1 2.4.8 3 3 0 0 1 1 2.1.8.8 0 0 1-.2.6h-5.6zm.1-.9h4.4a1.7 1.7 0 0 0-.7-1.3 2 2 0 0 0-1.4-.5 2.5 2.5 0 0 0-1.5.5 2 2 0 0 0-.8 1.3zm8.1 2.8v-4.4h-.8l-.1-.4.1-.4h1.7v.7a4.6 4.6 0 0 1 1-.7 2 2 0 0 1 1-.2 2.4 2.4 0 0 1 1.7.6 2.4 2.4 0 0 1 .6 1.8v3.1h.8l.1.4-.1.3h-2.7l-.1-.3.1-.4h.8v-3a2.1 2.1 0 0 0-.3-1.2 1.4 1.4 0 0 0-1.1-.4 1.7 1.7 0 0 0-1.2.5 1.4 1.4 0 0 0-.6 1.1v2.9h.8a.5.5 0 0 1 .2.4v.3h-2.7a.4.4 0 0 1-.1-.3l.1-.4h.8zm12.8-5h.5a.5.5 0 0 1 0 .8h-3.2v2.3a2.2 2.2 0 0 0 .3 1.4 1.1 1.1 0 0 0 1 .4 3.4 3.4 0 0 0 1.5-.4l1.1-.3h.3a.4.4 0 0 1 .1.3l-.1.4-.6.4-1.2.3-1 .2a2.9 2.9 0 0 1-1.4-.3 2.7 2.7 0 0 1-.8-.7l-.2-.6v-3.5h-1.6l-.1-.4.1-.4h1.6v-1.7a.7.7 0 0 1 .1-.5h.8a1.7 1.7 0 0 1 .1.8v1.4zm3.7 3.5h-.2a.4.4 0 0 1-.1-.3v-.9h6.1v.9a.4.4 0 0 1-.1.3h-5.9zm11.9 1.5h2.6l.1.4-.1.3h-6.2a.4.4 0 0 1-.1-.3l.1-.4h2.6v-4.4h-1.8a.5.5 0 0 1-.2-.4c0-.2.1-.3.2-.3l.4-.2h2.3v5.3zm-1.3-7.3a2.2 2.2 0 0 1 .2-1c0-.1.2-.2.5-.2l.6.2.1.8-.1.7h-.6l-.5-.1a.8.8 0 0 1-.2-.4zm11.6 4.4a3.9 3.9 0 0 0-.2-1.3.6.6 0 0 0-.6-.3.9.9 0 0 0-.8.4 2.1 2.1 0 0 0-.3 1.2v2.9h.7l.1.4a.4.4 0 0 1-.1.3H236l-.1-.6v-3.6a1.9 1.9 0 0 0-.2-.8.9.9 0 0 0-.7-.3l-.5.2-.5.5v3.8h.8a.5.5 0 0 1 .2.4l-.2.3h-2.6a.4.4 0 0 1-.1-.3l.1-.4h.8v-4.4h-.8a.5.5 0 0 1-.2-.4c0-.2.1-.3.2-.3l.4-.2h1.3a.4.4 0 0 1 .1.3l.6-.4h.7c.4 0 .6 0 .8.2a1 1 0 0 1 .5.6 1.3 1.3 0 0 1 .7-.6 1.1 1.1 0 0 1 .8-.2 1.4 1.4 0 0 1 1.3.5 3.2 3.2 0 0 1 .4 1.9v3.1h.7l.1.4a.4.4 0 0 1-.1.3h-1.6a.7.7 0 0 1-.1-.5zm7.4 3a5 5 0 0 1-1.2.8l-1.3.2a2.9 2.9 0 0 1-1.7-.5 2 2 0 0 1-.6-1.5 2.1 2.1 0 0 1 .8-1.7 3.9 3.9 0 0 1 2.3-.6h1.7a1.4 1.4 0 0 0-1.6-1.6l-1.2.3-.8.3c-.2 0-.3 0-.4-.2l-.1-.4c0-.2.3-.5.8-.7l1.9-.2a2.1 2.1 0 0 1 2.4 2.4v3.1h1a.5.5 0 0 1 .2.4l-.2.3h-1.8v-.4zm0-2.2l-.8-.2h-.7a3.5 3.5 0 0 0-1.6.3 1.2 1.2 0 0 0-.6 1 .9.9 0 0 0 .4.8 1.2 1.2 0 0 0 .9.3 3 3 0 0 0 1.6-.5c.5-.3.8-.6.8-.9zm9.6 2.7a4.2 4.2 0 0 1-.1 1.3.9.9 0 0 1-.3.7 1.9 1.9 0 0 1-1.1.8 3.8 3.8 0 0 1-1.6.3l-1.1-.2c-.3-.1-.4-.2-.4-.5s.1-.2.2-.3l.4-.2h1.1a2.1 2.1 0 0 0 1.5-.4 2.5 2.5 0 0 0 .4-1.6v-.9a1.8 1.8 0 0 1-.9.7 2.4 2.4 0 0 1-1.2.3 2.9 2.9 0 0 1-2.1-.9 2.8 2.8 0 0 1-.8-2.1 3.3 3.3 0 0 1 .8-2.2 2.9 2.9 0 0 1 2.2-.9l1 .2a2.7 2.7 0 0 1 1 .6v-.5l.1-.2h1.3l.4.2.2.3a.5.5 0 0 1-.2.4h-.8zm-2.9-5a2 2 0 0 0-1.5.6 1.8 1.8 0 0 0-.6 1.4 2 2 0 0 0 .6 1.5 2.5 2.5 0 0 0 1.5.5 2.2 2.2 0 0 0 1.4-.5 2 2 0 0 0 .6-1.5 2 2 0 0 0-.6-1.4 1.8 1.8 0 0 0-1.4-.6zm6.2 2.5a2.2 2.2 0 0 0 2.4 2.1 4.1 4.1 0 0 0 1.7-.5l1.2-.4h.3l.1.4a.4.4 0 0 1-.1.3l-.5.3a3.4 3.4 0 0 1-1.4.5 3.2 3.2 0 0 1-1.4.2 3.5 3.5 0 0 1-2.5-.9 3.6 3.6 0 0 1 0-4.8 3.9 3.9 0 0 1 2.6-.9 3.2 3.2 0 0 1 2.4.8 2.6 2.6 0 0 1 1 2.1.8.8 0 0 1-.2.6h-5.6zm.1-.9h4.4a2 2 0 0 0-.6-1.3 2.5 2.5 0 0 0-3 0 2 2 0 0 0-.8 1.3zm9.4-2.2h-.3l-.1-.4-.2-2.5.1-.2h1.1l.1.2-.2 2.5-.1.4h-.4zm2.4 0h-.3a.8.8 0 0 0-.1-.4l-.2-2.5v-.2h1.1l.1.2-.2 2.5-.1.4h-.3zM98.9 135.2v-1.3l.1-.4h.3a.5.5 0 0 1 .5.4l.2.3a1.2 1.2 0 0 0 .8.6l1.3.2a2 2 0 0 0 1.1-.3c.3-.2.5-.4.5-.7a.7.7 0 0 0-.4-.7c-.2-.2-.6-.2-1.2-.2h-.4a4.1 4.1 0 0 1-2.1-.5 1.8 1.8 0 0 1 0-2.8 3 3 0 0 1 2-.5h1.1l.5.2.3-.2h.4l.4.2a.7.7 0 0 1 .1.5v.8a.7.7 0 0 1-.1.5l-.4.2-.5-.4-.3-.3a1.8 1.8 0 0 0-.8-.5l-1-.2a1.7 1.7 0 0 0-1 .3.8.8 0 0 0-.4.7.7.7 0 0 0 .4.6 5.4 5.4 0 0 0 1.8.3 2.8 2.8 0 0 1 2 .5 1.4 1.4 0 0 1 .7 1.4 1.8 1.8 0 0 1-.7 1.5 3.9 3.9 0 0 1-2 .5h-.9l-1.2-.2-.4.2h-.3c-.1 0-.2 0-.3-.2l-.1-.5zm10.7-.5h2.6a.5.5 0 0 1 .2.4l-.2.3h-5.3a.4.4 0 0 1-.1-.3l.1-.4h1.6v-4.4h-1.2c-.2-.1-.2-.2-.2-.4l.1-.3.4-.2h1.9v1.4a2.9 2.9 0 0 1 1.3-1.2 2.8 2.8 0 0 1 1.5-.4 1.5 1.5 0 0 1 1 .2.7.7 0 0 1 .4.6.8.8 0 0 1-.2.5l-.4.2-.5-.2a1.1 1.1 0 0 0-.7-.2 2.3 2.3 0 0 0-1.1.3 5.3 5.3 0 0 0-1.3 1.3zm11.1-5a.4.4 0 0 1 .1-.3h.8a1.5 1.5 0 0 1 .1.7v1.3l-.1.4h-.7a1.1 1.1 0 0 1-.3-.5 6 6 0 0 0-.8-.8 2.3 2.3 0 0 0-1.1-.3 2.4 2.4 0 0 0-1.8.7 2.4 2.4 0 0 0 0 3.2 2.1 2.1 0 0 0 1.7.7h.8l.8-.4.4-.3.7-.3h.3l.1.4c0 .2-.3.7-1 1.1a5.4 5.4 0 0 1-2.1.5 3.5 3.5 0 0 1-2.5-.9 3.3 3.3 0 0 1-1-2.4 3.1 3.1 0 0 1 1-2.4 3.4 3.4 0 0 1 2.4-.9h1.1zm3.3 0h6.4l.1.4-.1.4h-6.8l-.1-.4.1-.4zm0 2.3h6.4l.1.4a.6.6 0 0 1-.1.4h-6.8v-.4l.1-.4zm10.2-2.3h-.3l-.1-.4-.2-2.5.1-.2.2-.1h.9v.2l-.2 2.5a.8.8 0 0 0-.1.4h-.4zm2.4 0h-.3l-.1-.4-.2-2.5.1-.2.2-.1h.7l.2.1.1.2-.2 2.5-.1.4h-.4zm7.9 5h2.6l.1.4a1 1 0 0 1-.1.3h-6.2a.4.4 0 0 1-.1-.3l.1-.4h2.5v-4.4h-1.7a.5.5 0 0 1-.2-.4c0-.2.1-.3.2-.3l.4-.2h2.3v5.3zm-1.3-7.3l.1-1a.8.8 0 0 1 .6-.2l.6.2.1.8-.1.7h-1.2a4.3 4.3 0 0 1-.1-.5zm11.6 4.4a3.9 3.9 0 0 0-.2-1.3.6.6 0 0 0-.6-.3.9.9 0 0 0-.8.4 2.1 2.1 0 0 0-.3 1.2v2.9h.7l.1.4a.4.4 0 0 1-.1.3H152l-.1-.6v-3.6a1.1 1.1 0 0 0-.3-.8.6.6 0 0 0-.6-.3l-.6.2-.4.5v3.8h.8l.1.4-.1.3h-2.6a.4.4 0 0 1-.1-.3l.1-.4h.8v-4.4h-.8a.5.5 0 0 1-.2-.4c0-.2.1-.3.2-.3l.4-.2h1.3a.4.4 0 0 1 .1.3l.6-.4h.7c.4 0 .6 0 .8.2a1 1 0 0 1 .5.6l.6-.6a1.5 1.5 0 0 1 .9-.2 1.4 1.4 0 0 1 1.3.5 3.2 3.2 0 0 1 .4 1.9v3.1h.7l.1.4a.4.4 0 0 1-.1.3h-1.6a.7.7 0 0 1-.1-.5zm7.4 3l-1.2.8-1.4.2a2.8 2.8 0 0 1-1.6-.5 2 2 0 0 1-.6-1.5 1.9 1.9 0 0 1 .8-1.7 3.9 3.9 0 0 1 2.3-.6h1.7a1.9 1.9 0 0 0-.4-1.2 2.1 2.1 0 0 0-1.2-.4l-1.2.3-.8.3c-.2 0-.3 0-.4-.2l-.1-.4c0-.2.3-.5.8-.7l1.9-.2a2.1 2.1 0 0 1 2.4 2.4v3.1h1a.5.5 0 0 1 .2.4l-.2.3h-1.8a1 1 0 0 1-.1-.3zm0-2.2l-.8-.2h-.7a3.5 3.5 0 0 0-1.6.3 1.2 1.2 0 0 0-.6 1 1.1 1.1 0 0 0 .3.8 1.7 1.7 0 0 0 1 .3 3 3 0 0 0 1.6-.5c.5-.3.8-.6.8-.9zm9.6 2.7a4.2 4.2 0 0 1-.1 1.3.9.9 0 0 1-.3.7 2.3 2.3 0 0 1-1.1.8 3.8 3.8 0 0 1-1.6.3l-1.1-.2c-.3-.1-.4-.2-.4-.5l.2-.3a.5.5 0 0 1 .4-.2h1.1a2.1 2.1 0 0 0 1.5-.4 2.5 2.5 0 0 0 .4-1.6v-.9a1.8 1.8 0 0 1-.9.7 2.7 2.7 0 0 1-1.2.3 2.9 2.9 0 0 1-2.1-.9 2.8 2.8 0 0 1-.8-2.1 2.9 2.9 0 0 1 2.9-3.1l1.1.2a2.7 2.7 0 0 1 1 .6v-.5l.1-.2h1.3l.4.2.2.3a.5.5 0 0 1-.2.4h-.8zm-2.9-5a2 2 0 0 0-1.5.6 1.8 1.8 0 0 0-.6 1.4 2 2 0 0 0 .6 1.5 2.5 2.5 0 0 0 1.5.5 2.4 2.4 0 0 0 1.4-.5 2 2 0 0 0 .6-1.5 2.1 2.1 0 0 0-2-2zm6.2 2.5a2.2 2.2 0 0 0 2.4 2.1 4.1 4.1 0 0 0 1.7-.5l1.2-.4h.3l.1.4a.4.4 0 0 1-.1.3l-.5.3a3.4 3.4 0 0 1-1.4.5 3.4 3.4 0 0 1-1.4.2 3.3 3.3 0 0 1-2.5-5.7 3.9 3.9 0 0 1 2.6-.9 3.2 3.2 0 0 1 2.4.8 3 3 0 0 1 1 2.1.8.8 0 0 1-.2.6h-5.6zm.1-.9h4.4a2.1 2.1 0 0 0-.7-1.3 2 2 0 0 0-1.4-.5 2.5 2.5 0 0 0-1.5.5 2 2 0 0 0-.8 1.3zm9.3 2.6a.9.9 0 0 1 .4-.8 1 1 0 0 1 .9-.4 1.3 1.3 0 0 1 1 .3 1.2 1.2 0 0 1 .4.9 1 1 0 0 1-.4.9 1.5 1.5 0 0 1-1 .3 1.2 1.2 0 0 1-.9-.3 1 1 0 0 1-.4-.9zm11.8.7a5.3 5.3 0 0 1-.1 1.4.9.9 0 0 1-.3.7 1.9 1.9 0 0 1-1.1.8 3.9 3.9 0 0 1-1.6.2h-1.1a.5.5 0 0 1-.4-.5l.2-.4h1.6a2 2 0 0 0 1.4-.5 2.2 2.2 0 0 0 .4-1.6v-4.9h-3.5a.5.5 0 0 1-.2-.4c0-.2.1-.3.2-.3l.4-.2h4v5.8zm-1.8-7.8a2.5 2.5 0 0 1 .1-1l.6-.2a.8.8 0 0 1 .6.2l.1.8-.1.7h-1.2a.7.7 0 0 1-.1-.5zm6.4 10h2l.1.4-.1.4H199l-.1-.4a.5.5 0 0 1 .2-.4h.8v-7.1h-.8a.5.5 0 0 1-.2-.4l.1-.3.5-.2h1.3l.1.2v.7a2.3 2.3 0 0 1 1-.7l1.2-.3a3.2 3.2 0 0 1 2.3.9 3.4 3.4 0 0 1 .9 2.4 2.9 2.9 0 0 1-.8 2.2 3.2 3.2 0 0 1-2.3.9 3.1 3.1 0 0 1-1.3-.3l-1-.7zm2.1-2.7a2.1 2.1 0 0 0 2.2-2.2 2 2 0 0 0-.6-1.5 2.3 2.3 0 0 0-1.6-.6 2.1 2.1 0 0 0-2.1 2.1 2.3 2.3 0 0 0 .6 1.6 2 2 0 0 0 1.5.6zm10.8.6a4.2 4.2 0 0 1-.1 1.3.9.9 0 0 1-.3.7 2.3 2.3 0 0 1-1.1.8 3.8 3.8 0 0 1-1.6.3l-1.1-.2c-.3-.1-.4-.2-.4-.5l.2-.3a.5.5 0 0 1 .4-.2h1.1a2.1 2.1 0 0 0 1.5-.4 2.5 2.5 0 0 0 .4-1.6v-.9a1.8 1.8 0 0 1-.9.7 2.4 2.4 0 0 1-1.2.3 2.9 2.9 0 0 1-2.1-.9 2.8 2.8 0 0 1-.8-2.1 2.9 2.9 0 0 1 .8-2.2 2.9 2.9 0 0 1 2.2-.9l1 .2a2.7 2.7 0 0 1 1 .6v-.5l.1-.2h1.3l.4.2.2.3a.5.5 0 0 1-.2.4h-.8zm-2.9-5a2 2 0 0 0-1.5.6 1.8 1.8 0 0 0-.6 1.4 2 2 0 0 0 .6 1.5 2.5 2.5 0 0 0 1.5.5 2.2 2.2 0 0 0 1.4-.5 2 2 0 0 0 .6-1.5 2 2 0 0 0-.6-1.4 1.8 1.8 0 0 0-1.4-.6zm7.3-.6h-.3l-.1-.4-.2-2.5.1-.2.2-.1h.7l.2.1.1.2-.2 2.5-.1.4h-.4zm2.4 0h-.3a.8.8 0 0 0-.1-.4l-.2-2.5v-.2h.9l.2.1.1.2-.2 2.5-.1.4h-.4zm-117.2 21.9l-1.2.8-1.4.2a2.5 2.5 0 0 1-1.6-.5 2 2 0 0 1-.6-1.5 1.9 1.9 0 0 1 .8-1.7 3.7 3.7 0 0 1 2.3-.6h1.6a1.9 1.9 0 0 0-.3-1.2 2.1 2.1 0 0 0-1.2-.4l-1.2.3-.9.3c-.1 0-.2 0-.3-.2l-.1-.4c0-.2.2-.5.7-.7l2-.2a2.1 2.1 0 0 1 2.4 2.4v3.1h1a.5.5 0 0 1 .2.4l-.2.3h-1.8l-.1-.3zm-.1-2.2l-.7-.2h-.7a3.5 3.5 0 0 0-1.6.3 1.2 1.2 0 0 0-.6 1 1.1 1.1 0 0 0 .3.8 1.7 1.7 0 0 0 1 .3 3 3 0 0 0 1.6-.5c.5-.3.7-.6.7-.9zm6.5-4.9h-2a.5.5 0 0 1 0-.8h2.9l.1.2v7.7h2.5a.5.5 0 0 1 .2.4l-.2.3h-5.9l-.1-.3a.5.5 0 0 1 .2-.4h2.3zm10.7 2h.5l.1.4-.1.4h-3.2v2.3a2.2 2.2 0 0 0 .3 1.4 1.1 1.1 0 0 0 1 .4 3.4 3.4 0 0 0 1.5-.4l1-.3h.4a.4.4 0 0 1 .1.3c0 .2 0 .3-.2.4l-.5.4-1.2.3-1 .2a2.9 2.9 0 0 1-1.4-.3 1.9 1.9 0 0 1-.8-.7 1.4 1.4 0 0 1-.2-.6l-.1-1v-2.5h-1.5a.5.5 0 0 1 0-.8h1.5v-1.7a.8.8 0 0 1 .2-.5h.8a1.7 1.7 0 0 1 .1.8v1.4zm3.5 0h6.4l.1.4-.1.4h-6.8l-.1-.4.1-.4zm0 2.3h6.4l.1.4a.6.6 0 0 1-.1.4h-6.8v-.4l.1-.4zm10.2-2.3h-.3l-.1-.4-.2-2.5.1-.2h1.1v.2l-.2 2.5a.8.8 0 0 0-.1.4h-.4zm2.4 0h-.3l-.1-.4-.2-2.5.1-.2h1.1l.1.2-.2 2.5-.1.4h-.4zm6.2-1.2h-1.6a.5.5 0 0 1 0-.8h3.2l.3.4 2.7 6.7h.6l.1.4-.1.3h-3l-.2-.3a.5.5 0 0 1 .2-.4h1.2l-.6-1.6h-3.5l-.6 1.6h1.3l.1.4-.1.3h-3l-.2-.3a.5.5 0 0 1 .2-.4h.7zm-.4 3.6h2.8l-1.4-3.6zm7.3 2.6v-4.4h-.8l-.1-.4.1-.4h1.7v.7a4.6 4.6 0 0 1 1-.7 1.8 1.8 0 0 1 1-.2 2.4 2.4 0 0 1 1.7.6 2.4 2.4 0 0 1 .5 1.8v3.1h.9l.1.4-.1.3H153l-.1-.3.1-.4h.8v-2.9a2.1 2.1 0 0 0-.3-1.2 1.4 1.4 0 0 0-1.1-.4 1.7 1.7 0 0 0-1.2.5 1.4 1.4 0 0 0-.6 1.1v2.9h.8a.5.5 0 0 1 .2.4l-.2.3h-2.6a.4.4 0 0 1-.1-.3l.1-.4h.8zm20 0h2.6l.1.4-.1.3h-6.2a.4.4 0 0 1-.1-.3l.1-.4h2.5v-4.4h-1.7a.5.5 0 0 1-.2-.4c0-.2.1-.3.2-.3a.5.5 0 0 1 .4-.2h2.3l.1.2zm-1.3-7.3l.1-1 .6-.2.6.2.1.8-.1.7h-1.2a4.3 4.3 0 0 1-.1-.5zm11.6 4.4a3.9 3.9 0 0 0-.2-1.3.6.6 0 0 0-.6-.3.9.9 0 0 0-.8.4 2.1 2.1 0 0 0-.3 1.2v2.9h.7l.1.4a.4.4 0 0 1-.1.3h-1.6l-.1-.6V148a1.1 1.1 0 0 0-.3-.8.6.6 0 0 0-.6-.3l-.6.2-.4.5v3.8h.8a.5.5 0 0 1 .2.4l-.2.3h-2.6a.4.4 0 0 1-.1-.3l.1-.4h.8V147h-.8a.5.5 0 0 1-.2-.4c0-.2.1-.3.2-.3a.5.5 0 0 1 .4-.2h1.3a.4.4 0 0 1 .1.3l.6-.4h.7c.4 0 .6 0 .8.2a1 1 0 0 1 .5.6 1.3 1.3 0 0 1 .7-.6 1.1 1.1 0 0 1 .8-.2 1.4 1.4 0 0 1 1.3.5 3.2 3.2 0 0 1 .4 1.9v3.1h.7l.1.4a.4.4 0 0 1-.1.3h-1.6a.7.7 0 0 1-.1-.5zm7.4 3l-1.2.8-1.4.2a2.8 2.8 0 0 1-1.6-.5 2 2 0 0 1-.6-1.5 1.9 1.9 0 0 1 .8-1.7 3.9 3.9 0 0 1 2.3-.6h1.7a1.9 1.9 0 0 0-.4-1.2 2.1 2.1 0 0 0-1.2-.4l-1.2.3-.8.3c-.2 0-.3 0-.4-.2l-.1-.4c0-.2.3-.5.8-.7l1.9-.2a2.1 2.1 0 0 1 2.4 2.4v3.1h1a.5.5 0 0 1 .2.4l-.2.3h-1.8v-.7zm0-2.2l-.8-.2h-.7a3.5 3.5 0 0 0-1.6.3 1.2 1.2 0 0 0-.6 1 1.1 1.1 0 0 0 .3.8 1.7 1.7 0 0 0 1 .3 3 3 0 0 0 1.6-.5c.5-.3.8-.6.8-.9zm9.6 2.7a4.2 4.2 0 0 1-.1 1.3.9.9 0 0 1-.3.7 2.3 2.3 0 0 1-1.1.8 3.8 3.8 0 0 1-1.6.3l-1.1-.2c-.3-.1-.4-.2-.4-.5l.2-.3.4-.2h1.1a2.1 2.1 0 0 0 1.5-.4 2.5 2.5 0 0 0 .4-1.6v-.9a1.8 1.8 0 0 1-.9.7l-1.2.3a2.9 2.9 0 0 1-2.1-.9 2.8 2.8 0 0 1-.8-2.1 2.9 2.9 0 0 1 .8-2.2 2.9 2.9 0 0 1 2.2-.9l1 .2a2.7 2.7 0 0 1 1 .6v-.5l.1-.2h1.3l.4.2.2.3a.5.5 0 0 1-.2.4h-.8zm-2.9-5a2 2 0 0 0-1.5.6 1.8 1.8 0 0 0-.6 1.4 2 2 0 0 0 .6 1.5 2.5 2.5 0 0 0 1.5.5 2.4 2.4 0 0 0 1.4-.5 2 2 0 0 0 .6-1.5 2.1 2.1 0 0 0-2-2zm6.2 2.5a2.2 2.2 0 0 0 2.4 2.1 4.1 4.1 0 0 0 1.7-.5l1.2-.4h.3l.1.4a.4.4 0 0 1-.1.3l-.5.3a3.4 3.4 0 0 1-1.4.5 3.4 3.4 0 0 1-1.4.2 3.3 3.3 0 0 1-2.5-5.7 3.9 3.9 0 0 1 2.6-.9 3.2 3.2 0 0 1 2.4.8 2.6 2.6 0 0 1 1 2.1.8.8 0 0 1-.2.6h-5.6zm.1-.9h4.4a1.7 1.7 0 0 0-.7-1.3 2 2 0 0 0-1.4-.5 2.5 2.5 0 0 0-1.5.5 2 2 0 0 0-.8 1.3zm9.4 2.8a1.1 1.1 0 0 1 .3-.8l.9-.3a1.7 1.7 0 0 1 1 .3 1.2 1.2 0 0 1 0 1.6 1.7 1.7 0 0 1-1 .3l-.9-.3a1.1 1.1 0 0 1-.3-.8zm2-6.7l-.2 4.4c0 .2 0 .3-.2.4l-.4.2-.3-.2a.5.5 0 0 1-.2-.4l-.2-4.4a.7.7 0 0 1 .2-.6l.5-.2.6.2a.7.7 0 0 1 .2.6zm6.4 1.7h-.3l-.1-.4-.2-2.5.1-.2h1.1l.1.2-.2 2.5-.1.4h-.4zm2.4 0h-.3a.8.8 0 0 0-.1-.4l-.2-2.5v-.2h1.1l.1.2-.2 2.5-.1.4h-.4zm9.1 1.6l-5-2.3-.5-.2-.1-.4a.4.4 0 0 1 .1-.3h.6l.3.2 5.4 2.5h.1q.6.3.6.6t-.6.6l-.1.1-5.4 2.5-.5.2h-.4l-.1-.4a.4.4 0 0 1 .1-.3l.5-.3z"/><path class="cls-4" d="M370.7 101.7a1.2 1.2 0 0 1 1.3-1.2 1.5 1.5 0 0 1 1 .3 1.2 1.2 0 0 1 0 1.8 1.5 1.5 0 0 1-1 .3 1.2 1.2 0 0 1-.9-.3 1 1 0 0 1-.4-.9zm11.8-4.8l.1-.3h.8l.1.7v1.3l-.1.3-.4.2h-.3a1.1 1.1 0 0 1-.3-.5l-.8-.8a2.3 2.3 0 0 0-1.1-.3 2.8 2.8 0 0 0-1.8.6 2.5 2.5 0 0 0-.6 1.7 2.3 2.3 0 0 0 .6 1.6 2.1 2.1 0 0 0 1.7.7l.8-.2a1.9 1.9 0 0 0 .8-.3l.4-.3.7-.3h.3a.4.4 0 0 1 .1.3c0 .4-.3.8-1 1.1a4.3 4.3 0 0 1-2.2.6 3.1 3.1 0 0 1-2.4-1 2.9 2.9 0 0 1-1-2.3 3 3 0 0 1 1-2.4 3.5 3.5 0 0 1 2.4-1l1.1.2zm9.9 2.8a3.1 3.1 0 0 1-1 2.4 3.6 3.6 0 0 1-2.6.9 3.9 3.9 0 0 1-2.6-.9 3.4 3.4 0 0 1-.9-2.4 3.2 3.2 0 0 1 .9-2.4 3.9 3.9 0 0 1 2.6-.9 3.6 3.6 0 0 1 2.6.9 3 3 0 0 1 1 2.4zm-3.6 2.3a2.8 2.8 0 0 0 1.8-.6 2.5 2.5 0 0 0 .6-1.7 2.4 2.4 0 0 0-.6-1.7 2.4 2.4 0 0 0-1.8-.7 2.2 2.2 0 0 0-1.7.7 2.4 2.4 0 0 0-.7 1.7 2.6 2.6 0 0 0 .7 1.7 2.5 2.5 0 0 0 1.7.6zm5.9-.1v-4.4h-.8a.5.5 0 0 1 0-.8h1.7l.1.2v.5a2.6 2.6 0 0 1 1-.7 1.9 1.9 0 0 1 1-.3 2.4 2.4 0 0 1 1.7.7 3 3 0 0 1 .5 1.8v3.1h.9a.4.4 0 0 1 .1.3l-.1.4h-2.7l-.1-.4.1-.3h.8v-3a1.6 1.6 0 0 0-.4-1.2 1.1 1.1 0 0 0-1-.4 1.3 1.3 0 0 0-1.2.5 1.4 1.4 0 0 0-.6 1.1v2.9h.8l.2.3-.2.4h-2.6l-.1-.4.1-.3h.8zm12.8-5h.5l.1.4-.1.3-.4.2h-2.8v2.2a2.4 2.4 0 0 0 .3 1.5 1.1 1.1 0 0 0 1 .4 3.4 3.4 0 0 0 1.5-.4l1.1-.4.3.2a.4.4 0 0 1 .1.3c0 .2 0 .3-.2.4l-.5.3-1.2.4-1 .2a2.9 2.9 0 0 1-1.4-.3 2 2 0 0 1-.8-.8.8.8 0 0 1-.2-.5l-.1-1v-2.4h-1.1a.5.5 0 0 1-.4-.2l-.2-.3a.5.5 0 0 1 .2-.4h1.5v-1.9a.5.5 0 0 1 .2-.4h.8l.1.8v1.4zm4.2 3.1a2.6 2.6 0 0 0 .7 1.5 2.3 2.3 0 0 0 1.7.5 3.8 3.8 0 0 0 1.7-.4l1.1-.4h.4a.4.4 0 0 1 .1.3l-.1.4-.5.3-1.4.5-1.4.2a3.3 3.3 0 0 1-2.5-.9 3 3 0 0 1-1-2.4 3.3 3.3 0 0 1 1-2.4 3.5 3.5 0 0 1 2.6-1 3.2 3.2 0 0 1 2.4.9 3 3 0 0 1 1 2.1c0 .3-.1.5-.2.5a1.4 1.4 0 0 1-.9.2h-4.7zm.1-.9h4.4a1.9 1.9 0 0 0-.7-1.3 1.7 1.7 0 0 0-1.4-.5 2.4 2.4 0 0 0-1.5.4 2.5 2.5 0 0 0-.8 1.4zm8.1 2.8v-4.4h-.8l-.1-.4.1-.4h1.7l.1.2v.5a2.6 2.6 0 0 1 1-.7 1.9 1.9 0 0 1 1-.3 2.4 2.4 0 0 1 1.7.7 3 3 0 0 1 .5 1.8v3.1h.9a.4.4 0 0 1 .1.3l-.1.4h-2.7l-.1-.4.1-.3h.8v-3a2.1 2.1 0 0 0-.3-1.2 1.4 1.4 0 0 0-1.1-.4 1.3 1.3 0 0 0-1.2.5 1.4 1.4 0 0 0-.6 1.1v2.9h.8l.2.3-.2.4h-2.6l-.1-.4.1-.3h.8zm12.8-5h.5l.1.4-.1.3-.4.2H430v2.2a2.4 2.4 0 0 0 .3 1.5 1.1 1.1 0 0 0 1 .4 3.4 3.4 0 0 0 1.5-.4l1.1-.4.3.2a.4.4 0 0 1 .1.3c0 .2 0 .3-.2.4l-.5.3-1.2.4-1 .2a2.9 2.9 0 0 1-1.4-.3 2 2 0 0 1-.8-.8.8.8 0 0 1-.2-.5v-3.4h-1.2l-.4-.2-.2-.3a.5.5 0 0 1 .2-.4h1.6v-1.9l.1-.4h.8l.1.8v1.4zm3.7 3.4h-.2l-.1-.2v-.7l.1-.2h6.1l.1.2v.7l-.1.2h-5.9zm11.9 1.6h2.6a.4.4 0 0 1 .1.3l-.1.4h-6.2l-.1-.4a.4.4 0 0 1 .1-.3h2.5v-4.4h-1.3l-.4-.2-.2-.3a.5.5 0 0 1 .2-.4h2.7v5.3zm-1.3-7.4a5.5 5.5 0 0 1 .1-.9.8.8 0 0 1 .6-.2l.6.2.1.7-.1.8h-1.2a3.5 3.5 0 0 1-.1-.6zm11.6 4.5a3.5 3.5 0 0 0-.2-1.3.6.6 0 0 0-.6-.3.9.9 0 0 0-.8.4 2.1 2.1 0 0 0-.3 1.2v2.9h.7l.1.3-.1.4h-1.6l-.1-.6v-3.5a1 1 0 0 0-.3-.8.6.6 0 0 0-.6-.3.7.7 0 0 0-.6.2l-.4.5v3.8h.8l.2.3-.2.4H452l-.1-.4.1-.3h.8v-4.4h-.8a.5.5 0 0 1 0-.8h1.7l.1.3.6-.4.7-.2a1.5 1.5 0 0 1 .8.2 1.8 1.8 0 0 1 .5.7l.7-.7.8-.2a1.5 1.5 0 0 1 1.3.6 3.2 3.2 0 0 1 .4 1.9v3.1h.7l.1.3-.1.4h-1.6l-.1-.6zm7.4 3a3.7 3.7 0 0 1-1.2.7 3.2 3.2 0 0 1-1.4.3 2.3 2.3 0 0 1-1.6-.6 1.7 1.7 0 0 1-.6-1.4 1.8 1.8 0 0 1 .8-1.7 3.9 3.9 0 0 1 2.3-.6h.8l.9.2a1.4 1.4 0 0 0-1.6-1.5l-1.2.3-.8.3-.4-.2-.1-.4c0-.2.3-.5.8-.7a5 5 0 0 1 1.9-.3 2.5 2.5 0 0 1 1.8.7 2.4 2.4 0 0 1 .6 1.8v3.1h1l.2.3a.5.5 0 0 1-.2.4h-1.8l-.1-.3zm0-2.2l-.8-.2h-.7a3.5 3.5 0 0 0-1.6.3 1.2 1.2 0 0 0-.6 1 .9.9 0 0 0 .3.7 1.7 1.7 0 0 0 1 .3 2.9 2.9 0 0 0 1.6-.4c.5-.3.8-.6.8-1zm9.6 2.7a4.2 4.2 0 0 1-.1 1.3.9.9 0 0 1-.3.7 2.3 2.3 0 0 1-1.1.8 3.8 3.8 0 0 1-1.6.3l-1.1-.2a.5.5 0 0 1-.4-.5l.2-.3.4-.2h1.1a2.1 2.1 0 0 0 1.5-.5 2.2 2.2 0 0 0 .4-1.6v-.8a2.8 2.8 0 0 1-.9.7 2.5 2.5 0 0 1-1.2.2 2.8 2.8 0 0 1-2.1-.8 2.9 2.9 0 0 1-.8-2.2 2.6 2.6 0 0 1 .8-2.1 2.9 2.9 0 0 1 2.2-.9l1 .2a2.7 2.7 0 0 1 1 .6v-.5l.1-.2h1.7a.5.5 0 0 1 0 .8h-.8zm-2.9-5a2 2 0 0 0-1.5.6 1.9 1.9 0 0 0 0 2.8 2 2 0 0 0 1.5.6 2 2 0 0 0 1.4-.6 1.7 1.7 0 0 0 .6-1.4 1.8 1.8 0 0 0-.6-1.4 2 2 0 0 0-1.4-.6zm6.2 2.5a2.6 2.6 0 0 0 .7 1.5 2.3 2.3 0 0 0 1.7.5 3.8 3.8 0 0 0 1.7-.4l1.2-.4h.3a.4.4 0 0 1 .1.3l-.1.4-.5.3-1.4.5-1.4.2a3.3 3.3 0 0 1-2.5-5.7 3.5 3.5 0 0 1 2.6-1 3.2 3.2 0 0 1 2.4.9 3 3 0 0 1 1 2.1c0 .3-.1.5-.2.5a1.4 1.4 0 0 1-.9.2h-4.7zm.1-.9h4.4a1.6 1.6 0 0 0-.7-1.3 1.6 1.6 0 0 0-1.4-.5 2.4 2.4 0 0 0-1.5.4 2.5 2.5 0 0 0-.8 1.4zm18.5.6a1.3 1.3 0 0 1 1 .7 3 3 0 0 1 .3 1.6v1l.1.9a.9.9 0 0 0 .6.4h.2q.6.2.6.6l-.1.3-.5.2a1.8 1.8 0 0 1-1.6-.6 3.7 3.7 0 0 1-.5-2.2v-.8a2.7 2.7 0 0 0-.2-1.1 1.9 1.9 0 0 0-1.1-.5h-.4l-.1-.4.1-.4h.6a1.5 1.5 0 0 0 1.1-1.6V97a4 4 0 0 1 .5-2.2 2.3 2.3 0 0 1 1.6-.5h.5l.1.4c0 .2-.2.5-.6.5h-.2a.9.9 0 0 0-.6.4 2.5 2.5 0 0 0-.1 1v1a3.2 3.2 0 0 1-.3 1.6 2 2 0 0 1-1 .5zm-108.7 16.5l-.9 3.2a.5.5 0 0 1-.2.4h-.4l-.4-.2a.5.5 0 0 1-.2-.4l-1.6-5h-.5l-.1-.4.1-.4h2.3l.4.1a.5.5 0 0 1 .2.4.4.4 0 0 1-.1.3h-1.2l1.1 4.1.9-3 .2-.4h.4l.4.2.3.4.8 2.9 1.2-4.1h-1.1a.5.5 0 0 1-.2-.4l.1-.4h2.7l.1.4a.5.5 0 0 1-.2.4h-.4l-1.6 5.1a.5.5 0 0 1-.2.4h-.4l-.4-.2-.2-.4zm9.1 2.5h2.6l.1.3a1 1 0 0 1-.1.4h-6.2l-.1-.4a.4.4 0 0 1 .1-.3h2.5v-4.4h-1.3a.5.5 0 0 1-.4-.2l-.2-.3a.5.5 0 0 1 .2-.4h2.7v5.3zm-1.3-7.4a5.5 5.5 0 0 1 .1-.9 1 1 0 0 1 1.2 0l.1.7-.1.8h-1.2a3.5 3.5 0 0 1-.1-.6zm11.1 8.3h-.2l-.1-.3v-.6a2 2 0 0 1-1 .8 2.8 2.8 0 0 1-1.3.3 2.9 2.9 0 0 1-2.2-.9 3.2 3.2 0 0 1-.9-2.3 3.5 3.5 0 0 1 1-2.4 3.2 3.2 0 0 1 2.3-.9l1.3.2.9.8v-2.6h-1.1a.5.5 0 0 1 0-.8h2.1v8h.8l.2.3-.1.4h-1.7zm-4.5-3a2 2 0 0 0 .6 1.5 2.1 2.1 0 0 0 1.6.6 2 2 0 0 0 1.5-.6 2.4 2.4 0 0 0 0-3.2 2 2 0 0 0-1.5-.6 2.1 2.1 0 0 0-1.6.6 2.4 2.4 0 0 0-.6 1.7zm12.7-2.9h.5l.1.4-.1.3a.5.5 0 0 1-.4.2h-2.8v2.2a2.4 2.4 0 0 0 .3 1.5 1.1 1.1 0 0 0 1 .4 3.4 3.4 0 0 0 1.5-.4l1.1-.4.3.2a.4.4 0 0 1 .1.3c0 .2 0 .3-.2.4l-.5.3-1.2.4-1 .2a2.9 2.9 0 0 1-1.4-.3 2 2 0 0 1-.8-.8.8.8 0 0 1-.2-.5v-3.5H411a.5.5 0 0 1-.4-.2l-.2-.3a.5.5 0 0 1 .2-.4h1.6v-1.8l.1-.4h.8l.1.8v1.4zm4 5v-7h-.8a.5.5 0 0 1 0-.8h1.7l.1.2v3.1a2 2 0 0 1 1-.7 1.9 1.9 0 0 1 1-.3 2.2 2.2 0 0 1 1.6.7 2.4 2.4 0 0 1 .6 1.8v3.1h.8l.2.3-.1.4h-2.7l-.1-.4.1-.3h.8v-2.9a1.6 1.6 0 0 0-.4-1.2 1.2 1.2 0 0 0-1-.4 1.7 1.7 0 0 0-1.3.5 1.6 1.6 0 0 0-.5 1.1v2.9h.8l.1.3-.1.4h-2.6a.5.5 0 0 1-.2-.4l.2-.3h.8zm9.6-4a.9.9 0 0 1 .4-.8 1 1 0 0 1 .9-.4 1.5 1.5 0 0 1 1 .3 1.2 1.2 0 0 1 .4.9 1 1 0 0 1-.4.9 1.5 1.5 0 0 1-1 .3 1.2 1.2 0 0 1-.9-.3 1 1 0 0 1-.4-.9zm0 3.8a1.2 1.2 0 0 1 1.3-1.2 1.5 1.5 0 0 1 1 .3 1.2 1.2 0 0 1 0 1.8 1.5 1.5 0 0 1-1 .3 1.2 1.2 0 0 1-.9-.3 1 1 0 0 1-.4-.9zm15.8 1.1h-.6a.7.7 0 0 1-.1-.5c0-.3.4-.8 1.3-1.6l.2-.2.5-.6c1.6-1.5 2.4-2.5 2.4-3.2a1.5 1.5 0 0 0-1.5-1.7l-.8.2a1.8 1.8 0 0 0-.7.5v.2a.5.5 0 0 1-.5.4h-.5l-.1-.6v-.4l.2-.2a4.1 4.1 0 0 1 1.1-.7l1.3-.2a2.6 2.6 0 0 1 2.7 2.5c0 .9-.8 2.1-2.3 3.6l-.9.8-.9.9h3.1l.2-.5.4-.2.3.2.1.4v.9h-4.8zm9.2-5.3l.8-.3h.8a2.6 2.6 0 0 1 2 .8 3 3 0 0 1-.1 4.2 3.2 3.2 0 0 1-2.3.9 5.3 5.3 0 0 1-1.9-.4c-.5-.2-.8-.4-.8-.7l.2-.3.3-.2.8.3a3.5 3.5 0 0 0 1.4.3 1.7 1.7 0 0 0 1.4-.6 1.8 1.8 0 0 0 .6-1.4 2.2 2.2 0 0 0-.5-1.4 1.8 1.8 0 0 0-1.4-.6 2.7 2.7 0 0 0-1.2.3l-.7.3h-.3l-.1-.6v-3.4l.2-.3h4.4l.2.4a.5.5 0 0 1-.2.4l-.5.2h-3.1zm8.3.8l.8-.7 1-.2a2.6 2.6 0 0 1 1.9.8 2.7 2.7 0 0 1 .7 2 3.1 3.1 0 0 1-.7 2.1 2.6 2.6 0 0 1-1.9.8 2.5 2.5 0 0 1-2.1-1.1 4.4 4.4 0 0 1-.9-2.9 5.5 5.5 0 0 1 1.2-3.7 4.2 4.2 0 0 1 3.2-1.4h.9l.2.3c0 .1-.3.5-.8.5h-.9a2.7 2.7 0 0 0-1.7 1 4.3 4.3 0 0 0-.9 2.5zm.2 1.9a1.8 1.8 0 0 0 .4 1.3 1.4 1.4 0 0 0 1.2.6 1.2 1.2 0 0 0 1-.5 2.1 2.1 0 0 0 .5-1.3 2.2 2.2 0 0 0-.5-1.4 1.4 1.4 0 0 0-1.1-.5 1.6 1.6 0 0 0-1.1.5 1.7 1.7 0 0 0-.4 1.3zm8.1 4.4h2l.1.4-.1.3-.4.2h-3l-.5-.2a.4.4 0 0 1-.1-.3.5.5 0 0 1 .2-.4h.8v-7.1h-.8a.5.5 0 0 1-.2-.4l.1-.4h1.8l.1.2v.7a2.5 2.5 0 0 1 1-.8l1.2-.2a3.2 3.2 0 0 1 2.3.9 3.2 3.2 0 0 1 .9 2.4 2.9 2.9 0 0 1-.8 2.2 3.1 3.1 0 0 1-2.3.8 3 3 0 0 1-1.3-.2 2.5 2.5 0 0 1-1-.8zm2.1-2.8a2.3 2.3 0 0 0 1.6-.6 2.2 2.2 0 0 0 0-3 2.6 2.6 0 0 0-1.6-.7 2.1 2.1 0 0 0-1.5.7 2.1 2.1 0 0 0 1.5 3.6zm6.6.1h.7l.2.3a.5.5 0 0 1-.2.4h-2.8l-.1-.4.2-.3h.7l2.2-2.3-2.1-2.1h-.7l-.1-.4.1-.4h2.6c.2.1.2.2.2.4a.5.5 0 0 1-.2.4h-.6l1.5 1.4 1.4-1.4h-.7a.5.5 0 0 1 0-.8h2.6a.5.5 0 0 1 0 .8h-.8l-1.9 2 2.4 2.4h.4l.2.3-.2.4h-2.6a.5.5 0 0 1-.2-.4l.2-.3h.8l-1.7-1.7zm9-.7a.4.4 0 0 1 .1-.3h1.9l-1.8 3.7-.1.2h-.3l-.4-.2h-.2zm-.5-3.3a1.1 1.1 0 0 1 .3-.8 1.3 1.3 0 0 1 1-.4 1.7 1.7 0 0 1 1 .3 1.8 1.8 0 0 1 .4.9 1.3 1.3 0 0 1-.4.9 1.8 1.8 0 0 1-2 0 1.2 1.2 0 0 1-.3-.9zm-102 20.8v-7h-.8a.5.5 0 0 1 0-.8h1.7l.1.2v3.1a2 2 0 0 1 1-.7 1.7 1.7 0 0 1 1-.3 2.2 2.2 0 0 1 1.6.7 2.4 2.4 0 0 1 .6 1.8v3.1h.8l.2.3a.5.5 0 0 1-.2.4h-2.6l-.1-.4.1-.3h.8v-2.9a1.6 1.6 0 0 0-.4-1.2 1.2 1.2 0 0 0-1-.4 1.7 1.7 0 0 0-1.3.5 1.6 1.6 0 0 0-.5 1.1v2.9h.8l.1.3-.1.4h-2.6a.5.5 0 0 1-.2-.4l.2-.3h.8zm8.6-1.9a2.6 2.6 0 0 0 .7 1.5 2.3 2.3 0 0 0 1.7.5 3.8 3.8 0 0 0 1.7-.4l1.1-.4h.4a.4.4 0 0 1 .1.3l-.1.4-.5.3-1.4.5-1.4.2a3.3 3.3 0 0 1-2.5-.9 3 3 0 0 1-1-2.4 3.3 3.3 0 0 1 1-2.4 3.4 3.4 0 0 1 2.6-1 3.2 3.2 0 0 1 2.4.9 3 3 0 0 1 1 2.1c0 .3-.1.5-.2.5a1.4 1.4 0 0 1-.9.2h-4.7zm.1-.9h4.4a1.9 1.9 0 0 0-.7-1.3 1.7 1.7 0 0 0-1.4-.5 2.4 2.4 0 0 0-1.5.4 2.5 2.5 0 0 0-.8 1.4zm11.3 2.8h2.6v.3a1 1 0 0 1-.1.4h-6.2l-.1-.4a.4.4 0 0 1 .1-.3h2.5v-4.4h-1.3l-.4-.2-.2-.3a.5.5 0 0 1 .2-.4h2.7v5.3zm-1.3-7.4a5.5 5.5 0 0 1 .1-.9.8.8 0 0 1 .6-.2l.6.2.1.7-.1.8h-1.2a3.5 3.5 0 0 1-.1-.6zm11.8 8a4.2 4.2 0 0 1-.1 1.3 1.5 1.5 0 0 1-.3.7 2.3 2.3 0 0 1-1.1.8 3.8 3.8 0 0 1-1.6.3l-1.1-.2a.5.5 0 0 1-.4-.5c0-.1 0-.2.2-.3l.4-.2h1.1a2.1 2.1 0 0 0 1.5-.5 2.8 2.8 0 0 0 .4-1.6v-.8a2.8 2.8 0 0 1-.9.7 2.5 2.5 0 0 1-1.2.2 2.6 2.6 0 0 1-2.1-.8 2.9 2.9 0 0 1-.9-2.2 2.7 2.7 0 0 1 .9-2.1 2.9 2.9 0 0 1 2.1-.9l1.1.2 1 .6v-.5l.1-.2h1.7l.1.4-.1.4h-.8zm-3-5a1.8 1.8 0 0 0-1.4.6 1.9 1.9 0 0 0 0 2.8 1.8 1.8 0 0 0 1.4.6 2 2 0 0 0 1.5-.6 1.7 1.7 0 0 0 .6-1.4 1.8 1.8 0 0 0-.6-1.4 2 2 0 0 0-1.5-.6zm6.1 4.4v-7h-.8a.5.5 0 0 1 0-.8h1.7l.1.2v3.1a2 2 0 0 1 1-.7 1.9 1.9 0 0 1 1-.3 2.2 2.2 0 0 1 1.6.7 2.4 2.4 0 0 1 .6 1.8v3.1h.8l.2.3-.1.4h-2.7l-.1-.4.1-.3h.8v-2.9a1.6 1.6 0 0 0-.4-1.2 1.2 1.2 0 0 0-1-.4 1.7 1.7 0 0 0-1.3.5 1.6 1.6 0 0 0-.5 1.1v2.9h.8l.1.3-.1.4h-2.6a.5.5 0 0 1-.2-.4l.2-.3h.8zm12.8-5h.5l.1.4-.1.3-.4.2H430v2.2a2.4 2.4 0 0 0 .3 1.5 1.1 1.1 0 0 0 1 .4 3.4 3.4 0 0 0 1.5-.4l1.1-.4.3.2a.4.4 0 0 1 .1.3c0 .2 0 .3-.2.4l-.5.3-1.2.4-1 .2a2.9 2.9 0 0 1-1.4-.3 2 2 0 0 1-.8-.8.8.8 0 0 1-.2-.5v-3.5h-1.2l-.4-.2-.2-.3a.5.5 0 0 1 .2-.4h1.6v-1.8l.1-.4h.8l.1.8v1.4zm5.2 1a.9.9 0 0 1 .4-.8 1 1 0 0 1 .9-.4 1.5 1.5 0 0 1 1 .3 1.2 1.2 0 0 1 .4.9 1 1 0 0 1-.4.9 1.5 1.5 0 0 1-1 .3 1.2 1.2 0 0 1-.9-.3 1 1 0 0 1-.4-.9zm0 3.8a1.2 1.2 0 0 1 1.3-1.2 1.5 1.5 0 0 1 1 .3 1.2 1.2 0 0 1 0 1.8 1.5 1.5 0 0 1-1 .3 1.2 1.2 0 0 1-.9-.3 1 1 0 0 1-.4-.9zm16.5-6.2h-.5l-.2-.3v-.3l.4-.2 2-.5h.5l.1.4v7.4h1.8c.2 0 .2.2.2.3l-.1.4h-4.9a.5.5 0 0 1-.2-.4l.2-.3h1.9v-6.7zm11.6 3.2a2.7 2.7 0 0 1-.8.7 1.6 1.6 0 0 1-1 .2 2.2 2.2 0 0 1-1.8-.8 2.9 2.9 0 0 1 0-4 2.1 2.1 0 0 1 1.8-.8 2.5 2.5 0 0 1 2.2 1.1 4.7 4.7 0 0 1 .8 2.8 5.8 5.8 0 0 1-1.2 3.8 4.2 4.2 0 0 1-3.2 1.4h-.9a.5.5 0 0 1-.2-.4c0-.3.3-.4.8-.5h.9a3.4 3.4 0 0 0 1.8-1.1 5.2 5.2 0 0 0 .8-2.4zm-.1-1.8a2 2 0 0 0-.5-1.4 1.3 1.3 0 0 0-1.1-.5 1.2 1.2 0 0 0-1.1.5 1.7 1.7 0 0 0-.4 1.3 1.8 1.8 0 0 0 .4 1.3 1.3 1.3 0 0 0 1.1.5 1.2 1.2 0 0 0 1.1-.5 1.7 1.7 0 0 0 .5-1.2zm4.6 5.9h-.6a.7.7 0 0 1-.1-.5c0-.3.4-.8 1.3-1.6l.2-.2.5-.6c1.6-1.5 2.4-2.5 2.4-3.2a1.6 1.6 0 0 0-.4-1.2 1.4 1.4 0 0 0-1.1-.5l-.8.2a1 1 0 0 0-.6.5l-.2.2a.5.5 0 0 1-.5.4h-.4l-.1-.6.1-.4v-.2a4.1 4.1 0 0 1 1.1-.7l1.3-.2a2.6 2.6 0 0 1 2.7 2.5c0 .9-.8 2.1-2.3 3.6l-.9.8-.9.9h3.1l.2-.5a.5.5 0 0 1 .4-.2l.3.2a.5.5 0 0 1 .2.4h-.1v.6l-.1.3h-4.8zm9 1.8h2l.1.4-.1.3-.4.2h-3l-.5-.2a.4.4 0 0 1-.1-.3.5.5 0 0 1 .2-.4h.8v-7.1h-.8a.5.5 0 0 1-.2-.4l.1-.4h1.8l.1.2v.7a2.5 2.5 0 0 1 1-.8l1.2-.2a3.2 3.2 0 0 1 2.3.9 3.2 3.2 0 0 1 .9 2.4 2.9 2.9 0 0 1-.8 2.2 3.1 3.1 0 0 1-2.3.8 3 3 0 0 1-1.3-.2 2.5 2.5 0 0 1-1-.8zm2.1-2.8a2.3 2.3 0 0 0 1.6-.6 2.2 2.2 0 0 0 0-3 2.4 2.4 0 0 0-1.6-.7 2.1 2.1 0 0 0-1.5.7 2.1 2.1 0 0 0 1.5 3.6zm6.6.1h.7l.2.3a.5.5 0 0 1-.2.4h-2.8l-.1-.4.2-.3h.7l2.2-2.3-2.1-2.1h-.7l-.1-.4.1-.4h2.6c.2.1.2.2.2.4a.5.5 0 0 1-.2.4h-.6l1.5 1.4 1.4-1.4h-.7a.5.5 0 0 1 0-.8h2.6a.5.5 0 0 1 0 .8h-.8l-1.9 2 2.4 2.4h.4l.2.3-.2.4h-2.6a.5.5 0 0 1-.2-.4l.2-.3h.8l-1.7-1.7zm9-.7a.4.4 0 0 1 .1-.3h1.9l-1.8 3.7v.2h-.4l-.4-.2h-.2zm-.5-3.3a1.1 1.1 0 0 1 .3-.8 1.3 1.3 0 0 1 1-.4 1.7 1.7 0 0 1 1 .3 1.8 1.8 0 0 1 .4.9 1.3 1.3 0 0 1-.4.9 1.8 1.8 0 0 1-2 0 1.2 1.2 0 0 1-.3-.9zm-124.2 18.6a2.2 2.2 0 0 1-.9-.7 3.2 3.2 0 0 1-.3-1.6v-1a2.5 2.5 0 0 0-.1-1 .6.6 0 0 0-.6-.3h-.2c-.4 0-.6-.2-.6-.5l.1-.4h.4a2.5 2.5 0 0 1 1.7.5 4 4 0 0 1 .5 2.2v.8c0 .9.3 1.4 1.1 1.6h.6l.1.4-.1.3-.3.2h-.2a1.3 1.3 0 0 0-1.2 1.5v.8a3.7 3.7 0 0 1-.5 2.2 2 2 0 0 1-1.6.6l-.5-.2-.1-.4c0-.2.2-.4.6-.5h.1l.6-.3c.2-.2.2-.5.2-1v-1a3 3 0 0 1 .3-1.6 1.6 1.6 0 0 1 .9-.6z"/><path class="cls-3" d="M158.4 301.1v1.3H152v3.6h6v1.3h-6v4h6.4v1.2h-7.9v-11.4zm.8 0h1.9l2.8 4.5 3-4.5h1.7l-3.8 5.6 4 5.8H167l-3.1-4.7-3.2 4.7H159l4-5.8zm9.6 1.3v-1.3h9.2v1.3h-3.8v10.1h-1.6v-10.1zm15.8-1.3a4.2 4.2 0 0 1 2.6.8 2.8 2.8 0 0 1 .9 2.2 3.5 3.5 0 0 1-.5 1.8 2.2 2.2 0 0 1-1.5 1.1l.8.4.5.5.3.7.1.8a2.2 2.2 0 0 0 .1.8v.9l.2.8a2.1 2.1 0 0 0 .4.6h-1.7a.5.5 0 0 1-.2-.4 1.7 1.7 0 0 1-.1-.7v-.8l-.1-.9-.2-.8-.3-.6a1.2 1.2 0 0 0-.5-.5h-4.6v4.8h-1.6v-11.5zm.3 5.2l.9-.3.5-.6a1.8 1.8 0 0 0 .3-1.1 2.4 2.4 0 0 0-.5-1.4 2.3 2.3 0 0 0-1.6-.5h-3.7v4h4.1zm6.9-5.2v11.4h-1.5v-11.4zm4.1 0l6.1 9.3v-9.3h1.4v11.4h-1.6l-6-9.1v9.1h-1.5v-11.4zm15.7 1.6a2.9 2.9 0 0 0-1.9-.6h-1l-.8.3-.6.6a3 3 0 0 0-.2 1 1.1 1.1 0 0 0 .3.8l.8.6 1.2.3 1.4.3 1.3.4a3.4 3.4 0 0 1 1.2.6 2.4 2.4 0 0 1 .8.9 2.9 2.9 0 0 1 .3 1.4 2.9 2.9 0 0 1-.4 1.6l-1 1a3.9 3.9 0 0 1-1.5.6l-1.5.2-1.9-.2-1.5-.8a4 4 0 0 1-1-1.2 4.8 4.8 0 0 1-.4-1.8h1.5a2.1 2.1 0 0 0 .3 1.2c.1.4.4.6.7.9a2.8 2.8 0 0 0 1.1.5h2.2a1.7 1.7 0 0 0 1-.3l.6-.6a1.8 1.8 0 0 0 .3-1.1 1.4 1.4 0 0 0-.3-.9 1.6 1.6 0 0 0-.8-.6l-1.2-.4-1.4-.3-1.3-.3a6.7 6.7 0 0 1-1.2-.6 3 3 0 0 1-.8-.8 2.8 2.8 0 0 1-.3-1.3 3.3 3.3 0 0 1 .3-1.5 5.2 5.2 0 0 1 1-1.1l1.3-.6 1.5-.2 1.7.2 1.3.7a3.1 3.1 0 0 1 .9 1.1 4.3 4.3 0 0 1 .3 1.7h-1.4a2.2 2.2 0 0 0-.9-1.7zm6.2-1.6v11.4h-1.5v-11.4zm9.5 1.6a3.7 3.7 0 0 0-2.1-.6 3.3 3.3 0 0 0-1.7.4 4 4 0 0 0-1.2 1 5.1 5.1 0 0 0-.7 1.5 5 5 0 0 0-.2 1.7 5.8 5.8 0 0 0 .2 1.9 3.5 3.5 0 0 0 .7 1.5 2.9 2.9 0 0 0 1.2 1 3.3 3.3 0 0 0 1.7.4l1.4-.2 1-.7a4.1 4.1 0 0 0 .7-1.1 5.1 5.1 0 0 0 .2-1.3h1.6a5.7 5.7 0 0 1-1.5 3.4 5 5 0 0 1-3.5 1.2 5.6 5.6 0 0 1-2.3-.5 4 4 0 0 1-1.6-1.2 5 5 0 0 1-1-1.9 7.1 7.1 0 0 1 0-4.7 5.7 5.7 0 0 1 1-1.9 5.5 5.5 0 0 1 1.7-1.3 5.9 5.9 0 0 1 2.3-.5 4.7 4.7 0 0 1 1.7.3 3.5 3.5 0 0 1 1.5.7 5.2 5.2 0 0 1 1 1.1 4.3 4.3 0 0 1 .6 1.7h-1.6a2.5 2.5 0 0 0-1.1-1.9zm14.8 0a2.9 2.9 0 0 0-1.9-.6h-1l-.8.3-.6.6a3 3 0 0 0-.2 1 1.1 1.1 0 0 0 .3.8l.9.6 1.1.3 1.4.3 1.3.4a3.4 3.4 0 0 1 1.2.6 2.4 2.4 0 0 1 .8.9 2.9 2.9 0 0 1 .3 1.4 2.9 2.9 0 0 1-.4 1.6l-1 1a3.9 3.9 0 0 1-1.5.6l-1.5.2-1.9-.2-1.5-.8a4 4 0 0 1-1-1.2 4.8 4.8 0 0 1-.4-1.8h1.5a2.1 2.1 0 0 0 .3 1.2 3.1 3.1 0 0 0 .7.9l1.1.5h2.2a1.7 1.7 0 0 0 1-.3l.7-.6a3.1 3.1 0 0 0 .2-1.1 1.4 1.4 0 0 0-.3-.9 1.6 1.6 0 0 0-.8-.6l-1.2-.4-1.3-.3-1.4-.3a6.7 6.7 0 0 1-1.2-.6 3 3 0 0 1-.8-.8 2.8 2.8 0 0 1-.3-1.3 3.3 3.3 0 0 1 .3-1.5 5.2 5.2 0 0 1 1-1.1l1.3-.6 1.5-.2 1.7.2 1.3.7a3.1 3.1 0 0 1 .9 1.1 4.3 4.3 0 0 1 .3 1.7H243a2.2 2.2 0 0 0-.9-1.7zm6.3-1.6v11.4h-1.6v-11.4zm8.7 1.3h-6.5v-1.3h8.3v1.3l-7.1 8.9h7.3v1.2H250v-1.2zm11.5-1.3v1.3h-6.4v3.6h5.9v1.3h-5.9v4h6.4v1.2h-7.9v-11.4zM122 .3v11.4h-1.5V.3zm4.2 0l6 9.2V.3h1.5v11.4H132l-6-9.2v9.2h-1.4V.3zm8.7 1.3V.3h9.1v1.3h-3.8v10.1h-1.5V1.6zM150.7.3a3.3 3.3 0 0 1 2.5.8 2.7 2.7 0 0 1 1 2.2 3.5 3.5 0 0 1-.5 1.8 2.5 2.5 0 0 1-1.5 1.1l.8.3.5.5a2.5 2.5 0 0 1 .2.7l.2.8v.9l.1.8.2.8a1.6 1.6 0 0 0 .4.7h-1.7l-.3-.5v-.7l-.1-.8a2.2 2.2 0 0 0-.1-.8l-.1-.8-.3-.7-.6-.4-.9-.2h-3.7v4.9h-1.5V.3zm.3 5.2l.8-.4a.9.9 0 0 0 .6-.6 1.5 1.5 0 0 0 .2-1 2.1 2.1 0 0 0-.4-1.4 2.1 2.1 0 0 0-1.6-.5h-3.8v3.9h4.2zm6.8-5.2v11.4h-1.5V.3zm4.2 0l6 9.2h.1V.3h1.4v11.4h-1.7l-5.9-9.2h-.1v9.2h-1.4V.3zm15.7 1.5a3.9 3.9 0 0 0-2-.5h-.9a1.1 1.1 0 0 0-.8.3.9.9 0 0 0-.6.6 1.3 1.3 0 0 0-.2.9 1.2 1.2 0 0 0 .3.9l.8.5 1.2.4 1.3.3 1.4.3 1.1.6a2.8 2.8 0 0 1 .9 1 2.6 2.6 0 0 1 .3 1.4 2.4 2.4 0 0 1-.4 1.5 2.9 2.9 0 0 1-1.1 1.1l-1.4.6-1.6.3-1.8-.3a3.5 3.5 0 0 1-1.5-.7 3.2 3.2 0 0 1-1-1.3 3.4 3.4 0 0 1-.4-1.8h1.4a2.8 2.8 0 0 0 .3 1.3 3 3 0 0 0 .8.8 1.9 1.9 0 0 0 1 .5l1.3.2h1l.9-.3a2.3 2.3 0 0 0 .7-.7 1.5 1.5 0 0 0 .3-1 1.7 1.7 0 0 0-.3-1l-.9-.6-1.2-.3-1.3-.3L174 6a3.3 3.3 0 0 1-1.2-.5 2.4 2.4 0 0 1-.8-.9 2.3 2.3 0 0 1-.3-1.3 4 4 0 0 1 .3-1.5 4.3 4.3 0 0 1 .9-1 3.5 3.5 0 0 1 1.4-.6l1.5-.2 1.6.2a3.7 3.7 0 0 1 1.4.7 3.1 3.1 0 0 1 .8 1.1 2.7 2.7 0 0 1 .4 1.6h-1.4a2.6 2.6 0 0 0-.9-1.8zm6.2-1.5v11.4h-1.5V.3zm9.5 1.6a3.7 3.7 0 0 0-2.1-.6 2.9 2.9 0 0 0-1.7.4 2.9 2.9 0 0 0-1.2 1 2.6 2.6 0 0 0-.7 1.5 4.7 4.7 0 0 0-.3 1.7 5.8 5.8 0 0 0 .3 1.9 3.4 3.4 0 0 0 .7 1.5 4 4 0 0 0 1.2 1 3.1 3.1 0 0 0 1.7.4 3.2 3.2 0 0 0 1.4-.3l1-.6a3.9 3.9 0 0 0 .6-1.1 2.8 2.8 0 0 0 .3-1.3h1.5a4.9 4.9 0 0 1-1.5 3.4 4.5 4.5 0 0 1-3.4 1.2 5.2 5.2 0 0 1-2.3-.5 4.3 4.3 0 0 1-1.7-1.3 7.7 7.7 0 0 1-1-1.8 9.9 9.9 0 0 1-.3-2.4 5.9 5.9 0 0 1 .4-2.3 3.9 3.9 0 0 1 1-1.9A4.3 4.3 0 0 1 189 .5a5.6 5.6 0 0 1 2.3-.5l1.7.2 1.4.7a4.1 4.1 0 0 1 1.1 1.2 4.3 4.3 0 0 1 .5 1.6h-1.5a2.8 2.8 0 0 0-1.1-1.8zm14.8-.1a3.9 3.9 0 0 0-2-.5h-.9a1.1 1.1 0 0 0-.8.3.9.9 0 0 0-.6.6 2.4 2.4 0 0 0-.2.9 1.2 1.2 0 0 0 .3.9l.8.5 1.2.5 1.3.3 1.4.3 1.2.6a3.9 3.9 0 0 1 .8 1 2.6 2.6 0 0 1 .3 1.4 2.4 2.4 0 0 1-.4 1.5 2.9 2.9 0 0 1-1.1 1.1l-1.4.6-1.6.2-1.8-.3a3.5 3.5 0 0 1-1.5-.7 3.2 3.2 0 0 1-1-1.3 3.4 3.4 0 0 1-.4-1.8h1.5a2.7 2.7 0 0 0 .2 1.3 3 3 0 0 0 .8.8 1.9 1.9 0 0 0 1 .5l1.3.2h1l1-.3c.2-.2.5-.4.6-.7a1.5 1.5 0 0 0 .3-1 1.7 1.7 0 0 0-.3-1l-.9-.6-1.1-.3-1.4-.3-1.3-.5-1.2-.5a2.4 2.4 0 0 1-.8-.9 2.3 2.3 0 0 1-.3-1.3 4 4 0 0 1 .3-1.5 4.7 4.7 0 0 1 1-1 2.6 2.6 0 0 1 1.3-.6l1.5-.2 1.6.2a3.7 3.7 0 0 1 1.4.7 5.3 5.3 0 0 1 .9 1.1 3.8 3.8 0 0 1 .3 1.6h-1.4a2.6 2.6 0 0 0-.9-1.8zm6.2-1.5v11.4h-1.5V.3zm8.8 1.3h-6.6V.3h8.4v1.3l-7.1 8.8h7.3v1.3h-9.1v-1.3zM234.6.3v1.3h-6.3v3.6h5.9v1.3h-5.9v3.9h6.4v1.3h-7.9V.3zm-73.1 22.5a2.5 2.5 0 0 1 1.2.8 2.4 2.4 0 0 1 .5 1.4 2.5 2.5 0 0 1-.9 2 3.1 3.1 0 0 1-2.2.8 4.8 4.8 0 0 1-1.8-.4c-.6-.3-.8-.6-.8-.9l.1-.4h.4l.8.4 1.4.3a1.5 1.5 0 0 0 1.3-.5 1.7 1.7 0 0 0 .5-1.3 1.7 1.7 0 0 0-.3-1 1.9 1.9 0 0 0-1-.5h-.5c-.4 0-.6-.2-.6-.5s.2-.4.6-.4h.4a1.2 1.2 0 0 0 .8-.4 1.4 1.4 0 0 0 .3-.9 1.4 1.4 0 0 0-1.4-1.4 2.7 2.7 0 0 0-1.2.3l-.7.4-.3-.2c0-.1-.2-.1-.2-.3s.3-.5.8-.8a3.3 3.3 0 0 1 1.7-.4 2.8 2.8 0 0 1 1.8.6 2.6 2.6 0 0 1 .7 1.6 1.6 1.6 0 0 1-.4 1.2 1.5 1.5 0 0 1-1 .5zm4.9 4.7h-.5a.8.8 0 0 1-.2-.5c0-.3.5-.8 1.4-1.6v-.2l.6-.6c1.6-1.5 2.4-2.5 2.4-3.2a2.1 2.1 0 0 0-.4-1.2 1.6 1.6 0 0 0-1.1-.5l-.8.2a1.8 1.8 0 0 0-.7.5v.2a.7.7 0 0 1-.6.4h-.3l-.1-.6v-.3l.2-.3a4.1 4.1 0 0 1 1.1-.7l1.3-.2a2.6 2.6 0 0 1 2.7 2.5c0 .9-.8 2.1-2.3 3.6l-1 .9-.8.8h3.1a.8.8 0 0 1 .2-.5h.7l.1.4v.5l-.2.3-.2.1zm10.8.3a2.2 2.2 0 0 1-2-1.3 6.2 6.2 0 0 1-.8-3.3 6.2 6.2 0 0 1 .8-3.3 2.3 2.3 0 0 1 2-1.2 2.4 2.4 0 0 1 2.1 1.2 6.2 6.2 0 0 1 .7 3.3 6.2 6.2 0 0 1-.7 3.3 2.3 2.3 0 0 1-2.1 1.3zm0-8.1a1.4 1.4 0 0 0-1.2.9 6.2 6.2 0 0 0-.4 2.6 6.7 6.7 0 0 0 .4 2.7 1.4 1.4 0 0 0 1.2.9 1.4 1.4 0 0 0 1.3-.9 6.7 6.7 0 0 0 .4-2.7 6.2 6.2 0 0 0-.4-2.6 1.4 1.4 0 0 0-1.3-.9zm6.7 9.6h2l.1.4-.1.4h-3.5l-.4-.2-.1-.3c0-.1 0-.3.2-.4h.7v-7h-.7c-.2-.1-.2-.2-.2-.4l.1-.4h1.8a.3.3 0 0 1 .1.2v.7a2.5 2.5 0 0 1 1-.8l1.2-.2a3.2 3.2 0 0 1 2.3.9 3.4 3.4 0 0 1 .9 2.4 3.3 3.3 0 0 1-.8 2.2 3.1 3.1 0 0 1-2.3.8 2.7 2.7 0 0 1-1.3-.2 2.6 2.6 0 0 1-1-.7zm2.1-2.8a2 2 0 0 0 1.5-.6 1.8 1.8 0 0 0 .7-1.5 2.1 2.1 0 0 0-.7-1.5 2 2 0 0 0-1.5-.6 2.3 2.3 0 0 0-1.6.6 2.2 2.2 0 0 0 0 3 2.3 2.3 0 0 0 1.6.6zm6.5.1h.8a.5.5 0 0 1 .2.4l-.2.3h-2.8a.4.4 0 0 1-.1-.3.5.5 0 0 1 .2-.4h.7l2.2-2.3-2.2-2.1h-.6a.5.5 0 0 1 0-.8h2.6a.5.5 0 0 1 0 .8h-.6l1.5 1.4 1.4-1.4h-.7c-.2-.1-.2-.2-.2-.4l.1-.4h2.4l.3.2.1.3-.1.4h-.8l-1.9 2 2.4 2.4h.4a.5.5 0 0 1 .2.4l-.2.3H195l-.2-.3a.5.5 0 0 1 .2-.4h.8l-1.7-1.7z"/><path class="cls-5" d="M17.2 29.4v-9m320 9v-9m-320 4.5h133.2m53.6 0h133.2"/><path class="cls-3" d="M190 290.9h-.5a.8.8 0 0 1-.2-.5c0-.3.5-.8 1.3-1.6l.2-.2.6-.6c1.6-1.5 2.4-2.5 2.4-3.2a2.1 2.1 0 0 0-.4-1.2 1.6 1.6 0 0 0-1.1-.5l-.8.2a1.8 1.8 0 0 0-.7.5.3.3 0 0 1-.1.2.7.7 0 0 1-.6.4h-.3l-.1-.6v-.3l.2-.3a4.1 4.1 0 0 1 1.1-.7l1.3-.2a2.6 2.6 0 0 1 2.7 2.5c0 .9-.8 2.1-2.3 3.6l-1 .9-.8.8h3.1a.8.8 0 0 1 .2-.5h.7l.1.4v.5l-.2.3H190zm9.3-5.3l.8-.3h.8a2.2 2.2 0 0 1 1.9.8 2.6 2.6 0 0 1 .8 2.1 2.8 2.8 0 0 1-.8 2.1 3.2 3.2 0 0 1-2.3.9 5 5 0 0 1-1.9-.3c-.5-.3-.8-.5-.8-.8s.1-.2.2-.3l.3-.2.8.3 1.3.3a2 2 0 0 0 1.5-.6 1.8 1.8 0 0 0 .6-1.4 2.2 2.2 0 0 0-.5-1.4 2 2 0 0 0-1.4-.6 2.7 2.7 0 0 0-1.2.3l-.7.3-.3-.1-.1-.6v-3.4a.4.4 0 0 1 .1-.3h4.5a.6.6 0 0 1 .1.4l-.1.4-.5.2h-3.1zm8.3.9a3 3 0 0 1 .8-.8l1-.2a2.5 2.5 0 0 1 1.8.8 2.6 2.6 0 0 1 .8 2 3.1 3.1 0 0 1-.7 2.1 2.6 2.6 0 0 1-1.9.8 2.8 2.8 0 0 1-2.2-1.1 5 5 0 0 1-.8-2.9 5.5 5.5 0 0 1 1.2-3.7 4.2 4.2 0 0 1 3.2-1.4h.9l.2.3c0 .1-.3.5-.8.5h-.9a2.5 2.5 0 0 0-1.7 1.1 3.7 3.7 0 0 0-.9 2.5zm.2 1.8a1.8 1.8 0 0 0 .4 1.3 1.4 1.4 0 0 0 1.1.6 1.4 1.4 0 0 0 1.1-.5 2 2 0 0 0 .4-1.3 2.1 2.1 0 0 0-.4-1.4 1.6 1.6 0 0 0-1.1-.5 1.4 1.4 0 0 0-1.1.5 1.8 1.8 0 0 0-.4 1.3zm8.1 4.4h2l.1.4-.1.4h-3.5l-.4-.2-.1-.3c0-.1 0-.3.2-.4h.7v-7.1h-.7c-.2-.1-.2-.2-.2-.4l.1-.4h1.8v.9a2.5 2.5 0 0 1 1-.8l1.2-.2a3.2 3.2 0 0 1 2.3.9 3.4 3.4 0 0 1 .9 2.4 3.3 3.3 0 0 1-.8 2.2 3.2 3.2 0 0 1-2.3.9 2.8 2.8 0 0 1-1.3-.3 2.6 2.6 0 0 1-1-.7zm2.1-2.8a2 2 0 0 0 1.5-.6 1.8 1.8 0 0 0 .7-1.5 2.1 2.1 0 0 0-.7-1.5 2 2 0 0 0-1.5-.6 2.3 2.3 0 0 0-1.6.6 2.2 2.2 0 0 0 0 3 2.3 2.3 0 0 0 1.6.6zm6.5.1h.8a.5.5 0 0 1 .2.4l-.2.3h-2.8a.4.4 0 0 1-.1-.3.5.5 0 0 1 .2-.4h.7l2.2-2.3-2.2-2.1h-.6a.5.5 0 0 1 0-.8h2.6a.5.5 0 0 1 0 .8h-.6l1.5 1.4 1.4-1.4h-.7c-.2-.1-.2-.2-.2-.4l.1-.4h2.4l.3.2.1.3-.1.4h-.8l-1.9 2 2.4 2.4h.4a.5.5 0 0 1 .2.4l-.2.3H227l-.2-.3a.5.5 0 0 1 .2-.4h.8l-1.7-1.7z"/><path class="cls-5" d="M81.2 292.8v-9m256 9v-9m-256 4.5h102.6m50.9 0h102.5m16.2-11.7h-9m9-192h-9m4.5 0v70.2M10 36.6H1m9 240H1m4.5-240v92.7m0 54.5v92.8m343.4-70.2v70.2"/><path d="M344.3 199l-.1.4h-.6l-.2-.3-.6-2.1v-.4h7.7v-1.1a5.4 5.4 0 0 1 .1-.8.5.5 0 0 1 .4-.2l.4.2.1.4v4.1a.6.6 0 0 1-.1.4h-.4a.5.5 0 0 1-.4-.2 3.5 3.5 0 0 1-.1-.7v-1.2H344zm3.2-11.6l.7.8a3.6 3.6 0 0 1 .2 1 2.5 2.5 0 0 1-.8 1.8 2.4 2.4 0 0 1-2 .8 2.7 2.7 0 0 1-2-.7 2.2 2.2 0 0 1-.8-1.9 2.4 2.4 0 0 1 1-2.1 4.4 4.4 0 0 1 2.9-.9 5.5 5.5 0 0 1 3.7 1.2 3.9 3.9 0 0 1 1.4 3.2 2 2 0 0 1-.1.9l-.3.2c-.3 0-.5-.3-.5-.8a2.2 2.2 0 0 0-.1-.9 2.7 2.7 0 0 0-1-1.7 4.3 4.3 0 0 0-2.3-.9zm-1.9.2a1.8 1.8 0 0 0-1.3.4 1.4 1.4 0 0 0-.6 1.2 1.2 1.2 0 0 0 .5 1 2 2 0 0 0 1.3.4 2.1 2.1 0 0 0 1.4-.4 1.4 1.4 0 0 0 .5-1.1 1.6 1.6 0 0 0-.5-1.1 1.8 1.8 0 0 0-1.3-.4zm6-4.6a.8.8 0 0 1-.2.5l-.4.2c-.3 0-.9-.5-1.7-1.3l-.2-.2-.5-.6q-2.2-2.4-3.3-2.4a2.1 2.1 0 0 0-1.1.4 1.6 1.6 0 0 0-.5 1.1 1.9 1.9 0 0 0 .2.8 1.8 1.8 0 0 0 .5.7.1.1 0 0 1 .1.1c.3.2.5.4.5.6l-.2.3h-.9l-.2-.2a4.1 4.1 0 0 1-.7-1.1 3 3 0 0 1-.2-1.3 2.6 2.6 0 0 1 2.5-2.7c.9 0 2.1.8 3.5 2.4l.9.9.8.8v-3l-.4-.2-.2-.3a.5.5 0 0 1 .2-.4h1l.4.2.1.2zm1.7-9.1v-1.6a.5.5 0 0 1 .2-.4h.7l.1.5v3l-.1.4h-.7a1.4 1.4 0 0 1-.2-.7h-7.1a1.5 1.5 0 0 1-.1.7h-.7l-.1-.4V174h.9a3.6 3.6 0 0 1-.7-1 2.5 2.5 0 0 1-.2-1.2 3.1 3.1 0 0 1 3.2-3.2 3.1 3.1 0 0 1 3.1 3.1 5.1 5.1 0 0 1-.2 1.3 2.7 2.7 0 0 1-.8 1zm-2.7-2.1a2.1 2.1 0 0 0-2.1-2.1 2.1 2.1 0 0 0-1.6.6 2 2 0 0 0-.6 1.5 2.1 2.1 0 0 0 2.2 2.2 2 2 0 0 0 1.5-.6 2.1 2.1 0 0 0 .6-1.6zm0-6.5v-.2a1.1 1.1 0 0 1 .2-.6h.7a.7.7 0 0 1 .1.5v1.9l-.1.4h-.4c-.2 0-.3 0-.4-.2a3.5 3.5 0 0 1-.1-.6l-2.2-2.2-2.2 2.2a.7.7 0 0 1-.1.5l-.3.2-.4-.2-.1-.7V165a.7.7 0 0 1 .1-.5l.4-.2.3.2a.7.7 0 0 1 .1.5l1.5-1.5-1.5-1.4v.2a.7.7 0 0 1-.1.5c0 .2-.2.2-.3.2h-.4l-.1-.6v-1.7l.1-.4h.7a1.1 1.1 0 0 1 .1.6v.2l2.1 1.9 2.3-2.3a.5.5 0 0 1 .2-.4l.3-.2.4.2.1.7v1.4a.7.7 0 0 1-.1.5l-.4.2-.3-.2a.5.5 0 0 1-.2-.4v-.5l-1.6 1.7zM8.8 174a.7.7 0 0 1-.1.5l-.5.2c-.3 0-.8-.5-1.6-1.3l-.2-.2-.6-.6c-1.4-1.6-2.5-2.4-3.2-2.4a2.1 2.1 0 0 0-1.2.4 1.5 1.5 0 0 0-.4 1.1 1.9 1.9 0 0 0 .1.8 1.8 1.8 0 0 0 .5.7h.2a.7.7 0 0 1 .4.6l-.1.3h-.9l-.3-.2a4.1 4.1 0 0 1-.7-.9 5.9 5.9 0 0 1-.2-1.3 2.5 2.5 0 0 1 .7-1.9 2.5 2.5 0 0 1 1.8-.8q1.3 0 3.6 2.4l.9.9.8.8V170l-.5-.2a.4.4 0 0 1-.1-.3l.1-.4h1.1l.3.2.1.2zm0-10.7l-.1.5H8l-.1-.4v-.8H6.7v3.2a.4.4 0 0 1-.1.3h-.8l-.5-.2h-.1L.3 163H.1l-.1-.2.2-.7.1-.1h5.4v-1l-.1-.2.1-.2h1a.4.4 0 0 1 .1.3v.6h1.1v-.2l.1-.6.4-.2h.3a.6.6 0 0 1 .1.4zm-3.1-.7H1.1l4.6 2.6zm3.4-7.8a2.3 2.3 0 0 1-1.2 2 6.8 6.8 0 0 1-3.4.8 6.2 6.2 0 0 1-3.3-.8 2.3 2.3 0 0 1-1.2-2 2.4 2.4 0 0 1 1.2-2.1 6.2 6.2 0 0 1 3.3-.7 6.9 6.9 0 0 1 3.4.7 2.4 2.4 0 0 1 1.2 2.1zm-8.1 0a1.4 1.4 0 0 0 .9 1.2 6.2 6.2 0 0 0 2.6.4 6.4 6.4 0 0 0 2.7-.4 1.4 1.4 0 0 0 .9-1.2 1.4 1.4 0 0 0-.9-1.3 8.5 8.5 0 0 0-2.7-.4 8.3 8.3 0 0 0-2.6.4 1.4 1.4 0 0 0-.9 1.3zm9.6-6.7v-1.6l.1-.4h.8a2 2 0 0 1 .1.5v3l-.1.4h-.4c-.2 0-.3 0-.4-.2l-.1-.6H3.5l-.1.6-.4.2h-.4l-.1-.4v-1.1l.1-.3h.9a2.3 2.3 0 0 1-.7-1 2.7 2.7 0 0 1-.3-1.2 3.2 3.2 0 0 1 .9-2.3 3.4 3.4 0 0 1 2.4-.9 2.9 2.9 0 0 1 2.2.9 3.1 3.1 0 0 1 .6 3.5 2.6 2.6 0 0 1-.7 1zM7.9 146a2 2 0 0 0-.6-1.5 2.3 2.3 0 0 0-1.6-.6 2.1 2.1 0 0 0-2.1 2.1 2.1 2.1 0 0 0 .6 1.6 2 2 0 0 0 1.5.6 2.3 2.3 0 0 0 1.6-.6 2.1 2.1 0 0 0 .6-1.6zm0-6.5v-.2a1.1 1.1 0 0 1 .1-.6l.4-.2.3.2a.7.7 0 0 1 .1.5v1.9l-.1.4h-.3c-.2 0-.3 0-.4-.2l-.1-.6-2.3-2.2-2.1 2.2a.7.7 0 0 1-.1.5l-.4.2-.4-.2a5.6 5.6 0 0 1-.1-.7v-1.4a4.3 4.3 0 0 1 .1-.5l.4-.2.4.2a.7.7 0 0 1 .1.5l1.4-1.5-1.4-1.4v.2a.7.7 0 0 1-.1.5c-.1.2-.2.2-.4.2h-.4a3.5 3.5 0 0 1-.1-.6v-1.7a.5.5 0 0 1 .2-.4h.7a1.1 1.1 0 0 1 .1.6v.2l2 1.9 2.4-2.3.1-.4a.5.5 0 0 1 .4-.2l.3.2.1.7v1.4a.7.7 0 0 1-.1.5l-.3.2-.4-.2-.1-.4v-.4l-1.7 1.7z"/><path d="M513.8 161.9c-.1 0-9.5-.1-9.5-9.5s9.4-9.5 9.5-9.5h22.5c.1 0 9.5.1 9.5 9.5s-9.4 9.5-9.5 9.5z" fill="#499f68"/><path class="cls-2" d="M536.3 143.4s9 0 9 9-9 9-9 9h-22.5s-9 0-9-9 9-9 9-9h22.5m0-1h-22.5c-.1 0-10 .1-10 10s9.9 10 10 10h22.5c.1 0 10-.1 10-10s-9.9-10-10-10z"/><path class="cls-4" d="M519 149.3a3.8 3.8 0 0 0-2.9-.2l-.9.8a3.7 3.7 0 0 0-.5 1.1 4.7 4.7 0 0 0 0 2.7 3.7 3.7 0 0 0 .5 1.1 3.2 3.2 0 0 0 .9.8 2.9 2.9 0 0 0 1.4.3l1-.2a1.8 1.8 0 0 0 .7-.5 2.2 2.2 0 0 0 .5-.8 3 3 0 0 0 .2-1h1.2a4.2 4.2 0 0 1-1.1 2.6 3.7 3.7 0 0 1-2.6.9 4.8 4.8 0 0 1-1.8-.4 2.7 2.7 0 0 1-1.2-.9 3.7 3.7 0 0 1-.7-1.4 5.5 5.5 0 0 1 0-3.6 3.7 3.7 0 0 1 .7-1.4l1.3-1a4.8 4.8 0 0 1 1.8-.3l1.2.2 1.1.5a2.4 2.4 0 0 1 .8.9 3.4 3.4 0 0 1 .4 1.2h-1.2a2.2 2.2 0 0 0-.8-1.4zm7.8 0a2.4 2.4 0 0 0-1.5-.4h-.7l-.6.3a.8.8 0 0 0-.4.4 1.3 1.3 0 0 0 0 1.4l.7.4.8.2 1 .2 1 .3a1.9 1.9 0 0 1 .9.5 1.6 1.6 0 0 1 .7.7 2.5 2.5 0 0 1 .2 1 2.1 2.1 0 0 1-.3 1.2 3 3 0 0 1-.8.8l-1.1.4-1.2.2-1.3-.2a2.7 2.7 0 0 1-1.2-.6 2.2 2.2 0 0 1-.7-.9 2.9 2.9 0 0 1-.3-1.4h1.1a1.6 1.6 0 0 0 .2 1l.5.6.8.4h1.7l.7-.2c.3-.1.4-.3.6-.5a1.7 1.7 0 0 0 .1-.8 1 1 0 0 0-.2-.7c-.1-.2-.4-.3-.6-.4l-.9-.3-1-.2-1-.3-.9-.4-.6-.6a1.6 1.6 0 0 1-.2-1 2 2 0 0 1 .2-1.1 2.7 2.7 0 0 1 .7-.8l1-.5h2.4l1 .5a3.1 3.1 0 0 1 .7.9 3.7 3.7 0 0 1 .2 1.2h-1.1a1.4 1.4 0 0 0-.6-1.3zm7.8 0a2.4 2.4 0 0 0-1.5-.4h-.7l-.6.3a1 1 0 0 0-.5.4 1.5 1.5 0 0 0-.1.7 1.4 1.4 0 0 0 .2.7l.6.4.9.2 1 .2 1 .3.9.5a1.1 1.1 0 0 1 .6.7 1.5 1.5 0 0 1 .3 1 2.1 2.1 0 0 1-.3 1.2 3 3 0 0 1-.8.8l-1.1.4-1.2.2-1.3-.2a2.3 2.3 0 0 1-1.2-.6 1.6 1.6 0 0 1-.7-.9 2.9 2.9 0 0 1-.3-1.4h1.1a1.6 1.6 0 0 0 .2 1l.5.6a2 2 0 0 0 .8.4h1.7l.7-.2a1.2 1.2 0 0 0 .5-.5c.2-.2.2-.4.2-.8a1.9 1.9 0 0 0-.2-.7l-.6-.4-.9-.3-1-.2-1-.3-.9-.4a1.2 1.2 0 0 1-.6-.6 1.7 1.7 0 0 1-.3-1 2 2 0 0 1 .3-1.1 2.7 2.7 0 0 1 .7-.8l1-.5h2.4l1 .5c.2.3.5.5.6.9a2.1 2.1 0 0 1 .3 1.2h-1.1a1.6 1.6 0 0 0-.6-1.3z"/><path d="M294 269.9c-.1 0-9.5-.1-9.5-9.5s9.4-9.5 9.5-9.5h27c.1 0 9.5.1 9.5 9.5s-9.4 9.5-9.5 9.5z" fill="#561d25"/><path class="cls-2" d="M321 251.4s9 0 9 9-9 9-9 9h-27s-9 0-9-9 9-9 9-9h27m0-1h-27c-.1 0-10 .1-10 10s9.9 10 10 10h27c.1 0 10-.1 10-10s-9.9-10-10-10z"/><path class="cls-2" d="M292.8 256.1v3.7h4.5v-3.7h1.2v8.6h-1.2v-4h-4.5v4h-1.1v-8.6zm6.6 1v-1h6.9v1h-2.9v7.6h-1.1v-7.6zm9.4-1l2.7 7.2 2.7-7.2h1.6v8.6h-1.1v-7.2l-2.7 7.2h-1l-2.6-7.2h-.1v7.2h-1v-8.6zm10 0v7.6h4.6v1h-5.7v-8.6z"/></svg>