<svg xmlns="http://www.w3.org/2000/svg" viewBox="0 0 459 422"><style>@import "https://fonts.googleapis.com/css?family=Reenie+Beanie"; .fill { fill: none; stroke: #4CA3CC; stroke-width: 17px; stroke-opacity: 0.32; } .box-text { font-size: 32px; line-height: 1; fill: #000000; font-family: Reenie Beanie; text-anchor: middle; } .box-outline { fill: none; stroke: #000000; stroke-width: 6.3; stroke-linejoin: round; } .joiner { fill: none; stroke: #000000; stroke-width: 3.8; stroke-linecap: round; } .pos { stroke: #0068FF; } .neg { stroke: #a00; }</style><g transform="translate(-58.5 -54.929)" class="box"><path d="M226 63.4l-158 5 164 15-157 2 152 13-160 2.6 164 11" class="fill"/><path d="M223 67.3l-140-3.9-1.97 46.9 141 .971-.117-30.8" class="box-outline"/><text y="95.567" x="153.244" class="box-text"><tspan y="95.567" x="153.244">asyncThing1</tspan></text></g><g transform="translate(-57.529 24.683)" class="box"><path d="M226 63.4l-158 5 164 15-157 2 152 13-160 2.6 164 11" class="fill"/><path d="M223 67.3l-140-3.9-1.97 46.9 141 .971-.117-30.8" class="box-outline"/><text y="95.567" x="153.244" class="box-text"><tspan x="153.244" y="95.567">asyncThing2</tspan></text></g><g transform="translate(-55.587 110.119)" class="box"><path d="M226 63.4l-158 5 164 15-157 2 152 13-160 2.6 164 11" class="fill"/><path d="M223 67.3l-140-3.9-1.97 46.9 141 .971-.117-30.8" class="box-outline"/><text y="95.567" x="153.244" class="box-text"><tspan y="95.567" x="153.244">asyncThing3</tspan></text></g><g transform="translate(145.383 27.595)" class="box"><path d="M261 65.4l-193 3 199 17h-192l187 14.6-195 1 199 13" class="fill"/><path d="M248 67.3l-165-3.9-1.97 46.9 179 .971-5.94-31.8" class="box-outline"/><text y="93.625" x="168.778" class="box-text"><tspan x="168.778" y="93.625">asyncRecovery1</tspan></text></g><g transform="translate(-56.558 191.673)" class="box"><path d="M226 63.4l-158 5 164 15-157 2 152 13-160 2.6 164 11" class="fill"/><path d="M223 67.3l-140-3.9-1.97 46.9 141 .971-.117-30.8" class="box-outline"/><text y="95.567" x="153.244" class="box-text"><tspan x="153.244" y="95.567">asyncThing4</tspan></text></g><g transform="translate(183.702 117.575)" class="box"><path d="M261 65.4l-193 3 199 17h-192l187 14.6-195 1 199 13" class="fill"/><path d="M248 67.3l-165-3.9-1.97 46.9 179 .971-5.94-31.8" class="box-outline"/><text y="93.625" x="168.778" class="box-text"><tspan y="93.625" x="168.778">asyncRecovery2</tspan></text></g><g transform="translate(159.617 189.869)" class="box"><path d="M228 64.4l-194 2.1 200 17.9-193-.9 198 16.5-208.9-.5 201.9 13.5-197.1 6 200.1 7-199.2 10 202.2 8" class="fill"/><path d="M223 69.2l-184-.942 6.77 72.1 176 1.94 7.65-59.9" class="box-outline"/><text y="97.508" x="133.826" class="box-text"><tspan x="133.826" y="97.508">log &quot;Don&apos;t worry</tspan><tspan x="133.826" y="129.508">about it&quot;</tspan></text></g><g transform="translate(-6.073 269.343)" class="box"><path d="M162 64.4l-128 3 134 17h-127l132 15.6h-142.9l138.9 13-139.9 5 143.9 8-149.8 11 152.8 7" class="fill"/><path d="M157 69.2l-111.9-.9-6.8 71.7 124.7-1-1-54.7" class="box-outline"/><text y="94.596" x="100.817" class="box-text"><tspan y="94.596" x="100.817">log</tspan><tspan y="126.596" x="100.817">&quot;All done!&quot;</tspan></text></g><path class="joiner pos" d="M93.8 60l.249 22.5"/><path class="joiner pos" d="M88.5 74l5.4 10.9 5.8-10.9"/><path class="joiner pos" d="M94.8 140l-1.22 27.4"/><path class="joiner pos" d="M88.1 160l5.7 11 6.2-11"/><path class="joiner pos" d="M94.6 225v25.7"/><path class="joiner pos" d="M89.3 241l5.3 10.9 5.08-9.92"/><path class="joiner pos" d="M94.8 306l-.727 25.3"/><path class="joiner pos" d="M88.3 323l5.56 10.4 5.55-9.92"/><path class="joiner neg" d="M168 35.9s67.5-12.4 72.1 48.5"/><path class="joiner neg" d="M233 76.7l7.74 9.19 4.12-9.43"/><path class="joiner neg" d="M169 116l52.9 1.7"/><path class="joiner neg" d="M211 111l11.6 6.04-12.3 5.81"/><path class="joiner neg" d="M170 202s69.3 14.1 68.4-54.9"/><path class="joiner neg" d="M232 153l6.04-10.2 5.33 11.6"/><path class="joiner pos" d="M257 142c-.971 120-108 55.4-111 110"/><path class="joiner pos" d="M143 244l2.18 9.68 7.74-7.25"/><path class="joiner neg" d="M169 282l22.9.244"/><path class="joiner neg" d="M187 276l9.93 5.8-10.4 5.57"/><path class="joiner neg" d="M310 141l-1.08 33.5"/><path class="joiner neg" d="M304 167l5.57 10.2 5.08-10.2"/><path class="joiner neg" d="M308 231v19"/><path class="joiner neg" d="M303 244l5.8 10.2 5.56-10.4"/><path class="joiner pos" d="M309 336c0 26.1-17 24.5-144 23"/><path class="joiner pos" d="M173 352l-10.7 6.04 10.2 5.8"/><path class="joiner pos" d="M419 233c1 161-20 160-256 159"/><path class="joiner pos" d="M173 386l-11.5 5.95 11.9 5.16"/></svg>
