<?xml version="1.0" encoding="UTF-8" standalone="no"?>
<svg width="767px" height="93px" viewBox="0 0 767 93" version="1.1" xmlns="http://www.w3.org/2000/svg" xmlns:xlink="http://www.w3.org/1999/xlink" xmlns:sketch="http://www.bohemiancoding.com/sketch/ns">
    <title>developers-logo</title>
    <description>Created with Sketch (http://www.bohemiancoding.com/sketch)</description>
    <defs>
        <radialGradient cx="40.6891368%" cy="-7.23226552%" fx="40.6891368%" fy="-7.23226552%" r="153.114545%" id="radialGradient-1">
            <stop stop-color="#0DA960" offset="0%"></stop>
            <stop stop-color="#03914B" offset="100%"></stop>
        </radialGradient>
        <radialGradient cx="62.6835161%" cy="7.82211606%" fx="62.6835161%" fy="7.82211606%" r="155.798244%" id="radialGradient-2">
            <stop stop-color="#FFCD4D" offset="0%"></stop>
            <stop stop-color="#F6C338" offset="100%"></stop>
        </radialGradient>
        <linearGradient x1="122.540904%" y1="49.9993627%" x2="-2.70306546%" y2="49.9993627%" id="linearGradient-3">
            <stop stop-color="#231F20" stop-opacity="0.2" offset="0%"></stop>
            <stop stop-color="#F1F2F2" stop-opacity="0.25" offset="100%"></stop>
        </linearGradient>
        <radialGradient cx="59.3102162%" cy="107.229991%" fx="59.3102162%" fy="107.229991%" r="153.09304%" id="radialGradient-4">
            <stop stop-color="#4387FD" offset="0%"></stop>
            <stop stop-color="#4683EA" offset="100%"></stop>
        </radialGradient>
        <radialGradient cx="37.3128322%" cy="92.1767929%" fx="37.3128322%" fy="92.1767929%" r="155.79896%" id="radialGradient-5">
            <stop stop-color="#E04A3F" offset="0%"></stop>
            <stop stop-color="#CD372D" offset="100%"></stop>
        </radialGradient>
        <linearGradient x1="-22.5310254%" y1="49.9984069%" x2="102.699139%" y2="49.9984069%" id="linearGradient-6">
            <stop stop-color="#231F20" stop-opacity="0.2" offset="0%"></stop>
            <stop stop-color="#F1F2F2" stop-opacity="0.25" offset="100%"></stop>
        </linearGradient>
    </defs>
    <g id="Page-1" stroke="none" stroke-width="1" fill="none" fill-rule="evenodd" sketch:type="MSPage">
        <g id="developers-logo" sketch:type="MSLayerGroup">
            <g id="EDITIABLE_TYPE" transform="translate(394.000000, 9.000000)" fill="#6C6D6D" sketch:type="MSShapeGroup">
                <g id="Group">
                    <path d="M45.562,31.305 C45.562,40.554 42.995,47.624 37.862,52.514 C32.724,57.408 25.33,59.853 15.673,59.853 L-0.001,59.853 L-0.001,3.829 L17.321,3.829 C26.236,3.829 33.171,6.23 38.13,11.035 C43.084,15.835 45.562,22.594 45.562,31.305 L45.562,31.305 Z M35.905,31.612 C35.905,18.2 29.634,11.494 17.09,11.494 L9.159,11.494 L9.159,52.152 L15.672,52.152 C29.159,52.151 35.905,45.305 35.905,31.612 L35.905,31.612 Z" id="Shape"></path>
                    <path d="M70.438,60.62 C63.846,60.62 58.691,58.699 54.975,54.853 C51.257,51.008 49.4,45.713 49.4,38.971 C49.4,32.048 51.126,26.607 54.573,22.645 C58.021,18.686 62.761,16.706 68.79,16.706 C74.386,16.706 78.806,18.406 82.05,21.803 C85.294,25.202 86.918,29.877 86.918,35.829 L86.918,40.696 L58.676,40.696 C58.802,44.808 59.913,47.97 62.01,50.18 C64.104,52.39 67.055,53.493 70.863,53.493 C73.365,53.493 75.698,53.257 77.855,52.783 C80.014,52.311 82.334,51.526 84.812,50.428 L84.812,57.747 C82.614,58.795 80.391,59.535 78.144,59.969 C75.891,60.404 73.324,60.62 70.438,60.62 L70.438,60.62 Z M68.789,23.526 C65.928,23.526 63.636,24.434 61.91,26.247 C60.186,28.06 59.158,30.706 58.827,34.178 L78.064,34.178 C78.012,30.678 77.169,28.027 75.536,26.226 C73.898,24.426 71.65,23.526 68.789,23.526 L68.789,23.526 Z" id="Shape"></path>
                    <path d="M102.095,59.855 L86,17.471 L95.503,17.471 L104.126,42.112 C105.606,46.252 106.501,49.599 106.808,52.152 L107.114,52.152 C107.345,50.313 108.238,46.967 109.797,42.112 L118.421,17.471 L127.999,17.471 L111.83,59.855 L102.095,59.855 L102.095,59.855 Z" id="Shape"></path>
                    <path d="M148.238,60.62 C141.648,60.62 136.493,58.699 132.776,54.853 C129.057,51.008 127.198,45.713 127.198,38.971 C127.198,32.048 128.922,26.607 132.372,22.645 C135.819,18.686 140.559,16.706 146.591,16.706 C152.183,16.706 156.606,18.406 159.849,21.803 C163.094,25.202 164.716,29.877 164.716,35.829 L164.716,40.696 L136.474,40.696 C136.601,44.808 137.714,47.97 139.808,50.18 C141.904,52.39 144.854,53.493 148.66,53.493 C151.163,53.493 153.493,53.257 155.654,52.783 C157.814,52.311 160.13,51.526 162.612,50.428 L162.612,57.747 C160.414,58.795 158.191,59.535 155.944,59.969 C153.692,60.404 151.125,60.62 148.238,60.62 L148.238,60.62 Z M146.591,23.526 C143.729,23.526 141.437,24.434 139.711,26.247 C137.987,28.06 136.959,30.706 136.628,34.178 L155.865,34.178 C155.813,30.678 154.972,28.027 153.338,26.226 C151.7,24.426 149.45,23.526 146.591,23.526 L146.591,23.526 Z" id="Shape"></path>
                    <path d="M179.244,59.855 L170.24,59.855 L170.24,0.226 L179.244,0.226 L179.244,59.855 L179.244,59.855 Z" id="Shape"></path>
                    <path d="M225.004,38.587 C225.004,45.51 223.229,50.913 219.677,54.797 C216.129,58.68 211.187,60.62 204.847,60.62 C200.89,60.62 197.389,59.727 194.348,57.939 C191.31,56.152 188.972,53.583 187.337,50.236 C185.701,46.891 184.884,43.007 184.884,38.588 C184.884,31.715 186.645,26.351 190.174,22.493 C193.698,18.636 198.665,16.707 205.08,16.707 C211.211,16.707 216.065,18.681 219.642,22.626 C223.219,26.573 225.004,31.893 225.004,38.587 L225.004,38.587 Z M194.156,38.587 C194.156,48.372 197.77,53.265 204.998,53.265 C212.154,53.265 215.729,48.372 215.729,38.587 C215.729,28.904 212.126,24.062 204.922,24.062 C201.141,24.062 198.401,25.313 196.703,27.817 C195.004,30.322 194.156,33.91 194.156,38.587 L194.156,38.587 Z" id="Shape"></path>
                    <path d="M252.14,60.62 C246.776,60.62 242.613,58.692 239.648,54.835 L239.113,54.835 C239.469,58.414 239.648,60.584 239.648,61.35 L239.648,78.707 L230.645,78.707 L230.645,17.471 L237.923,17.471 C238.128,18.262 238.552,20.153 239.188,23.143 L239.648,23.143 C242.459,18.85 246.674,16.704 252.294,16.704 C257.581,16.704 261.702,18.62 264.655,22.453 C267.606,26.284 269.081,31.662 269.081,38.587 C269.081,45.51 267.577,50.913 264.576,54.797 C261.574,58.679 257.428,60.62 252.14,60.62 L252.14,60.62 Z M249.955,24.063 C246.379,24.063 243.768,25.109 242.122,27.205 C240.473,29.3 239.648,32.647 239.648,37.246 L239.648,38.588 C239.648,43.749 240.465,47.484 242.1,49.797 C243.734,52.109 246.408,53.266 250.109,53.266 C253.229,53.266 255.631,51.989 257.317,49.434 C259.003,46.879 259.843,43.239 259.843,38.512 C259.843,33.758 259.006,30.163 257.334,27.725 C255.658,25.283 253.201,24.063 249.955,24.063 L249.955,24.063 Z" id="Shape"></path>
                    <path d="M293.339,60.62 C286.746,60.62 281.593,58.699 277.875,54.853 C274.158,51.008 272.3,45.713 272.3,38.971 C272.3,32.048 274.024,26.607 277.472,22.645 C280.921,18.686 285.66,16.706 291.69,16.706 C297.285,16.706 301.708,18.406 304.949,21.803 C308.194,25.202 309.818,29.877 309.818,35.829 L309.818,40.696 L281.577,40.696 C281.704,44.808 282.815,47.97 284.91,50.18 C287.005,52.39 289.956,53.493 293.763,53.493 C296.267,53.493 298.597,53.257 300.756,52.783 C302.914,52.311 305.234,51.526 307.715,50.428 L307.715,57.747 C305.514,58.795 303.294,59.535 301.047,59.969 C298.795,60.404 296.227,60.62 293.339,60.62 L293.339,60.62 Z M291.692,23.526 C288.831,23.526 286.538,24.434 284.814,26.247 C283.091,28.06 282.06,30.706 281.73,34.178 L300.966,34.178 C300.915,30.678 300.074,28.027 298.441,26.226 C296.804,24.426 294.553,23.526 291.692,23.526 L291.692,23.526 Z" id="Shape"></path>
                    <path d="M336.839,16.704 C338.654,16.704 340.149,16.832 341.324,17.086 L340.442,25.478 C339.163,25.172 337.833,25.018 336.454,25.018 C332.853,25.018 329.935,26.194 327.7,28.545 C325.464,30.896 324.347,33.948 324.347,37.703 L324.347,59.852 L315.341,59.852 L315.341,17.472 L322.394,17.472 L323.582,24.945 L324.042,24.945 C325.443,22.416 327.277,20.41 329.541,18.927 C331.799,17.446 334.233,16.704 336.839,16.704 L336.839,16.704 Z" id="Shape"></path>
                    <path d="M372.943,47.782 C372.943,51.921 371.438,55.097 368.423,57.305 C365.405,59.516 361.091,60.618 355.468,60.618 C349.823,60.618 345.289,59.764 341.867,58.05 L341.867,50.274 C346.846,52.575 351.482,53.723 355.774,53.723 C361.317,53.723 364.093,52.048 364.093,48.702 C364.093,47.629 363.785,46.733 363.172,46.018 C362.56,45.303 361.55,44.563 360.143,43.796 C358.739,43.029 356.782,42.16 354.28,41.19 C349.399,39.301 346.098,37.409 344.373,35.518 C342.648,33.628 341.787,31.176 341.787,28.16 C341.787,24.532 343.25,21.715 346.174,19.71 C349.103,17.706 353.08,16.702 358.112,16.702 C363.094,16.702 367.806,17.711 372.255,19.73 L369.343,26.512 C364.769,24.622 360.922,23.678 357.805,23.678 C353.053,23.678 350.678,25.032 350.678,27.739 C350.678,29.068 351.3,30.192 352.538,31.113 C353.777,32.032 356.478,33.297 360.644,34.906 C364.142,36.261 366.683,37.5 368.269,38.624 C369.852,39.747 371.028,41.046 371.794,42.515 C372.56,43.982 372.943,45.741 372.943,47.782 L372.943,47.782 Z" id="Shape"></path>
                </g>
            </g>
            <g id="Group" transform="translate(142.000000, 12.000000)" fill="#666666" sketch:type="MSShapeGroup">
                <path d="M231.328,30.009 C232.557,29.488 232.668,29.396 232.186,28.095 C229.622,20.757 219.928,16.78 211.642,20.231 C205.139,22.947 200.412,29.831 200.412,37.559 C200.412,47.958 207.888,57.194 218.107,57.194 C222.758,57.194 226.083,56.555 229.05,54.691 C229.686,54.092 233.245,51.21 233.309,50.599 C233.309,50.445 232.78,50.892 232.022,51.332 C229.703,52.554 226.234,53.018 223.548,53.062 C218.082,53.171 213.685,49.419 210.843,45.014 C208.976,42.147 207.822,38.881 207.538,35.382 C207.061,30.015 208.387,23.816 214.439,22.293 C218.52,21.269 222.332,23.527 223.833,27.424 C224.503,29.237 224.098,30.134 222.463,30.789 L207.847,36.927 L212.82,37.24 C218.769,34.771 225.396,32.469 231.328,30.009" id="Shape"></path>
                <path d="M186.322,0.026 L197.234,0.026 C195.729,1.014 195.216,1.424 194.556,2.438 C194.081,3.174 193.965,4.603 193.859,5.844 C193.253,20.447 193.618,35.116 193.515,49.709 C193.601,53.696 195.149,53.218 200.32,53.063 C199.539,53.735 198.29,55.015 197.322,55.593 C192.635,55.593 188.196,55.504 183.526,55.504 C185.27,53.679 186.188,52.492 186.072,47.966 C186.146,32.749 185.556,18.119 186.498,3.455 C184.317,3.506 182.318,3.472 180.113,3.542 C182.211,2.488 184.149,0.989 186.322,0.026" id="Shape"></path>
                <path d="M175.231,55.402 C172.835,53.611 168.665,51.141 168.925,47.734 C169.013,46.583 169.873,45.338 171.483,44.378 C174.381,42.704 176.346,40.48 177.321,37.894 C178.331,35.177 178.184,32.198 177.185,29.507 C176.232,26.999 174.527,24.711 172.274,23.168 L177.574,23.168 L182.251,20.15 C175.599,20.083 169.291,20.083 162.525,20.086 C155.993,20.086 150.107,23.264 147.456,28.933 C146.245,31.541 145.759,34.903 146.519,38.078 C148.071,44.392 154.646,48.56 161.045,47.595 C161.75,47.496 161.979,47.282 161.593,47.912 C160.19,50.393 161.233,54.099 163.988,55.893 C162.176,55.785 160.195,55.747 157.999,55.994 C150.21,56.917 141.557,60.938 142.013,69.343 C142.345,75.882 148.958,80.693 159.399,80.697 C167.836,80.692 175.736,78.006 179.055,72.07 C182.565,65.805 180.51,59.336 175.231,55.402 L175.231,55.402 Z M154.012,36.264 C152.158,29.114 154.042,24.582 158.458,23.216 C163.664,21.571 169.233,26.294 170.5,33.994 C171.343,39.037 170.053,43.82 165.491,45.103 C160.812,46.396 155.664,42.744 154.012,36.264 L154.012,36.264 Z M174.71,69.492 C174.262,73.455 170.443,76.552 163.97,76.935 C157.014,77.368 147.698,74.627 149.422,65.507 C150.357,60.645 156.809,58.152 162.107,57.984 C163.615,57.936 165.088,58.043 166.554,58.088 C167.353,58.66 168.193,59.204 169.014,59.768 C173.614,62.67 175.094,66.209 174.71,69.492 L174.71,69.492 Z" id="Shape"></path>
                <path d="M142.523,37.177 C141.951,27.411 135.401,19.081 122.876,19.081 C112.045,19.081 103.174,27.526 103.174,37.894 C103.174,49.768 113.486,57.892 125.277,56.623 C135.068,55.591 143.106,46.893 142.523,37.177 L142.523,37.177 Z M126.636,53.718 C120.05,55.207 113.064,49.768 111.346,40.529 C109.424,30.367 112.578,23.672 118.779,22.024 C126.137,20.092 133.628,27.498 134.704,38.421 C135.437,45.561 133.034,52.235 126.636,53.718 L126.636,53.718 Z" id="Shape"></path>
                <path d="M99.789,37.177 C99.189,27.411 92.589,19.081 79.945,19.081 C68.961,19.081 59.992,27.526 59.995,37.894 C59.995,49.768 70.408,57.892 82.352,56.623 C92.285,55.591 100.4,46.893 99.789,37.177 L99.789,37.177 Z M83.72,53.718 C77.066,55.207 70.017,49.768 68.266,40.529 C66.327,30.367 69.525,23.672 75.805,22.024 C83.232,20.092 90.793,27.498 91.896,38.421 C92.618,45.561 90.201,52.235 83.72,53.718 L83.72,53.718 Z" id="Shape"></path>
                <path d="M48.43,13.883 L54.112,8.038 C44.441,0.053 27.846,-0.992 16.847,4.558 C7.289,9.41 0.331,19.005 0.004,29.729 C-0.387,40.985 6.223,49.939 12.866,54.403 C23.858,61.821 42.901,60.19 54.38,54.375 L54.337,53.311 L54.38,53.311 L54.38,41.499 L57.036,38.351 L40.328,38.351 L34.122,41.846 L46.157,41.493 L46.157,51.894 C46.157,53.392 46.177,53.603 43.731,54.395 C40.302,55.311 36.439,55.497 32.898,55.196 C20.891,54.177 11.75,44.685 9.577,32.874 C7.492,21.627 12.818,11.001 21.765,6.638 C26.134,4.502 31.384,3.477 37.077,5.319 C40.627,6.428 43.878,8.508 46.694,11.337 L44.721,14.869 L48.43,13.883 L48.43,13.883 Z" id="Shape"></path>
            </g>
            <g id="MARK" sketch:type="MSShapeGroup">
                <g id="Group">
                    <g transform="translate(64.000000, 0.000000)" id="Shape">
                        <path d="M37.646,66.296 C38.839,68.27 38.864,71.38 37.835,73.522 L52.055,49.836 C53.327,47.715 53.327,44.254 52.055,42.142 L29.073,3.855 C27.796,1.744 24.737,0.007 22.269,0.007 L2.237,0.007 C-0.227,0.007 -1.208,1.743 0.062,3.855 L14.37,27.676 C14.457,27.796 14.58,27.905 14.655,28.015 L37.646,66.296 L37.646,66.296 Z" fill="url(#radialGradient-1)"></path>
                        <path d="M2.237,91.957 L22.269,91.957 C24.737,91.957 27.796,90.233 29.073,88.108 L37.836,73.519 C38.865,71.378 38.84,68.268 37.647,66.293 L23.059,42.138 C24.325,44.25 24.325,47.711 23.059,49.832 L8.833,73.502 C8.758,73.661 8.724,73.846 8.645,73.993 L-0.088,88.528 C-0.98,90.441 -0.061,91.957 2.237,91.957 L2.237,91.957 Z" fill="url(#radialGradient-2)"></path>
                        <path d="M37.646,66.296 L23.058,42.14 C24.324,44.252 24.324,47.713 23.058,49.834 L17.921,58.395 L37.835,73.522 C38.864,71.38 38.838,68.269 37.646,66.296 L37.646,66.296 Z" fill="url(#linearGradient-3)"></path>
                    </g>
                    <g id="Shape">
                        <path d="M15.372,25.668 C14.192,23.693 14.153,20.581 15.191,18.441 L0.961,42.13 C-0.309,44.252 -0.309,47.713 0.961,49.827 L23.958,88.108 C25.226,90.22 28.289,91.957 30.748,91.957 L50.78,91.957 C53.252,91.957 54.235,90.222 52.963,88.108 L38.648,64.289 C38.568,64.166 38.438,64.06 38.367,63.947 L15.372,25.668 L15.372,25.668 Z" fill="url(#radialGradient-4)"></path>
                        <path d="M50.78,0.007 L30.748,0.007 C28.29,0.007 25.226,1.734 23.958,3.855 L15.19,18.442 C14.152,20.582 14.191,23.693 15.371,25.669 L29.968,49.828 C28.696,47.714 28.696,44.252 29.968,42.131 L44.188,18.461 C44.258,18.303 44.294,18.122 44.386,17.969 L53.114,3.437 C54.006,1.525 53.078,0.007 50.78,0.007 L50.78,0.007 Z" fill="url(#radialGradient-5)"></path>
                        <path d="M15.372,25.668 L29.969,49.827 C28.697,47.713 28.697,44.251 29.969,42.13 L35.106,33.574 L15.19,18.442 C14.153,20.581 14.192,23.694 15.372,25.668 L15.372,25.668 Z" fill="url(#linearGradient-6)"></path>
                    </g>
                </g>
            </g>
        </g>
    </g>
</svg>