<?xml version="1.0" encoding="UTF-8" standalone="no"?>
<svg
   xmlns:sketch="http://www.bohemiancoding.com/sketch/ns"
   xmlns:dc="http://purl.org/dc/elements/1.1/"
   xmlns:cc="http://creativecommons.org/ns#"
   xmlns:rdf="http://www.w3.org/1999/02/22-rdf-syntax-ns#"
   xmlns:svg="http://www.w3.org/2000/svg"
   xmlns="http://www.w3.org/2000/svg"
   xmlns:sodipodi="http://sodipodi.sourceforge.net/DTD/sodipodi-0.dtd"
   xmlns:inkscape="http://www.inkscape.org/namespaces/inkscape"
   width="48"
   height="48"
   viewBox="0 0 48 48"
   version="1.1"
   id="svg2"
   inkscape:version="0.91 r13725"
   sodipodi:docname="rss-icon.svg">
  <metadata
     id="metadata17">
    <rdf:RDF>
      <cc:Work
         rdf:about="">
        <dc:format>image/svg+xml</dc:format>
        <dc:type
           rdf:resource="http://purl.org/dc/dcmitype/StillImage" />
        <dc:title>rss-icon</dc:title>
      </cc:Work>
    </rdf:RDF>
  </metadata>
  <sodipodi:namedview
     pagecolor="#ffffff"
     bordercolor="#666666"
     borderopacity="1"
     objecttolerance="10"
     gridtolerance="10"
     guidetolerance="10"
     inkscape:pageopacity="0"
     inkscape:pageshadow="2"
     inkscape:window-width="1203"
     inkscape:window-height="787"
     id="namedview15"
     showgrid="false"
     inkscape:zoom="3.6875"
     inkscape:cx="64"
     inkscape:cy="53.152542"
     inkscape:window-x="0"
     inkscape:window-y="0"
     inkscape:window-maximized="0"
     inkscape:current-layer="svg2" />
  <!-- Generator: Sketch 3.1 (8751) - http://www.bohemiancoding.com/sketch -->
  <title
     id="title4">rss-icon</title>
  <desc
     id="desc6">Created with Sketch.</desc>
  <defs
     id="defs8">
    <path
       d="M0 0h47.99v48H0z"
       id="a" />
  </defs>
  <g
     id="Page-1"
     sketch:type="MSPage"
     style="fill-rule:evenodd;stroke:none;stroke-width:1"
     transform="matrix(0.37164797,0,0,0.37164797,0.43052057,-1.0937614)">
    <g
       id="rss-icon"
       sketch:type="MSArtboardGroup">
      <path
         d="m 11,85 0,25.99172 C 11,115.41457 14.588171,119 19.007097,119 l 29.963752,0 C 43.781319,101.65234 29.146805,88.351583 11,85 Z"
         id="Rectangle-2"
         sketch:type="MSShapeGroup"
         inkscape:connector-curvature="0" />
      <path
         d="M 10.052556,52.083211 C 10.017841,52.386363 10,52.694688 10,53.007222 l 0,26.244748 0,0 C 31.71903,81.453189 49.24674,97.838488 53.175264,119 l 27.451909,0 C 76.982176,82.537087 47.045721,53.819908 10.052556,52.083211 Z"
         id="Rectangle-3"
         sketch:type="MSShapeGroup"
         inkscape:connector-curvature="0" />
      <path
         d="m 11,16.040487 0,30.17568 0,0 C 50.499603,49.07264 82.244115,79.907849 86.511744,119 l 30.325916,0 C 113.77689,62.581302 67.811875,17.575669 11.000011,16.040487 Z"
         id="Rectangle-4"
         sketch:type="MSShapeGroup"
         inkscape:connector-curvature="0" />
    </g>
  </g>
</svg>
