<?xml version="1.0" encoding="UTF-8"?>
<svg xmlns="http://www.w3.org/2000/svg" xmlns:xlink="http://www.w3.org/1999/xlink" version="1.1" width="24" height="24" viewBox="0 0 24 24">
<path d="M4,14H5.5V20.5H16.5V14H18V22H4V14M15.03,19.24H6.76V17.59H15.03V19.24M14.92,16.64L6.66,16.06L6.78,14.41L15.03,15L14.92,16.64M15.04,14.41L7.04,12.26L7.47,10.67L15.47,12.81L15.04,14.41M15.5,12.1L8.33,7.96L9.16,6.53L16.33,10.66L15.5,12.1M16.63,10.34L11.77,3.64L13.11,2.67L17.97,9.37L16.63,10.34M18.36,9.17L17.35,0.96L19,0.76L20,8.97L18.36,9.17Z" />
</svg>
