<svg xmlns="http://www.w3.org/2000/svg" viewBox="0 0 323.143 89.473"><path fill="#ccc" d="M21.645 68.971v1.308L.5 58.167V56.86z"/><path fill="gray" d="M21.645 68.971l14.73-8.379v1.309l-14.73 8.38z"/><path fill="#fff" d="M.5 56.862l14.709-8.43 21.166 12.16-14.73 8.379z"/><path fill="#999" d="M38.424 41.584l.988-.562-2.06 18.965-.991.564zM23.475 65.688v.253L5.602 55.704v-.251z"/><path fill="#b3b3b3" d="M23.475 65.688l10.123-5.76v.255l-10.123 5.76z"/><path fill="#e6e6e6" d="M5.602 55.454l10.107-5.801 17.889 10.275-10.123 5.76zm2.57 5.475l2.902-1.666 5.135 2.95-2.906 1.655zm30.252-19.345l-2.063 18.965-21.144-12.112 2.06-18.964z"/><path fill="#0071bc" d="M35.52 59.094L16.061 47.948l2.06-17.021L37.58 42.074l-2.06 17.02z"/><path fill="#b3b3b3" d="M17.277 29.474l.971-.611 21.164 12.159-.988.562z"/><path fill="none" stroke="#000" d="M37.352 59.987l2.06-18.965-21.164-12.159-.969.61h-.002l-2.06 18.963-.008-.004L.502 56.861.5 56.86v1.307l21.145 12.112v.002l14.73-8.38v-1.309l-.014-.043v.002z" stroke-linecap="round" stroke-linejoin="round"/><path fill="#b3b3b3" d="M304.416 44.21v29.233l-11.484-7.058V37.146z"/><path fill="#333" d="M302.287 45.128v3.491l-8.189-5.037v-3.493zm0 11.77v3.487l-8.189-5.038v-3.488z"/><path fill="#e6e6e6" d="M302.287 52.511v1.008l-8.189-5.035V47.47z"/><path fill="#333" d="M302.287 61.854v3.486l-8.189-5.035v-3.491zm0 4.953v3.488l-8.189-5.037V61.77z"/><path fill="gray" d="M304.41 44.228l18.203-11.482v29.236L304.41 73.463z"/><path fill="#999" d="M292.957 37.164l18.225-11.483 11.461 7.061-18.205 11.482z"/><path fill="#009245" d="M294.373 44.06c.18.105.318.365.318.582 0 .211-.141.303-.318.191a.744.744 0 0 1-.312-.582c0-.216.14-.298.312-.191"/><path fill="#c1272d" d="M295.143 44.535c.178.107.316.369.316.586 0 .211-.146.299-.318.191-.176-.105-.316-.367-.316-.582-.001-.217.142-.305.318-.195"/><path fill="#009245" d="M295.91 45a.76.76 0 0 1 .316.582c0 .217-.145.303-.318.195-.178-.107-.316-.373-.316-.588 0-.211.14-.297.318-.189"/><path fill="#c1272d" d="M296.676 45.472c.176.107.314.367.314.584-.002.211-.143.299-.32.19-.172-.106-.314-.369-.314-.582-.001-.215.144-.303.32-.192m.775.475a.74.74 0 0 1 .316.584c0 .215-.141.303-.318.191a.755.755 0 0 1-.312-.582c0-.213.14-.301.314-.193"/><path fill="#009245" d="M298.219 46.425c.178.105.316.367.316.582 0 .215-.141.301-.318.193-.174-.105-.316-.367-.316-.584-.001-.212.142-.302.318-.191m.767.461a.75.75 0 0 1 .314.584c0 .219-.143.303-.314.193-.178-.107-.318-.369-.318-.584 0-.212.143-.3.318-.193m.768.475c.172.105.312.365.312.582 0 .217-.141.299-.318.191a.74.74 0 0 1-.312-.582c0-.217.142-.304.318-.191"/><path fill="#c1272d" d="M294.373 45.195c.18.105.318.369.318.584 0 .213-.141.297-.318.193a.746.746 0 0 1-.312-.586c0-.215.14-.299.312-.191m.77.474c.178.109.316.369.316.586 0 .213-.146.303-.318.193-.176-.109-.316-.373-.316-.586-.001-.214.142-.298.318-.193"/><path fill="#009245" d="M295.91 46.134c.172.104.316.373.316.582 0 .217-.145.303-.318.197-.178-.109-.316-.371-.316-.588 0-.212.14-.298.318-.191"/><path fill="#c1272d" d="M296.676 46.607c.176.105.314.367.314.584-.002.211-.143.299-.32.193a.774.774 0 0 1-.314-.584c-.001-.217.144-.304.32-.193"/><path fill="#009245" d="M297.451 47.082a.742.742 0 0 1 .316.582c0 .217-.141.305-.318.197-.172-.107-.312-.371-.312-.584 0-.215.14-.303.314-.195"/><path fill="#c1272d" d="M298.219 47.556c.178.107.316.375.316.586 0 .217-.141.301-.318.195a.757.757 0 0 1-.316-.584c-.001-.214.142-.302.318-.197"/><path fill="#009245" d="M298.986 48.021a.763.763 0 0 1 .314.586c0 .217-.143.303-.314.191-.178-.104-.318-.367-.318-.582 0-.215.143-.302.318-.195"/><path fill="#c1272d" d="M299.754 48.492a.766.766 0 0 1 .312.586c0 .217-.141.299-.318.195a.757.757 0 0 1-.312-.584c0-.219.142-.301.318-.197"/><path fill="#009245" d="M300.346 53.375c.178.107.32.367.32.586 0 .211-.145.299-.32.193a.762.762 0 0 1-.316-.586c-.001-.215.14-.301.316-.193m.769.462a.763.763 0 0 1 .312.586c0 .215-.141.299-.312.193a.742.742 0 0 1-.318-.584c0-.214.141-.298.318-.195"/><path fill="#c1272d" d="M301.879 54.31c.176.107.316.367.316.584 0 .211-.141.303-.318.193a.744.744 0 0 1-.314-.584c-.001-.214.142-.304.316-.193m-1.533.201c.178.105.32.367.32.586 0 .213-.145.299-.32.188-.178-.104-.316-.369-.316-.582-.001-.213.14-.303.316-.192m.769.463a.772.772 0 0 1 .312.582c0 .217-.141.305-.312.193-.18-.105-.318-.369-.318-.582 0-.216.141-.3.318-.193"/><path fill="#009245" d="M301.879 55.447c.176.104.316.365.316.582 0 .215-.141.303-.318.191a.731.731 0 0 1-.314-.582c-.001-.213.142-.301.316-.191"/><path fill="none" stroke="#000" d="M322.643 32.742l-11.463-7.061-18.223 11.483-.025-.018v29.239l11.478 7.058v.02l18.201-11.481V32.761z" stroke-linecap="round" stroke-linejoin="round"/><path fill="#fff" fill-rule="evenodd" d="M68.327 16.053H263.91v67.039H68.327z" clip-rule="evenodd"/><path fill="none" stroke="#000" d="M68.327 16.053H263.91v67.039H68.327z" stroke-linecap="round" stroke-linejoin="round"/><path fill="none" stroke="#000" d="M68.327 34.093h195.582" stroke-dasharray="1 1"/><path fill="#4d4d4d" fill-rule="evenodd" d="M63.457 64.094l-6.098-6.989v3.887H44.953v6.203h12.406v3.887zm-18.504-30l6.097-6.989v3.887h12.407v6.203H51.05v3.887zm241.504 30l-6.098-6.989v3.887h-12.406v6.203h12.406v3.887zm-18.504-30l6.098-6.989v3.887h12.406v6.203h-12.406v3.887z" clip-rule="evenodd"/><path fill="#fddfbb" fill-rule="evenodd" stroke="#000" d="M75.951 22.406H115.2V45.78H75.951z" clip-rule="evenodd" stroke-linecap="round" stroke-linejoin="round"/><path fill="#b2dec7" fill-rule="evenodd" stroke="#000" d="M115.2 22.406h39.249V45.78H115.2zm39.249 0h39.249V45.78h-39.249z" clip-rule="evenodd" stroke-linecap="round" stroke-linejoin="round"/><path fill="#fddfbb" fill-rule="evenodd" stroke="#000" d="M193.697 22.406h39.249V45.78h-39.249z" clip-rule="evenodd" stroke-linecap="round" stroke-linejoin="round"/><path fill="none" stroke="#000" d="M68.327 64.093h195.582" stroke-dasharray="1 1"/><path fill="#b2d4eb" fill-rule="evenodd" stroke="#000" d="M193.697 52.406h39.249V75.78h-39.249z" clip-rule="evenodd" stroke-linecap="round" stroke-linejoin="round"/><path fill="#e6e6e6" fill-rule="evenodd" stroke="#000" d="M232.946 22.406h22.629V45.78h-22.629z" clip-rule="evenodd" stroke-linecap="round" stroke-linejoin="round"/><path d="M15.209 81.099c-.189.1-.495.162-.873.162-1.179 0-2.035-.945-2.035-3.007 0-2.403 1.188-3.169 2.152-3.169.36 0 .63.072.747.153l-.153.585c-.144-.062-.288-.126-.603-.126-.648 0-1.414.63-1.414 2.485 0 1.863.685 2.466 1.432 2.466a1.6 1.6 0 0 0 .63-.126l.117.577zm.647-6.122h.693v6.229h-.693v-6.229zm2.043 1.198c-.225 0-.396-.181-.396-.45 0-.271.18-.45.405-.45.252 0 .414.18.414.45s-.162.45-.414.45h-.009zm-.324 5.032V76.85h.693v4.357h-.693zm2.142-2.115c.009 1.341.531 1.62 1.026 1.62.306 0 .549-.072.72-.162l.117.504c-.243.136-.612.207-.963.207-1.035 0-1.576-.846-1.576-2.188 0-1.413.594-2.296 1.468-2.296.882 0 1.242.937 1.242 1.918 0 .171-.009.288-.018.396h-2.016zm1.369-.514c.009-.873-.315-1.261-.648-1.261-.45 0-.684.667-.711 1.261h1.359zm1.412-.603c0-.513-.027-.773-.036-1.125h.603l.036.522h.018c.189-.352.54-.595.999-.595.604 0 1.054.441 1.054 1.504v2.926h-.693v-2.809c0-.522-.099-1.035-.603-1.035-.288 0-.567.243-.648.711a1.57 1.57 0 0 0-.036.387v2.746h-.693v-3.232zm4.438-2.143v1.018h.837v.522h-.837v2.593c0 .576.198.72.45.72.117 0 .207-.009.279-.026l.036.531a1.522 1.522 0 0 1-.513.071c-.279 0-.522-.071-.684-.261-.18-.198-.261-.495-.261-1.099v-2.529h-.531v-.522h.531v-.738l.693-.28zm43.217-74.04v3.069h1.76V1.792h1.177v7.415h-1.177V5.939h-1.76v3.268h-1.177V1.792h1.177zm5.06 1.078h-1.331V1.792h3.839V2.87H76.39v6.337h-1.177V2.87zm4.267 0h-1.331V1.792h3.839V2.87h-1.331v6.337H79.48V2.87zm3.311-.968a6.149 6.149 0 0 1 1.375-.144c.781 0 1.419.144 1.859.562.396.374.594.946.594 1.584 0 .748-.209 1.254-.55 1.65-.44.517-1.155.77-1.782.77-.121 0-.22 0-.33-.011v2.894H82.79V1.902zm1.167 3.444c.088.021.165.021.286.021.771 0 1.199-.527 1.199-1.375 0-.693-.286-1.276-1.078-1.276a1.31 1.31 0 0 0-.407.056v2.574zm4.971 3.861v-.781l.66-.869c.891-1.177 1.76-2.321 1.76-3.487 0-.671-.33-1.111-.957-1.111-.484 0-.836.231-1.056.374l-.231-.903c.286-.209.847-.462 1.497-.462 1.397 0 1.903.969 1.903 2.024 0 1.343-.858 2.52-1.706 3.587l-.451.572v.021h2.267v1.034h-3.686zm5.423.088c-.385 0-.704-.319-.704-.814 0-.473.33-.813.715-.813.407 0 .715.308.715.813 0 .495-.286.814-.715.814h-.011zm3.355 0c-1.353 0-1.947-1.573-1.947-3.642 0-2.222.682-3.686 2.024-3.686 1.43 0 1.914 1.673 1.914 3.642 0 2.586-.88 3.686-1.98 3.686h-.011zm.055-1.001c.55 0 .759-.99.759-2.662 0-1.606-.198-2.663-.771-2.663-.561 0-.825.969-.814 2.663-.011 1.705.231 2.662.814 2.662h.012zm7.304.803c-.165.088-.506.177-.902.177-1.276 0-2.123-.946-2.123-2.707 0-1.606.891-2.794 2.311-2.794.319 0 .627.077.77.154l-.176.935c-.121-.044-.308-.121-.572-.121-.759 0-1.155.814-1.155 1.805 0 1.1.44 1.76 1.155 1.76.22 0 .407-.044.572-.121l.12.912zm2.288.198c-1.133 0-1.914-.946-1.914-2.75 0-1.947.957-2.783 1.958-2.783 1.123 0 1.893.979 1.893 2.75 0 2.167-1.122 2.783-1.925 2.783h-.012zm.043-.902c.583 0 .715-1.056.715-1.87 0-.781-.132-1.859-.737-1.859-.638 0-.759 1.078-.759 1.859 0 .902.154 1.87.77 1.87h.011zm2.762-3.037c0-.605-.022-1.034-.044-1.507h1.023l.055.627h.022c.253-.43.704-.715 1.265-.715.902 0 1.375.692 1.375 1.936v3.51h-1.177V5.808c0-.539-.11-1.057-.627-1.057-.286 0-.55.221-.66.66-.033.11-.055.286-.055.484v3.312h-1.177V5.356zm4.774 0c0-.605-.022-1.034-.044-1.507h1.023l.055.627h.022c.253-.43.704-.715 1.265-.715.902 0 1.375.692 1.375 1.936v3.51h-1.177V5.808c0-.539-.11-1.057-.627-1.057-.286 0-.55.221-.66.66-.033.11-.055.286-.055.484v3.312h-1.177V5.356zm5.72 1.486c.011 1.199.561 1.529 1.188 1.529.396 0 .726-.088.957-.188l.176.836c-.341.154-.858.254-1.342.254-1.386 0-2.124-1.002-2.124-2.663 0-1.771.847-2.849 1.992-2.849 1.122 0 1.694 1.022 1.694 2.453 0 .308-.011.483-.033.627h-2.508zm1.452-.836c.011-.858-.275-1.364-.693-1.364-.506 0-.737.737-.759 1.364h1.452zm4.751 3.091c-.165.088-.506.177-.902.177-1.276 0-2.123-.946-2.123-2.707 0-1.606.891-2.794 2.311-2.794.319 0 .627.077.77.154l-.176.935c-.121-.044-.308-.121-.572-.121-.759 0-1.155.814-1.155 1.805 0 1.1.44 1.76 1.155 1.76.22 0 .407-.044.572-.121l.12.912zm2.222-6.578V3.85h1.034v.847h-1.034V7.48c0 .66.253.825.55.825.132 0 .242-.011.363-.033l.022.913c-.176.056-.44.089-.77.089-.374 0-.715-.1-.946-.33-.264-.265-.396-.649-.396-1.452V4.696h-.638V3.85h.638v-.925l1.177-.406zm2.299.615c-.341 0-.616-.274-.616-.682 0-.418.286-.683.627-.683.374 0 .638.265.638.683 0 .407-.264.682-.638.682h-.011zm-.561 6.073V3.85h1.177v5.357h-1.177zm3.96.088c-1.133 0-1.914-.946-1.914-2.75 0-1.947.957-2.783 1.958-2.783 1.122 0 1.892.979 1.892 2.75 0 2.167-1.122 2.783-1.925 2.783h-.011zm.044-.902c.583 0 .715-1.056.715-1.87 0-.781-.132-1.859-.737-1.859-.638 0-.759 1.078-.759 1.859 0 .902.154 1.87.77 1.87h.011zm2.761-3.037c0-.605-.022-1.034-.044-1.507h1.023l.055.627h.022c.253-.43.704-.715 1.265-.715.902 0 1.375.692 1.375 1.936v3.51H140.1V5.808c0-.539-.11-1.057-.627-1.057-.286 0-.55.221-.66.66-.033.11-.055.286-.055.484v3.312h-1.177V5.356zm161.837 75.05c.207.126.567.242.873.242.631 0 1.009-.414 1.009-1.026 0-.558-.324-.899-.802-1.26-.477-.333-1.143-.9-1.143-1.684 0-.918.648-1.594 1.603-1.594.378 0 .711.126.854.226l-.17.594a1.282 1.282 0 0 0-.721-.207c-.594 0-.873.45-.873.864 0 .604.314.847.891 1.252.729.513 1.054 1.071 1.054 1.746 0 1.044-.738 1.701-1.702 1.701-.414 0-.854-.135-1.025-.27l.152-.584zm3.879-1.314c.01 1.341.531 1.62 1.027 1.62.306 0 .549-.072.72-.162l.117.504c-.243.136-.612.207-.964.207-1.035 0-1.575-.846-1.575-2.188 0-1.413.595-2.296 1.468-2.296.883 0 1.242.937 1.242 1.918 0 .171-.009.288-.018.396h-2.017zm1.369-.514c.009-.873-.315-1.261-.648-1.261-.45 0-.684.667-.711 1.261h1.359zm1.402-.603c0-.368-.026-.801-.035-1.125h.621l.035.685h.019c.144-.414.513-.757.919-.757.054 0 .099 0 .144.01v.711c-.045-.009-.09-.009-.144-.009-.441 0-.766.404-.838.909a2.566 2.566 0 0 0-.027.396v2.413h-.693v-3.233zm2.827-1.125l.549 2.449c.063.297.136.684.189 1.062h.027c.045-.359.117-.729.18-1.062l.541-2.449h.684l-1.143 4.357h-.613l-1.134-4.357h.72zm3.14 2.242c.01 1.341.531 1.62 1.027 1.62.306 0 .549-.072.72-.162l.117.504c-.243.136-.612.207-.964.207-1.035 0-1.575-.846-1.575-2.188 0-1.413.595-2.296 1.468-2.296.883 0 1.242.937 1.242 1.918 0 .171-.009.288-.018.396h-2.017zm1.369-.514c.009-.873-.315-1.261-.648-1.261-.45 0-.684.667-.711 1.261h1.359zm1.404-.603c0-.368-.026-.801-.036-1.125h.621l.036.685h.019c.144-.414.513-.757.918-.757.054 0 .1 0 .145.01v.711c-.045-.009-.091-.009-.145-.009-.441 0-.766.404-.838.909a2.576 2.576 0 0 0-.026.396v2.413h-.693v-3.233zM85.943 31.515c.153.099.423.225.702.225.387 0 .639-.243.639-.63 0-.333-.117-.567-.558-.855-.567-.369-.873-.747-.873-1.242 0-.712.522-1.207 1.197-1.207.342 0 .594.108.774.226l-.18.522a.994.994 0 0 0-.585-.198c-.369 0-.558.27-.558.558s.108.459.54.747c.504.324.9.729.9 1.333 0 .873-.594 1.296-1.314 1.296-.315 0-.666-.099-.855-.252l.171-.523zm3.564-4.655v1.018h.837v.522h-.837v2.593c0 .576.198.72.45.72.117 0 .207-.009.279-.026l.036.531a1.522 1.522 0 0 1-.513.071c-.279 0-.522-.071-.684-.261-.18-.198-.261-.495-.261-1.099V28.4h-.531v-.522h.531v-.738l.693-.28zm1.44 2.142c0-.368-.027-.801-.036-1.125h.622l.036.685h.018c.144-.414.513-.757.918-.757.054 0 .099 0 .144.01v.711c-.045-.009-.09-.009-.144-.009-.441 0-.765.404-.837.909a2.566 2.566 0 0 0-.027.396v2.413h-.693v-3.233zm2.601 1.118c.009 1.341.531 1.62 1.026 1.62.306 0 .549-.072.72-.162l.117.504c-.243.136-.612.207-.963.207-1.035 0-1.576-.846-1.576-2.188 0-1.413.594-2.296 1.468-2.296.882 0 1.242.937 1.242 1.918 0 .171-.009.288-.018.396h-2.016zm1.369-.514c.009-.873-.315-1.261-.648-1.261-.45 0-.684.667-.711 1.261h1.359zm3.707 1.639c0 .333 0 .711.045.99h-.621l-.045-.459h-.027c-.189.333-.495.531-.864.531-.585 0-1.036-.486-1.036-1.242 0-1.099.874-1.576 1.855-1.585v-.135c0-.585-.145-.99-.693-.99-.27 0-.513.081-.72.225l-.153-.486c.189-.135.585-.288 1.018-.288.873 0 1.242.576 1.242 1.549v1.89zm-.675-1.27c-.36 0-1.197.072-1.197 1.018 0 .576.288.774.531.774.306 0 .558-.226.639-.657a1.2 1.2 0 0 0 .027-.252v-.883zm1.656-.973c0-.513-.027-.773-.036-1.125h.612l.036.531h.018c.189-.351.513-.604.972-.604.405 0 .756.189.918.657h.018a1.46 1.46 0 0 1 .423-.495c.18-.107.378-.162.603-.162.594 0 1.053.424 1.053 1.54v2.89h-.693v-2.737c0-.566-.081-1.116-.603-1.116-.288 0-.54.243-.639.657-.027.108-.027.243-.027.388v2.809h-.693v-2.863c0-.477-.081-.99-.594-.99-.288 0-.567.243-.648.712a2.27 2.27 0 0 0-.027.369v2.772h-.693v-3.233zm8.199-1.917h-.018l-.972.558-.135-.54 1.233-.72h.567v5.852h-.675v-5.15zM96.22 35.257c.261-.081.585-.117.937-.117.63 0 1.089.162 1.422.459.468.405.819 1.188.819 2.458 0 1.386-.342 2.143-.729 2.565-.396.441-.981.648-1.674.648-.279 0-.576-.019-.774-.063v-5.95zm.694 5.419c.099.019.198.019.261.019.765 0 1.503-.549 1.503-2.62 0-1.53-.468-2.367-1.44-2.367-.108 0-.234.009-.324.036v4.932zm3.861-1.26l-.396 1.818h-.675l1.386-6.067h.765l1.351 6.067h-.684l-.396-1.818h-1.351zm1.251-.558l-.315-1.539c-.09-.433-.171-.937-.243-1.387h-.027c-.072.459-.162.981-.252 1.396l-.315 1.53h1.152zm2.106-3.069h-1.107v-.621h2.908v.621h-1.107v5.446h-.693v-5.446zm2.799 3.627l-.396 1.818h-.675l1.386-6.067h.765l1.351 6.067h-.684l-.396-1.818h-1.351zm1.251-.558l-.315-1.539c-.09-.433-.171-.937-.243-1.387h-.027c-.072.459-.162.981-.252 1.396l-.315 1.53h1.152zm17.01-7.343c.153.099.423.225.702.225.387 0 .639-.243.639-.63 0-.333-.117-.567-.558-.855-.567-.369-.873-.747-.873-1.242 0-.712.522-1.207 1.197-1.207.342 0 .594.108.774.226l-.18.522a.994.994 0 0 0-.585-.198c-.369 0-.558.27-.558.558s.108.459.54.747c.504.324.9.729.9 1.333 0 .873-.594 1.296-1.314 1.296-.315 0-.666-.099-.855-.252l.171-.523zm3.564-4.655v1.018h.837v.522h-.837v2.593c0 .576.198.72.45.72.117 0 .207-.009.279-.026l.036.531a1.522 1.522 0 0 1-.513.071c-.279 0-.522-.071-.684-.261-.18-.198-.261-.495-.261-1.099V28.4h-.531v-.522h.531v-.738l.693-.28zm1.44 2.142c0-.368-.027-.801-.036-1.125h.622l.036.685h.018c.144-.414.513-.757.918-.757.054 0 .099 0 .144.01v.711c-.045-.009-.09-.009-.144-.009-.441 0-.765.404-.837.909a2.566 2.566 0 0 0-.027.396v2.413h-.693v-3.233zm2.601 1.118c.009 1.341.531 1.62 1.026 1.62.306 0 .549-.072.72-.162l.117.504c-.243.136-.612.207-.963.207-1.035 0-1.576-.846-1.576-2.188 0-1.413.594-2.296 1.468-2.296.882 0 1.242.937 1.242 1.918 0 .171-.009.288-.018.396h-2.016zm1.369-.514c.009-.873-.315-1.261-.648-1.261-.45 0-.684.667-.711 1.261h1.359zm3.707 1.639c0 .333 0 .711.045.99h-.621l-.045-.459h-.027c-.189.333-.495.531-.864.531-.585 0-1.036-.486-1.036-1.242 0-1.099.874-1.576 1.855-1.585v-.135c0-.585-.145-.99-.693-.99-.27 0-.513.081-.72.225l-.153-.486c.189-.135.585-.288 1.018-.288.873 0 1.242.576 1.242 1.549v1.89zm-.675-1.27c-.36 0-1.197.072-1.197 1.018 0 .576.288.774.531.774.306 0 .558-.226.639-.657a1.2 1.2 0 0 0 .027-.252v-.883zm1.656-.973c0-.513-.027-.773-.036-1.125h.612l.036.531h.018c.189-.351.513-.604.972-.604.405 0 .756.189.918.657h.018a1.46 1.46 0 0 1 .423-.495c.18-.107.378-.162.603-.162.594 0 1.053.424 1.053 1.54v2.89h-.693v-2.737c0-.566-.081-1.116-.603-1.116-.288 0-.54.243-.639.657-.027.108-.027.243-.027.388v2.809h-.693v-2.863c0-.477-.081-.99-.594-.99-.288 0-.567.243-.648.712a2.27 2.27 0 0 0-.027.369v2.772h-.693v-3.233zm6.912 2.486c.18.107.495.243.846.243.603 0 1.008-.441 1.008-1.161 0-.766-.477-1.216-1.179-1.216h-.162v-.522h.135c.414 0 1.053-.314 1.053-1.044 0-.595-.315-.9-.774-.9-.288 0-.54.145-.729.279l-.144-.522c.207-.171.604-.333 1.044-.333.828 0 1.296.585 1.296 1.342 0 .594-.306 1.116-.873 1.377v.019c.522.144 1.026.611 1.026 1.539 0 .945-.612 1.72-1.674 1.72-.378 0-.792-.108-1.026-.271l.153-.55zm-21.096 3.679v2.602h1.702v-2.602h.693v6.067h-.693v-2.836h-1.702v2.836h-.693v-6.067h.693zm5.688 3.187h-1.521v2.277h1.729v.604h-2.422v-6.067h2.314v.603h-1.621v1.999h1.521v.584zm1.701 1.062l-.396 1.818h-.675l1.386-6.067h.765l1.351 6.067h-.684l-.396-1.818h-1.351zm1.251-.558l-.315-1.539c-.09-.433-.171-.937-.243-1.387h-.027c-.072.459-.162.981-.252 1.396l-.315 1.53h1.152zm1.935-3.601c.261-.081.585-.117.937-.117.63 0 1.089.162 1.422.459.468.405.819 1.188.819 2.458 0 1.386-.342 2.143-.729 2.565-.396.441-.981.648-1.674.648-.279 0-.576-.019-.774-.063v-5.95zm.693 5.419c.099.019.198.019.261.019.765 0 1.503-.549 1.503-2.62 0-1.53-.468-2.367-1.44-2.367-.108 0-.234.009-.324.036v4.932zm5.526-2.322h-1.521v2.277h1.729v.604h-2.422v-6.067h2.314v.603h-1.621v1.999h1.521v.584zm.971-3.097a3.952 3.952 0 0 1 1-.117c.603 0 1.053.126 1.368.432.297.307.423.712.423 1.188 0 .774-.36 1.278-.972 1.566v.019c.45.135.684.567.81 1.359.144.828.261 1.341.351 1.53h-.702c-.09-.18-.207-.756-.324-1.494-.135-.838-.396-1.144-.99-1.144h-.27v2.638h-.693v-5.977zm.693 2.8h.288c.666 0 1.107-.486 1.107-1.216 0-.693-.288-1.134-1.036-1.144-.135 0-.27.01-.36.036v2.324zm2.853 2.377c.207.126.567.242.873.242.63 0 1.008-.414 1.008-1.026 0-.558-.324-.899-.801-1.26-.477-.333-1.143-.9-1.143-1.684 0-.918.648-1.594 1.603-1.594.378 0 .711.126.855.226l-.171.594a1.276 1.276 0 0 0-.72-.207c-.594 0-.874.45-.874.864 0 .604.315.847.892 1.252.729.513 1.053 1.071 1.053 1.746 0 1.044-.738 1.701-1.702 1.701-.414 0-.855-.135-1.026-.27l.153-.584zm18.46-8.919c.153.099.423.225.702.225.387 0 .639-.243.639-.63 0-.333-.117-.567-.558-.855-.567-.369-.873-.747-.873-1.242 0-.712.522-1.207 1.197-1.207.342 0 .594.108.774.226l-.18.522a.994.994 0 0 0-.585-.198c-.369 0-.558.27-.558.558s.108.459.54.747c.504.324.9.729.9 1.333 0 .873-.594 1.296-1.314 1.296-.315 0-.666-.099-.855-.252l.171-.523zm3.564-4.655v1.018h.837v.522h-.837v2.593c0 .576.198.72.45.72.117 0 .207-.009.279-.026l.036.531a1.522 1.522 0 0 1-.513.071c-.279 0-.522-.071-.684-.261-.18-.198-.261-.495-.261-1.099V28.4h-.531v-.522h.531v-.738l.693-.28zm1.44 2.142c0-.368-.027-.801-.036-1.125h.622l.036.685h.018c.144-.414.513-.757.918-.757.054 0 .099 0 .144.01v.711c-.045-.009-.09-.009-.144-.009-.441 0-.765.404-.837.909a2.566 2.566 0 0 0-.027.396v2.413h-.693v-3.233zm2.601 1.118c.009 1.341.531 1.62 1.026 1.62.307 0 .549-.072.721-.162l.117.504c-.244.136-.613.207-.964.207-1.035 0-1.575-.846-1.575-2.188 0-1.413.594-2.296 1.467-2.296.883 0 1.242.937 1.242 1.918 0 .171-.008.288-.018.396h-2.016zm1.368-.514c.01-.873-.314-1.261-.648-1.261-.449 0-.684.667-.711 1.261h1.359zm3.708 1.639c0 .333 0 .711.045.99h-.621l-.045-.459h-.026c-.189.333-.496.531-.865.531-.585 0-1.035-.486-1.035-1.242 0-1.099.873-1.576 1.855-1.585v-.135c0-.585-.145-.99-.693-.99-.271 0-.514.081-.721.225l-.153-.486c.189-.135.585-.288 1.018-.288.873 0 1.242.576 1.242 1.549v1.89zm-.675-1.27c-.36 0-1.197.072-1.197 1.018 0 .576.287.774.531.774.306 0 .558-.226.639-.657a1.2 1.2 0 0 0 .027-.252v-.883zm1.656-.973c0-.513-.027-.773-.036-1.125h.612l.036.531h.018c.189-.351.514-.604.973-.604.404 0 .756.189.918.657h.018c.117-.216.271-.387.424-.495.18-.107.378-.162.604-.162.594 0 1.053.424 1.053 1.54v2.89h-.693v-2.737c0-.566-.081-1.116-.604-1.116-.287 0-.539.243-.639.657-.027.108-.027.243-.027.388v2.809h-.693v-2.863c0-.477-.08-.99-.594-.99-.288 0-.566.243-.648.712a2.27 2.27 0 0 0-.027.369v2.772h-.692v-3.233zm6.912 2.486c.18.107.495.243.847.243.603 0 1.008-.441 1.008-1.161 0-.766-.477-1.216-1.18-1.216h-.162v-.522h.135c.414 0 1.054-.314 1.054-1.044 0-.595-.315-.9-.774-.9-.287 0-.539.145-.729.279l-.145-.522c.207-.171.604-.333 1.045-.333.828 0 1.296.585 1.296 1.342 0 .594-.306 1.116-.873 1.377v.019c.522.144 1.026.611 1.026 1.539 0 .945-.612 1.72-1.675 1.72-.378 0-.792-.108-1.026-.271l.153-.55zm-10.296 3.769c.261-.081.585-.117.936-.117.631 0 1.09.162 1.423.459.468.405.819 1.188.819 2.458 0 1.386-.342 2.143-.729 2.565-.396.441-.981.648-1.675.648-.279 0-.576-.019-.773-.063v-5.95zm.693 5.419c.099.019.197.019.261.019.765 0 1.503-.549 1.503-2.62 0-1.53-.468-2.367-1.439-2.367-.109 0-.234.009-.324.036v4.932zm3.861-1.26l-.396 1.818h-.676l1.387-6.067h.766l1.35 6.067h-.684l-.396-1.818h-1.351zm1.25-.558l-.314-1.539c-.09-.433-.171-.937-.243-1.387h-.026c-.072.459-.162.981-.252 1.396l-.316 1.53h1.151zm2.107-3.069h-1.107v-.621h2.907v.621h-1.107v5.446h-.692v-5.446zm2.799 3.627l-.396 1.818h-.675l1.387-6.067h.765l1.351 6.067h-.684l-.396-1.818h-1.352zm1.251-.558l-.314-1.539a31.98 31.98 0 0 1-.244-1.387h-.026c-.071.459-.162.981-.252 1.396l-.315 1.53h1.151zm17.009-7.343c.153.099.424.225.703.225.387 0 .639-.243.639-.63 0-.333-.117-.567-.559-.855-.566-.369-.873-.747-.873-1.242 0-.712.522-1.207 1.197-1.207.342 0 .595.108.774.226l-.18.522a.994.994 0 0 0-.585-.198c-.369 0-.559.27-.559.558s.107.459.54.747c.505.324.9.729.9 1.333 0 .873-.595 1.296-1.314 1.296-.315 0-.666-.099-.854-.252l.171-.523zm3.565-4.655v1.018h.838v.522h-.838v2.593c0 .576.198.72.451.72.116 0 .207-.009.278-.026l.036.531a1.524 1.524 0 0 1-.514.071c-.279 0-.521-.071-.684-.261-.18-.198-.262-.495-.262-1.099V28.4h-.531v-.522h.531v-.738l.695-.28zm1.439 2.142c0-.368-.026-.801-.035-1.125h.621l.035.685h.019c.144-.414.513-.757.919-.757a.66.66 0 0 1 .144.01v.711c-.045-.009-.091-.009-.144-.009-.441 0-.766.404-.838.909a2.566 2.566 0 0 0-.027.396v2.413h-.693v-3.233zm2.602 1.118c.01 1.341.531 1.62 1.026 1.62.306 0 .55-.072.72-.162l.117.504c-.242.136-.611.207-.963.207-1.035 0-1.576-.846-1.576-2.188 0-1.413.595-2.296 1.469-2.296.882 0 1.242.937 1.242 1.918 0 .171-.01.288-.019.396h-2.016zm1.369-.514c.008-.873-.316-1.261-.648-1.261-.451 0-.685.667-.711 1.261h1.359zm3.707 1.639c0 .333 0 .711.045.99h-.621l-.045-.459h-.027c-.189.333-.494.531-.863.531-.586 0-1.036-.486-1.036-1.242 0-1.099.874-1.576 1.854-1.585v-.135c0-.585-.145-.99-.693-.99-.27 0-.513.081-.72.225l-.153-.486c.189-.135.586-.288 1.018-.288.873 0 1.242.576 1.242 1.549v1.89zm-.676-1.27c-.359 0-1.197.072-1.197 1.018 0 .576.289.774.531.774.307 0 .559-.226.64-.657.019-.081.026-.171.026-.252v-.883zm1.657-.973c0-.513-.027-.773-.036-1.125h.612l.035.531h.019c.188-.351.513-.604.972-.604.406 0 .757.189.919.657h.019a1.46 1.46 0 0 1 .423-.495c.18-.107.378-.162.603-.162.595 0 1.054.424 1.054 1.54v2.89h-.693v-2.737c0-.566-.081-1.116-.603-1.116-.289 0-.541.243-.64.657-.026.108-.026.243-.026.388v2.809h-.693v-2.863c0-.477-.082-.99-.595-.99-.288 0-.567.243-.647.712a2.163 2.163 0 0 0-.027.369v2.772h-.693v-3.233zm8.199-1.917h-.018l-.973.558-.135-.54 1.232-.72h.568v5.852h-.676v-5.15zm-11.584 8.172c.262-.081.586-.117.938-.117.629 0 1.089.162 1.422.459.469.405.819 1.188.819 2.458 0 1.386-.343 2.143-.729 2.565-.396.441-.98.648-1.674.648-.279 0-.576-.019-.775-.063v-5.95zm.693 5.419c.1.019.199.019.262.019.766 0 1.504-.549 1.504-2.62 0-1.53-.469-2.367-1.441-2.367-.107 0-.234.009-.324.036v4.932zm3.861-1.26l-.396 1.818h-.674l1.386-6.067h.765l1.352 6.067h-.685l-.396-1.818h-1.352zm1.252-.558l-.315-1.539c-.09-.433-.171-.937-.243-1.387h-.027c-.071.459-.162.981-.252 1.396l-.314 1.53h1.151zm2.106-3.069h-1.107v-.621h2.908v.621h-1.107v5.446h-.693v-5.446zm2.799 3.627l-.396 1.818h-.675l1.386-6.067h.766l1.351 6.067h-.685l-.396-1.818h-1.351zm1.252-.558l-.316-1.539c-.09-.433-.17-.937-.242-1.387h-.027c-.072.459-.162.981-.252 1.396l-.314 1.53h1.151zm-22.241 22.657c.153.099.424.225.703.225.387 0 .639-.243.639-.63 0-.333-.117-.567-.559-.855-.566-.369-.873-.747-.873-1.242 0-.712.522-1.207 1.197-1.207.342 0 .595.108.774.226l-.18.522a.994.994 0 0 0-.585-.198c-.369 0-.559.27-.559.558s.107.459.54.747c.505.324.9.729.9 1.333 0 .873-.595 1.296-1.314 1.296-.315 0-.666-.099-.854-.252l.171-.523zm3.565-4.655v1.018h.838v.522h-.838v2.593c0 .576.198.72.451.72.116 0 .207-.009.278-.026l.036.531a1.524 1.524 0 0 1-.514.071c-.279 0-.521-.071-.684-.261-.18-.198-.262-.495-.262-1.099V58.4h-.531v-.522h.531v-.738l.695-.28zm1.439 2.142c0-.368-.026-.801-.035-1.125h.621l.035.685h.019c.144-.414.513-.757.919-.757a.66.66 0 0 1 .144.01v.711c-.045-.009-.091-.009-.144-.009-.441 0-.766.404-.838.909a2.566 2.566 0 0 0-.027.396v2.413h-.693v-3.233zm2.602 1.118c.01 1.341.531 1.62 1.026 1.62.306 0 .55-.072.72-.162l.117.504c-.242.136-.611.207-.963.207-1.035 0-1.576-.846-1.576-2.188 0-1.413.595-2.296 1.469-2.296.882 0 1.242.937 1.242 1.918 0 .171-.01.288-.019.396h-2.016zm1.369-.514c.008-.873-.316-1.261-.648-1.261-.451 0-.685.667-.711 1.261h1.359zm3.707 1.639c0 .333 0 .711.045.99h-.621l-.045-.459h-.027c-.189.333-.494.531-.863.531-.586 0-1.036-.486-1.036-1.242 0-1.099.874-1.576 1.854-1.585v-.135c0-.585-.145-.99-.693-.99-.27 0-.513.081-.72.225l-.153-.486c.189-.135.586-.288 1.018-.288.873 0 1.242.576 1.242 1.549v1.89zm-.676-1.27c-.359 0-1.197.072-1.197 1.018 0 .576.289.774.531.774.307 0 .559-.226.64-.657.019-.081.026-.171.026-.252v-.883zm1.657-.973c0-.513-.027-.773-.036-1.125h.612l.035.531h.019c.188-.351.513-.604.972-.604.406 0 .757.189.919.657h.019a1.46 1.46 0 0 1 .423-.495c.18-.107.378-.162.603-.162.595 0 1.054.424 1.054 1.54v2.89h-.693v-2.737c0-.566-.081-1.116-.603-1.116-.289 0-.541.243-.64.657-.026.108-.026.243-.026.388v2.809h-.693v-2.863c0-.477-.082-.99-.595-.99-.288 0-.567.243-.647.712a2.163 2.163 0 0 0-.027.369v2.772h-.693v-3.233zm9.504-2.006h-1.575l-.244 1.558c.072-.019.136-.019.217-.019.314 0 .811.145 1.116.441.315.306.495.738.495 1.332 0 1.171-.738 1.999-1.773 1.999-.36 0-.766-.1-1-.252l.154-.55c.18.1.494.226.818.226.594 0 1.107-.45 1.107-1.351 0-.928-.566-1.314-1.323-1.314-.216 0-.351.009-.459.027l.369-2.71h2.098v.613zm-12.889 8.262c.262-.081.586-.117.938-.117.629 0 1.089.162 1.422.459.469.405.819 1.188.819 2.458 0 1.386-.343 2.143-.729 2.565-.396.441-.98.648-1.674.648-.279 0-.576-.019-.775-.063v-5.95zm.693 5.419c.1.019.199.019.262.019.766 0 1.504-.549 1.504-2.62 0-1.53-.469-2.367-1.441-2.367-.107 0-.234.009-.324.036v4.932zm3.861-1.26l-.396 1.818h-.674l1.386-6.067h.765l1.352 6.067h-.685l-.396-1.818h-1.352zm1.252-.559l-.315-1.539c-.09-.433-.171-.937-.243-1.387h-.027c-.071.459-.162.981-.252 1.396l-.314 1.53h1.151zm2.106-3.069h-1.107v-.621h2.908v.621h-1.107v5.446h-.693v-5.446zm2.799 3.628l-.396 1.818h-.675l1.386-6.067h.766l1.351 6.067h-.685l-.396-1.818h-1.351zm1.252-.559l-.316-1.539c-.09-.433-.17-.937-.242-1.387h-.027c-.072.459-.162.981-.252 1.396l-.314 1.53h1.151zm16.603-32.051c-.252 0-.45-.207-.45-.522 0-.306.208-.522.46-.522.27 0 .459.207.459.522s-.172.522-.459.522h-.01zm1.746 0c-.252 0-.45-.207-.45-.522 0-.306.208-.522.46-.522.27 0 .459.207.459.522s-.172.522-.459.522h-.01zm1.746 0c-.252 0-.451-.207-.451-.522 0-.306.207-.522.46-.522.271 0 .459.207.459.522s-.171.522-.459.522h-.009z"/></svg>