<svg xmlns="http://www.w3.org/2000/svg" viewBox="0 0 326.248 127.147"><path fill="#ccc" d="M307.98 68.971v1.308l-21.144-12.112V56.86z"/><path fill="gray" d="M307.98 68.971l14.731-8.379v1.309l-14.731 8.38z"/><path fill="#fff" d="M286.836 56.862l14.709-8.43 21.166 12.16-14.731 8.379z"/><path fill="#999" d="M324.76 41.584l.988-.562-2.06 18.965-.991.564zm-14.95 24.104v.253l-17.872-10.237v-.251z"/><path fill="#b3b3b3" d="M309.81 65.688l10.124-5.76v.255l-10.124 5.76z"/><path fill="#e6e6e6" d="M291.938 55.454l10.107-5.801 17.889 10.275-10.124 5.76zm2.57 5.475l2.902-1.666 5.135 2.95-2.906 1.655zm30.252-19.345l-2.063 18.965-21.144-12.112 2.06-18.964z"/><path fill="#0071bc" d="M321.855 59.094l-19.459-11.146 2.061-17.021 19.459 11.147-2.061 17.02z"/><path fill="#b3b3b3" d="M303.613 29.474l.971-.611 21.164 12.159-.988.562z"/><path fill="none" stroke="#000" d="M323.688 59.987l2.06-18.965-21.164-12.159-.969.61h-.002l-2.06 18.963-.008-.004-14.707 8.429-.002-.001v1.307l21.144 12.112v.002l14.731-8.38v-1.309l-.014-.043v.002z" stroke-linecap="round" stroke-linejoin="round"/><path fill="#b3b3b3" d="M16.753 44.21v29.233L5.269 66.385V37.146z"/><path fill="#333" d="M14.625 45.128v3.491l-8.19-5.037v-3.493zm0 11.77v3.487l-8.19-5.038v-3.488z"/><path fill="#e6e6e6" d="M14.625 52.511v1.008l-8.19-5.035V47.47z"/><path fill="#333" d="M14.625 61.854v3.486l-8.19-5.035v-3.491zm0 4.953v3.488l-8.19-5.037V61.77z"/><path fill="gray" d="M16.747 44.228l18.204-11.482v29.236L16.747 73.463z"/><path fill="#999" d="M5.294 37.164l18.225-11.483 11.461 7.061-18.205 11.482z"/><path fill="#009245" d="M6.71 44.06c.18.105.318.365.318.582 0 .211-.141.303-.318.191a.744.744 0 0 1-.312-.582c0-.216.14-.298.312-.191"/><path fill="#c1272d" d="M7.48 44.535c.178.107.316.369.316.586 0 .211-.147.299-.318.191-.176-.105-.316-.367-.316-.582 0-.217.142-.305.318-.195"/><path fill="#009245" d="M8.248 45a.76.76 0 0 1 .316.582c0 .217-.144.303-.318.195-.178-.107-.316-.373-.316-.588-.001-.211.14-.297.318-.189"/><path fill="#c1272d" d="M9.013 45.472c.176.107.314.367.314.584-.002.211-.143.299-.32.19a.76.76 0 0 1-.315-.582c.001-.215.145-.303.321-.192m.775.475a.74.74 0 0 1 .316.584c0 .215-.141.303-.318.191a.755.755 0 0 1-.312-.582c0-.213.141-.301.314-.193"/><path fill="#009245" d="M10.556 46.425c.178.105.316.367.316.582 0 .215-.141.301-.318.193-.174-.105-.316-.367-.316-.584 0-.212.142-.302.318-.191m.768.461a.75.75 0 0 1 .314.584c0 .219-.143.303-.314.193-.178-.107-.318-.369-.318-.584-.001-.212.142-.3.318-.193m.767.475c.172.105.312.365.312.582 0 .217-.141.299-.318.191a.74.74 0 0 1-.312-.582c0-.217.142-.304.318-.191"/><path fill="#c1272d" d="M6.71 45.195c.18.105.318.369.318.584 0 .213-.141.297-.318.193a.746.746 0 0 1-.312-.586c0-.215.14-.299.312-.191m.77.474c.178.109.316.369.316.586 0 .213-.147.303-.318.193-.176-.109-.316-.373-.316-.586 0-.214.142-.298.318-.193"/><path fill="#009245" d="M8.248 46.134c.172.104.316.373.316.582 0 .217-.144.303-.318.197-.178-.109-.316-.371-.316-.588-.001-.212.14-.298.318-.191"/><path fill="#c1272d" d="M9.013 46.607c.176.105.314.367.314.584-.002.211-.143.299-.32.193a.775.775 0 0 1-.315-.584c.001-.217.145-.304.321-.193"/><path fill="#009245" d="M9.788 47.082a.742.742 0 0 1 .316.582c0 .217-.141.305-.318.197-.172-.107-.312-.371-.312-.584 0-.215.141-.303.314-.195"/><path fill="#c1272d" d="M10.556 47.556c.178.107.316.375.316.586 0 .217-.141.301-.318.195a.757.757 0 0 1-.316-.584c0-.214.142-.302.318-.197"/><path fill="#009245" d="M11.324 48.021a.763.763 0 0 1 .314.586c0 .217-.143.303-.314.191-.178-.104-.318-.367-.318-.582-.001-.215.142-.302.318-.195"/><path fill="#c1272d" d="M12.091 48.492a.766.766 0 0 1 .312.586c0 .217-.141.299-.318.195a.757.757 0 0 1-.312-.584c0-.219.142-.301.318-.197"/><path fill="#009245" d="M12.683 53.375c.178.107.32.367.32.586 0 .211-.144.299-.32.193a.762.762 0 0 1-.316-.586c0-.215.14-.301.316-.193m.77.462a.763.763 0 0 1 .312.586c0 .215-.141.299-.312.193a.742.742 0 0 1-.318-.584c-.001-.214.14-.298.318-.195"/><path fill="#c1272d" d="M14.216 54.31c.176.107.316.367.316.584 0 .211-.141.303-.318.193a.744.744 0 0 1-.314-.584c0-.214.142-.304.316-.193m-1.533.201c.178.105.32.367.32.586 0 .213-.144.299-.32.188-.178-.104-.316-.369-.316-.582 0-.213.14-.303.316-.192m.77.463a.772.772 0 0 1 .312.582c0 .217-.141.305-.312.193-.18-.105-.318-.369-.318-.582-.001-.216.14-.3.318-.193"/><path fill="#009245" d="M14.216 55.447c.176.104.316.365.316.582 0 .215-.141.303-.318.191a.731.731 0 0 1-.314-.582c0-.213.142-.301.316-.191"/><path fill="none" stroke="#000" d="M34.98 32.742l-11.463-7.061L5.294 37.164l-.025-.018v29.239l11.478 7.058v.02l18.202-11.481V32.761z" stroke-linecap="round" stroke-linejoin="round"/><path fill="#fff" fill-rule="evenodd" d="M64.663 16.053h195.583v67.039H64.663z" clip-rule="evenodd"/><path fill="none" stroke="#000" d="M64.663 16.053h195.583v67.039H64.663z" stroke-linecap="round" stroke-linejoin="round"/><path fill="none" stroke="#000" d="M64.663 34.093h195.582" stroke-dasharray="1 1"/><path fill="#4d4d4d" fill-rule="evenodd" d="M41.289 64.094l6.097-6.989v3.887h12.406v6.203H47.386v3.887zm18.503-30l-6.097-6.989v3.887H41.289v6.203h12.406v3.887zm204.497 30l6.098-6.989v3.887h12.406v6.203h-12.406v3.887zm18.504-30l-6.098-6.989v3.887h-12.406v6.203h12.406v3.887z" clip-rule="evenodd"/><path fill="#b2dec7" fill-rule="evenodd" stroke="#000" d="M72.287 22.406h39.249V45.78H72.287z" clip-rule="evenodd" stroke-linecap="round" stroke-linejoin="round"/><path fill="#b2d4eb" fill-rule="evenodd" stroke="#000" d="M134.164 22.406h39.249V45.78h-39.249z" clip-rule="evenodd" stroke-linecap="round" stroke-linejoin="round"/><path fill="#b2dec7" fill-rule="evenodd" stroke="#000" d="M173.413 22.406h39.249V45.78h-39.249z" clip-rule="evenodd" stroke-linecap="round" stroke-linejoin="round"/><path fill="#fddfbb" fill-rule="evenodd" stroke="#000" d="M212.663 22.406h39.249V45.78h-39.249z" clip-rule="evenodd" stroke-linecap="round" stroke-linejoin="round"/><path fill="none" stroke="#000" d="M64.663 64.093h195.582" stroke-dasharray="1 1"/><path fill="#b2d4eb" fill-rule="evenodd" stroke="#000" d="M95.033 52.406h39.249V75.78H95.033zM.5 79.072h39.249v23.375H.5z" clip-rule="evenodd" stroke-linecap="round" stroke-linejoin="round"/><path fill="#e6e6e6" fill-rule="evenodd" stroke="#000" d="M111.536 22.407h22.629v23.374h-22.629z" clip-rule="evenodd" stroke-linecap="round" stroke-linejoin="round"/><path d="M66.489 1.792v3.069h1.76V1.792h1.177v7.415h-1.177V5.939h-1.76v3.268h-1.177V1.792h1.177zm5.06 1.078h-1.331V1.792h3.839V2.87h-1.331v6.337h-1.177V2.87zm4.267 0h-1.331V1.792h3.839V2.87h-1.331v6.337h-1.177V2.87zm3.311-.968a6.149 6.149 0 0 1 1.375-.144c.781 0 1.419.144 1.859.562.396.374.594.946.594 1.584 0 .748-.209 1.254-.55 1.65-.44.517-1.155.77-1.782.77-.121 0-.22 0-.33-.011v2.894h-1.167V1.902zm1.166 3.444c.088.021.165.021.286.021.771 0 1.199-.527 1.199-1.375 0-.693-.286-1.276-1.078-1.276a1.31 1.31 0 0 0-.407.056v2.574zm4.972 3.861v-.781l.66-.869c.891-1.177 1.76-2.321 1.76-3.487 0-.671-.33-1.111-.957-1.111-.484 0-.836.231-1.056.374l-.231-.903c.286-.209.847-.462 1.497-.462 1.397 0 1.903.969 1.903 2.024 0 1.343-.858 2.52-1.706 3.587l-.451.572v.021h2.267v1.034h-3.686zm5.423.088c-.385 0-.704-.319-.704-.814 0-.473.33-.813.715-.813.407 0 .715.308.715.813 0 .495-.286.814-.715.814h-.011zm3.355 0c-1.353 0-1.947-1.573-1.947-3.642 0-2.222.682-3.686 2.024-3.686 1.43 0 1.914 1.673 1.914 3.642 0 2.586-.88 3.686-1.98 3.686h-.011zm.055-1.001c.55 0 .759-.99.759-2.662 0-1.606-.198-2.663-.771-2.663-.561 0-.825.969-.814 2.663-.011 1.705.231 2.662.814 2.662h.012zm7.304.803c-.165.088-.506.177-.902.177-1.276 0-2.123-.946-2.123-2.707 0-1.606.891-2.794 2.311-2.794.319 0 .627.077.77.154l-.176.935c-.121-.044-.308-.121-.572-.121-.759 0-1.155.814-1.155 1.805 0 1.1.44 1.76 1.155 1.76.22 0 .407-.044.572-.121l.12.912zm2.287.198c-1.133 0-1.914-.946-1.914-2.75 0-1.947.957-2.783 1.958-2.783 1.123 0 1.893.979 1.893 2.75 0 2.167-1.122 2.783-1.925 2.783h-.012zm.044-.902c.583 0 .715-1.056.715-1.87 0-.781-.132-1.859-.737-1.859-.638 0-.759 1.078-.759 1.859 0 .902.154 1.87.77 1.87h.011zm2.762-3.037c0-.605-.022-1.034-.044-1.507h1.023l.055.627h.022c.253-.43.704-.715 1.265-.715.902 0 1.375.692 1.375 1.936v3.51h-1.177V5.808c0-.539-.11-1.057-.627-1.057-.286 0-.55.221-.66.66-.033.11-.055.286-.055.484v3.312h-1.177V5.356zm4.774 0c0-.605-.022-1.034-.044-1.507h1.023l.055.627h.022c.253-.43.704-.715 1.265-.715.902 0 1.375.692 1.375 1.936v3.51h-1.177V5.808c0-.539-.11-1.057-.627-1.057-.286 0-.55.221-.66.66-.033.11-.055.286-.055.484v3.312h-1.177V5.356zm5.72 1.486c.011 1.199.561 1.529 1.188 1.529.396 0 .726-.088.957-.188l.176.836c-.341.154-.858.254-1.342.254-1.386 0-2.124-1.002-2.124-2.663 0-1.771.847-2.849 1.992-2.849 1.122 0 1.694 1.022 1.694 2.453 0 .308-.011.483-.033.627h-2.508zm1.452-.836c.011-.858-.275-1.364-.693-1.364-.506 0-.737.737-.759 1.364h1.452zm4.751 3.091c-.165.088-.506.177-.902.177-1.276 0-2.123-.946-2.123-2.707 0-1.606.891-2.794 2.311-2.794.319 0 .627.077.77.154l-.176.935c-.121-.044-.308-.121-.572-.121-.759 0-1.155.814-1.155 1.805 0 1.1.44 1.76 1.155 1.76.22 0 .407-.044.572-.121l.12.912zm2.222-6.578V3.85h1.034v.847h-1.034V7.48c0 .66.253.825.55.825.132 0 .242-.011.363-.033l.022.913c-.176.056-.44.089-.77.089-.374 0-.715-.1-.946-.33-.264-.265-.396-.649-.396-1.452V4.696h-.638V3.85h.638v-.925l1.177-.406zm2.299.615c-.341 0-.616-.274-.616-.682 0-.418.286-.683.627-.683.374 0 .638.265.638.683 0 .407-.264.682-.638.682h-.011zm-.561 6.073V3.85h1.177v5.357h-1.177zm3.96.088c-1.133 0-1.914-.946-1.914-2.75 0-1.947.957-2.783 1.958-2.783 1.122 0 1.892.979 1.892 2.75 0 2.167-1.122 2.783-1.925 2.783h-.011zm.044-.902c.583 0 .715-1.056.715-1.87 0-.781-.132-1.859-.737-1.859-.638 0-.759 1.078-.759 1.859 0 .902.154 1.87.77 1.87h.011zm2.761-3.037c0-.605-.022-1.034-.044-1.507h1.023l.055.627h.022c.253-.43.704-.715 1.265-.715.902 0 1.375.692 1.375 1.936v3.51h-1.177V5.808c0-.539-.11-1.057-.627-1.057-.286 0-.55.221-.66.66-.033.11-.055.286-.055.484v3.312h-1.177V5.356zM82.279 31.515c.153.099.423.225.702.225.387 0 .639-.243.639-.63 0-.333-.117-.567-.558-.855-.567-.369-.873-.747-.873-1.242 0-.712.522-1.207 1.197-1.207.342 0 .594.108.774.226l-.18.522a.994.994 0 0 0-.585-.198c-.369 0-.558.27-.558.558s.108.459.54.747c.504.324.9.729.9 1.333 0 .873-.594 1.296-1.314 1.296-.315 0-.666-.099-.855-.252l.171-.523zm3.564-4.655v1.018h.837v.522h-.837v2.593c0 .576.198.72.45.72.117 0 .207-.009.279-.026l.036.531a1.522 1.522 0 0 1-.513.071c-.279 0-.522-.071-.684-.261-.18-.198-.261-.495-.261-1.099V28.4h-.531v-.522h.531v-.738l.693-.28zm1.44 2.142c0-.368-.027-.801-.036-1.125h.622l.036.685h.018c.144-.414.513-.757.918-.757.054 0 .099 0 .144.01v.711c-.045-.009-.09-.009-.144-.009-.441 0-.765.404-.837.909a2.566 2.566 0 0 0-.027.396v2.413h-.693v-3.233zm2.601 1.118c.009 1.341.531 1.62 1.026 1.62.306 0 .549-.072.72-.162l.117.504c-.243.136-.612.207-.963.207-1.035 0-1.576-.846-1.576-2.188 0-1.413.594-2.296 1.468-2.296.882 0 1.242.937 1.242 1.918 0 .171-.009.288-.018.396h-2.016zm1.368-.514c.009-.873-.315-1.261-.648-1.261-.45 0-.684.667-.711 1.261h1.359zm3.708 1.639c0 .333 0 .711.045.99h-.621l-.045-.459h-.027c-.189.333-.495.531-.864.531-.585 0-1.036-.486-1.036-1.242 0-1.099.874-1.576 1.855-1.585v-.135c0-.585-.145-.99-.693-.99-.27 0-.513.081-.72.225l-.154-.487c.189-.135.585-.288 1.018-.288.873 0 1.242.576 1.242 1.549v1.891zm-.675-1.27c-.36 0-1.197.072-1.197 1.018 0 .576.288.774.531.774.306 0 .558-.226.639-.657a1.2 1.2 0 0 0 .027-.252v-.883zm1.655-.973c0-.513-.027-.773-.036-1.125h.612l.036.531h.018c.189-.351.513-.604.972-.604.405 0 .756.189.918.657h.018a1.46 1.46 0 0 1 .423-.495c.18-.107.378-.162.603-.162.594 0 1.053.424 1.053 1.54v2.89h-.693v-2.737c0-.566-.081-1.116-.603-1.116-.288 0-.54.243-.639.657-.027.108-.027.243-.027.388v2.809h-.693v-2.863c0-.477-.081-.99-.594-.99-.288 0-.567.243-.648.712a2.27 2.27 0 0 0-.027.369v2.772h-.693v-3.233zm8.614 3.233v-1.62h-1.944v-.469l1.899-3.763h.675v3.664h.63v.567h-.63v1.62h-.63zm0-2.188V28.4c0-.405.027-.766.054-1.152h-.036c-.198.468-.324.738-.495 1.098l-.81 1.684v.019h1.287zM85.312 41.235V37.4h-.549v-.522h.549v-.27c0-.469.072-.955.387-1.306a1.18 1.18 0 0 1 .874-.369c.234 0 .414.045.54.107l-.108.541a.982.982 0 0 0-.387-.072c-.495 0-.612.531-.612 1.089v.279h.792v.523h-.792v3.835h-.694zm1.898-3.233c0-.368-.027-.801-.036-1.125h.622l.036.685h.018c.144-.414.513-.757.918-.757.054 0 .099 0 .144.01v.711c-.045-.009-.09-.009-.144-.009-.441 0-.765.404-.837.909a2.566 2.566 0 0 0-.027.396v2.413h-.694v-3.233zm4.483 2.243c0 .333 0 .711.045.99h-.621l-.045-.459h-.027c-.189.333-.495.531-.864.531-.585 0-1.036-.486-1.036-1.242 0-1.099.874-1.576 1.855-1.585v-.135c0-.585-.145-.99-.693-.99-.27 0-.513.081-.72.225l-.153-.486c.189-.135.585-.288 1.018-.288.873 0 1.242.576 1.242 1.549v1.89zm-.675-1.27c-.36 0-1.197.072-1.197 1.018 0 .576.288.774.531.774.306 0 .558-.226.639-.657a1.2 1.2 0 0 0 .027-.252v-.883zm1.656-.973c0-.513-.027-.773-.036-1.125h.612l.036.531h.018c.189-.351.513-.604.972-.604.405 0 .756.189.918.657h.018a1.46 1.46 0 0 1 .423-.495c.18-.107.378-.162.603-.162.594 0 1.053.424 1.053 1.54v2.89h-.693v-2.737c0-.566-.081-1.116-.603-1.116-.288 0-.54.243-.639.657-.027.108-.027.243-.027.388v2.809h-.693v-2.863c0-.477-.081-.99-.594-.99-.288 0-.567.243-.648.712a2.27 2.27 0 0 0-.027.369v2.772h-.693v-3.233zm6.066 1.118c.009 1.341.531 1.62 1.026 1.62.306 0 .549-.072.72-.162l.117.504c-.243.136-.612.207-.963.207-1.035 0-1.576-.846-1.576-2.188 0-1.413.594-2.296 1.468-2.296.882 0 1.242.937 1.242 1.918 0 .171-.009.288-.018.396H98.74zm1.368-.514c.009-.873-.315-1.261-.648-1.261-.45 0-.684.667-.711 1.261h1.359zm4.032-2.521h-.018l-.972.558-.135-.54 1.233-.72h.567v5.852h-.675v-5.15zm40.017-4.57c.153.099.423.225.702.225.387 0 .639-.243.639-.63 0-.333-.117-.567-.558-.855-.567-.369-.873-.747-.873-1.242 0-.712.522-1.207 1.197-1.207.342 0 .594.108.774.226l-.18.522a.994.994 0 0 0-.585-.198c-.369 0-.558.27-.558.558s.108.459.54.747c.504.324.9.729.9 1.333 0 .873-.594 1.296-1.314 1.296-.315 0-.666-.099-.855-.252l.171-.523zm3.564-4.655v1.018h.837v.522h-.837v2.593c0 .576.198.72.45.72.117 0 .207-.009.279-.026l.036.531a1.522 1.522 0 0 1-.513.071c-.279 0-.522-.071-.684-.261-.18-.198-.261-.495-.261-1.099V28.4h-.531v-.522h.531v-.738l.693-.28zm1.44 2.142c0-.368-.027-.801-.036-1.125h.622l.036.685h.018c.144-.414.513-.757.918-.757.054 0 .099 0 .144.01v.711c-.045-.009-.09-.009-.144-.009-.441 0-.765.404-.837.909a2.566 2.566 0 0 0-.027.396v2.413h-.693v-3.233zm2.601 1.118c.009 1.341.531 1.62 1.026 1.62.306 0 .549-.072.72-.162l.117.504c-.243.136-.612.207-.963.207-1.035 0-1.576-.846-1.576-2.188 0-1.413.594-2.296 1.468-2.296.882 0 1.242.937 1.242 1.918 0 .171-.009.288-.018.396h-2.016zm1.368-.514c.009-.873-.315-1.261-.648-1.261-.45 0-.684.667-.711 1.261h1.359zm3.708 1.639c0 .333 0 .711.045.99h-.621l-.045-.459h-.027c-.189.333-.495.531-.864.531-.585 0-1.036-.486-1.036-1.242 0-1.099.874-1.576 1.855-1.585v-.135c0-.585-.145-.99-.693-.99-.27 0-.513.081-.72.225l-.153-.486c.189-.135.585-.288 1.018-.288.873 0 1.242.576 1.242 1.549v1.89zm-.675-1.27c-.36 0-1.197.072-1.197 1.018 0 .576.288.774.531.774.306 0 .558-.226.639-.657a1.2 1.2 0 0 0 .027-.252v-.883zm1.655-.973c0-.513-.027-.773-.036-1.125h.612l.036.531h.018c.189-.351.513-.604.972-.604.405 0 .756.189.918.657h.018a1.46 1.46 0 0 1 .423-.495c.18-.107.378-.162.603-.162.594 0 1.053.424 1.053 1.54v2.89h-.693v-2.737c0-.566-.081-1.116-.603-1.116-.288 0-.54.243-.639.657-.027.108-.027.243-.027.388v2.809h-.693v-2.863c0-.477-.081-.99-.594-.99-.288 0-.567.243-.648.712a2.27 2.27 0 0 0-.027.369v2.772h-.693v-3.233zm8.2-1.917H166l-.972.558-.135-.54 1.233-.72h.567v5.852h-.675v-5.15zm-19.008 14.15V37.4h-.549v-.522h.549v-.27c0-.469.072-.955.387-1.306a1.18 1.18 0 0 1 .874-.369c.234 0 .414.045.54.107l-.108.541a.982.982 0 0 0-.387-.072c-.495 0-.612.531-.612 1.089v.279h.792v.523h-.792v3.835h-.694zm1.898-3.233c0-.368-.027-.801-.036-1.125h.622l.036.685h.018c.144-.414.513-.757.918-.757.054 0 .099 0 .144.01v.711c-.045-.009-.09-.009-.144-.009-.441 0-.765.404-.837.909a2.566 2.566 0 0 0-.027.396v2.413h-.693v-3.233zm4.483 2.243c0 .333 0 .711.045.99h-.621l-.045-.459h-.027c-.189.333-.495.531-.864.531-.585 0-1.036-.486-1.036-1.242 0-1.099.874-1.576 1.854-1.585v-.135c0-.585-.144-.99-.693-.99-.27 0-.513.081-.72.225l-.153-.486c.189-.135.585-.288 1.018-.288.873 0 1.242.576 1.242 1.549v1.89zm-.675-1.27c-.36 0-1.197.072-1.197 1.018 0 .576.288.774.531.774.306 0 .558-.226.639-.657a1.2 1.2 0 0 0 .027-.252v-.883zm1.656-.973c0-.513-.027-.773-.036-1.125h.612l.036.531h.018c.189-.351.513-.604.973-.604.405 0 .756.189.918.657h.018a1.46 1.46 0 0 1 .423-.495c.18-.107.378-.162.603-.162.594 0 1.053.424 1.053 1.54v2.89h-.693v-2.737c0-.566-.081-1.116-.603-1.116-.288 0-.54.243-.639.657-.027.108-.027.243-.027.388v2.809h-.693v-2.863c0-.477-.081-.99-.594-.99-.288 0-.567.243-.648.712a2.27 2.27 0 0 0-.027.369v2.772h-.693v-3.233zm6.065 1.118c.009 1.341.531 1.62 1.026 1.62.306 0 .549-.072.72-.162l.117.504c-.243.136-.612.207-.963.207-1.035 0-1.576-.846-1.576-2.188 0-1.413.594-2.296 1.468-2.296.882 0 1.242.937 1.242 1.918 0 .171-.009.288-.018.396h-2.016zm1.369-.514c.009-.873-.315-1.261-.648-1.261-.45 0-.684.667-.711 1.261h1.359zm2.825-.604c0-.513-.027-.773-.036-1.125h.603l.036.522h.018c.189-.352.54-.595.999-.595.604 0 1.054.441 1.054 1.504v2.926h-.693v-2.809c0-.522-.099-1.035-.603-1.035-.288 0-.567.243-.648.711a1.57 1.57 0 0 0-.036.387v2.746h-.693v-3.232zm18.775-6.487c.152.099.422.225.701.225.388 0 .64-.243.64-.63 0-.333-.117-.567-.558-.855-.568-.369-.873-.747-.873-1.242 0-.712.521-1.207 1.197-1.207.342 0 .594.108.773.226l-.18.522a1 1 0 0 0-.586-.198c-.369 0-.558.27-.558.558s.108.459.54.747c.504.324.9.729.9 1.333 0 .873-.594 1.296-1.314 1.296-.314 0-.666-.099-.855-.252l.173-.523zm3.565-4.655v1.018h.836v.522h-.836v2.593c0 .576.197.72.449.72.117 0 .207-.009.279-.026l.036.531a1.522 1.522 0 0 1-.513.071c-.279 0-.522-.071-.685-.261-.181-.198-.261-.495-.261-1.099V28.4h-.531v-.522h.531v-.738l.695-.28zm1.439 2.142c0-.368-.027-.801-.037-1.125h.622l.036.685h.018c.145-.414.514-.757.918-.757.055 0 .1 0 .145.01v.711c-.045-.009-.09-.009-.145-.009-.441 0-.765.404-.837.909a2.456 2.456 0 0 0-.026.396v2.413h-.693v-3.233zm2.601 1.118c.009 1.341.531 1.62 1.026 1.62.307 0 .549-.072.721-.162l.117.504c-.244.136-.613.207-.964.207-1.035 0-1.575-.846-1.575-2.188 0-1.413.594-2.296 1.467-2.296.883 0 1.242.937 1.242 1.918 0 .171-.008.288-.018.396h-2.016zm1.368-.514c.01-.873-.314-1.261-.648-1.261-.449 0-.684.667-.711 1.261h1.359zm3.708 1.639c0 .333 0 .711.045.99h-.621l-.045-.459h-.026c-.189.333-.496.531-.865.531-.585 0-1.035-.486-1.035-1.242 0-1.099.873-1.576 1.855-1.585v-.135c0-.585-.145-.99-.693-.99-.271 0-.514.081-.721.225l-.153-.486c.189-.135.585-.288 1.018-.288.873 0 1.242.576 1.242 1.549v1.89zm-.675-1.27c-.36 0-1.197.072-1.197 1.018 0 .576.287.774.531.774.306 0 .558-.226.639-.657a1.2 1.2 0 0 0 .027-.252v-.883zm1.655-.973c0-.513-.027-.773-.036-1.125h.612l.036.531h.018c.189-.351.514-.604.973-.604.404 0 .756.189.918.657h.018c.117-.216.271-.387.424-.495.18-.107.378-.162.604-.162.594 0 1.053.424 1.053 1.54v2.89h-.693v-2.737c0-.566-.081-1.116-.604-1.116-.287 0-.539.243-.639.657-.027.108-.027.243-.027.388v2.809h-.693v-2.863c0-.477-.08-.99-.594-.99-.288 0-.566.243-.648.712a2.27 2.27 0 0 0-.027.369v2.772h-.692v-3.233zm8.614 3.233v-1.62h-1.944v-.469l1.899-3.763h.675v3.664h.631v.567h-.631v1.62h-.63zm0-2.188V28.4c0-.405.027-.766.054-1.152h-.035c-.198.468-.324.738-.496 1.098l-.81 1.684v.019h1.287zm-20.278 12.916l.864-4.546c.117-.622.189-1.171.243-1.54h.576l-.099.711h.018c.288-.468.693-.783 1.125-.783.631 0 .801.595.801 1.243 0 1.35-.701 3.259-2.007 3.259a.982.982 0 0 1-.522-.145h-.018l-.334 1.801h-.647zm1.089-2.34c.117.09.252.162.414.162 1.009 0 1.369-1.998 1.369-2.646 0-.424-.081-.757-.424-.757-.432 0-.891.702-1.044 1.521l-.315 1.72zm2.7.612l.55-2.926c.107-.585.162-1.107.188-1.432h.567c-.01.234-.027.468-.072.819h.027c.27-.54.648-.892 1.089-.892.046 0 .081.01.117.01l-.126.684c-.018 0-.055-.009-.081-.009-.576 0-1.062.811-1.188 1.458l-.432 2.287h-.639zm5.113-3.007c0 1.099-.539 3.079-1.872 3.079-.81 0-1.062-.702-1.062-1.477 0-1.171.629-3.025 1.926-3.025.873 0 1.008.838 1.008 1.423zm-2.278 1.539c0 .495.036 1.009.496 1.009.791 0 1.125-1.854 1.125-2.593 0-.45-.082-.838-.459-.838-.72 0-1.162 1.568-1.162 2.422zm2.53 1.468l.531-2.863c.125-.63.188-1.143.233-1.494h.567l-.072.702h.018c.343-.54.73-.774 1.135-.774.459 0 .676.369.703.766.332-.522.746-.766 1.152-.766.504 0 .729.405.729.874 0 .216-.036.485-.1.792l-.521 2.764h-.639l.521-2.782c.045-.225.072-.432.072-.666 0-.261-.108-.423-.352-.423-.396 0-.855.585-1.018 1.44l-.468 2.431h-.621l.522-2.782c.045-.225.072-.423.072-.657 0-.27-.108-.432-.352-.432-.369 0-.864.621-1.018 1.44l-.459 2.431h-.635zm5.336 0l.828-4.357h.648l-.837 4.357h-.639zm.982-5.465c.008-.233.188-.459.432-.459.252 0 .369.189.352.423-.019.298-.217.459-.451.459s-.36-.171-.333-.423zm.646 4.79c.136.09.352.207.676.207.441-.01.702-.324.702-.738 0-.388-.188-.621-.44-.847-.298-.27-.568-.648-.568-1.062 0-.738.541-1.314 1.359-1.314.289 0 .541.072.676.172l-.18.495a1.104 1.104 0 0 0-.504-.136c-.451 0-.703.298-.703.676 0 .342.198.54.405.729.343.298.612.702.612 1.144 0 .937-.612 1.404-1.422 1.404-.343 0-.685-.135-.811-.233l.198-.497zm4.916.459c-.316.171-.648.27-1.027.27-.918 0-1.215-.702-1.215-1.539 0-1.18.657-2.944 1.899-2.944.64 0 .9.486.9.99 0 1.054-.937 1.504-2.125 1.513-.018.126-.045.612.027.873.099.369.323.567.666.567s.576-.117.774-.233l.101.503zm-.441-3.655c-.388 0-.802.478-1.035 1.423.693-.01 1.422-.243 1.422-.945 0-.307-.126-.478-.387-.478zm16.66-5.849c.152.099.422.225.701.225.388 0 .64-.243.64-.63 0-.333-.117-.567-.558-.855-.568-.369-.873-.747-.873-1.242 0-.712.521-1.207 1.197-1.207.342 0 .594.108.773.226l-.18.522a1 1 0 0 0-.586-.198c-.369 0-.558.27-.558.558s.108.459.54.747c.504.324.9.729.9 1.333 0 .873-.594 1.296-1.314 1.296-.314 0-.666-.099-.855-.252l.173-.523zm3.565-4.655v1.018h.836v.522h-.836v2.593c0 .576.197.72.449.72.117 0 .207-.009.279-.026l.036.531a1.522 1.522 0 0 1-.513.071c-.279 0-.522-.071-.685-.261-.181-.198-.261-.495-.261-1.099V28.4h-.531v-.522h.531v-.738l.695-.28zm1.439 2.142c0-.368-.027-.801-.037-1.125h.622l.036.685h.018c.145-.414.514-.757.918-.757.055 0 .1 0 .145.01v.711c-.045-.009-.09-.009-.145-.009-.441 0-.765.404-.837.909a2.456 2.456 0 0 0-.026.396v2.413h-.693v-3.233zm2.601 1.118c.009 1.341.531 1.62 1.026 1.62.307 0 .549-.072.721-.162l.117.504c-.244.136-.613.207-.964.207-1.035 0-1.575-.846-1.575-2.188 0-1.413.594-2.296 1.467-2.296.883 0 1.242.937 1.242 1.918 0 .171-.008.288-.018.396h-2.016zm1.368-.514c.01-.873-.314-1.261-.648-1.261-.449 0-.684.667-.711 1.261h1.359zm3.708 1.639c0 .333 0 .711.045.99h-.621l-.045-.459h-.026c-.189.333-.496.531-.865.531-.585 0-1.035-.486-1.035-1.242 0-1.099.873-1.576 1.855-1.585v-.135c0-.585-.145-.99-.693-.99-.271 0-.514.081-.721.225l-.153-.486c.189-.135.585-.288 1.018-.288.873 0 1.242.576 1.242 1.549v1.89zm-.675-1.27c-.36 0-1.197.072-1.197 1.018 0 .576.287.774.531.774.306 0 .558-.226.639-.657a1.2 1.2 0 0 0 .027-.252v-.883zm1.655-.973c0-.513-.027-.773-.036-1.125h.612l.036.531h.018c.189-.351.514-.604.973-.604.404 0 .756.189.918.657h.018c.117-.216.271-.387.424-.495.18-.107.378-.162.604-.162.594 0 1.053.424 1.053 1.54v2.89h-.693v-2.737c0-.566-.081-1.116-.604-1.116-.287 0-.539.243-.639.657-.027.108-.027.243-.027.388v2.809h-.693v-2.863c0-.477-.08-.99-.594-.99-.288 0-.566.243-.648.712a2.27 2.27 0 0 0-.027.369v2.772h-.692v-3.233zm6.795 3.233v-.45l.486-.666c.702-.973 1.521-2.07 1.521-3.169 0-.648-.279-1.044-.829-1.044-.422 0-.701.225-.846.323l-.171-.521a1.832 1.832 0 0 1 1.144-.396c.973 0 1.395.721 1.395 1.603 0 1.099-.72 2.17-1.449 3.151l-.387.54v.018h1.945v.612h-2.809zm-18.459 10.728l.864-4.546c.117-.622.189-1.171.243-1.54h.576l-.099.711h.018c.288-.468.693-.783 1.125-.783.631 0 .801.595.801 1.243 0 1.35-.701 3.259-2.007 3.259a.982.982 0 0 1-.522-.145h-.018l-.334 1.801h-.647zm1.089-2.34c.117.09.252.162.414.162 1.009 0 1.369-1.998 1.369-2.646 0-.424-.081-.757-.424-.757-.432 0-.891.702-1.044 1.521l-.315 1.72zm2.7.612l.55-2.926c.107-.585.162-1.107.188-1.432h.567c-.01.234-.027.468-.072.819h.027c.27-.54.648-.892 1.089-.892.046 0 .081.01.117.01l-.126.684c-.018 0-.055-.009-.081-.009-.576 0-1.062.811-1.188 1.458l-.432 2.287h-.639zm5.113-3.007c0 1.099-.539 3.079-1.872 3.079-.81 0-1.062-.702-1.062-1.477 0-1.171.629-3.025 1.926-3.025.873 0 1.008.838 1.008 1.423zm-2.278 1.539c0 .495.036 1.009.496 1.009.791 0 1.125-1.854 1.125-2.593 0-.45-.082-.838-.459-.838-.72 0-1.162 1.568-1.162 2.422zm2.53 1.468l.531-2.863c.125-.63.188-1.143.233-1.494h.567l-.072.702h.018c.343-.54.73-.774 1.135-.774.459 0 .676.369.703.766.332-.522.746-.766 1.152-.766.504 0 .729.405.729.874 0 .216-.036.485-.1.792l-.521 2.764h-.639l.521-2.782c.045-.225.072-.432.072-.666 0-.261-.108-.423-.352-.423-.396 0-.855.585-1.018 1.44l-.468 2.431h-.621l.522-2.782c.045-.225.072-.423.072-.657 0-.27-.108-.432-.352-.432-.369 0-.864.621-1.018 1.44l-.459 2.431h-.635zm5.336 0l.828-4.357h.648l-.837 4.357h-.639zm.982-5.465c.008-.233.188-.459.432-.459.252 0 .369.189.352.423-.019.298-.217.459-.451.459s-.36-.171-.333-.423zm.646 4.79c.136.09.352.207.676.207.441-.01.702-.324.702-.738 0-.388-.188-.621-.44-.847-.298-.27-.568-.648-.568-1.062 0-.738.541-1.314 1.359-1.314.289 0 .541.072.676.172l-.18.495a1.104 1.104 0 0 0-.504-.136c-.451 0-.703.298-.703.676 0 .342.198.54.405.729.343.298.612.702.612 1.144 0 .937-.612 1.404-1.422 1.404-.343 0-.685-.135-.811-.233l.198-.497zm4.916.459c-.316.171-.648.27-1.027.27-.918 0-1.215-.702-1.215-1.539 0-1.18.657-2.944 1.899-2.944.64 0 .9.486.9.99 0 1.054-.937 1.504-2.125 1.513-.018.126-.045.612.027.873.099.369.323.567.666.567s.576-.117.774-.233l.101.503zm-.441-3.655c-.388 0-.802.478-1.035 1.423.693-.01 1.422-.243 1.422-.945 0-.307-.126-.478-.387-.478zm-140.22 24.151c.153.099.423.225.702.225.387 0 .639-.243.639-.63 0-.333-.117-.567-.558-.855-.567-.369-.873-.747-.873-1.242 0-.712.522-1.207 1.197-1.207.342 0 .594.108.774.226l-.18.522a.994.994 0 0 0-.585-.198c-.369 0-.558.27-.558.558s.108.459.54.747c.504.324.9.729.9 1.333 0 .873-.594 1.296-1.314 1.296-.315 0-.666-.099-.855-.252l.171-.523zm3.564-4.655v1.018h.837v.522h-.837v2.593c0 .576.198.72.45.72.117 0 .207-.009.279-.026l.036.531a1.522 1.522 0 0 1-.513.071c-.279 0-.522-.071-.684-.261-.18-.198-.261-.495-.261-1.099V58.4h-.531v-.522h.531v-.738l.693-.28zm1.44 2.142c0-.368-.027-.801-.036-1.125h.622l.036.685h.018c.144-.414.513-.757.918-.757.054 0 .099 0 .144.01v.711c-.045-.009-.09-.009-.144-.009-.441 0-.765.404-.837.909a2.566 2.566 0 0 0-.027.396v2.413h-.693v-3.233zm2.601 1.118c.009 1.341.531 1.62 1.026 1.62.306 0 .549-.072.72-.162l.117.504c-.243.136-.612.207-.963.207-1.035 0-1.576-.846-1.576-2.188 0-1.413.594-2.296 1.468-2.296.882 0 1.242.937 1.242 1.918 0 .171-.009.288-.018.396h-2.016zm1.368-.514c.009-.873-.315-1.261-.648-1.261-.45 0-.684.667-.711 1.261h1.359zm3.708 1.639c0 .333 0 .711.045.99h-.621l-.045-.459h-.027c-.189.333-.495.531-.864.531-.585 0-1.036-.486-1.036-1.242 0-1.099.874-1.576 1.855-1.585v-.135c0-.585-.145-.99-.693-.99-.27 0-.513.081-.72.225l-.153-.486c.189-.135.585-.288 1.018-.288.873 0 1.242.576 1.242 1.549v1.89zm-.675-1.27c-.36 0-1.197.072-1.197 1.018 0 .576.288.774.531.774.306 0 .558-.226.639-.657a1.2 1.2 0 0 0 .027-.252v-.883zm1.655-.973c0-.513-.027-.773-.036-1.125h.612l.036.531h.018c.189-.351.513-.604.972-.604.405 0 .756.189.918.657h.018a1.46 1.46 0 0 1 .423-.495c.18-.107.378-.162.603-.162.594 0 1.053.424 1.053 1.54v2.89h-.693v-2.737c0-.566-.081-1.116-.603-1.116-.288 0-.54.243-.639.657-.027.108-.027.243-.027.388v2.809h-.693v-2.863c0-.477-.081-.99-.594-.99-.288 0-.567.243-.648.712a2.27 2.27 0 0 0-.027.369v2.772h-.693v-3.233zm8.2-1.917h-.018l-.972.558-.135-.54 1.233-.72h.567v5.852h-.675v-5.15zm-18.828 14.15V67.4h-.549v-.522h.549v-.27c0-.469.072-.955.387-1.306.252-.28.604-.37.874-.37.234 0 .414.045.54.107l-.108.542a.982.982 0 0 0-.387-.072c-.495 0-.612.531-.612 1.089v.279h.792v.523h-.792v3.835h-.694zm1.898-3.232c0-.368-.027-.801-.036-1.125h.622l.036.685h.018c.144-.414.513-.757.918-.757.054 0 .099 0 .144.01v.711c-.045-.009-.09-.009-.144-.009-.441 0-.765.404-.837.909a2.566 2.566 0 0 0-.027.396v2.413h-.693v-3.233zm4.483 2.242c0 .333 0 .711.045.99h-.621l-.045-.459h-.027c-.189.333-.495.531-.864.531-.585 0-1.036-.486-1.036-1.242 0-1.099.874-1.576 1.855-1.585v-.135c0-.585-.145-.99-.693-.99-.27 0-.513.081-.72.225l-.153-.486c.189-.135.585-.288 1.018-.288.873 0 1.242.576 1.242 1.549v1.89zm-.675-1.269c-.36 0-1.197.072-1.197 1.018 0 .576.288.774.531.774.306 0 .558-.226.639-.657a1.2 1.2 0 0 0 .027-.252v-.883zm1.656-.973c0-.513-.027-.773-.036-1.125h.612l.036.531h.018c.189-.351.513-.604.972-.604.405 0 .756.189.918.657h.018a1.46 1.46 0 0 1 .423-.495c.18-.107.378-.162.603-.162.594 0 1.053.424 1.053 1.54v2.89h-.693v-2.737c0-.566-.081-1.116-.603-1.116-.288 0-.54.243-.639.657-.027.108-.027.243-.027.388v2.809h-.693v-2.863c0-.477-.081-.99-.594-.99-.288 0-.567.243-.648.712a2.27 2.27 0 0 0-.027.369v2.772h-.693v-3.233zm6.066 1.117c.009 1.341.531 1.62 1.026 1.62.306 0 .549-.072.72-.162l.117.504c-.243.136-.612.207-.963.207-1.035 0-1.576-.846-1.576-2.188 0-1.413.594-2.296 1.468-2.296.882 0 1.242.937 1.242 1.918 0 .171-.009.288-.018.396h-2.016zm1.368-.514c.009-.873-.315-1.261-.648-1.261-.45 0-.684.667-.711 1.261h1.359zm2.627 2.629v-.45l.486-.666c.702-.973 1.521-2.07 1.521-3.169 0-.648-.279-1.044-.829-1.044-.423 0-.702.225-.846.323l-.171-.521a1.831 1.831 0 0 1 1.143-.396c.973 0 1.396.721 1.396 1.603 0 1.099-.72 2.17-1.449 3.151l-.387.54v.018h1.945v.612h-2.809zM10.493 88.182c.153.099.423.225.702.225.387 0 .639-.243.639-.63 0-.333-.117-.567-.558-.855-.567-.369-.873-.747-.873-1.242 0-.712.522-1.207 1.197-1.207.342 0 .594.108.774.226l-.18.522a.994.994 0 0 0-.585-.198c-.369 0-.558.27-.558.558s.108.459.54.747c.504.324.9.729.9 1.333 0 .873-.594 1.296-1.314 1.296-.315 0-.666-.099-.855-.252l.171-.523zm3.564-4.656v1.018h.837v.522h-.837v2.593c0 .576.198.72.45.72.117 0 .207-.009.279-.026l.036.531a1.522 1.522 0 0 1-.513.071c-.279 0-.522-.071-.684-.261-.18-.198-.261-.495-.261-1.099v-2.529h-.531v-.522h.531v-.738l.693-.28zm1.44 2.143c0-.368-.027-.801-.036-1.125h.622l.036.685h.018c.144-.414.513-.757.918-.757.054 0 .099 0 .144.01v.711c-.045-.009-.09-.009-.144-.009-.441 0-.765.404-.837.909a2.566 2.566 0 0 0-.027.396v2.413h-.693v-3.233zm2.601 1.117c.009 1.341.531 1.62 1.026 1.62.306 0 .549-.072.72-.162l.117.504c-.243.136-.612.207-.963.207-1.035 0-1.576-.846-1.576-2.188 0-1.413.594-2.296 1.468-2.296.882 0 1.242.937 1.242 1.918 0 .171-.009.288-.018.396h-2.016zm1.368-.514c.009-.873-.315-1.261-.648-1.261-.45 0-.684.667-.711 1.261h1.359zm3.708 1.639c0 .333 0 .711.045.99h-.621l-.045-.459h-.027c-.189.333-.495.531-.864.531-.585 0-1.036-.486-1.036-1.242 0-1.099.874-1.576 1.855-1.585v-.135c0-.585-.145-.99-.693-.99-.27 0-.513.081-.72.225l-.153-.486c.189-.135.585-.288 1.018-.288.873 0 1.242.576 1.242 1.549v1.89zm-.675-1.269c-.36 0-1.197.072-1.197 1.018 0 .576.288.774.531.774.306 0 .558-.226.639-.657a1.2 1.2 0 0 0 .027-.252v-.883zm1.655-.973c0-.513-.027-.773-.036-1.125h.612l.036.531h.018c.189-.351.513-.604.972-.604.405 0 .756.189.918.657h.018a1.46 1.46 0 0 1 .423-.495c.18-.107.378-.162.603-.162.594 0 1.053.424 1.053 1.54v2.89h-.693v-2.737c0-.566-.081-1.116-.603-1.116-.288 0-.54.243-.639.657-.027.108-.027.243-.027.388v2.809h-.693v-2.863c0-.477-.081-.99-.594-.99-.288 0-.567.243-.648.712a2.27 2.27 0 0 0-.027.369v2.772h-.693v-3.233zm8.199-1.917h-.018l-.972.558-.135-.54 1.233-.72h.567v5.852h-.675v-5.15zM13.526 97.901v-3.835h-.549v-.522h.549v-.27c0-.469.072-.955.387-1.306a1.18 1.18 0 0 1 .874-.369c.234 0 .414.045.54.107l-.108.541a.982.982 0 0 0-.387-.072c-.495 0-.612.531-.612 1.089v.279h.792v.522h-.792V97.9h-.694zm1.898-3.232c0-.368-.027-.801-.036-1.125h.622l.036.685h.018c.144-.414.513-.757.918-.757.054 0 .099 0 .144.01v.711c-.045-.009-.09-.009-.144-.009-.441 0-.765.404-.837.909a2.566 2.566 0 0 0-.027.396v2.413h-.693v-3.233zm4.483 2.242c0 .333 0 .711.045.99h-.621l-.045-.459h-.027c-.189.333-.495.531-.864.531-.585 0-1.036-.486-1.036-1.242 0-1.099.874-1.576 1.855-1.585v-.135c0-.585-.145-.99-.693-.99-.27 0-.513.081-.72.225l-.153-.486c.189-.135.585-.288 1.018-.288.873 0 1.242.576 1.242 1.549v1.89zm-.675-1.269c-.36 0-1.197.072-1.197 1.018 0 .576.288.774.531.774.306 0 .558-.226.639-.657a1.2 1.2 0 0 0 .027-.252v-.883zm1.656-.973c0-.513-.027-.773-.036-1.125h.612l.036.531h.018c.189-.351.513-.604.972-.604.405 0 .756.189.918.657h.018a1.46 1.46 0 0 1 .423-.495c.18-.107.378-.162.603-.162.594 0 1.053.424 1.053 1.54v2.89h-.693v-2.737c0-.566-.081-1.116-.603-1.116-.288 0-.54.243-.639.657-.027.108-.027.243-.027.388v2.809h-.693v-2.863c0-.477-.081-.99-.594-.99-.288 0-.567.243-.648.712a2.27 2.27 0 0 0-.027.369v2.772h-.693v-3.233zm6.066 1.117c.009 1.341.531 1.62 1.026 1.62.306 0 .549-.072.72-.162l.117.504c-.243.136-.612.207-.963.207-1.035 0-1.576-.846-1.576-2.188 0-1.413.594-2.296 1.468-2.296.882 0 1.242.937 1.242 1.918 0 .171-.009.288-.018.396h-2.016zm1.368-.514c.009-.873-.315-1.261-.648-1.261-.45 0-.684.667-.711 1.261h1.359zm4.031-2.52h-.018l-.972.558-.135-.54 1.233-.72h.567v5.852h-.675v-5.15zm32.719 8.685c.18.12.51.26.84.26.379 0 .609-.199.609-.56 0-.3-.14-.499-.589-.789-.73-.43-.99-.899-.99-1.39 0-.839.61-1.459 1.489-1.459.39 0 .7.11.93.24l-.21.789c-.19-.12-.41-.21-.67-.21-.37 0-.549.24-.549.51 0 .26.12.41.58.71.649.39 1 .869 1 1.479 0 .99-.69 1.489-1.609 1.489-.38 0-.83-.109-1.04-.279l.209-.79zm4.44-5.067v1.21h.939v.77h-.939v2.528c0 .6.23.75.5.75.12 0 .22-.01.33-.03l.02.83c-.16.05-.4.079-.7.079-.34 0-.649-.09-.859-.3-.24-.239-.36-.589-.36-1.319V98.35h-.58v-.77h.58v-.84l1.069-.37zm1.58 2.579c0-.45-.02-.96-.04-1.369h.93l.06.729h.03c.19-.49.59-.81.989-.81.1 0 .16.01.23.02v1.06c-.07-.01-.14-.01-.23-.01-.37 0-.739.31-.859.84-.02.109-.04.279-.04.46v2.578h-1.069v-3.498zm3.5 1.35c.01 1.089.51 1.389 1.08 1.389.36 0 .66-.08.87-.17l.16.76c-.31.14-.779.229-1.219.229-1.259 0-1.929-.909-1.929-2.418 0-1.609.77-2.589 1.809-2.589 1.02 0 1.54.93 1.54 2.229 0 .28-.01.44-.03.57h-2.281zm1.319-.76c.01-.779-.25-1.239-.629-1.239-.46 0-.67.669-.69 1.239h1.319zm4.73 1.799c0 .38.01.79.06 1.109h-.959l-.06-.489h-.02c-.25.369-.609.569-1.029.569-.7 0-1.229-.58-1.229-1.439 0-1.249 1.06-1.779 2.159-1.789v-.13c0-.51-.2-.859-.73-.859-.35 0-.64.1-.909.27l-.2-.729c.24-.149.75-.35 1.339-.35 1.259 0 1.579.859 1.579 1.899v1.938zm-1.05-1.329c-.42.01-1.169.12-1.169.97 0 .549.29.749.53.749.27 0 .52-.18.61-.56.02-.07.03-.16.03-.25v-.909zm2.041-1.06c0-.55-.02-.939-.04-1.369h.93l.05.579h.02c.23-.369.63-.659 1.139-.659.5 0 .86.24 1.04.699h.02c.12-.21.3-.399.48-.52.2-.12.43-.18.679-.18.78 0 1.22.6 1.22 1.799v3.148h-1.06v-2.948c0-.59-.08-1.109-.55-1.109-.28 0-.5.21-.589.569-.03.101-.04.24-.04.39v3.099h-1.06v-3.118c0-.43-.06-.939-.54-.939-.26 0-.51.2-.6.59-.02.109-.04.25-.04.39v3.078h-1.06v-3.499zm9.45-1.969h-.02l-1.089.59-.19-.83 1.429-.789h.919v6.496h-1.049V96.98zm3.24 1.879c-.28 0-.49-.23-.49-.56 0-.33.22-.57.5-.57.3 0 .5.23.5.57 0 .329-.18.56-.5.56h-.01zm0 3.668c-.28 0-.49-.23-.49-.56 0-.33.22-.57.5-.57.3 0 .5.23.5.57 0 .329-.18.56-.5.56h-.01zm2.511.281l2.512-6.527h.612l-2.521 6.527h-.603zm3.753-3.295c0-.559-.018-1.009-.036-1.423h.711l.036.747h.018c.324-.531.837-.846 1.549-.846 1.053 0 1.845.891 1.845 2.215 0 1.566-.954 2.34-1.98 2.34-.576 0-1.08-.252-1.341-.684h-.018v2.367h-.783v-4.716zm.784 1.161c0 .117.018.225.036.324.144.549.621.927 1.188.927.837 0 1.324-.684 1.324-1.684 0-.873-.459-1.62-1.296-1.62-.54 0-1.044.387-1.197.981a1.284 1.284 0 0 0-.054.324v.748zm6.75 1.773l-.063-.549h-.027c-.243.342-.711.647-1.333.647-.882 0-1.333-.621-1.333-1.251 0-1.054.937-1.63 2.62-1.62v-.091c0-.359-.099-1.008-.991-1.008a2.17 2.17 0 0 0-1.134.324l-.18-.522c.36-.234.882-.387 1.431-.387 1.333 0 1.657.909 1.657 1.782v1.63c0 .378.018.747.072 1.044h-.719zm-.117-2.223c-.864-.018-1.846.135-1.846.981 0 .513.342.756.747.756.567 0 .927-.36 1.053-.729a.821.821 0 0 0 .045-.252v-.756zm5.796-2.134c-.018.315-.036.666-.036 1.197v2.53c0 .999-.198 1.611-.622 1.989-.423.396-1.035.522-1.584.522-.522 0-1.098-.126-1.449-.36l.198-.604c.288.181.738.343 1.278.343.81 0 1.404-.424 1.404-1.521v-.486h-.018c-.243.405-.711.729-1.386.729-1.081 0-1.854-.919-1.854-2.125 0-1.477.963-2.313 1.962-2.313.756 0 1.17.396 1.359.756h.018l.036-.657h.694zm-.819 1.72c0-.135-.009-.252-.045-.36-.144-.459-.531-.837-1.107-.837-.756 0-1.296.639-1.296 1.647 0 .855.432 1.566 1.287 1.566.486 0 .927-.307 1.099-.811.045-.135.063-.288.063-.423v-.782zm2.537.603c.018 1.071.703 1.512 1.495 1.512.567 0 .909-.099 1.207-.225l.135.567c-.279.126-.756.27-1.449.27-1.341 0-2.143-.882-2.143-2.196s.774-2.35 2.043-2.35c1.422 0 1.8 1.251 1.8 2.053 0 .162-.018.288-.027.369h-3.061zm2.323-.567c.009-.504-.207-1.288-1.098-1.288-.801 0-1.152.738-1.215 1.288h2.313zm1.448 2.133c0-.333.225-.567.54-.567s.531.234.531.567c0 .324-.207.566-.54.566-.315.001-.531-.241-.531-.566zm2.052-5.923h.792v2.719h.018c.126-.226.324-.424.567-.559a1.63 1.63 0 0 1 .81-.225c.585 0 1.521.359 1.521 1.863v2.593h-.792v-2.503c0-.702-.261-1.296-1.008-1.296-.513 0-.918.359-1.062.792a.959.959 0 0 0-.054.378v2.629h-.792v-6.391zm5.913.783v1.251h1.134v.604h-1.134v2.35c0 .54.153.846.594.846.207 0 .36-.026.459-.054l.036.595c-.153.062-.396.107-.702.107-.369 0-.666-.117-.855-.333-.225-.234-.306-.621-.306-1.134v-2.377h-.675v-.604h.675v-1.044l.774-.207zm2.025 2.43c0-.45-.009-.819-.036-1.18h.693l.036.702h.027c.243-.414.648-.801 1.368-.801.594 0 1.044.359 1.233.873h.018c.135-.243.306-.433.486-.567.261-.198.549-.306.963-.306.576 0 1.431.378 1.431 1.891v2.565h-.774V99.98c0-.837-.306-1.342-.945-1.342-.45 0-.801.334-.937.721a1.304 1.304 0 0 0-.063.396v2.691h-.774v-2.61c0-.693-.306-1.198-.91-1.198-.495 0-.855.396-.981.793a1.092 1.092 0 0 0-.063.387v2.629h-.774v-3.178zm7.506-3.213h.792v6.392h-.792v-6.392zm7.659.143c-.657.883-1.135 2.053-1.135 3.683 0 1.603.495 2.755 1.135 3.654h-.622c-.567-.747-1.179-1.899-1.179-3.654.009-1.773.612-2.926 1.179-3.683h.622zm3.942 6.086c-.207.108-.667.252-1.251.252-1.314 0-2.169-.891-2.169-2.224 0-1.341.918-2.313 2.34-2.313.468 0 .882.117 1.099.225l-.18.612c-.189-.107-.486-.207-.918-.207-.999 0-1.539.738-1.539 1.647 0 1.009.648 1.63 1.512 1.63.45 0 .747-.117.972-.216l.134.594zm.926-6.229h.792v6.392h-.792v-6.392zm3.007.809c.009.271-.189.486-.504.486a.47.47 0 0 1-.477-.486c0-.278.207-.495.495-.495.297 0 .486.217.486.495zm-.882 5.582V98.09h.792v4.357h-.792zm2.546-2.034c.018 1.071.702 1.512 1.495 1.512.567 0 .909-.099 1.207-.225l.135.567c-.279.126-.756.27-1.449.27-1.341 0-2.143-.882-2.143-2.196s.774-2.35 2.043-2.35c1.422 0 1.8 1.251 1.8 2.053 0 .162-.018.288-.027.369h-3.061zm2.323-.567c.009-.504-.207-1.288-1.098-1.288-.801 0-1.152.738-1.215 1.288h2.313zm1.745-.577c0-.45-.009-.819-.036-1.18h.702l.045.721h.018c.216-.414.72-.819 1.44-.819.604 0 1.54.359 1.54 1.854v2.602h-.792v-2.512c0-.702-.261-1.287-1.008-1.287-.522 0-.927.369-1.062.81-.036.1-.054.234-.054.369v2.62h-.792v-3.178zm5.913-2.43v1.251h1.134v.604h-1.134v2.35c0 .54.153.846.594.846.207 0 .36-.026.459-.054l.036.595c-.153.062-.396.107-.702.107-.369 0-.666-.117-.855-.333-.225-.234-.306-.621-.306-1.134v-2.377h-.675v-.604h.675v-1.044l.774-.207zm3.933 2.61c0-.513-.01-.954-.036-1.359h.692l.027.855h.036c.198-.585.675-.954 1.206-.954.09 0 .153.009.226.026v.748a1.139 1.139 0 0 0-.271-.027c-.558 0-.954.423-1.062 1.018a2.214 2.214 0 0 0-.035.369v2.322h-.783v-2.998zm3.294.964c.018 1.071.702 1.512 1.494 1.512.567 0 .909-.099 1.206-.225l.136.567c-.279.126-.757.27-1.45.27-1.341 0-2.143-.882-2.143-2.196s.774-2.35 2.044-2.35c1.423 0 1.801 1.251 1.801 2.053 0 .162-.019.288-.027.369h-3.061zm2.323-.567c.009-.504-.207-1.288-1.099-1.288-.801 0-1.152.738-1.215 1.288h2.314zm4.715 1.926h-.018c-.234.432-.721.773-1.423.773-1.018 0-1.846-.882-1.846-2.205 0-1.63 1.054-2.35 1.972-2.35.676 0 1.126.333 1.342.756h.018l.027-.657h.747a24.05 24.05 0 0 0-.027 1.197v4.942h-.792v-2.456zm0-1.918a1.35 1.35 0 0 0-.036-.333c-.117-.486-.54-.9-1.134-.9-.819 0-1.314.693-1.314 1.675 0 .864.414 1.62 1.287 1.62.514 0 .954-.315 1.135-.864.035-.108.062-.261.062-.378v-.82zm5.744 1.405c0 .45.009.847.035 1.188h-.702l-.045-.711h-.018c-.207.351-.666.81-1.44.81-.685 0-1.504-.378-1.504-1.908V98.09h.793v2.413c0 .828.252 1.386.972 1.386.531 0 .9-.369 1.045-.72.045-.117.071-.261.071-.405V98.09h.793v3.169zm1.754-.846c.018 1.071.702 1.512 1.494 1.512.567 0 .909-.099 1.206-.225l.136.567c-.279.126-.757.27-1.45.27-1.341 0-2.143-.882-2.143-2.196s.774-2.35 2.044-2.35c1.423 0 1.801 1.251 1.801 2.053 0 .162-.019.288-.027.369h-3.061zm2.322-.567c.009-.504-.207-1.288-1.099-1.288-.801 0-1.152.738-1.215 1.288h2.314zm1.637 1.791c.234.153.648.315 1.045.315.576 0 .846-.288.846-.648 0-.378-.225-.585-.81-.801-.783-.279-1.152-.712-1.152-1.233 0-.702.566-1.278 1.503-1.278.441 0 .828.126 1.071.27l-.198.576a1.702 1.702 0 0 0-.891-.252c-.469 0-.729.271-.729.595 0 .359.261.521.828.738.756.288 1.144.666 1.144 1.313 0 .766-.595 1.306-1.63 1.306-.477 0-.918-.117-1.224-.297l.197-.604zm4.626-4.798v1.251h1.135v.604h-1.135v2.35c0 .54.153.846.595.846.207 0 .359-.026.459-.054l.036.595c-.153.062-.396.107-.702.107-.369 0-.667-.117-.855-.333-.226-.234-.307-.621-.307-1.134v-2.377h-.675v-.604h.675v-1.044l.774-.207zm1.547 6.697c.64-.891 1.135-2.062 1.135-3.682 0-1.611-.486-2.764-1.135-3.655h.612c.576.738 1.18 1.891 1.18 3.664 0 1.765-.604 2.908-1.18 3.673h-.612zm-130.786 8.901c.18.12.51.26.84.26.379 0 .609-.199.609-.56 0-.3-.14-.499-.589-.789-.73-.43-.99-.899-.99-1.39 0-.839.61-1.459 1.489-1.459.39 0 .7.11.93.24l-.21.789c-.19-.12-.41-.21-.67-.21-.37 0-.549.24-.549.51 0 .26.12.41.58.71.649.39 1 .869 1 1.479 0 .99-.69 1.489-1.609 1.489-.38 0-.83-.109-1.04-.279l.209-.79zm4.44-5.067v1.21h.939v.77h-.939v2.528c0 .6.23.75.5.75.12 0 .22-.01.33-.03l.02.83c-.16.05-.4.079-.7.079-.34 0-.649-.09-.859-.3-.24-.239-.36-.589-.36-1.319v-2.538h-.58v-.77h.58v-.84l1.069-.37zm1.58 2.579c0-.45-.02-.96-.04-1.369h.93l.06.729h.03c.19-.49.59-.81.989-.81.1 0 .16.01.23.02v1.06c-.07-.01-.14-.01-.23-.01-.37 0-.739.31-.859.84-.02.109-.04.279-.04.46v2.578h-1.069v-3.498zm3.5 1.35c.01 1.089.51 1.389 1.08 1.389.36 0 .66-.08.87-.17l.16.76c-.31.14-.779.229-1.219.229-1.259 0-1.929-.909-1.929-2.418 0-1.609.77-2.589 1.809-2.589 1.02 0 1.54.93 1.54 2.229 0 .28-.01.44-.03.57h-2.281zm1.319-.76c.01-.779-.25-1.239-.629-1.239-.46 0-.67.669-.69 1.239h1.319zm4.73 1.799c0 .38.01.79.06 1.109h-.959l-.06-.489h-.02c-.25.369-.609.569-1.029.569-.7 0-1.229-.58-1.229-1.439 0-1.249 1.06-1.779 2.159-1.789v-.13c0-.51-.2-.859-.73-.859-.35 0-.64.1-.909.27l-.2-.729c.24-.149.75-.35 1.339-.35 1.259 0 1.579.859 1.579 1.899v1.938zm-1.05-1.329c-.42.01-1.169.12-1.169.97 0 .549.29.749.53.749.27 0 .52-.18.61-.56.02-.07.03-.16.03-.25v-.909zm2.041-1.06c0-.55-.02-.939-.04-1.369h.93l.05.579h.02c.23-.369.63-.659 1.139-.659.5 0 .86.24 1.04.699h.02c.12-.21.3-.399.48-.52.2-.12.43-.18.679-.18.78 0 1.22.6 1.22 1.799v3.148h-1.06v-2.948c0-.59-.08-1.109-.55-1.109-.28 0-.5.21-.589.569-.03.101-.04.24-.04.39v3.099h-1.06v-3.118c0-.43-.06-.939-.54-.939-.26 0-.51.2-.6.59-.02.109-.04.25-.04.39v3.078h-1.06v-3.499zm7.9 3.498v-.71l.6-.789c.81-1.069 1.599-2.109 1.599-3.168 0-.61-.3-1.01-.87-1.01-.439 0-.759.21-.959.34l-.209-.819c.26-.19.77-.42 1.359-.42 1.27 0 1.729.879 1.729 1.839 0 1.219-.779 2.289-1.549 3.258l-.41.52v.021h2.059v.939h-3.349zm4.79-3.588c-.28 0-.49-.23-.49-.56 0-.33.22-.57.5-.57.3 0 .5.23.5.57 0 .329-.18.56-.5.56h-.01zm0 3.668c-.28 0-.49-.23-.49-.56 0-.33.22-.57.5-.57.3 0 .5.23.5.57 0 .329-.18.56-.5.56h-.01zm2.511.281l2.512-6.527h.612l-2.521 6.527h-.603zm3.645-1.171c.234.153.648.315 1.044.315.576 0 .847-.288.847-.648 0-.378-.225-.585-.811-.801-.783-.279-1.152-.712-1.152-1.233 0-.702.567-1.278 1.503-1.278.441 0 .829.126 1.071.27l-.198.576a1.706 1.706 0 0 0-.892-.252c-.468 0-.729.271-.729.595 0 .359.261.521.828.738.756.288 1.144.666 1.144 1.313 0 .766-.594 1.306-1.629 1.306-.478 0-.918-.117-1.225-.297l.199-.604zm6.778.648c-.207.108-.667.252-1.251.252-1.314 0-2.169-.891-2.169-2.224 0-1.341.918-2.313 2.34-2.313.468 0 .882.117 1.099.225l-.18.612c-.189-.107-.486-.207-.918-.207-.999 0-1.539.738-1.539 1.647 0 1.009.648 1.63 1.512 1.63.45 0 .747-.117.972-.216l.134.594zm.926-2.836c0-.513-.009-.954-.036-1.359h.693l.027.855h.036c.198-.585.675-.954 1.207-.954.09 0 .153.009.225.026v.748a1.139 1.139 0 0 0-.271-.027c-.558 0-.954.423-1.062 1.018a2.207 2.207 0 0 0-.036.369v2.322h-.783v-2.998zm3.861-2.584c.009.271-.189.486-.504.486a.47.47 0 0 1-.477-.486c0-.278.207-.495.495-.495.297 0 .486.217.486.495zm-.882 5.582v-4.357h.792v4.357h-.792zm2.106-2.934c0-.559-.018-1.009-.036-1.423h.711l.036.747h.018c.324-.531.837-.846 1.549-.846 1.053 0 1.845.891 1.845 2.215 0 1.566-.954 2.34-1.98 2.34-.576 0-1.08-.252-1.341-.684h-.018v2.367h-.783v-4.716zm.783 1.161c0 .117.018.225.036.324.144.549.621.927 1.188.927.837 0 1.324-.684 1.324-1.684 0-.873-.459-1.62-1.296-1.62-.54 0-1.044.387-1.197.981a1.284 1.284 0 0 0-.054.324v.748zm5.292-3.835v1.251h1.134v.604h-1.134v2.35c0 .54.153.846.594.846.207 0 .36-.026.459-.054l.036.595c-.153.062-.396.107-.702.107-.369 0-.666-.117-.855-.333-.225-.234-.306-.621-.306-1.134v-2.377h-.675v-.604h.675v-1.044l.774-.207zm1.809 5.14c0-.333.225-.567.54-.567s.531.234.531.567c0 .324-.207.566-.54.566-.315.001-.531-.241-.531-.566zm.989 1.729c.36-.027.675-.126.864-.333.216-.253.297-.595.297-1.639v-3.646h.792v3.952c0 .847-.135 1.396-.522 1.792-.351.351-.927.495-1.351.495l-.08-.621zm2.044-6.843c.009.262-.18.486-.495.486a.473.473 0 0 1-.486-.486c0-.278.207-.495.504-.495.288 0 .477.217.477.495zm1.098 4.772c.234.153.648.315 1.044.315.576 0 .847-.288.847-.648 0-.378-.225-.585-.811-.801-.783-.279-1.152-.712-1.152-1.233 0-.702.567-1.278 1.503-1.278.441 0 .828.126 1.071.27l-.198.576a1.706 1.706 0 0 0-.892-.252c-.468 0-.729.271-.729.595 0 .359.261.521.828.738.756.288 1.144.666 1.144 1.313 0 .766-.594 1.306-1.629 1.306-.478 0-.918-.117-1.225-.297l.199-.604zm9.207-5.438c-.657.883-1.135 2.053-1.135 3.683 0 1.603.495 2.755 1.135 3.654h-.622c-.567-.747-1.179-1.899-1.179-3.654.009-1.773.612-2.926 1.179-3.683h.622zm.837 3.314c0-.559-.018-1.009-.036-1.423h.711l.036.747h.018c.324-.531.837-.846 1.549-.846 1.053 0 1.845.891 1.845 2.215 0 1.566-.954 2.34-1.98 2.34-.576 0-1.08-.252-1.341-.684h-.018v2.367h-.783v-4.716zm.783 1.161c0 .117.018.225.036.324.144.549.621.927 1.188.927.837 0 1.324-.684 1.324-1.684 0-.873-.459-1.62-1.296-1.62-.54 0-1.044.387-1.197.981a1.284 1.284 0 0 0-.054.324v.748zm7.983.585c0 .45.009.847.036 1.188h-.702l-.045-.711h-.018a1.64 1.64 0 0 1-1.44.81c-.685 0-1.503-.378-1.503-1.908v-2.548h.792v2.413c0 .828.252 1.386.972 1.386.531 0 .9-.369 1.044-.72.045-.117.072-.261.072-.405v-2.674h.792v3.169zm1.205.378c.234.153.648.315 1.044.315.576 0 .847-.288.847-.648 0-.378-.225-.585-.811-.801-.783-.279-1.152-.712-1.152-1.233 0-.702.567-1.278 1.503-1.278.441 0 .828.126 1.071.27l-.198.576a1.706 1.706 0 0 0-.892-.252c-.468 0-.729.271-.729.595 0 .359.261.521.828.738.756.288 1.144.666 1.144 1.313 0 .766-.594 1.306-1.629 1.306-.478 0-.918-.117-1.225-.297l.199-.604zm3.672-5.581h.792v2.719h.018c.126-.226.324-.424.567-.559a1.63 1.63 0 0 1 .81-.225c.585 0 1.521.359 1.521 1.863v2.593h-.792v-2.503c0-.702-.261-1.296-1.008-1.296-.513 0-.918.359-1.062.792a.959.959 0 0 0-.054.378v2.629h-.792v-6.391zm6.903 3.457c0-.559-.018-1.009-.036-1.423h.711l.036.747h.018c.324-.531.837-.846 1.549-.846 1.053 0 1.845.891 1.845 2.215 0 1.566-.954 2.34-1.98 2.34-.576 0-1.08-.252-1.341-.684h-.018v2.367h-.783v-4.716zm.783 1.161c0 .117.018.225.036.324.144.549.621.927 1.188.927.837 0 1.323-.684 1.323-1.684 0-.873-.459-1.62-1.296-1.62-.54 0-1.044.387-1.197.981a1.284 1.284 0 0 0-.054.324v.748zm4.338-1.225c0-.513-.009-.954-.036-1.359h.693l.027.855h.036c.198-.585.675-.954 1.207-.954.09 0 .153.009.225.026v.748a1.135 1.135 0 0 0-.27-.027c-.558 0-.954.423-1.062 1.018a2.207 2.207 0 0 0-.036.369v2.322h-.783v-2.998zm6.797.783c0 1.611-1.117 2.313-2.17 2.313-1.179 0-2.088-.864-2.088-2.241 0-1.458.954-2.313 2.161-2.313 1.25 0 2.097.909 2.097 2.241zm-3.458.045c0 .954.549 1.675 1.323 1.675.756 0 1.323-.711 1.323-1.692 0-.738-.369-1.675-1.305-1.675-.936 0-1.341.864-1.341 1.692zm4.455-1.008c0-.45-.009-.819-.036-1.18h.693l.036.702h.026c.243-.414.648-.801 1.369-.801.594 0 1.044.359 1.233.873h.018c.135-.243.307-.433.486-.567.261-.198.549-.306.963-.306.576 0 1.432.378 1.432 1.891v2.565h-.774v-2.467c0-.837-.306-1.342-.945-1.342-.45 0-.801.334-.936.721a1.304 1.304 0 0 0-.063.396v2.691h-.774v-2.61c0-.693-.306-1.198-.909-1.198-.495 0-.855.396-.981.793a1.091 1.091 0 0 0-.062.387v2.629h-.774v-3.177zm8.388-2.404c.01.271-.188.486-.504.486a.47.47 0 0 1-.477-.486c0-.278.207-.495.495-.495.297 0 .486.217.486.495zm-.882 5.582v-4.357h.792v4.357h-.792zm1.998-.81c.234.153.648.315 1.045.315.576 0 .846-.288.846-.648 0-.378-.225-.585-.81-.801-.783-.279-1.152-.712-1.152-1.233 0-.702.566-1.278 1.503-1.278.441 0 .828.126 1.071.27l-.198.576a1.702 1.702 0 0 0-.891-.252c-.469 0-.729.271-.729.595 0 .359.261.521.828.738.756.288 1.144.666 1.144 1.313 0 .766-.595 1.306-1.63 1.306-.477 0-.918-.117-1.224-.297l.197-.604zm4.113-1.224c.018 1.071.702 1.512 1.494 1.512.567 0 .909-.099 1.206-.225l.136.567c-.279.126-.757.27-1.45.27-1.341 0-2.143-.882-2.143-2.196s.774-2.35 2.044-2.35c1.423 0 1.801 1.251 1.801 2.053 0 .162-.019.288-.027.369h-3.061zm2.323-.567c.009-.504-.207-1.288-1.099-1.288-.801 0-1.152.738-1.215 1.288h2.314zm1.267 3.69c.64-.891 1.135-2.062 1.135-3.682 0-1.611-.486-2.764-1.135-3.655h.612c.576.738 1.18 1.891 1.18 3.664 0 1.765-.604 2.908-1.18 3.673h-.612zm-120.922 8.901c.18.12.51.26.84.26.379 0 .609-.199.609-.56 0-.3-.14-.499-.589-.789-.73-.43-.99-.899-.99-1.39 0-.839.61-1.459 1.489-1.459.39 0 .7.11.93.24l-.21.789c-.19-.12-.41-.21-.67-.21-.37 0-.549.24-.549.51 0 .26.12.41.58.71.649.39 1 .869 1 1.479 0 .99-.69 1.489-1.609 1.489-.38 0-.83-.109-1.04-.279l.209-.79zm4.44-5.067v1.21h.939v.77h-.939v2.528c0 .6.23.75.5.75.12 0 .22-.01.33-.03l.02.83c-.16.05-.4.079-.7.079-.34 0-.649-.09-.859-.3-.24-.239-.36-.589-.36-1.319v-2.538h-.58v-.77h.58v-.84l1.069-.37zm1.58 2.579c0-.45-.02-.96-.04-1.369h.93l.06.729h.03c.19-.49.59-.81.989-.81.1 0 .16.01.23.02v1.06c-.07-.01-.14-.01-.23-.01-.37 0-.739.31-.859.84-.02.109-.04.279-.04.46v2.578h-1.069v-3.498zm3.5 1.35c.01 1.089.51 1.389 1.08 1.389.36 0 .66-.08.87-.17l.16.76c-.31.14-.779.229-1.219.229-1.259 0-1.929-.909-1.929-2.418 0-1.609.77-2.589 1.809-2.589 1.02 0 1.54.93 1.54 2.229 0 .28-.01.44-.03.57h-2.281zm1.319-.76c.01-.779-.25-1.239-.629-1.239-.46 0-.67.669-.69 1.239h1.319zm4.73 1.799c0 .38.01.79.06 1.109h-.959l-.06-.489h-.02c-.25.369-.609.569-1.029.569-.7 0-1.229-.58-1.229-1.439 0-1.249 1.06-1.779 2.159-1.789v-.13c0-.51-.2-.859-.73-.859-.35 0-.64.1-.909.27l-.2-.729c.24-.149.75-.35 1.339-.35 1.259 0 1.579.859 1.579 1.899v1.938zm-1.05-1.329c-.42.01-1.169.12-1.169.97 0 .549.29.749.53.749.27 0 .52-.18.61-.56.02-.07.03-.16.03-.25v-.909zm2.041-1.06c0-.55-.02-.939-.04-1.369h.93l.05.579h.02c.23-.369.63-.659 1.139-.659.5 0 .86.24 1.04.699h.02c.12-.21.3-.399.48-.52.2-.12.43-.18.679-.18.78 0 1.22.6 1.22 1.799v3.148h-1.06v-2.948c0-.59-.08-1.109-.55-1.109-.28 0-.5.21-.589.569-.03.101-.04.24-.04.39v3.099h-1.06v-3.118c0-.43-.06-.939-.54-.939-.26 0-.51.2-.6.59-.02.109-.04.25-.04.39v3.078h-1.06v-3.499zm9.959 3.498v-1.659h-2.199v-.729l2.119-4.107h1.029v3.978h.67v.859h-.67v1.659h-.949zm0-2.518v-1.56c0-.39.03-.779.06-1.159h-.03c-.18.43-.32.729-.5 1.109l-.79 1.589v.021h1.26zm2.731-1.07c-.28 0-.49-.23-.49-.56 0-.33.22-.57.5-.57.3 0 .5.23.5.57 0 .329-.18.56-.5.56h-.01zm0 3.668c-.28 0-.49-.23-.49-.56 0-.33.22-.57.5-.57.3 0 .5.23.5.57 0 .329-.18.56-.5.56h-.01zm2.511.281l2.512-6.527h.612l-2.521 6.527h-.603zm3.645-1.171c.234.153.648.315 1.044.315.576 0 .847-.288.847-.648 0-.378-.225-.585-.811-.801-.783-.279-1.152-.712-1.152-1.233 0-.702.567-1.278 1.503-1.278.441 0 .829.126 1.071.27l-.198.576a1.706 1.706 0 0 0-.892-.252c-.468 0-.729.271-.729.595 0 .359.261.521.828.738.756.288 1.144.666 1.144 1.313 0 .766-.594 1.306-1.629 1.306-.478 0-.918-.117-1.225-.297l.199-.604zm4.626-4.798v1.251h1.134v.604h-1.134v2.35c0 .54.153.846.594.846.207 0 .36-.026.459-.054l.036.595c-.153.062-.396.107-.702.107-.369 0-.666-.117-.855-.333-.225-.234-.306-.621-.306-1.134v-2.377h-.675v-.604h.675v-1.044l.774-.207zm2.394 1.251l.954 2.575c.099.288.207.63.279.891h.018c.081-.261.171-.594.279-.909l.864-2.557h.837l-1.188 3.106c-.567 1.494-.954 2.26-1.494 2.728-.387.342-.774.477-.973.513l-.198-.666a2.06 2.06 0 0 0 .693-.387c.216-.171.486-.478.667-.883.036-.081.063-.144.063-.188s-.018-.108-.054-.207l-1.611-4.016h.864zm3.951-2.034h.792v6.392h-.792v-6.392zm2.565 4.357c.018 1.071.702 1.512 1.495 1.512.567 0 .909-.099 1.207-.225l.135.567c-.279.126-.756.27-1.449.27-1.341 0-2.143-.882-2.143-2.196s.774-2.35 2.043-2.35c1.422 0 1.8 1.251 1.8 2.053 0 .162-.018.288-.027.369h-3.061zm2.322-.567c.009-.504-.207-1.288-1.098-1.288-.801 0-1.152.738-1.215 1.288h2.313zm1.449 2.133c0-.333.225-.567.54-.567s.531.234.531.567c0 .324-.207.566-.54.566-.315.001-.531-.241-.531-.566zm5.158.306c-.207.108-.667.252-1.251.252-1.314 0-2.169-.891-2.169-2.224 0-1.341.918-2.313 2.34-2.313.468 0 .882.117 1.099.225l-.18.612c-.189-.107-.486-.207-.918-.207-.999 0-1.539.738-1.539 1.647 0 1.009.648 1.63 1.512 1.63.45 0 .747-.117.972-.216l.134.594zm.818-.648c.234.153.648.315 1.044.315.576 0 .847-.288.847-.648 0-.378-.225-.585-.811-.801-.783-.279-1.152-.712-1.152-1.233 0-.702.567-1.278 1.503-1.278.441 0 .829.126 1.071.27l-.198.576a1.706 1.706 0 0 0-.892-.252c-.468 0-.729.271-.729.595 0 .359.261.521.828.738.756.288 1.144.666 1.144 1.313 0 .766-.594 1.306-1.629 1.306-.478 0-.918-.117-1.225-.297l.199-.604zm3.564 0c.234.153.648.315 1.044.315.576 0 .847-.288.847-.648 0-.378-.225-.585-.811-.801-.783-.279-1.152-.712-1.152-1.233 0-.702.567-1.278 1.503-1.278.441 0 .828.126 1.071.27l-.198.576a1.706 1.706 0 0 0-.892-.252c-.468 0-.729.271-.729.595 0 .359.261.521.828.738.756.288 1.144.666 1.144 1.313 0 .766-.594 1.306-1.629 1.306-.478 0-.918-.117-1.225-.297l.199-.604zm9.207-5.438c-.657.883-1.135 2.053-1.135 3.683 0 1.603.495 2.755 1.135 3.654h-.622c-.567-.747-1.179-1.899-1.179-3.654.009-1.773.612-2.926 1.179-3.683h.622zm.837 3.314c0-.559-.018-1.009-.036-1.423h.711l.036.747h.018c.324-.531.837-.846 1.549-.846 1.053 0 1.845.891 1.845 2.215 0 1.566-.954 2.34-1.98 2.34-.576 0-1.08-.252-1.341-.684h-.018v2.367h-.783v-4.716zm.783 1.161c0 .117.018.225.036.324.144.549.621.927 1.188.927.837 0 1.324-.684 1.324-1.684 0-.873-.459-1.62-1.296-1.62-.54 0-1.044.387-1.197.981a1.284 1.284 0 0 0-.054.324v.748zm7.983.585c0 .45.009.847.036 1.188h-.702l-.045-.711h-.018a1.64 1.64 0 0 1-1.44.81c-.685 0-1.503-.378-1.503-1.908v-2.548h.792v2.413c0 .828.252 1.386.972 1.386.531 0 .9-.369 1.044-.72.045-.117.072-.261.072-.405v-2.674h.792v3.169zm1.205.378c.234.153.648.315 1.044.315.576 0 .847-.288.847-.648 0-.378-.225-.585-.811-.801-.783-.279-1.152-.712-1.152-1.233 0-.702.567-1.278 1.503-1.278.441 0 .828.126 1.071.27l-.198.576a1.706 1.706 0 0 0-.892-.252c-.468 0-.729.271-.729.595 0 .359.261.521.828.738.756.288 1.144.666 1.144 1.313 0 .766-.594 1.306-1.629 1.306-.478 0-.918-.117-1.225-.297l.199-.604zm3.672-5.581h.792v2.719h.018c.126-.226.324-.424.567-.559a1.63 1.63 0 0 1 .81-.225c.585 0 1.521.359 1.521 1.863v2.593h-.792v-2.503c0-.702-.261-1.296-1.008-1.296-.513 0-.918.359-1.062.792a.959.959 0 0 0-.054.378v2.629h-.792v-6.391zm6.903 3.457c0-.559-.018-1.009-.036-1.423h.711l.036.747h.018c.324-.531.837-.846 1.549-.846 1.053 0 1.845.891 1.845 2.215 0 1.566-.954 2.34-1.98 2.34-.576 0-1.08-.252-1.341-.684h-.018v2.367h-.783v-4.716zm.783 1.161c0 .117.018.225.036.324.144.549.621.927 1.188.927.837 0 1.323-.684 1.323-1.684 0-.873-.459-1.62-1.296-1.62-.54 0-1.044.387-1.197.981a1.284 1.284 0 0 0-.054.324v.748zm4.338-1.225c0-.513-.009-.954-.036-1.359h.693l.027.855h.036c.198-.585.675-.954 1.207-.954.09 0 .153.009.225.026v.748a1.135 1.135 0 0 0-.27-.027c-.558 0-.954.423-1.062 1.018a2.207 2.207 0 0 0-.036.369v2.322h-.783v-2.998zm6.796.783c0 1.611-1.116 2.313-2.169 2.313-1.18 0-2.089-.864-2.089-2.241 0-1.458.954-2.313 2.161-2.313 1.251 0 2.097.909 2.097 2.241zm-3.457.045c0 .954.549 1.675 1.324 1.675.756 0 1.323-.711 1.323-1.692 0-.738-.369-1.675-1.306-1.675s-1.341.864-1.341 1.692zm4.455-1.008c0-.45-.009-.819-.036-1.18h.693l.036.702h.026c.243-.414.648-.801 1.369-.801.594 0 1.044.359 1.233.873h.018c.135-.243.307-.433.486-.567.261-.198.549-.306.963-.306.576 0 1.432.378 1.432 1.891v2.565h-.774v-2.467c0-.837-.306-1.342-.945-1.342-.45 0-.801.334-.936.721a1.304 1.304 0 0 0-.063.396v2.691h-.774v-2.61c0-.693-.306-1.198-.909-1.198-.495 0-.855.396-.981.793a1.091 1.091 0 0 0-.062.387v2.629h-.774v-3.177zm8.388-2.404c.01.271-.188.486-.504.486a.47.47 0 0 1-.477-.486c0-.278.207-.495.495-.495.297 0 .486.217.486.495zm-.882 5.582v-4.357h.792v4.357h-.792zm1.998-.81c.234.153.648.315 1.045.315.576 0 .846-.288.846-.648 0-.378-.225-.585-.81-.801-.783-.279-1.152-.712-1.152-1.233 0-.702.566-1.278 1.503-1.278.441 0 .828.126 1.071.27l-.198.576a1.702 1.702 0 0 0-.891-.252c-.469 0-.729.271-.729.595 0 .359.261.521.828.738.756.288 1.144.666 1.144 1.313 0 .766-.595 1.306-1.63 1.306-.477 0-.918-.117-1.224-.297l.197-.604zm4.113-1.224c.018 1.071.702 1.512 1.494 1.512.567 0 .909-.099 1.206-.225l.136.567c-.279.126-.757.27-1.45.27-1.341 0-2.143-.882-2.143-2.196s.774-2.35 2.044-2.35c1.423 0 1.801 1.251 1.801 2.053 0 .162-.019.288-.027.369h-3.061zm2.323-.567c.009-.504-.207-1.288-1.099-1.288-.801 0-1.152.738-1.215 1.288h2.314zm1.267 3.69c.64-.891 1.135-2.062 1.135-3.682 0-1.611-.486-2.764-1.135-3.655h.612c.576.738 1.18 1.891 1.18 3.664 0 1.765-.604 2.908-1.18 3.673h-.612zm-66.914-88.728c-.252 0-.45-.207-.45-.522 0-.306.208-.522.459-.522.27 0 .459.207.459.522s-.171.522-.459.522h-.009zm1.746 0c-.252 0-.45-.207-.45-.522 0-.306.208-.522.459-.522.27 0 .459.207.459.522s-.171.522-.459.522h-.009zm1.745 0c-.252 0-.45-.207-.45-.522 0-.306.207-.522.459-.522.27 0 .459.207.459.522s-.171.522-.459.522h-.009z"/></svg>