<svg xmlns="http://www.w3.org/2000/svg" viewBox="0 0 282.96 231.049"><path fill="#fff" fill-rule="evenodd" d="M3.38 11.943h273.124v14.743H3.38z" clip-rule="evenodd"/><path fill="none" stroke="#000" d="M3.38 11.943h273.124v14.743H3.38z" stroke-linecap="round" stroke-linejoin="round"/><path fill="#feefdd" fill-rule="evenodd" d="M3.38 26.686h273.124v155.321H3.38z" clip-rule="evenodd"/><path fill="none" stroke="#000" d="M3.38 26.686h273.124v155.321H3.38z" stroke-linecap="round" stroke-linejoin="round"/><path fill="none" stroke="#c1272d" stroke-width="2" d="M8.013 71.897h254.74" stroke-linecap="round" stroke-linejoin="round"/><path fill="#c1272d" d="M261.585 75.898l6.909-3.988-6.909-3.989z"/><path fill="none" stroke="#c1272d" stroke-width="2" d="M267.753 148.05H13.013" stroke-linecap="round" stroke-linejoin="round"/><path fill="#c1272d" d="M14.18 144.049l-6.908 3.988 6.908 3.989z"/><path d="M6.576 7.425c-.189.1-.495.162-.873.162-1.179 0-2.035-.945-2.035-3.007 0-2.403 1.188-3.169 2.152-3.169.36 0 .63.072.747.153l-.153.585c-.144-.062-.288-.126-.603-.126-.648 0-1.414.63-1.414 2.485 0 1.863.685 2.466 1.432 2.466a1.6 1.6 0 0 0 .63-.126l.117.577zm1.709.18c-.783 0-1.414-.712-1.414-2.242 0-1.593.711-2.26 1.458-2.26.783 0 1.405.721 1.405 2.242 0 1.692-.774 2.26-1.44 2.26h-.009zm.036-.549c.594 0 .72-1.017.72-1.701 0-.675-.126-1.701-.738-1.701-.621 0-.738 1.026-.738 1.701 0 .721.126 1.701.747 1.701h.009zm2.187-2.755c0-.513-.027-.773-.036-1.125h.603l.036.522h.018c.189-.352.54-.595.999-.595.604 0 1.054.441 1.054 1.504v2.926h-.693V4.725c0-.522-.099-1.035-.603-1.035-.288 0-.567.243-.648.711a1.57 1.57 0 0 0-.036.387v2.746h-.693V4.301zm3.645 0c0-.513-.027-.773-.036-1.125h.603l.036.522h.018c.189-.352.54-.595.999-.595.604 0 1.054.441 1.054 1.504v2.926h-.693V4.725c0-.522-.099-1.035-.603-1.035-.288 0-.567.243-.648.711a1.57 1.57 0 0 0-.036.387v2.746h-.693V4.301zm4.131 1.117c.009 1.341.531 1.62 1.026 1.62.306 0 .549-.072.72-.162l.117.504c-.243.136-.612.207-.963.207-1.035 0-1.576-.846-1.576-2.188 0-1.413.594-2.296 1.468-2.296.882 0 1.242.937 1.242 1.918 0 .171-.009.288-.018.396h-2.016zm1.369-.514c.009-.873-.315-1.261-.648-1.261-.45 0-.684.667-.711 1.261h1.359zm3.537 2.521c-.153.091-.414.162-.72.162-.954 0-1.594-.765-1.594-2.205 0-1.252.63-2.269 1.72-2.269.234 0 .486.062.612.144l-.135.559a1.13 1.13 0 0 0-.495-.117c-.702 0-1.008.828-1.008 1.684 0 1.017.387 1.629 1.026 1.629.18 0 .342-.036.495-.117l.099.53zm1.574-5.267v1.018h.837v.522h-.837v2.593c0 .576.198.72.45.72.117 0 .207-.009.279-.026l.036.531a1.522 1.522 0 0 1-.513.071c-.279 0-.522-.071-.684-.261-.18-.198-.261-.495-.261-1.099V3.698h-.531v-.522h.531v-.739l.693-.279zm1.773.343c-.225 0-.396-.181-.396-.45 0-.271.18-.45.405-.45.252 0 .414.18.414.45s-.162.45-.414.45h-.009zm-.324 5.032V3.176h.693v4.357h-.693zm2.88.072c-.783 0-1.414-.712-1.414-2.242 0-1.593.711-2.26 1.458-2.26.783 0 1.405.721 1.405 2.242 0 1.692-.774 2.26-1.44 2.26h-.009zm.036-.549c.594 0 .72-1.017.72-1.701 0-.675-.126-1.701-.738-1.701-.621 0-.738 1.026-.738 1.701 0 .721.126 1.701.747 1.701h.009zm2.187-2.755c0-.513-.027-.773-.036-1.125h.603l.036.522h.018c.189-.352.54-.595.999-.595.604 0 1.054.441 1.054 1.504v2.926h-.693V4.725c0-.522-.099-1.035-.603-1.035-.288 0-.567.243-.648.711a1.57 1.57 0 0 0-.036.387v2.746h-.693V4.301zM7.914 21.054c.207.126.567.242.873.242.63 0 1.008-.414 1.008-1.026 0-.558-.324-.899-.801-1.26-.477-.333-1.143-.9-1.143-1.684 0-.918.648-1.594 1.602-1.594.378 0 .711.126.855.226l-.171.594a1.276 1.276 0 0 0-.72-.207c-.594 0-.874.45-.874.864 0 .604.315.847.892 1.252.729.513 1.053 1.071 1.053 1.746 0 1.044-.738 1.701-1.702 1.701-.414 0-.855-.135-1.026-.27l.154-.584zm4.14-4.575v1.018h.837v.522h-.837v2.593c0 .576.198.72.45.72.117 0 .207-.009.279-.026l.036.531a1.522 1.522 0 0 1-.513.071c-.279 0-.522-.071-.684-.261-.18-.198-.261-.495-.261-1.099V18.02h-.531v-.522h.531v-.738l.693-.281zm1.44 2.143c0-.368-.027-.801-.036-1.125h.622l.036.685h.018c.144-.414.513-.757.918-.757.054 0 .099 0 .144.01v.711c-.045-.009-.09-.009-.144-.009-.441 0-.765.404-.837.909a2.566 2.566 0 0 0-.027.396v2.413h-.693v-3.233zm2.601 1.117c.009 1.341.531 1.62 1.026 1.62.306 0 .549-.072.72-.162l.117.504c-.243.136-.612.207-.963.207-1.035 0-1.576-.846-1.576-2.188 0-1.413.594-2.296 1.468-2.296.882 0 1.242.937 1.242 1.918 0 .171-.009.288-.018.396h-2.016zm1.368-.513c.009-.873-.315-1.261-.648-1.261-.45 0-.684.667-.711 1.261h1.359zm3.708 1.638c0 .333 0 .711.045.99h-.621l-.045-.459h-.027c-.189.333-.495.531-.864.531-.585 0-1.036-.486-1.036-1.242 0-1.099.874-1.576 1.855-1.585v-.135c0-.585-.145-.99-.693-.99-.27 0-.513.081-.72.225l-.153-.486c.189-.135.585-.288 1.018-.288.873 0 1.242.576 1.242 1.549v1.89zm-.675-1.269c-.36 0-1.197.072-1.197 1.018 0 .576.288.774.531.774.306 0 .558-.226.639-.657a1.2 1.2 0 0 0 .027-.252v-.883zm1.656-.973c0-.513-.027-.773-.036-1.125h.612l.036.531h.018c.189-.351.513-.604.972-.604.405 0 .756.189.918.657h.018a1.46 1.46 0 0 1 .423-.495c.18-.107.378-.162.603-.162.594 0 1.053.424 1.053 1.54v2.89h-.693v-2.737c0-.566-.081-1.116-.603-1.116-.288 0-.54.243-.639.657-.027.108-.027.243-.027.388v2.809h-.693v-2.863c0-.477-.081-.99-.594-.99-.288 0-.567.243-.648.712a2.27 2.27 0 0 0-.027.369v2.772h-.693v-3.233zm8.199-1.917h-.018l-.972.558-.135-.54 1.233-.72h.567v5.852h-.675v-5.15z"/><path fill="#fff" fill-rule="evenodd" d="M3.38 182.007h273.124v14.742H3.38z" clip-rule="evenodd"/><path fill="none" stroke="#000" d="M3.38 182.007h273.124v14.742H3.38z" stroke-linecap="round" stroke-linejoin="round"/><path fill="#feefdd" fill-rule="evenodd" d="M3.38 196.749h273.124v27.802H3.38z" clip-rule="evenodd"/><path fill="none" stroke="#000" d="M3.38 196.749h273.124v27.802H3.38z" stroke-linecap="round" stroke-linejoin="round"/><path d="M7.554 191.117c.207.126.567.242.873.242.63 0 1.008-.414 1.008-1.026 0-.558-.324-.899-.801-1.26-.477-.333-1.143-.9-1.143-1.684 0-.918.648-1.594 1.602-1.594.378 0 .711.126.855.226l-.171.594a1.276 1.276 0 0 0-.72-.207c-.594 0-.874.45-.874.864 0 .604.315.847.892 1.252.729.513 1.053 1.071 1.053 1.746 0 1.044-.738 1.701-1.702 1.701-.414 0-.855-.135-1.026-.27l.154-.584zm4.14-4.574v1.018h.837v.522h-.837v2.593c0 .576.198.72.45.72.117 0 .207-.009.279-.026l.036.531a1.522 1.522 0 0 1-.513.071c-.279 0-.522-.071-.684-.261-.18-.198-.261-.495-.261-1.099v-2.529h-.531v-.522h.531v-.738l.693-.28zm1.439 2.143c0-.368-.027-.801-.036-1.125h.622l.036.685h.018c.144-.414.513-.757.918-.757.054 0 .099 0 .144.01v.711c-.045-.009-.09-.009-.144-.009-.441 0-.765.404-.837.909a2.566 2.566 0 0 0-.027.396v2.413h-.693v-3.233zm2.601 1.117c.009 1.341.531 1.62 1.026 1.62.306 0 .549-.072.72-.162l.117.504c-.243.136-.612.207-.963.207-1.035 0-1.576-.846-1.576-2.188 0-1.413.594-2.296 1.468-2.296.882 0 1.242.937 1.242 1.918 0 .171-.009.288-.018.396h-2.016zm1.369-.514c.009-.873-.315-1.261-.648-1.261-.45 0-.684.667-.711 1.261h1.359zm3.708 1.639c0 .333 0 .711.045.99h-.621l-.045-.459h-.027c-.189.333-.495.531-.864.531-.585 0-1.036-.486-1.036-1.242 0-1.099.874-1.576 1.855-1.585v-.135c0-.585-.145-.99-.693-.99-.27 0-.513.081-.72.225l-.153-.486c.189-.135.585-.288 1.018-.288.873 0 1.242.576 1.242 1.549v1.89zm-.675-1.27c-.36 0-1.197.072-1.197 1.018 0 .576.288.774.531.774.306 0 .558-.226.639-.657a1.2 1.2 0 0 0 .027-.252v-.883zm1.656-.972c0-.513-.027-.773-.036-1.125h.612l.036.531h.018c.189-.351.513-.604.972-.604.405 0 .756.189.918.657h.018a1.46 1.46 0 0 1 .423-.495c.18-.107.378-.162.603-.162.594 0 1.053.424 1.053 1.54v2.89h-.693v-2.737c0-.566-.081-1.116-.603-1.116-.288 0-.54.243-.639.657-.027.108-.027.243-.027.388v2.809h-.693v-2.863c0-.477-.081-.99-.594-.99-.288 0-.567.243-.648.712a2.27 2.27 0 0 0-.027.369v2.772h-.693v-3.233zm7.055 3.232v-6.067h.648l1.116 2.845c.252.657.567 1.458.774 2.115h.018a45.668 45.668 0 0 1-.081-2.791v-2.169h.621v6.067h-.648l-1.152-2.917a19.439 19.439 0 0 1-.729-2.062h-.018c.054.811.072 1.585.072 2.881v2.098h-.621zm110.41-6.79c0-.499.37-.869.77-.869.419 0 .759.33.759.869 0 .53-.31.87-.77.87-.409 0-.759-.34-.759-.87zm0 4c0-.499.37-.869.77-.869.419 0 .759.33.759.869 0 .53-.31.87-.77.87-.409 0-.759-.34-.759-.87zm0 4c0-.499.37-.869.77-.869.419 0 .759.33.759.869 0 .53-.31.87-.77.87-.409 0-.759-.34-.759-.87zm2.483-163.142a3.952 3.952 0 0 1 1-.117c.603 0 1.053.126 1.368.432.297.307.423.712.423 1.188 0 .774-.36 1.278-.972 1.566v.019c.45.135.684.567.81 1.359.144.828.261 1.341.351 1.53h-.702c-.09-.18-.207-.756-.324-1.494-.135-.838-.396-1.144-.99-1.144h-.27v2.638h-.693v-5.977zm.694 2.8h.288c.666 0 1.107-.486 1.107-1.216 0-.693-.288-1.134-1.036-1.144-.135 0-.27.01-.36.036v2.324zm3.42 1.062c.009 1.341.531 1.62 1.026 1.62.306 0 .549-.072.72-.162l.117.504c-.243.136-.612.207-.963.207-1.035 0-1.576-.846-1.576-2.188 0-1.413.594-2.296 1.468-2.296.882 0 1.242.937 1.242 1.918 0 .171-.009.288-.018.396h-2.016zm1.368-.514c.009-.873-.315-1.261-.648-1.261-.45 0-.684.667-.711 1.261h1.359zm3.348 2.179h-.027a.923.923 0 0 1-.837.522c-.702 0-1.261-.766-1.261-2.197 0-1.539.64-2.305 1.369-2.305.27 0 .603.126.81.576l.018.01.036-.514h.621c-.009.297-.036.693-.036 1.359v4.727h-.693v-2.178zm0-2.277c0-.09 0-.207-.018-.288-.054-.459-.324-.819-.639-.819-.567 0-.774.756-.774 1.674 0 .919.225 1.657.765 1.657.207 0 .486-.126.63-.721.036-.117.036-.252.036-.378v-1.125zm4.265 1.539c0 .478.027.864.036 1.188h-.603l-.054-.459h-.018c-.126.216-.459.531-.927.531-.756 0-1.062-.595-1.062-1.675v-2.755h.693v2.656c0 .675.108 1.188.585 1.188.405 0 .585-.379.621-.586.027-.117.036-.243.036-.387v-2.872h.693v3.171zm1.458-.927c.009 1.341.531 1.62 1.026 1.62.306 0 .549-.072.72-.162l.117.504c-.243.136-.612.207-.963.207-1.035 0-1.576-.846-1.576-2.188 0-1.413.594-2.296 1.468-2.296.882 0 1.242.937 1.242 1.918 0 .171-.009.288-.018.396h-2.016zm1.369-.514c.009-.873-.315-1.261-.648-1.261-.45 0-.684.667-.711 1.261h1.359zm1.295 1.91c.153.099.423.225.702.225.387 0 .639-.243.639-.63 0-.333-.117-.567-.558-.855-.567-.369-.873-.747-.873-1.242 0-.712.522-1.207 1.197-1.207.342 0 .594.108.774.226l-.18.522a.994.994 0 0 0-.585-.198c-.369 0-.558.27-.558.558s.108.459.54.747c.504.324.9.729.9 1.333 0 .873-.594 1.296-1.314 1.296-.315 0-.666-.099-.855-.252l.171-.523zm3.565-4.656v1.018h.837v.522h-.837v2.593c0 .576.198.72.45.72.117 0 .207-.009.279-.026l.036.531a1.522 1.522 0 0 1-.513.071c-.279 0-.522-.071-.684-.261-.18-.198-.261-.495-.261-1.099v-2.529h-.531v-.522h.531v-.738l.693-.28zm2.861 2.143c0-.513-.027-.773-.036-1.125h.612l.036.531h.018c.189-.351.513-.604.972-.604.405 0 .757.189.919.657h.018c.117-.216.27-.387.424-.495.18-.107.377-.162.603-.162.595 0 1.054.424 1.054 1.54v2.89h-.693v-2.737c0-.566-.082-1.116-.604-1.116-.288 0-.54.243-.639.657-.027.108-.027.243-.027.388v2.809h-.693V33.1c0-.477-.081-.99-.594-.99-.288 0-.567.243-.648.712a2.27 2.27 0 0 0-.027.369v2.772h-.693v-3.232zm6.066 1.117c.01 1.341.531 1.62 1.026 1.62.306 0 .55-.072.72-.162l.117.504c-.242.136-.611.207-.963.207-1.035 0-1.576-.846-1.576-2.188 0-1.413.595-2.296 1.469-2.296.882 0 1.242.937 1.242 1.918 0 .171-.01.288-.019.396h-2.016zm1.369-.514c.008-.873-.316-1.261-.648-1.261-.451 0-.685.667-.711 1.261h1.359zm1.295 1.91c.152.099.423.225.702.225.388 0 .64-.243.64-.63 0-.333-.117-.567-.559-.855-.567-.369-.873-.747-.873-1.242 0-.712.521-1.207 1.197-1.207.342 0 .594.108.773.226l-.18.522a.994.994 0 0 0-.585-.198c-.369 0-.558.27-.558.558s.107.459.539.747c.505.324.9.729.9 1.333 0 .873-.594 1.296-1.314 1.296-.314 0-.666-.099-.854-.252l.172-.523zm2.6 0c.153.099.423.225.702.225.387 0 .639-.243.639-.63 0-.333-.117-.567-.558-.855-.567-.369-.873-.747-.873-1.242 0-.712.522-1.207 1.197-1.207.342 0 .595.108.774.226l-.18.522a1 1 0 0 0-.586-.198c-.369 0-.559.27-.559.558s.108.459.541.747c.504.324.9.729.9 1.333 0 .873-.595 1.296-1.314 1.296-.315 0-.666-.099-.855-.252l.172-.523zm5.014-.271c0 .333 0 .711.045.99h-.621l-.045-.459h-.026c-.189.333-.496.531-.865.531-.585 0-1.035-.486-1.035-1.242 0-1.099.873-1.576 1.854-1.585v-.135c0-.585-.144-.99-.692-.99-.271 0-.514.081-.721.225l-.153-.486c.189-.135.585-.288 1.018-.288.873 0 1.242.576 1.242 1.549v1.89zm-.675-1.269c-.36 0-1.197.072-1.197 1.018 0 .576.287.774.531.774.306 0 .558-.226.639-.657a1.2 1.2 0 0 0 .027-.252v-.883zm4.283 1.701c0 1.144-.144 1.576-.432 1.9-.27.288-.675.459-1.161.459-.369 0-.729-.09-.954-.216l.162-.541c.171.091.459.189.801.189.549 0 .892-.342.892-1.332v-.441h-.019a.873.873 0 0 1-.828.531c-.773 0-1.278-.873-1.278-2.152 0-1.611.72-2.269 1.368-2.269.459 0 .676.307.811.559h.018l.037-.486h.621c-.01.297-.037.685-.037 1.359v2.44zm-.692-2.295c0-.117-.009-.226-.036-.324-.072-.288-.234-.657-.631-.657-.494 0-.765.675-.765 1.639 0 1.116.351 1.62.765 1.62.217 0 .486-.099.622-.621.045-.135.045-.271.045-.396V33.11zm2.142.738c.009 1.341.531 1.62 1.025 1.62.307 0 .55-.072.721-.162l.117.504c-.243.136-.612.207-.963.207-1.035 0-1.576-.846-1.576-2.188 0-1.413.594-2.296 1.468-2.296.882 0 1.242.937 1.242 1.918 0 .171-.009.288-.019.396h-2.015zm1.368-.514c.009-.873-.315-1.261-.648-1.261-.45 0-.685.667-.711 1.261h1.359zM24.316 98.92a3.952 3.952 0 0 1 1-.117c.603 0 1.053.126 1.368.432.297.307.423.712.423 1.188 0 .774-.36 1.278-.972 1.566v.019c.45.135.684.567.81 1.359.144.828.261 1.341.351 1.53h-.702c-.09-.18-.207-.756-.324-1.494-.135-.838-.396-1.144-.99-1.144h-.27v2.638h-.693V98.92zm.694 2.8h.288c.666 0 1.107-.486 1.107-1.216 0-.693-.288-1.134-1.036-1.144-.135 0-.27.01-.36.036v2.324zm3.42 1.062c.009 1.341.531 1.62 1.026 1.62.306 0 .549-.072.72-.162l.117.504c-.243.136-.612.207-.963.207-1.035 0-1.576-.846-1.576-2.188 0-1.413.594-2.296 1.468-2.296.882 0 1.242.937 1.242 1.918 0 .171-.009.288-.018.396H28.43zm1.368-.513c.009-.873-.315-1.261-.648-1.261-.45 0-.684.667-.711 1.261h1.359zm1.295 1.909c.153.099.423.225.702.225.387 0 .639-.243.639-.63 0-.333-.117-.567-.558-.855-.567-.369-.873-.747-.873-1.242 0-.712.522-1.207 1.197-1.207.342 0 .594.108.774.226l-.18.522a.994.994 0 0 0-.585-.198c-.369 0-.558.27-.558.558s.108.459.54.747c.504.324.9.729.9 1.333 0 .873-.594 1.296-1.314 1.296-.315 0-.666-.099-.855-.252l.171-.523zm2.709-2.279c0-.666-.027-1.053-.036-1.359h.622l.036.549h.018c.234-.459.585-.621.918-.621.765 0 1.26.802 1.26 2.242 0 1.62-.666 2.26-1.341 2.26-.414 0-.648-.252-.765-.495h-.018v2.151h-.693v-4.727zm.694 1.405c0 .126.009.252.036.36.135.621.441.729.63.729.576 0 .765-.792.765-1.666 0-.909-.216-1.665-.765-1.665-.315 0-.603.396-.639.792-.027.108-.027.216-.027.333v1.117zm4.131 1.666c-.783 0-1.414-.712-1.414-2.242 0-1.593.711-2.26 1.458-2.26.783 0 1.405.721 1.405 2.242 0 1.692-.774 2.26-1.44 2.26h-.009zm.036-.55c.594 0 .72-1.017.72-1.701 0-.675-.126-1.701-.738-1.701-.621 0-.738 1.026-.738 1.701 0 .721.126 1.701.747 1.701h.009zm2.186-2.755c0-.513-.027-.773-.036-1.125h.603l.036.522h.018c.189-.352.54-.595.999-.595.604 0 1.054.441 1.054 1.504v2.926h-.693v-2.809c0-.522-.099-1.035-.603-1.035-.288 0-.567.243-.648.711a1.57 1.57 0 0 0-.036.387v2.746h-.693v-3.232zm3.528 2.513c.153.099.423.225.702.225.387 0 .639-.243.639-.63 0-.333-.117-.567-.558-.855-.567-.369-.873-.747-.873-1.242 0-.712.522-1.207 1.197-1.207.342 0 .594.108.774.226l-.18.522a.994.994 0 0 0-.585-.198c-.369 0-.558.27-.558.558s.108.459.54.747c.504.324.9.729.9 1.333 0 .873-.594 1.296-1.314 1.296-.315 0-.666-.099-.855-.252l.171-.523zm3.204-1.396c.009 1.341.531 1.62 1.026 1.62.306 0 .549-.072.72-.162l.117.504c-.243.136-.612.207-.963.207-1.035 0-1.576-.846-1.576-2.188 0-1.413.594-2.296 1.468-2.296.882 0 1.242.937 1.242 1.918 0 .171-.009.288-.018.396h-2.016zm1.369-.513c.009-.873-.315-1.261-.648-1.261-.45 0-.684.667-.711 1.261h1.359zm2.825-.604c0-.513-.027-.773-.036-1.125h.612l.036.531h.018c.189-.351.513-.604.973-.604.405 0 .756.189.918.657h.018a1.46 1.46 0 0 1 .423-.495c.18-.107.378-.162.603-.162.594 0 1.053.424 1.053 1.54v2.89H55.7v-2.737c0-.566-.081-1.116-.603-1.116-.288 0-.54.243-.639.657-.027.108-.027.243-.027.388v2.809h-.693v-2.863c0-.477-.081-.99-.594-.99-.288 0-.567.243-.648.712a2.27 2.27 0 0 0-.027.369v2.772h-.693v-3.233zm6.066 1.117c.009 1.341.531 1.62 1.026 1.62.306 0 .549-.072.72-.162l.117.504c-.243.136-.612.207-.963.207-1.035 0-1.576-.846-1.576-2.188 0-1.413.594-2.296 1.468-2.296.882 0 1.242.937 1.242 1.918 0 .171-.009.288-.018.396h-2.016zm1.369-.513c.009-.873-.315-1.261-.648-1.261-.45 0-.684.667-.711 1.261h1.359zm1.295 1.909c.153.099.423.225.702.225.387 0 .639-.243.639-.63 0-.333-.117-.567-.558-.855-.567-.369-.873-.747-.873-1.242 0-.712.522-1.207 1.197-1.207.342 0 .594.108.774.226l-.18.522a.994.994 0 0 0-.585-.198c-.369 0-.558.27-.558.558s.108.459.54.747c.504.324.9.729.9 1.333 0 .873-.594 1.296-1.314 1.296-.315 0-.666-.099-.855-.252l.171-.523zm2.601 0c.153.099.423.225.702.225.387 0 .639-.243.639-.63 0-.333-.117-.567-.558-.855-.567-.369-.873-.747-.873-1.242 0-.712.522-1.207 1.197-1.207.342 0 .594.108.774.226l-.18.522a.994.994 0 0 0-.585-.198c-.369 0-.558.27-.558.558s.108.459.54.747c.504.324.9.729.9 1.333 0 .873-.594 1.296-1.314 1.296-.315 0-.666-.099-.855-.252l.171-.523zm5.013-.271c0 .333 0 .711.045.99h-.621l-.045-.459h-.027c-.189.333-.495.531-.864.531-.585 0-1.036-.486-1.036-1.242 0-1.099.874-1.576 1.855-1.585v-.135c0-.585-.145-.99-.693-.99-.27 0-.513.081-.72.225l-.153-.486c.189-.135.585-.288 1.018-.288.873 0 1.242.576 1.242 1.549v1.89zm-.675-1.269c-.36 0-1.197.072-1.197 1.018 0 .576.288.774.531.774.306 0 .558-.226.639-.657a1.2 1.2 0 0 0 .027-.252v-.883zm4.284 1.701c0 1.144-.144 1.576-.432 1.9-.27.288-.675.459-1.161.459-.369 0-.729-.09-.954-.216l.162-.541c.171.091.459.189.801.189.549 0 .892-.342.892-1.332v-.441h-.018a.873.873 0 0 1-.828.531c-.774 0-1.279-.873-1.279-2.152 0-1.611.72-2.269 1.369-2.269.459 0 .675.307.81.559h.018l.036-.486h.621c-.009.297-.036.685-.036 1.359v2.44zm-.693-2.295c0-.117-.009-.226-.036-.324-.072-.288-.234-.657-.63-.657-.495 0-.765.675-.765 1.639 0 1.116.351 1.62.765 1.62.216 0 .486-.099.621-.621.045-.135.045-.271.045-.396v-1.261zm2.141.738c.009 1.341.531 1.62 1.026 1.62.306 0 .549-.072.72-.162l.117.504c-.243.136-.612.207-.963.207-1.035 0-1.576-.846-1.576-2.188 0-1.413.594-2.296 1.468-2.296.882 0 1.242.937 1.242 1.918 0 .171-.009.288-.018.396h-2.016zm1.369-.513c.009-.873-.315-1.261-.648-1.261-.45 0-.684.667-.711 1.261h1.359z"/><path fill="#b2dec7" fill-rule="evenodd" stroke="#000" d="M137.442 38.898h113.517v65.999H137.442zM23.776 109.347h227.182v68H23.776z" clip-rule="evenodd" stroke-linecap="round" stroke-linejoin="round"/><path d="M142.434 41.426v2.602h1.702v-2.602h.693v6.067h-.693v-2.836h-1.702v2.836h-.693v-6.067h.693zm5.688 3.187h-1.521v2.277h1.729v.604h-2.422v-6.067h2.314v.603h-1.621v1.999h1.521v.584zm1.701 1.062l-.396 1.818h-.675l1.386-6.067h.765l1.351 6.067h-.684l-.396-1.818h-1.351zm1.251-.558l-.315-1.539c-.09-.433-.171-.937-.243-1.387h-.027c-.072.459-.162.981-.252 1.396l-.315 1.53h1.152zm1.934-3.601c.261-.081.585-.117.937-.117.63 0 1.089.162 1.422.459.468.405.819 1.188.819 2.458 0 1.386-.342 2.143-.729 2.565-.396.441-.981.648-1.674.648-.279 0-.576-.019-.774-.063v-5.95zm.694 5.419c.099.019.198.019.261.019.765 0 1.503-.549 1.503-2.62 0-1.53-.468-2.367-1.44-2.367-.108 0-.234.009-.324.036v4.932zm5.526-2.322h-1.521v2.277h1.729v.604h-2.422v-6.067h2.314v.603h-1.621v1.999h1.521v.584zm.971-3.097a3.952 3.952 0 0 1 1-.117c.603 0 1.053.126 1.368.432.297.307.423.712.423 1.188 0 .774-.36 1.278-.972 1.566v.019c.45.135.684.567.81 1.359.144.828.261 1.341.351 1.53h-.702c-.09-.18-.207-.756-.324-1.494-.135-.838-.396-1.144-.99-1.144h-.27v2.638h-.693v-5.977zm.693 2.8h.288c.666 0 1.107-.486 1.107-1.216 0-.693-.288-1.134-1.036-1.144-.135 0-.27.01-.36.036v2.324zm2.853 2.377c.207.126.567.242.873.242.63 0 1.008-.414 1.008-1.026 0-.558-.324-.899-.801-1.26-.477-.333-1.143-.9-1.143-1.684 0-.918.648-1.594 1.603-1.594.378 0 .711.126.855.226l-.171.594a1.276 1.276 0 0 0-.72-.207c-.594 0-.874.45-.874.864 0 .604.315.847.892 1.252.729.513 1.053 1.071 1.053 1.746 0 1.044-.738 1.701-1.702 1.701-.414 0-.855-.135-1.026-.27l.153-.584zm4.887.801v-3.835h-.549v-.522h.549v-.27c0-.469.072-.955.387-1.306a1.18 1.18 0 0 1 .873-.369c.234 0 .414.045.541.107l-.108.541a.984.984 0 0 0-.388-.072c-.494 0-.611.531-.611 1.089v.279h.792v.522h-.792v3.835h-.694zm1.899-3.233c0-.368-.027-.801-.036-1.125h.622l.035.685h.018c.145-.414.514-.757.919-.757.054 0 .099 0 .144.01v.711c-.045-.009-.09-.009-.144-.009-.441 0-.765.404-.837.909a2.447 2.447 0 0 0-.027.396v2.413h-.693v-3.233zm4.482 2.242c0 .333 0 .711.045.99h-.621l-.045-.459h-.027c-.188.333-.494.531-.863.531-.586 0-1.036-.486-1.036-1.242 0-1.099.874-1.576 1.854-1.585v-.135c0-.585-.144-.99-.693-.99-.27 0-.513.081-.72.225l-.153-.486c.189-.135.586-.288 1.018-.288.873 0 1.242.576 1.242 1.549v1.89zm-.676-1.269c-.359 0-1.197.072-1.197 1.018 0 .576.289.774.531.774.307 0 .559-.226.64-.657.019-.081.026-.171.026-.252v-.883zm1.657-.973c0-.513-.027-.773-.035-1.125h.611l.036.531h.019c.188-.351.513-.604.972-.604.405 0 .757.189.919.657h.018c.117-.216.27-.387.424-.495.18-.107.377-.162.603-.162.595 0 1.054.424 1.054 1.54v2.89h-.693v-2.737c0-.566-.082-1.116-.604-1.116-.288 0-.54.243-.639.657-.027.108-.027.243-.027.388v2.809h-.693V44.63c0-.477-.081-.99-.594-.99-.289 0-.567.243-.648.712a2.27 2.27 0 0 0-.027.369v2.772h-.693v-3.232zm6.066 1.117c.009 1.341.531 1.62 1.025 1.62.307 0 .55-.072.721-.162l.117.504c-.243.136-.612.207-.963.207-1.035 0-1.576-.846-1.576-2.188 0-1.413.594-2.296 1.468-2.296.882 0 1.242.937 1.242 1.918 0 .171-.009.288-.019.396h-2.015zm1.368-.513c.009-.873-.315-1.261-.648-1.261-.45 0-.685.667-.711 1.261h1.359zm4.392-3.601c-.513.81-.936 2.025-.936 3.664 0 1.611.423 2.826.936 3.646h-.54c-.468-.684-.981-1.891-.981-3.655.019-1.764.514-2.979.981-3.654h.54zm.594 5.51c.152.099.423.225.702.225.388 0 .64-.243.64-.63 0-.333-.117-.567-.559-.855-.567-.369-.873-.747-.873-1.242 0-.712.521-1.207 1.197-1.207.342 0 .594.108.773.226l-.18.522a.994.994 0 0 0-.585-.198c-.369 0-.558.27-.558.558s.107.459.539.747c.505.324.9.729.9 1.333 0 .873-.594 1.296-1.314 1.296-.314 0-.666-.099-.854-.252l.172-.523zm3.564-4.655v1.018h.836v.522h-.836v2.593c0 .576.197.72.449.72.117 0 .207-.009.279-.026l.036.531a1.522 1.522 0 0 1-.513.071c-.279 0-.522-.071-.685-.261-.181-.198-.261-.495-.261-1.099v-2.529h-.531v-.522h.531v-.738l.695-.28zm1.44 2.142c0-.368-.027-.801-.037-1.125h.622l.036.685h.018c.145-.414.514-.757.918-.757.055 0 .1 0 .145.01v.711c-.045-.009-.09-.009-.145-.009-.441 0-.765.404-.837.909a2.456 2.456 0 0 0-.026.396v2.413h-.693v-3.233zm2.6 1.117c.009 1.341.531 1.62 1.026 1.62.307 0 .549-.072.721-.162l.117.504c-.244.136-.613.207-.964.207-1.035 0-1.575-.846-1.575-2.188 0-1.413.594-2.296 1.467-2.296.883 0 1.242.937 1.242 1.918 0 .171-.008.288-.018.396h-2.016zm1.368-.513c.01-.873-.314-1.261-.648-1.261-.449 0-.684.667-.711 1.261h1.359zm3.709 1.638c0 .333 0 .711.045.99h-.621l-.045-.459h-.027c-.189.333-.495.531-.864.531-.585 0-1.036-.486-1.036-1.242 0-1.099.874-1.576 1.855-1.585v-.135c0-.585-.145-.99-.693-.99-.27 0-.514.081-.721.225l-.152-.486c.189-.135.585-.288 1.018-.288.873 0 1.242.576 1.242 1.549v1.89zm-.676-1.269c-.359 0-1.197.072-1.197 1.018 0 .576.288.774.531.774.307 0 .559-.226.639-.657.019-.081.027-.171.027-.252v-.883zm1.657-.973c0-.513-.027-.773-.037-1.125h.613l.035.531h.018c.189-.351.514-.604.973-.604.405 0 .756.189.918.657h.019c.117-.216.271-.387.423-.495.18-.107.379-.162.604-.162.594 0 1.053.424 1.053 1.54v2.89H206v-2.737c0-.566-.08-1.116-.603-1.116-.288 0-.54.243-.64.657-.026.108-.026.243-.026.388v2.809h-.693V44.63c0-.477-.081-.99-.595-.99-.287 0-.566.243-.647.712a2.163 2.163 0 0 0-.027.369v2.772h-.692v-3.232zm8.199-1.917h-.019l-.972.558-.135-.54 1.232-.72h.567v5.852h-.675v-5.15zm1.997 6.23c.513-.81.937-2.043.937-3.664 0-1.62-.424-2.836-.937-3.646h.54c.469.666.981 1.863.981 3.646-.019 1.783-.513 2.971-.981 3.664h-.54z"/><path fill="#b2d4eb" fill-rule="evenodd" d="M141.201 51.45h104.703v48.888H141.201z" clip-rule="evenodd"/><path fill="none" stroke="#000" d="M141.201 51.45h104.703v48.888H141.201z" stroke-linecap="round" stroke-linejoin="round"/><path d="M184.767 59.409a3.061 3.061 0 0 1-1.071.207c-.531 0-1.026-.144-1.432-.585-.441-.468-.738-1.306-.729-2.422.009-2.367 1.216-3.169 2.287-3.169.378 0 .675.072.855.171l-.153.595c-.162-.081-.369-.145-.693-.145-.756 0-1.575.604-1.575 2.485 0 1.872.711 2.476 1.44 2.476.233 0 .369-.036.423-.072v-1.98h-.783v-.576h1.432v3.015zm3.158-2.727h-1.521v2.277h1.729v.604h-2.422v-6.067h2.314v.603h-1.621v1.999h1.521v.584zm1.683-2.566h-1.107v-.621h2.908v.621h-1.107v5.446h-.693v-5.446zm-8.289 14.807l1.936-6.5h.522l-1.936 6.5h-.522zm3.266-5.393c-.225 0-.396-.181-.396-.45 0-.271.18-.45.405-.45.252 0 .414.18.414.45s-.162.45-.414.45h-.009zm-.323 5.032v-4.357h.692v4.357h-.692zm1.657-3.232c0-.513-.027-.773-.036-1.125h.603l.036.522h.019c.188-.352.54-.595.999-.595.604 0 1.054.441 1.054 1.504v2.926h-.693v-2.809c0-.522-.1-1.035-.604-1.035-.288 0-.567.243-.648.711a1.62 1.62 0 0 0-.036.387v2.746h-.692V65.33zm6.272-2.997v5.186c0 .297.027.792.036 1.044h-.594l-.045-.54h-.036c-.135.306-.45.612-.909.612-.738 0-1.27-.792-1.27-2.233 0-1.548.64-2.269 1.314-2.269.315 0 .621.145.792.514h.019v-2.313h.693zm-.692 3.528c0-.09 0-.188-.01-.288-.035-.45-.314-.846-.647-.846-.576 0-.774.801-.774 1.674 0 .919.234 1.657.738 1.657.216 0 .513-.117.666-.747.027-.081.027-.181.027-.288v-1.162zm2.141.586c.009 1.341.531 1.62 1.026 1.62.306 0 .549-.072.72-.162l.117.504c-.243.136-.612.207-.963.207-1.035 0-1.576-.846-1.576-2.188 0-1.413.595-2.296 1.468-2.296.883 0 1.242.937 1.242 1.918 0 .171-.009.288-.018.396h-2.016zm1.368-.513c.009-.873-.315-1.261-.648-1.261-.45 0-.684.667-.711 1.261h1.359zm1.737-1.729l.405.928c.107.252.198.504.288.765h.018c.1-.279.198-.531.297-.765l.388-.928h.711l-1.035 2.143 1.026 2.215h-.756l-.414-.981c-.1-.234-.181-.459-.288-.747h-.019c-.09.261-.189.504-.288.747l-.396.981h-.711l1.035-2.188-.999-2.17h.738zm3.078 4.43c-.252 0-.45-.207-.45-.522 0-.306.207-.522.459-.522.271 0 .459.207.459.522s-.171.522-.459.522h-.009zm1.341-6.302h.693v2.34h.018a1.31 1.31 0 0 1 .369-.387c.153-.099.333-.153.576-.153.55 0 1.018.433 1.018 1.54v2.89h-.693v-2.809c0-.54-.117-1.035-.585-1.035-.324 0-.567.233-.675.692a1.88 1.88 0 0 0-.027.324v2.827h-.693v-6.229zm4.437.854v1.018h.837v.522h-.837v2.593c0 .576.197.72.45.72.116 0 .207-.009.278-.026l.036.531a1.522 1.522 0 0 1-.513.071c-.279 0-.522-.071-.685-.261-.18-.198-.261-.495-.261-1.099v-2.529h-.531v-.522h.531v-.738l.695-.28zm1.448 2.143c0-.513-.027-.773-.036-1.125h.612l.036.531h.018c.189-.351.514-.604.973-.604.405 0 .756.189.918.657h.019a1.46 1.46 0 0 1 .423-.495c.18-.107.378-.162.604-.162.594 0 1.053.424 1.053 1.54v2.89h-.693v-2.737c0-.566-.081-1.116-.603-1.116-.288 0-.54.243-.64.657-.026.108-.026.243-.026.388v2.809h-.693V65.7c0-.477-.081-.99-.595-.99-.288 0-.566.243-.647.712a2.163 2.163 0 0 0-.027.369v2.772h-.693V65.33zm5.58-2.997h.693v6.229h-.693v-6.229zm-30.149 9.162v2.602h1.702v-2.602h.692v6.067h-.692v-2.836h-1.702v2.836h-.693v-6.067h.693zm4.186.621h-1.107v-.621h2.907v.621h-1.106v5.446h-.693v-5.446zm3.284 0h-1.107v-.621h2.908v.621h-1.107v5.446h-.693v-5.446zm2.474-.531a3.984 3.984 0 0 1 1.009-.117c.558 0 1.035.135 1.351.441.288.288.44.729.44 1.26 0 .559-.135.937-.369 1.242-.323.45-.891.676-1.431.676-.117 0-.207 0-.307-.009v2.484h-.693v-5.977zm.694 2.917c.081.009.162.018.279.018.675 0 1.135-.45 1.135-1.306 0-.621-.253-1.179-1.026-1.179a1.43 1.43 0 0 0-.388.045v2.422zm2.429 3.421l1.936-6.5h.522l-1.936 6.5h-.522zm2.746-.361v-.45l.486-.666c.702-.973 1.521-2.07 1.521-3.169 0-.648-.279-1.044-.829-1.044-.423 0-.702.225-.846.323l-.171-.521a1.831 1.831 0 0 1 1.143-.396c.973 0 1.396.721 1.396 1.603 0 1.099-.72 2.17-1.449 3.151l-.387.54v.018h1.944v.612h-2.808zm4.067.073c-.252 0-.45-.207-.45-.522 0-.306.208-.522.46-.522.27 0 .459.207.459.522s-.171.522-.459.522h-.01zm2.557 0c-.909 0-1.458-1.081-1.458-2.989 0-1.972.585-3.007 1.539-3.007.945 0 1.44 1.125 1.44 2.989 0 2.134-.675 3.007-1.513 3.007h-.008zm.044-.595c.559 0 .783-.999.783-2.403 0-1.368-.225-2.403-.783-2.403-.567 0-.81.99-.81 2.403-.01 1.413.233 2.403.801 2.403h.009zm-23.228 3.293h.693v2.34h.018a1.31 1.31 0 0 1 .369-.387c.153-.099.333-.153.576-.153.55 0 1.018.433 1.018 1.54v2.89h-.693v-2.809c0-.54-.117-1.035-.585-1.035-.324 0-.567.233-.675.692a1.88 1.88 0 0 0-.027.324v2.827h-.693v-6.229zm4.437.854v1.018h.837v.522h-.837v2.593c0 .576.197.72.45.72.116 0 .207-.009.278-.026l.036.531a1.522 1.522 0 0 1-.513.071c-.279 0-.522-.071-.685-.261-.18-.198-.261-.495-.261-1.099v-2.529h-.531v-.522h.531v-.738l.695-.28zm2.295 0v1.018h.837v.522h-.837v2.593c0 .576.197.72.45.72.116 0 .207-.009.278-.026l.036.531a1.522 1.522 0 0 1-.513.071c-.279 0-.522-.071-.685-.261-.18-.198-.261-.495-.261-1.099v-2.529h-.531v-.522h.531v-.738l.695-.28zm1.44 2.377c0-.666-.027-1.053-.036-1.359h.621l.036.549h.018c.234-.459.586-.621.919-.621.765 0 1.26.802 1.26 2.242 0 1.62-.666 2.26-1.341 2.26-.414 0-.648-.252-.766-.495h-.018v2.151h-.693v-4.727zm.693 1.405c0 .126.009.252.036.36.135.621.44.729.63.729.576 0 .765-.792.765-1.666 0-.909-.216-1.665-.765-1.665-.315 0-.604.396-.64.792-.026.108-.026.216-.026.333v1.117zm2.789.874c.153.099.424.225.702.225.388 0 .64-.243.64-.63 0-.333-.117-.567-.559-.855-.567-.369-.873-.747-.873-1.242 0-.712.522-1.207 1.197-1.207.342 0 .595.108.774.226l-.18.522a1 1 0 0 0-.586-.198c-.369 0-.558.27-.558.558s.107.459.54.747c.504.324.9.729.9 1.333 0 .873-.595 1.296-1.314 1.296-.315 0-.666-.099-.855-.252l.172-.523zm-8.944 9.611c-.189.1-.495.162-.873.162-1.18 0-2.035-.945-2.035-3.007 0-2.403 1.188-3.169 2.152-3.169.359 0 .63.072.747.153l-.153.585c-.145-.062-.288-.126-.604-.126-.647 0-1.413.63-1.413 2.485 0 1.863.685 2.466 1.432 2.466a1.6 1.6 0 0 0 .63-.126l.117.577zm.647-6.121h.692v2.34h.019c.09-.152.225-.287.369-.387.153-.099.333-.153.576-.153.549 0 1.018.433 1.018 1.54v2.89h-.693v-2.809c0-.54-.117-1.035-.586-1.035-.323 0-.566.233-.675.692-.018.1-.027.226-.027.324v2.827h-.692v-6.229zm3.636 2.997c0-.368-.027-.801-.036-1.125h.621l.036.685h.018c.145-.414.514-.757.919-.757.054 0 .099 0 .144.01v.711c-.045-.009-.09-.009-.144-.009-.441 0-.766.404-.838.909a2.576 2.576 0 0 0-.026.396v2.413h-.693V92.33zm3.339 3.305c-.783 0-1.413-.712-1.413-2.242 0-1.593.711-2.26 1.458-2.26.783 0 1.405.721 1.405 2.242 0 1.692-.774 2.26-1.44 2.26h-.01zm.036-.55c.595 0 .721-1.017.721-1.701 0-.675-.126-1.701-.738-1.701-.621 0-.738 1.026-.738 1.701 0 .721.126 1.701.747 1.701h.008zm2.187-2.755c0-.513-.027-.773-.036-1.125h.612l.036.531h.018c.189-.351.514-.604.973-.604.405 0 .756.189.918.657h.019a1.46 1.46 0 0 1 .423-.495c.18-.107.378-.162.604-.162.594 0 1.053.424 1.053 1.54v2.89h-.693v-2.737c0-.566-.081-1.116-.603-1.116-.288 0-.54.243-.64.657-.026.108-.026.243-.026.388v2.809h-.693V92.7c0-.477-.081-.99-.595-.99-.288 0-.566.243-.647.712a2.163 2.163 0 0 0-.027.369v2.772h-.693V92.33zm6.066 1.117c.009 1.341.531 1.62 1.026 1.62.306 0 .549-.072.72-.162l.117.504c-.243.136-.612.207-.963.207-1.035 0-1.576-.846-1.576-2.188 0-1.413.595-2.296 1.468-2.296.883 0 1.242.937 1.242 1.918 0 .171-.009.288-.018.396h-2.016zm1.368-.513c.009-.873-.315-1.261-.648-1.261-.45 0-.684.667-.711 1.261h1.359zm.999 2.989l1.936-6.5h.521l-1.936 6.5h-.521zm2.744-.361v-.45l.486-.666c.702-.973 1.521-2.07 1.521-3.169 0-.648-.279-1.044-.828-1.044-.423 0-.702.225-.847.323l-.171-.521a1.832 1.832 0 0 1 1.144-.396c.973 0 1.396.721 1.396 1.603 0 1.099-.721 2.17-1.449 3.151l-.388.54v.018h1.945v.612h-2.809zm6.049-5.338c-.117 0-.252.019-.414.055-.973.242-1.359 1.215-1.504 2.115h.027c.226-.333.549-.559.99-.559.738 0 1.261.685 1.261 1.801 0 1.107-.504 1.999-1.44 1.999-1.026 0-1.54-1.035-1.54-2.386 0-1.135.298-2.008.757-2.638a2.389 2.389 0 0 1 1.422-.919c.181-.035.333-.045.441-.054v.586zm-1.071 4.871c.387 0 .738-.388.738-1.404 0-.883-.315-1.324-.783-1.324-.297 0-.595.189-.766.631-.018.054-.045.18-.045.351.009 1.197.369 1.747.847 1.747h.009zm2.556.54c-.252 0-.45-.207-.45-.522 0-.306.207-.522.459-.522.271 0 .459.207.459.522s-.171.522-.459.522h-.009zm2.556 0c-.909 0-1.459-1.081-1.459-2.989 0-1.972.585-3.007 1.54-3.007.945 0 1.44 1.125 1.44 2.989 0 2.134-.676 3.007-1.513 3.007h-.008zm.045-.595c.558 0 .783-.999.783-2.403 0-1.368-.226-2.403-.783-2.403-.567 0-.811.99-.811 2.403-.009 1.413.234 2.403.801 2.403h.01zm2.61.595c-.252 0-.45-.207-.45-.522 0-.306.207-.522.459-.522.271 0 .459.207.459.522s-.171.522-.459.522h-.009zm2.546-5.222h-.019l-.972.558-.135-.54 1.233-.72h.566v5.852h-.675v-5.15zm3.879 5.149v-1.62h-1.944v-.469l1.899-3.763h.676v3.664h.63v.567h-.63v1.62h-.631zm0-2.187v-1.647c0-.405.027-.766.055-1.152h-.036c-.198.468-.324.738-.495 1.098l-.811 1.684v.019h1.287zm3.051-2.962h-.018l-.973.558-.135-.54 1.233-.72h.567v5.852h-.676v-5.15zm3.475 5.222c-.909 0-1.459-1.081-1.459-2.989 0-1.972.585-3.007 1.54-3.007.945 0 1.44 1.125 1.44 2.989 0 2.134-.676 3.007-1.513 3.007h-.008zm.045-.595c.558 0 .783-.999.783-2.403 0-1.368-.226-2.403-.783-2.403-.567 0-.811.99-.811 2.403-.009 1.413.234 2.403.801 2.403h.01zm2.609.595c-.252 0-.45-.207-.45-.522 0-.306.207-.522.459-.522.271 0 .459.207.459.522s-.171.522-.459.522h-.009zm3.727-5.411c-.117 0-.252.019-.414.055-.973.242-1.359 1.215-1.504 2.115h.027c.226-.333.549-.559.99-.559.738 0 1.261.685 1.261 1.801 0 1.107-.504 1.999-1.44 1.999-1.026 0-1.54-1.035-1.54-2.386 0-1.135.298-2.008.757-2.638a2.389 2.389 0 0 1 1.422-.919c.181-.035.333-.045.441-.054v.586zm-1.072 4.871c.387 0 .738-.388.738-1.404 0-.883-.315-1.324-.783-1.324-.297 0-.595.189-.766.631-.018.054-.045.18-.045.351.009 1.197.369 1.747.847 1.747h.009zm4.662-4.772h-1.575l-.243 1.558c.072-.019.135-.019.216-.019.315 0 .811.145 1.116.441.315.306.495.738.495 1.332 0 1.171-.738 1.999-1.773 1.999-.36 0-.765-.1-.999-.252l.153-.55c.18.1.495.226.819.226.594 0 1.106-.45 1.106-1.351 0-.928-.566-1.314-1.323-1.314-.216 0-.351.009-.459.027l.369-2.71h2.098v.613zM153.398 56.33c-.252 0-.441-.207-.441-.504s.198-.513.45-.513c.27 0 .45.207.45.513 0 .297-.162.504-.45.504h-.009zm0 3.305c-.252 0-.441-.207-.441-.505 0-.297.198-.513.45-.513.27 0 .45.207.45.513 0 .298-.162.505-.45.505h-.009zm1.341-3.305c0-.513-.027-.773-.036-1.125h.612l.036.531h.018c.189-.351.513-.604.972-.604.405 0 .756.189.918.657h.018a1.46 1.46 0 0 1 .423-.495c.18-.107.378-.162.603-.162.594 0 1.053.424 1.053 1.54v2.89h-.693v-2.737c0-.566-.081-1.116-.603-1.116-.288 0-.54.243-.639.657-.027.108-.027.243-.027.388v2.809h-.693V56.7c0-.477-.081-.99-.594-.99-.288 0-.567.243-.648.712a2.27 2.27 0 0 0-.027.369v2.772h-.693V56.33zm6.065 1.117c.009 1.341.531 1.62 1.026 1.62.306 0 .549-.072.72-.162l.117.504c-.243.136-.612.207-.963.207-1.035 0-1.576-.846-1.576-2.188 0-1.413.594-2.296 1.468-2.296.882 0 1.242.937 1.242 1.918 0 .171-.009.288-.018.396h-2.016zm1.369-.513c.009-.873-.315-1.261-.648-1.261-.45 0-.684.667-.711 1.261h1.359zm2.259-2.747v1.018h.837v.522h-.837v2.593c0 .576.198.72.45.72.117 0 .207-.009.279-.026l.036.531a1.522 1.522 0 0 1-.513.071c-.279 0-.522-.071-.684-.261-.18-.198-.261-.495-.261-1.099v-2.529h-.531v-.522h.531v-.738l.693-.28zm1.448-.854h.693v2.34h.018c.09-.152.225-.287.369-.387.153-.099.333-.153.576-.153.549 0 1.018.433 1.018 1.54v2.89h-.693v-2.809c0-.54-.117-1.035-.585-1.035-.324 0-.567.233-.675.692-.018.1-.027.226-.027.324v2.827h-.693v-6.229zm4.87 6.302c-.783 0-1.414-.712-1.414-2.242 0-1.593.712-2.26 1.459-2.26.783 0 1.404.721 1.404 2.242 0 1.692-.773 2.26-1.439 2.26h-.01zm.036-.55c.595 0 .72-1.017.72-1.701 0-.675-.125-1.701-.738-1.701-.621 0-.738 1.026-.738 1.701 0 .721.127 1.701.748 1.701h.008zm4.815-5.752v5.186c0 .297.027.792.035 1.044h-.594l-.045-.54h-.036c-.135.306-.45.612-.909.612-.738 0-1.27-.792-1.27-2.233 0-1.548.639-2.269 1.314-2.269.315 0 .621.145.793.514h.018v-2.313h.694zm-.693 3.528c0-.09 0-.188-.01-.288-.035-.45-.314-.846-.647-.846-.576 0-.774.801-.774 1.674 0 .919.234 1.657.738 1.657.217 0 .514-.117.666-.747.027-.081.027-.181.027-.288v-1.162zm2.06-.531c-.252 0-.441-.207-.441-.504s.197-.513.45-.513c.271 0 .45.207.45.513 0 .297-.162.504-.45.504h-.009zm0 3.305c-.252 0-.441-.207-.441-.505 0-.297.197-.513.45-.513.271 0 .45.207.45.513 0 .298-.162.505-.45.505h-.009zm-14.472 5.695c-.252 0-.441-.207-.441-.504s.198-.513.45-.513c.27 0 .45.207.45.513 0 .297-.162.504-.45.504h-.009zm0 3.305c-.252 0-.441-.207-.441-.505 0-.297.198-.513.45-.513.27 0 .45.207.45.513 0 .298-.162.505-.45.505h-.009zm1.332-3.071c0-.666-.027-1.053-.036-1.359h.622l.036.549h.018c.234-.459.585-.621.918-.621.765 0 1.26.802 1.26 2.242 0 1.62-.666 2.26-1.341 2.26-.414 0-.648-.252-.765-.495h-.018v2.151h-.693v-4.727zm.694 1.405c0 .126.009.252.036.36.135.621.441.729.63.729.576 0 .765-.792.765-1.666 0-.909-.216-1.665-.765-1.665-.315 0-.603.396-.639.792-.027.108-.027.216-.027.333v1.117zm5.202.603c0 .333 0 .711.045.99h-.621l-.045-.459h-.027c-.189.333-.495.531-.864.531-.585 0-1.036-.486-1.036-1.242 0-1.099.874-1.576 1.855-1.585v-.135c0-.585-.145-.99-.693-.99-.27 0-.514.081-.721.225l-.153-.486c.19-.135.585-.288 1.018-.288.873 0 1.242.576 1.242 1.549v1.89zm-.676-1.269c-.359 0-1.197.072-1.197 1.018 0 .576.288.774.531.774.307 0 .559-.226.639-.657.019-.081.027-.171.027-.252v-.883zm2.421-3.116v1.018h.837v.522h-.837v2.593c0 .576.198.72.45.72.117 0 .207-.009.279-.026l.035.531a1.513 1.513 0 0 1-.513.071c-.279 0-.522-.071-.685-.261-.18-.198-.261-.495-.261-1.099v-2.529h-.531v-.522h.531v-.738l.695-.28zm1.449-.854h.693v2.34h.018a1.31 1.31 0 0 1 .369-.387c.154-.099.334-.153.576-.153.55 0 1.018.433 1.018 1.54v2.89h-.693v-2.809c0-.54-.117-1.035-.585-1.035-.323 0-.567.233-.675.692-.018.1-.027.226-.027.324v2.827h-.693v-6.229zm4.05 2.997c-.252 0-.441-.207-.441-.504s.197-.513.45-.513c.271 0 .45.207.45.513 0 .297-.162.504-.45.504h-.009zm0 3.305c-.252 0-.441-.207-.441-.505 0-.297.197-.513.45-.513.271 0 .45.207.45.513 0 .298-.162.505-.45.505h-.009zm-21.599 5.695c-.252 0-.441-.207-.441-.504s.198-.513.45-.513c.27 0 .45.207.45.513 0 .297-.162.504-.45.504h-.009zm0 3.305c-.252 0-.441-.207-.441-.505 0-.297.198-.513.45-.513.27 0 .45.207.45.513 0 .298-.162.505-.45.505h-.009zm1.692-4.43l.549 2.449c.063.297.135.684.189 1.062h.027c.045-.359.117-.729.18-1.062l.54-2.449h.684l-1.143 4.357h-.612l-1.134-4.357h.72zm3.141 2.242c.009 1.341.531 1.62 1.026 1.62.306 0 .549-.072.72-.162l.117.504c-.243.136-.612.207-.963.207-1.035 0-1.576-.846-1.576-2.188 0-1.413.594-2.296 1.468-2.296.882 0 1.242.937 1.242 1.918 0 .171-.009.288-.018.396h-2.016zm1.368-.513c.009-.873-.315-1.261-.648-1.261-.45 0-.684.667-.711 1.261h1.359zm1.403-.604c0-.368-.027-.801-.036-1.125h.622l.036.685h.018c.144-.414.513-.757.918-.757.054 0 .099 0 .144.01v.711c-.045-.009-.09-.009-.144-.009-.441 0-.765.404-.837.909a2.566 2.566 0 0 0-.027.396v2.413h-.693V74.33zm2.124 2.513c.153.099.423.225.702.225.387 0 .639-.243.639-.63 0-.333-.117-.567-.558-.855-.567-.369-.873-.747-.873-1.242 0-.712.522-1.207 1.197-1.207.342 0 .594.108.774.226l-.18.522a.994.994 0 0 0-.585-.198c-.369 0-.558.27-.558.558s.108.459.54.747c.504.324.9.729.9 1.333 0 .873-.594 1.296-1.314 1.296-.315 0-.666-.099-.855-.252l.171-.523zm3.042-4.313c-.226 0-.396-.181-.396-.45 0-.271.18-.45.404-.45.252 0 .414.18.414.45s-.162.45-.414.45h-.008zm-.323 5.032v-4.357h.692v4.357h-.692zm2.879.073c-.783 0-1.413-.712-1.413-2.242 0-1.593.712-2.26 1.458-2.26.783 0 1.405.721 1.405 2.242 0 1.692-.774 2.26-1.44 2.26h-.01zm.037-.55c.594 0 .72-1.017.72-1.701 0-.675-.126-1.701-.738-1.701-.621 0-.738 1.026-.738 1.701 0 .721.126 1.701.747 1.701h.009zm2.187-2.755c0-.513-.027-.773-.036-1.125h.604l.035.522h.019c.188-.352.54-.595.999-.595.604 0 1.054.441 1.054 1.504v2.926h-.693v-2.809c0-.522-.099-1.035-.603-1.035-.289 0-.568.243-.648.711a1.564 1.564 0 0 0-.037.387v2.746h-.692V74.33zm4.049 0c-.252 0-.441-.207-.441-.504s.199-.513.451-.513c.27 0 .449.207.449.513 0 .297-.162.504-.449.504h-.01zm0 3.305c-.252 0-.441-.207-.441-.505 0-.297.199-.513.451-.513.27 0 .449.207.449.513 0 .298-.162.505-.449.505h-.01zm-22.823 5.695c-.252 0-.441-.207-.441-.504s.198-.513.45-.513c.27 0 .45.207.45.513 0 .297-.162.504-.45.504h-.009zm0 3.305c-.252 0-.441-.207-.441-.505 0-.297.198-.513.45-.513.27 0 .45.207.45.513 0 .298-.162.505-.45.505h-.009zm1.224-.792c.153.099.423.225.702.225.387 0 .639-.243.639-.63 0-.333-.117-.567-.558-.855-.567-.369-.873-.747-.873-1.242 0-.712.522-1.207 1.197-1.207.342 0 .594.108.774.226l-.18.522a.994.994 0 0 0-.585-.198c-.369 0-.558.27-.558.558s.108.459.54.747c.504.324.9.729.9 1.333 0 .873-.594 1.296-1.314 1.296-.315 0-.666-.099-.855-.252l.171-.523zm4.842.611c-.153.091-.414.162-.72.162-.955 0-1.594-.765-1.594-2.205 0-1.252.63-2.269 1.72-2.269.234 0 .486.062.612.144l-.135.559a1.13 1.13 0 0 0-.495-.117c-.702 0-1.008.828-1.008 1.684 0 1.017.387 1.629 1.026 1.629.18 0 .342-.036.495-.117l.099.53zm.593-6.121h.693v2.34h.018c.09-.152.225-.287.369-.387.153-.099.333-.153.576-.153.549 0 1.018.433 1.018 1.54v2.89h-.693v-2.809c0-.54-.117-1.035-.585-1.035-.324 0-.567.233-.675.692-.018.1-.027.226-.027.324v2.827h-.693v-6.229zm4.131 4.114c.009 1.341.531 1.62 1.026 1.62.306 0 .549-.072.72-.162l.117.504c-.243.136-.612.207-.963.207-1.035 0-1.576-.846-1.576-2.188 0-1.413.594-2.296 1.468-2.296.882 0 1.242.937 1.242 1.918 0 .171-.009.288-.018.396h-2.016zm1.369-.513c.009-.873-.315-1.261-.648-1.261-.45 0-.684.667-.711 1.261h1.359zm1.412-.604c0-.513-.027-.773-.036-1.125h.612l.035.531h.019c.188-.351.513-.604.972-.604.406 0 .757.189.919.657h.019a1.46 1.46 0 0 1 .423-.495c.18-.107.378-.162.603-.162.595 0 1.054.424 1.054 1.54v2.89h-.693v-2.737c0-.566-.081-1.116-.603-1.116-.289 0-.541.243-.64.657-.026.108-.026.243-.026.388v2.809h-.693V83.7c0-.477-.082-.99-.595-.99-.288 0-.567.243-.647.712a2.163 2.163 0 0 0-.027.369v2.772h-.693V83.33zm6.067 1.117c.009 1.341.531 1.62 1.025 1.62.307 0 .55-.072.721-.162l.117.504c-.243.136-.612.207-.963.207-1.035 0-1.576-.846-1.576-2.188 0-1.413.594-2.296 1.468-2.296.882 0 1.242.937 1.242 1.918 0 .171-.009.288-.019.396h-2.015zm1.368-.513c.009-.873-.315-1.261-.648-1.261-.45 0-.685.667-.711 1.261h1.359zm1.817-.604c-.252 0-.441-.207-.441-.504s.197-.513.45-.513c.271 0 .45.207.45.513 0 .297-.162.504-.45.504h-.009zm0 3.305c-.252 0-.441-.207-.441-.505 0-.297.197-.513.45-.513.271 0 .45.207.45.513 0 .298-.162.505-.45.505h-.009zm-28.006 7.739c0 .478.027.864.036 1.188h-.603l-.054-.459h-.018c-.126.216-.459.531-.927.531-.756 0-1.062-.595-1.062-1.675v-2.755h.693v2.656c0 .675.108 1.188.585 1.188.405 0 .585-.379.621-.586.027-.117.036-.243.036-.387v-2.872h.693v3.171zm.854.469c.153.099.423.225.702.225.387 0 .639-.243.639-.63 0-.333-.117-.567-.558-.855-.567-.369-.873-.747-.873-1.242 0-.712.522-1.207 1.197-1.207.342 0 .594.108.774.226l-.18.522a.994.994 0 0 0-.585-.198c-.369 0-.558.27-.558.558s.108.459.54.747c.504.324.9.729.9 1.333 0 .873-.594 1.296-1.314 1.296-.315 0-.666-.099-.855-.252l.171-.523zm3.204-1.396c.009 1.341.531 1.62 1.026 1.62.306 0 .549-.072.72-.162l.117.504c-.243.136-.612.207-.963.207-1.035 0-1.576-.846-1.576-2.188 0-1.413.594-2.296 1.468-2.296.882 0 1.242.937 1.242 1.918 0 .171-.009.288-.018.396h-2.016zm1.368-.513c.009-.873-.315-1.261-.648-1.261-.45 0-.684.667-.711 1.261h1.359zm1.404-.604c0-.368-.027-.801-.036-1.125h.622l.036.685h.018c.144-.414.513-.757.918-.757.054 0 .099 0 .144.01v.711c-.045-.009-.09-.009-.144-.009-.441 0-.765.404-.837.909a2.566 2.566 0 0 0-.027.396v2.413h-.693V92.33zm3.996.612v.531h-1.972v-.531h1.972zm3.051 1.63c0 .333 0 .711.045.99h-.621l-.045-.459h-.027c-.189.333-.495.531-.864.531-.585 0-1.036-.486-1.036-1.242 0-1.099.874-1.576 1.854-1.585v-.135c0-.585-.144-.99-.693-.99-.27 0-.513.081-.72.225l-.153-.486c.189-.135.585-.288 1.018-.288.873 0 1.242.576 1.242 1.549v1.89zm-.675-1.269c-.36 0-1.197.072-1.197 1.018 0 .576.288.774.531.774.306 0 .558-.226.639-.657a1.2 1.2 0 0 0 .027-.252v-.883zm4.284 1.701c0 1.144-.144 1.576-.432 1.9-.27.288-.675.459-1.161.459-.369 0-.729-.09-.954-.216l.162-.541c.171.091.459.189.801.189.549 0 .892-.342.892-1.332v-.441h-.018a.873.873 0 0 1-.828.531c-.774 0-1.279-.873-1.279-2.152 0-1.611.72-2.269 1.369-2.269.459 0 .675.307.81.559h.018l.036-.486h.621c-.009.297-.036.685-.036 1.359v2.44zm-.693-2.295c0-.117-.009-.226-.036-.324-.072-.288-.234-.657-.63-.657-.495 0-.765.675-.765 1.639 0 1.116.351 1.62.765 1.62.216 0 .486-.099.621-.621.045-.135.045-.271.045-.396v-1.261zm2.141.738c.01 1.341.531 1.62 1.027 1.62.306 0 .549-.072.72-.162l.117.504c-.243.136-.612.207-.964.207-1.035 0-1.575-.846-1.575-2.188 0-1.413.595-2.296 1.468-2.296.883 0 1.242.937 1.242 1.918 0 .171-.009.288-.018.396h-2.017zm1.369-.513c.009-.873-.315-1.261-.648-1.261-.45 0-.684.667-.711 1.261h1.359zm1.412-.604c0-.513-.027-.773-.036-1.125h.603l.037.522h.018c.189-.352.54-.595.999-.595.604 0 1.054.441 1.054 1.504v2.926h-.693v-2.809c0-.522-.1-1.035-.604-1.035-.287 0-.566.243-.648.711a1.626 1.626 0 0 0-.035.387v2.746h-.693V92.33zm4.438-2.143v1.018h.837v.522h-.837v2.593c0 .576.197.72.45.72.116 0 .207-.009.278-.026l.037.531a1.532 1.532 0 0 1-.514.071c-.279 0-.521-.071-.684-.261-.181-.198-.262-.495-.262-1.099v-2.529h-.531v-.522h.531v-.738l.695-.28zm1.853 2.143c-.252 0-.441-.207-.441-.504s.199-.513.451-.513c.27 0 .449.207.449.513 0 .297-.162.504-.449.504h-.01zm0 3.305c-.252 0-.441-.207-.441-.505 0-.297.199-.513.451-.513.27 0 .449.207.449.513 0 .298-.162.505-.449.505h-.01zM29.643 113.581v2.602h1.702v-2.602h.693v6.067h-.693v-2.836h-1.702v2.836h-.693v-6.067h.693zm5.689 3.187H33.81v2.277h1.729v.604h-2.422v-6.067h2.314v.603H33.81v1.999h1.521v.584zm1.7 1.062l-.396 1.818h-.675l1.386-6.067h.765l1.351 6.067h-.684l-.396-1.818h-1.351zm1.251-.559l-.315-1.539c-.09-.433-.171-.937-.243-1.387h-.027c-.072.459-.162.981-.252 1.396l-.315 1.53h1.152zm1.935-3.6c.261-.081.585-.117.937-.117.63 0 1.089.162 1.422.459.468.405.819 1.188.819 2.458 0 1.386-.342 2.143-.729 2.565-.396.441-.981.648-1.674.648-.279 0-.576-.019-.774-.063v-5.95zm.693 5.419c.099.019.198.019.261.019.765 0 1.503-.549 1.503-2.62 0-1.53-.468-2.367-1.44-2.367-.108 0-.234.009-.324.036v4.932zm5.527-2.322h-1.521v2.277h1.729v.604h-2.422v-6.067h2.314v.603h-1.621v1.999h1.521v.584zm.97-3.097a3.952 3.952 0 0 1 1-.117c.603 0 1.053.126 1.368.432.297.307.423.712.423 1.188 0 .774-.36 1.278-.972 1.566v.019c.45.135.684.567.81 1.359.144.828.261 1.341.351 1.53h-.702c-.09-.18-.207-.756-.324-1.494-.135-.838-.396-1.144-.99-1.144h-.27v2.638h-.693v-5.977zm.694 2.8h.288c.666 0 1.107-.486 1.107-1.216 0-.693-.288-1.134-1.036-1.144-.135 0-.27.01-.36.036v2.324zm2.853 2.377c.207.126.567.242.873.242.63 0 1.008-.414 1.008-1.026 0-.558-.324-.899-.801-1.26-.477-.333-1.143-.9-1.143-1.684 0-.918.648-1.594 1.603-1.594.378 0 .711.126.855.226l-.171.594a1.276 1.276 0 0 0-.72-.207c-.594 0-.874.45-.874.864 0 .604.315.847.892 1.252.729.513 1.053 1.071 1.053 1.746 0 1.044-.738 1.701-1.702 1.701-.414 0-.855-.135-1.026-.27l.153-.584zm4.887.8v-3.835h-.549v-.522h.549v-.27c0-.469.072-.955.387-1.306a1.18 1.18 0 0 1 .874-.369c.234 0 .414.045.54.107l-.108.541a.982.982 0 0 0-.387-.072c-.495 0-.612.531-.612 1.089v.279h.792v.522h-.792v3.835h-.694zm1.898-3.232c0-.368-.027-.801-.036-1.125h.622l.036.685h.018c.144-.414.513-.757.918-.757.054 0 .099 0 .144.01v.711c-.045-.009-.09-.009-.144-.009-.441 0-.765.404-.837.909a2.566 2.566 0 0 0-.027.396v2.413h-.694v-3.233zm4.483 2.242c0 .333 0 .711.045.99h-.621l-.045-.459h-.027c-.189.333-.495.531-.864.531-.585 0-1.036-.486-1.036-1.242 0-1.099.874-1.576 1.854-1.585v-.135c0-.585-.144-.99-.693-.99-.27 0-.513.081-.72.225l-.153-.486c.189-.135.585-.288 1.018-.288.873 0 1.242.576 1.242 1.549v1.89zm-.676-1.269c-.36 0-1.197.072-1.197 1.018 0 .576.288.774.531.774.306 0 .558-.226.639-.657a1.2 1.2 0 0 0 .027-.252v-.883zm1.657-.973c0-.513-.027-.773-.036-1.125h.612l.036.531h.018c.189-.351.513-.604.972-.604.405 0 .756.189.918.657h.018a1.46 1.46 0 0 1 .423-.495c.18-.107.378-.162.603-.162.594 0 1.053.424 1.053 1.54v2.89h-.693v-2.737c0-.566-.081-1.116-.603-1.116-.288 0-.54.243-.639.657-.027.108-.027.243-.027.388v2.809h-.693v-2.863c0-.477-.081-.99-.594-.99-.288 0-.567.243-.648.712a2.27 2.27 0 0 0-.027.369v2.772h-.693v-3.233zm6.065 1.117c.009 1.341.531 1.62 1.026 1.62.306 0 .549-.072.72-.162l.117.504c-.243.136-.612.207-.963.207-1.035 0-1.576-.846-1.576-2.188 0-1.413.594-2.296 1.468-2.296.882 0 1.242.937 1.242 1.918 0 .171-.009.288-.018.396h-2.016zm1.369-.513c.009-.873-.315-1.261-.648-1.261-.45 0-.684.667-.711 1.261h1.359zm4.392-3.601c-.513.81-.937 2.025-.937 3.664 0 1.611.423 2.826.937 3.646h-.541c-.468-.684-.981-1.891-.981-3.655.018-1.764.513-2.979.981-3.654h.541zm.593 5.51c.153.099.423.225.702.225.387 0 .639-.243.639-.63 0-.333-.117-.567-.558-.855-.567-.369-.873-.747-.873-1.242 0-.712.522-1.207 1.197-1.207.342 0 .594.108.774.226l-.18.522a.994.994 0 0 0-.585-.198c-.369 0-.558.27-.558.558s.108.459.54.747c.504.324.9.729.9 1.333 0 .873-.594 1.296-1.314 1.296-.315 0-.666-.099-.855-.252l.171-.523zm3.564-4.656v1.018h.837v.522h-.837v2.593c0 .576.198.72.45.72.117 0 .207-.009.279-.026l.036.531a1.522 1.522 0 0 1-.513.071c-.279 0-.522-.071-.684-.261-.18-.198-.261-.495-.261-1.099v-2.529h-.531v-.522h.531v-.738l.693-.28zm1.44 2.143c0-.368-.027-.801-.036-1.125h.622l.036.685h.018c.144-.414.513-.757.918-.757.054 0 .099 0 .144.01v.711c-.045-.009-.09-.009-.144-.009-.441 0-.765.404-.837.909a2.566 2.566 0 0 0-.027.396v2.413h-.693v-3.233zm2.601 1.117c.009 1.341.531 1.62 1.026 1.62.306 0 .549-.072.72-.162l.117.504c-.243.136-.612.207-.963.207-1.035 0-1.576-.846-1.576-2.188 0-1.413.594-2.296 1.468-2.296.882 0 1.242.937 1.242 1.918 0 .171-.009.288-.018.396h-2.016zm1.368-.513c.009-.873-.315-1.261-.648-1.261-.45 0-.684.667-.711 1.261h1.359zm3.708 1.638c0 .333 0 .711.045.99h-.621l-.045-.459h-.027c-.189.333-.495.531-.864.531-.585 0-1.036-.486-1.036-1.242 0-1.099.874-1.576 1.855-1.585v-.135c0-.585-.145-.99-.693-.99-.27 0-.513.081-.72.225l-.153-.486c.189-.135.585-.288 1.018-.288.873 0 1.242.576 1.242 1.549v1.89zm-.675-1.269c-.36 0-1.197.072-1.197 1.018 0 .576.288.774.531.774.306 0 .558-.226.639-.657a1.2 1.2 0 0 0 .027-.252v-.883zm1.656-.973c0-.513-.027-.773-.036-1.125h.612l.036.531h.018c.189-.351.513-.604.972-.604.405 0 .756.189.918.657h.018a1.46 1.46 0 0 1 .423-.495c.18-.107.378-.162.603-.162.594 0 1.053.424 1.053 1.54v2.89h-.692v-2.737c0-.566-.081-1.116-.603-1.116-.288 0-.54.243-.639.657-.027.108-.027.243-.027.388v2.809h-.693v-2.863c0-.477-.081-.99-.594-.99-.288 0-.567.243-.648.712a2.27 2.27 0 0 0-.027.369v2.772h-.693v-3.233zm8.199-1.917h-.018l-.972.558-.135-.54 1.233-.72h.567v5.852h-.675v-5.15zm1.997 6.23c.513-.81.936-2.043.936-3.664 0-1.62-.423-2.836-.936-3.646h.54c.468.666.981 1.863.981 3.646-.018 1.783-.513 2.971-.981 3.664h-.54zm42.259-7.058c.261-.081.585-.117.937-.117.63 0 1.089.162 1.422.459.468.405.819 1.188.819 2.458 0 1.386-.342 2.143-.729 2.565-.396.441-.981.648-1.674.648-.279 0-.576-.019-.774-.063v-5.95zm.694 5.419c.099.019.198.019.261.019.765 0 1.503-.549 1.503-2.62 0-1.53-.468-2.367-1.44-2.367-.108 0-.234.009-.324.036v4.932zm3.861-1.26l-.396 1.818h-.675l1.386-6.067h.765l1.351 6.067h-.684l-.396-1.818h-1.351zm1.251-.559l-.315-1.539c-.09-.433-.171-.937-.243-1.387h-.027c-.072.459-.162.981-.252 1.396l-.315 1.53h1.152zm2.106-3.069h-1.107v-.621h2.908v.621h-1.107v5.446h-.693v-5.446zm2.799 3.628l-.396 1.818h-.675l1.386-6.067h.765l1.351 6.067h-.684l-.396-1.818h-1.351zm1.251-.559l-.315-1.539c-.09-.433-.171-.937-.243-1.387h-.027c-.072.459-.162.981-.252 1.396l-.315 1.53h1.152zm3.438 2.377v-3.835h-.549v-.522h.549v-.27c0-.469.072-.955.387-1.306a1.18 1.18 0 0 1 .874-.369c.234 0 .414.045.54.107l-.108.541a.982.982 0 0 0-.387-.072c-.495 0-.612.531-.612 1.089v.279h.792v.522h-.792v3.835h-.694zm1.898-3.232c0-.368-.027-.801-.036-1.125h.622l.036.685h.018c.144-.414.513-.757.918-.757.054 0 .099 0 .144.01v.711c-.045-.009-.09-.009-.144-.009-.441 0-.765.404-.837.909a2.566 2.566 0 0 0-.027.396v2.413h-.693v-3.233zm4.483 2.242c0 .333 0 .711.045.99h-.621l-.045-.459h-.027c-.189.333-.495.531-.864.531-.585 0-1.036-.486-1.036-1.242 0-1.099.874-1.576 1.855-1.585v-.135c0-.585-.145-.99-.693-.99-.27 0-.513.081-.72.225l-.153-.486c.189-.135.585-.288 1.018-.288.873 0 1.242.576 1.242 1.549v1.89zm-.676-1.269c-.36 0-1.197.072-1.197 1.018 0 .576.288.774.531.774.306 0 .558-.226.639-.657a1.2 1.2 0 0 0 .027-.252v-.883zm1.657-.973c0-.513-.027-.773-.036-1.125h.612l.036.531h.018c.189-.351.513-.604.973-.604.405 0 .756.189.918.657h.018a1.46 1.46 0 0 1 .423-.495c.18-.107.378-.162.603-.162.595 0 1.054.424 1.054 1.54v2.89h-.693v-2.737c0-.566-.081-1.116-.603-1.116-.289 0-.541.243-.64.657-.027.108-.027.243-.027.388v2.809h-.693v-2.863c0-.477-.081-.99-.594-.99-.288 0-.567.243-.648.712a2.27 2.27 0 0 0-.027.369v2.772h-.693v-3.233zm6.065 1.117c.009 1.341.531 1.62 1.026 1.62.307 0 .549-.072.721-.162l.117.504c-.244.136-.613.207-.964.207-1.035 0-1.575-.846-1.575-2.188 0-1.413.594-2.296 1.467-2.296.883 0 1.242.937 1.242 1.918 0 .171-.008.288-.018.396h-2.016zm1.368-.513c.01-.873-.314-1.261-.648-1.261-.449 0-.684.667-.711 1.261h1.359zm4.393-3.601c-.514.81-.937 2.025-.937 3.664 0 1.611.423 2.826.937 3.646h-.54c-.468-.684-.981-1.891-.981-3.655.018-1.764.514-2.979.981-3.654h.54zm.593 5.51c.152.099.423.225.701.225.388 0 .64-.243.64-.63 0-.333-.117-.567-.558-.855-.568-.369-.873-.747-.873-1.242 0-.712.521-1.207 1.197-1.207.342 0 .594.108.773.226l-.18.522a1 1 0 0 0-.586-.198c-.369 0-.558.27-.558.558s.108.459.54.747c.504.324.9.729.9 1.333 0 .873-.594 1.296-1.314 1.296-.314 0-.666-.099-.855-.252l.173-.523zm3.565-4.656v1.018h.836v.522h-.836v2.593c0 .576.197.72.449.72.117 0 .207-.009.279-.026l.036.531a1.522 1.522 0 0 1-.513.071c-.279 0-.522-.071-.685-.261-.181-.198-.261-.495-.261-1.099v-2.529h-.531v-.522h.531v-.738l.695-.28zm1.439 2.143c0-.368-.027-.801-.037-1.125h.622l.036.685h.018c.145-.414.514-.757.918-.757.055 0 .1 0 .145.01v.711c-.045-.009-.09-.009-.145-.009-.441 0-.765.404-.837.909a2.456 2.456 0 0 0-.026.396v2.413h-.693v-3.233zm2.6 1.117c.01 1.341.531 1.62 1.027 1.62.306 0 .549-.072.72-.162l.117.504c-.243.136-.612.207-.964.207-1.035 0-1.575-.846-1.575-2.188 0-1.413.595-2.296 1.468-2.296.883 0 1.242.937 1.242 1.918 0 .171-.009.288-.018.396h-2.017zm1.369-.513c.009-.873-.315-1.261-.648-1.261-.45 0-.684.667-.711 1.261h1.359zm3.708 1.638c0 .333 0 .711.045.99h-.621l-.045-.459h-.026c-.189.333-.496.531-.865.531-.585 0-1.035-.486-1.035-1.242 0-1.099.873-1.576 1.854-1.585v-.135c0-.585-.144-.99-.692-.99-.271 0-.514.081-.721.225l-.153-.486c.189-.135.585-.288 1.018-.288.873 0 1.242.576 1.242 1.549v1.89zm-.675-1.269c-.36 0-1.197.072-1.197 1.018 0 .576.287.774.531.774.306 0 .558-.226.639-.657a1.2 1.2 0 0 0 .027-.252v-.883zm1.656-.973c0-.513-.027-.773-.036-1.125h.612l.036.531h.018c.189-.351.514-.604.973-.604.404 0 .756.189.918.657h.018c.117-.216.271-.387.424-.495.18-.107.378-.162.604-.162.594 0 1.053.424 1.053 1.54v2.89h-.693v-2.737c0-.566-.081-1.116-.604-1.116-.287 0-.539.243-.639.657-.027.108-.027.243-.027.388v2.809h-.693v-2.863c0-.477-.08-.99-.594-.99-.288 0-.566.243-.648.712a2.27 2.27 0 0 0-.027.369v2.772h-.692v-3.233zm8.199-1.917h-.019l-.972.558-.135-.54 1.233-.72h.566v5.852h-.675v-5.15zm1.997 6.23c.514-.81.937-2.043.937-3.664 0-1.62-.423-2.836-.937-3.646h.541c.468.666.98 1.863.98 3.646-.018 1.783-.513 2.971-.98 3.664h-.541z"/><path fill="#b2d4eb" fill-rule="evenodd" d="M28.41 123.605h104.703v48.888H28.41z" clip-rule="evenodd"/><path fill="none" stroke="#000" d="M28.41 123.605h104.703v48.888H28.41z" stroke-linecap="round" stroke-linejoin="round"/><path fill="#b2d4eb" fill-rule="evenodd" d="M141.201 123.605h104.703v48.888H141.201z" clip-rule="evenodd"/><path fill="none" stroke="#000" d="M141.201 123.605h104.703v48.888H141.201z" stroke-linecap="round" stroke-linejoin="round"/><path d="M68.745 131.719v-.45l.486-.666c.702-.973 1.521-2.07 1.521-3.169 0-.648-.279-1.044-.829-1.044-.423 0-.702.225-.846.323l-.171-.521a1.831 1.831 0 0 1 1.143-.396c.973 0 1.396.721 1.396 1.603 0 1.099-.72 2.17-1.449 3.151l-.387.54v.018h1.945v.612h-2.809zm4.878.072c-.909 0-1.458-1.081-1.458-2.989 0-1.972.585-3.007 1.54-3.007.945 0 1.44 1.125 1.44 2.989 0 2.134-.675 3.007-1.513 3.007h-.009zm.045-.595c.558 0 .783-.999.783-2.403 0-1.368-.225-2.403-.783-2.403-.567 0-.811.99-.811 2.403-.009 1.413.234 2.403.801 2.403h.01zm3.42.595c-.909 0-1.458-1.081-1.458-2.989 0-1.972.585-3.007 1.54-3.007.945 0 1.44 1.125 1.44 2.989 0 2.134-.675 3.007-1.513 3.007h-.009zm.045-.595c.558 0 .783-.999.783-2.403 0-1.368-.225-2.403-.783-2.403-.567 0-.811.99-.811 2.403-.009 1.413.234 2.403.801 2.403h.01zm-7.443 3.455v2.602h1.702v-2.602h.693v6.067h-.693v-2.836H69.69v2.836h-.693v-6.067h.693zm4.185.621h-1.107v-.621h2.908v.621h-1.107v5.446h-.693v-5.446zm3.285 0h-1.107v-.621h2.908v.621h-1.107v5.446h-.694v-5.446zm2.474-.531a3.982 3.982 0 0 1 1.008-.117c.558 0 1.036.135 1.351.441.288.288.441.729.441 1.26 0 .559-.135.937-.369 1.242-.324.45-.891.676-1.431.676-.117 0-.207 0-.306-.009v2.484h-.693v-5.977zm.694 2.917c.081.009.162.018.279.018.675 0 1.135-.45 1.135-1.306 0-.621-.252-1.179-1.026-1.179-.162 0-.297.018-.387.045v2.422zm2.429 3.421l1.936-6.5h.522l-1.936 6.5h-.522zm2.745-.36v-.45l.486-.666c.702-.973 1.521-2.07 1.521-3.169 0-.648-.279-1.044-.829-1.044-.423 0-.702.225-.846.323l-.171-.521a1.831 1.831 0 0 1 1.143-.396c.973 0 1.396.721 1.396 1.603 0 1.099-.72 2.17-1.449 3.151l-.387.54v.018h1.944v.612h-2.808zm4.068.072c-.252 0-.45-.207-.45-.522 0-.306.208-.522.459-.522.27 0 .459.207.459.522s-.171.522-.459.522h-.009zm2.557 0c-.91 0-1.458-1.081-1.458-2.989 0-1.972.585-3.007 1.54-3.007.945 0 1.44 1.125 1.44 2.989 0 2.134-.675 3.007-1.513 3.007h-.009zm.044-.595c.558 0 .783-.999.783-2.403 0-1.368-.225-2.403-.783-2.403-.567 0-.81.99-.81 2.403-.009 1.413.234 2.403.801 2.403h.009zm-23.228 6.29c0-.513-.027-.773-.036-1.125h.603l.036.522h.018c.189-.352.54-.595.999-.595.604 0 1.054.441 1.054 1.504v2.926h-.693v-2.809c0-.522-.099-1.035-.603-1.035-.288 0-.567.243-.648.711a1.57 1.57 0 0 0-.036.387v2.746h-.693v-3.232zm6.273 2.674c0 1.144-.144 1.576-.432 1.9-.27.288-.675.459-1.161.459-.369 0-.729-.09-.954-.216l.162-.541c.171.091.459.189.801.189.549 0 .892-.342.892-1.332v-.441h-.018a.873.873 0 0 1-.828.531c-.774 0-1.279-.873-1.279-2.152 0-1.611.72-2.269 1.369-2.269.459 0 .675.307.81.559h.018l.036-.486h.621c-.009.297-.036.685-.036 1.359v2.44zm-.693-2.295c0-.117-.009-.226-.036-.324-.072-.288-.234-.657-.63-.657-.495 0-.765.675-.765 1.639 0 1.116.351 1.62.765 1.62.216 0 .486-.099.622-.621.045-.135.045-.271.045-.396v-1.261zm1.979-2.178c-.225 0-.396-.181-.396-.45 0-.271.18-.45.405-.45.252 0 .414.18.414.45s-.162.45-.414.45h-.009zm-.323 5.032v-4.357h.693v4.357h-.693zm1.656-3.233c0-.513-.027-.773-.036-1.125h.603l.036.522h.018c.189-.352.54-.595.999-.595.604 0 1.054.441 1.054 1.504v2.926h-.693v-2.809c0-.522-.099-1.035-.603-1.035-.288 0-.567.243-.648.711a1.57 1.57 0 0 0-.036.387v2.746h-.693v-3.232zm4.031-1.125l.405.928c.108.252.198.504.288.765h.018c.099-.279.198-.531.297-.765l.387-.928h.711l-1.036 2.143 1.026 2.215h-.756l-.414-.981c-.099-.234-.18-.459-.288-.747h-.018c-.09.261-.189.504-.288.747l-.396.981h-.711l1.035-2.188-.999-2.17h.739zm2.259 4.718l1.936-6.5h.522l-1.936 6.5h-.522zm4.149-5.51h-.018l-.972.558-.135-.54 1.233-.72h.567v5.852h-.675v-5.15zm2.665 5.222c-.252 0-.45-.207-.45-.522 0-.306.207-.522.459-.522.27 0 .459.207.459.522s-.171.522-.459.522h-.009zm2.556 0c-.91 0-1.458-1.081-1.458-2.989 0-1.972.585-3.007 1.54-3.007.945 0 1.44 1.125 1.44 2.989 0 2.134-.675 3.007-1.513 3.007h-.009zm.045-.595c.558 0 .783-.999.783-2.403 0-1.368-.225-2.403-.783-2.403-.567 0-.81.99-.81 2.403-.009 1.413.234 2.403.801 2.403h.009zm2.609.595c-.252 0-.45-.207-.45-.522 0-.306.208-.522.459-.522.27 0 .459.207.459.522s-.171.522-.459.522h-.009zm2.547-5.222h-.018l-.972.558-.135-.54 1.233-.72h.567v5.852h-.675v-5.15zm3.465 0h-.018l-.972.558-.135-.54 1.233-.72h.567v5.852h-.675v-5.15zM69.726 156.9l-.396 1.818h-.675l1.386-6.067h.765l1.351 6.067h-.684l-.396-1.818h-1.351zm1.252-.558l-.315-1.539c-.09-.433-.171-.937-.243-1.387h-.027c-.072.459-.162.981-.252 1.396l-.315 1.53h1.152zm3.915 2.268c-.153.091-.414.162-.72.162-.955 0-1.594-.765-1.594-2.205 0-1.252.63-2.269 1.72-2.269.234 0 .486.062.612.144l-.135.559a1.13 1.13 0 0 0-.495-.117c-.702 0-1.008.828-1.008 1.684 0 1.017.387 1.629 1.026 1.629.18 0 .342-.036.495-.117l.099.53zm2.663 0c-.153.091-.414.162-.72.162-.954 0-1.594-.765-1.594-2.205 0-1.252.63-2.269 1.72-2.269.234 0 .486.062.612.144l-.135.559a1.13 1.13 0 0 0-.495-.117c-.702 0-1.008.828-1.008 1.684 0 1.017.387 1.629 1.026 1.629.18 0 .342-.036.495-.117l.099.53zm1.026-2.006c.009 1.341.531 1.62 1.026 1.62.306 0 .549-.072.72-.162l.117.504c-.243.136-.612.207-.963.207-1.035 0-1.576-.846-1.576-2.188 0-1.413.594-2.296 1.468-2.296.882 0 1.242.937 1.242 1.918 0 .171-.009.288-.018.396h-2.016zm1.368-.514c.009-.873-.315-1.261-.648-1.261-.45 0-.684.667-.711 1.261h1.359zm1.404-.369c0-.666-.027-1.053-.036-1.359h.622l.036.549h.018c.234-.459.585-.621.918-.621.765 0 1.26.802 1.26 2.242 0 1.62-.666 2.26-1.341 2.26-.414 0-.648-.252-.765-.495h-.018v2.151h-.693v-4.727zm.693 1.404c0 .126.009.252.036.36.135.621.441.729.63.729.576 0 .765-.792.765-1.666 0-.909-.216-1.665-.765-1.665-.315 0-.603.396-.639.792-.027.108-.027.216-.027.333v1.117zm3.753-3.781v1.018h.837v.522H85.8v2.593c0 .576.198.72.45.72.117 0 .207-.009.279-.026l.036.531a1.522 1.522 0 0 1-.513.071c-.279 0-.522-.071-.684-.261-.18-.198-.261-.495-.261-1.099v-2.529h-.531v-.522h.531v-.738l.693-.28zm3.204 2.755v.531h-1.972v-.531h1.972zm3.024-.261h-1.521v2.277h1.729v.604h-2.422v-6.067h2.314v.603h-1.621v1.999h1.521v.584zm.881-.352c0-.513-.027-.773-.036-1.125h.603l.036.522h.018c.189-.352.54-.595.999-.595.604 0 1.054.441 1.054 1.504v2.926h-.693v-2.809c0-.522-.099-1.035-.603-1.035-.288 0-.567.243-.648.711a1.57 1.57 0 0 0-.036.387v2.746h-.693v-3.232zm5.77 3.124c-.153.091-.414.162-.72.162-.955 0-1.594-.765-1.594-2.205 0-1.252.63-2.269 1.72-2.269.234 0 .486.062.612.144l-.135.559a1.13 1.13 0 0 0-.495-.117c-.702 0-1.008.828-1.008 1.684 0 1.017.387 1.629 1.026 1.629.18 0 .342-.036.495-.117l.099.53zm1.763.181c-.783 0-1.414-.712-1.414-2.242 0-1.593.711-2.26 1.458-2.26.783 0 1.405.721 1.405 2.242 0 1.692-.774 2.26-1.44 2.26h-.009zm.037-.55c.594 0 .72-1.017.72-1.701 0-.675-.126-1.701-.738-1.701-.621 0-.738 1.026-.738 1.701 0 .721.126 1.701.747 1.701h.009zm4.815-5.752v5.186c0 .297.027.792.036 1.044h-.594l-.045-.54h-.036c-.135.306-.45.612-.909.612-.738 0-1.27-.792-1.27-2.233 0-1.548.64-2.269 1.314-2.269.315 0 .621.145.792.514h.018v-2.313h.694zm-.693 3.529c0-.09 0-.188-.009-.288-.036-.45-.315-.846-.648-.846-.576 0-.774.801-.774 1.674 0 .919.234 1.657.738 1.657.216 0 .513-.117.666-.747.027-.081.027-.181.027-.288v-1.162zm1.979-2.331c-.225 0-.396-.181-.396-.45 0-.271.18-.45.405-.45.252 0 .414.18.414.45s-.162.45-.414.45h-.009zm-.324 5.032v-4.357h.693v4.357h-.693zm1.656-3.233c0-.513-.027-.773-.036-1.125h.603l.036.522h.018c.189-.352.54-.595.999-.595.604 0 1.054.441 1.054 1.504v2.926h-.693v-2.809c0-.522-.099-1.035-.603-1.035-.288 0-.567.243-.648.711a1.57 1.57 0 0 0-.036.387v2.746h-.693v-3.232zm6.274 2.674c0 1.144-.144 1.576-.432 1.9-.27.288-.675.459-1.161.459-.369 0-.729-.09-.954-.216l.162-.541c.171.091.459.189.801.189.549 0 .892-.342.892-1.332v-.441h-.018a.873.873 0 0 1-.828.531c-.774 0-1.279-.873-1.279-2.152 0-1.611.72-2.269 1.369-2.269.459 0 .675.307.81.559h.018l.036-.486h.621c-.009.297-.036.685-.036 1.359v2.44zm-.693-2.295c0-.117-.009-.226-.036-.324-.072-.288-.234-.657-.63-.657-.495 0-.765.675-.765 1.639 0 1.116.351 1.62.765 1.62.216 0 .486-.099.621-.621.045-.135.045-.271.045-.396v-1.261zm-67.63-27.379c-.252 0-.441-.207-.441-.504s.198-.513.45-.513c.27 0 .45.207.45.513 0 .297-.162.504-.45.504h-.009zm0 3.305c-.252 0-.441-.207-.441-.505 0-.297.198-.513.45-.513.27 0 .45.207.45.513 0 .298-.162.505-.45.505h-.009zm1.224-.792c.153.099.423.225.702.225.387 0 .639-.243.639-.63 0-.333-.117-.567-.558-.855-.567-.369-.873-.747-.873-1.242 0-.712.522-1.207 1.197-1.207.342 0 .594.108.774.226l-.18.522a.994.994 0 0 0-.585-.198c-.369 0-.558.27-.558.558s.108.459.54.747c.504.324.9.729.9 1.333 0 .873-.594 1.296-1.314 1.296-.315 0-.666-.099-.855-.252l.171-.523zm3.564-4.655v1.018h.837v.522h-.837v2.593c0 .576.198.72.45.72.117 0 .207-.009.279-.026l.036.531a1.522 1.522 0 0 1-.513.071c-.279 0-.522-.071-.684-.261-.18-.198-.261-.495-.261-1.099v-2.529h-.531v-.522h.531v-.738l.693-.28zm3.744 4.385c0 .333 0 .711.045.99h-.621l-.045-.459h-.027c-.189.333-.495.531-.864.531-.585 0-1.036-.486-1.036-1.242 0-1.099.874-1.576 1.854-1.585v-.135c0-.585-.144-.99-.693-.99-.27 0-.513.081-.72.225l-.153-.486c.189-.135.585-.288 1.018-.288.873 0 1.242.576 1.242 1.549v1.89zm-.675-1.27c-.36 0-1.197.072-1.197 1.018 0 .576.288.774.531.774.306 0 .558-.226.639-.657a1.2 1.2 0 0 0 .027-.252v-.883zm2.421-3.115v1.018h.837v.522h-.837v2.593c0 .576.198.72.45.72.117 0 .207-.009.279-.026l.036.531a1.522 1.522 0 0 1-.513.071c-.279 0-.522-.071-.684-.261-.18-.198-.261-.495-.261-1.099v-2.529h-.531v-.522h.531v-.738l.693-.28zm4.06 4.186c0 .478.027.864.036 1.188h-.603l-.054-.459h-.018c-.126.216-.459.531-.927.531-.756 0-1.062-.595-1.062-1.675v-2.755h.693v2.656c0 .675.108 1.188.585 1.188.405 0 .585-.379.621-.586.027-.117.036-.243.036-.387v-2.872h.693v3.171zm.853.469c.153.099.423.225.702.225.387 0 .639-.243.639-.63 0-.333-.117-.567-.558-.855-.567-.369-.873-.747-.873-1.242 0-.712.522-1.207 1.197-1.207.342 0 .594.108.774.226l-.18.522a.994.994 0 0 0-.585-.198c-.369 0-.558.27-.558.558s.108.459.54.747c.504.324.9.729.9 1.333 0 .873-.594 1.296-1.314 1.296-.315 0-.666-.099-.855-.252l.171-.523zm3.123-2.513c-.252 0-.441-.207-.441-.504s.198-.513.45-.513c.27 0 .45.207.45.513 0 .297-.162.504-.45.504h-.009zm0 3.305c-.252 0-.441-.207-.441-.505 0-.297.198-.513.45-.513.27 0 .45.207.45.513 0 .298-.162.505-.45.505h-.009zm-21.599 5.695c-.252 0-.441-.207-.441-.504s.198-.513.45-.513c.27 0 .45.207.45.513 0 .297-.162.504-.45.504h-.009zm0 3.305c-.252 0-.441-.207-.441-.505 0-.297.198-.513.45-.513.27 0 .45.207.45.513 0 .298-.162.505-.45.505h-.009zm1.693-4.43l.549 2.449c.063.297.135.684.189 1.062h.027c.045-.359.117-.729.18-1.062l.54-2.449h.684l-1.143 4.357h-.612l-1.134-4.357h.72zm3.14 2.243c.009 1.341.531 1.62 1.026 1.62.306 0 .549-.072.72-.162l.117.504c-.243.136-.612.207-.963.207-1.035 0-1.576-.846-1.576-2.188 0-1.413.594-2.296 1.468-2.296.882 0 1.242.937 1.242 1.918 0 .171-.009.288-.018.396h-2.016zm1.369-.514c.009-.873-.315-1.261-.648-1.261-.45 0-.684.667-.711 1.261h1.359zm1.403-.604c0-.368-.027-.801-.036-1.125h.622l.036.685h.018c.144-.414.513-.757.918-.757.054 0 .099 0 .144.01v.711c-.045-.009-.09-.009-.144-.009-.441 0-.765.404-.837.909a2.566 2.566 0 0 0-.027.396v2.413h-.693v-3.233zm2.124 2.513c.153.099.423.225.702.225.387 0 .639-.243.639-.63 0-.333-.117-.567-.558-.855-.567-.369-.873-.747-.873-1.242 0-.712.522-1.207 1.197-1.207.342 0 .594.108.774.226l-.18.522a.994.994 0 0 0-.585-.198c-.369 0-.558.27-.558.558s.108.459.54.747c.504.324.9.729.9 1.333 0 .873-.594 1.296-1.314 1.296-.315 0-.666-.099-.855-.252l.171-.523zm3.042-4.312c-.225 0-.396-.181-.396-.45 0-.271.18-.45.405-.45.252 0 .414.18.414.45s-.162.45-.414.45h-.009zm-.324 5.032v-4.357h.693v4.357h-.693zm2.88.072c-.783 0-1.414-.712-1.414-2.242 0-1.593.711-2.26 1.458-2.26.783 0 1.405.721 1.405 2.242 0 1.692-.774 2.26-1.44 2.26h-.009zm.036-.55c.594 0 .72-1.017.72-1.701 0-.675-.126-1.701-.738-1.701-.621 0-.738 1.026-.738 1.701 0 .721.126 1.701.747 1.701h.009zm2.187-2.755c0-.513-.027-.773-.036-1.125h.603l.036.522h.018c.189-.352.54-.595.999-.595.604 0 1.054.441 1.054 1.504v2.926h-.693v-2.809c0-.522-.099-1.035-.603-1.035-.288 0-.567.243-.648.711a1.57 1.57 0 0 0-.036.387v2.746h-.693v-3.232zm4.05 0c-.252 0-.441-.207-.441-.504s.198-.513.45-.513c.27 0 .45.207.45.513 0 .297-.162.504-.45.504h-.009zm0 3.305c-.252 0-.441-.207-.441-.505 0-.297.198-.513.45-.513.27 0 .45.207.45.513 0 .298-.162.505-.45.505h-.009zm-17.361 8.208c.153.099.423.225.702.225.387 0 .639-.243.639-.63 0-.333-.117-.567-.558-.855-.567-.369-.873-.747-.873-1.242 0-.712.522-1.207 1.197-1.207.342 0 .594.108.774.226l-.18.522a.994.994 0 0 0-.585-.198c-.369 0-.558.27-.558.558s.108.459.54.747c.504.324.9.729.9 1.333 0 .873-.594 1.296-1.314 1.296-.315 0-.666-.099-.855-.252l.171-.523zm3.205-1.395c.009 1.341.531 1.62 1.026 1.62.306 0 .549-.072.72-.162l.117.504c-.243.136-.612.207-.963.207-1.035 0-1.576-.846-1.576-2.188 0-1.413.594-2.296 1.468-2.296.882 0 1.242.937 1.242 1.918 0 .171-.009.288-.018.396h-2.016zm1.368-.514c.009-.873-.315-1.261-.648-1.261-.45 0-.684.667-.711 1.261h1.359zm1.403-.604c0-.368-.027-.801-.036-1.125h.622l.036.685h.018c.144-.414.513-.757.918-.757.054 0 .099 0 .144.01v.711c-.045-.009-.09-.009-.144-.009-.441 0-.765.404-.837.909a2.566 2.566 0 0 0-.027.396v2.413h-.693v-3.233zm2.826-1.125l.549 2.449c.063.297.135.684.189 1.062h.027c.045-.359.117-.729.18-1.062l.54-2.449h.684l-1.143 4.357h-.612l-1.134-4.357h.72zm3.141 2.243c.009 1.341.531 1.62 1.026 1.62.306 0 .549-.072.72-.162l.117.504c-.243.136-.612.207-.963.207-1.035 0-1.576-.846-1.576-2.188 0-1.413.594-2.296 1.468-2.296.882 0 1.242.937 1.242 1.918 0 .171-.009.288-.018.396H58.76zm1.368-.514c.009-.873-.315-1.261-.648-1.261-.45 0-.684.667-.711 1.261h1.359zm1.404-.604c0-.368-.027-.801-.036-1.125h.622l.036.685h.018c.144-.414.513-.757.918-.757.054 0 .099 0 .144.01v.711c-.045-.009-.09-.009-.144-.009-.441 0-.765.404-.837.909a2.566 2.566 0 0 0-.027.396v2.413h-.693v-3.233zm2.646 0c-.252 0-.441-.207-.441-.504s.198-.513.45-.513c.27 0 .45.207.45.513 0 .297-.162.504-.45.504h-.009zm0 3.305c-.252 0-.441-.207-.441-.505 0-.297.198-.513.45-.513.27 0 .45.207.45.513 0 .298-.162.505-.45.505h-.009zm-11.916 4.57l.549 2.449c.063.297.135.684.189 1.062h.027c.045-.359.117-.729.18-1.062l.54-2.449h.684l-1.143 4.357h-.612l-1.134-4.357h.72zm4.987 3.368c0 .333 0 .711.045.99h-.621l-.045-.459h-.027c-.189.333-.495.531-.864.531-.585 0-1.036-.486-1.036-1.242 0-1.099.874-1.576 1.854-1.585v-.135c0-.585-.144-.99-.693-.99-.27 0-.513.081-.72.225l-.153-.486c.189-.135.585-.288 1.018-.288.873 0 1.242.576 1.242 1.549v1.89zm-.676-1.27c-.36 0-1.197.072-1.197 1.018 0 .576.288.774.531.774.306 0 .558-.226.639-.657a1.2 1.2 0 0 0 .027-.252v-.883zm1.647-.973c0-.368-.027-.801-.036-1.125h.622l.036.685h.018c.144-.414.513-.757.918-.757.054 0 .099 0 .144.01v.711c-.045-.009-.09-.009-.144-.009-.441 0-.765.404-.837.909a2.566 2.566 0 0 0-.027.396v2.413h-.694v-3.233zm2.835-1.125l.576 2.503c.081.342.117.621.18.9h.018c.045-.252.117-.576.189-.892l.513-2.512h.684l-.711 2.8c-.271 1.09-.567 2.143-1.081 2.809-.306.388-.63.586-.783.657l-.252-.585c.198-.117.423-.306.612-.549.18-.234.324-.522.396-.738a.578.578 0 0 0 .045-.216c0-.055 0-.108-.018-.162l-1.098-4.016h.73zm3.123 1.125c-.252 0-.441-.207-.441-.504s.198-.513.45-.513c.27 0 .45.207.45.513 0 .297-.162.504-.45.504h-.009zm0 3.305c-.252 0-.441-.207-.441-.505 0-.297.198-.513.45-.513.27 0 .45.207.45.513 0 .298-.162.505-.45.505h-.009zm-3.492 9c-.252 0-.45-.207-.45-.522 0-.306.208-.522.459-.522.27 0 .459.207.459.522s-.171.522-.459.522h-.009zm1.746 0c-.252 0-.45-.207-.45-.522 0-.306.208-.522.459-.522.27 0 .459.207.459.522s-.171.522-.459.522h-.009zm1.745 0c-.252 0-.45-.207-.45-.522 0-.306.207-.522.459-.522.27 0 .459.207.459.522s-.171.522-.459.522h-.009zm100.45-16.67c-.252 0-.45-.207-.45-.522 0-.306.208-.522.459-.522.27 0 .459.207.459.522s-.171.522-.459.522h-.009zm1.747 0c-.252 0-.45-.207-.45-.522 0-.306.208-.522.459-.522.27 0 .459.207.459.522s-.171.522-.459.522h-.009zm1.745 0c-.252 0-.449-.207-.449-.522 0-.306.207-.522.459-.522.27 0 .459.207.459.522s-.171.522-.459.522h-.01zm2.745-3.305c0-.368-.026-.801-.036-1.125h.621l.036.685h.019c.144-.414.513-.757.918-.757.055 0 .1 0 .145.01v.711c-.045-.009-.09-.009-.145-.009-.441 0-.766.404-.838.909a2.576 2.576 0 0 0-.026.396v2.413h-.693v-3.233zm2.6 1.118c.01 1.341.531 1.62 1.027 1.62.306 0 .549-.072.72-.162l.117.504c-.243.136-.612.207-.964.207-1.035 0-1.575-.846-1.575-2.188 0-1.413.595-2.296 1.468-2.296.883 0 1.242.937 1.242 1.918 0 .171-.009.288-.018.396h-2.017zm1.37-.514c.009-.873-.315-1.261-.648-1.261-.45 0-.684.667-.711 1.261h1.359zm1.294 1.909c.153.099.424.225.703.225.387 0 .639-.243.639-.63 0-.333-.117-.567-.559-.855-.566-.369-.873-.747-.873-1.242 0-.712.522-1.207 1.197-1.207.342 0 .595.108.774.226l-.18.522a.994.994 0 0 0-.585-.198c-.369 0-.559.27-.559.558s.107.459.54.747c.505.324.9.729.9 1.333 0 .873-.595 1.296-1.314 1.296-.315 0-.666-.099-.854-.252l.171-.523zm2.709-2.278c0-.666-.026-1.053-.035-1.359h.621l.035.549h.019c.234-.459.585-.621.919-.621.765 0 1.26.802 1.26 2.242 0 1.62-.666 2.26-1.342 2.26-.414 0-.648-.252-.765-.495h-.019v2.151h-.693v-4.727zm.694 1.404c0 .126.01.252.037.36.135.621.44.729.629.729.576 0 .766-.792.766-1.666 0-.909-.216-1.665-.766-1.665-.314 0-.603.396-.639.792-.027.108-.027.216-.027.333v1.117zm4.131 1.666c-.783 0-1.413-.712-1.413-2.242 0-1.593.712-2.26 1.458-2.26.783 0 1.405.721 1.405 2.242 0 1.692-.774 2.26-1.44 2.26h-.01zm.037-.55c.594 0 .72-1.017.72-1.701 0-.675-.126-1.701-.738-1.701-.621 0-.738 1.026-.738 1.701 0 .721.126 1.701.747 1.701h.009zm2.185-2.755c0-.513-.027-.773-.035-1.125h.603l.036.522h.018a1.106 1.106 0 0 1 1-.595c.604 0 1.053.441 1.053 1.504v2.926h-.693v-2.809c0-.522-.099-1.035-.603-1.035-.288 0-.567.243-.648.711a1.62 1.62 0 0 0-.036.387v2.746h-.693v-3.232zm3.529 2.513c.153.099.423.225.702.225.387 0 .639-.243.639-.63 0-.333-.117-.567-.558-.855-.567-.369-.873-.747-.873-1.242 0-.712.522-1.207 1.197-1.207.342 0 .595.108.774.226l-.18.522a1 1 0 0 0-.586-.198c-.369 0-.559.27-.559.558s.108.459.541.747c.504.324.9.729.9 1.333 0 .873-.595 1.296-1.314 1.296-.315 0-.666-.099-.855-.252l.172-.523zm3.204-1.395c.01 1.341.531 1.62 1.026 1.62.306 0 .55-.072.72-.162l.117.504c-.242.136-.611.207-.963.207-1.035 0-1.576-.846-1.576-2.188 0-1.413.595-2.296 1.469-2.296.882 0 1.242.937 1.242 1.918 0 .171-.01.288-.019.396h-2.016zm1.369-.514c.008-.873-.316-1.261-.648-1.261-.451 0-.685.667-.711 1.261h1.359zm2.815-.369c0-.666-.026-1.053-.036-1.359h.621l.036.549h.019c.234-.459.585-.621.918-.621.766 0 1.26.802 1.26 2.242 0 1.62-.666 2.26-1.341 2.26-.414 0-.648-.252-.765-.495h-.019v2.151h-.693v-4.727zm.694 1.404c0 .126.009.252.036.36.135.621.441.729.63.729.576 0 .765-.792.765-1.666 0-.909-.215-1.665-.765-1.665-.315 0-.603.396-.64.792-.026.108-.026.216-.026.333v1.117zm5.202.604c0 .333 0 .711.045.99h-.621l-.045-.459h-.027c-.189.333-.494.531-.863.531-.586 0-1.036-.486-1.036-1.242 0-1.099.874-1.576 1.854-1.585v-.135c0-.585-.145-.99-.693-.99-.27 0-.513.081-.72.225l-.153-.486c.189-.135.586-.288 1.018-.288.873 0 1.242.576 1.242 1.549v1.89zm-.676-1.27c-.359 0-1.197.072-1.197 1.018 0 .576.289.774.531.774.307 0 .559-.226.64-.657.019-.081.026-.171.026-.252v-.883zm1.926-2.098l.576 2.503c.082.342.117.621.181.9h.019c.045-.252.116-.576.188-.892l.513-2.512h.685l-.711 2.8c-.271 1.09-.567 2.143-1.081 2.809-.306.388-.63.586-.783.657l-.252-.585c.198-.117.424-.306.613-.549.18-.234.323-.522.396-.738a.578.578 0 0 0 .045-.216c0-.055 0-.108-.019-.162l-1.098-4.016h.728zm2.755-1.872h.692v6.229h-.692v-6.229zm2.942 6.302c-.783 0-1.413-.712-1.413-2.242 0-1.593.712-2.26 1.458-2.26.783 0 1.405.721 1.405 2.242 0 1.692-.774 2.26-1.44 2.26h-.01zm.037-.55c.594 0 .72-1.017.72-1.701 0-.675-.126-1.701-.738-1.701-.621 0-.738 1.026-.738 1.701 0 .721.126 1.701.747 1.701h.009zm4.482-.512c0 .333 0 .711.045.99h-.621l-.045-.459h-.026c-.189.333-.496.531-.865.531-.585 0-1.035-.486-1.035-1.242 0-1.099.873-1.576 1.855-1.585v-.135c0-.585-.145-.99-.693-.99-.271 0-.514.081-.721.225l-.153-.486c.189-.135.585-.288 1.018-.288.873 0 1.242.576 1.242 1.549v1.89zm-.675-1.27c-.36 0-1.197.072-1.197 1.018 0 .576.287.774.531.774.306 0 .558-.226.639-.657a1.2 1.2 0 0 0 .027-.252v-.883zm4.284-3.97v5.186c0 .297.027.792.036 1.044h-.594l-.045-.54h-.037c-.135.306-.449.612-.908.612-.738 0-1.27-.792-1.27-2.233 0-1.548.639-2.269 1.314-2.269.314 0 .621.145.792.514h.019v-2.313h.693zm-.692 3.529c0-.09 0-.188-.01-.288-.035-.45-.314-.846-.648-.846-.576 0-.773.801-.773 1.674 0 .919.234 1.657.738 1.657.215 0 .513-.117.666-.747.027-.081.027-.181.027-.288v-1.162zm1.942 2.773c-.252 0-.45-.207-.45-.522 0-.306.207-.522.459-.522.271 0 .459.207.459.522s-.17.522-.459.522h-.009zm1.746 0c-.252 0-.45-.207-.45-.522 0-.306.207-.522.459-.522.271 0 .459.207.459.522s-.17.522-.459.522h-.009zm1.745 0c-.252 0-.449-.207-.449-.522 0-.306.207-.522.459-.522.27 0 .459.207.459.522s-.171.522-.459.522h-.01z"/><path fill="none" stroke="#c1272d" stroke-width="2" d="M8.013 204.333h254.74" stroke-linecap="round" stroke-linejoin="round"/><path fill="#c1272d" d="M261.585 208.334l6.909-3.988-6.909-3.99z"/><path fill="none" stroke="#c1272d" stroke-width="2" d="M267.753 214.442H13.013" stroke-linecap="round" stroke-linejoin="round"/><path fill="#c1272d" d="M14.18 210.441l-6.908 3.989 6.908 3.989z"/><path fill="#b2dec7" fill-rule="evenodd" stroke="#000" d="M21.428 210.23h13.964v8.424H21.428zm172.773 0h13.964v8.424h-13.964zm42.794-10.109h13.964v8.424h-13.964zm-88.211 0h13.964v8.424h-13.964z" clip-rule="evenodd" stroke-linecap="round" stroke-linejoin="round"/></svg>