<svg fill="none" height="176" stroke-linecap="square" stroke-miterlimit="10" viewBox="0 0 957 176" width="957" xmlns="http://www.w3.org/2000/svg" xmlns:xlink="http://www.w3.org/1999/xlink"><clipPath id="a"><path d="m0 0h957v176h-957z"/></clipPath><path d="m0 0h957v176h-957z" fill="#fff"/><path clip-path="url(#a)" d="m0 56h957v24h-957z" fill="#f5f5f5"/><path clip-path="url(#a)" d="m0 104h957v24h-957z" fill="#f5f5f5"/><path clip-path="url(#a)" d="m.5 32.5h183v24h-183z" stroke="#eee" stroke-linecap="butt"/><path clip-path="url(#a)" d="m12.953125 40.765625h-2.96875v8.234375h-1.203125v-8.234375h-2.96875v-1.015625h7.140625zm1.125 4.734375q0-1 .390625-1.8125.40625-.8125 1.109375-1.25.703125-.4375 1.609375-.4375 1.40625 0 2.265625.984375.875.96875.875 2.578125v.078125q0 1-.390625 1.796875-.375.796875-1.09375 1.25-.703125.4375-1.640625.4375-1.390625 0-2.265625-.96875-.859375-.96875-.859375-2.578125zm1.1875.140625q0 1.140625.515625 1.84375.53125.6875 1.421875.6875.90625 0 1.421875-.703125.53125-.703125.53125-1.96875 0-1.125-.546875-1.828125-.53125-.703125-1.421875-.703125-.859375 0-1.390625.703125-.53125.6875-.53125 1.96875zm7.71875-5.171875v1.65625h1.28125v.921875h-1.28125v4.25q0 .421875.171875.625.171875.203125.578125.203125.203125 0 .5625-.078125v.953125q-.46875.125-.90625.125-.78125 0-1.1875-.46875-.390625-.484375-.390625-1.359375v-4.25h-1.25v-.921875h1.25v-1.65625zm6.640625 8.53125q-.09375-.203125-.15625-.71875-.828125.84375-1.953125.84375-1.015625 0-1.671875-.5625-.65625-.578125-.65625-1.46875 0-1.078125.8125-1.671875.828125-.59375 2.296875-.59375h1.140625v-.53125q0-.609375-.375-.96875-.359375-.375-1.078125-.375-.625 0-1.046875.3125-.421875.3125-.421875.765625h-1.1875q0-.515625.359375-.984375.375-.484375 1-.765625.625-.28125 1.375-.28125 1.1875 0 1.859375.59375.671875.59375.703125 1.640625v3.15625q0 .953125.234375 1.5v.109375zm-1.9375-.890625q.546875 0 1.03125-.28125.5-.296875.71875-.75v-1.40625h-.90625q-2.171875 0-2.171875 1.265625 0 .546875.375.859375.375.3125.953125.3125zm5.984375.890625h-1.1875v-9.75h1.1875z" fill="#3c4043"/><path clip-path="url(#a)" d="m.5 56.5h183v24h-183z" stroke="#eee" stroke-linecap="butt"/><path clip-path="url(#a)" d="m8.65625 71.40625 1.703125-5.28125h1.203125l-2.46875 6.875h-.890625l-2.5-6.875h1.203125zm9.21875-5.234375q0 .6875-.375 1.234375-.359375.53125-.984375.84375.734375.3125 1.15625.90625.421875.59375.421875 1.34375 0 1.203125-.8125 1.921875-.8125.703125-2.125.703125-1.34375 0-2.140625-.703125-.796875-.71875-.796875-1.921875 0-.75.40625-1.34375.40625-.609375 1.125-.921875-.609375-.296875-.96875-.828125-.359375-.546875-.359375-1.234375 0-1.171875.75-1.859375.75-.6875 1.984375-.6875 1.21875 0 1.96875.6875.75.6875.75 1.859375zm-.953125 4.3125q0-.78125-.5-1.265625-.484375-.484375-1.28125-.484375-.796875 0-1.28125.484375-.46875.46875-.46875 1.265625 0 .78125.453125 1.234375.46875.453125 1.3125.453125.8125 0 1.28125-.453125.484375-.453125.484375-1.234375zm-1.765625-5.890625q-.703125 0-1.140625.4375-.421875.421875-.421875 1.15625 0 .703125.421875 1.140625.4375.4375 1.140625.4375.703125 0 1.125-.4375.421875-.4375.421875-1.140625 0-.703125-.4375-1.140625-.4375-.453125-1.109375-.453125zm4.265625 7.796875q0-.3125.171875-.515625.1875-.203125.546875-.203125.359375 0 .546875.203125.1875.203125.1875.515625 0 .28125-.1875.484375-.1875.1875-.546875.1875-.359375 0-.546875-.1875-.171875-.203125-.171875-.484375zm6.28125-5.203125q-.265625-.046875-.578125-.046875-1.15625 0-1.5625.984375v4.875h-1.171875v-6.875h1.140625l.015625.796875q.578125-.921875 1.640625-.921875.34375 0 .515625.09375zm4.921875 5.140625q-.6875.796875-2.015625.796875-1.09375 0-1.671875-.640625-.5625-.640625-.578125-1.890625v-4.46875h1.171875v4.4375q0 1.5625 1.28125 1.5625 1.34375 0 1.78125-1v-5h1.171875v6.875h-1.109375zm3.875-6.203125.03125.875q.796875-1 2.0625-1 2.171875 0 2.203125 2.46875v4.53125h-1.1875v-4.546875q0-.734375-.34375-1.09375-.328125-.359375-1.03125-.359375-.5625 0-1 .3125-.4375.296875-.671875.796875v4.890625h-1.171875v-6.875z" fill="#3c4043"/><path clip-path="url(#a)" d="m.5 80.5h183v24h-183z" stroke="#eee" stroke-linecap="butt"/><path clip-path="url(#a)" d="m9.625 95.375 2.640625-7.625h1.34375l-3.4375 9.25h-1.078125l-3.421875-9.25h1.328125zm10.25-5.203125q0 .6875-.375 1.234375-.359375.53125-.984375.84375.734375.3125 1.15625.90625.421875.59375.421875 1.34375 0 1.203125-.8125 1.921875-.8125.703125-2.125.703125-1.34375 0-2.140625-.703125-.796875-.71875-.796875-1.921875 0-.75.40625-1.34375.40625-.609375 1.125-.921875-.609375-.296875-.96875-.828125-.359375-.546875-.359375-1.234375 0-1.171875.75-1.859375.75-.6875 1.984375-.6875 1.21875 0 1.96875.6875.75.6875.75 1.859375zm-.953125 4.3125q0-.78125-.5-1.265625-.484375-.484375-1.28125-.484375-.796875 0-1.28125.484375-.46875.46875-.46875 1.265625 0 .78125.453125 1.234375.46875.453125 1.3125.453125.8125 0 1.28125-.453125.484375-.453125.484375-1.234375zm-1.765625-5.890625q-.703125 0-1.140625.4375-.421875.421875-.421875 1.15625 0 .703125.421875 1.140625.4375.4375 1.140625.4375.703125 0 1.125-.4375.421875-.4375.421875-1.140625 0-.703125-.4375-1.140625-.4375-.453125-1.109375-.453125zm4.265625 7.796875q0-.3125.171875-.515625.1875-.203125.546875-.203125.359375 0 .546875.203125.1875.203125.1875.515625 0 .28125-.1875.484375-.1875.1875-.546875.1875-.359375 0-.546875-.1875-.171875-.203125-.171875-.484375zm8.375-3.65625h-4v3.265625h4.640625v1h-5.859375v-9.25h5.796875v1.015625h-4.578125v2.96875h4zm3.890625-.09375 1.53125-2.515625h1.375l-2.25 3.40625 2.3125 3.46875h-1.359375l-1.578125-2.578125-1.59375 2.578125h-1.359375l2.3125-3.46875-2.25-3.40625h1.359375zm6.546875 4.484375q-1.390625 0-2.265625-.90625-.875-.921875-.875-2.46875v-.203125q0-1.03125.390625-1.828125.390625-.8125 1.09375-1.265625.703125-.453125 1.515625-.453125 1.34375 0 2.078125.890625.75.875.75 2.515625v.5h-4.65625q.03125 1.015625.59375 1.640625.5625.625 1.4375.625.625 0 1.046875-.25.4375-.265625.765625-.6875l.71875.5625q-.859375 1.328125-2.59375 1.328125zm-.140625-6.15625q-.71875 0-1.203125.515625-.46875.515625-.59375 1.453125h3.453125v-.09375q-.0625-.890625-.5-1.375-.421875-.5-1.15625-.5zm7.046875 5.203125q.625 0 1.09375-.375.484375-.390625.53125-.96875h1.109375q-.03125.59375-.40625 1.125-.375.53125-1 .859375-.625.3125-1.328125.3125-1.40625 0-2.234375-.9375-.828125-.9375-.828125-2.5625v-.1875q0-1.015625.375-1.78125.375-.78125 1.0625-1.21875.6875-.4375 1.625-.4375 1.15625 0 1.921875.703125.765625.6875.8125 1.796875h-1.109375q-.046875-.671875-.515625-1.09375-.453125-.4375-1.109375-.4375-.890625 0-1.390625.65625-.484375.640625-.484375 1.859375v.21875q0 1.1875.484375 1.828125.484375.640625 1.390625.640625zm8.484375.15625q-.6875.796875-2.015625.796875-1.09375 0-1.671875-.640625-.5625-.640625-.578125-1.890625v-4.46875h1.171875v4.4375q0 1.5625 1.28125 1.5625 1.34375 0 1.78125-1v-5h1.171875v6.875h-1.109375zm4.359375-7.859375v1.65625h1.28125v.921875h-1.28125v4.25q0 .421875.171875.625.171875.203125.578125.203125.203125 0 .5625-.078125v.953125q-.46875.125-.90625.125-.78125 0-1.1875-.46875-.390625-.484375-.390625-1.359375v-4.25h-1.25v-.921875h1.25v-1.65625zm5.25 8.65625q-1.390625 0-2.265625-.90625-.875-.921875-.875-2.46875v-.203125q0-1.03125.390625-1.828125.390625-.8125 1.09375-1.265625.703125-.453125 1.515625-.453125 1.34375 0 2.078125.890625.75.875.75 2.515625v.5h-4.65625q.03125 1.015625.59375 1.640625.5625.625 1.4375.625.625 0 1.046875-.25.4375-.265625.765625-.6875l.71875.5625q-.859375 1.328125-2.59375 1.328125zm-.140625-6.15625q-.71875 0-1.203125.515625-.46875.515625-.59375 1.453125h3.453125v-.09375q-.0625-.890625-.5-1.375-.421875-.5-1.15625-.5z" fill="#3c4043"/><path clip-path="url(#a)" d="m.5 104.5h183v24h-183z" stroke="#eee" stroke-linecap="butt"/><path clip-path="url(#a)" d="m8.65625 119.40625 1.703125-5.28125h1.203125l-2.46875 6.875h-.890625l-2.5-6.875h1.203125zm9.21875-5.234375q0 .6875-.375 1.234375-.359375.53125-.984375.84375.734375.3125 1.15625.90625.421875.59375.421875 1.34375 0 1.203125-.8125 1.921875-.8125.703125-2.125.703125-1.34375 0-2.140625-.703125-.796875-.71875-.796875-1.921875 0-.75.40625-1.34375.40625-.609375 1.125-.921875-.609375-.296875-.96875-.828125-.359375-.546875-.359375-1.234375 0-1.171875.75-1.859375.75-.6875 1.984375-.6875 1.21875 0 1.96875.6875.75.6875.75 1.859375zm-.953125 4.3125q0-.78125-.5-1.265625-.484375-.484375-1.28125-.484375-.796875 0-1.28125.484375-.46875.46875-.46875 1.265625 0 .78125.453125 1.234375.46875.453125 1.3125.453125.8125 0 1.28125-.453125.484375-.453125.484375-1.234375zm-1.765625-5.890625q-.703125 0-1.140625.4375-.421875.421875-.421875 1.15625 0 .703125.421875 1.140625.4375.4375 1.140625.4375.703125 0 1.125-.4375.421875-.4375.421875-1.140625 0-.703125-.4375-1.140625-.4375-.453125-1.109375-.453125zm4.265625 7.796875q0-.3125.171875-.515625.1875-.203125.546875-.203125.359375 0 .546875.203125.1875.203125.1875.515625 0 .28125-.1875.484375-.1875.1875-.546875.1875-.359375 0-.546875-.1875-.171875-.203125-.171875-.484375zm5.71875-.21875q.625 0 1.09375-.375.484375-.390625.53125-.96875h1.109375q-.03125.59375-.40625 1.125-.375.53125-1 .859375-.625.3125-1.328125.3125-1.40625 0-2.234375-.9375-.828125-.9375-.828125-2.5625v-.1875q0-1.015625.375-1.78125.375-.78125 1.0625-1.21875.6875-.4375 1.625-.4375 1.15625 0 1.921875.703125.765625.6875.8125 1.796875h-1.109375q-.046875-.671875-.515625-1.09375-.453125-.4375-1.109375-.4375-.890625 0-1.390625.65625-.484375.640625-.484375 1.859375v.21875q0 1.1875.484375 1.828125.484375.640625 1.390625.640625zm8.484375.828125q-.09375-.203125-.15625-.71875-.828125.84375-1.953125.84375-1.015625 0-1.671875-.5625-.65625-.578125-.65625-1.46875 0-1.078125.8125-1.671875.828125-.59375 2.296875-.59375h1.140625v-.53125q0-.609375-.375-.96875-.359375-.375-1.078125-.375-.625 0-1.046875.3125-.421875.3125-.421875.765625h-1.1875q0-.515625.359375-.984375.375-.484375 1-.765625.625-.28125 1.375-.28125 1.1875 0 1.859375.59375.671875.59375.703125 1.640625v3.15625q0 .953125.234375 1.5v.109375zm-1.9375-.890625q.546875 0 1.03125-.28125.5-.296875.71875-.75v-1.40625h-.90625q-2.171875 0-2.171875 1.265625 0 .546875.375.859375.375.3125.953125.3125zm5.984375.890625h-1.1875v-9.75h1.1875zm3 0h-1.1875v-9.75h1.1875zm7-4.078125h-3.875v4.078125h-1.21875v-9.25h5.71875v1.015625h-4.5v3.15625h3.875zm5.953125 3.40625q-.6875.796875-2.015625.796875-1.09375 0-1.671875-.640625-.5625-.640625-.578125-1.890625v-4.46875h1.171875v4.4375q0 1.5625 1.28125 1.5625 1.34375 0 1.78125-1v-5h1.171875v6.875h-1.109375zm3.875-6.203125.03125.875q.796875-1 2.0625-1 2.171875 0 2.203125 2.46875v4.53125h-1.1875v-4.546875q0-.734375-.34375-1.09375-.328125-.359375-1.03125-.359375-.5625 0-1 .3125-.4375.296875-.671875.796875v4.890625h-1.171875v-6.875zm8.640625 6.046875q.625 0 1.09375-.375.484375-.390625.53125-.96875h1.109375q-.03125.59375-.40625 1.125-.375.53125-1 .859375-.625.3125-1.328125.3125-1.40625 0-2.234375-.9375-.828125-.9375-.828125-2.5625v-.1875q0-1.015625.375-1.78125.375-.78125 1.0625-1.21875.6875-.4375 1.625-.4375 1.15625 0 1.921875.703125.765625.6875.8125 1.796875h-1.109375q-.046875-.671875-.515625-1.09375-.453125-.4375-1.109375-.4375-.890625 0-1.390625.65625-.484375.640625-.484375 1.859375v.21875q0 1.1875.484375 1.828125.484375.640625 1.390625.640625zm5.84375-7.703125v1.65625h1.28125v.921875h-1.28125v4.25q0 .421875.171875.625.171875.203125.578125.203125.203125 0 .5625-.078125v.953125q-.46875.125-.90625.125-.78125 0-1.1875-.46875-.390625-.484375-.390625-1.359375v-4.25h-1.25v-.921875h1.25v-1.65625zm3.6875 8.53125h-1.1875v-6.875h1.1875zm-1.28125-8.6875q0-.28125.171875-.484375.1875-.203125.53125-.203125.34375 0 .515625.203125.171875.203125.171875.484375 0 .28125-.171875.46875-.171875.1875-.515625.1875-.34375 0-.53125-.1875-.171875-.1875-.171875-.46875zm2.6875 5.1875q0-1 .390625-1.8125.40625-.8125 1.109375-1.25.703125-.4375 1.609375-.4375 1.40625 0 2.265625.984375.875.96875.875 2.578125v.078125q0 1-.390625 1.796875-.375.796875-1.09375 1.25-.703125.4375-1.640625.4375-1.390625 0-2.265625-.96875-.859375-.96875-.859375-2.578125zm1.1875.140625q0 1.140625.515625 1.84375.53125.6875 1.421875.6875.90625 0 1.421875-.703125.53125-.703125.53125-1.96875 0-1.125-.546875-1.828125-.53125-.703125-1.421875-.703125-.859375 0-1.390625.703125-.53125.6875-.53125 1.96875zm7.234375-3.515625.03125.875q.796875-1 2.0625-1 2.171875 0 2.203125 2.46875v4.53125h-1.1875v-4.546875q0-.734375-.34375-1.09375-.328125-.359375-1.03125-.359375-.5625 0-1 .3125-.4375.296875-.671875.796875v4.890625h-1.171875v-6.875z" fill="#3c4043"/><path clip-path="url(#a)" d="m.5 128.5h183v24h-183z" stroke="#eee" stroke-linecap="butt"/><path clip-path="url(#a)" d="m8.65625 143.40625 1.703125-5.28125h1.203125l-2.46875 6.875h-.890625l-2.5-6.875h1.203125zm9.21875-5.23437q0 .6875-.375 1.23437-.359375.53125-.984375.84375.734375.3125 1.15625.90625.421875.59375.421875 1.34375 0 1.20312-.8125 1.92188-.8125.70312-2.125.70312-1.34375 0-2.140625-.70312-.796875-.71876-.796875-1.92188 0-.75.40625-1.34375.40625-.60937 1.125-.92187-.609375-.29688-.96875-.82813-.359375-.54687-.359375-1.23437 0-1.17188.75-1.85938.75-.6875 1.984375-.6875 1.21875 0 1.96875.6875.75.6875.75 1.85938zm-.953125 4.3125q0-.78126-.5-1.26563-.484375-.48437-1.28125-.48437-.796875 0-1.28125.48437-.46875.46875-.46875 1.26563 0 .78124.453125 1.23437.46875.45313 1.3125.45313.8125 0 1.28125-.45313.484375-.45313.484375-1.23437zm-1.765625-5.89063q-.703125 0-1.140625.4375-.421875.42187-.421875 1.15625 0 .70312.421875 1.14062.4375.4375 1.140625.4375.703125 0 1.125-.4375.421875-.4375.421875-1.14062 0-.70312-.4375-1.14062-.4375-.45313-1.109375-.45313zm4.265625 7.79687q0-.3125.171875-.51562.1875-.20312.546875-.20312.359375 0 .546875.20312.1875.20312.1875.51562 0 .28126-.1875.48438-.1875.1875-.546875.1875-.359375 0-.546875-.1875-.171875-.20312-.171875-.48438zm5.71875-.21874q.625 0 1.09375-.375.484375-.39063.53125-.96876h1.109375q-.03125.59376-.40625 1.125-.375.53126-1 .85938-.625.3125-1.328125.3125-1.40625 0-2.234375-.9375-.828125-.9375-.828125-2.5625v-.1875q0-1.01562.375-1.78125.375-.78125 1.0625-1.21875.6875-.4375 1.625-.4375 1.15625 0 1.921875.70312.765625.6875.8125 1.79688h-1.109375q-.046875-.67188-.515625-1.09375-.453125-.4375-1.109375-.4375-.890625 0-1.390625.65625-.484375.64062-.484375 1.85938v.21874q0 1.1875.484375 1.82813.484375.64063 1.390625.64063zm3.9375-2.67188q0-1 .390625-1.8125.40625-.8125 1.109375-1.25.703125-.4375 1.609375-.4375 1.40625 0 2.265625.98438.875.96874.875 2.57812v.07812q0 1-.390625 1.79688-.375.79688-1.09375 1.25-.703125.4375-1.640625.4375-1.390625 0-2.265625-.96875-.859375-.96875-.859375-2.57813zm1.1875.14062q0 1.14063.515625 1.84376.53125.6875 1.421875.6875.90625 0 1.421875-.70313.53125-.70313.53125-1.96875 0-1.125-.546875-1.82812-.53125-.70313-1.421875-.70313-.859375 0-1.390625.70313-.53125.6875-.53125 1.96874zm7.234375-3.51562.03125.76562q.75-.89062 2.03125-.89062 1.4375 0 1.96875 1.10938.328125-.5.875-.79688.5625-.3125 1.3125-.3125 2.25 0 2.296875 2.39062v4.60938h-1.171875v-4.53125q0-.73437-.34375-1.09375-.328125-.375-1.125-.375-.65625 0-1.09375.39062-.421875.39063-.5 1.04688v4.5625h-1.171875v-4.5q0-1.5-1.46875-1.5-1.15625 0-1.578125.98438v5.01562h-1.1875v-6.875zm15.6875 3.51562q0 1.5625-.71875 2.53126-.71875.95312-1.9375.95312-1.25 0-1.96875-.79688v3.3125h-1.171875v-9.51562h1.078125l.046875.76562q.71875-.89062 2-.89062 1.234375 0 1.953125.9375.71875.9375.71875 2.59375zm-1.171875-.125q0-1.17187-.5-1.84374-.484375-.67188-1.359375-.67188-1.0625 0-1.59375.95312v3.28126q.53125.9375 1.609375.9375.84375 0 1.34375-.67188.5-.67188.5-1.98438zm3.65625 3.48438h-1.1875v-6.875h1.1875zm-1.28125-8.6875q0-.28125.171875-.48438.1875-.20312.53125-.20312.34375 0 .515625.20312.171875.20313.171875.48438 0 .28125-.171875.46875-.171875.1875-.515625.1875-.34375 0-.53125-.1875-.171875-.1875-.171875-.46875zm4.28125 8.6875h-1.1875v-9.75h1.1875zm4.5625.125q-1.390625 0-2.265625-.90625-.875-.92187-.875-2.46875v-.20312q0-1.03126.390625-1.82813.390625-.8125 1.09375-1.26563.703125-.45312 1.515625-.45312 1.34375 0 2.078125.89062.75.875.75 2.51563v.5h-4.65625q.03125 1.01563.59375 1.64063.5625.625 1.4375.625.625 0 1.046875-.25.4375-.26563.765625-.6875l.71875.5625q-.859375 1.32812-2.59375 1.32812zm-.140625-6.15625q-.71875 0-1.203125.51563-.46875.51562-.59375 1.45312h3.453125v-.09375q-.0625-.89063-.5-1.375-.421875-.5-1.15625-.5z" fill="#3c4043"/><path clip-path="url(#a)" d="m183.5 32.5h216v24h-216z" stroke="#eee" stroke-linecap="butt"/><path clip-path="url(#a)" d="m344.125 49h-1.17188v-7.828125l-2.375.875v-1.078125l3.35938-1.25h.1875zm7 0h-1.17188v-7.828125l-2.375.875v-1.078125l3.35938-1.25h.1875zm3.21875 1.84375-.65625-.453125q.59375-.84375.625-1.71875v-1.0625h1.14062v.921875q0 .640625-.3125 1.28125-.3125.640625-.79687 1.03125zm8.98437-1.84375h-6.0625v-.84375l3.20313-3.5625q.70313-.796875.96875-1.296875.28125-.515625.28125-1.046875 0-.734375-.4375-1.1875-.4375-.46875-1.17187-.46875-.875 0-1.35938.5-.48438.5-.48438 1.390625h-1.17187q0-1.28125.8125-2.0625.82813-.796875 2.20313-.796875 1.29687 0 2.04687.6875.75.671875.75 1.796875 0 1.359375-1.75 3.25l-2.46875 2.6875h4.64062zm4.79688 0h-1.17188v-7.828125l-2.375.875v-1.078125l3.35938-1.25h.1875zm4.84375-5.1875h.89063q.82812-.015625 1.29687-.4375.48437-.4375.48437-1.15625 0-1.625-1.625-1.625-.75 0-1.20312.4375-.45312.4375-.45312 1.15625h-1.1875q0-1.109375.79687-1.828125.8125-.734375 2.04687-.734375 1.3125 0 2.04688.703125.75.6875.75 1.921875 0 .59375-.39062 1.171875-.39063.5625-1.0625.84375.76562.234375 1.17187.796875.42187.546875.42187 1.359375 0 1.25-.8125 1.984375-.8125.71875-2.10937.71875-1.29687 0-2.125-.703125-.8125-.703125-.8125-1.859375h1.1875q0 .734375.46875 1.171875.48438.4375 1.28125.4375.84375 0 1.29687-.4375.45313-.453125.45313-1.28125 0-.8125-.5-1.234375-.48437-.4375-1.42187-.453125h-.89063zm5.45313 4.578125q0-.3125.17187-.515625.1875-.203125.54687-.203125.35938 0 .54688.203125.1875.203125.1875.515625 0 .28125-.1875.484375-.1875.1875-.54688.1875-.35937 0-.54687-.1875-.17187-.203125-.17187-.484375zm6.70312.609375h-1.17188v-7.828125l-2.375.875v-1.078125l3.35938-1.25h.1875zm7.64062-4.0625q-.35937.4375-.875.703125-.51562.265625-1.125.265625-.79687 0-1.39062-.390625-.59375-.390625-.92188-1.109375-.3125-.71875-.3125-1.578125 0-.921875.34376-1.65625.35937-.75 1-1.140625.65624-.40625 1.51562-.40625 1.375 0 2.15625 1.03125.79687 1.03125.79687 2.796875v.34375q0 2.703125-1.07812 3.9375-1.0625 1.234375-3.20312 1.265625h-.23438v-.984375h.25q1.45312-.03125 2.23438-.75.78124-.734375.84374-2.328125zm-1.8125 0q.59376 0 1.09376-.359375.5-.359375.73437-.890625v-.484375q0-1.140625-.51563-1.859375-.5-.734375-1.26562-.734375-.76562 0-1.23438.59375-.46874.59375-.46874 1.5625 0 .953125.45312 1.5625.45312.609375 1.20312.609375z" fill="#3c4043"/><path clip-path="url(#a)" d="m183.5 56.5h216v24h-216z" stroke="#eee" stroke-linecap="butt"/><path clip-path="url(#a)" d="m362.21875 69.890625h1.29687v.96875h-1.29687v2.140625h-1.17187v-2.140625h-4.20313v-.703125l4.125-6.40625h1.25zm-4.04687 0h2.875v-4.53125l-.14063.265625zm10.59374-.953125q-.35937.4375-.875.703125-.51562.265625-1.125.265625-.79687 0-1.39062-.390625-.59375-.390625-.92188-1.109375-.3125-.71875-.3125-1.578125 0-.921875.34376-1.65625.35937-.75 1-1.140625.65624-.40625 1.51562-.40625 1.375 0 2.15625 1.03125.79687 1.03125.79687 2.796875v.34375q0 2.703125-1.07812 3.9375-1.0625 1.234375-3.20312 1.265625h-.23438v-.984375h.25q1.45312-.03125 2.23438-.75.78124-.734375.84374-2.328125zm-1.8125 0q.59376 0 1.09376-.359375.5-.359375.73437-.890625v-.484375q0-1.140625-.51563-1.859375-.5-.734375-1.26562-.734375-.76562 0-1.23438.59375-.46874.59375-.46874 1.5625 0 .953125.45312 1.5625.45312.609375 1.20312.609375zm8.8125 0q-.35937.4375-.875.703125-.51562.265625-1.125.265625-.79687 0-1.39062-.390625-.59375-.390625-.92188-1.109375-.3125-.71875-.3125-1.578125 0-.921875.34376-1.65625.35937-.75 1-1.140625.65624-.40625 1.51562-.40625 1.375 0 2.15625 1.03125.79687 1.03125.79687 2.796875v.34375q0 2.703125-1.07812 3.9375-1.0625 1.234375-3.20312 1.265625h-.23438v-.984375h.25q1.45312-.03125 2.23438-.75.78124-.734375.84374-2.328125zm-1.8125 0q.59376 0 1.09376-.359375.5-.359375.73437-.890625v-.484375q0-1.140625-.51563-1.859375-.5-.734375-1.26562-.734375-.76562 0-1.23438.59375-.46874.59375-.46874 1.5625 0 .953125.45312 1.5625.45312.609375 1.20312.609375zm4.46876 3.453125q0-.3125.17187-.515625.1875-.203125.54687-.203125.35938 0 .54688.203125.1875.203125.1875.515625 0 .28125-.1875.484375-.1875.1875-.54688.1875-.35937 0-.54687-.1875-.17187-.203125-.17187-.484375zm7.45312-8.640625v1h-.21875q-1.35937.015625-2.17187.8125-.8125.78125-.95313 2.21875.73437-.84375 2-.84375 1.20313 0 1.92187.859375.71876.84375.71876 2.1875 0 1.421875-.78126 2.28125-.76562.859375-2.07812.859375-1.32812 0-2.15625-1.015625-.8125-1.015625-.8125-2.625v-.453125q0-2.546875 1.07813-3.890625 1.09374-1.359375 3.25-1.390625zm-1.54688 4.171875q-.59374 0-1.10937.359375-.5.359375-.70313.90625v.421875q0 1.15625.51563 1.859375.51563.6875 1.28125.6875.79688 0 1.25-.578125.45312-.59375.45312-1.53125 0-.953125-.46874-1.53125-.45313-.59375-1.21876-.59375zm9.90626-3.5-3.82813 8.578125h-1.23437l3.8125-8.28125h-5v-.96875h6.25z" fill="#3c4043"/><path clip-path="url(#a)" d="m183.5 80.5h216v24h-216z" stroke="#eee" stroke-linecap="butt"/><path clip-path="url(#a)" d="m351.125 97h-1.17188v-7.828125l-2.375.875v-1.078125l3.35938-1.25h.1875zm3.21875 1.84375-.65625-.453125q.59375-.84375.625-1.71875v-1.0625h1.14062v.921875q0 .640625-.3125 1.28125-.3125.640625-.79687 1.03125zm7.53125-11.09375v1h-.21875q-1.35937.015625-2.17187.8125-.8125.78125-.95313 2.21875.73437-.84375 2-.84375 1.20313 0 1.92187.859375.71876.84375.71876 2.1875 0 1.421875-.78126 2.28125-.76562.859375-2.07812.859375-1.32812 0-2.15625-1.015625-.8125-1.015625-.8125-2.625v-.453125q0-2.546875 1.07813-3.890625 1.09374-1.359375 3.25-1.390625zm-1.54688 4.171875q-.59374 0-1.10937.359375-.5.359375-.70313.90625v.421875q0 1.15625.51563 1.859375.51563.6875 1.28125.6875.79688 0 1.25-.578125.45312-.59375.45312-1.53125 0-.953125-.46874-1.53125-.45313-.59375-1.21876-.59375zm4.48438.4375.46875-4.609375h4.73437v1.09375h-3.73437l-.28125 2.515625q.67188-.390625 1.53125-.390625 1.26563 0 2 .828125.75.828125.75 2.25 0 1.4375-.76563 2.265625-.76562.8125-2.15624.8125-1.21876 0-2-.671875-.78126-.6875-.875-1.890625h1.10937q.10937.796875.5625 1.203125.45313.40625 1.20313.40625.8125 0 1.28124-.5625.46876-.5625.46876-1.546875 0-.921875-.5-1.484375-.5-.5625-1.34376-.5625-.76562 0-1.20312.34375l-.3125.25zm11.40625 1.53125h1.29687v.96875h-1.29687v2.140625h-1.17187v-2.140625h-4.20313v-.703125l4.125-6.40625h1.25zm-4.04687 0h2.875v-4.53125l-.14063.265625zm6.25 2.5q0-.3125.17187-.515625.1875-.203125.54687-.203125.35938 0 .54688.203125.1875.203125.1875.515625 0 .28125-.1875.484375-.1875.1875-.54688.1875-.35937 0-.54687-.1875-.17187-.203125-.17187-.484375zm8.45312-6.21875q0 .6875-.375 1.234375-.35938.53125-.98438.84375.73438.3125 1.15626.90625.42187.59375.42187 1.34375 0 1.203125-.8125 1.921875-.8125.703125-2.125.703125-1.34375 0-2.14063-.703125-.79687-.71875-.79687-1.921875 0-.75.40625-1.34375.40625-.609375 1.125-.921875-.60938-.296875-.96875-.828125-.35937-.546875-.35937-1.234375 0-1.171875.75-1.859375.75-.6875 1.98437-.6875 1.21875 0 1.96875.6875.75.6875.75 1.859375zm-.95312 4.3125q0-.78125-.5-1.265625-.48438-.484375-1.28126-.484375-.79687 0-1.28124.484375-.46876.46875-.46876 1.265625 0 .78125.45313 1.234375.46875.453125 1.3125.453125.8125 0 1.28125-.453125.48438-.453125.48438-1.234375zm-1.76563-5.890625q-.70313 0-1.14063.4375-.42187.421875-.42187 1.15625 0 .703125.42187 1.140625.4375.4375 1.14063.4375.70313 0 1.125-.4375.42187-.4375.42187-1.140625 0-.703125-.4375-1.140625-.4375-.453125-1.10937-.453125zm10.07813-.171875-3.82813 8.578125h-1.23437l3.8125-8.28125h-5v-.96875h6.25z" fill="#3c4043"/><path clip-path="url(#a)" d="m183.5 104.5h216v24h-216z" stroke="#eee" stroke-linecap="butt"/><path clip-path="url(#a)" d="m351.125 121h-1.17188v-7.828125l-2.375.875v-1.078125l3.35938-1.25h.1875zm3.21875 1.84375-.65625-.453125q.59375-.84375.625-1.71875v-1.0625h1.14062v.921875q0 .640625-.3125 1.28125-.3125.640625-.79687 1.03125zm6.78125-1.84375h-1.17188v-7.828125l-2.375.875v-1.078125l3.35938-1.25h.1875zm9.10938-8.578125-3.82813 8.578125h-1.23437l3.8125-8.28125h-5v-.96875h6.25zm4.89062 8.578125h-1.17188v-7.828125l-2.375.875v-1.078125l3.35938-1.25h.1875zm3.29688-.609375q0-.3125.17187-.515625.1875-.203125.54687-.203125.35938 0 .54688.203125.1875.203125.1875.515625 0 .28125-.1875.484375-.1875.1875-.54688.1875-.35937 0-.54687-.1875-.17187-.203125-.17187-.484375zm8.45312-6.21875q0 .6875-.375 1.234375-.35938.53125-.98438.84375.73438.3125 1.15626.90625.42187.59375.42187 1.34375 0 1.203125-.8125 1.921875-.8125.703125-2.125.703125-1.34375 0-2.14063-.703125-.79687-.71875-.79687-1.921875 0-.75.40625-1.34375.40625-.609375 1.125-.921875-.60938-.296875-.96875-.828125-.35937-.546875-.35937-1.234375 0-1.171875.75-1.859375.75-.6875 1.98437-.6875 1.21875 0 1.96875.6875.75.6875.75 1.859375zm-.95312 4.3125q0-.78125-.5-1.265625-.48438-.484375-1.28126-.484375-.79687 0-1.28124.484375-.46876.46875-.46876 1.265625 0 .78125.45313 1.234375.46875.453125 1.3125.453125.8125 0 1.28125-.453125.48438-.453125.48438-1.234375zm-1.76563-5.890625q-.70313 0-1.14063.4375-.42187.421875-.42187 1.15625 0 .703125.42187 1.140625.4375.4375 1.14063.4375.70313 0 1.125-.4375.42187-.4375.42187-1.140625 0-.703125-.4375-1.140625-.4375-.453125-1.10937-.453125zm9.0625 5.296875h1.29687v.96875h-1.29687v2.140625h-1.17187v-2.140625h-4.20313v-.703125l4.125-6.40625h1.25zm-4.04687 0h2.875v-4.53125l-.14063.265625z" fill="#3c4043"/><path clip-path="url(#a)" d="m183.5 128.5h216v24h-216z" stroke="#eee" stroke-linecap="butt"/><path clip-path="url(#a)" d="m361.125 145h-1.17188v-7.82812l-2.375.875v-1.07813l3.35938-1.25h.1875zm4.84375-5.1875h.89063q.82812-.01562 1.29687-.4375.48437-.4375.48437-1.15625 0-1.625-1.625-1.625-.75 0-1.20312.4375-.45312.4375-.45312 1.15625h-1.1875q0-1.10938.79687-1.82812.8125-.73438 2.04687-.73438 1.3125 0 2.04688.70312.75.6875.75 1.92188 0 .59375-.39062 1.17188-.39063.5625-1.0625.84374.76562.23438 1.17187.79688.42187.54688.42187 1.35938 0 1.25-.8125 1.98437-.8125.71875-2.10937.71875-1.29687 0-2.125-.70312-.8125-.70313-.8125-1.85938h1.1875q0 .73438.46875 1.17188.48438.4375 1.28125.4375.84375 0 1.29687-.4375.45313-.45313.45313-1.28126 0-.8125-.5-1.23437-.48437-.4375-1.42187-.45313h-.89063zm7 0h.89063q.82812-.01562 1.29687-.4375.48437-.4375.48437-1.15625 0-1.625-1.625-1.625-.75 0-1.20312.4375-.45312.4375-.45312 1.15625h-1.1875q0-1.10938.79687-1.82812.8125-.73438 2.04687-.73438 1.3125 0 2.04688.70312.75.6875.75 1.92188 0 .59375-.39062 1.17188-.39063.5625-1.0625.84374.76562.23438 1.17187.79688.42187.54688.42187 1.35938 0 1.25-.8125 1.98437-.8125.71875-2.10937.71875-1.29687 0-2.125-.70312-.8125-.70313-.8125-1.85938h1.1875q0 .73438.46875 1.17188.48438.4375 1.28125.4375.84375 0 1.29687-.4375.45313-.45313.45313-1.28126 0-.8125-.5-1.23437-.48437-.4375-1.42187-.45313h-.89063zm5.45313 4.57812q0-.3125.17187-.51562.1875-.20312.54687-.20312.35938 0 .54688.20312.1875.20312.1875.51562 0 .28126-.1875.48438-.1875.1875-.54688.1875-.35937 0-.54687-.1875-.17187-.20312-.17187-.48438zm7.34374-3.45312q-.35937.4375-.875.70312-.51562.26563-1.125.26563-.79687 0-1.39062-.39063-.59375-.39062-.92188-1.10937-.3125-.71875-.3125-1.57813 0-.92187.34376-1.65624.35937-.75 1-1.14063.65624-.40625 1.51562-.40625 1.375 0 2.15625 1.03125.79687 1.03125.79687 2.79687v.34376q0 2.70312-1.07812 3.9375-1.0625 1.23437-3.20312 1.26562h-.23438v-.98438h.25q1.45312-.03124 2.23438-.75.78124-.73437.84374-2.32812zm-1.8125 0q.59376 0 1.09376-.35938.5-.35937.73437-.89062v-.48438q0-1.14062-.51563-1.85937-.5-.73437-1.26562-.73437-.76562 0-1.23438.59374-.46874.59376-.46874 1.5625 0 .95313.45312 1.5625.45312.60938 1.20312.60938zm6.01563-1.125h.89063q.82812-.01562 1.29687-.4375.48437-.4375.48437-1.15625 0-1.625-1.625-1.625-.75 0-1.20312.4375-.45312.4375-.45312 1.15625h-1.1875q0-1.10938.79687-1.82812.8125-.73438 2.04687-.73438 1.3125 0 2.04688.70312.75.6875.75 1.92188 0 .59375-.39062 1.17188-.39063.5625-1.0625.84374.76562.23438 1.17187.79688.42187.54688.42187 1.35938 0 1.25-.8125 1.98437-.8125.71875-2.10937.71875-1.29687 0-2.125-.70312-.8125-.70313-.8125-1.85938h1.1875q0 .73438.46875 1.17188.48438.4375 1.28125.4375.84375 0 1.29687-.4375.45313-.45313.45313-1.28126 0-.8125-.5-1.23437-.48437-.4375-1.42187-.45313h-.89063z" fill="#3c4043"/><path clip-path="url(#a)" d="m399.5 32.5h175v24h-175z" stroke="#eee" stroke-linecap="butt"/><path clip-path="url(#a)" d="m526.7656 44.9375q-.35935.4375-.875.703125-.5156.265625-1.125.265625-.79685 0-1.3906-.390625-.59375-.390625-.9219-1.109375-.3125-.71875-.3125-1.578125 0-.921875.3438-1.65625.35935-.75 1-1.140625.6562-.40625 1.5156-.40625 1.375 0 2.15625 1.03125.79685 1.03125.79685 2.796875v.34375q0 2.703125-1.0781 3.9375-1.0625 1.234375-3.2031 1.265625h-.2344v-.984375h.25q1.4531-.03125 2.2344-.75.7812-.734375.8437-2.328125zm-1.8125 0q.5938 0 1.0938-.359375.5-.359375.73435-.890625v-.484375q0-1.140625-.51565-1.859375-.5-.734375-1.2656-.734375-.7656 0-1.2344.59375-.4687.59375-.4687 1.5625 0 .953125.4531 1.5625.4531.609375 1.2031.609375zm4.39065 5.90625-.65625-.453125q.59375-.84375.625-1.71875v-1.0625h1.1406v.921875q0 .640625-.3125 1.28125-.3125.640625-.79685 1.03125zm7.42185-5.90625q-.35935.4375-.875.703125-.5156.265625-1.125.265625-.79685 0-1.3906-.390625-.59375-.390625-.9219-1.109375-.3125-.71875-.3125-1.578125 0-.921875.3438-1.65625.35935-.75 1-1.140625.6562-.40625 1.5156-.40625 1.375 0 2.15625 1.03125.79685 1.03125.79685 2.796875v.34375q0 2.703125-1.0781 3.9375-1.0625 1.234375-3.2031 1.265625h-.2344v-.984375h.25q1.4531-.03125 2.2344-.75.7812-.734375.8437-2.328125zm-1.8125 0q.5938 0 1.0938-.359375.5-.359375.73435-.890625v-.484375q0-1.140625-.51565-1.859375-.5-.734375-1.2656-.734375-.7656 0-1.2344.59375-.4687.59375-.4687 1.5625 0 .953125.4531 1.5625.4531.609375 1.2031.609375zm4.8594-.578125.46875-4.609375h4.73435v1.09375h-3.73435l-.28125 2.515625q.6719-.390625 1.53125-.390625 1.26565 0 2 .828125.75.828125.75 2.25 0 1.4375-.76565 2.265625-.7656.8125-2.1562.8125-1.2188 0-2-.671875-.7813-.6875-.875-1.890625h1.10935q.10935.796875.5625 1.203125.45315.40625 1.20315.40625.8125 0 1.2812-.5625.4688-.5625.4688-1.546875 0-.921875-.5-1.484375-.5-.5625-1.3438-.5625-.7656 0-1.2031.34375l-.3125.25zm8.15625-.546875h.89065q.8281-.015625 1.29685-.4375.48435-.4375.48435-1.15625 0-1.625-1.625-1.625-.75 0-1.2031.4375-.4531.4375-.4531 1.15625h-1.1875q0-1.109375.79685-1.828125.8125-.734375 2.04685-.734375 1.3125 0 2.0469.703125.75.6875.75 1.921875 0 .59375-.3906 1.171875-.39065.5625-1.0625.84375.7656.234375 1.17185.796875.42185.546875.42185 1.359375 0 1.25-.8125 1.984375-.8125.71875-2.10935.71875-1.29685 0-2.125-.703125-.8125-.703125-.8125-1.859375h1.1875q0 .734375.46875 1.171875.4844.4375 1.28125.4375.84375 0 1.29685-.4375.45315-.453125.45315-1.28125 0-.8125-.5-1.234375-.48435-.4375-1.42185-.453125h-.89065zm5.45315 4.578125q0-.3125.17185-.515625.1875-.203125.54685-.203125.3594 0 .5469.203125.1875.203125.1875.515625 0 .28125-.1875.484375-.1875.1875-.5469.1875-.35935 0-.54685-.1875-.17185-.203125-.17185-.484375zm7.3437-3.453125q-.35935.4375-.875.703125-.5156.265625-1.125.265625-.79685 0-1.3906-.390625-.59375-.390625-.9219-1.109375-.3125-.71875-.3125-1.578125 0-.921875.3438-1.65625.35935-.75 1-1.140625.6562-.40625 1.5156-.40625 1.375 0 2.15625 1.03125.79685 1.03125.79685 2.796875v.34375q0 2.703125-1.0781 3.9375-1.0625 1.234375-3.2031 1.265625h-.2344v-.984375h.25q1.4531-.03125 2.2344-.75.7812-.734375.8437-2.328125zm-1.8125 0q.5938 0 1.0938-.359375.5-.359375.73435-.890625v-.484375q0-1.140625-.51565-1.859375-.5-.734375-1.2656-.734375-.7656 0-1.2344.59375-.4687.59375-.4687 1.5625 0 .953125.4531 1.5625.4531.609375 1.2031.609375zm8.8125 0q-.35935.4375-.875.703125-.5156.265625-1.125.265625-.79685 0-1.3906-.390625-.59375-.390625-.9219-1.109375-.3125-.71875-.3125-1.578125 0-.921875.3438-1.65625.35935-.75 1-1.140625.6562-.40625 1.5156-.40625 1.375 0 2.15625 1.03125.79685 1.03125.79685 2.796875v.34375q0 2.703125-1.0781 3.9375-1.0625 1.234375-3.2031 1.265625h-.2344v-.984375h.25q1.4531-.03125 2.2344-.75.7812-.734375.8437-2.328125zm-1.8125 0q.5938 0 1.0938-.359375.5-.359375.73435-.890625v-.484375q0-1.140625-.51565-1.859375-.5-.734375-1.2656-.734375-.7656 0-1.2344.59375-.4687.59375-.4687 1.5625 0 .953125.4531 1.5625.4531.609375 1.2031.609375z" fill="#3c4043"/><path clip-path="url(#a)" d="m399.5 56.5h175v24h-175z" stroke="#eee" stroke-linecap="butt"/><path clip-path="url(#a)" d="m547.96875 67.8125h.89065q.8281-.015625 1.29685-.4375.48435-.4375.48435-1.15625 0-1.625-1.625-1.625-.75 0-1.2031.4375-.4531.4375-.4531 1.15625h-1.1875q0-1.109375.79685-1.828125.8125-.734375 2.04685-.734375 1.3125 0 2.0469.703125.75.6875.75 1.921875 0 .59375-.3906 1.171875-.39065.5625-1.0625.84375.7656.234375 1.17185.796875.42185.546875.42185 1.359375 0 1.25-.8125 1.984375-.8125.71875-2.10935.71875-1.29685 0-2.125-.703125-.8125-.703125-.8125-1.859375h1.1875q0 .734375.46875 1.171875.4844.4375 1.28125.4375.84375 0 1.29685-.4375.45315-.453125.45315-1.28125 0-.8125-.5-1.234375-.48435-.4375-1.42185-.453125h-.89065zm5.45315 4.578125q0-.3125.17185-.515625.1875-.203125.54685-.203125.3594 0 .5469.203125.1875.203125.1875.515625 0 .28125-.1875.484375-.1875.1875-.5469.1875-.35935 0-.54685-.1875-.17185-.203125-.17185-.484375zm7.4531-8.640625v1h-.21875q-1.35935.015625-2.17185.8125-.8125.78125-.95315 2.21875.73435-.84375 2-.84375 1.20315 0 1.92185.859375.7188.84375.7188 2.1875 0 1.421875-.7813 2.28125-.7656.859375-2.0781.859375-1.3281 0-2.15625-1.015625-.8125-1.015625-.8125-2.625v-.453125q0-2.546875 1.07815-3.890625 1.0937-1.359375 3.25-1.390625zm-1.5469 4.171875q-.5937 0-1.10935.359375-.5.359375-.70315.90625v.421875q0 1.15625.51565 1.859375.51565.6875 1.28125.6875.7969 0 1.25-.578125.4531-.59375.4531-1.53125 0-.953125-.4687-1.53125-.45315-.59375-1.2188-.59375zm7.7969 5.078125h-1.1719v-7.828125l-2.375.875v-1.078125l3.3594-1.25h.1875z" fill="#3c4043"/><path clip-path="url(#a)" d="m399.5 80.5h175v24h-175z" stroke="#eee" stroke-linecap="butt"/><path clip-path="url(#a)" d="m526.125 97h-1.1719v-7.828125l-2.375.875v-1.078125l3.3594-1.25h.1875zm3.21875 1.84375-.65625-.453125q.59375-.84375.625-1.71875v-1.0625h1.1406v.921875q0 .640625-.3125 1.28125-.3125.640625-.79685 1.03125zm4.625-7.03125h.89065q.8281-.015625 1.29685-.4375.48435-.4375.48435-1.15625 0-1.625-1.625-1.625-.75 0-1.2031.4375-.4531.4375-.4531 1.15625h-1.1875q0-1.109375.79685-1.828125.8125-.734375 2.04685-.734375 1.3125 0 2.0469.703125.75.6875.75 1.921875 0 .59375-.3906 1.171875-.39065.5625-1.0625.84375.7656.234375 1.17185.796875.42185.546875.42185 1.359375 0 1.25-.8125 1.984375-.8125.71875-2.10935.71875-1.29685 0-2.125-.703125-.8125-.703125-.8125-1.859375h1.1875q0 .734375.46875 1.171875.4844.4375 1.28125.4375.84375 0 1.29685-.4375.45315-.453125.45315-1.28125 0-.8125-.5-1.234375-.48435-.4375-1.42185-.453125h-.89065zm10.25 2.078125h1.29685v.96875h-1.29685v2.140625h-1.17185v-2.140625h-4.20315v-.703125l4.125-6.40625h1.25zm-4.04685 0h2.875v-4.53125l-.14065.265625zm10.5937-.953125q-.35935.4375-.875.703125-.5156.265625-1.125.265625-.79685 0-1.3906-.390625-.59375-.390625-.9219-1.109375-.3125-.71875-.3125-1.578125 0-.921875.3438-1.65625.35935-.75 1-1.140625.6562-.40625 1.5156-.40625 1.375 0 2.15625 1.03125.79685 1.03125.79685 2.796875v.34375q0 2.703125-1.0781 3.9375-1.0625 1.234375-3.2031 1.265625h-.2344v-.984375h.25q1.4531-.03125 2.2344-.75.7812-.734375.8437-2.328125zm-1.8125 0q.5938 0 1.0938-.359375.5-.359375.73435-.890625v-.484375q0-1.140625-.51565-1.859375-.5-.734375-1.2656-.734375-.7656 0-1.2344.59375-.4687.59375-.4687 1.5625 0 .953125.4531 1.5625.4531.609375 1.2031.609375zm4.4688 3.453125q0-.3125.17185-.515625.1875-.203125.54685-.203125.3594 0 .5469.203125.1875.203125.1875.515625 0 .28125-.1875.484375-.1875.1875-.5469.1875-.35935 0-.54685-.1875-.17185-.203125-.17185-.484375zm7.4531-8.640625v1h-.21875q-1.35935.015625-2.17185.8125-.8125.78125-.95315 2.21875.73435-.84375 2-.84375 1.20315 0 1.92185.859375.7188.84375.7188 2.1875 0 1.421875-.7813 2.28125-.7656.859375-2.0781.859375-1.3281 0-2.15625-1.015625-.8125-1.015625-.8125-2.625v-.453125q0-2.546875 1.07815-3.890625 1.0937-1.359375 3.25-1.390625zm-1.5469 4.171875q-.5937 0-1.10935.359375-.5.359375-.70315.90625v.421875q0 1.15625.51565 1.859375.51565.6875 1.28125.6875.7969 0 1.25-.578125.4531-.59375.4531-1.53125 0-.953125-.4687-1.53125-.45315-.59375-1.2188-.59375zm7.7969 5.078125h-1.1719v-7.828125l-2.375.875v-1.078125l3.3594-1.25h.1875z" fill="#3c4043"/><path clip-path="url(#a)" d="m399.5 104.5h175v24h-175z" stroke="#eee" stroke-linecap="butt"/><path clip-path="url(#a)" d="m526.125 121h-1.1719v-7.828125l-2.375.875v-1.078125l3.3594-1.25h.1875zm3.21875 1.84375-.65625-.453125q.59375-.84375.625-1.71875v-1.0625h1.1406v.921875q0 .640625-.3125 1.28125-.3125.640625-.79685 1.03125zm4.625-7.03125h.89065q.8281-.015625 1.29685-.4375.48435-.4375.48435-1.15625 0-1.625-1.625-1.625-.75 0-1.2031.4375-.4531.4375-.4531 1.15625h-1.1875q0-1.109375.79685-1.828125.8125-.734375 2.04685-.734375 1.3125 0 2.0469.703125.75.6875.75 1.921875 0 .59375-.3906 1.171875-.39065.5625-1.0625.84375.7656.234375 1.17185.796875.42185.546875.42185 1.359375 0 1.25-.8125 1.984375-.8125.71875-2.10935.71875-1.29685 0-2.125-.703125-.8125-.703125-.8125-1.859375h1.1875q0 .734375.46875 1.171875.4844.4375 1.28125.4375.84375 0 1.29685-.4375.45315-.453125.45315-1.28125 0-.8125-.5-1.234375-.48435-.4375-1.42185-.453125h-.89065zm7 0h.89065q.8281-.015625 1.29685-.4375.48435-.4375.48435-1.15625 0-1.625-1.625-1.625-.75 0-1.2031.4375-.4531.4375-.4531 1.15625h-1.1875q0-1.109375.79685-1.828125.8125-.734375 2.04685-.734375 1.3125 0 2.0469.703125.75.6875.75 1.921875 0 .59375-.3906 1.171875-.39065.5625-1.0625.84375.7656.234375 1.17185.796875.42185.546875.42185 1.359375 0 1.25-.8125 1.984375-.8125.71875-2.10935.71875-1.29685 0-2.125-.703125-.8125-.703125-.8125-1.859375h1.1875q0 .734375.46875 1.171875.4844.4375 1.28125.4375.84375 0 1.29685-.4375.45315-.453125.45315-1.28125 0-.8125-.5-1.234375-.48435-.4375-1.42185-.453125h-.89065zm9.79685 1.125q-.35935.4375-.875.703125-.5156.265625-1.125.265625-.79685 0-1.3906-.390625-.59375-.390625-.9219-1.109375-.3125-.71875-.3125-1.578125 0-.921875.3438-1.65625.35935-.75 1-1.140625.6562-.40625 1.5156-.40625 1.375 0 2.15625 1.03125.79685 1.03125.79685 2.796875v.34375q0 2.703125-1.0781 3.9375-1.0625 1.234375-3.2031 1.265625h-.2344v-.984375h.25q1.4531-.03125 2.2344-.75.7812-.734375.8437-2.328125zm-1.8125 0q.5938 0 1.0938-.359375.5-.359375.73435-.890625v-.484375q0-1.140625-.51565-1.859375-.5-.734375-1.2656-.734375-.7656 0-1.2344.59375-.4687.59375-.4687 1.5625 0 .953125.4531 1.5625.4531.609375 1.2031.609375zm4.4688 3.453125q0-.3125.17185-.515625.1875-.203125.54685-.203125.3594 0 .5469.203125.1875.203125.1875.515625 0 .28125-.1875.484375-.1875.1875-.5469.1875-.35935 0-.54685-.1875-.17185-.203125-.17185-.484375zm8.8125-7.96875-3.82815 8.578125h-1.23435l3.8125-8.28125h-5v-.96875h6.25zm7 0-3.82815 8.578125h-1.23435l3.8125-8.28125h-5v-.96875h6.25z" fill="#3c4043"/><path clip-path="url(#a)" d="m399.5 128.5h175v24h-175z" stroke="#eee" stroke-linecap="butt"/><path clip-path="url(#a)" d="m547.96875 139.8125h.89065q.8281-.01562 1.29685-.4375.48435-.4375.48435-1.15625 0-1.625-1.625-1.625-.75 0-1.2031.4375-.4531.4375-.4531 1.15625h-1.1875q0-1.10938.79685-1.82812.8125-.73438 2.04685-.73438 1.3125 0 2.0469.70312.75.6875.75 1.92188 0 .59375-.3906 1.17188-.39065.5625-1.0625.84374.7656.23438 1.17185.79688.42185.54688.42185 1.35938 0 1.25-.8125 1.98437-.8125.71875-2.10935.71875-1.29685 0-2.125-.70312-.8125-.70313-.8125-1.85938h1.1875q0 .73438.46875 1.17188.4844.4375 1.28125.4375.84375 0 1.29685-.4375.45315-.45313.45315-1.28126 0-.8125-.5-1.23437-.48435-.4375-1.42185-.45313h-.89065zm5.45315 4.57812q0-.3125.17185-.51562.1875-.20312.54685-.20312.3594 0 .5469.20312.1875.20312.1875.51562 0 .28126-.1875.48438-.1875.1875-.5469.1875-.35935 0-.54685-.1875-.17185-.20312-.17185-.48438zm3.3906-4.03124.46875-4.60938h4.73435v1.09375h-3.73435l-.28125 2.51563q.6719-.39063 1.53125-.39063 1.26565 0 2 .82813.75.82812.75 2.25 0 1.4375-.76565 2.26562-.7656.8125-2.1562.8125-1.2188 0-2-.67188-.7813-.6875-.875-1.89062h1.10935q.10935.79688.5625 1.20312.45315.40626 1.20315.40626.8125 0 1.2812-.5625.4688-.5625.4688-1.54688 0-.92188-.5-1.48438-.5-.5625-1.3438-.5625-.7656 0-1.2031.34376l-.3125.25zm11.0625-4.60938v1h-.21875q-1.35935.01562-2.17185.8125-.8125.78125-.95315 2.21875.73435-.84375 2-.84375 1.20315 0 1.92185.85938.7188.84374.7188 2.1875 0 1.42187-.7813 2.28124-.7656.85938-2.0781.85938-1.3281 0-2.15625-1.01562-.8125-1.01563-.8125-2.625v-.45313q0-2.54687 1.07815-3.89063 1.0937-1.35937 3.25-1.39062zm-1.5469 4.17188q-.5937 0-1.10935.35937-.5.35937-.70315.90625v.42188q0 1.15624.51565 1.85937.51565.6875 1.28125.6875.7969 0 1.25-.57813.4531-.59374.4531-1.53124 0-.95313-.4687-1.53126-.45315-.59374-1.2188-.59374z" fill="#3c4043"/><path clip-path="url(#a)" d="m574.5 32.5h120v24h-120z" stroke="#eee" stroke-linecap="butt"/><path clip-path="url(#a)" d="m640.8281 45.546875h-3.0937v-.953125h3.0937zm5.2969 3.453125h-1.1719v-7.828125l-2.375.875v-1.078125l3.3594-1.25h.1875zm3.21875 1.84375-.65625-.453125q.59375-.84375.625-1.71875v-1.0625h1.1406v.921875q0 .640625-.3125 1.28125-.3125.640625-.79685 1.03125zm8.98435-1.84375h-6.0625v-.84375l3.20315-3.5625q.70315-.796875.96875-1.296875.28125-.515625.28125-1.046875 0-.734375-.4375-1.1875-.4375-.46875-1.17185-.46875-.875 0-1.3594.5-.4844.5-.4844 1.390625h-1.17185q0-1.28125.8125-2.0625.82815-.796875 2.20315-.796875 1.29685 0 2.04685.6875.75.671875.75 1.796875 0 1.359375-1.75 3.25l-2.46875 2.6875h4.6406zm1.4844-4.640625.46875-4.609375h4.73435v1.09375h-3.73435l-.28125 2.515625q.6719-.390625 1.53125-.390625 1.26565 0 2 .828125.75.828125.75 2.25 0 1.4375-.76565 2.265625-.7656.8125-2.1562.8125-1.2188 0-2-.671875-.7813-.6875-.875-1.890625h1.10935q.10935.796875.5625 1.203125.45315.40625 1.20315.40625.8125 0 1.2812-.5625.4688-.5625.4688-1.546875 0-.921875-.5-1.484375-.5-.5625-1.3438-.5625-.7656 0-1.2031.34375l-.3125.25zm10.9531.578125q-.35935.4375-.875.703125-.5156.265625-1.125.265625-.79685 0-1.3906-.390625-.59375-.390625-.9219-1.109375-.3125-.71875-.3125-1.578125 0-.921875.3438-1.65625.35935-.75 1-1.140625.6562-.40625 1.5156-.40625 1.375 0 2.15625 1.03125.79685 1.03125.79685 2.796875v.34375q0 2.703125-1.0781 3.9375-1.0625 1.234375-3.2031 1.265625h-.2344v-.984375h.25q1.4531-.03125 2.2344-.75.7812-.734375.8437-2.328125zm-1.8125 0q.5938 0 1.0938-.359375.5-.359375.73435-.890625v-.484375q0-1.140625-.51565-1.859375-.5-.734375-1.2656-.734375-.7656 0-1.2344.59375-.4687.59375-.4687 1.5625 0 .953125.4531 1.5625.4531.609375 1.2031.609375zm4.4688 3.453125q0-.3125.17185-.515625.1875-.203125.54685-.203125.3594 0 .5469.203125.1875.203125.1875.515625 0 .28125-.1875.484375-.1875.1875-.5469.1875-.35935 0-.54685-.1875-.17185-.203125-.17185-.484375zm8.9062.609375h-6.0625v-.84375l3.20315-3.5625q.70315-.796875.96875-1.296875.28125-.515625.28125-1.046875 0-.734375-.4375-1.1875-.4375-.46875-1.17185-.46875-.875 0-1.3594.5-.4844.5-.4844 1.390625h-1.17185q0-1.28125.8125-2.0625.82815-.796875 2.20315-.796875 1.29685 0 2.04685.6875.75.671875.75 1.796875 0 1.359375-1.75 3.25l-2.46875 2.6875h4.6406zm6.7344-3.9375q0 2.0625-.7031 3.0625-.70315 1-2.20315 1-1.48435 0-2.20315-.96875-.7031-.984375-.7187-2.9375v-1.5625q0-2.046875.7031-3.03125.7031-1 2.2031-1 1.5 0 2.20315.96875.70315.953125.71875 2.9375zm-1.1719-1.609375q0-1.5-.42185-2.171875-.42185-.6875-1.32815-.6875-.8906 0-1.3125.6875-.4062.671875-.42185 2.078125v1.875q0 1.5.4375 2.21875.4375.71875 1.3125.71875.875 0 1.29685-.671875.4219-.671875.4375-2.125z" fill="#3c4043"/><path clip-path="url(#a)" d="m574.5 56.5h120v24h-120z" stroke="#eee" stroke-linecap="butt"/><path clip-path="url(#a)" d="m650.8281 69.546875h-3.0937v-.953125h3.0937zm6.39065.34375h1.29685v.96875h-1.29685v2.140625h-1.17185v-2.140625h-4.20315v-.703125l4.125-6.40625h1.25zm-4.04685 0h2.875v-4.53125l-.14065.265625zm10.5937-.953125q-.35935.4375-.875.703125-.5156.265625-1.125.265625-.79685 0-1.3906-.390625-.59375-.390625-.9219-1.109375-.3125-.71875-.3125-1.578125 0-.921875.3438-1.65625.35935-.75 1-1.140625.6562-.40625 1.5156-.40625 1.375 0 2.15625 1.03125.79685 1.03125.79685 2.796875v.34375q0 2.703125-1.0781 3.9375-1.0625 1.234375-3.2031 1.265625h-.2344v-.984375h.25q1.4531-.03125 2.2344-.75.7812-.734375.8437-2.328125zm-1.8125 0q.5938 0 1.0938-.359375.5-.359375.73435-.890625v-.484375q0-1.140625-.51565-1.859375-.5-.734375-1.2656-.734375-.7656 0-1.2344.59375-.4687.59375-.4687 1.5625 0 .953125.4531 1.5625.4531.609375 1.2031.609375zm8.9219-5.1875v1h-.21875q-1.35935.015625-2.17185.8125-.8125.78125-.95315 2.21875.73435-.84375 2-.84375 1.20315 0 1.92185.859375.7188.84375.7188 2.1875 0 1.421875-.7813 2.28125-.7656.859375-2.0781.859375-1.3281 0-2.15625-1.015625-.8125-1.015625-.8125-2.625v-.453125q0-2.546875 1.07815-3.890625 1.0937-1.359375 3.25-1.390625zm-1.5469 4.171875q-.5937 0-1.10935.359375-.5.359375-.70315.90625v.421875q0 1.15625.51565 1.859375.51565.6875 1.28125.6875.7969 0 1.25-.578125.4531-.59375.4531-1.53125 0-.953125-.4687-1.53125-.45315-.59375-1.2188-.59375zm4.0938 4.46875q0-.3125.17185-.515625.1875-.203125.54685-.203125.3594 0 .5469.203125.1875.203125.1875.515625 0 .28125-.1875.484375-.1875.1875-.5469.1875-.35935 0-.54685-.1875-.17185-.203125-.17185-.484375zm8.6406-3.328125q0 2.0625-.7031 3.0625-.70315 1-2.20315 1-1.48435 0-2.20315-.96875-.7031-.984375-.7187-2.9375v-1.5625q0-2.046875.7031-3.03125.7031-1 2.2031-1 1.5 0 2.20315.96875.70315.953125.71875 2.9375zm-1.1719-1.609375q0-1.5-.42185-2.171875-.42185-.6875-1.32815-.6875-.8906 0-1.3125.6875-.4062.671875-.42185 2.078125v1.875q0 1.5.4375 2.21875.4375.71875 1.3125.71875.875 0 1.29685-.671875.4219-.671875.4375-2.125zm6.9844-3.703125v1h-.21875q-1.35935.015625-2.17185.8125-.8125.78125-.95315 2.21875.73435-.84375 2-.84375 1.20315 0 1.92185.859375.7188.84375.7188 2.1875 0 1.421875-.7813 2.28125-.7656.859375-2.0781.859375-1.3281 0-2.15625-1.015625-.8125-1.015625-.8125-2.625v-.453125q0-2.546875 1.07815-3.890625 1.0937-1.359375 3.25-1.390625zm-1.5469 4.171875q-.5937 0-1.10935.359375-.5.359375-.70315.90625v.421875q0 1.15625.51565 1.859375.51565.6875 1.28125.6875.7969 0 1.25-.578125.4531-.59375.4531-1.53125 0-.953125-.4687-1.53125-.45315-.59375-1.2188-.59375z" fill="#3c4043"/><path clip-path="url(#a)" d="m574.5 80.5h120v24h-120z" stroke="#eee" stroke-linecap="butt"/><path clip-path="url(#a)" d="m650.8281 93.546875h-3.0937v-.953125h3.0937zm3.14065-1.734375h.89065q.8281-.015625 1.29685-.4375.48435-.4375.48435-1.15625 0-1.625-1.625-1.625-.75 0-1.2031.4375-.4531.4375-.4531 1.15625h-1.1875q0-1.109375.79685-1.828125.8125-.734375 2.04685-.734375 1.3125 0 2.0469.703125.75.6875.75 1.921875 0 .59375-.3906 1.171875-.39065.5625-1.0625.84375.7656.234375 1.17185.796875.42185.546875.42185 1.359375 0 1.25-.8125 1.984375-.8125.71875-2.10935.71875-1.29685 0-2.125-.703125-.8125-.703125-.8125-1.859375h1.1875q0 .734375.46875 1.171875.4844.4375 1.28125.4375.84375 0 1.29685-.4375.45315-.453125.45315-1.28125 0-.8125-.5-1.234375-.48435-.4375-1.42185-.453125h-.89065zm11.09375 1.25q0 2.0625-.7031 3.0625-.70315 1-2.20315 1-1.48435 0-2.20315-.96875-.7031-.984375-.7187-2.9375v-1.5625q0-2.046875.7031-3.03125.7031-1 2.2031-1 1.5 0 2.20315.96875.70315.953125.71875 2.9375zm-1.1719-1.609375q0-1.5-.42185-2.171875-.42185-.6875-1.32815-.6875-.8906 0-1.3125.6875-.4062.671875-.42185 2.078125v1.875q0 1.5.4375 2.21875.4375.71875 1.3125.71875.875 0 1.29685-.671875.4219-.671875.4375-2.125zm2.9219.90625.46875-4.609375h4.73435v1.09375h-3.73435l-.28125 2.515625q.6719-.390625 1.53125-.390625 1.26565 0 2 .828125.75.828125.75 2.25 0 1.4375-.76565 2.265625-.7656.8125-2.1562.8125-1.2188 0-2-.671875-.7813-.6875-.875-1.890625h1.10935q.10935.796875.5625 1.203125.45315.40625 1.20315.40625.8125 0 1.2812-.5625.4688-.5625.4688-1.546875 0-.921875-.5-1.484375-.5-.5625-1.3438-.5625-.7656 0-1.2031.34375l-.3125.25zm6.6094 4.03125q0-.3125.17185-.515625.1875-.203125.54685-.203125.3594 0 .5469.203125.1875.203125.1875.515625 0 .28125-.1875.484375-.1875.1875-.5469.1875-.35935 0-.54685-.1875-.17185-.203125-.17185-.484375zm8.9062.609375h-6.0625v-.84375l3.20315-3.5625q.70315-.796875.96875-1.296875.28125-.515625.28125-1.046875 0-.734375-.4375-1.1875-.4375-.46875-1.17185-.46875-.875 0-1.3594.5-.4844.5-.4844 1.390625h-1.17185q0-1.28125.8125-2.0625.82815-.796875 2.20315-.796875 1.29685 0 2.04685.6875.75.671875.75 1.796875 0 1.359375-1.75 3.25l-2.46875 2.6875h4.6406zm1.4844-4.640625.46875-4.609375h4.73435v1.09375h-3.73435l-.28125 2.515625q.6719-.390625 1.53125-.390625 1.26565 0 2 .828125.75.828125.75 2.25 0 1.4375-.76565 2.265625-.7656.8125-2.1562.8125-1.2188 0-2-.671875-.7813-.6875-.875-1.890625h1.10935q.10935.796875.5625 1.203125.45315.40625 1.20315.40625.8125 0 1.2812-.5625.4688-.5625.4688-1.546875 0-.921875-.5-1.484375-.5-.5625-1.3438-.5625-.7656 0-1.2031.34375l-.3125.25z" fill="#3c4043"/><path clip-path="url(#a)" d="m574.5 104.5h120v24h-120z" stroke="#eee" stroke-linecap="butt"/><path clip-path="url(#a)" d="m656.125 121h-1.1719v-7.828125l-2.375.875v-1.078125l3.3594-1.25h.1875zm7.75-9.25v1h-.21875q-1.35935.015625-2.17185.8125-.8125.78125-.95315 2.21875.73435-.84375 2-.84375 1.20315 0 1.92185.859375.7188.84375.7188 2.1875 0 1.421875-.7813 2.28125-.7656.859375-2.0781.859375-1.3281 0-2.15625-1.015625-.8125-1.015625-.8125-2.625v-.453125q0-2.546875 1.07815-3.890625 1.0937-1.359375 3.25-1.390625zm-1.5469 4.171875q-.5937 0-1.10935.359375-.5.359375-.70315.90625v.421875q0 1.15625.51565 1.859375.51565.6875 1.28125.6875.7969 0 1.25-.578125.4531-.59375.4531-1.53125 0-.953125-.4687-1.53125-.45315-.59375-1.2188-.59375zm9.9063-3.5-3.82815 8.578125h-1.23435l3.8125-8.28125h-5v-.96875h6.25zm1.1875 7.96875q0-.3125.17185-.515625.1875-.203125.54685-.203125.3594 0 .5469.203125.1875.203125.1875.515625 0 .28125-.1875.484375-.1875.1875-.5469.1875-.35935 0-.54685-.1875-.17185-.203125-.17185-.484375zm7.3437-3.453125q-.35935.4375-.875.703125-.5156.265625-1.125.265625-.79685 0-1.3906-.390625-.59375-.390625-.9219-1.109375-.3125-.71875-.3125-1.578125 0-.921875.3438-1.65625.35935-.75 1-1.140625.6562-.40625 1.5156-.40625 1.375 0 2.15625 1.03125.79685 1.03125.79685 2.796875v.34375q0 2.703125-1.0781 3.9375-1.0625 1.234375-3.2031 1.265625h-.2344v-.984375h.25q1.4531-.03125 2.2344-.75.7812-.734375.8437-2.328125zm-1.8125 0q.5938 0 1.0938-.359375.5-.359375.73435-.890625v-.484375q0-1.140625-.51565-1.859375-.5-.734375-1.2656-.734375-.7656 0-1.2344.59375-.4687.59375-.4687 1.5625 0 .953125.4531 1.5625.4531.609375 1.2031.609375zm9.26565.953125h1.29685v.96875h-1.29685v2.140625h-1.17185v-2.140625h-4.20315v-.703125l4.125-6.40625h1.25zm-4.04685 0h2.875v-4.53125l-.14065.265625z" fill="#3c4043"/><path clip-path="url(#a)" d="m574.5 128.5h120v24h-120z" stroke="#eee" stroke-linecap="butt"/><path clip-path="url(#a)" d="m650.8281 141.54688h-3.0937v-.95313h3.0937zm5.2969 3.45312h-1.1719v-7.82812l-2.375.875v-1.07813l3.3594-1.25h.1875zm4.84375-5.1875h.89065q.8281-.01562 1.29685-.4375.48435-.4375.48435-1.15625 0-1.625-1.625-1.625-.75 0-1.2031.4375-.4531.4375-.4531 1.15625h-1.1875q0-1.10938.79685-1.82812.8125-.73438 2.04685-.73438 1.3125 0 2.0469.70312.75.6875.75 1.92188 0 .59375-.3906 1.17188-.39065.5625-1.0625.84374.7656.23438 1.17185.79688.42185.54688.42185 1.35938 0 1.25-.8125 1.98437-.8125.71875-2.10935.71875-1.29685 0-2.125-.70312-.8125-.70313-.8125-1.85938h1.1875q0 .73438.46875 1.17188.4844.4375 1.28125.4375.84375 0 1.29685-.4375.45315-.45313.45315-1.28126 0-.8125-.5-1.23437-.48435-.4375-1.42185-.45313h-.89065zm11.09375 1.25q0 2.0625-.7031 3.0625-.70315 1-2.20315 1-1.48435 0-2.20315-.96875-.7031-.98437-.7187-2.9375v-1.5625q0-2.04687.7031-3.03125.7031-1 2.2031-1 1.5 0 2.20315.96875.70315.95313.71875 2.9375zm-1.1719-1.60938q0-1.5-.42185-2.17187-.42185-.6875-1.32815-.6875-.8906 0-1.3125.6875-.4062.67187-.42185 2.07813v1.875q0 1.5.4375 2.21874.4375.71876 1.3125.71876.875 0 1.29685-.67188.4219-.67188.4375-2.125zm2.5313 4.9375q0-.3125.17185-.51562.1875-.20312.54685-.20312.3594 0 .5469.20312.1875.20312.1875.51562 0 .28126-.1875.48438-.1875.1875-.5469.1875-.35935 0-.54685-.1875-.17185-.20312-.17185-.48438zm4.54685-4.57812h.89065q.8281-.01562 1.29685-.4375.48435-.4375.48435-1.15625 0-1.625-1.625-1.625-.75 0-1.2031.4375-.4531.4375-.4531 1.15625h-1.1875q0-1.10938.79685-1.82812.8125-.73438 2.04685-.73438 1.3125 0 2.0469.70312.75.6875.75 1.92188 0 .59375-.3906 1.17188-.39065.5625-1.0625.84374.7656.23438 1.17185.79688.42185.54688.42185 1.35938 0 1.25-.8125 1.98437-.8125.71875-2.10935.71875-1.29685 0-2.125-.70312-.8125-.70313-.8125-1.85938h1.1875q0 .73438.46875 1.17188.4844.4375 1.28125.4375.84375 0 1.29685-.4375.45315-.45313.45315-1.28126 0-.8125-.5-1.23437-.48435-.4375-1.42185-.45313h-.89065zm11.26565-3.39062-3.82815 8.57812h-1.23435l3.8125-8.28125h-5v-.96875h6.25z" fill="#3c4043"/><path clip-path="url(#a)" d="m694.5 32.5h263v24h-263z" stroke="#eee" stroke-linecap="butt"/><path clip-path="url(#a)" d="m916.125 49h-1.1719v-7.828125l-2.375.875v-1.078125l3.3594-1.25h.1875zm9.2031 0h-6.0625v-.84375l3.20315-3.5625q.70315-.796875.96875-1.296875.28125-.515625.28125-1.046875 0-.734375-.4375-1.1875-.4375-.46875-1.17185-.46875-.875 0-1.3594.5-.4844.5-.4844 1.390625h-1.17185q0-1.28125.8125-2.0625.82815-.796875 2.20315-.796875 1.29685 0 2.04685.6875.75.671875.75 1.796875 0 1.359375-1.75 3.25l-2.46875 2.6875h4.6406zm1.0938-.609375q0-.3125.17185-.515625.1875-.203125.54685-.203125.3594 0 .5469.203125.1875.203125.1875.515625 0 .28125-.1875.484375-.1875.1875-.5469.1875-.35935 0-.54685-.1875-.17185-.203125-.17185-.484375zm7.4531-8.640625v1h-.21875q-1.35935.015625-2.17185.8125-.8125.78125-.95315 2.21875.73435-.84375 2-.84375 1.20315 0 1.92185.859375.7188.84375.7188 2.1875 0 1.421875-.7813 2.28125-.7656.859375-2.0781.859375-1.3281 0-2.15625-1.015625-.8125-1.015625-.8125-2.625v-.453125q0-2.546875 1.07815-3.890625 1.0937-1.359375 3.25-1.390625zm-1.5469 4.171875q-.5937 0-1.10935.359375-.5.359375-.70315.90625v.421875q0 1.15625.51565 1.859375.51565.6875 1.28125.6875.7969 0 1.25-.578125.4531-.59375.4531-1.53125 0-.953125-.4687-1.53125-.45315-.59375-1.2188-.59375zm4.4844.4375.46875-4.609375h4.73435v1.09375h-3.73435l-.28125 2.515625q.6719-.390625 1.53125-.390625 1.26565 0 2 .828125.75.828125.75 2.25 0 1.4375-.76565 2.265625-.7656.8125-2.1562.8125-1.2188 0-2-.671875-.7813-.6875-.875-1.890625h1.10935q.10935.796875.5625 1.203125.45315.40625 1.20315.40625.8125 0 1.2812-.5625.4688-.5625.4688-1.546875 0-.921875-.5-1.484375-.5-.5625-1.3438-.5625-.7656 0-1.2031.34375l-.3125.25zm6.3594-2.828125q0-.828125.5312-1.359375.5313-.546875 1.3594-.546875.84375 0 1.3594.546875.5312.53125.5312 1.40625v.453125q0 .828125-.5312 1.359375-.5313.53125-1.3438.53125-.8281 0-1.375-.53125-.5312-.53125-.5312-1.40625zm.875.5q0 .484375.2656.8125.28125.3125.7656.3125.4375 0 .7188-.3125.2812-.3125.2812-.84375v-.46875q0-.484375-.2812-.8125-.26565-.328125-.7344-.328125-.46875 0-.75.328125-.2656.328125-.2656.84375zm3.625 4.703125q0-.828125.5312-1.359375.5313-.546875 1.3594-.546875.8281 0 1.3594.53125.5312.53125.5312 1.421875v.453125q0 .828125-.5312 1.375-.5313.53125-1.3594.53125-.8125 0-1.3594-.53125-.5312-.53125-.5312-1.421875zm.875.5q0 .5.2812.828125.2813.3125.75.3125.45315 0 .7188-.3125.2812-.3125.2812-.859375v-.46875q0-.5-.2812-.8125-.2813-.328125-.7344-.328125-.4531 0-.7344.3125-.2812.3125-.2812.859375zm-3.20315 1.0625-.67185-.421875 4.5156-7.21875.65625.421875z" fill="#3c4043"/><path clip-path="url(#a)" d="m694.5 56.5h263v24h-263z" stroke="#eee" stroke-linecap="butt"/><path clip-path="url(#a)" d="m924.21875 69.890625h1.29685v.96875h-1.29685v2.140625h-1.17185v-2.140625h-4.20315v-.703125l4.125-6.40625h1.25zm-4.04685 0h2.875v-4.53125l-.14065.265625zm6.25 2.5q0-.3125.17185-.515625.1875-.203125.54685-.203125.3594 0 .5469.203125.1875.203125.1875.515625 0 .28125-.1875.484375-.1875.1875-.5469.1875-.35935 0-.54685-.1875-.17185-.203125-.17185-.484375zm7.3437-3.453125q-.35935.4375-.875.703125-.5156.265625-1.125.265625-.79685 0-1.3906-.390625-.59375-.390625-.9219-1.109375-.3125-.71875-.3125-1.578125 0-.921875.3438-1.65625.35935-.75 1-1.140625.6562-.40625 1.5156-.40625 1.375 0 2.15625 1.03125.79685 1.03125.79685 2.796875v.34375q0 2.703125-1.0781 3.9375-1.0625 1.234375-3.2031 1.265625h-.2344v-.984375h.25q1.4531-.03125 2.2344-.75.7812-.734375.8437-2.328125zm-1.8125 0q.5938 0 1.0938-.359375.5-.359375.73435-.890625v-.484375q0-1.140625-.51565-1.859375-.5-.734375-1.2656-.734375-.7656 0-1.2344.59375-.4687.59375-.4687 1.5625 0 .953125.4531 1.5625.4531.609375 1.2031.609375zm9.9219-2.765625q0 .6875-.375 1.234375-.3594.53125-.9844.84375.7344.3125 1.1563.90625.42185.59375.42185 1.34375 0 1.203125-.8125 1.921875-.8125.703125-2.125.703125-1.34375 0-2.14065-.703125-.79685-.71875-.79685-1.921875 0-.75.40625-1.34375.40625-.609375 1.125-.921875-.6094-.296875-.96875-.828125-.35935-.546875-.35935-1.234375 0-1.171875.75-1.859375.75-.6875 1.98435-.6875 1.21875 0 1.96875.6875.75.6875.75 1.859375zm-.9531 4.3125q0-.78125-.5-1.265625-.4844-.484375-1.2813-.484375-.79685 0-1.2812.484375-.4688.46875-.4688 1.265625 0 .78125.45315 1.234375.46875.453125 1.3125.453125.8125 0 1.28125-.453125.4844-.453125.4844-1.234375zm-1.76565-5.890625q-.70315 0-1.14065.4375-.42185.421875-.42185 1.15625 0 .703125.42185 1.140625.4375.4375 1.14065.4375.70315 0 1.125-.4375.42185-.4375.42185-1.140625 0-.703125-.4375-1.140625-.4375-.453125-1.10935-.453125zm4.01565.9375q0-.828125.5312-1.359375.5313-.546875 1.3594-.546875.84375 0 1.3594.546875.5312.53125.5312 1.40625v.453125q0 .828125-.5312 1.359375-.5313.53125-1.3438.53125-.8281 0-1.375-.53125-.5312-.53125-.5312-1.40625zm.875.5q0 .484375.2656.8125.28125.3125.7656.3125.4375 0 .7188-.3125.2812-.3125.2812-.84375v-.46875q0-.484375-.2812-.8125-.26565-.328125-.7344-.328125-.46875 0-.75.328125-.2656.328125-.2656.84375zm3.625 4.703125q0-.828125.5312-1.359375.5313-.546875 1.3594-.546875.8281 0 1.3594.53125.5312.53125.5312 1.421875v.453125q0 .828125-.5312 1.375-.5313.53125-1.3594.53125-.8125 0-1.3594-.53125-.5312-.53125-.5312-1.421875zm.875.5q0 .5.2812.828125.2813.3125.75.3125.45315 0 .7188-.3125.2812-.3125.2812-.859375v-.46875q0-.5-.2812-.8125-.2813-.328125-.7344-.328125-.4531 0-.7344.3125-.2812.3125-.2812.859375zm-3.20315 1.0625-.67185-.421875 4.5156-7.21875.65625.421875z" fill="#3c4043"/><path clip-path="url(#a)" d="m694.5 80.5h263v24h-263z" stroke="#eee" stroke-linecap="butt"/><path clip-path="url(#a)" d="m920.96875 91.8125h.89065q.8281-.015625 1.29685-.4375.48435-.4375.48435-1.15625 0-1.625-1.625-1.625-.75 0-1.2031.4375-.4531.4375-.4531 1.15625h-1.1875q0-1.109375.79685-1.828125.8125-.734375 2.04685-.734375 1.3125 0 2.0469.703125.75.6875.75 1.921875 0 .59375-.3906 1.171875-.39065.5625-1.0625.84375.7656.234375 1.17185.796875.42185.546875.42185 1.359375 0 1.25-.8125 1.984375-.8125.71875-2.10935.71875-1.29685 0-2.125-.703125-.8125-.703125-.8125-1.859375h1.1875q0 .734375.46875 1.171875.4844.4375 1.28125.4375.84375 0 1.29685-.4375.45315-.453125.45315-1.28125 0-.8125-.5-1.234375-.48435-.4375-1.42185-.453125h-.89065zm5.45315 4.578125q0-.3125.17185-.515625.1875-.203125.54685-.203125.3594 0 .5469.203125.1875.203125.1875.515625 0 .28125-.1875.484375-.1875.1875-.5469.1875-.35935 0-.54685-.1875-.17185-.203125-.17185-.484375zm8.6406-3.328125q0 2.0625-.7031 3.0625-.70315 1-2.20315 1-1.48435 0-2.20315-.96875-.7031-.984375-.7187-2.9375v-1.5625q0-2.046875.7031-3.03125.7031-1 2.2031-1 1.5 0 2.20315.96875.70315.953125.71875 2.9375zm-1.1719-1.609375q0-1.5-.42185-2.171875-.42185-.6875-1.32815-.6875-.8906 0-1.3125.6875-.4062.671875-.42185 2.078125v1.875q0 1.5.4375 2.21875.4375.71875 1.3125.71875.875 0 1.29685-.671875.4219-.671875.4375-2.125zm8.3438-3.03125-3.82815 8.578125h-1.23435l3.8125-8.28125h-5v-.96875h6.25zm.9375 1.109375q0-.828125.5312-1.359375.5313-.546875 1.3594-.546875.84375 0 1.3594.546875.5312.53125.5312 1.40625v.453125q0 .828125-.5312 1.359375-.5313.53125-1.3438.53125-.8281 0-1.375-.53125-.5312-.53125-.5312-1.40625zm.875.5q0 .484375.2656.8125.28125.3125.7656.3125.4375 0 .7188-.3125.2812-.3125.2812-.84375v-.46875q0-.484375-.2812-.8125-.26565-.328125-.7344-.328125-.46875 0-.75.328125-.2656.328125-.2656.84375zm3.625 4.703125q0-.828125.5312-1.359375.5313-.546875 1.3594-.546875.8281 0 1.3594.53125.5312.53125.5312 1.421875v.453125q0 .828125-.5312 1.375-.5313.53125-1.3594.53125-.8125 0-1.3594-.53125-.5312-.53125-.5312-1.421875zm.875.5q0 .5.2812.828125.2813.3125.75.3125.45315 0 .7188-.3125.2812-.3125.2812-.859375v-.46875q0-.5-.2812-.8125-.2813-.328125-.7344-.328125-.4531 0-.7344.3125-.2812.3125-.2812.859375zm-3.20315 1.0625-.67185-.421875 4.5156-7.21875.65625.421875z" fill="#3c4043"/><path clip-path="url(#a)" d="m694.5 104.5h263v24h-263z" stroke="#eee" stroke-linecap="butt"/><path clip-path="url(#a)" d="m917.8281 117.546875h-3.0937v-.953125h3.0937zm5.2969 3.453125h-1.1719v-7.828125l-2.375.875v-1.078125l3.3594-1.25h.1875zm3.2969-.609375q0-.3125.17185-.515625.1875-.203125.54685-.203125.3594 0 .5469.203125.1875.203125.1875.515625 0 .28125-.1875.484375-.1875.1875-.5469.1875-.35935 0-.54685-.1875-.17185-.203125-.17185-.484375zm7.4531-8.640625v1h-.21875q-1.35935.015625-2.17185.8125-.8125.78125-.95315 2.21875.73435-.84375 2-.84375 1.20315 0 1.92185.859375.7188.84375.7188 2.1875 0 1.421875-.7813 2.28125-.7656.859375-2.0781.859375-1.3281 0-2.15625-1.015625-.8125-1.015625-.8125-2.625v-.453125q0-2.546875 1.07815-3.890625 1.0937-1.359375 3.25-1.390625zm-1.5469 4.171875q-.5937 0-1.10935.359375-.5.359375-.70315.90625v.421875q0 1.15625.51565 1.859375.51565.6875 1.28125.6875.7969 0 1.25-.578125.4531-.59375.4531-1.53125 0-.953125-.4687-1.53125-.45315-.59375-1.2188-.59375zm8.4375 1.015625q-.35935.4375-.875.703125-.5156.265625-1.125.265625-.79685 0-1.3906-.390625-.59375-.390625-.9219-1.109375-.3125-.71875-.3125-1.578125 0-.921875.3438-1.65625.35935-.75 1-1.140625.6562-.40625 1.5156-.40625 1.375 0 2.15625 1.03125.79685 1.03125.79685 2.796875v.34375q0 2.703125-1.0781 3.9375-1.0625 1.234375-3.2031 1.265625h-.2344v-.984375h.25q1.4531-.03125 2.2344-.75.7812-.734375.8437-2.328125zm-1.8125 0q.5938 0 1.0938-.359375.5-.359375.73435-.890625v-.484375q0-1.140625-.51565-1.859375-.5-.734375-1.2656-.734375-.7656 0-1.2344.59375-.4687.59375-.4687 1.5625 0 .953125.4531 1.5625.4531.609375 1.2031.609375zm4.2188-3.40625q0-.828125.5312-1.359375.5313-.546875 1.3594-.546875.84375 0 1.3594.546875.5312.53125.5312 1.40625v.453125q0 .828125-.5312 1.359375-.5313.53125-1.3438.53125-.8281 0-1.375-.53125-.5312-.53125-.5312-1.40625zm.875.5q0 .484375.2656.8125.28125.3125.7656.3125.4375 0 .7188-.3125.2812-.3125.2812-.84375v-.46875q0-.484375-.2812-.8125-.26565-.328125-.7344-.328125-.46875 0-.75.328125-.2656.328125-.2656.84375zm3.625 4.703125q0-.828125.5312-1.359375.5313-.546875 1.3594-.546875.8281 0 1.3594.53125.5312.53125.5312 1.421875v.453125q0 .828125-.5312 1.375-.5313.53125-1.3594.53125-.8125 0-1.3594-.53125-.5312-.53125-.5312-1.421875zm.875.5q0 .5.2812.828125.2813.3125.75.3125.45315 0 .7188-.3125.2812-.3125.2812-.859375v-.46875q0-.5-.2812-.8125-.2813-.328125-.7344-.328125-.4531 0-.7344.3125-.2812.3125-.2812.859375zm-3.20315 1.0625-.67185-.421875 4.5156-7.21875.65625.421875z" fill="#3c4043"/><path clip-path="url(#a)" d="m694.5 128.5h263v24h-263z" stroke="#eee" stroke-linecap="butt"/><path clip-path="url(#a)" d="m923.125 145h-1.1719v-7.82812l-2.375.875v-1.07813l3.3594-1.25h.1875zm3.2969-.60938q0-.3125.17185-.51562.1875-.20312.54685-.20312.3594 0 .5469.20312.1875.20312.1875.51562 0 .28126-.1875.48438-.1875.1875-.5469.1875-.35935 0-.54685-.1875-.17185-.20312-.17185-.48438zm4.54685-4.57812h.89065q.8281-.01562 1.29685-.4375.48435-.4375.48435-1.15625 0-1.625-1.625-1.625-.75 0-1.2031.4375-.4531.4375-.4531 1.15625h-1.1875q0-1.10938.79685-1.82812.8125-.73438 2.04685-.73438 1.3125 0 2.0469.70312.75.6875.75 1.92188 0 .59375-.3906 1.17188-.39065.5625-1.0625.84374.7656.23438 1.17185.79688.42185.54688.42185 1.35938 0 1.25-.8125 1.98437-.8125.71875-2.10935.71875-1.29685 0-2.125-.70312-.8125-.70313-.8125-1.85938h1.1875q0 .73438.46875 1.17188.4844.4375 1.28125.4375.84375 0 1.29685-.4375.45315-.45313.45315-1.28126 0-.8125-.5-1.23437-.48435-.4375-1.42185-.45313h-.89065zm9.15625 5.1875h-1.1719v-7.82812l-2.375.875v-1.07813l3.3594-1.25h.1875zm3.0469-7.46875q0-.82813.5312-1.35937.5313-.54688 1.3594-.54688.84375 0 1.3594.54688.5312.53124.5312 1.40624v.45313q0 .82813-.5312 1.35937-.5313.53126-1.3438.53126-.8281 0-1.375-.53126-.5312-.53124-.5312-1.40624zm.875.5q0 .48437.2656.8125.28125.3125.7656.3125.4375 0 .7188-.3125.2812-.3125.2812-.84375v-.46875q0-.48437-.2812-.8125-.26565-.32813-.7344-.32813-.46875 0-.75.32813-.2656.32813-.2656.84375zm3.625 4.70313q0-.82813.5312-1.35938.5313-.54688 1.3594-.54688.8281 0 1.3594.53126.5312.53124.5312 1.42187v.45313q0 .82812-.5312 1.375-.5313.53124-1.3594.53124-.8125 0-1.3594-.53124-.5312-.53126-.5312-1.42188zm.875.5q0 .5.2812.82812.2813.3125.75.3125.45315 0 .7188-.3125.2812-.3125.2812-.85938v-.46874q0-.5-.2812-.8125-.2813-.32813-.7344-.32813-.4531 0-.7344.3125-.2812.3125-.2812.85937zm-3.20315 1.0625-.67185-.42188 4.5156-7.21875.65625.42187z" fill="#3c4043"/><path clip-path="url(#a)" d="m.5.5h957v32h-957z" fill="#fff"/><path clip-path="url(#a)" d="m.5 32.5h957z" stroke="#d9d9d9" stroke-linecap="butt"/><path clip-path="url(#a)" d="m183.5.5v32z" stroke="#eee" stroke-linecap="butt"/><path clip-path="url(#a)" d="m55.640625 11.75 3.03125 7.546875 3.015625-7.546875h1.578125v9.25h-1.21875v-3.59375l.125-3.890625-3.046875 7.484375h-.921875l-3.03125-7.46875.125 3.875v3.59375h-1.21875v-9.25zm12.09375 9.375q-1.390625 0-2.265625-.90625-.875-.921875-.875-2.46875v-.203125q0-1.03125.390625-1.828125.390625-.8125 1.09375-1.265625.703125-.453125 1.515625-.453125 1.34375 0 2.078125.890625.75.875.75 2.515625v.5h-4.65625q.03125 1.015625.59375 1.640625.5625.625 1.4375.625.625 0 1.046875-.25.4375-.265625.765625-.6875l.71875.5625q-.859375 1.328125-2.59375 1.328125zm-.140625-6.15625q-.71875 0-1.203125.515625-.46875.515625-.59375 1.453125h3.453125v-.09375q-.0625-.890625-.5-1.375-.421875-.5-1.15625-.5zm5.890625-2.5v1.65625h1.28125v.921875h-1.28125v4.25q0 .421875.171875.625.171875.203125.578125.203125.203125 0 .5625-.078125v.953125q-.46875.125-.90625.125-.78125 0-1.1875-.46875-.390625-.484375-.390625-1.359375v-4.25h-1.25v-.921875h1.25v-1.65625zm3.578125 2.5q.78125-.96875 2.03125-.96875 2.171875 0 2.203125 2.46875v4.53125h-1.1875v-4.546875q0-.734375-.34375-1.09375-.328125-.359375-1.03125-.359375-.5625 0-1 .3125-.4375.296875-.671875.796875v4.890625h-1.171875v-9.75h1.171875zm5.515625 2.53125q0-1 .390625-1.8125.40625-.8125 1.109375-1.25.703125-.4375 1.609375-.4375 1.40625 0 2.265625.984375.875.96875.875 2.578125v.078125q0 1-.390625 1.796875-.375.796875-1.09375 1.25-.703125.4375-1.640625.4375-1.390625 0-2.265625-.96875-.859375-.96875-.859375-2.578125zm1.1875.140625q0 1.140625.515625 1.84375.53125.6875 1.421875.6875.90625 0 1.421875-.703125.53125-.703125.53125-1.96875 0-1.125-.546875-1.828125-.53125-.703125-1.421875-.703125-.859375 0-1.390625.703125-.53125.6875-.53125 1.96875zm5.84375-.125q0-1.59375.734375-2.546875.75-.96875 1.96875-.96875 1.203125 0 1.90625.828125v-3.578125h1.1875v9.75h-1.09375l-.046875-.734375q-.703125.859375-1.96875.859375-1.1875 0-1.9375-.96875-.75-.984375-.75-2.5625zm1.171875.125q0 1.171875.484375 1.828125.484375.65625 1.328125.65625 1.109375 0 1.625-1v-3.15625q-.515625-.96875-1.609375-.96875-.859375 0-1.34375.671875-.484375.65625-.484375 1.96875zm10.21875-3.515625.03125.875q.796875-1 2.0625-1 2.171875 0 2.203125 2.46875v4.53125h-1.1875v-4.546875q0-.734375-.34375-1.09375-.328125-.359375-1.03125-.359375-.5625 0-1 .3125-.4375.296875-.671875.796875v4.890625h-1.171875v-6.875zm10.125 6.875q-.09375-.203125-.15625-.71875-.828125.84375-1.953125.84375-1.015625 0-1.671875-.5625-.65625-.578125-.65625-1.46875 0-1.078125.8125-1.671875.828125-.59375 2.296875-.59375h1.140625v-.53125q0-.609375-.375-.96875-.359375-.375-1.078125-.375-.625 0-1.046875.3125-.421875.3125-.421875.765625h-1.1875q0-.515625.359375-.984375.375-.484375 1-.765625.625-.28125 1.375-.28125 1.1875 0 1.859375.59375.671875.59375.703125 1.640625v3.15625q0 .953125.234375 1.5v.109375zm-1.9375-.890625q.546875 0 1.03125-.28125.5-.296875.71875-.75v-1.40625h-.90625q-2.171875 0-2.171875 1.265625 0 .546875.375.859375.375.3125.953125.3125zm5.8125-5.984375.03125.765625q.75-.890625 2.03125-.890625 1.4375 0 1.96875 1.109375.328125-.5.875-.796875.5625-.3125 1.3125-.3125 2.25 0 2.296875 2.390625v4.609375h-1.171875v-4.53125q0-.734375-.34375-1.09375-.328125-.375-1.125-.375-.65625 0-1.09375.390625-.421875.390625-.5 1.046875v4.5625h-1.171875v-4.5q0-1.5-1.46875-1.5-1.15625 0-1.578125.984375v5.015625h-1.1875v-6.875zm12.734375 7q-1.390625 0-2.265625-.90625-.875-.921875-.875-2.46875v-.203125q0-1.03125.390625-1.828125.390625-.8125 1.09375-1.265625.703125-.453125 1.515625-.453125 1.34375 0 2.07813.890625.75.875.75 2.515625v.5h-4.656255q.03125 1.015625.59375 1.640625.5625.625 1.4375.625.625005 0 1.046875-.25.4375-.265625.76563-.6875l.71874.5625q-.85937 1.328125-2.593745 1.328125zm-.140625-6.15625q-.71875 0-1.203125.515625-.46875.515625-.59375 1.453125h3.453125v-.09375q-.0625-.890625-.5-1.375-.42188-.5-1.15625-.5z" fill="#80868b"/><path clip-path="url(#a)" d="m399.5.5v32z" stroke="#eee" stroke-linecap="butt"/><path clip-path="url(#a)" d="m248.67188 21h-1.21876l-4.65624-7.125v7.125h-1.21876v-9.25h1.21876l4.67187 7.15625v-7.15625h1.20313zm1.40624-3.5q0-1 .39063-1.8125.40625-.8125 1.10937-1.25.70313-.4375 1.60938-.4375 1.40625 0 2.26562.984375.875.96875.875 2.578125v.078125q0 1-.39062 1.796875-.375.796875-1.09375 1.25-.70313.4375-1.64063.4375-1.39062 0-2.26562-.96875-.85938-.96875-.85938-2.578125zm1.1875.140625q0 1.140625.51563 1.84375.53125.6875 1.42187.6875.90626 0 1.42188-.703125.53125-.703125.53125-1.96875 0-1.125-.54687-1.828125-.53126-.703125-1.42188-.703125-.85938 0-1.39062.703125-.53126.6875-.53126 1.96875zm7.71876-5.171875v1.65625h1.28124v.921875h-1.28124v4.25q0 .421875.17187.625.17187.203125.57813.203125.20312 0 .5625-.078125v.953125q-.46876.125-.90626.125-.78124 0-1.1875-.46875-.39062-.484375-.39062-1.359375v-4.25h-1.25v-.921875h1.25v-1.65625zm5.09374 5.03125q0-1 .39063-1.8125.40625-.8125 1.10937-1.25.70313-.4375 1.60938-.4375 1.40625 0 2.26562.984375.875.96875.875 2.578125v.078125q0 1-.39062 1.796875-.375.796875-1.09375 1.25-.70313.4375-1.64063.4375-1.39062 0-2.26562-.96875-.85938-.96875-.85938-2.578125zm1.1875.140625q0 1.140625.51563 1.84375.53125.6875 1.42187.6875.90626 0 1.42188-.703125.53125-.703125.53125-1.96875 0-1.125-.54687-1.828125-.53126-.703125-1.42188-.703125-.85938 0-1.39062.703125-.53126.6875-.53126 1.96875zm11.92188 0q0 1.5625-.71875 2.53125-.71875.953125-1.9375.953125-1.25 0-1.96875-.796875v3.3125h-1.17188v-9.515625h1.07813l.04687.765625q.71876-.890625 2-.890625 1.23438 0 1.95313.9375.71875.9375.71875 2.59375zm-1.17188-.125q0-1.171875-.5-1.84375-.48437-.671875-1.35937-.671875-1.0625 0-1.59375.953125v3.28125q.53125.9375 1.60938.9375.84374 0 1.34374-.671875.5-.671875.5-1.984375zm3.96876-5.046875v1.65625h1.28124v.921875h-1.28124v4.25q0 .421875.17187.625.17187.203125.57813.203125.20312 0 .5625-.078125v.953125q-.46876.125-.90626.125-.78124 0-1.1875-.46875-.39062-.484375-.39062-1.359375v-4.25h-1.25v-.921875h1.25v-1.65625zm3.6875 8.53125h-1.1875v-6.875h1.1875zm-1.28126-8.6875q0-.28125.17188-.484375.1875-.203125.53125-.203125.34375 0 .51563.203125.17187.203125.17187.484375 0 .28125-.17187.46875-.17188.1875-.51563.1875-.34375 0-.53125-.1875-.17188-.1875-.17188-.46875zm4.10938 1.8125.03125.765625q.75-.890625 2.03125-.890625 1.4375 0 1.96875 1.109375.32813-.5.875-.796875.5625-.3125 1.3125-.3125 2.25 0 2.29687 2.390625v4.609375h-1.17187v-4.53125q0-.734375-.34375-1.09375-.32812-.375-1.125-.375-.65625 0-1.09375.390625-.42187.390625-.5 1.046875v4.5625h-1.17187v-4.5q0-1.5-1.46876-1.5-1.15624 0-1.57812.984375v5.015625h-1.1875v-6.875zm11.17188 6.875h-1.1875v-6.875h1.1875zm-1.28126-8.6875q0-.28125.17188-.484375.1875-.203125.53125-.203125.34375 0 .51563.203125.17187.203125.17187.484375 0 .28125-.17187.46875-.17188.1875-.51563.1875-.34375 0-.53125-.1875-.17188-.1875-.17188-.46875zm4.10938 7.734375h4.01562v.953125h-5.45312v-.859375l3.78125-5.03125h-3.73437v-.984375h5.21874v.84375zm7.73438 1.078125q-1.39063 0-2.26563-.90625-.875-.921875-.875-2.46875v-.203125q0-1.03125.39063-1.828125.39062-.8125 1.09374-1.265625.70313-.453125 1.51563-.453125 1.34375 0 2.07813.890625.75.875.75 2.515625v.5h-4.65626q.03126 1.015625.59376 1.640625.5625.625 1.4375.625.625 0 1.04687-.25.4375-.265625.76563-.6875l.71874.5625q-.85937 1.328125-2.59374 1.328125zm-.14063-6.15625q-.71875 0-1.20313.515625-.46874.515625-.59374 1.453125h3.45312v-.09375q-.0625-.890625-.5-1.375-.42188-.5-1.15625-.5zm4.01563 2.546875q0-1.59375.73437-2.546875.75-.96875 1.96875-.96875 1.20312 0 1.90625.828125v-3.578125h1.1875v9.75h-1.09375l-.04688-.734375q-.70312.859375-1.96874.859375-1.1875 0-1.9375-.96875-.75-.984375-.75-2.5625zm1.17187.125q0 1.171875.48437 1.828125.48438.65625 1.32813.65625 1.10937 0 1.625-1v-3.15625q-.51563-.96875-1.60937-.96875-.85938 0-1.34376.671875-.48437.65625-.48437 1.96875zm6.0625 5.203125-.65625-.453125q.59375-.84375.625-1.71875v-1.0625h1.14062v.921875q0 .640625-.3125 1.28125-.3125.640625-.79687 1.03125zm7.15625-8.71875.03125.765625q.75-.890625 2.03125-.890625 1.4375 0 1.96875 1.109375.32813-.5.875-.796875.5625-.3125 1.3125-.3125 2.25 0 2.29687 2.390625v4.609375h-1.17187v-4.53125q0-.734375-.34375-1.09375-.32812-.375-1.125-.375-.65625 0-1.09375.390625-.42187.390625-.5 1.046875v4.5625h-1.17187v-4.5q0-1.5-1.46876-1.5-1.15624 0-1.57812.984375v5.015625h-1.1875v-6.875zm13.89062 5.046875q0-.46875-.35937-.734375-.35937-.265625-1.25-.453125-.89063-.1875-1.42187-.453125-.51563-.265625-.76563-.625-.25-.375-.25-.890625 0-.84375.70313-1.421875.71874-.59375 1.82812-.59375 1.17188 0 1.89062.609375.73438.59375.73438 1.546875h-1.1875q0-.484375-.40625-.828125-.40625-.359375-1.03125-.359375-.64062 0-1 .28125-.35938.28125-.35938.734375 0 .421875.32813.640625.34375.203125 1.21875.40625.875.203125 1.42188.484375.54687.265625.8125.65625.26562.375.26562.921875 0 .921875-.73438 1.484375-.73437.546875-1.90624.546875-.82813 0-1.46876-.28125-.625-.296875-.98437-.8125-.35937-.53125-.35937-1.140625h1.17187q.03125.578125.46875.9375.4375.34375 1.17188.34375.65624 0 1.0625-.265625.40624-.28125.40624-.734375z" fill="#80868b"/><path clip-path="url(#a)" d="m574.5.5v32z" stroke="#eee" stroke-linecap="butt"/><path clip-path="url(#a)" d="m454.6875 16.671875q0 1.359375-.46875 2.375-.45313 1.015625-1.29687 1.546875-.82813.53125-1.95313.53125-1.07813 0-1.9375-.53125-.84375-.546875-1.3125-1.53125-.45313-1-.46875-2.296875v-.671875q0-1.328125.45312-2.34375.46876-1.03125 1.3125-1.578125.85938-.546875 1.95313-.546875 1.10937 0 1.95313.546875.84374.53125 1.29687 1.546875.46875 1.015625.46875 2.375zm-1.21875-.59375q0-1.640625-.65625-2.515625-.65625-.890625-1.84375-.890625-1.15625 0-1.82813.890625-.65624.875-.67187 2.4375v.671875q0 1.59375.65625 2.515625.67188.90625 1.84375.90625 1.1875 0 1.82813-.859375.65624-.859375.67187-2.46875zm8.71875 1.5625q0 1.5625-.71875 2.53125-.71875.953125-1.9375.953125-1.25 0-1.96875-.796875v3.3125h-1.17188v-9.515625h1.07813l.04687.765625q.71876-.890625 2-.890625 1.23438 0 1.95313.9375.71875.9375.71875 2.59375zm-1.17188-.125q0-1.171875-.5-1.84375-.48437-.671875-1.35937-.671875-1.0625 0-1.59375.953125v3.28125q.53125.9375 1.60938.9375.84374 0 1.34374-.671875.5-.671875.5-1.984375zm3.96876-5.046875v1.65625h1.28124v.921875h-1.28124v4.25q0 .421875.17187.625.17187.203125.57813.203125.20312 0 .5625-.078125v.953125q-.46876.125-.90626.125-.78124 0-1.1875-.46875-.39062-.484375-.39062-1.359375v-4.25h-1.25v-.921875h1.25v-1.65625zm3.6875 8.53125h-1.1875v-6.875h1.1875zm-1.28126-8.6875q0-.28125.17188-.484375.1875-.203125.53125-.203125.34375 0 .51563.203125.17187.203125.17187.484375 0 .28125-.17187.46875-.17188.1875-.51563.1875-.34375 0-.53125-.1875-.17188-.1875-.17188-.46875zm4.10938 1.8125.03125.765625q.75-.890625 2.03125-.890625 1.4375 0 1.96875 1.109375.32813-.5.875-.796875.5625-.3125 1.3125-.3125 2.25 0 2.29687 2.390625v4.609375h-1.17187v-4.53125q0-.734375-.34375-1.09375-.32812-.375-1.125-.375-.65625 0-1.09375.390625-.42187.390625-.5 1.046875v4.5625h-1.17187v-4.5q0-1.5-1.46876-1.5-1.15624 0-1.57812.984375v5.015625h-1.1875v-6.875zm11.17188 6.875h-1.1875v-6.875h1.1875zm-1.28126-8.6875q0-.28125.17188-.484375.1875-.203125.53125-.203125.34375 0 .51563.203125.17187.203125.17187.484375 0 .28125-.17187.46875-.17188.1875-.51563.1875-.34375 0-.53125-.1875-.17188-.1875-.17188-.46875zm4.10938 7.734375h4.01562v.953125h-5.45312v-.859375l3.78125-5.03125h-3.73437v-.984375h5.21874v.84375zm7.73438 1.078125q-1.39063 0-2.26563-.90625-.875-.921875-.875-2.46875v-.203125q0-1.03125.39063-1.828125.39062-.8125 1.09374-1.265625.70313-.453125 1.51563-.453125 1.34375 0 2.07813.890625.75.875.75 2.515625v.5h-4.65626q.03126 1.015625.59376 1.640625.5625.625 1.4375.625.625 0 1.04687-.25.4375-.265625.76563-.6875l.71874.5625q-.85937 1.328125-2.59374 1.328125zm-.14063-6.15625q-.71875 0-1.20313.515625-.46874.515625-.59374 1.453125h3.45312v-.09375q-.0625-.890625-.5-1.375-.42188-.5-1.15625-.5zm4.01563 2.546875q0-1.59375.73437-2.546875.75-.96875 1.96875-.96875 1.20312 0 1.90625.828125v-3.578125h1.1875v9.75h-1.09375l-.04688-.734375q-.70312.859375-1.96874.859375-1.1875 0-1.9375-.96875-.75-.984375-.75-2.5625zm1.17187.125q0 1.171875.48437 1.828125.48438.65625 1.32813.65625 1.10937 0 1.625-1v-3.15625q-.51563-.96875-1.60937-.96875-.85938 0-1.34376.671875-.48437.65625-.48437 1.96875zm6.0625 5.203125-.65625-.453125q.59375-.84375.625-1.71875v-1.0625h1.14062v.921875q0 .640625-.3125 1.28125-.3125.640625-.79687 1.03125zm7.15625-8.71875.03125.765625q.75-.890625 2.03125-.890625 1.4375 0 1.96875 1.109375.32815-.5.875-.796875.5625-.3125 1.3125-.3125 2.25 0 2.29685 2.390625v4.609375h-1.17185v-4.53125q0-.734375-.34375-1.09375-.3281-.375-1.125-.375-.65625 0-1.09375.390625-.42185.390625-.5 1.046875v4.5625h-1.17185v-4.5q0-1.5-1.4688-1.5-1.15622 0-1.5781.984375v5.015625h-1.1875v-6.875zm13.8906 5.046875q0-.46875-.35935-.734375-.35935-.265625-1.25-.453125-.89065-.1875-1.42185-.453125-.51565-.265625-.76565-.625-.25-.375-.25-.890625 0-.84375.70315-1.421875.7187-.59375 1.8281-.59375 1.1719 0 1.8906.609375.7344.59375.7344 1.546875h-1.1875q0-.484375-.40625-.828125-.40625-.359375-1.03125-.359375-.6406 0-1 .28125-.3594.28125-.3594.734375 0 .421875.32815.640625.34375.203125 1.21875.40625.875.203125 1.4219.484375.54685.265625.8125.65625.2656.375.2656.921875 0 .921875-.7344 1.484375-.73435.546875-1.9062.546875-.82815 0-1.4688-.28125-.625-.296875-.98435-.8125-.35935-.53125-.35935-1.140625h1.17185q.03125.578125.46875.9375.4375.34375 1.1719.34375.6562 0 1.0625-.265625.4062-.28125.4062-.734375z" fill="#80868b"/><path clip-path="url(#a)" d="m694.5.5v32z" stroke="#eee" stroke-linecap="butt"/><path clip-path="url(#a)" d="m612.5781 21v-9.25h2.6094q1.2031 0 2.125.546875.9219.53125 1.4219 1.515625.5156.984375.5156 2.25v.59375q0 1.3125-.5 2.296875-.5.984375-1.4375 1.515625-.9375.515625-2.1875.53125zm1.2188-8.234375v7.234375h1.2812q1.4063 0 2.1875-.875.7813-.875.7813-2.5v-.53125q0-1.578125-.7344-2.453125-.7344-.875-2.09375-.875zm8.875 8.234375h-1.1875v-6.875h1.1875zm-1.2813-8.6875q0-.28125.1719-.484375.1875-.203125.53125-.203125.34375 0 .51565.203125.17185.203125.17185.484375 0 .28125-.17185.46875-.1719.1875-.51565.1875-.34375 0-.53125-.1875-.1719-.1875-.1719-.46875zm3.57815 8.6875v-5.953125h-1.09375v-.921875h1.09375v-.703125q0-1.09375.57815-1.703125.5937-.609375 1.67185-.609375.40625 0 .8125.109375l-.0625.953125q-.29685-.046875-.64065-.046875-.5625 0-.875.328125-.3125.328125-.3125.953125v.71875h1.4688v.921875h-1.4688v5.953125zm5 0v-5.953125h-1.09375v-.921875h1.09375v-.703125q0-1.09375.57815-1.703125.5937-.609375 1.67185-.609375.40625 0 .8125.109375l-.0625.953125q-.29685-.046875-.64065-.046875-.5625 0-.875.328125-.3125.328125-.3125.953125v.71875h1.4688v.921875h-1.4688v5.953125zm4.375 1.84375-.65625-.453125q.59375-.84375.625-1.71875v-1.0625h1.1406v.921875q0 .640625-.3125 1.28125-.3125.640625-.79685 1.03125zm7.15625-8.71875.03125.765625q.75-.890625 2.03125-.890625 1.4375 0 1.96875 1.109375.32815-.5.875-.796875.5625-.3125 1.3125-.3125 2.25 0 2.29685 2.390625v4.609375h-1.17185v-4.53125q0-.734375-.34375-1.09375-.3281-.375-1.125-.375-.65625 0-1.09375.390625-.42185.390625-.5 1.046875v4.5625h-1.17185v-4.5q0-1.5-1.4688-1.5-1.1562 0-1.5781.984375v5.015625h-1.1875v-6.875zm13.8906 5.046875q0-.46875-.35935-.734375-.35935-.265625-1.25-.453125-.89065-.1875-1.42185-.453125-.51565-.265625-.76565-.625-.25-.375-.25-.890625 0-.84375.70315-1.421875.7187-.59375 1.8281-.59375 1.1719 0 1.8906.609375.7344.59375.7344 1.546875h-1.1875q0-.484375-.40625-.828125-.40625-.359375-1.03125-.359375-.6406 0-1 .28125-.3594.28125-.3594.734375 0 .421875.32815.640625.34375.203125 1.21875.40625.875.203125 1.4219.484375.54685.265625.8125.65625.2656.375.2656.921875 0 .921875-.7344 1.484375-.73435.546875-1.9062.546875-.82815 0-1.4688-.28125-.625-.296875-.98435-.8125-.35935-.53125-.35935-1.140625h1.17185q.03125.578125.46875.9375.4375.34375 1.1719.34375.6562 0 1.0625-.265625.4062-.28125.4062-.734375z" fill="#80868b"/><path clip-path="url(#a)" d="m957.5.5v32z" stroke="#eee" stroke-linecap="butt"/><path clip-path="url(#a)" d="m766.7969 16.875q-1.5625-.453125-2.2813-1.109375-.7187-.65625-.7187-1.609375 0-1.09375.875-1.8125.875-.71875 2.2656-.71875.9531 0 1.7031.375.75.359375 1.1563 1.015625.4062.640625.4062 1.421875h-1.2187q0-.84375-.5469-1.3125-.53125-.484375-1.5-.484375-.8906 0-1.40625.390625-.5.390625-.5 1.09375 0 .578125.46875.96875.4844.390625 1.6406.71875 1.1563.3125 1.7969.703125.65625.390625.96875.921875.3125.515625.3125 1.21875 0 1.125-.875 1.796875-.875.671875-2.34375.671875-.9531 0-1.78125-.359375-.8125-.375-1.26565-1-.4375-.640625-.4375-1.4375h1.2188q0 .828125.60935 1.3125.625.484375 1.65625.484375.96875 0 1.4844-.390625.5156-.390625.5156-1.0625 0-.6875-.4844-1.0625-.4687-.375-1.7187-.734375zm10.8906.765625q0 1.5625-.71875 2.53125-.71875.953125-1.9375.953125-1.25 0-1.96875-.796875v3.3125h-1.1719v-9.515625h1.07815l.04685.765625q.7188-.890625 2-.890625 1.2344 0 1.95315.9375.71875.9375.71875 2.59375zm-1.1719-.125q0-1.171875-.5-1.84375-.48435-.671875-1.35935-.671875-1.0625 0-1.59375.953125v3.28125q.53125.9375 1.6094.9375.8437 0 1.3437-.671875.5-.671875.5-1.984375zm5.2188 3.609375q-1.39065 0-2.26565-.90625-.875-.921875-.875-2.46875v-.203125q0-1.03125.39065-1.828125.3906-.8125 1.0937-1.265625.70315-.453125 1.51565-.453125 1.34375 0 2.07815.890625.75.875.75 2.515625v.5h-4.6563q.0313 1.015625.5938 1.640625.5625.625 1.4375.625.625 0 1.04685-.25.4375-.265625.76565-.6875l.7187.5625q-.85935 1.328125-2.5937 1.328125zm-.14065-6.15625q-.71875 0-1.20315.515625-.4687.515625-.5937 1.453125h3.4531v-.09375q-.0625-.890625-.5-1.375-.4219-.5-1.15625-.5zm7.14065 6.15625q-1.39065 0-2.26565-.90625-.875-.921875-.875-2.46875v-.203125q0-1.03125.39065-1.828125.3906-.8125 1.0937-1.265625.70315-.453125 1.51565-.453125 1.34375 0 2.07815.890625.75.875.75 2.515625v.5h-4.6563q.0313 1.015625.5938 1.640625.5625.625 1.4375.625.625 0 1.04685-.25.4375-.265625.76565-.6875l.7187.5625q-.85935 1.328125-2.5937 1.328125zm-.14065-6.15625q-.71875 0-1.20315.515625-.4687.515625-.5937 1.453125h3.4531v-.09375q-.0625-.890625-.5-1.375-.4219-.5-1.15625-.5zm4.01565 2.546875q0-1.59375.73435-2.546875.75-.96875 1.96875-.96875 1.2031 0 1.90625.828125v-3.578125h1.1875v9.75h-1.09375l-.0469-.734375q-.7031.859375-1.9687.859375-1.1875 0-1.9375-.96875-.75-.984375-.75-2.5625zm1.17185.125q0 1.171875.48435 1.828125.4844.65625 1.32815.65625 1.10935 0 1.625-1v-3.15625q-.51565-.96875-1.60935-.96875-.8594 0-1.3438.671875-.48435.65625-.48435 1.96875zm10.39065 3.359375h-1.1875v-6.875h1.1875zm-1.2813-8.6875q0-.28125.1719-.484375.1875-.203125.53125-.203125.34375 0 .51565.203125.17185.203125.17185.484375 0 .28125-.17185.46875-.1719.1875-.51565.1875-.34375 0-.53125-.1875-.1719-.1875-.1719-.46875zm4.1094 1.8125.03125.765625q.75-.890625 2.03125-.890625 1.4375 0 1.96875 1.109375.32815-.5.875-.796875.5625-.3125 1.3125-.3125 2.25 0 2.29685 2.390625v4.609375h-1.17185v-4.53125q0-.734375-.34375-1.09375-.3281-.375-1.125-.375-.65625 0-1.09375.390625-.42185.390625-.5 1.046875v4.5625h-1.17185v-4.5q0-1.5-1.4688-1.5-1.1562 0-1.5781.984375v5.015625h-1.1875v-6.875zm15.6875 3.515625q0 1.5625-.71875 2.53125-.71875.953125-1.9375.953125-1.25 0-1.96875-.796875v3.3125h-1.1719v-9.515625h1.07815l.04685.765625q.7188-.890625 2-.890625 1.2344 0 1.95315.9375.71875.9375.71875 2.59375zm-1.1719-.125q0-1.171875-.5-1.84375-.48435-.671875-1.35935-.671875-1.0625 0-1.59375.953125v3.28125q.53125.9375 1.6094.9375.8437 0 1.3437-.671875.5-.671875.5-1.984375zm5.6875-2.328125q-.2656-.046875-.5781-.046875-1.15625 0-1.5625.984375v4.875h-1.1719v-6.875h1.14065l.01565.796875q.5781-.921875 1.6406-.921875.34375 0 .5156.09375zm.375 2.3125q0-1 .39065-1.8125.40625-.8125 1.10935-1.25.70315-.4375 1.6094-.4375 1.40625 0 2.2656.984375.875.96875.875 2.578125v.078125q0 1-.3906 1.796875-.375.796875-1.09375 1.25-.70315.4375-1.64065.4375-1.3906 0-2.2656-.96875-.8594-.96875-.8594-2.578125zm1.1875.140625q0 1.140625.51565 1.84375.53125.6875 1.42185.6875.9063 0 1.4219-.703125.53125-.703125.53125-1.96875 0-1.125-.54685-1.828125-.5313-.703125-1.4219-.703125-.8594 0-1.3906.703125-.5313.6875-.5313 1.96875zm8.39065 1.765625 1.70315-5.28125h1.2031l-2.46875 6.875h-.89065l-2.5-6.875h1.20315zm6.57815 1.71875q-1.39065 0-2.26565-.90625-.875-.921875-.875-2.46875v-.203125q0-1.03125.39065-1.828125.3906-.8125 1.0937-1.265625.70315-.453125 1.51565-.453125 1.34375 0 2.07815.890625.75.875.75 2.515625v.5h-4.6563q.0313 1.015625.5938 1.640625.5625.625 1.4375.625.625 0 1.04685-.25.4375-.265625.76565-.6875l.7187.5625q-.85935 1.328125-2.5937 1.328125zm-.14065-6.15625q-.71875 0-1.20315.515625-.4687.515625-.5937 1.453125h3.4531v-.09375q-.0625-.890625-.5-1.375-.4219-.5-1.15625-.5zm5.40625-.84375.03125.765625q.75-.890625 2.03125-.890625 1.4375 0 1.96875 1.109375.32815-.5.875-.796875.5625-.3125 1.3125-.3125 2.25 0 2.29685 2.390625v4.609375h-1.17185v-4.53125q0-.734375-.34375-1.09375-.3281-.375-1.125-.375-.65625 0-1.09375.390625-.42185.390625-.5 1.046875v4.5625h-1.17185v-4.5q0-1.5-1.4688-1.5-1.1562 0-1.5781.984375v5.015625h-1.1875v-6.875zm12.7344 7q-1.39065 0-2.26565-.90625-.875-.921875-.875-2.46875v-.203125q0-1.03125.39065-1.828125.3906-.8125 1.0937-1.265625.70315-.453125 1.51565-.453125 1.34375 0 2.07815.890625.75.875.75 2.515625v.5h-4.6563q.0313 1.015625.5938 1.640625.5625.625 1.4375.625.625 0 1.04685-.25.4375-.265625.76565-.6875l.7187.5625q-.85935 1.328125-2.5937 1.328125zm-.14065-6.15625q-.71875 0-1.20315.515625-.4687.515625-.5937 1.453125h3.4531v-.09375q-.0625-.890625-.5-1.375-.4219-.5-1.15625-.5zm5.40625-.84375.03125.875q.79685-1 2.0625-1 2.17185 0 2.20315 2.46875v4.53125h-1.1875v-4.546875q0-.734375-.3438-1.09375-.3281-.359375-1.0312-.359375-.5625 0-1 .3125-.4375.296875-.6719.796875v4.890625h-1.1719v-6.875zm7.4844-1.65625v1.65625h1.2812v.921875h-1.2812v4.25q0 .421875.17185.625.17185.203125.57815.203125.2031 0 .5625-.078125v.953125q-.4688.125-.9063.125-.7812 0-1.1875-.46875-.3906-.484375-.3906-1.359375v-4.25h-1.25v-.921875h1.25v-1.65625zm5.1875 1.0625q0-.828125.5312-1.359375.5313-.546875 1.3594-.546875.84375 0 1.3594.546875.5312.53125.5312 1.40625v.453125q0 .828125-.5312 1.359375-.5313.53125-1.3438.53125-.8281 0-1.375-.53125-.5312-.53125-.5312-1.40625zm.875.5q0 .484375.2656.8125.28125.3125.7656.3125.4375 0 .7188-.3125.2812-.3125.2812-.84375v-.46875q0-.484375-.2812-.8125-.26565-.328125-.7344-.328125-.46875 0-.75.328125-.2656.328125-.2656.84375zm3.625 4.703125q0-.828125.5312-1.359375.5313-.546875 1.3594-.546875.8281 0 1.3594.53125.5312.53125.5312 1.421875v.453125q0 .828125-.5312 1.375-.5313.53125-1.3594.53125-.8125 0-1.3594-.53125-.5312-.53125-.5312-1.421875zm.875.5q0 .5.2812.828125.2813.3125.75.3125.45315 0 .7188-.3125.2812-.3125.2812-.859375v-.46875q0-.5-.2812-.8125-.2813-.328125-.7344-.328125-.4531 0-.7344.3125-.2812.3125-.2812.859375zm-3.20315 1.0625-.67185-.421875 4.5156-7.21875.65625.421875z" fill="#80868b"/></svg>