<svg xmlns="http://www.w3.org/2000/svg" width="1016.993" height="481.097" viewBox="0 0 953.43143 451.02867"><defs><marker orient="auto" id="a" overflow="visible"><path d="M5.231 2.42L-1.324.01 5.23-2.401C4.184-.978 4.19.969 5.231 2.42z" fill-rule="evenodd" stroke="#000" stroke-width=".375" stroke-linejoin="round"/></marker><marker orient="auto" id="b" overflow="visible"><path d="M-5.231-2.42L1.324-.01-5.23 2.401c1.047-1.423 1.041-3.37 0-4.821z" fill-rule="evenodd" stroke="#000" stroke-width=".375" stroke-linejoin="round"/></marker></defs><path d="M206.45 240.172h-64.8c-5.7 0-10.5-4.8-10.5-10.5s4.8-10.5 10.5-10.5h64.5c5.7 0 10.5 4.8 10.5 10.5s-4.5 10.5-10.2 10.5zm-64.8-18c-4.2 0-7.5 3.3-7.5 7.5s3.6 7.5 7.5 7.5h64.5c4.2 0 7.5-3.3 7.5-7.5s-3.3-7.5-7.2-7.5h-64.8z"/><path d="M143.45 231.172c-.9 0-1.5-.6-1.5-1.5s.6-1.5 1.5-1.5 1.5.6 1.5 1.5-.9 1.5-1.5 1.5zm6 0c-.9 0-1.5-.6-1.5-1.5s.6-1.5 1.5-1.5 1.5.6 1.5 1.5-.9 1.5-1.5 1.5zm57-9h-64.8c-5.7 0-10.5-4.8-10.5-10.5s4.8-10.5 10.5-10.5h64.5c5.7 0 10.5 4.8 10.5 10.5s-4.5 10.5-10.2 10.5zm-64.8-18c-4.2 0-7.5 3.3-7.5 7.5s3.6 7.5 7.5 7.5h64.5c4.2 0 7.5-3.3 7.5-7.5s-3.3-7.5-7.2-7.5h-64.8z"/><path d="M143.45 213.172c-.9 0-1.5-.6-1.5-1.5s.6-1.5 1.5-1.5 1.5.6 1.5 1.5-.6 1.5-1.5 1.5zm6 0c-.9 0-1.5-.6-1.5-1.5s.6-1.5 1.5-1.5 1.5.6 1.5 1.5-.9 1.5-1.5 1.5z"/><circle r="1" cy="26" cx="26.3" transform="matrix(3 0 0 3 129.05 150.172)"/><circle r="1" cy="20" cx="26.3" transform="matrix(3 0 0 3 129.05 150.172)"/><path d="M192.95 195.172h-36.3c-6.6 0-12-5.4-12-12 0-6 4.5-11.1 10.5-12v-.6c0-11.4 9-20.4 20.1-20.4 9 0 16.8 6 19.2 14.7 7.5.9 13.2 7.2 13.2 15 .3 8.4-6.6 15.3-14.7 15.3zm-36.3-21c-4.8 0-8.7 3.9-8.7 9s3.9 9 9 9h36.3c6.6 0 12-5.4 12-12.3 0-6.6-5.1-11.7-11.4-12-.6 0-1.2-.6-1.5-1.2-2.1-7.8-9-13.5-17.1-13.5-9.3 0-17.1 7.8-17.1 17.4v1.8c0 .6 0 .9-.3 1.2-.3.3-.9.6-1.2.6z"/><text style="line-height:125%" x="-4.689" y="589.725" font-weight="400" font-size="40" font-family="sans-serif" letter-spacing="0" word-spacing="0" transform="translate(120.56 -319.35)"><tspan x="-4.689" y="589.725" font-size="22.5">Your Server</tspan></text><text style="line-height:125%" x="568.825" y="590.121" font-weight="400" font-size="40" font-family="sans-serif" letter-spacing="0" word-spacing="0" transform="translate(120.56 -319.35)"><tspan x="568.825" y="590.121" font-size="22.5">Push Service</tspan></text><path d="M660.816 225.172h-41.7c-7.5 0-13.5-6.3-13.5-13.5 0-6.9 5.1-12.6 12-13.2v-.9c0-12.6 10.2-23.1 22.8-23.1 10.5 0 19.5 6.9 22.2 16.8 8.7.9 15 8.1 15 16.8 0 9.3-7.5 17.1-16.8 17.1zm-41.7-24c-5.7 0-10.5 4.8-10.5 10.5s4.8 10.5 10.5 10.5h41.7c7.8 0 14.1-6.3 14.1-14.1 0-7.5-6-13.8-13.5-14.1-.6 0-1.2-.6-1.5-1.2-2.1-9.3-10.2-15.6-19.5-15.6-10.8.3-19.8 9-19.8 20.1v2.1c0 .6 0 .9-.3 1.2-.3.6-.9.6-1.2.6z"/><path d="M681.216 215.872c-.6 0-1.2-.6-1.5-1.2 0-.9.3-1.5 1.2-1.8 6.6-1.2 11.7-6.9 11.7-13.8 0-7.5-6-13.8-13.5-14.1-.6 0-1.2-.6-1.5-1.2-2.1-9.3-10.2-15.6-19.5-15.6-3.9 0-7.8 1.2-11.1 3.3-.6.6-1.5.3-2.1-.3-.6-.6-.3-1.5.3-2.1 4.2-2.4 8.4-3.9 13.2-3.9 10.5 0 19.5 6.9 22.2 16.8 8.7.9 15 8.1 15 16.8 0 8.4-6 15.6-14.4 17.1.3 0 .3 0 0 0zm-42.268-.434c-.2 0-.4-.1-.5-.3l-2.4-7.3-7.3-2.4c-.1-.1-.3-.3-.3-.5s.1-.4.2-.5l24-14c.2-.1.4-.1.5 0 .2.2.3.4.3.6l-4 21c0 .1-.1.3-.2.3-.1.1-.3.1-.4 0l-8.5-3.2-.9 5.9c0 .2-.2.4-.5.4zm-8.8-10.6l6.5 2.2c.1 0 .3.2.3.3l1.8 5.5.7-4.5c0-.2.1-.3.2-.4.1-.1.3-.1.4 0l8.4 3.3 3.7-19.3-22 12.9z"/><path d="M639.948 208.938c-.1 0-.2 0-.3-.1-.2-.2-.3-.5-.1-.7l8.9-12-11.6 11.6c-.2.2-.5.2-.7 0-.2-.2-.2-.5 0-.7l16.4-16.5c.2-.2.5-.2.7 0 .2.2.2.5.1.7l-13 17.5c-.1.1-.2.2-.4.2zm-1 6.5c-.1 0-.2 0-.3-.1-.2-.2-.3-.5-.1-.7l4-5c.2-.2.5-.2.7-.1.2.2.3.5.1.7l-4 5c-.1.1-.3.2-.4.2zm-14.1-1.6c-.1 0-.2 0-.3-.1l-.9-.9c-.2-.2-.2-.5 0-.7.2-.2.5-.2.7 0l.9.9c.2.2.2.5 0 .7-.1 0-.3.1-.4.1zm7.4 4c-.6-.1-1.2-.2-1.7-.4-.3-.1-.4-.4-.3-.6.1-.2.4-.4.6-.3.5.2 1 .3 1.5.3.3 0 .5.3.4.6 0 .2-.2.4-.5.4zm2.4 0c-.2 0-.5-.2-.5-.4 0-.3.1-.5.4-.6.2 0 .3-.1.5-.1.3-.1.5.1.6.4.1.3-.1.5-.4.6-.1 0-.3 0-.6.1.1 0 .1 0 0 0zm-6.1-1.3c-.1 0-.2 0-.2-.1-.5-.3-.9-.6-1.4-.9-.2-.2-.3-.5-.1-.7.2-.2.5-.3.7-.1.4.3.9.6 1.3.8.2.1.3.4.2.7-.2.2-.3.3-.5.3zm8 .7c-.2 0-.4-.1-.5-.3-.1-.3 0-.5.3-.7.4-.2.7-.3 1.1-.5.2-.1.5-.1.7.2.1.2.1.5-.2.7l-1.2.6h-.2z"/><path style="isolation:auto;mix-blend-mode:normal" color="#000" overflow="visible" fill="none" stroke="#000" stroke-width="1.221" d="M713.608 185.783h158.78v18.779h-158.78z"/><text style="line-height:125%" x="866.107" y="51.133" font-weight="400" font-size="15" font-family="sans-serif" letter-spacing="0" word-spacing="0" stroke-width="2" transform="translate(-147.002 148.178)"><tspan x="866.107" y="51.133" font-size="13.75">http://endpoint.io/ID1</tspan></text><path style="isolation:auto;mix-blend-mode:normal" color="#000" overflow="visible" fill="none" stroke="#000" stroke-width=".956" d="M872.476 185.65h45.044v19.045h-45.044z"/><path d="M889.964 200.076c-2.697 2.701-7.114 2.705-9.815.008-2.702-2.697-2.706-7.114-.009-9.815 2.697-2.702 7.114-2.705 9.816-.008 2.701 2.696 2.705 7.113.008 9.815zm-9.21-9.194a6.035 6.035 0 0 0 .008 8.588 6.035 6.035 0 0 0 8.588-.007 6.035 6.035 0 0 0-.007-8.588 6.035 6.035 0 0 0-8.589.007z"/><path d="M911.737 195.457c-.06.061-.183.184-.306.184l-19.63.016a.42.42 0 0 1-.43-.429.42.42 0 0 1 .429-.43l19.63-.016a.42.42 0 0 1 .43.43c.061.06-.061.183-.123.245z"/><path d="M908.673 198.527c-.062.06-.184.184-.307.184a.42.42 0 0 1-.43-.43l-.002-3.066a.42.42 0 0 1 .429-.43.42.42 0 0 1 .43.429l.002 3.067c.062.061-.061.184-.122.246zm-3.681.003c-.061.061-.184.184-.307.184a.42.42 0 0 1-.43-.43l-.002-3.066a.42.42 0 0 1 .43-.43.42.42 0 0 1 .429.429l.003 3.067c.06.061-.062.184-.123.246z"/><circle class="st0" cx="29" cy="15" r=".5" fill="#231f20" transform="translate(420.602 144.716) scale(1.76417)"/><circle class="st0" cx="27" cy="15" r=".5" fill="#231f20" transform="translate(420.602 144.716) scale(1.76417)"/><circle class="st0" cx="27" cy="17" r=".5" fill="#231f20" transform="translate(420.602 144.716) scale(1.76417)"/><circle class="st0" cx="27" cy="13" r=".5" fill="#231f20" transform="translate(420.602 144.716) scale(1.76417)"/><circle class="st0" cx="25" cy="17" r=".5" fill="#231f20" transform="translate(420.602 144.716) scale(1.76417)"/><circle class="st0" cx="25" cy="19" r=".5" fill="#231f20" transform="translate(420.602 144.716) scale(1.76417)"/><circle class="st0" cx="25" cy="13" r=".5" fill="#231f20" transform="translate(420.602 144.716) scale(1.76417)"/><circle class="st0" cx="25" cy="11" r=".5" fill="#231f20" transform="translate(420.602 144.716) scale(1.76417)"/><circle class="st0" cx="23" cy="17" r=".5" fill="#231f20" transform="translate(420.602 144.716) scale(1.76417)"/><circle class="st0" cx="23" cy="19" r=".5" fill="#231f20" transform="translate(420.602 144.716) scale(1.76417)"/><circle class="st0" cx="23" cy="21" r=".5" fill="#231f20" transform="translate(420.602 144.716) scale(1.76417)"/><circle class="st0" cx="23" cy="13" r=".5" fill="#231f20" transform="translate(420.602 144.716) scale(1.76417)"/><circle class="st0" cx="23" cy="11" r=".5" fill="#231f20" transform="translate(420.602 144.716) scale(1.76417)"/><circle class="st0" cx="23" cy="9" r=".5" fill="#231f20" transform="translate(420.602 144.716) scale(1.76417)"/><circle class="st0" cx="21" cy="17" r=".5" fill="#231f20" transform="translate(420.602 144.716) scale(1.76417)"/><circle class="st0" cx="21" cy="19" r=".5" fill="#231f20" transform="translate(420.602 144.716) scale(1.76417)"/><circle class="st0" cx="21" cy="21" r=".5" fill="#231f20" transform="translate(420.602 144.716) scale(1.76417)"/><circle class="st0" cx="21" cy="23" r=".5" fill="#231f20" transform="translate(420.602 144.716) scale(1.76417)"/><circle class="st0" cx="21" cy="13" r=".5" fill="#231f20" transform="translate(420.602 144.716) scale(1.76417)"/><circle class="st0" cx="21" cy="11" r=".5" fill="#231f20" transform="translate(420.602 144.716) scale(1.76417)"/><circle class="st0" cx="21" cy="9" r=".5" fill="#231f20" transform="translate(420.602 144.716) scale(1.76417)"/><circle class="st0" cx="21" cy="7" r=".5" fill="#231f20" transform="translate(420.602 144.716) scale(1.76417)"/><circle class="st0" cx="19" cy="17" r=".5" fill="#231f20" transform="translate(420.602 144.716) scale(1.76417)"/><circle class="st0" cx="19" cy="19" r=".5" fill="#231f20" transform="translate(420.602 144.716) scale(1.76417)"/><circle class="st0" cx="19" cy="21" r=".5" fill="#231f20" transform="translate(420.602 144.716) scale(1.76417)"/><circle class="st0" cx="19" cy="23" r=".5" fill="#231f20" transform="translate(420.602 144.716) scale(1.76417)"/><circle class="st0" cx="19" cy="25" r=".5" fill="#231f20" transform="translate(420.602 144.716) scale(1.76417)"/><circle class="st0" cx="19" cy="13" r=".5" fill="#231f20" transform="translate(420.602 144.716) scale(1.76417)"/><circle class="st0" cx="19" cy="11" r=".5" fill="#231f20" transform="translate(420.602 144.716) scale(1.76417)"/><circle class="st0" cx="19" cy="9" r=".5" fill="#231f20" transform="translate(420.602 144.716) scale(1.76417)"/><circle class="st0" cx="19" cy="7" r=".5" fill="#231f20" transform="translate(420.602 144.716) scale(1.76417)"/><circle class="st0" cx="19" cy="5" r=".5" fill="#231f20" transform="translate(420.602 144.716) scale(1.76417)"/><circle class="st0" cx="17" cy="17" r=".5" fill="#231f20" transform="translate(420.602 144.716) scale(1.76417)"/><circle class="st0" cx="17" cy="19" r=".5" fill="#231f20" transform="translate(420.602 144.716) scale(1.76417)"/><circle class="st0" cx="17" cy="21" r=".5" fill="#231f20" transform="translate(420.602 144.716) scale(1.76417)"/><circle class="st0" cx="17" cy="23" r=".5" fill="#231f20" transform="translate(420.602 144.716) scale(1.76417)"/><circle class="st0" cx="17" cy="25" r=".5" fill="#231f20" transform="translate(420.602 144.716) scale(1.76417)"/><circle class="st0" cx="17" cy="27" r=".5" fill="#231f20" transform="translate(420.602 144.716) scale(1.76417)"/><circle class="st0" cx="17" cy="13" r=".5" fill="#231f20" transform="translate(420.602 144.716) scale(1.76417)"/><circle class="st0" cx="17" cy="11" r=".5" fill="#231f20" transform="translate(420.602 144.716) scale(1.76417)"/><circle class="st0" cx="17" cy="9" r=".5" fill="#231f20" transform="translate(420.602 144.716) scale(1.76417)"/><circle class="st0" cx="17" cy="7" r=".5" fill="#231f20" transform="translate(420.602 144.716) scale(1.76417)"/><circle class="st0" cx="17" cy="5" r=".5" fill="#231f20" transform="translate(420.602 144.716) scale(1.76417)"/><circle class="st0" cx="17" cy="3" r=".5" fill="#231f20" transform="translate(420.602 144.716) scale(1.76417)"/><circle class="st0" cx="25" cy="15" r=".5" fill="#231f20" transform="translate(420.602 144.716) scale(1.76417)"/><circle class="st0" cx="23" cy="15" r=".5" fill="#231f20" transform="translate(420.602 144.716) scale(1.76417)"/><circle class="st0" cx="21" cy="15" r=".5" fill="#231f20" transform="translate(420.602 144.716) scale(1.76417)"/><circle class="st0" cx="19" cy="15" r=".5" fill="#231f20" transform="translate(420.602 144.716) scale(1.76417)"/><circle class="st0" cx="17" cy="15" r=".5" fill="#231f20" transform="translate(420.602 144.716) scale(1.76417)"/><circle class="st0" cx="15" cy="17" r=".5" fill="#231f20" transform="translate(420.602 144.716) scale(1.76417)"/><circle class="st0" cx="15" cy="13" r=".5" fill="#231f20" transform="translate(420.602 144.716) scale(1.76417)"/><circle class="st0" cx="15" cy="15" r=".5" fill="#231f20" transform="translate(420.602 144.716) scale(1.76417)"/><circle class="st0" cx="13" cy="17" r=".5" fill="#231f20" transform="translate(420.602 144.716) scale(1.76417)"/><circle class="st0" cx="13" cy="13" r=".5" fill="#231f20" transform="translate(420.602 144.716) scale(1.76417)"/><circle class="st0" cx="13" cy="15" r=".5" fill="#231f20" transform="translate(420.602 144.716) scale(1.76417)"/><circle class="st0" cx="11" cy="17" r=".5" fill="#231f20" transform="translate(420.602 144.716) scale(1.76417)"/><circle class="st0" cx="11" cy="13" r=".5" fill="#231f20" transform="translate(420.602 144.716) scale(1.76417)"/><circle class="st0" cx="11" cy="15" r=".5" fill="#231f20" transform="translate(420.602 144.716) scale(1.76417)"/><circle class="st0" cx="9" cy="17" r=".5" fill="#231f20" transform="translate(420.602 144.716) scale(1.76417)"/><circle class="st0" cx="9" cy="13" r=".5" fill="#231f20" transform="translate(420.602 144.716) scale(1.76417)"/><circle class="st0" cx="9" cy="15" r=".5" fill="#231f20" transform="translate(420.602 144.716) scale(1.76417)"/><circle class="st0" cx="7" cy="17" r=".5" fill="#231f20" transform="translate(420.602 144.716) scale(1.76417)"/><circle class="st0" cx="7" cy="13" r=".5" fill="#231f20" transform="translate(420.602 144.716) scale(1.76417)"/><circle class="st0" cx="7" cy="15" r=".5" fill="#231f20" transform="translate(420.602 144.716) scale(1.76417)"/><circle class="st0" cx="5" cy="17" r=".5" fill="#231f20" transform="translate(420.602 144.716) scale(1.76417)"/><circle class="st0" cx="5" cy="13" r=".5" fill="#231f20" transform="translate(420.602 144.716) scale(1.76417)"/><circle class="st0" cx="5" cy="15" r=".5" fill="#231f20" transform="translate(420.602 144.716) scale(1.76417)"/><circle class="st0" cx="3" cy="17" r=".5" fill="#231f20" transform="translate(420.602 144.716) scale(1.76417)"/><circle class="st0" cx="3" cy="13" r=".5" fill="#231f20" transform="translate(420.602 144.716) scale(1.76417)"/><circle class="st0" cx="3" cy="15" r=".5" fill="#231f20" transform="translate(420.602 144.716) scale(1.76417)"/><circle class="st0" cx="1" cy="17" r=".5" fill="#231f20" transform="translate(420.602 144.716) scale(1.76417)"/><circle class="st0" cx="1" cy="13" r=".5" fill="#231f20" transform="translate(420.602 144.716) scale(1.76417)"/><circle class="st0" cx="1" cy="15" r=".5" fill="#231f20" transform="translate(420.602 144.716) scale(1.76417)"/><circle class="st0" cx="29" cy="15" r=".5" fill="#231f20" transform="matrix(-1.76417 0 0 1.76417 473.527 192.703)"/><circle class="st0" cx="27" cy="15" r=".5" fill="#231f20" transform="matrix(-1.76417 0 0 1.76417 473.527 192.703)"/><circle class="st0" cx="27" cy="17" r=".5" fill="#231f20" transform="matrix(-1.76417 0 0 1.76417 473.527 192.703)"/><circle class="st0" cx="27" cy="13" r=".5" fill="#231f20" transform="matrix(-1.76417 0 0 1.76417 473.527 192.703)"/><circle class="st0" cx="25" cy="17" r=".5" fill="#231f20" transform="matrix(-1.76417 0 0 1.76417 473.527 192.703)"/><circle class="st0" cx="25" cy="19" r=".5" fill="#231f20" transform="matrix(-1.76417 0 0 1.76417 473.527 192.703)"/><circle class="st0" cx="25" cy="13" r=".5" fill="#231f20" transform="matrix(-1.76417 0 0 1.76417 473.527 192.703)"/><circle class="st0" cx="25" cy="11" r=".5" fill="#231f20" transform="matrix(-1.76417 0 0 1.76417 473.527 192.703)"/><circle class="st0" cx="23" cy="17" r=".5" fill="#231f20" transform="matrix(-1.76417 0 0 1.76417 473.527 192.703)"/><circle class="st0" cx="23" cy="19" r=".5" fill="#231f20" transform="matrix(-1.76417 0 0 1.76417 473.527 192.703)"/><circle class="st0" cx="23" cy="21" r=".5" fill="#231f20" transform="matrix(-1.76417 0 0 1.76417 473.527 192.703)"/><circle class="st0" cx="23" cy="13" r=".5" fill="#231f20" transform="matrix(-1.76417 0 0 1.76417 473.527 192.703)"/><circle class="st0" cx="23" cy="11" r=".5" fill="#231f20" transform="matrix(-1.76417 0 0 1.76417 473.527 192.703)"/><circle class="st0" cx="23" cy="9" r=".5" fill="#231f20" transform="matrix(-1.76417 0 0 1.76417 473.527 192.703)"/><circle class="st0" cx="21" cy="17" r=".5" fill="#231f20" transform="matrix(-1.76417 0 0 1.76417 473.527 192.703)"/><circle class="st0" cx="21" cy="19" r=".5" fill="#231f20" transform="matrix(-1.76417 0 0 1.76417 473.527 192.703)"/><circle class="st0" cx="21" cy="21" r=".5" fill="#231f20" transform="matrix(-1.76417 0 0 1.76417 473.527 192.703)"/><circle class="st0" cx="21" cy="23" r=".5" fill="#231f20" transform="matrix(-1.76417 0 0 1.76417 473.527 192.703)"/><circle class="st0" cx="21" cy="13" r=".5" fill="#231f20" transform="matrix(-1.76417 0 0 1.76417 473.527 192.703)"/><circle class="st0" cx="21" cy="11" r=".5" fill="#231f20" transform="matrix(-1.76417 0 0 1.76417 473.527 192.703)"/><circle class="st0" cx="21" cy="9" r=".5" fill="#231f20" transform="matrix(-1.76417 0 0 1.76417 473.527 192.703)"/><circle class="st0" cx="21" cy="7" r=".5" fill="#231f20" transform="matrix(-1.76417 0 0 1.76417 473.527 192.703)"/><circle class="st0" cx="19" cy="17" r=".5" fill="#231f20" transform="matrix(-1.76417 0 0 1.76417 473.527 192.703)"/><circle class="st0" cx="19" cy="19" r=".5" fill="#231f20" transform="matrix(-1.76417 0 0 1.76417 473.527 192.703)"/><circle class="st0" cx="19" cy="21" r=".5" fill="#231f20" transform="matrix(-1.76417 0 0 1.76417 473.527 192.703)"/><circle class="st0" cx="19" cy="23" r=".5" fill="#231f20" transform="matrix(-1.76417 0 0 1.76417 473.527 192.703)"/><circle class="st0" cx="19" cy="25" r=".5" fill="#231f20" transform="matrix(-1.76417 0 0 1.76417 473.527 192.703)"/><circle class="st0" cx="19" cy="13" r=".5" fill="#231f20" transform="matrix(-1.76417 0 0 1.76417 473.527 192.703)"/><circle class="st0" cx="19" cy="11" r=".5" fill="#231f20" transform="matrix(-1.76417 0 0 1.76417 473.527 192.703)"/><circle class="st0" cx="19" cy="9" r=".5" fill="#231f20" transform="matrix(-1.76417 0 0 1.76417 473.527 192.703)"/><circle class="st0" cx="19" cy="7" r=".5" fill="#231f20" transform="matrix(-1.76417 0 0 1.76417 473.527 192.703)"/><circle class="st0" cx="19" cy="5" r=".5" fill="#231f20" transform="matrix(-1.76417 0 0 1.76417 473.527 192.703)"/><circle class="st0" cx="17" cy="17" r=".5" fill="#231f20" transform="matrix(-1.76417 0 0 1.76417 473.527 192.703)"/><circle class="st0" cx="17" cy="19" r=".5" fill="#231f20" transform="matrix(-1.76417 0 0 1.76417 473.527 192.703)"/><circle class="st0" cx="17" cy="21" r=".5" fill="#231f20" transform="matrix(-1.76417 0 0 1.76417 473.527 192.703)"/><circle class="st0" cx="17" cy="23" r=".5" fill="#231f20" transform="matrix(-1.76417 0 0 1.76417 473.527 192.703)"/><circle class="st0" cx="17" cy="25" r=".5" fill="#231f20" transform="matrix(-1.76417 0 0 1.76417 473.527 192.703)"/><circle class="st0" cx="17" cy="27" r=".5" fill="#231f20" transform="matrix(-1.76417 0 0 1.76417 473.527 192.703)"/><circle class="st0" cx="17" cy="13" r=".5" fill="#231f20" transform="matrix(-1.76417 0 0 1.76417 473.527 192.703)"/><circle class="st0" cx="17" cy="11" r=".5" fill="#231f20" transform="matrix(-1.76417 0 0 1.76417 473.527 192.703)"/><circle class="st0" cx="17" cy="9" r=".5" fill="#231f20" transform="matrix(-1.76417 0 0 1.76417 473.527 192.703)"/><circle class="st0" cx="17" cy="7" r=".5" fill="#231f20" transform="matrix(-1.76417 0 0 1.76417 473.527 192.703)"/><circle class="st0" cx="17" cy="5" r=".5" fill="#231f20" transform="matrix(-1.76417 0 0 1.76417 473.527 192.703)"/><circle class="st0" cx="17" cy="3" r=".5" fill="#231f20" transform="matrix(-1.76417 0 0 1.76417 473.527 192.703)"/><circle class="st0" cx="25" cy="15" r=".5" fill="#231f20" transform="matrix(-1.76417 0 0 1.76417 473.527 192.703)"/><circle class="st0" cx="23" cy="15" r=".5" fill="#231f20" transform="matrix(-1.76417 0 0 1.76417 473.527 192.703)"/><circle class="st0" cx="21" cy="15" r=".5" fill="#231f20" transform="matrix(-1.76417 0 0 1.76417 473.527 192.703)"/><circle class="st0" cx="19" cy="15" r=".5" fill="#231f20" transform="matrix(-1.76417 0 0 1.76417 473.527 192.703)"/><circle class="st0" cx="17" cy="15" r=".5" fill="#231f20" transform="matrix(-1.76417 0 0 1.76417 473.527 192.703)"/><circle class="st0" cx="15" cy="17" r=".5" fill="#231f20" transform="matrix(-1.76417 0 0 1.76417 473.527 192.703)"/><circle class="st0" cx="15" cy="13" r=".5" fill="#231f20" transform="matrix(-1.76417 0 0 1.76417 473.527 192.703)"/><circle class="st0" cx="15" cy="15" r=".5" fill="#231f20" transform="matrix(-1.76417 0 0 1.76417 473.527 192.703)"/><circle class="st0" cx="13" cy="17" r=".5" fill="#231f20" transform="matrix(-1.76417 0 0 1.76417 473.527 192.703)"/><circle class="st0" cx="13" cy="13" r=".5" fill="#231f20" transform="matrix(-1.76417 0 0 1.76417 473.527 192.703)"/><circle class="st0" cx="13" cy="15" r=".5" fill="#231f20" transform="matrix(-1.76417 0 0 1.76417 473.527 192.703)"/><circle class="st0" cx="11" cy="17" r=".5" fill="#231f20" transform="matrix(-1.76417 0 0 1.76417 473.527 192.703)"/><circle class="st0" cx="11" cy="13" r=".5" fill="#231f20" transform="matrix(-1.76417 0 0 1.76417 473.527 192.703)"/><circle class="st0" cx="11" cy="15" r=".5" fill="#231f20" transform="matrix(-1.76417 0 0 1.76417 473.527 192.703)"/><circle class="st0" cx="9" cy="17" r=".5" fill="#231f20" transform="matrix(-1.76417 0 0 1.76417 473.527 192.703)"/><circle class="st0" cx="9" cy="13" r=".5" fill="#231f20" transform="matrix(-1.76417 0 0 1.76417 473.527 192.703)"/><circle class="st0" cx="9" cy="15" r=".5" fill="#231f20" transform="matrix(-1.76417 0 0 1.76417 473.527 192.703)"/><circle class="st0" cx="7" cy="17" r=".5" fill="#231f20" transform="matrix(-1.76417 0 0 1.76417 473.527 192.703)"/><circle class="st0" cx="7" cy="13" r=".5" fill="#231f20" transform="matrix(-1.76417 0 0 1.76417 473.527 192.703)"/><circle class="st0" cx="7" cy="15" r=".5" fill="#231f20" transform="matrix(-1.76417 0 0 1.76417 473.527 192.703)"/><circle class="st0" cx="5" cy="17" r=".5" fill="#231f20" transform="matrix(-1.76417 0 0 1.76417 473.527 192.703)"/><circle class="st0" cx="5" cy="13" r=".5" fill="#231f20" transform="matrix(-1.76417 0 0 1.76417 473.527 192.703)"/><circle class="st0" cx="5" cy="15" r=".5" fill="#231f20" transform="matrix(-1.76417 0 0 1.76417 473.527 192.703)"/><circle class="st0" cx="3" cy="17" r=".5" fill="#231f20" transform="matrix(-1.76417 0 0 1.76417 473.527 192.703)"/><circle class="st0" cx="3" cy="13" r=".5" fill="#231f20" transform="matrix(-1.76417 0 0 1.76417 473.527 192.703)"/><circle class="st0" cx="3" cy="15" r=".5" fill="#231f20" transform="matrix(-1.76417 0 0 1.76417 473.527 192.703)"/><circle class="st0" cx="1" cy="17" r=".5" fill="#231f20" transform="matrix(-1.76417 0 0 1.76417 473.527 192.703)"/><circle class="st0" cx="1" cy="13" r=".5" fill="#231f20" transform="matrix(-1.76417 0 0 1.76417 473.527 192.703)"/><circle class="st0" cx="1" cy="15" r=".5" fill="#231f20" transform="matrix(-1.76417 0 0 1.76417 473.527 192.703)"/><path d="M83.597 397.69v2c0 .2-.1.4-.3.4l-4 2c-.2.1-.4.1-.6 0l-.6-.6-.6.6c-.2.2-.5.2-.7 0l-.6-.6-.6.6c-.2.2-.5.2-.7 0l-.7-.7-.9.7c-.2.1-.3.1-.4.1h-4.4c-.3 0-.5-.2-.5-.5s.2-.5.5-.5h4.2l1.1-.9c.2-.2.5-.1.7 0l.6.6.6-.6c.2-.2.5-.2.7 0l.6.6.6-.6c.2-.2.5-.2.7 0l.7.7 3.6-1.6v-1.4l-3.6-1.8h-10.4c-.3 0-.5-.2-.5-.5s.2-.5.5-.5h10.5c.1 0 .2 0 .2.1l4 2c.2 0 .3.2.3.4z"/><path d="M83.597 397.69c0 .3-.2.5-.5.5h-14c-.3 0-.5-.2-.5-.5s.2-.5.5-.5h14c.3 0 .5.2.5.5z"/><path d="M69.597 398.69c0 4.1-3.4 7.5-7.5 7.5s-7.5-3.4-7.5-7.5 3.4-7.5 7.5-7.5 7.5 3.4 7.5 7.5zm-14 0c0 3.6 2.9 6.5 6.5 6.5s6.5-2.9 6.5-6.5-2.9-6.5-6.5-6.5-6.5 2.9-6.5 6.5z"/><path d="M62.597 398.69c0 1.4-1.1 2.5-2.5 2.5s-2.5-1.1-2.5-2.5 1.1-2.5 2.5-2.5 2.5 1.1 2.5 2.5zm-4 0c0 .8.7 1.5 1.5 1.5s1.5-.7 1.5-1.5-.7-1.5-1.5-1.5-1.5.7-1.5 1.5zm4.875-23.92c-2.477 2.48-6.533 2.483-9.014.007-2.48-2.477-2.484-6.534-.007-9.015 2.476-2.48 6.533-2.484 9.014-.007 2.48 2.477 2.484 6.533.007 9.014zm-8.458-8.445a5.543 5.543 0 0 0 .007 7.888 5.543 5.543 0 0 0 7.887-.007 5.543 5.543 0 0 0-.006-7.887 5.543 5.543 0 0 0-7.888.006z"/><path d="M83.469 370.527c-.057.056-.17.17-.282.17l-18.028.014a.385.385 0 0 1-.395-.394c0-.225.169-.394.394-.394l18.028-.015c.226 0 .395.168.395.394.057.056-.056.169-.112.225z"/><path d="M80.654 373.346c-.056.057-.169.17-.281.17a.385.385 0 0 1-.395-.395l-.003-2.816c0-.226.17-.395.395-.395s.394.169.394.394l.003 2.817c.056.056-.057.169-.113.225zm-3.38.004c-.056.055-.17.168-.282.168a.385.385 0 0 1-.394-.394l-.003-2.817c0-.225.169-.394.394-.394.226 0 .395.168.395.394l.002 2.817c.057.056-.056.169-.112.225z"/><text y="-123.995" x="70.471" style="line-height:125%" font-weight="400" font-size="40" font-family="sans-serif" letter-spacing="0" word-spacing="0" transform="translate(21.667 498.399)"><tspan y="-123.995" x="70.471" font-size="15">Public Key</tspan></text><text y="-95.571" x="70.471" style="line-height:125%" font-weight="400" font-size="40" font-family="sans-serif" letter-spacing="0" word-spacing="0" transform="translate(21.667 498.399)"><tspan y="-95.571" x="70.471" font-size="15">Private Key</tspan></text><text style="line-height:125%;text-align:center" x="53.364" y="369.979" font-weight="400" font-size="40" font-family="sans-serif" letter-spacing="0" word-spacing="0" text-anchor="middle" transform="translate(138.232 -319.35)"><tspan x="53.364" y="369.979" style="-inkscape-font-specification:'sans-serif Italic'" font-style="italic" font-size="20">Sign Authorization</tspan><tspan x="53.364" y="394.979" style="-inkscape-font-specification:'sans-serif Italic'" font-style="italic" font-size="20">Header with Private Key</tspan></text><g transform="translate(-148.135 117.349)"><circle r="14.464" cy="-59.738" cx="198.305" style="isolation:auto;mix-blend-mode:normal" color="#000" overflow="visible" fill="none" stroke="#000" stroke-width=".547"/><text y="-51.762" x="191.152" style="line-height:125%" font-weight="400" font-size="21.881" font-family="sans-serif" letter-spacing="0" word-spacing="0"><tspan y="-51.762" x="191.152">1</tspan></text></g><path d="M250.009 128.267h-13.756c-.412 0-.687-.276-.687-.688v-11.004c0-.413.275-.688.687-.688h13.756c.412 0 .687.275.687.688v11.004c0 .412-.275.688-.687.688zm-13.068-1.376h12.38v-9.629h-12.38v9.629z"/><path d="M243.131 125.515c-.413 0-.688-.275-.688-.687V120.7c0-.413.275-.688.688-.688.413 0 .688.275.688.688v4.127c0 .412-.275.687-.688.687zm5.502-8.253c-.412 0-.688-.275-.688-.687v-1.376c0-2.476-2.338-4.814-4.814-4.814-2.613 0-4.814 2.063-4.814 4.539v1.65c0 .413-.275.688-.688.688-.413 0-.688-.275-.688-.687v-1.789c0-3.163 2.889-5.914 6.19-5.914 3.301 0 6.19 2.888 6.19 6.19v1.375c0 .55-.275.825-.688.825z"/><path d="M258.95 118.638h-6.19c-.413 0-.688-.275-.688-.688 0-.413.275-.688.688-.688h6.19a2.76 2.76 0 0 0 2.75-2.75V95.253a2.76 2.76 0 0 0-2.75-2.751h-31.637a2.76 2.76 0 0 0-2.752 2.75v19.258a2.76 2.76 0 0 0 2.752 2.751h6.19c.412 0 .687.275.687.688 0 .413-.275.688-.688.688h-6.19c-2.338 0-4.126-1.788-4.126-4.127V95.254c0-2.339 1.788-4.127 4.127-4.127h31.637c2.338 0 4.126 1.788 4.126 4.127v19.257c0 2.339-1.788 4.127-4.126 4.127z"/><path d="M242.718 106.258c-.962 0-2.063-.275-2.75-.825L226.9 95.804c-.275-.275-.413-.688-.138-.963.275-.275.688-.412.963-.137l13.068 9.628c.963.688 3.026.688 3.989 0l13.067-9.628c.275-.275.688-.138.963.137s.138.688-.137.963l-13.068 9.629c-.825.55-1.788.825-2.889.825zM228 114.511c-.137 0-.412 0-.55-.137a.665.665 0 0 1 0-.963l8.253-8.253a.665.665 0 0 1 .963 0 .665.665 0 0 1 0 .963l-8.253 8.253c0 .137-.275.137-.413.137zm30.262 0c-.138 0-.413 0-.55-.137l-8.254-8.253a.665.665 0 0 1 0-.963.665.665 0 0 1 .963 0l8.254 8.253a.665.665 0 0 1 0 .963c0 .137-.276.137-.413.137zm-15.131 8.253c-1.1 0-2.063-.962-2.063-2.063 0-1.1.963-2.063 2.063-2.063s2.063.963 2.063 2.063-.963 2.063-2.063 2.063zm0-2.75c-.413 0-.688.274-.688.687 0 .413.275.688.688.688.413 0 .688-.275.688-.688 0-.413-.275-.688-.688-.688zm-127.496 11.249H85.443c-.431 0-.719-.288-.719-.719v-30.192c0-.144.144-.432.144-.575L96.37 88.275c.144 0 .431-.144.575-.144h18.69c.432 0 .72.287.72.719v41.694c0 .431-.288.719-.72.719zm-29.473-1.438h28.755V89.57H97.232l-11.07 11.07v29.186z"/><path d="M96.945 101.07H85.443c-.431 0-.719-.287-.719-.718 0-.432.288-.72.719-.72h10.783V88.85c0-.432.288-.72.719-.72s.719.288.719.72v11.502c0 .431-.288.719-.72.719z"/><text y="739.012" x="379.575" style="line-height:125%" font-weight="400" font-size="40" font-family="sans-serif" letter-spacing="0" word-spacing="0" transform="translate(-111.13 -280.123) scale(.53575)"><tspan y="739.012" x="379.575" font-size="30">Hi</tspan></text><path d="M191.88 108.172v3.05c0 .305-.152.61-.457.61l-6.1 3.05a.972.972 0 0 1-.915 0l-.915-.916-.914.915a.737.737 0 0 1-1.068 0l-.915-.915-.915.915a.737.737 0 0 1-1.067 0l-1.067-1.067-1.373 1.067c-.305.153-.457.153-.61.153h-6.709c-.457 0-.762-.305-.762-.763 0-.457.305-.762.762-.762h6.404l1.678-1.372c.305-.305.762-.153 1.067 0l.915.915.915-.915a.737.737 0 0 1 1.067 0l.915.915.915-.915a.737.737 0 0 1 1.067 0l1.068 1.067 5.49-2.44v-2.134l-5.49-2.745h-15.858c-.458 0-.763-.305-.763-.763 0-.457.305-.762.763-.762h16.01c.153 0 .305 0 .305.153l6.1 3.05c.305 0 .457.304.457.61z"/><path d="M191.88 108.172c0 .458-.305.762-.762.762H169.77c-.457 0-.762-.304-.762-.762 0-.457.305-.762.762-.762h21.348c.457 0 .762.305.762.762z"/><path d="M170.533 109.697c0 6.252-5.185 11.436-11.437 11.436-6.251 0-11.436-5.184-11.436-11.436s5.185-11.436 11.436-11.436c6.252 0 11.437 5.184 11.437 11.436zm-21.348 0a9.892 9.892 0 0 0 9.911 9.911 9.892 9.892 0 0 0 9.912-9.911 9.892 9.892 0 0 0-9.912-9.911 9.892 9.892 0 0 0-9.911 9.91z"/><path d="M159.859 109.697a3.775 3.775 0 0 1-3.812 3.812 3.775 3.775 0 0 1-3.812-3.812 3.775 3.775 0 0 1 3.812-3.812 3.775 3.775 0 0 1 3.812 3.812zm-6.1 0c0 1.22 1.068 2.287 2.288 2.287 1.22 0 2.287-1.067 2.287-2.287s-1.067-2.287-2.287-2.287-2.288 1.067-2.288 2.287z"/><text style="line-height:125%" x="53.208" y="351.442" font-weight="400" font-size="40" font-family="sans-serif" letter-spacing="0" word-spacing="0" transform="translate(94.523 -71.87) scale(.53575)"><tspan x="53.208" y="351.442">+</tspan></text><text style="line-height:125%" x="194.18" y="351.422" font-weight="400" font-size="40" font-family="sans-serif" letter-spacing="0" word-spacing="0" transform="translate(94.523 -71.87) scale(.53575)"><tspan x="194.18" y="351.422">=</tspan></text><g transform="translate(248.76 126.53)"><circle style="isolation:auto;mix-blend-mode:normal" cx="198.305" cy="-59.738" r="14.464" color="#000" overflow="visible" fill="none" stroke="#000" stroke-width=".547"/><text style="line-height:125%" x="191.152" y="-51.762" font-weight="400" font-size="21.881" font-family="sans-serif" letter-spacing="0" word-spacing="0"><tspan x="191.152" y="-51.762">2</tspan></text></g><text y="426.915" x="326.524" style="line-height:125%" font-weight="400" font-size="40" font-family="sans-serif" letter-spacing="0" word-spacing="0" transform="translate(120.56 -319.35)"><tspan style="text-align:center" y="426.915" x="326.524" font-size="20" text-anchor="middle">Send Message to</tspan><tspan style="text-align:center" y="451.915" x="326.524" font-size="20" text-anchor="middle">http://endpoint.io/ID1</tspan></text><path d="M850.264 148.017h-30.192c-.431 0-.719-.287-.719-.719v-30.192c0-.144.144-.432.144-.575l11.502-11.502c.143 0 .431-.144.575-.144h18.69c.432 0 .72.288.72.719v41.694c0 .432-.288.72-.72.72zm-29.473-1.438h28.754v-40.256h-17.684l-11.07 11.07v29.186z"/><path d="M831.574 117.825h-11.502c-.431 0-.719-.288-.719-.72 0-.43.288-.718.719-.718h10.783v-10.783c0-.431.287-.719.719-.719.431 0 .719.288.719.719v11.502c0 .431-.288.719-.72.719z"/><text y="739.012" x="379.575" style="line-height:125%" font-weight="400" font-size="40" font-family="sans-serif" letter-spacing="0" word-spacing="0" transform="translate(623.5 -263.369) scale(.53575)"><tspan y="739.012" x="379.575" font-size="30">Hi</tspan></text><text style="line-height:125%" x="53.208" y="351.442" font-weight="400" font-size="40" font-family="sans-serif" letter-spacing="0" word-spacing="0" transform="translate(686.56 -55.116) scale(.53575)"><tspan x="53.208" y="351.442">+</tspan></text><text style="line-height:125%" x="194.18" y="351.422" font-weight="400" font-size="40" font-family="sans-serif" letter-spacing="0" word-spacing="0" transform="translate(686.56 -55.116) scale(.53575)"><tspan x="194.18" y="351.422">=</tspan></text><path d="M699.454 145.02h-13.755c-.413 0-.688-.274-.688-.687v-11.004c0-.413.275-.688.688-.688h13.755c.413 0 .688.275.688.688v11.004c0 .413-.275.688-.688.688zm-13.068-1.375h12.38v-9.629h-12.38v9.63z"/><path d="M692.576 142.27c-.412 0-.688-.275-.688-.688v-4.127c0-.412.276-.687.688-.687.413 0 .688.275.688.687v4.127c0 .413-.275.688-.688.688zm5.502-8.254c-.412 0-.687-.275-.687-.687v-1.376c0-2.476-2.339-4.814-4.815-4.814-2.613 0-4.814 2.063-4.814 4.54v1.65c0 .412-.275.687-.688.687-.413 0-.688-.275-.688-.687v-1.788c0-3.164 2.889-5.915 6.19-5.915 3.302 0 6.19 2.888 6.19 6.19v1.375c0 .55-.275.825-.688.825z"/><path d="M708.395 135.392h-6.19c-.413 0-.688-.275-.688-.688 0-.412.275-.688.688-.688h6.19a2.76 2.76 0 0 0 2.75-2.75v-19.258a2.76 2.76 0 0 0-2.75-2.751h-31.637a2.76 2.76 0 0 0-2.751 2.751v19.257a2.76 2.76 0 0 0 2.75 2.751h6.19c.413 0 .688.276.688.688 0 .413-.275.688-.687.688h-6.19c-2.339 0-4.127-1.788-4.127-4.127v-19.257c0-2.338 1.788-4.127 4.127-4.127h31.637c2.338 0 4.126 1.789 4.126 4.127v19.257c0 2.339-1.788 4.127-4.126 4.127z"/><path d="M692.164 123.012c-.963 0-2.064-.275-2.751-.825l-13.068-9.629c-.275-.275-.413-.688-.138-.963.276-.275.688-.412.963-.137l13.068 9.629c.963.687 3.026.687 3.989 0l13.067-9.63c.275-.274.688-.137.963.138s.138.688-.137.963l-13.068 9.629c-.825.55-1.788.825-2.888.825zm-14.719 8.253c-.137 0-.412 0-.55-.137a.665.665 0 0 1 0-.963l8.253-8.253a.665.665 0 0 1 .963 0 .665.665 0 0 1 0 .963l-8.253 8.253c0 .137-.275.137-.413.137zm30.262 0c-.138 0-.413 0-.55-.137l-8.253-8.253a.665.665 0 0 1 0-.963.665.665 0 0 1 .963 0l8.253 8.253a.665.665 0 0 1 0 .963c0 .137-.275.137-.413.137zm-15.131 8.254c-1.1 0-2.063-.963-2.063-2.064 0-1.1.963-2.063 2.063-2.063s2.064.963 2.064 2.063-.963 2.064-2.064 2.064zm0-2.751c-.412 0-.688.275-.688.687 0 .413.276.688.688.688.413 0 .688-.275.688-.688 0-.412-.275-.687-.688-.687zm61.891-3.168c-3.932 3.939-10.372 3.944-14.31.012-3.939-3.932-3.944-10.371-.012-14.31s10.371-3.944 14.31-.012 3.944 10.372.012 14.31zm-13.427-13.404a8.8 8.8 0 0 0 .01 12.521 8.8 8.8 0 0 0 12.522-.01 8.8 8.8 0 0 0-.01-12.522 8.8 8.8 0 0 0-12.522.01z"/><path d="M786.212 126.866c-.09.09-.268.268-.447.269l-28.62.023a.611.611 0 0 1-.627-.625c0-.358.268-.626.626-.627l28.62-.024c.358 0 .626.268.627.626.089.09-.09.268-.179.358z"/><path d="M781.744 131.341c-.09.09-.268.269-.447.27a.611.611 0 0 1-.627-.626l-.004-4.472c0-.358.268-.627.626-.627s.626.268.627.626l.003 4.472c.09.089-.089.268-.178.357zm-5.367.005c-.089.09-.268.268-.447.269a.611.611 0 0 1-.626-.626l-.004-4.472a.61.61 0 0 1 .626-.626.61.61 0 0 1 .626.625l.004 4.472c.09.09-.09.268-.179.358z"/><g transform="translate(452.43 134.594)"><circle style="isolation:auto;mix-blend-mode:normal" cx="198.305" cy="-59.738" r="14.464" color="#000" overflow="visible" fill="none" stroke="#000" stroke-width=".547"/><text style="line-height:125%" x="191.152" y="-51.762" font-weight="400" font-size="21.881" font-family="sans-serif" letter-spacing="0" word-spacing="0"><tspan x="191.152" y="-51.762">3</tspan></text></g><text y="388.855" x="616.939" style="line-height:125%;text-align:center" font-weight="400" font-size="40" font-family="sans-serif" letter-spacing="0" word-spacing="0" text-anchor="middle" transform="translate(163.04 -319.35)"><tspan style="-inkscape-font-specification:'sans-serif Italic'" y="388.855" x="616.939" font-style="italic" font-size="20">Decrypt</tspan><tspan style="-inkscape-font-specification:'sans-serif Italic'" y="413.855" x="616.939" font-style="italic" font-size="20">Authorization Header</tspan></text><path d="M663.403 461.279l87.953 37.483" opacity=".4" fill="none" fill-rule="evenodd" stroke="#000" stroke-width=".843" marker-start="url(#a)" marker-end="url(#b)" transform="translate(120.56 -319.35)"/><text y="626.607" x="308.853" style="line-height:125%" font-weight="400" font-size="40" font-family="sans-serif" letter-spacing="0" word-spacing="0" transform="translate(157.751 -352.853)"><tspan style="text-align:center" y="626.607" x="308.853" font-size="20" text-anchor="middle">201 OK Response</tspan></text><g transform="translate(61.787 -359.792)"><circle style="isolation:auto;mix-blend-mode:normal" cx="293.591" cy="628.204" r="14.464" color="#000" overflow="visible" fill="none" stroke="#000" stroke-width=".547"/><text style="line-height:125%" x="286.438" y="636.18" font-weight="400" font-size="21.881" font-family="sans-serif" letter-spacing="0" word-spacing="0"><tspan x="286.438" y="636.18">4</tspan></text></g><circle r=".5" cy="15" cx="29" class="st0" fill="#231f20" transform="rotate(90 248.255 540.015) scale(1.76417)"/><circle r=".5" cy="15" cx="27" class="st0" fill="#231f20" transform="rotate(90 248.255 540.015) scale(1.76417)"/><circle r=".5" cy="17" cx="27" class="st0" fill="#231f20" transform="rotate(90 248.255 540.015) scale(1.76417)"/><circle r=".5" cy="13" cx="27" class="st0" fill="#231f20" transform="rotate(90 248.255 540.015) scale(1.76417)"/><circle r=".5" cy="17" cx="25" class="st0" fill="#231f20" transform="rotate(90 248.255 540.015) scale(1.76417)"/><circle r=".5" cy="19" cx="25" class="st0" fill="#231f20" transform="rotate(90 248.255 540.015) scale(1.76417)"/><circle r=".5" cy="13" cx="25" class="st0" fill="#231f20" transform="rotate(90 248.255 540.015) scale(1.76417)"/><circle r=".5" cy="11" cx="25" class="st0" fill="#231f20" transform="rotate(90 248.255 540.015) scale(1.76417)"/><circle r=".5" cy="17" cx="23" class="st0" fill="#231f20" transform="rotate(90 248.255 540.015) scale(1.76417)"/><circle r=".5" cy="19" cx="23" class="st0" fill="#231f20" transform="rotate(90 248.255 540.015) scale(1.76417)"/><circle r=".5" cy="21" cx="23" class="st0" fill="#231f20" transform="rotate(90 248.255 540.015) scale(1.76417)"/><circle r=".5" cy="13" cx="23" class="st0" fill="#231f20" transform="rotate(90 248.255 540.015) scale(1.76417)"/><circle r=".5" cy="11" cx="23" class="st0" fill="#231f20" transform="rotate(90 248.255 540.015) scale(1.76417)"/><circle r=".5" cy="9" cx="23" class="st0" fill="#231f20" transform="rotate(90 248.255 540.015) scale(1.76417)"/><circle r=".5" cy="17" cx="21" class="st0" fill="#231f20" transform="rotate(90 248.255 540.015) scale(1.76417)"/><circle r=".5" cy="19" cx="21" class="st0" fill="#231f20" transform="rotate(90 248.255 540.015) scale(1.76417)"/><circle r=".5" cy="21" cx="21" class="st0" fill="#231f20" transform="rotate(90 248.255 540.015) scale(1.76417)"/><circle r=".5" cy="23" cx="21" class="st0" fill="#231f20" transform="rotate(90 248.255 540.015) scale(1.76417)"/><circle r=".5" cy="13" cx="21" class="st0" fill="#231f20" transform="rotate(90 248.255 540.015) scale(1.76417)"/><circle r=".5" cy="11" cx="21" class="st0" fill="#231f20" transform="rotate(90 248.255 540.015) scale(1.76417)"/><circle r=".5" cy="9" cx="21" class="st0" fill="#231f20" transform="rotate(90 248.255 540.015) scale(1.76417)"/><circle r=".5" cy="7" cx="21" class="st0" fill="#231f20" transform="rotate(90 248.255 540.015) scale(1.76417)"/><circle r=".5" cy="17" cx="19" class="st0" fill="#231f20" transform="rotate(90 248.255 540.015) scale(1.76417)"/><circle r=".5" cy="19" cx="19" class="st0" fill="#231f20" transform="rotate(90 248.255 540.015) scale(1.76417)"/><circle r=".5" cy="21" cx="19" class="st0" fill="#231f20" transform="rotate(90 248.255 540.015) scale(1.76417)"/><circle r=".5" cy="23" cx="19" class="st0" fill="#231f20" transform="rotate(90 248.255 540.015) scale(1.76417)"/><circle r=".5" cy="25" cx="19" class="st0" fill="#231f20" transform="rotate(90 248.255 540.015) scale(1.76417)"/><circle r=".5" cy="13" cx="19" class="st0" fill="#231f20" transform="rotate(90 248.255 540.015) scale(1.76417)"/><circle r=".5" cy="11" cx="19" class="st0" fill="#231f20" transform="rotate(90 248.255 540.015) scale(1.76417)"/><circle r=".5" cy="9" cx="19" class="st0" fill="#231f20" transform="rotate(90 248.255 540.015) scale(1.76417)"/><circle r=".5" cy="7" cx="19" class="st0" fill="#231f20" transform="rotate(90 248.255 540.015) scale(1.76417)"/><circle r=".5" cy="5" cx="19" class="st0" fill="#231f20" transform="rotate(90 248.255 540.015) scale(1.76417)"/><circle r=".5" cy="17" cx="17" class="st0" fill="#231f20" transform="rotate(90 248.255 540.015) scale(1.76417)"/><circle r=".5" cy="19" cx="17" class="st0" fill="#231f20" transform="rotate(90 248.255 540.015) scale(1.76417)"/><circle r=".5" cy="21" cx="17" class="st0" fill="#231f20" transform="rotate(90 248.255 540.015) scale(1.76417)"/><circle r=".5" cy="23" cx="17" class="st0" fill="#231f20" transform="rotate(90 248.255 540.015) scale(1.76417)"/><circle r=".5" cy="25" cx="17" class="st0" fill="#231f20" transform="rotate(90 248.255 540.015) scale(1.76417)"/><circle r=".5" cy="27" cx="17" class="st0" fill="#231f20" transform="rotate(90 248.255 540.015) scale(1.76417)"/><circle r=".5" cy="13" cx="17" class="st0" fill="#231f20" transform="rotate(90 248.255 540.015) scale(1.76417)"/><circle r=".5" cy="11" cx="17" class="st0" fill="#231f20" transform="rotate(90 248.255 540.015) scale(1.76417)"/><circle r=".5" cy="9" cx="17" class="st0" fill="#231f20" transform="rotate(90 248.255 540.015) scale(1.76417)"/><circle r=".5" cy="7" cx="17" class="st0" fill="#231f20" transform="rotate(90 248.255 540.015) scale(1.76417)"/><circle r=".5" cy="5" cx="17" class="st0" fill="#231f20" transform="rotate(90 248.255 540.015) scale(1.76417)"/><circle r=".5" cy="3" cx="17" class="st0" fill="#231f20" transform="rotate(90 248.255 540.015) scale(1.76417)"/><circle r=".5" cy="15" cx="25" class="st0" fill="#231f20" transform="rotate(90 248.255 540.015) scale(1.76417)"/><circle r=".5" cy="15" cx="23" class="st0" fill="#231f20" transform="rotate(90 248.255 540.015) scale(1.76417)"/><circle r=".5" cy="15" cx="21" class="st0" fill="#231f20" transform="rotate(90 248.255 540.015) scale(1.76417)"/><circle r=".5" cy="15" cx="19" class="st0" fill="#231f20" transform="rotate(90 248.255 540.015) scale(1.76417)"/><circle r=".5" cy="15" cx="17" class="st0" fill="#231f20" transform="rotate(90 248.255 540.015) scale(1.76417)"/><circle r=".5" cy="17" cx="15" class="st0" fill="#231f20" transform="rotate(90 248.255 540.015) scale(1.76417)"/><circle r=".5" cy="13" cx="15" class="st0" fill="#231f20" transform="rotate(90 248.255 540.015) scale(1.76417)"/><circle r=".5" cy="15" cx="15" class="st0" fill="#231f20" transform="rotate(90 248.255 540.015) scale(1.76417)"/><circle r=".5" cy="17" cx="13" class="st0" fill="#231f20" transform="rotate(90 248.255 540.015) scale(1.76417)"/><circle r=".5" cy="13" cx="13" class="st0" fill="#231f20" transform="rotate(90 248.255 540.015) scale(1.76417)"/><circle r=".5" cy="15" cx="13" class="st0" fill="#231f20" transform="rotate(90 248.255 540.015) scale(1.76417)"/><circle r=".5" cy="17" cx="11" class="st0" fill="#231f20" transform="rotate(90 248.255 540.015) scale(1.76417)"/><circle r=".5" cy="13" cx="11" class="st0" fill="#231f20" transform="rotate(90 248.255 540.015) scale(1.76417)"/><circle r=".5" cy="15" cx="11" class="st0" fill="#231f20" transform="rotate(90 248.255 540.015) scale(1.76417)"/><circle r=".5" cy="17" cx="9" class="st0" fill="#231f20" transform="rotate(90 248.255 540.015) scale(1.76417)"/><circle r=".5" cy="13" cx="9" class="st0" fill="#231f20" transform="rotate(90 248.255 540.015) scale(1.76417)"/><circle r=".5" cy="15" cx="9" class="st0" fill="#231f20" transform="rotate(90 248.255 540.015) scale(1.76417)"/><circle r=".5" cy="17" cx="7" class="st0" fill="#231f20" transform="rotate(90 248.255 540.015) scale(1.76417)"/><circle r=".5" cy="13" cx="7" class="st0" fill="#231f20" transform="rotate(90 248.255 540.015) scale(1.76417)"/><circle r=".5" cy="15" cx="7" class="st0" fill="#231f20" transform="rotate(90 248.255 540.015) scale(1.76417)"/><circle r=".5" cy="17" cx="5" class="st0" fill="#231f20" transform="rotate(90 248.255 540.015) scale(1.76417)"/><circle r=".5" cy="13" cx="5" class="st0" fill="#231f20" transform="rotate(90 248.255 540.015) scale(1.76417)"/><circle r=".5" cy="15" cx="5" class="st0" fill="#231f20" transform="rotate(90 248.255 540.015) scale(1.76417)"/><circle r=".5" cy="17" cx="3" class="st0" fill="#231f20" transform="rotate(90 248.255 540.015) scale(1.76417)"/><circle r=".5" cy="13" cx="3" class="st0" fill="#231f20" transform="rotate(90 248.255 540.015) scale(1.76417)"/><circle r=".5" cy="15" cx="3" class="st0" fill="#231f20" transform="rotate(90 248.255 540.015) scale(1.76417)"/><circle r=".5" cy="17" cx="1" class="st0" fill="#231f20" transform="rotate(90 248.255 540.015) scale(1.76417)"/><circle r=".5" cy="13" cx="1" class="st0" fill="#231f20" transform="rotate(90 248.255 540.015) scale(1.76417)"/><circle r=".5" cy="15" cx="1" class="st0" fill="#231f20" transform="rotate(90 248.255 540.015) scale(1.76417)"/><g transform="translate(353.505 -248.806)"><circle style="isolation:auto;mix-blend-mode:normal" cx="293.591" cy="628.204" r="14.464" color="#000" overflow="visible" fill="none" stroke="#000" stroke-width=".547"/><text style="line-height:125%" x="286.438" y="636.18" font-weight="400" font-size="21.881" font-family="sans-serif" letter-spacing="0" word-spacing="0"><tspan x="286.438" y="636.18">5</tspan></text></g><text y="769.074" x="609.22" style="line-height:125%" font-weight="400" font-size="40" font-family="sans-serif" letter-spacing="0" word-spacing="0" transform="translate(139.535 -395.35)"><tspan style="text-align:center" y="769.074" x="609.22" font-size="22.5" text-anchor="middle">Message Sent</tspan><tspan style="text-align:center" y="797.199" x="609.22" font-size="22.5" text-anchor="middle">to Device</tspan></text><path d="M882.855 415.596h-26.4c-4.56 0-8.4-3.84-8.4-8.4v-55.2c0-4.56 3.84-8.4 8.4-8.4h26.4c4.56 0 8.4 3.84 8.4 8.4v55.2c0 4.56-3.84 8.4-8.4 8.4zm-26.4-69.6c-3.36 0-6 2.64-6 6v55.2c0 3.36 2.64 6 6 6h26.4c3.36 0 6-2.64 6-6v-55.2c0-3.36-2.64-6-6-6h-26.4z"/><path d="M890.055 355.596h-40.8c-.72 0-1.2-.48-1.2-1.2s.48-1.2 1.2-1.2h40.8c.72 0 1.2.48 1.2 1.2s-.48 1.2-1.2 1.2zm-1.2 48h-38.4c-.72 0-1.2-.48-1.2-1.2s.48-1.2 1.2-1.2h38.4c.72 0 1.2.48 1.2 1.2s-.48 1.2-1.2 1.2zm-13.2-52.8h-12c-.72 0-1.2-.48-1.2-1.2s.48-1.2 1.2-1.2h12c.72 0 1.2.48 1.2 1.2s-.48 1.2-1.2 1.2zm7.2 0c-.72 0-1.2-.48-1.2-1.2s.48-1.2 1.2-1.2 1.2.48 1.2 1.2-.48 1.2-1.2 1.2z"/><circle r="1" cy="27" cx="15" transform="matrix(2.4 0 0 2.4 833.655 343.596)"/></svg>