<svg xmlns="http://www.w3.org/2000/svg" viewBox="0 0 968.16137 318.93219" width="968.161" height="318.932"><path d="M363.362 73.612c-3.596 3.602-9.485 3.607-13.087.01-3.602-3.595-3.607-9.484-.01-13.086 3.595-3.602 9.484-3.607 13.086-.01 3.602 3.595 3.607 9.484.011 13.086zm-12.28-12.259a8.047 8.047 0 0 0 .01 11.451 8.047 8.047 0 0 0 11.451-.01 8.047 8.047 0 0 0-.01-11.45 8.047 8.047 0 0 0-11.45.01z"/><path d="M392.393 67.453c-.081.082-.245.246-.408.246l-26.174.022a.56.56 0 0 1-.573-.572.56.56 0 0 1 .572-.573l26.174-.022a.56.56 0 0 1 .573.572c.082.082-.082.245-.164.327z"/><path d="M388.307 71.546c-.082.082-.245.246-.409.246a.56.56 0 0 1-.573-.572l-.003-4.09a.56.56 0 0 1 .572-.573.56.56 0 0 1 .573.572l.003 4.09c.082.082-.081.245-.163.327zm-4.907.004c-.082.082-.246.246-.41.246a.56.56 0 0 1-.572-.572l-.004-4.09a.56.56 0 0 1 .572-.573.56.56 0 0 1 .573.572l.004 4.09c.082.082-.082.245-.163.327z"/><path d="M244.39 62.759l-.341 1.699q-.713-.39-1.504-.586-.79-.195-1.63-.195-1.417 0-2.237.488-.81.478-.81 1.308 0 .967 1.894 1.485l.215.058.576.176q1.797.498 2.393 1.045.605.547.605 1.494 0 1.739-1.387 2.832-1.377 1.094-3.613 1.094-.87 0-1.826-.166-.957-.166-2.11-.518l.352-1.855q.986.508 1.943.771.957.264 1.836.264 1.319 0 2.139-.566.83-.567.83-1.436 0-.937-2.168-1.513l-.185-.05-.616-.156q-1.367-.36-2.002-.947-.634-.596-.634-1.514 0-1.748 1.308-2.773 1.319-1.025 3.574-1.025.889 0 1.729.146.85.147 1.67.44zm1.768 6.279l1.28-6.602h1.806l-1.279 6.534q-.098.478-.146.82-.04.342-.04.566 0 .83.508 1.29.508.449 1.436.449 1.445 0 2.5-.977 1.054-.977 1.377-2.627l1.2-6.055h1.798l-2.12 10.938h-1.796l.361-1.719q-.762.957-1.816 1.484-1.045.518-2.227.518-1.435 0-2.236-.781-.801-.791-.801-2.197 0-.293.049-.733t.146-.908zm21.26-2.344q0-1.416-.654-2.217-.645-.8-1.787-.8-.83 0-1.563.41-.722.4-1.26 1.172-.566.81-.898 1.884-.322 1.065-.322 2.13 0 1.347.635 2.118.644.762 1.767.762.85 0 1.572-.39.723-.4 1.27-1.172.557-.801.898-1.866.342-1.064.342-2.03zm-5.586-2.598q.664-.898 1.66-1.406 1.006-.517 2.1-.517 1.68 0 2.666 1.132.996 1.133.996 3.067 0 1.582-.586 3.066-.576 1.485-1.65 2.637-.703.762-1.621 1.172-.918.41-1.924.41-1.065 0-1.846-.488-.781-.489-1.27-1.455l-.322 1.66h-1.797l2.96-15.195h1.796l-1.162 5.917zm18.379-1.337l-.342 1.699q-.713-.39-1.504-.586-.79-.195-1.63-.195-1.416 0-2.237.488-.81.478-.81 1.308 0 .967 1.894 1.485l.215.058.576.176q1.797.498 2.393 1.045.605.547.605 1.494 0 1.739-1.386 2.832-1.377 1.094-3.614 1.094-.869 0-1.826-.166-.957-.166-2.11-.518l.352-1.855q.987.508 1.944.771.957.264 1.836.264 1.318 0 2.138-.566.83-.567.83-1.436 0-.937-2.168-1.513l-.185-.05-.615-.156q-1.368-.36-2.002-.947-.635-.596-.635-1.514 0-1.748 1.308-2.773 1.319-1.025 3.575-1.025.888 0 1.728.146.85.147 1.67.44zm11.152.097l-.36 1.778q-.645-.47-1.378-.704-.722-.234-1.504-.234-.86 0-1.64.303-.772.303-1.3.86-.839.849-1.298 1.991-.459 1.143-.459 2.364 0 1.474.732 2.197.743.723 2.247.723.742 0 1.572-.225.84-.225 1.748-.674l-.342 1.778q-.781.322-1.611.478-.82.166-1.69.166-2.177 0-3.35-1.084-1.171-1.094-1.171-3.115 0-1.7.605-3.125.615-1.436 1.817-2.578.82-.782 1.923-1.182 1.104-.4 2.413-.4.761 0 1.513.175.752.166 1.533.508zm9.209 1.24q-.273-.146-.625-.224-.351-.078-.751-.078-1.436 0-2.51 1.094-1.074 1.083-1.426 2.91l-1.104 5.576h-1.796l2.138-10.938h1.797l-.342 1.7q.713-.948 1.7-1.456.996-.507 2.119-.507.293 0 .576.039.283.029.566.107l-.342 1.777zm2.988-5.917h1.798l-.44 2.275h-1.797l.44-2.275zm-.82 4.257h1.797L302.4 73.374h-1.797l2.138-10.938zm12.608 4.258q0-1.416-.654-2.217-.645-.8-1.788-.8-.83 0-1.562.41-.723.4-1.26 1.172-.566.81-.898 1.884-.323 1.065-.323 2.13 0 1.347.635 2.118.645.762 1.768.762.85 0 1.572-.39.723-.4 1.27-1.172.556-.801.898-1.866.342-1.064.342-2.03zm-5.586-2.598q.664-.898 1.66-1.406 1.006-.517 2.1-.517 1.68 0 2.666 1.132.996 1.133.996 3.067 0 1.582-.586 3.066-.576 1.485-1.65 2.637-.704.762-1.622 1.172-.918.41-1.923.41-1.065 0-1.846-.488-.781-.489-1.27-1.455l-.322 1.66h-1.797l2.96-15.195h1.796l-1.162 5.917zm17.998 2.833q.03-.157.04-.323.019-.166.019-.332 0-1.191-.704-1.885-.693-.693-1.894-.693-1.338 0-2.363.85-1.026.84-1.553 2.392l6.455-.01zm1.562 1.406h-8.359q-.059.37-.078.586-.02.215-.02.37 0 1.358.83 2.1.84.743 2.364.743 1.172 0 2.217-.264 1.045-.264 1.943-.772l-.342 1.778q-.967.39-2.002.586-1.025.195-2.09.195-2.275 0-3.505-1.084-1.221-1.094-1.221-3.096 0-1.709.605-3.173.616-1.475 1.797-2.627.762-.723 1.807-1.114 1.055-.39 2.236-.39 1.856 0 2.95 1.113 1.103 1.113 1.103 2.988 0 .45-.059.967-.058.508-.175 1.094zm9.658-10.137q-2.587 3.232-3.867 6.143-1.27 2.9-1.27 5.595 0 1.543.372 3.067.371 1.513 1.113 3.008h-1.562q-.899-1.68-1.338-3.262-.44-1.592-.44-3.115 0-2.9 1.338-5.743 1.348-2.851 4.063-5.693h1.592zm61.71 17.812q2.597-3.232 3.867-6.132 1.27-2.91 1.27-5.606 0-1.543-.372-3.056-.361-1.524-1.103-3.018h1.562q.899 1.69 1.338 3.262.44 1.572.44 3.095 0 2.91-1.358 5.782-1.347 2.861-4.043 5.674h-1.601zm17.119-13.574h1.777l.46 8.8 4.081-8.8h2.08l.606 8.8 3.877-8.8h1.797l-5 10.938h-2.1l-.537-9.063-4.18 9.063h-2.119l-.742-10.938zm18.33-4.257h1.797l-.44 2.275H435.7l.44-2.275zm-.82 4.257h1.796l-2.138 10.938h-1.797l2.139-10.938zm11.161 0l-.273 1.397h-3.584l-1.162 5.937q-.058.332-.088.557-.03.225-.03.352 0 .625.372.908.38.283 1.211.283h1.816l-.302 1.504h-1.72q-1.6 0-2.392-.625-.78-.625-.78-1.895 0-.224.028-.488.03-.273.088-.596l1.162-5.937h-1.523l.283-1.397h1.494l.606-3.105h1.797l-.596 3.105h3.594zm10.538 4.336l-1.28 6.602h-1.806l1.28-6.533q.087-.46.136-.81.049-.352.049-.558 0-.82-.518-1.279-.518-.459-1.445-.459-1.446 0-2.51.977-1.055.976-1.367 2.597l-1.182 6.065h-1.797l2.96-15.195h1.796l-1.162 5.976q.684-.918 1.748-1.445 1.065-.537 2.236-.537 1.446 0 2.237.78.8.782.8 2.198 0 .352-.048.752-.04.4-.127.87zM298.61 83.794h4.56q1.992 0 3.037.927 1.045.928 1.045 2.715 0 2.403-1.543 3.74-1.543 1.338-4.336 1.338h-2.48l-1.143 5.86h-1.982l2.842-14.58zm1.66 1.62l-1.055 5.48h2.48q1.68 0 2.579-.86.898-.86.898-2.46 0-1.026-.615-1.593-.606-.566-1.71-.566h-2.577zm8.369 8.624l1.28-6.602h1.806l-1.28 6.534q-.097.478-.146.82-.04.342-.04.566 0 .83.509 1.29.508.449 1.435.449 1.446 0 2.5-.977 1.055-.977 1.377-2.627l1.201-6.055h1.797l-2.119 10.938h-1.797l.362-1.719q-.762.957-1.817 1.484-1.045.518-2.226.518-1.436 0-2.237-.781-.8-.791-.8-2.197 0-.293.048-.733.05-.44.147-.908zm21.26-2.344q0-1.416-.655-2.217-.644-.8-1.787-.8-.83 0-1.562.41-.723.4-1.26 1.172-.566.81-.898 1.884-.323 1.065-.323 2.13 0 1.347.635 2.118.645.762 1.768.762.85 0 1.572-.39.723-.4 1.27-1.172.556-.801.898-1.866.342-1.064.342-2.03zm-5.586-2.598q.664-.898 1.66-1.406 1.006-.517 2.1-.517 1.68 0 2.665 1.132.997 1.133.997 3.067 0 1.582-.586 3.066-.577 1.485-1.65 2.637-.704.762-1.622 1.172-.918.41-1.924.41-1.064 0-1.845-.488-.782-.489-1.27-1.455l-.322 1.66h-1.797l2.959-15.195h1.797l-1.162 5.917zm12.041-5.917h1.797l-2.96 15.195h-1.796l2.959-15.195zm5.546 0h1.797l-.439 2.275h-1.797l.44-2.275zm-.82 4.257h1.797l-2.139 10.938h-1.796l2.138-10.938zm13.428.42l-.361 1.778q-.645-.47-1.377-.704-.723-.234-1.504-.234-.86 0-1.64.303-.772.303-1.3.86-.84.849-1.298 1.991-.46 1.143-.46 2.364 0 1.474.733 2.197.742.723 2.246.723.742 0 1.572-.225.84-.225 1.748-.674l-.341 1.778q-.782.322-1.612.478-.82.166-1.69.166-2.177 0-3.349-1.084-1.172-1.094-1.172-3.115 0-1.7.606-3.125.615-1.436 1.816-2.578.82-.782 1.924-1.182 1.104-.4 2.412-.4.762 0 1.514.175.752.166 1.533.508zm10.039-4.062h1.982l-1.2 6.142 7.656-6.142h2.627l-8.663 6.963 6.338 7.617h-2.402l-5.82-7.1-1.377 7.1h-1.983l2.842-14.58zm18.663 8.135q.028-.157.038-.323.02-.166.02-.332 0-1.191-.703-1.885-.694-.693-1.895-.693-1.338 0-2.363.85-1.026.84-1.553 2.392l6.455-.01zm1.562 1.406h-8.36q-.058.37-.078.586-.02.215-.02.37 0 1.358.83 2.1.84.743 2.364.743 1.172 0 2.217-.264 1.045-.264 1.943-.772l-.342 1.778q-.966.39-2.002.586-1.025.195-2.09.195-2.275 0-3.505-1.084-1.22-1.094-1.22-3.096 0-1.709.605-3.173.615-1.475 1.796-2.627.762-.723 1.807-1.114 1.055-.39 2.236-.39 1.856 0 2.95 1.113 1.103 1.113 1.103 2.988 0 .45-.059.967-.058.508-.175 1.094zm6.084 6.055q-1.25 2.1-2.041 2.617-.782.527-2.002.527h-1.416l.302-1.504h1.036q.752 0 1.279-.41.527-.41 1.182-1.602l.556-1.045-2.422-10.537h1.905l1.816 8.38 5.02-8.38h1.884l-7.1 11.953z" style="-inkscape-font-specification:'sans-serif Italic'" font-weight="400" font-size="20" font-family="sans-serif" letter-spacing="0" word-spacing="0" text-anchor="middle" font-style="italic"/><path d="M104.256 200.913h-64.8c-5.7 0-10.5-4.8-10.5-10.5s4.8-10.5 10.5-10.5h64.5c5.7 0 10.5 4.8 10.5 10.5s-4.5 10.5-10.2 10.5zm-64.8-18c-4.2 0-7.5 3.3-7.5 7.5s3.6 7.5 7.5 7.5h64.5c4.2 0 7.5-3.3 7.5-7.5s-3.3-7.5-7.2-7.5h-64.8z"/><path d="M41.256 191.913c-.9 0-1.5-.6-1.5-1.5s.6-1.5 1.5-1.5 1.5.6 1.5 1.5-.9 1.5-1.5 1.5zm6 0c-.9 0-1.5-.6-1.5-1.5s.6-1.5 1.5-1.5 1.5.6 1.5 1.5-.9 1.5-1.5 1.5zm57-9h-64.8c-5.7 0-10.5-4.8-10.5-10.5s4.8-10.5 10.5-10.5h64.5c5.7 0 10.5 4.8 10.5 10.5s-4.5 10.5-10.2 10.5zm-64.8-18c-4.2 0-7.5 3.3-7.5 7.5s3.6 7.5 7.5 7.5h64.5c4.2 0 7.5-3.3 7.5-7.5s-3.3-7.5-7.2-7.5h-64.8z"/><path d="M41.256 173.913c-.9 0-1.5-.6-1.5-1.5s.6-1.5 1.5-1.5 1.5.6 1.5 1.5-.6 1.5-1.5 1.5zm6 0c-.9 0-1.5-.6-1.5-1.5s.6-1.5 1.5-1.5 1.5.6 1.5 1.5-.9 1.5-1.5 1.5z"/><circle r="1" cy="26" cx="26.3" transform="matrix(3 0 0 3 26.856 110.913)"/><circle r="1" cy="20" cx="26.3" transform="matrix(3 0 0 3 26.856 110.913)"/><path d="M90.756 155.913h-36.3c-6.6 0-12-5.4-12-12 0-6 4.5-11.1 10.5-12v-.6c0-11.4 9-20.4 20.1-20.4 9 0 16.8 6 19.2 14.7 7.5.9 13.2 7.2 13.2 15 .3 8.4-6.6 15.3-14.7 15.3zm-36.3-21c-4.8 0-8.7 3.9-8.7 9s3.9 9 9 9h36.3c6.6 0 12-5.4 12-12.3 0-6.6-5.1-11.7-11.4-12-.6 0-1.2-.6-1.5-1.2-2.1-7.8-9-13.5-17.1-13.5-9.3 0-17.1 7.8-17.1 17.4v1.8c0 .6 0 .9-.3 1.2-.3.3-.9.6-1.2.6z"/><text style="line-height:125%" x="13.677" y="231.115" font-weight="400" font-size="40" font-family="sans-serif" letter-spacing="0" word-spacing="0"><tspan x="13.677" y="231.115" font-size="22.5">Your Server</tspan></text><text style="line-height:125%" x="729.548" y="231.51" font-weight="400" font-size="40" font-family="sans-serif" letter-spacing="0" word-spacing="0"><tspan x="729.548" y="231.51" font-size="22.5">Push Service</tspan></text><path d="M416.684 179.481c-.394 0-.983 0-1.377-.196-4.325-.59-7.47-3.343-8.65-7.668-1.967-6.292-2.753-11.404-2.753-15.729 0-4.325.786-9.437 2.753-15.729 1.18-4.325 4.325-7.078 8.65-7.668.787-.196 1.77-.196 2.753 0 4.522.59 7.471 3.343 8.65 7.668 1.77 6.292 2.753 11.404 2.753 15.729 0 4.325-.786 9.437-2.752 15.729-1.18 4.325-4.326 7.078-8.651 7.668-.393.196-.983.196-1.376.196zm0-45.22c-.394 0-.787 0-.983.196-3.736.59-6.095 2.753-7.078 6.292-1.966 5.898-2.753 11.01-2.753 15.139s.787 9.24 2.556 15.139c.983 3.736 3.539 5.702 7.078 6.292.786.196 1.376.196 2.163 0 3.735-.59 6.095-2.753 7.078-6.292 1.77-6.095 2.556-11.01 2.556-15.139s-.787-9.24-2.556-15.139c-.983-3.736-3.54-5.702-7.078-6.292-.197-.196-.59-.196-.983-.196z"/><path d="M417.666 126.421c-9.893 0-18.609 5.627-23.463 14.08.39.687.754 1.393 1.087 2.119 4.35-8.469 12.72-14.233 22.376-14.233 14.156 0 25.56 12.387 25.56 27.526s-11.404 27.525-25.56 27.525c-12.907 0-23.522-10.3-25.294-23.593h-1.98c1.802 14.45 13.373 25.56 27.274 25.56 15.14 0 27.526-13.174 27.526-29.492 0-16.32-12.387-29.492-27.526-29.492z"/><path d="M369.548 126.421c-8.94 0-17.04 4.044-22.353 10.514.433.516.849 1.046 1.247 1.591 4.955-6.175 12.623-10.139 21.106-10.139 11.403 0 21.627 7.077 25.166 17.89.393.984.59 1.967.787 2.95.394 1.966.59 3.932.59 5.898v2.754h-36.374c-.59 0-.983.393-.983.983 0 11.01 6.095 16.712 17.695 16.712 2.556 0 4.13 0 5.113-.198 3.145-.393 6.095-1.572 8.454-2.949v7.472c-3.146 1.77-6.882 2.949-11.01 3.342-.984.197-2.164.197-3.54.197h-.196c-2.752 0-4.915-.394-6.881-.787-8.23-1.863-14.494-7.651-16.766-14.845-.33.752-.685 1.49-1.075 2.207 2.854 7.006 9.256 12.592 17.448 14.604 2.163.59 4.521.787 7.47.787h.394c1.377 0 2.556 0 3.735-.197 4.522-.59 8.848-1.966 12.19-3.932.197-.197.393-.393.393-.786v-9.83c0-.197-.196-.591-.589-.788-.393-.196-.59-.196-.983 0-2.556 1.573-5.702 3.146-9.044 3.54-1.18.196-2.557.197-5.113.197-10.224 0-15.335-4.523-15.729-13.763h36.373c.59 0 .983-.393.983-.983v-3.737c0-1.966-.195-4.128-.589-6.29-.393-.984-.59-2.163-.983-3.146-3.735-11.6-14.55-19.268-26.936-19.268zm0 9.83c-5.69 0-12.893 1.09-19.284 5.101.332.585.65 1.177.942 1.786 6.05-3.865 12.883-4.854 18.342-4.724 8.257 0 12.386 4.915 12.78 9.83h-23.2v-.196c.394-1.77.786-3.145 1.572-4.325.197-.393.198-.787-.196-1.18-.393-.393-.786-.394-1.18-.197-2.556 1.376-3.734 2.95-5.11 4.72-.366.364-.731.887-1.096 1.277.204.774.372 1.56.514 2.359.246-.378.504-.74.777-1.08.393-.394.787-.985 1.18-1.378.59-.786 1.18-1.572 1.77-2.162 0 .59-.197.983-.197 1.376-.196.59-.197.983-.394 1.376 0 .197 0 .59.197.787.197.197.393.393.786.393h25.56c.59 0 .983-.393.983-.983 0-6.291-5.112-12.78-14.746-12.78z"/><path d="M324.606 126.421c-9.64 0-18.18 4.6-23.558 11.728a27.26 27.26 0 0 1 1.121 1.88c5-7.03 13.204-11.642 22.437-11.642 15.14 0 27.526 12.387 27.526 27.526s-12.387 27.525-27.526 27.525c-9.705 0-18.274-5.095-23.178-12.739a28.008 28.008 0 0 1-1.222 1.804c5.3 7.793 14.24 12.901 24.4 12.901 16.32 0 29.492-13.173 29.492-29.491 0-16.32-13.173-29.492-29.492-29.492zm-28.846 23.33a29.53 29.53 0 0 0-.454 2.826c.092.325.19.65.267.977.197-1.18.197-2.557.197-3.54 0-.086-.009-.176-.01-.262z"/><path d="M350.165 146.082h-25.559c-.59 0-.983-.393-.983-.983s.393-.983.983-.983h25.56c.59 0 .983.393.983.983s-.394.983-.984.983zm-35.389 15.728c-.394 0-.59-.196-.787-.393l-12.78-21.627c-.393-.59-.196-1.18.197-1.376.59-.393 1.18-.197 1.376.197l12.78 21.627c.197.393.197.983-.393 1.376 0 .197-.197.197-.393.197zm7.864 22.61c-.197 0-.393 0-.393-.196-.393-.197-.59-.786-.393-1.376l9.83-19.661c.197-.393.787-.59 1.376-.393.394.196.59.786.394 1.376l-9.83 19.66c-.198.394-.59.59-.984.59z"/><path d="M324.606 167.709c-6.488 0-11.796-5.309-11.796-11.797s5.308-11.796 11.796-11.796c6.488 0 11.797 5.308 11.797 11.796 0 6.488-5.309 11.797-11.797 11.797zm0-21.627c-5.505 0-9.83 4.325-9.83 9.83s4.325 9.83 9.83 9.83 9.83-4.325 9.83-9.83-4.325-9.83-9.83-9.83zm-48.497 38.339c-15.925 0-29.492-13.566-29.492-29.688 0-3.54.394-9.83 2.753-14.55-.786-2.555-1.573-7.47 1.376-10.616.197-.197.787-.393.983-.197.59.197.787.59.787.983 0 .983.59 3.146 1.573 4.719.59.983 1.572 2.163 2.162 2.36 1.18-.197 4.13-.394 5.702 0 1.18-1.574 3.342-4.13 7.275-4.13.393 0 .786.197.983.59.196.393 0 .787-.197.983-1.573 1.573-3.736 4.719-3.146 6.488.394 1.18 2.36 1.77 5.309 1.77h2.949c.393 0 .786.393.983.786.197.394-.197.983-.59 1.18l-7.078 3.539c.197.983.393 2.36-.59 3.146-.196.196-.393.196-.786.196-.197 0-.59-.196-.787-.196 0 0-.393.196-.983.59-.393.59-.983 1.572-.983 2.556 0 3.342 4.326 3.932 6.882 3.932 3.145 0 3.932-.59 4.718-.983.787-.394 1.573-.983 3.146-.983 3.736 0 4.915 4.522 4.915 4.718 0 .197 0 .59-.196.787-.197.196-.393.393-.787.393-1.77 0-3.735.786-5.898 1.77-1.573.59-2.95 1.376-4.719 1.769 1.377.393 2.753.393 4.719.393 7.275 0 12.78-5.898 12.78-13.763 0-3.145-.197-6.094-1.77-8.257-.196-.393-.196-.983.197-1.376a.95.95 0 0 1 1.376 0c2.753 1.966 4.915 6.094 5.898 10.223.197-1.18.197-2.556.197-3.539 0-7.47-4.522-17.498-9.437-20.84-.394-.197-.59-.787-.394-1.18.197-.393.787-.59 1.18-.59 9.044 2.753 18.481 12.19 18.481 26.542v1.967c0 15.925-12.976 28.508-29.491 28.508zm-24.773-43.647c-2.36 4.718-2.752 10.617-2.752 13.959 0 14.942 12.583 27.722 27.525 27.722 15.532 0 27.525-11.6 27.525-26.542v-1.967c0-10.813-5.701-18.677-12.19-22.413 3.933 5.112 6.292 12.976 6.292 18.481 0 1.966 0 5.112-2.36 6.685-.196.197-.59.197-.982 0-.394 0-.59-.393-.59-.786-.197-2.36-.983-4.916-2.163-7.078.197 1.376.197 2.556.197 3.932 0 9.044-6.292 15.729-14.746 15.729-3.342 0-5.702-.197-8.454-2.163-.393 0-.393-.59-.393-.983s.59-.59.983-.59c2.359 0 4.718-.983 7.078-1.966 1.77-.786 3.539-1.573 5.308-1.77-.393-.983-1.18-2.162-2.556-2.162-.983 0-1.376.196-1.966.59-.983.59-2.163 1.376-5.898 1.376-8.061 0-8.848-4.129-8.848-5.898 0-2.163 1.573-4.326 3.343-4.916.393-.196.786-.196.983-.196 0-.394-.197-.983-.394-1.377-.196-.393 0-.983.394-1.18l4.128-2.162c-3.342-.197-5.308-1.18-5.898-2.95-.786-2.162.393-4.521 1.573-6.29-1.376.59-2.556 1.965-3.146 2.949l-.196.196c-.197.393-.787.59-1.18.393-.59-.196-4.522-.196-5.505 0-1.573.394-3.736-2.556-4.129-3.342-.393-.983-.983-1.966-1.376-3.146-.983 2.753.196 6.095.393 6.685.197.393.197.59.197.786 0 .197-.197.197-.197.394zm449.643 45.139h-41.7c-7.5 0-13.5-6.3-13.5-13.5 0-6.9 5.1-12.6 12-13.2v-.9c0-12.6 10.2-23.1 22.8-23.1 10.5 0 19.5 6.9 22.2 16.8 8.7.9 15 8.1 15 16.8 0 9.3-7.5 17.1-16.8 17.1zm-41.7-24c-5.7 0-10.5 4.8-10.5 10.5s4.8 10.5 10.5 10.5h41.7c7.8 0 14.1-6.3 14.1-14.1 0-7.5-6-13.8-13.5-14.1-.6 0-1.2-.6-1.5-1.2-2.1-9.3-10.2-15.6-19.5-15.6-10.8.3-19.8 9-19.8 20.1v2.1c0 .6 0 .9-.3 1.2-.3.6-.9.6-1.2.6z"/><path d="M721.379 176.613c-.6 0-1.2-.6-1.5-1.2 0-.9.3-1.5 1.2-1.8 6.6-1.2 11.7-6.9 11.7-13.8 0-7.5-6-13.8-13.5-14.1-.6 0-1.2-.6-1.5-1.2-2.1-9.3-10.2-15.6-19.5-15.6-3.9 0-7.8 1.2-11.1 3.3-.6.6-1.5.3-2.1-.3-.6-.6-.3-1.5.3-2.1 4.2-2.4 8.4-3.9 13.2-3.9 10.5 0 19.5 6.9 22.2 16.8 8.7.9 15 8.1 15 16.8 0 8.4-6 15.6-14.4 17.1.3 0 .3 0 0 0zm-42.268-.434c-.2 0-.4-.1-.5-.3l-2.4-7.3-7.3-2.4c-.1-.1-.3-.3-.3-.5s.1-.4.2-.5l24-14c.2-.1.4-.1.5 0 .2.2.3.4.3.6l-4 21c0 .1-.1.3-.2.3-.1.1-.3.1-.4 0l-8.5-3.2-.9 5.9c0 .2-.2.4-.5.4zm-8.8-10.6l6.5 2.2c.1 0 .3.2.3.3l1.8 5.5.7-4.5c0-.2.1-.3.2-.4.1-.1.3-.1.4 0l8.4 3.3 3.7-19.3-22 12.9z"/><path d="M680.111 169.679c-.1 0-.2 0-.3-.1-.2-.2-.3-.5-.1-.7l8.9-12-11.6 11.6c-.2.2-.5.2-.7 0-.2-.2-.2-.5 0-.7l16.4-16.5c.2-.2.5-.2.7 0 .2.2.2.5.1.7l-13 17.5c-.1.1-.2.2-.4.2zm-1 6.5c-.1 0-.2 0-.3-.1-.2-.2-.3-.5-.1-.7l4-5c.2-.2.5-.2.7-.1.2.2.3.5.1.7l-4 5c-.1.1-.3.2-.4.2zm-14.1-1.6c-.1 0-.2 0-.3-.1l-.9-.9c-.2-.2-.2-.5 0-.7.2-.2.5-.2.7 0l.9.9c.2.2.2.5 0 .7-.1 0-.3.1-.4.1zm7.4 4c-.6-.1-1.2-.2-1.7-.4-.3-.1-.4-.4-.3-.6.1-.2.4-.4.6-.3.5.2 1 .3 1.5.3.3 0 .5.3.4.6 0 .2-.2.4-.5.4zm2.4 0c-.2 0-.5-.2-.5-.4 0-.3.1-.5.4-.6.2 0 .3-.1.5-.1.3-.1.5.1.6.4.1.3-.1.5-.4.6-.1 0-.3 0-.6.1.1 0 .1 0 0 0zm-6.1-1.3c-.1 0-.2 0-.2-.1-.5-.3-.9-.6-1.4-.9-.2-.2-.3-.5-.1-.7.2-.2.5-.3.7-.1.4.3.9.6 1.3.8.2.1.3.4.2.7-.2.2-.3.3-.5.3zm8 .7c-.2 0-.4-.1-.5-.3-.1-.3 0-.5.3-.7.4-.2.7-.3 1.1-.5.2-.1.5-.1.7.2.1.2.1.5-.2.7l-1.2.6h-.2z"/><path style="isolation:auto;mix-blend-mode:normal" color="#000" overflow="visible" fill="none" stroke="#000" stroke-width="1.221" d="M753.771 146.523h158.78v18.779H753.77z"/><text style="line-height:125%" x="866.107" y="51.133" font-weight="400" font-size="15" font-family="sans-serif" letter-spacing="0" word-spacing="0" stroke-width="2" transform="translate(-106.839 108.918)"><tspan x="866.107" y="51.133" font-size="13.75">http://endpoint.io/ID1</tspan></text><path style="isolation:auto;mix-blend-mode:normal" color="#000" overflow="visible" fill="none" stroke="#000" stroke-width=".956" d="M912.64 146.391h45.043v19.044H912.64z"/><path d="M930.127 160.816c-2.697 2.702-7.114 2.705-9.815.008-2.702-2.697-2.706-7.113-.009-9.815 2.697-2.701 7.114-2.705 9.816-.008 2.701 2.697 2.705 7.114.008 9.815zm-9.21-9.194a6.035 6.035 0 0 0 .008 8.588 6.035 6.035 0 0 0 8.588-.007 6.035 6.035 0 0 0-.007-8.588 6.035 6.035 0 0 0-8.589.007z"/><path d="M951.9 156.197c-.06.061-.183.184-.306.184l-19.63.017a.42.42 0 0 1-.43-.43.42.42 0 0 1 .429-.43l19.63-.015a.42.42 0 0 1 .43.429c.061.06-.061.184-.123.245z"/><path d="M948.836 159.267c-.062.061-.184.184-.307.184a.42.42 0 0 1-.43-.429l-.002-3.067a.42.42 0 0 1 .429-.43.42.42 0 0 1 .43.43l.002 3.066c.062.062-.061.184-.122.246zm-3.681.003c-.061.061-.184.184-.307.184a.42.42 0 0 1-.43-.429l-.002-3.067a.42.42 0 0 1 .43-.43.42.42 0 0 1 .429.43l.003 3.066c.06.062-.062.185-.123.246z"/><circle class="st0" cx="29" cy="15" r=".5" fill="#231f20" transform="translate(523.496 105.456) scale(1.76417)"/><circle class="st0" cx="27" cy="15" r=".5" fill="#231f20" transform="translate(523.496 105.456) scale(1.76417)"/><circle class="st0" cx="27" cy="17" r=".5" fill="#231f20" transform="translate(523.496 105.456) scale(1.76417)"/><circle class="st0" cx="27" cy="13" r=".5" fill="#231f20" transform="translate(523.496 105.456) scale(1.76417)"/><circle class="st0" cx="25" cy="17" r=".5" fill="#231f20" transform="translate(523.496 105.456) scale(1.76417)"/><circle class="st0" cx="25" cy="19" r=".5" fill="#231f20" transform="translate(523.496 105.456) scale(1.76417)"/><circle class="st0" cx="25" cy="13" r=".5" fill="#231f20" transform="translate(523.496 105.456) scale(1.76417)"/><circle class="st0" cx="25" cy="11" r=".5" fill="#231f20" transform="translate(523.496 105.456) scale(1.76417)"/><circle class="st0" cx="23" cy="17" r=".5" fill="#231f20" transform="translate(523.496 105.456) scale(1.76417)"/><circle class="st0" cx="23" cy="19" r=".5" fill="#231f20" transform="translate(523.496 105.456) scale(1.76417)"/><circle class="st0" cx="23" cy="21" r=".5" fill="#231f20" transform="translate(523.496 105.456) scale(1.76417)"/><circle class="st0" cx="23" cy="13" r=".5" fill="#231f20" transform="translate(523.496 105.456) scale(1.76417)"/><circle class="st0" cx="23" cy="11" r=".5" fill="#231f20" transform="translate(523.496 105.456) scale(1.76417)"/><circle class="st0" cx="23" cy="9" r=".5" fill="#231f20" transform="translate(523.496 105.456) scale(1.76417)"/><circle class="st0" cx="21" cy="17" r=".5" fill="#231f20" transform="translate(523.496 105.456) scale(1.76417)"/><circle class="st0" cx="21" cy="19" r=".5" fill="#231f20" transform="translate(523.496 105.456) scale(1.76417)"/><circle class="st0" cx="21" cy="21" r=".5" fill="#231f20" transform="translate(523.496 105.456) scale(1.76417)"/><circle class="st0" cx="21" cy="23" r=".5" fill="#231f20" transform="translate(523.496 105.456) scale(1.76417)"/><circle class="st0" cx="21" cy="13" r=".5" fill="#231f20" transform="translate(523.496 105.456) scale(1.76417)"/><circle class="st0" cx="21" cy="11" r=".5" fill="#231f20" transform="translate(523.496 105.456) scale(1.76417)"/><circle class="st0" cx="21" cy="9" r=".5" fill="#231f20" transform="translate(523.496 105.456) scale(1.76417)"/><circle class="st0" cx="21" cy="7" r=".5" fill="#231f20" transform="translate(523.496 105.456) scale(1.76417)"/><circle class="st0" cx="19" cy="17" r=".5" fill="#231f20" transform="translate(523.496 105.456) scale(1.76417)"/><circle class="st0" cx="19" cy="19" r=".5" fill="#231f20" transform="translate(523.496 105.456) scale(1.76417)"/><circle class="st0" cx="19" cy="21" r=".5" fill="#231f20" transform="translate(523.496 105.456) scale(1.76417)"/><circle class="st0" cx="19" cy="23" r=".5" fill="#231f20" transform="translate(523.496 105.456) scale(1.76417)"/><circle class="st0" cx="19" cy="25" r=".5" fill="#231f20" transform="translate(523.496 105.456) scale(1.76417)"/><circle class="st0" cx="19" cy="13" r=".5" fill="#231f20" transform="translate(523.496 105.456) scale(1.76417)"/><circle class="st0" cx="19" cy="11" r=".5" fill="#231f20" transform="translate(523.496 105.456) scale(1.76417)"/><circle class="st0" cx="19" cy="9" r=".5" fill="#231f20" transform="translate(523.496 105.456) scale(1.76417)"/><circle class="st0" cx="19" cy="7" r=".5" fill="#231f20" transform="translate(523.496 105.456) scale(1.76417)"/><circle class="st0" cx="19" cy="5" r=".5" fill="#231f20" transform="translate(523.496 105.456) scale(1.76417)"/><circle class="st0" cx="17" cy="17" r=".5" fill="#231f20" transform="translate(523.496 105.456) scale(1.76417)"/><circle class="st0" cx="17" cy="19" r=".5" fill="#231f20" transform="translate(523.496 105.456) scale(1.76417)"/><circle class="st0" cx="17" cy="21" r=".5" fill="#231f20" transform="translate(523.496 105.456) scale(1.76417)"/><circle class="st0" cx="17" cy="23" r=".5" fill="#231f20" transform="translate(523.496 105.456) scale(1.76417)"/><circle class="st0" cx="17" cy="25" r=".5" fill="#231f20" transform="translate(523.496 105.456) scale(1.76417)"/><circle class="st0" cx="17" cy="27" r=".5" fill="#231f20" transform="translate(523.496 105.456) scale(1.76417)"/><circle class="st0" cx="17" cy="13" r=".5" fill="#231f20" transform="translate(523.496 105.456) scale(1.76417)"/><circle class="st0" cx="17" cy="11" r=".5" fill="#231f20" transform="translate(523.496 105.456) scale(1.76417)"/><circle class="st0" cx="17" cy="9" r=".5" fill="#231f20" transform="translate(523.496 105.456) scale(1.76417)"/><circle class="st0" cx="17" cy="7" r=".5" fill="#231f20" transform="translate(523.496 105.456) scale(1.76417)"/><circle class="st0" cx="17" cy="5" r=".5" fill="#231f20" transform="translate(523.496 105.456) scale(1.76417)"/><circle class="st0" cx="17" cy="3" r=".5" fill="#231f20" transform="translate(523.496 105.456) scale(1.76417)"/><circle class="st0" cx="25" cy="15" r=".5" fill="#231f20" transform="translate(523.496 105.456) scale(1.76417)"/><circle class="st0" cx="23" cy="15" r=".5" fill="#231f20" transform="translate(523.496 105.456) scale(1.76417)"/><circle class="st0" cx="21" cy="15" r=".5" fill="#231f20" transform="translate(523.496 105.456) scale(1.76417)"/><circle class="st0" cx="19" cy="15" r=".5" fill="#231f20" transform="translate(523.496 105.456) scale(1.76417)"/><circle class="st0" cx="17" cy="15" r=".5" fill="#231f20" transform="translate(523.496 105.456) scale(1.76417)"/><circle class="st0" cx="15" cy="17" r=".5" fill="#231f20" transform="translate(523.496 105.456) scale(1.76417)"/><circle class="st0" cx="15" cy="13" r=".5" fill="#231f20" transform="translate(523.496 105.456) scale(1.76417)"/><circle class="st0" cx="15" cy="15" r=".5" fill="#231f20" transform="translate(523.496 105.456) scale(1.76417)"/><circle class="st0" cx="13" cy="17" r=".5" fill="#231f20" transform="translate(523.496 105.456) scale(1.76417)"/><circle class="st0" cx="13" cy="13" r=".5" fill="#231f20" transform="translate(523.496 105.456) scale(1.76417)"/><circle class="st0" cx="13" cy="15" r=".5" fill="#231f20" transform="translate(523.496 105.456) scale(1.76417)"/><circle class="st0" cx="11" cy="17" r=".5" fill="#231f20" transform="translate(523.496 105.456) scale(1.76417)"/><circle class="st0" cx="11" cy="13" r=".5" fill="#231f20" transform="translate(523.496 105.456) scale(1.76417)"/><circle class="st0" cx="11" cy="15" r=".5" fill="#231f20" transform="translate(523.496 105.456) scale(1.76417)"/><circle class="st0" cx="9" cy="17" r=".5" fill="#231f20" transform="translate(523.496 105.456) scale(1.76417)"/><circle class="st0" cx="9" cy="13" r=".5" fill="#231f20" transform="translate(523.496 105.456) scale(1.76417)"/><circle class="st0" cx="9" cy="15" r=".5" fill="#231f20" transform="translate(523.496 105.456) scale(1.76417)"/><circle class="st0" cx="7" cy="17" r=".5" fill="#231f20" transform="translate(523.496 105.456) scale(1.76417)"/><circle class="st0" cx="7" cy="13" r=".5" fill="#231f20" transform="translate(523.496 105.456) scale(1.76417)"/><circle class="st0" cx="7" cy="15" r=".5" fill="#231f20" transform="translate(523.496 105.456) scale(1.76417)"/><circle class="st0" cx="5" cy="17" r=".5" fill="#231f20" transform="translate(523.496 105.456) scale(1.76417)"/><circle class="st0" cx="5" cy="13" r=".5" fill="#231f20" transform="translate(523.496 105.456) scale(1.76417)"/><circle class="st0" cx="5" cy="15" r=".5" fill="#231f20" transform="translate(523.496 105.456) scale(1.76417)"/><circle class="st0" cx="3" cy="17" r=".5" fill="#231f20" transform="translate(523.496 105.456) scale(1.76417)"/><circle class="st0" cx="3" cy="13" r=".5" fill="#231f20" transform="translate(523.496 105.456) scale(1.76417)"/><circle class="st0" cx="3" cy="15" r=".5" fill="#231f20" transform="translate(523.496 105.456) scale(1.76417)"/><circle class="st0" cx="1" cy="17" r=".5" fill="#231f20" transform="translate(523.496 105.456) scale(1.76417)"/><circle class="st0" cx="1" cy="13" r=".5" fill="#231f20" transform="translate(523.496 105.456) scale(1.76417)"/><circle class="st0" cx="1" cy="15" r=".5" fill="#231f20" transform="translate(523.496 105.456) scale(1.76417)"/><circle class="st0" cx="29" cy="15" r=".5" fill="#231f20" transform="matrix(-1.76417 0 0 1.76417 576.42 153.444)"/><circle class="st0" cx="27" cy="15" r=".5" fill="#231f20" transform="matrix(-1.76417 0 0 1.76417 576.42 153.444)"/><circle class="st0" cx="27" cy="17" r=".5" fill="#231f20" transform="matrix(-1.76417 0 0 1.76417 576.42 153.444)"/><circle class="st0" cx="27" cy="13" r=".5" fill="#231f20" transform="matrix(-1.76417 0 0 1.76417 576.42 153.444)"/><circle class="st0" cx="25" cy="17" r=".5" fill="#231f20" transform="matrix(-1.76417 0 0 1.76417 576.42 153.444)"/><circle class="st0" cx="25" cy="19" r=".5" fill="#231f20" transform="matrix(-1.76417 0 0 1.76417 576.42 153.444)"/><circle class="st0" cx="25" cy="13" r=".5" fill="#231f20" transform="matrix(-1.76417 0 0 1.76417 576.42 153.444)"/><circle class="st0" cx="25" cy="11" r=".5" fill="#231f20" transform="matrix(-1.76417 0 0 1.76417 576.42 153.444)"/><circle class="st0" cx="23" cy="17" r=".5" fill="#231f20" transform="matrix(-1.76417 0 0 1.76417 576.42 153.444)"/><circle class="st0" cx="23" cy="19" r=".5" fill="#231f20" transform="matrix(-1.76417 0 0 1.76417 576.42 153.444)"/><circle class="st0" cx="23" cy="21" r=".5" fill="#231f20" transform="matrix(-1.76417 0 0 1.76417 576.42 153.444)"/><circle class="st0" cx="23" cy="13" r=".5" fill="#231f20" transform="matrix(-1.76417 0 0 1.76417 576.42 153.444)"/><circle class="st0" cx="23" cy="11" r=".5" fill="#231f20" transform="matrix(-1.76417 0 0 1.76417 576.42 153.444)"/><circle class="st0" cx="23" cy="9" r=".5" fill="#231f20" transform="matrix(-1.76417 0 0 1.76417 576.42 153.444)"/><circle class="st0" cx="21" cy="17" r=".5" fill="#231f20" transform="matrix(-1.76417 0 0 1.76417 576.42 153.444)"/><circle class="st0" cx="21" cy="19" r=".5" fill="#231f20" transform="matrix(-1.76417 0 0 1.76417 576.42 153.444)"/><circle class="st0" cx="21" cy="21" r=".5" fill="#231f20" transform="matrix(-1.76417 0 0 1.76417 576.42 153.444)"/><circle class="st0" cx="21" cy="23" r=".5" fill="#231f20" transform="matrix(-1.76417 0 0 1.76417 576.42 153.444)"/><circle class="st0" cx="21" cy="13" r=".5" fill="#231f20" transform="matrix(-1.76417 0 0 1.76417 576.42 153.444)"/><circle class="st0" cx="21" cy="11" r=".5" fill="#231f20" transform="matrix(-1.76417 0 0 1.76417 576.42 153.444)"/><circle class="st0" cx="21" cy="9" r=".5" fill="#231f20" transform="matrix(-1.76417 0 0 1.76417 576.42 153.444)"/><circle class="st0" cx="21" cy="7" r=".5" fill="#231f20" transform="matrix(-1.76417 0 0 1.76417 576.42 153.444)"/><circle class="st0" cx="19" cy="17" r=".5" fill="#231f20" transform="matrix(-1.76417 0 0 1.76417 576.42 153.444)"/><circle class="st0" cx="19" cy="19" r=".5" fill="#231f20" transform="matrix(-1.76417 0 0 1.76417 576.42 153.444)"/><circle class="st0" cx="19" cy="21" r=".5" fill="#231f20" transform="matrix(-1.76417 0 0 1.76417 576.42 153.444)"/><circle class="st0" cx="19" cy="23" r=".5" fill="#231f20" transform="matrix(-1.76417 0 0 1.76417 576.42 153.444)"/><circle class="st0" cx="19" cy="25" r=".5" fill="#231f20" transform="matrix(-1.76417 0 0 1.76417 576.42 153.444)"/><circle class="st0" cx="19" cy="13" r=".5" fill="#231f20" transform="matrix(-1.76417 0 0 1.76417 576.42 153.444)"/><circle class="st0" cx="19" cy="11" r=".5" fill="#231f20" transform="matrix(-1.76417 0 0 1.76417 576.42 153.444)"/><circle class="st0" cx="19" cy="9" r=".5" fill="#231f20" transform="matrix(-1.76417 0 0 1.76417 576.42 153.444)"/><circle class="st0" cx="19" cy="7" r=".5" fill="#231f20" transform="matrix(-1.76417 0 0 1.76417 576.42 153.444)"/><circle class="st0" cx="19" cy="5" r=".5" fill="#231f20" transform="matrix(-1.76417 0 0 1.76417 576.42 153.444)"/><circle class="st0" cx="17" cy="17" r=".5" fill="#231f20" transform="matrix(-1.76417 0 0 1.76417 576.42 153.444)"/><circle class="st0" cx="17" cy="19" r=".5" fill="#231f20" transform="matrix(-1.76417 0 0 1.76417 576.42 153.444)"/><circle class="st0" cx="17" cy="21" r=".5" fill="#231f20" transform="matrix(-1.76417 0 0 1.76417 576.42 153.444)"/><circle class="st0" cx="17" cy="23" r=".5" fill="#231f20" transform="matrix(-1.76417 0 0 1.76417 576.42 153.444)"/><circle class="st0" cx="17" cy="25" r=".5" fill="#231f20" transform="matrix(-1.76417 0 0 1.76417 576.42 153.444)"/><circle class="st0" cx="17" cy="27" r=".5" fill="#231f20" transform="matrix(-1.76417 0 0 1.76417 576.42 153.444)"/><circle class="st0" cx="17" cy="13" r=".5" fill="#231f20" transform="matrix(-1.76417 0 0 1.76417 576.42 153.444)"/><circle class="st0" cx="17" cy="11" r=".5" fill="#231f20" transform="matrix(-1.76417 0 0 1.76417 576.42 153.444)"/><circle class="st0" cx="17" cy="9" r=".5" fill="#231f20" transform="matrix(-1.76417 0 0 1.76417 576.42 153.444)"/><circle class="st0" cx="17" cy="7" r=".5" fill="#231f20" transform="matrix(-1.76417 0 0 1.76417 576.42 153.444)"/><circle class="st0" cx="17" cy="5" r=".5" fill="#231f20" transform="matrix(-1.76417 0 0 1.76417 576.42 153.444)"/><circle class="st0" cx="17" cy="3" r=".5" fill="#231f20" transform="matrix(-1.76417 0 0 1.76417 576.42 153.444)"/><circle class="st0" cx="25" cy="15" r=".5" fill="#231f20" transform="matrix(-1.76417 0 0 1.76417 576.42 153.444)"/><circle class="st0" cx="23" cy="15" r=".5" fill="#231f20" transform="matrix(-1.76417 0 0 1.76417 576.42 153.444)"/><circle class="st0" cx="21" cy="15" r=".5" fill="#231f20" transform="matrix(-1.76417 0 0 1.76417 576.42 153.444)"/><circle class="st0" cx="19" cy="15" r=".5" fill="#231f20" transform="matrix(-1.76417 0 0 1.76417 576.42 153.444)"/><circle class="st0" cx="17" cy="15" r=".5" fill="#231f20" transform="matrix(-1.76417 0 0 1.76417 576.42 153.444)"/><circle class="st0" cx="15" cy="17" r=".5" fill="#231f20" transform="matrix(-1.76417 0 0 1.76417 576.42 153.444)"/><circle class="st0" cx="15" cy="13" r=".5" fill="#231f20" transform="matrix(-1.76417 0 0 1.76417 576.42 153.444)"/><circle class="st0" cx="15" cy="15" r=".5" fill="#231f20" transform="matrix(-1.76417 0 0 1.76417 576.42 153.444)"/><circle class="st0" cx="13" cy="17" r=".5" fill="#231f20" transform="matrix(-1.76417 0 0 1.76417 576.42 153.444)"/><circle class="st0" cx="13" cy="13" r=".5" fill="#231f20" transform="matrix(-1.76417 0 0 1.76417 576.42 153.444)"/><circle class="st0" cx="13" cy="15" r=".5" fill="#231f20" transform="matrix(-1.76417 0 0 1.76417 576.42 153.444)"/><circle class="st0" cx="11" cy="17" r=".5" fill="#231f20" transform="matrix(-1.76417 0 0 1.76417 576.42 153.444)"/><circle class="st0" cx="11" cy="13" r=".5" fill="#231f20" transform="matrix(-1.76417 0 0 1.76417 576.42 153.444)"/><circle class="st0" cx="11" cy="15" r=".5" fill="#231f20" transform="matrix(-1.76417 0 0 1.76417 576.42 153.444)"/><circle class="st0" cx="9" cy="17" r=".5" fill="#231f20" transform="matrix(-1.76417 0 0 1.76417 576.42 153.444)"/><circle class="st0" cx="9" cy="13" r=".5" fill="#231f20" transform="matrix(-1.76417 0 0 1.76417 576.42 153.444)"/><circle class="st0" cx="9" cy="15" r=".5" fill="#231f20" transform="matrix(-1.76417 0 0 1.76417 576.42 153.444)"/><circle class="st0" cx="7" cy="17" r=".5" fill="#231f20" transform="matrix(-1.76417 0 0 1.76417 576.42 153.444)"/><circle class="st0" cx="7" cy="13" r=".5" fill="#231f20" transform="matrix(-1.76417 0 0 1.76417 576.42 153.444)"/><circle class="st0" cx="7" cy="15" r=".5" fill="#231f20" transform="matrix(-1.76417 0 0 1.76417 576.42 153.444)"/><circle class="st0" cx="5" cy="17" r=".5" fill="#231f20" transform="matrix(-1.76417 0 0 1.76417 576.42 153.444)"/><circle class="st0" cx="5" cy="13" r=".5" fill="#231f20" transform="matrix(-1.76417 0 0 1.76417 576.42 153.444)"/><circle class="st0" cx="5" cy="15" r=".5" fill="#231f20" transform="matrix(-1.76417 0 0 1.76417 576.42 153.444)"/><circle class="st0" cx="3" cy="17" r=".5" fill="#231f20" transform="matrix(-1.76417 0 0 1.76417 576.42 153.444)"/><circle class="st0" cx="3" cy="13" r=".5" fill="#231f20" transform="matrix(-1.76417 0 0 1.76417 576.42 153.444)"/><circle class="st0" cx="3" cy="15" r=".5" fill="#231f20" transform="matrix(-1.76417 0 0 1.76417 576.42 153.444)"/><circle class="st0" cx="1" cy="17" r=".5" fill="#231f20" transform="matrix(-1.76417 0 0 1.76417 576.42 153.444)"/><circle class="st0" cx="1" cy="13" r=".5" fill="#231f20" transform="matrix(-1.76417 0 0 1.76417 576.42 153.444)"/><circle class="st0" cx="1" cy="15" r=".5" fill="#231f20" transform="matrix(-1.76417 0 0 1.76417 576.42 153.444)"/><path d="M41.001 94.034v2c0 .2-.1.4-.3.4l-4 2c-.2.1-.4.1-.6 0l-.6-.6-.6.6c-.2.2-.5.2-.7 0l-.6-.6-.6.6c-.2.2-.5.2-.7 0l-.7-.7-.9.7c-.2.1-.3.1-.4.1h-4.4c-.3 0-.5-.2-.5-.5s.2-.5.5-.5h4.2l1.1-.9c.2-.2.5-.1.7 0l.6.6.6-.6c.2-.2.5-.2.7 0l.6.6.6-.6c.2-.2.5-.2.7 0l.7.7 3.6-1.6v-1.4l-3.6-1.8h-10.4c-.3 0-.5-.2-.5-.5s.2-.5.5-.5h10.5c.1 0 .2 0 .2.1l4 2c.2 0 .3.2.3.4z"/><path d="M41.001 94.034c0 .3-.2.5-.5.5h-14c-.3 0-.5-.2-.5-.5s.2-.5.5-.5h14c.3 0 .5.2.5.5z"/><path d="M27.001 95.034c0 4.1-3.4 7.5-7.5 7.5s-7.5-3.4-7.5-7.5 3.4-7.5 7.5-7.5 7.5 3.4 7.5 7.5zm-14 0c0 3.6 2.9 6.5 6.5 6.5s6.5-2.9 6.5-6.5-2.9-6.5-6.5-6.5-6.5 2.9-6.5 6.5z"/><path d="M20.001 95.034c0 1.4-1.1 2.5-2.5 2.5s-2.5-1.1-2.5-2.5 1.1-2.5 2.5-2.5 2.5 1.1 2.5 2.5zm-4 0c0 .8.7 1.5 1.5 1.5s1.5-.7 1.5-1.5-.7-1.5-1.5-1.5-1.5.7-1.5 1.5zm4.876-23.921c-2.477 2.481-6.533 2.485-9.014.008-2.481-2.477-2.484-6.533-.008-9.014 2.477-2.481 6.534-2.485 9.014-.008 2.481 2.477 2.485 6.533.008 9.014zm-8.458-8.443a5.543 5.543 0 0 0 .007 7.887 5.543 5.543 0 0 0 7.887-.007 5.543 5.543 0 0 0-.006-7.887 5.543 5.543 0 0 0-7.888.007z"/><path d="M40.874 66.871c-.057.057-.17.17-.282.17l-18.028.015a.385.385 0 0 1-.395-.394c0-.226.169-.395.394-.395l18.028-.015c.226 0 .395.169.395.394.056.056-.056.169-.112.225z"/><path d="M38.059 69.69c-.056.057-.169.17-.282.17a.385.385 0 0 1-.394-.394l-.003-2.817c0-.225.169-.395.394-.395.226 0 .395.169.395.394l.002 2.817c.057.056-.056.17-.112.226zm-3.38.003c-.057.057-.17.17-.282.17a.385.385 0 0 1-.395-.394L34 66.652c0-.226.169-.395.394-.395s.395.169.395.394l.002 2.817c.057.056-.056.169-.112.225z"/><text y="-123.995" x="70.471" style="line-height:125%" font-weight="400" font-size="40" font-family="sans-serif" letter-spacing="0" word-spacing="0" transform="translate(-20.929 194.743)"><tspan y="-123.995" x="70.471" font-size="15">Public Key</tspan></text><text y="-95.571" x="70.471" style="line-height:125%" font-weight="400" font-size="40" font-family="sans-serif" letter-spacing="0" word-spacing="0" transform="translate(-20.929 194.743)"><tspan y="-95.571" x="70.471" font-size="15">Private Key</tspan></text><path class="st0" d="M171.39 181.235c-.174 0-.524 0-.7-.175a.846.846 0 0 1 0-1.225l23.967-23.966-23.966-23.791a.846.846 0 0 1 0-1.225.846.846 0 0 1 1.225 0l24.49 24.491c.35.35.35.875 0 1.225l-24.49 24.49c0 .176-.35.176-.525.176z" fill="#231f20"/><text style="line-height:125%" x="346.412" y="229.611" font-weight="400" font-size="40" font-family="sans-serif" letter-spacing="0" word-spacing="0"><tspan x="346.412" y="229.611" style="text-align:center" font-size="20" text-anchor="middle">Push Subscription</tspan><tspan x="346.412" y="254.611" style="text-align:center" font-size="20" text-anchor="middle">with http://endpoint.io/ID1</tspan></text><g transform="translate(147.6 84.475)"><circle r="14.464" cy="-59.738" cx="198.305" style="isolation:auto;mix-blend-mode:normal" color="#000" overflow="visible" fill="none" stroke="#000" stroke-width=".547"/><text y="-51.762" x="191.152" style="line-height:125%" font-weight="400" font-size="21.881" font-family="sans-serif" letter-spacing="0" word-spacing="0"><tspan y="-51.762" x="191.152">1</tspan></text></g><g transform="translate(603.665 162.747)"><circle r="14.464" cy="-59.738" cx="198.305" style="isolation:auto;mix-blend-mode:normal" color="#000" overflow="visible" fill="none" stroke="#000" stroke-width=".547"/><text y="-51.762" x="191.152" style="line-height:125%" font-weight="400" font-size="21.881" font-family="sans-serif" letter-spacing="0" word-spacing="0"><tspan y="-51.762" x="191.152">2</tspan></text></g><g transform="translate(147.6 353.933)"><circle r="14.464" cy="-59.738" cx="198.305" style="isolation:auto;mix-blend-mode:normal" color="#000" overflow="visible" fill="none" stroke="#000" stroke-width=".547"/><text y="-51.762" x="191.152" style="line-height:125%" font-weight="400" font-size="21.881" font-family="sans-serif" letter-spacing="0" word-spacing="0"><tspan y="-51.762" x="191.152">3</tspan></text></g></svg>