<svg xmlns="http://www.w3.org/2000/svg" width="1092.25" height="336.339" viewBox="0 0 1023.9842 315.31819"><text style="line-height:125%" x="129.488" y="275.219" font-weight="400" font-size="40" font-family="sans-serif" letter-spacing="0" word-spacing="0" transform="translate(13.632 -209.396)"><tspan x="129.488" y="275.219">eyJ0iJ9.eyJhdWnVrIn0.8M3h-USjDhTqQ</tspan></text><text style="line-height:125%" x="52.045" y="400.362" font-weight="400" font-size="40" font-family="sans-serif" letter-spacing="0" word-spacing="0" transform="translate(13.632 -209.396)"><tspan x="52.045" y="400.362">eyJ0iJ9</tspan></text><text style="line-height:125%" x="276.304" y="400.362" font-weight="400" font-size="40" font-family="sans-serif" letter-spacing="0" word-spacing="0" transform="translate(13.632 -209.396)"><tspan x="276.304" y="400.362">eyJhdWnVrIn0</tspan></text><text y="400.362" x="648.571" style="line-height:125%" font-weight="400" font-size="40" font-family="sans-serif" letter-spacing="0" word-spacing="0" transform="translate(13.632 -209.396)"><tspan y="400.362" x="648.571">8M3h-USjDhTqQ</tspan></text><text style="line-height:125%" x="28.442" y="480.804" font-weight="400" font-size="40" font-family="sans-serif" letter-spacing="0" word-spacing="0" transform="translate(13.632 -209.396)"><tspan x="28.442" y="480.804" style="-inkscape-font-specification:'sans-serif Bold Italic'" font-style="italic" font-weight="700">JWT Info</tspan></text><text style="line-height:125%" x="316.486" y="480.648" font-weight="400" font-size="40" font-family="sans-serif" letter-spacing="0" word-spacing="0" transform="translate(13.632 -209.396)"><tspan x="316.486" y="480.648" style="-inkscape-font-specification:'sans-serif Bold Italic'" font-style="italic" font-weight="700">JWT Data</tspan></text><text style="line-height:125%" x="702.888" y="480.648" font-weight="400" font-size="40" font-family="sans-serif" letter-spacing="0" word-spacing="0" transform="translate(13.632 -209.396)"><tspan x="702.888" y="480.648" style="-inkscape-font-specification:'sans-serif Bold Italic'" font-style="italic" font-weight="700">Signature</tspan></text><path style="isolation:auto;mix-blend-mode:normal" color="#000" overflow="visible" stroke-width=".936" d="M145.967 79.896H267.17v2.064H145.967z"/><path style="isolation:auto;mix-blend-mode:normal" color="#000" overflow="visible" stroke-width="1.263" d="M299.478 80.06h262.297v1.736H299.478z"/><path style="isolation:auto;mix-blend-mode:normal" color="#000" overflow="visible" stroke-width="1.338" d="M600.739 80.097h307.679v1.662H600.739z"/><path style="isolation:auto;mix-blend-mode:normal" color="#000" overflow="visible" d="M138.348 149.011l71.165-68.139 1.137.904-71.165 68.139zm683.696.001l-71.165-68.14-1.136.905 71.165 68.139zM429.626 80.806h2v73.741h-2z"/></svg>