<svg xmlns="http://www.w3.org/2000/svg" width="883.482" height="235.42" viewBox="0 0 828.26436 220.70601" id="svg2"><g id="layer1" transform="translate(6.774 -768.903)"><g id="g14246" transform="matrix(3 0 0 3 614.689 804.336)"><g id="g14248"><g id="g14250"><path id="path14252" d="M25.8 30H4.2C2.3 30 .7 28.4.7 26.5S2.3 23 4.2 23h21.5c1.9 0 3.5 1.6 3.5 3.5S27.7 30 25.8 30zM4.2 24c-1.4 0-2.5 1.1-2.5 2.5S2.9 29 4.2 29h21.5c1.4 0 2.5-1.1 2.5-2.5S27.1 24 25.8 24H4.2z"/></g><g id="g14254"><path id="path14256" d="M4.8 27c-.3 0-.5-.2-.5-.5s.2-.5.5-.5.5.2.5.5-.3.5-.5.5z"/></g><g id="g14258"><path id="path14260" d="M6.8 27c-.3 0-.5-.2-.5-.5s.2-.5.5-.5.5.2.5.5-.3.5-.5.5z"/></g><g id="g14262"><path id="path14264" d="M25.8 24H4.2C2.3 24 .7 22.4.7 20.5S2.3 17 4.2 17h21.5c1.9 0 3.5 1.6 3.5 3.5S27.7 24 25.8 24zM4.2 18c-1.4 0-2.5 1.1-2.5 2.5S2.9 23 4.2 23h21.5c1.4 0 2.5-1.1 2.5-2.5S27.1 18 25.8 18H4.2z"/></g><g id="g14266"><path id="path14268" d="M4.8 21c-.3 0-.5-.2-.5-.5s.2-.5.5-.5.5.2.5.5-.2.5-.5.5z"/></g><g id="g14270"><path id="path14272" d="M6.8 21c-.3 0-.5-.2-.5-.5s.2-.5.5-.5.5.2.5.5-.3.5-.5.5z"/></g><g id="g14274"><circle id="circle14276" r="1" cy="26" cx="26.3"/></g><g id="g14278"><circle id="circle14280" r="1" cy="20" cx="26.3"/></g></g><g id="g14282"><path id="path14284" d="M21.3 15H9.2c-2.2 0-4-1.8-4-4 0-2 1.5-3.7 3.5-4v-.2c0-3.8 3-6.8 6.7-6.8 3 0 5.6 2 6.4 4.9 2.5.3 4.4 2.4 4.4 5 .1 2.8-2.2 5.1-4.9 5.1zM9.2 8c-1.6 0-2.9 1.3-2.9 3s1.3 3 3 3h12.1c2.2 0 4-1.8 4-4.1 0-2.2-1.7-3.9-3.8-4-.2 0-.4-.2-.5-.4-.7-2.6-3-4.5-5.7-4.5-3.1 0-5.7 2.6-5.7 5.8v.6c0 .2 0 .3-.1.4-.1.1-.3.2-.4.2z"/></g></g><text style="line-height:125%;text-align:center" x="660.208" y="925.015" id="text14946" font-weight="400" font-size="40" font-family="sans-serif" letter-spacing="0" word-spacing="0" text-anchor="middle"><tspan id="tspan14948" x="660.208" y="925.015" style="-inkscape-font-specification:'sans-serif Italic'" font-style="italic" font-size="20">3. Send PushSubscription</tspan><tspan x="660.208" y="950.015" id="tspan14950" style="-inkscape-font-specification:'sans-serif Italic'" font-style="italic" font-size="20">to Your Server</tspan></text><g id="g5207"><g transform="matrix(3 0 0 3 87.956 804.186)" id="g4380"><g id="g4382"><path d="M15 24.3c-.6 0-1.2-.2-1.8-.6-.4-.2-3.5-2.4-6-4.5-.4-.3-1-.9-1.5-1.5l-1-1c-.2-.2-.2-.5-.1-.7.2-.2.5-.2.7-.1L6.4 17l1.4 1.4c2.5 2.1 5.6 4.2 6 4.5.4.3.8.4 1.2.4.3 0 1 0 1-.2.1-.2.2-.3.4-.3s.3 0 .5.1c.1.1.3.3.7.1.5-.2.9-.8 1-1.3 0-.2.1-.4.3-.4.2-.1.4 0 .5.1.2.2.6.1 1 0 .4-.2.8-.6.7-1 0-.2.1-.4.2-.5.2-.1.4-.1.5 0 .3.2.9.2 1.2-.1.2-.2.3-.4.1-.8-.5-1-3-3.1-4.9-4.8-1-.9-2-1.7-2.7-2.4-.3.1-.5.3-.6.4-.3.2-.5.4-1 .5-.9 1.2-2 1.5-3.4 1-.7-.2-.9-.7-1-1-.3-1.2.9-2.9 1.8-3.8 2.1-2.1 3.6-2.9 6.6-1.6 2.5 1.1 4.5 2 4.5 2 .3.1.4.4.3.7-.1.3-.4.4-.7.3 0 0-2-.9-4.5-2-2.2-1-3.3-.7-5.4 1.4-.8.8-1.7 2.2-1.5 2.9 0 .1.1.2.3.3 1.4.4 2-.1 2.4-.8.1-.1.2-.2.4-.2.3 0 .4-.1.7-.3.3-.2.6-.4 1.2-.7.2-.1.4 0 .5.1.7.7 1.8 1.6 2.9 2.5 2.3 1.9 4.6 3.9 5.2 5.1.4.7.2 1.5-.3 2-.5.4-1.1.5-1.7.4-.2.5-.6 1-1.2 1.3-.5.2-1 .3-1.4.2-.3.6-.8 1.2-1.4 1.5-.4.2-.9.2-1.3 0-.7.2-1.4.3-1.9.3z" id="path4384"/></g><g id="g4386"><path d="M12.5 8.8h-6c-.3 0-.5-.3-.5-.5s.2-.5.5-.5h6c.3 0 .5.2.5.5s-.2.5-.5.5z" id="path4388"/></g><g id="g4390"><path d="M23.5 19.3c-.2 0-.3-.1-.4-.2-.2-.2-.1-.5.1-.7l1.5-1c.2-.2.5-.1.7.1.2.2.1.5-.1.7l-1.5 1c-.1 0-.2.1-.3.1z" id="path4392"/></g><g id="g4394"><path d="M21.5 20.8c-.1 0-.2 0-.3-.1-.7-.5-3.7-3.7-4.1-4-.2-.2-.2-.5 0-.7.2-.2.5-.2.7 0 .9 1 3.4 3.6 3.9 4 .2.2.3.5.1.7 0 0-.2.1-.3.1z" id="path4396"/></g><g id="g4398"><path d="M19 22.3c-.1 0-.2 0-.3-.1-.9-.7-3.2-3.2-3.6-3.6-.2-.2-.2-.5 0-.7.2-.2.5-.2.7 0 .4.5 2.7 2.8 3.4 3.4.2.2.3.5.1.7 0 .2-.2.3-.3.3z" id="path4400"/></g><g id="g4402"><path d="M16.5 23.8c-.1 0-.2 0-.3-.1-.8-.7-2.3-2.2-3-3-.2-.2-.2-.5 0-.7.2-.2.5-.2.7 0 .8.8 2.2 2.3 3 3 .2.2.2.5.1.7-.2 0-.4.1-.5.1z" id="path4404"/></g><g id="g4406"><path d="M.5 17.8c-.3 0-.5-.2-.5-.5v-11c0-.3.2-.5.5-.5.9 0 5.3.1 6.4 1.1.1.1.1.2.1.4-.3 3.2-1.9 9.8-2 10.1-.1.2-.3.4-.5.4h-4zm.5-11v10h3.1c.3-1.4 1.6-6.5 1.9-9.3-.8-.5-3.2-.7-5-.7z" id="path4408"/></g><g id="g4410"><path d="M29.5 18.8h-4c-.2 0-.4-.2-.5-.4-.5-1.7-3.1-8.6-3.9-9.9-.1-.1-.1-.3-.1-.4 0-.1.2-.3.3-.3.1 0 3.3-1 8.2-1 .3 0 .5.2.5.5v11c0 .2-.2.5-.5.5zm-3.6-1H29v-10c-3.3 0-5.7.5-6.8.8 1.1 2 3.1 7.3 3.7 9.2z" id="path4412"/></g></g><text id="text14946-3" y="925.015" x="133.112" style="line-height:125%;text-align:center" font-weight="400" font-size="40" font-family="sans-serif" letter-spacing="0" word-spacing="0" text-anchor="middle"><tspan style="-inkscape-font-specification:'sans-serif Italic'" id="tspan14950-7" y="925.015" x="133.112" font-style="italic" font-size="20">1. Get Permission to</tspan><tspan id="tspan4460" style="-inkscape-font-specification:'sans-serif Italic'" y="950.015" x="133.112" font-style="italic" font-size="20">Send Push Messages</tspan></text></g><g id="g5229" transform="translate(-14)"><text id="text14946-3-5" y="925.015" x="399.786" style="line-height:125%;text-align:center" font-weight="400" font-size="40" font-family="sans-serif" letter-spacing="0" word-spacing="0" text-anchor="middle"><tspan id="tspan4742" style="-inkscape-font-specification:'sans-serif Italic'" y="925.015" x="399.786" font-style="italic" font-size="20">2. Get PushSubscription</tspan></text><g transform="translate(359.137 809.336) scale(2.66667)" id="g4747"><g id="g4749"><path d="M29.5 30h-10c-.3 0-.5-.2-.5-.5v-8c0-.3.2-.5.5-.5h10c.3 0 .5.2.5.5v8c0 .3-.2.5-.5.5zM20 29h9v-7h-9v7z" id="path4751"/></g><g id="g4753"><path d="M24.5 27c-.3 0-.5-.2-.5-.5v-2c0-.3.2-.5.5-.5s.5.2.5.5v2c0 .3-.2.5-.5.5z" id="path4755"/></g><g id="g4757"><g id="g4759"><path d="M.5 30H.4c-.3-.1-.4-.3-.4-.6l.7-3c.3-1.4 1.4-2.6 2.7-3l5.9-1.9c1.4-.6 2-2.9 2.1-3.7-.9-.9-1.8-2.2-1.8-3.4 0-.5-.2-.7-.3-.8-.2 0-.3-.1-.3-.3 0-.1-.6-1.7-.6-2.7v-.1c.1-.3.3-.7.6-.9V6c0-2.5 2.1-6 5.9-6 3.6 0 4.6 1.9 4.7 2.8.6.3 1.4 1 1.4 3.2v3.6c.3.2.5.5.5.9 0 1.1-.6 2.7-.6 2.7-.1.2-.2.3-.3.3-.1 0-.2.2-.2.8 0 1.1-.4 1.7-.7 2l-.1.1c-.1.2-.5.3-.7.2-.2-.1-.3-.5-.2-.7 0-.1.1-.1.1-.2.2-.3.5-.6.5-1.4 0-.9.4-1.4.7-1.6.2-.5.5-1.5.5-2.2v-.1c-.3 0-.5-.2-.5-.5V6c0-1.9-.6-2.2-.9-2.4-.1-.1-.4-.2-.4-.5v-.2c-.1-.5-.8-1.9-3.8-1.9S10 3.9 10 6v4c0 .3-.2.5-.5.5 0 0-.1.1-.1.2 0 .6.3 1.6.5 2.1.3.2.7.7.7 1.6 0 .9.8 2.1 1.6 2.8.1.1.2.2.2.4 0 .8-.7 4-2.7 4.9l-5.9 1.9c-1 .4-1.8 1.2-2 2.3l-.7 3c-.2.1-.4.3-.6.3z" id="path4761"/></g></g><g id="g4763"><path d="M28.5 22c-.3 0-.5-.2-.5-.5v-1c0-1.9-1.6-3.5-3.5-3.5S21 18.6 21 20.5v1c0 .3-.2.5-.5.5s-.5-.2-.5-.5v-1c0-2.5 2-4.5 4.5-4.5s4.5 2 4.5 4.5v1c0 .3-.2.5-.5.5z" id="path4765"/></g><g id="g4767"><path d="M24.5 26c-.8 0-1.5-.7-1.5-1.5s.7-1.5 1.5-1.5 1.5.7 1.5 1.5-.7 1.5-1.5 1.5zm0-2c-.3 0-.5.2-.5.5s.2.5.5.5.5-.2.5-.5-.2-.5-.5-.5z" id="path4769"/></g></g></g></g><style id="style9651">.st0{fill:#231f20}</style><style id="style11289">.st0{fill:#231f20}</style></svg>