<svg fill="none" height="371" stroke-linecap="square" stroke-miterlimit="10" width="787" xmlns="http://www.w3.org/2000/svg"><clipPath id="a"><path d="M131.55 54.917h636.9V300.45h-636.9z"/></clipPath><path d="M0 0h787v371H0z" fill="#fff"/><path d="M131.5 54.5v246" stroke="#333" stroke-linecap="butt"/><path d="M330.5 54.5v246M529.5 54.5v246M728.5 54.5v246" stroke="#ccc" stroke-linecap="butt"/><path d="M197.5 54.5v246M264.5 54.5v246M396.5 54.5v246M463.5 54.5v246M595.5 54.5v246M662.5 54.5v246"/><path clip-path="url(#a)" d="M132 159V91h611a2 2 0 012 2v64a2 2 0 01-2 2z"/><path clip-path="url(#a)" d="M132 159V91h611a2 2 0 012 2v64a2 2 0 01-2 2z" fill="#4285f4"/><path clip-path="url(#a)" d="M132 264v-68h573a2 2 0 012 2v64a2 2 0 01-2 2z"/><path clip-path="url(#a)" d="M132 264v-68h573a2 2 0 012 2v64a2 2 0 01-2 2z" fill="#4285f4"/><path d="M685.788 123.813h1.234q1.141-.016 1.797-.61.672-.594.672-1.594 0-2.25-2.25-2.25-1.047 0-1.687.61-.625.594-.625 1.594h-1.625q0-1.516 1.11-2.516 1.124-1.016 2.827-1.016 1.813 0 2.844.953 1.031.954 1.031 2.657 0 .843-.547 1.625-.53.78-1.468 1.171 1.046.329 1.625 1.11.578.766.578 1.89 0 1.72-1.125 2.735-1.125 1-2.938 1-1.797 0-2.922-.969-1.125-.984-1.125-2.578h1.641q0 1.016.656 1.625.656.594 1.766.594 1.172 0 1.797-.61.625-.609.625-1.765 0-1.125-.688-1.719-.687-.594-1.969-.61h-1.234zm15.672 1.734q0 2.844-.984 4.234-.97 1.39-3.047 1.39-2.047 0-3.031-1.359-.985-1.359-1.016-4.046v-2.172q0-2.828.969-4.188.984-1.375 3.062-1.375 2.063 0 3.031 1.328.985 1.313 1.016 4.079zm-1.625-2.234q0-2.063-.594-3-.578-.954-1.828-.954t-1.828.954q-.563.937-.578 2.874v2.61q0 2.078.594 3.062.609.985 1.828.985 1.203 0 1.781-.922.594-.938.625-2.938zm11.36-1.766q0 .953-.516 1.703-.5.75-1.36 1.172 1 .422 1.579 1.25.593.828.593 1.875 0 1.656-1.125 2.64-1.125.985-2.953.985-1.844 0-2.953-.985-1.11-.984-1.11-2.64 0-1.031.563-1.86.578-.843 1.578-1.28-.86-.423-1.36-1.173-.484-.75-.484-1.687 0-1.625 1.032-2.563 1.047-.953 2.734-.953 1.688 0 2.734.953 1.047.938 1.047 2.563zm-1.329 5.969q0-1.079-.687-1.75-.672-.688-1.781-.688-1.094 0-1.766.672-.656.672-.656 1.766 0 1.078.64 1.703.657.625 1.797.625 1.156 0 1.797-.625.656-.625.656-1.703zm-2.453-8.157q-.953 0-1.547.594-.593.594-.593 1.61 0 .984.578 1.593.593.594 1.562.594.985 0 1.563-.594.593-.61.593-1.578 0-.984-.609-1.594-.61-.625-1.547-.625zm6.219 10.782q0-.422.25-.703.25-.282.75-.282t.75.281q.266.282.266.704 0 .406-.266.687-.25.266-.75.266t-.75-.266q-.25-.281-.25-.687zm12.828-4.594q0 2.844-.984 4.234-.97 1.39-3.047 1.39-2.047 0-3.031-1.359-.985-1.359-1.016-4.046v-2.172q0-2.828.969-4.188.984-1.375 3.062-1.375 2.063 0 3.031 1.328.985 1.313 1.016 4.079zm-1.625-2.234q0-2.063-.594-3-.578-.954-1.828-.954t-1.828.954q-.563.937-.578 2.875v2.609q0 2.078.594 3.062.609.985 1.828.985 1.203 0 1.781-.922.594-.938.625-2.938zm11.625 2.234q0 2.844-.984 4.234-.97 1.39-3.047 1.39-2.047 0-3.031-1.359-.985-1.359-1.016-4.046v-2.172q0-2.828.969-4.188.984-1.375 3.062-1.375 2.063 0 3.031 1.328.985 1.313 1.016 4.079zm-1.625-2.234q0-2.063-.594-3-.578-.954-1.828-.954t-1.828.954q-.563.937-.578 2.875v2.609q0 2.078.594 3.062.609.985 1.828.985 1.203 0 1.781-.922.594-.938.625-2.938z" stroke="#4285f4" stroke-linecap="round" stroke-linejoin="round" stroke-width="3"/><path d="M685.788 123.813h1.234q1.141-.016 1.797-.61.672-.594.672-1.594 0-2.25-2.25-2.25-1.047 0-1.687.61-.625.594-.625 1.594h-1.625q0-1.516 1.11-2.516 1.124-1.016 2.827-1.016 1.813 0 2.844.953 1.031.954 1.031 2.657 0 .843-.547 1.625-.53.78-1.468 1.171 1.046.329 1.625 1.11.578.766.578 1.89 0 1.72-1.125 2.735-1.125 1-2.938 1-1.797 0-2.922-.969-1.125-.984-1.125-2.578h1.641q0 1.016.656 1.625.656.594 1.766.594 1.172 0 1.797-.61.625-.609.625-1.765 0-1.125-.688-1.719-.687-.594-1.969-.61h-1.234zm15.672 1.734q0 2.844-.984 4.234-.97 1.39-3.047 1.39-2.047 0-3.031-1.359-.985-1.359-1.016-4.046v-2.172q0-2.828.969-4.188.984-1.375 3.062-1.375 2.063 0 3.031 1.328.985 1.313 1.016 4.079zm-1.625-2.234q0-2.063-.594-3-.578-.954-1.828-.954t-1.828.954q-.563.937-.578 2.874v2.61q0 2.078.594 3.062.609.985 1.828.985 1.203 0 1.781-.922.594-.938.625-2.938zm11.36-1.766q0 .953-.516 1.703-.5.75-1.36 1.172 1 .422 1.579 1.25.593.828.593 1.875 0 1.656-1.125 2.64-1.125.985-2.953.985-1.844 0-2.953-.985-1.11-.984-1.11-2.64 0-1.031.563-1.86.578-.843 1.578-1.28-.86-.423-1.36-1.173-.484-.75-.484-1.687 0-1.625 1.032-2.563 1.047-.953 2.734-.953 1.688 0 2.734.953 1.047.938 1.047 2.563zm-1.329 5.969q0-1.079-.687-1.75-.672-.688-1.781-.688-1.094 0-1.766.672-.656.672-.656 1.766 0 1.078.64 1.703.657.625 1.797.625 1.156 0 1.797-.625.656-.625.656-1.703zm-2.453-8.157q-.953 0-1.547.594-.593.594-.593 1.61 0 .984.578 1.593.593.594 1.562.594.985 0 1.563-.594.593-.61.593-1.578 0-.984-.609-1.594-.61-.625-1.547-.625zm6.219 10.782q0-.422.25-.703.25-.282.75-.282t.75.281q.266.282.266.704 0 .406-.266.687-.25.266-.75.266t-.75-.266q-.25-.281-.25-.687zm12.828-4.594q0 2.844-.984 4.234-.97 1.39-3.047 1.39-2.047 0-3.031-1.359-.985-1.359-1.016-4.046v-2.172q0-2.828.969-4.188.984-1.375 3.062-1.375 2.063 0 3.031 1.328.985 1.313 1.016 4.079zm-1.625-2.234q0-2.063-.594-3-.578-.954-1.828-.954t-1.828.954q-.563.937-.578 2.875v2.609q0 2.078.594 3.062.609.985 1.828.985 1.203 0 1.781-.922.594-.938.625-2.938zm11.625 2.234q0 2.844-.984 4.234-.97 1.39-3.047 1.39-2.047 0-3.031-1.359-.985-1.359-1.016-4.046v-2.172q0-2.828.969-4.188.984-1.375 3.062-1.375 2.063 0 3.031 1.328.985 1.313 1.016 4.079zm-1.625-2.234q0-2.063-.594-3-.578-.954-1.828-.954t-1.828.954q-.563.937-.578 2.875v2.609q0 2.078.594 3.062.609.985 1.828.985 1.203 0 1.781-.922.594-.938.625-2.938z" fill="#fff"/><path d="M653.804 236h-8.39v-1.172l4.437-4.922q.985-1.11 1.344-1.812.375-.703.375-1.453 0-1-.61-1.641-.593-.64-1.609-.64-1.218 0-1.89.702-.672.688-.672 1.907h-1.625q0-1.766 1.14-2.844 1.141-1.094 3.047-1.094 1.782 0 2.813.938 1.047.937 1.047 2.484 0 1.89-2.407 4.5l-3.421 3.719h6.421zm9.375-9.453q0 .953-.515 1.703-.5.75-1.36 1.172 1 .422 1.579 1.25.593.828.593 1.875 0 1.656-1.125 2.64-1.125.985-2.953.985-1.844 0-2.953-.985-1.11-.984-1.11-2.64 0-1.031.563-1.86.578-.843 1.578-1.28-.86-.423-1.36-1.173-.484-.75-.484-1.687 0-1.625 1.032-2.563 1.047-.953 2.734-.953 1.688 0 2.734.953 1.047.938 1.047 2.563zm-1.328 5.969q0-1.079-.687-1.75-.672-.688-1.781-.688-1.094 0-1.766.672-.656.672-.656 1.766 0 1.078.64 1.703.657.625 1.797.625 1.156 0 1.797-.625.656-.625.656-1.703zm-2.453-8.157q-.953 0-1.547.594-.593.594-.593 1.61 0 .984.578 1.593.593.594 1.562.594.985 0 1.563-.594.593-.61.593-1.578 0-.984-.609-1.594-.61-.625-1.547-.625zm13.781 2.188q0 .953-.515 1.703-.5.75-1.36 1.172 1 .422 1.579 1.25.593.828.593 1.875 0 1.656-1.125 2.64-1.125.985-2.953.985-1.844 0-2.953-.985-1.11-.984-1.11-2.64 0-1.031.563-1.86.578-.843 1.578-1.28-.86-.423-1.36-1.173-.484-.75-.484-1.687 0-1.625 1.032-2.563 1.047-.953 2.734-.953 1.688 0 2.734.953 1.047.938 1.047 2.563zm-1.328 5.969q0-1.079-.687-1.75-.672-.688-1.781-.688-1.094 0-1.766.672-.656.672-.656 1.766 0 1.078.64 1.703.657.625 1.797.625 1.156 0 1.797-.625.656-.625.656-1.703zm-2.453-8.157q-.953 0-1.547.594-.593.594-.593 1.61 0 .984.578 1.593.593.594 1.562.594.985 0 1.563-.594.593-.61.593-1.578 0-.984-.609-1.594-.61-.625-1.547-.625zm6.219 10.782q0-.422.25-.704.25-.28.75-.28t.75.28q.266.282.266.704 0 .406-.266.687-.25.266-.75.266t-.75-.266q-.25-.281-.25-.687zm11.031-4.766q-.515.61-1.219.984-.703.36-1.546.36-1.11 0-1.938-.547-.813-.547-1.266-1.531-.453-.985-.453-2.188 0-1.281.485-2.312.5-1.032 1.39-1.563.89-.547 2.094-.547 1.89 0 2.984 1.422 1.11 1.406 1.11 3.86v.484q0 3.734-1.485 5.453-1.468 1.719-4.453 1.766h-.312v-1.375h.344q2-.032 3.078-1.047 1.093-1.016 1.187-3.219zm-2.5 0q.813 0 1.5-.5.688-.5 1-1.234v-.657q0-1.593-.687-2.593-.688-1.016-1.75-1.016-1.078 0-1.735.828-.64.828-.64 2.172 0 1.297.625 2.156.625.844 1.687.844zm14.297.172q0 2.844-.984 4.234-.97 1.39-3.047 1.39-2.047 0-3.031-1.359-.985-1.359-1.016-4.046v-2.172q0-2.828.969-4.188.984-1.375 3.062-1.375 2.063 0 3.031 1.328.985 1.313 1.016 4.078zm-1.625-2.235q0-2.062-.594-3-.578-.953-1.828-.953t-1.828.953q-.563.938-.578 2.875v2.61q0 2.078.594 3.062.609.985 1.828.985 1.203 0 1.781-.922.594-.938.625-2.938z" stroke="#4285f4" stroke-linecap="round" stroke-linejoin="round" stroke-width="3"/><path d="M653.804 236h-8.39v-1.172l4.437-4.922q.985-1.11 1.344-1.812.375-.703.375-1.453 0-1-.61-1.641-.593-.64-1.609-.64-1.218 0-1.89.702-.672.688-.672 1.907h-1.625q0-1.766 1.14-2.844 1.141-1.094 3.047-1.094 1.782 0 2.813.938 1.047.937 1.047 2.484 0 1.89-2.407 4.5l-3.421 3.719h6.421zm9.375-9.453q0 .953-.515 1.703-.5.75-1.36 1.172 1 .422 1.579 1.25.593.828.593 1.875 0 1.656-1.125 2.64-1.125.985-2.953.985-1.844 0-2.953-.985-1.11-.984-1.11-2.64 0-1.031.563-1.86.578-.843 1.578-1.28-.86-.423-1.36-1.173-.484-.75-.484-1.687 0-1.625 1.032-2.563 1.047-.953 2.734-.953 1.688 0 2.734.953 1.047.938 1.047 2.563zm-1.328 5.969q0-1.079-.687-1.75-.672-.688-1.781-.688-1.094 0-1.766.672-.656.672-.656 1.766 0 1.078.64 1.703.657.625 1.797.625 1.156 0 1.797-.625.656-.625.656-1.703zm-2.453-8.157q-.953 0-1.547.594-.593.594-.593 1.61 0 .984.578 1.593.593.594 1.562.594.985 0 1.563-.594.593-.61.593-1.578 0-.984-.609-1.594-.61-.625-1.547-.625zm13.781 2.188q0 .953-.515 1.703-.5.75-1.36 1.172 1 .422 1.579 1.25.593.828.593 1.875 0 1.656-1.125 2.64-1.125.985-2.953.985-1.844 0-2.953-.985-1.11-.984-1.11-2.64 0-1.031.563-1.86.578-.843 1.578-1.28-.86-.423-1.36-1.173-.484-.75-.484-1.687 0-1.625 1.032-2.563 1.047-.953 2.734-.953 1.688 0 2.734.953 1.047.938 1.047 2.563zm-1.328 5.969q0-1.079-.687-1.75-.672-.688-1.781-.688-1.094 0-1.766.672-.656.672-.656 1.766 0 1.078.64 1.703.657.625 1.797.625 1.156 0 1.797-.625.656-.625.656-1.703zm-2.453-8.157q-.953 0-1.547.594-.593.594-.593 1.61 0 .984.578 1.593.593.594 1.562.594.985 0 1.563-.594.593-.61.593-1.578 0-.984-.609-1.594-.61-.625-1.547-.625zm6.219 10.782q0-.422.25-.704.25-.28.75-.28t.75.28q.266.282.266.704 0 .406-.266.687-.25.266-.75.266t-.75-.266q-.25-.281-.25-.687zm11.031-4.766q-.515.61-1.219.984-.703.36-1.546.36-1.11 0-1.938-.547-.813-.547-1.266-1.531-.453-.985-.453-2.188 0-1.281.485-2.312.5-1.032 1.39-1.563.89-.547 2.094-.547 1.89 0 2.984 1.422 1.11 1.406 1.11 3.86v.484q0 3.734-1.485 5.453-1.468 1.719-4.453 1.766h-.312v-1.375h.344q2-.032 3.078-1.047 1.093-1.016 1.187-3.219zm-2.5 0q.813 0 1.5-.5.688-.5 1-1.234v-.657q0-1.593-.687-2.593-.688-1.016-1.75-1.016-1.078 0-1.735.828-.64.828-.64 2.172 0 1.297.625 2.156.625.844 1.687.844zm14.297.172q0 2.844-.984 4.234-.97 1.39-3.047 1.39-2.047 0-3.031-1.359-.985-1.359-1.016-4.046v-2.172q0-2.828.969-4.188.984-1.375 3.062-1.375 2.063 0 3.031 1.328.985 1.313 1.016 4.078zm-1.625-2.235q0-2.062-.594-3-.578-.953-1.828-.953t-1.828.953q-.563.938-.578 2.875v2.61q0 2.078.594 3.062.609.985 1.828.985 1.203 0 1.781-.922.594-.938.625-2.938z" fill="#fff"/><g fill="#000"><path d="M358.047 346.684l1.062-.093q.079.656.36 1.062.281.406.86.672.593.25 1.327.25.64 0 1.14-.188.5-.203.735-.53.25-.345.25-.735 0-.406-.234-.703-.235-.313-.766-.516-.36-.14-1.547-.422-1.171-.281-1.64-.531-.625-.328-.922-.797-.297-.484-.297-1.078 0-.64.36-1.203.374-.578 1.077-.86.72-.296 1.579-.296.953 0 1.687.312.735.297 1.125.906.39.594.422 1.344l-1.094.078q-.094-.812-.61-1.218-.5-.422-1.484-.422-1.03 0-1.5.375-.468.375-.468.906 0 .469.328.766.328.296 1.703.609 1.39.312 1.906.547.75.36 1.11.89.359.516.359 1.22 0 .687-.39 1.296-.391.594-1.126.938-.734.328-1.656.328-1.172 0-1.969-.328-.78-.344-1.234-1.032-.438-.687-.453-1.547zm12.5.766l1.094.125q-.25.953-.954 1.484-.703.532-1.78.532-1.36 0-2.173-.844-.796-.844-.796-2.36 0-1.562.812-2.421.813-.875 2.094-.875 1.25 0 2.031.843.797.844.797 2.391v.281h-4.64q.062 1.031.577 1.578.516.532 1.297.532.578 0 .985-.297.421-.313.656-.969zm-3.453-1.703h3.469q-.063-.797-.391-1.188-.516-.609-1.313-.609-.734 0-1.234.484-.484.485-.531 1.313zm10.265 1.422l1.032.14q-.172 1.063-.875 1.672-.704.61-1.72.61-1.28 0-2.062-.829-.765-.843-.765-2.406 0-1 .328-1.75.344-.765 1.015-1.14.688-.375 1.5-.375 1 0 1.641.515.656.5.844 1.453l-1.031.157q-.141-.625-.516-.938-.375-.328-.906-.328-.797 0-1.297.578-.5.563-.5 1.797 0 1.266.484 1.828.485.563 1.25.563.625 0 1.031-.375.422-.375.547-1.172zm1.547-.828q0-1.735.953-2.563.797-.687 1.954-.687 1.28 0 2.093.843.828.828.828 2.313 0 1.203-.359 1.89-.36.688-1.063 1.079-.687.375-1.5.375-1.296 0-2.109-.829-.797-.843-.797-2.421zm1.078 0q0 1.187.516 1.78.531.595 1.313.595.796 0 1.312-.594t.516-1.813q0-1.156-.532-1.75-.515-.593-1.296-.593-.782 0-1.313.593-.516.578-.516 1.782zm6.313 3.109v-6.219h.937v.875q.688-1.015 1.985-1.015.562 0 1.031.203.484.203.719.531.234.328.328.766.047.296.047 1.03v3.829h-1.047v-3.781q0-.657-.125-.969-.125-.313-.438-.5-.312-.203-.734-.203-.672 0-1.172.437-.484.422-.484 1.61v3.406zm11.031 0v-.781q-.594.922-1.734.922-.75 0-1.375-.407-.625-.422-.969-1.156t-.344-1.687q0-.922.313-1.688.312-.766.937-1.156.625-.406 1.39-.406.563 0 1 .234.438.234.72.61v-3.079h1.046v8.594zM394 346.34q0 1.204.5 1.797.5.579 1.188.579.687 0 1.171-.563.485-.562.485-1.719 0-1.28-.5-1.875-.485-.593-1.203-.593-.704 0-1.172.578-.469.562-.469 1.797zm5.875 1.25l1.031-.156q.094.625.485.953.406.329 1.14.329.719 0 1.063-.282.36-.297.36-.703 0-.36-.313-.562-.22-.14-1.079-.36-1.156-.297-1.609-.5-.437-.218-.672-.593-.234-.375-.234-.844 0-.406.187-.766.188-.36.516-.594.25-.171.672-.296.422-.125.922-.125.719 0 1.265.218.563.203.829.563.265.36.359.953l-1.031.14q-.063-.468-.407-.734-.328-.281-.953-.281-.719 0-1.031.25-.313.234-.313.563 0 .203.125.359.141.172.407.281.156.063.937.266 1.125.312 1.563.5.437.187.687.547.25.359.25.906 0 .531-.312 1-.297.453-.875.719-.578.25-1.313.25-1.219 0-1.86-.5-.624-.516-.796-1.5zm11.438 4.391q-.875-1.11-1.485-2.578-.594-1.484-.594-3.062 0-1.391.438-2.672.531-1.485 1.64-2.953h.75q-.703 1.218-.937 1.734-.36.812-.563 1.687-.25 1.094-.25 2.204 0 2.828 1.75 5.64zm6.046-3.297q-.593.5-1.14.703-.531.204-1.156.204-1.032 0-1.579-.5-.546-.5-.546-1.282 0-.453.203-.828.203-.39.546-.61.344-.233.766-.343.297-.094.938-.172 1.265-.14 1.875-.36v-.265q0-.656-.297-.922-.406-.343-1.203-.343-.735 0-1.094.265-.36.25-.531.907l-1.032-.141q.141-.656.47-1.063.327-.406.937-.625.609-.218 1.406-.218.797 0 1.297.187.5.188.734.469.235.281.328.719.047.265.047.968v1.407q0 1.468.063 1.859.078.39.28.75h-1.109q-.156-.328-.203-.766zm-.093-2.359q-.579.234-1.72.406-.655.094-.921.219-.266.11-.422.328-.14.219-.14.5 0 .422.312.703.328.282.938.282.609 0 1.078-.266.484-.266.703-.734.172-.36.172-1.047zm4.75 3.125l-2.36-6.219h1.11l1.343 3.719q.204.61.391 1.25.14-.484.39-1.172l1.391-3.797h1.078L423 349.45zm8.53-2l1.095.125q-.25.953-.954 1.484-.703.532-1.78.532-1.36 0-2.173-.844-.796-.844-.796-2.36 0-1.562.812-2.421.813-.875 2.094-.875 1.25 0 2.031.843.797.844.797 2.391v.281h-4.64q.062 1.031.577 1.578.516.532 1.297.532.578 0 .985-.297.421-.313.656-.969zm-3.452-1.703h3.469q-.063-.797-.391-1.188-.516-.609-1.313-.609-.734 0-1.234.484-.484.485-.531 1.313zm6.187 3.703v-6.219h.953v.938q.36-.657.657-.86.312-.218.687-.218.531 0 1.078.328l-.36.984q-.39-.234-.765-.234-.36 0-.64.219-.266.203-.375.578-.188.562-.188 1.218v3.266zm8.078-.766q-.593.5-1.14.703-.531.204-1.156.204-1.032 0-1.579-.5-.546-.5-.546-1.282 0-.453.203-.828.203-.39.546-.61.344-.233.766-.343.297-.094.938-.172 1.265-.14 1.875-.36v-.265q0-.656-.297-.922-.406-.343-1.203-.343-.735 0-1.094.265-.36.25-.531.907l-1.032-.141q.141-.656.47-1.063.327-.406.937-.625.609-.218 1.406-.218.797 0 1.297.187.5.188.734.469.235.281.328.719.047.265.047.968v1.407q0 1.468.063 1.859.078.39.28.75h-1.109q-.156-.328-.203-.766zm-.093-2.359q-.579.234-1.72.406-.655.094-.921.219-.266.11-.422.328-.14.219-.14.5 0 .422.312.703.328.282.938.282.609 0 1.078-.266.484-.266.703-.734.172-.36.172-1.047zm2.828 3.64l1.031.157q.063.469.36.687.39.297 1.062.297.734 0 1.125-.297.406-.297.547-.812.094-.328.078-1.36-.688.813-1.719.813-1.281 0-1.984-.922-.703-.937-.703-2.219 0-.89.312-1.64.328-.766.938-1.172.609-.406 1.437-.406 1.11 0 1.828.89v-.75h.969v5.375q0 1.453-.297 2.063-.297.61-.937.953-.641.36-1.579.36-1.109 0-1.796-.5-.688-.5-.672-1.516zm.875-3.734q0 1.219.484 1.782.485.562 1.219.562.734 0 1.219-.562.5-.563.5-1.75 0-1.141-.516-1.72-.5-.577-1.219-.577-.703 0-1.203.578-.484.562-.484 1.687zm10.578 1.219l1.094.125q-.25.953-.954 1.484-.703.532-1.78.532-1.36 0-2.173-.844-.796-.844-.796-2.36 0-1.562.812-2.421.813-.875 2.094-.875 1.25 0 2.031.843.797.844.797 2.391v.281h-4.64q.062 1.032.577 1.578.516.532 1.297.532.578 0 .985-.297.421-.313.656-.969zm-3.453-1.703h3.469q-.063-.797-.391-1.188-.516-.609-1.313-.609-.734 0-1.234.484-.484.485-.531 1.313zm8.812.594q0-1.735.953-2.563.797-.687 1.954-.687 1.28 0 2.093.843.828.829.828 2.313 0 1.203-.359 1.89-.36.688-1.063 1.079-.687.375-1.5.375-1.296 0-2.109-.828-.797-.844-.797-2.422zm1.078 0q0 1.187.516 1.78.531.595 1.313.595.796 0 1.312-.594t.516-1.813q0-1.156-.532-1.75-.515-.593-1.296-.593-.782 0-1.313.593-.516.579-.516 1.782zm6.563 3.109v-5.406h-.938v-.813h.938v-.672q0-.625.11-.921.156-.422.53-.672.391-.25 1.079-.25.453 0 .984.109l-.156.906q-.328-.047-.625-.047-.485 0-.688.204-.187.203-.187.765v.578h1.219v.813h-1.22v5.406zm8.047-.937l.156.921q-.453.094-.797.094-.578 0-.89-.172-.313-.187-.454-.484-.125-.297-.125-1.25v-3.578h-.765v-.813h.765v-1.547l1.047-.625v2.172h1.063v.813h-1.063v3.64q0 .454.047.579.063.125.188.203.125.078.359.078.188 0 .469-.031zm1.844.937l-1.907-6.219h1.094l.984 3.594.375 1.328q.032-.094.329-1.281l.984-3.64h1.078l.938 3.609.312 1.187.36-1.203 1.062-3.594h1.031l-1.953 6.219h-1.094l-.984-3.734-.25-1.047-1.25 4.781zm7.468-3.11q0-1.734.953-2.562.797-.687 1.954-.687 1.28 0 2.093.843.828.829.828 2.313 0 1.203-.359 1.89-.36.688-1.063 1.079-.687.375-1.5.375-1.296 0-2.109-.828-.797-.844-.797-2.422zm1.078 0q0 1.188.516 1.782.531.594 1.313.594.796 0 1.312-.594t.516-1.813q0-1.156-.532-1.75-.515-.593-1.296-.593-.782 0-1.313.593-.516.579-.516 1.782zm9.563 3.11v-5.406h-.938v-.813h.938v-.672q0-.625.11-.921.156-.422.53-.672.391-.25 1.079-.25.453 0 .984.109l-.156.906q-.328-.047-.625-.047-.485 0-.688.204-.187.203-.187.765v.578h1.219v.813h-1.22v5.406zm6.828 0v-.922q-.734 1.063-1.984 1.063-.547 0-1.032-.203-.468-.22-.703-.532-.234-.328-.328-.797-.062-.296-.062-.984v-3.844h1.062v3.453q0 .813.063 1.11.093.406.406.656.328.234.812.234.47 0 .875-.234.422-.25.594-.672.188-.422.188-1.219v-3.328h1.046v6.219zm2.89 0v-8.594h1.063v8.594zm3 0v-8.594h1.063v8.594zm6.016 0v-6.219h.953v.938q.36-.656.657-.86.312-.218.687-.218.531 0 1.078.328l-.36.984q-.39-.234-.765-.234-.36 0-.64.219-.266.203-.375.578-.188.562-.188 1.218v3.266zm8.094 0v-.922q-.734 1.063-1.984 1.063-.547 0-1.032-.203-.468-.22-.703-.532-.234-.328-.328-.797-.062-.296-.062-.984v-3.844h1.062v3.453q0 .813.063 1.11.093.406.406.656.328.234.812.234.47 0 .875-.234.422-.25.594-.672.188-.422.188-1.219v-3.328h1.046v6.219zm2.922 0v-6.219h.937v.875q.688-1.015 1.985-1.015.562 0 1.031.203.484.203.719.531.234.328.328.766.047.297.047 1.03v3.829h-1.047v-3.781q0-.656-.125-.969-.125-.312-.438-.5-.312-.203-.734-.203-.672 0-1.172.437-.484.422-.484 1.61v3.406zm6.578-1.86l1.031-.156q.094.625.485.954.406.328 1.14.328.719 0 1.063-.282.36-.296.36-.703 0-.36-.313-.562-.22-.14-1.079-.36-1.156-.296-1.609-.5-.437-.218-.672-.593-.234-.375-.234-.844 0-.406.187-.766.188-.36.516-.593.25-.172.672-.297.422-.125.922-.125.718 0 1.265.218.563.204.829.563.265.36.359.953l-1.031.14q-.063-.468-.407-.734-.328-.281-.953-.281-.718 0-1.031.25-.313.234-.313.563 0 .203.125.359.141.172.407.281.156.063.937.266 1.125.312 1.563.5.437.187.687.547.25.359.25.906 0 .531-.312 1-.297.453-.875.719-.578.25-1.313.25-1.218 0-1.86-.5-.624-.516-.796-1.5zm7.11 4.391h-.75q1.75-2.812 1.75-5.64 0-1.094-.25-2.188-.204-.875-.563-1.687-.234-.516-.938-1.75h.75q1.094 1.468 1.625 2.953.454 1.281.454 2.672 0 1.578-.61 3.062-.61 1.469-1.469 2.578zM30.894 127.005l1.031-.14q.031.983.36 1.343.328.36.921.36.422 0 .735-.188.312-.203.421-.532.125-.343.125-1.078v-5.922h1.125v5.86q0 1.078-.265 1.672-.25.593-.813.906-.562.297-1.328.297-1.125 0-1.734-.64-.594-.657-.578-1.938zm6.203-.328l1.062-.094q.079.656.36 1.062.281.407.86.672.593.25 1.327.25.64 0 1.14-.187.5-.203.735-.532.25-.343.25-.734 0-.406-.234-.703-.235-.313-.766-.516-.36-.14-1.547-.422-1.171-.28-1.64-.53-.625-.329-.922-.798-.297-.484-.297-1.078 0-.64.36-1.203.374-.578 1.078-.86.718-.296 1.578-.296.953 0 1.687.312.734.297 1.125.907.39.593.422 1.343l-1.094.078q-.094-.812-.61-1.218-.5-.422-1.483-.422-1.032 0-1.5.375-.47.375-.47.906 0 .469.329.766.328.297 1.703.61 1.39.312 1.906.546.75.36 1.11.89.359.516.359 1.22 0 .687-.39 1.296-.391.594-1.126.938-.734.328-1.656.328-1.172 0-1.969-.328-.78-.344-1.234-1.032-.438-.687-.453-1.546zm11.375 2.765v-8.594h2.969q1 0 1.53.125.735.172 1.25.61.688.578 1.017 1.484.343.89.343 2.031 0 .985-.234 1.735-.219.75-.578 1.25-.36.5-.797.781-.422.281-1.016.438-.594.14-1.375.14zm1.14-1.015h1.829q.859 0 1.343-.157.485-.156.766-.453.406-.39.625-1.078.234-.687.234-1.656 0-1.344-.453-2.063-.437-.734-1.062-.984-.469-.172-1.469-.172h-1.813zm7.516-3.172q0-2.14 1.14-3.344 1.157-1.219 2.97-1.219 1.203 0 2.156.578.953.563 1.453 1.578.5 1.016.5 2.313 0 1.297-.531 2.328-.532 1.031-1.5 1.563-.954.53-2.079.53-1.218 0-2.171-.577-.954-.594-1.454-1.594-.484-1.016-.484-2.156zm1.172.015q0 1.563.828 2.453.844.891 2.11.891 1.28 0 2.109-.89.828-.907.828-2.579 0-1.047-.36-1.828-.343-.781-1.03-1.203-.688-.437-1.532-.437-1.203 0-2.078.828-.875.828-.875 2.765zm8.14 4.172v-8.594h1.72l2.03 6.079q.282.859.407 1.28.14-.468.453-1.374l2.063-5.985h1.53v8.594H73.55v-7.187l-2.5 7.187h-1.031l-2.485-7.312v7.312zm15.204-.937l.156.922q-.453.093-.797.093-.578 0-.89-.172-.313-.187-.454-.484-.125-.297-.125-1.25v-3.578h-.765v-.813h.765v-1.546l1.047-.625v2.171h1.063v.813H80.58v3.64q0 .454.047.579.063.125.188.203.125.078.359.078.188 0 .469-.031zm.687.937v-6.219h.953v.938q.36-.656.657-.86.312-.218.687-.218.531 0 1.078.328l-.36.984q-.39-.234-.765-.234-.36 0-.64.219-.266.203-.375.578-.188.562-.188 1.219v3.265zm8.078-.765q-.593.5-1.14.703-.532.203-1.157.203-1.03 0-1.578-.5-.547-.5-.547-1.281 0-.454.204-.829.203-.39.546-.609.344-.234.766-.344.297-.093.938-.172 1.265-.14 1.875-.359v-.266q0-.656-.297-.921-.407-.344-1.203-.344-.735 0-1.094.265-.36.25-.531.907l-1.032-.14q.141-.657.47-1.063.327-.407.937-.625.609-.22 1.406-.22.797 0 1.297.188.5.188.734.47.234.28.328.718.047.265.047.969v1.406q0 1.469.063 1.86.078.39.28.75h-1.109q-.156-.329-.203-.766zm-.093-2.36q-.579.235-1.72.406-.655.094-.921.22-.266.109-.422.327-.14.22-.14.5 0 .422.312.703.328.282.938.282.609 0 1.078-.266.484-.266.703-.734.172-.36.172-1.047zm4.75 3.125l-2.36-6.219h1.11l1.343 3.72q.203.609.391 1.25.14-.485.39-1.173l1.391-3.797h1.078l-2.359 6.22zm8.53-2l1.095.125q-.25.953-.954 1.485-.703.53-1.78.53-1.36 0-2.173-.843-.797-.844-.797-2.36 0-1.562.813-2.421.813-.875 2.094-.875 1.25 0 2.031.844.797.843.797 2.39v.281h-4.64q.062 1.032.577 1.579.516.53 1.297.53.578 0 .985-.296.421-.313.656-.969zm-3.452-1.703h3.468q-.062-.797-.39-1.187-.516-.61-1.313-.61-.734 0-1.234.485-.484.484-.531 1.312zm6.187 3.703v-6.219h.953v.938q.36-.656.657-.86.312-.218.687-.218.531 0 1.078.328l-.36.984q-.39-.234-.765-.234-.36 0-.64.219-.266.203-.375.578-.188.562-.188 1.219v3.265zm3.594-1.86l1.031-.155q.094.625.485.953.406.328 1.14.328.719 0 1.063-.281.36-.297.36-.704 0-.359-.313-.562-.22-.14-1.079-.36-1.156-.296-1.609-.5-.437-.218-.672-.593-.234-.375-.234-.844 0-.406.187-.766.188-.359.516-.593.25-.172.672-.297.422-.125.922-.125.718 0 1.265.219.563.203.828.562.266.36.36.953l-1.031.14q-.063-.468-.407-.734-.328-.28-.953-.28-.719 0-1.031.25-.313.234-.313.562 0 .203.126.36.14.171.406.28.156.063.937.266 1.125.312 1.563.5.437.187.687.547.25.36.25.906 0 .531-.312 1-.297.453-.875.719-.578.25-1.313.25-1.219 0-1.86-.5-.624-.516-.796-1.5zm10.484 1.095q-.593.5-1.14.703-.532.203-1.157.203-1.03 0-1.578-.5-.547-.5-.547-1.281 0-.454.204-.829.203-.39.546-.609.344-.234.766-.344.297-.093.938-.172 1.265-.14 1.875-.359v-.266q0-.656-.297-.921-.407-.344-1.203-.344-.735 0-1.094.265-.36.25-.531.907l-1.032-.14q.141-.657.47-1.063.327-.407.937-.625.609-.22 1.406-.22.797 0 1.297.188.5.188.734.47.234.28.328.718.047.265.047.969v1.406q0 1.469.063 1.86.078.39.28.75h-1.109q-.156-.329-.203-.766zm-.093-2.36q-.579.235-1.72.406-.655.094-.921.22-.266.109-.422.327-.14.22-.14.5 0 .422.312.703.328.282.938.282.609 0 1.078-.266.484-.266.703-.734.172-.36.172-1.047zm3 3.125v-8.594h1.062v8.594zM25.613 230.909l1.125.297q-.36 1.39-1.282 2.125-.922.734-2.265.734-1.391 0-2.266-.562-.875-.563-1.328-1.625-.453-1.079-.453-2.313 0-1.344.515-2.344.516-1 1.454-1.515.953-.516 2.093-.516 1.282 0 2.157.656.89.657 1.234 1.844l-1.125.266q-.297-.938-.875-1.36-.563-.437-1.422-.437-.984 0-1.656.484-.656.469-.938 1.266-.265.797-.265 1.656 0 1.094.312 1.906.328.813 1 1.22.672.405 1.469.405.953 0 1.61-.547.671-.546.905-1.64zm2.859 3.015v-8.593h2.969q1 0 1.53.125.735.172 1.25.61.688.577 1.017 1.483.343.891.343 2.032 0 .984-.234 1.734-.219.75-.578 1.25-.36.5-.797.781-.422.282-1.016.438-.594.14-1.375.14zm1.14-1.015h1.829q.859 0 1.343-.156.485-.157.766-.454.406-.39.625-1.078.234-.687.234-1.656 0-1.344-.453-2.062-.437-.735-1.062-.985-.469-.172-1.469-.172h-1.813zm7.86 1.015v-8.593h3.25q.844 0 1.297.078.64.11 1.062.406.438.297.688.828.265.531.265 1.172 0 1.094-.703 1.86-.687.75-2.515.75h-2.204v3.5zm1.14-4.5h2.22q1.109 0 1.562-.406.468-.422.468-1.172 0-.53-.28-.906-.266-.39-.704-.516-.297-.078-1.062-.078h-2.204zm9.86 4.5v-8.593h2.969q1 0 1.53.125.735.172 1.25.61.688.577 1.017 1.483.343.891.343 2.032 0 .984-.234 1.734-.219.75-.578 1.25-.36.5-.797.781-.422.282-1.016.438-.594.14-1.375.14zm1.14-1.015h1.829q.859 0 1.343-.156.485-.157.766-.454.406-.39.625-1.078.234-.687.234-1.656 0-1.344-.453-2.062-.437-.735-1.062-.985-.469-.172-1.469-.172h-1.813zm7.516-3.172q0-2.14 1.14-3.344 1.157-1.219 2.97-1.219 1.203 0 2.156.579.953.562 1.453 1.578.5 1.015.5 2.312t-.531 2.328q-.532 1.032-1.5 1.563-.954.531-2.079.531-1.218 0-2.171-.578-.954-.594-1.454-1.594-.484-1.015-.484-2.156zm1.172.016q0 1.562.828 2.453.844.89 2.11.89 1.28 0 2.109-.89.828-.907.828-2.578 0-1.047-.36-1.829-.343-.78-1.03-1.203-.688-.437-1.532-.437-1.203 0-2.078.828-.875.828-.875 2.766zm8.14 4.171v-8.593h1.72l2.03 6.078q.282.86.407 1.281.14-.469.453-1.375l2.063-5.984h1.53v8.593H73.55v-7.187l-2.5 7.187h-1.031l-2.485-7.312v7.312zm15.204-.937l.156.922q-.453.094-.797.094-.578 0-.89-.172-.313-.188-.454-.485-.125-.297-.125-1.25v-3.578h-.765v-.812h.765v-1.547l1.047-.625v2.172h1.063v.812H80.58v3.64q0 .454.047.579.063.125.188.203.125.078.359.078.188 0 .469-.031zm.687.937v-6.218h.953v.937q.36-.656.657-.86.312-.218.687-.218.531 0 1.078.328l-.36.985q-.39-.235-.765-.235-.36 0-.64.219-.266.203-.375.578-.188.563-.188 1.219v3.265zm8.078-.765q-.593.5-1.14.703-.532.203-1.157.203-1.03 0-1.578-.5-.547-.5-.547-1.281 0-.453.204-.828.203-.39.546-.61.344-.234.766-.343.297-.094.938-.172 1.265-.14 1.875-.36v-.265q0-.657-.297-.922-.407-.344-1.203-.344-.735 0-1.094.266-.36.25-.531.906l-1.032-.14q.141-.657.47-1.063.327-.406.937-.625.609-.219 1.406-.219.797 0 1.297.188.5.187.734.468.234.282.328.72.047.265.047.968v1.406q0 1.469.063 1.86.078.39.28.75h-1.109q-.156-.329-.203-.766zm-.093-2.36q-.579.235-1.72.407-.655.093-.921.218-.266.11-.422.329-.14.218-.14.5 0 .421.312.703.328.281.938.281.609 0 1.078-.266.484-.265.703-.734.172-.36.172-1.047zm4.75 3.125l-2.36-6.218h1.11l1.343 3.718q.203.61.391 1.25.14-.484.39-1.171l1.391-3.797h1.078l-2.359 6.218zm8.53-2l1.095.125q-.25.954-.954 1.485-.703.531-1.78.531-1.36 0-2.173-.844-.797-.843-.797-2.359 0-1.563.813-2.422.813-.875 2.094-.875 1.25 0 2.031.844.797.844.797 2.39v.282h-4.64q.062 1.031.577 1.578.516.531 1.297.531.578 0 .985-.297.421-.312.656-.969zm-3.452-1.703h3.468q-.062-.797-.39-1.187-.516-.61-1.313-.61-.734 0-1.234.485-.484.484-.531 1.312zm6.187 3.703v-6.218h.953v.937q.36-.656.657-.86.312-.218.687-.218.531 0 1.078.328l-.36.985q-.39-.235-.765-.235-.36 0-.64.219-.266.203-.375.578-.188.563-.188 1.219v3.265zm3.594-1.859l1.031-.156q.094.625.485.953.406.328 1.14.328.719 0 1.063-.281.36-.297.36-.703 0-.36-.313-.563-.22-.14-1.079-.36-1.156-.296-1.609-.5-.437-.218-.672-.593-.234-.375-.234-.844 0-.406.187-.765.188-.36.516-.594.25-.172.672-.297.422-.125.922-.125.718 0 1.265.219.563.203.828.562.266.36.36.953l-1.031.141q-.063-.469-.407-.734-.328-.282-.953-.282-.719 0-1.031.25-.313.235-.313.563 0 .203.126.36.14.171.406.28.156.063.937.266 1.125.313 1.563.5.437.188.687.547.25.36.25.906 0 .532-.312 1-.297.453-.875.72-.578.25-1.313.25-1.219 0-1.86-.5-.624-.517-.796-1.5zm10.484 1.094q-.593.5-1.14.703-.532.203-1.157.203-1.03 0-1.578-.5-.547-.5-.547-1.281 0-.453.204-.828.203-.39.546-.61.344-.234.766-.343.297-.094.938-.172 1.265-.14 1.875-.36v-.265q0-.657-.297-.922-.407-.344-1.203-.344-.735 0-1.094.266-.36.25-.531.906l-1.032-.14q.141-.657.47-1.063.327-.406.937-.625.609-.219 1.406-.219.797 0 1.297.188.5.187.734.468.234.282.328.72.047.265.047.968v1.406q0 1.469.063 1.86.078.39.28.75h-1.109q-.156-.329-.203-.766zm-.093-2.36q-.579.235-1.72.407-.655.093-.921.218-.266.11-.422.329-.14.218-.14.5 0 .421.312.703.328.281.938.281.609 0 1.078-.266.484-.265.703-.734.172-.36.172-1.047zm3 3.125v-8.593h1.062v8.593zM120.05 313.216q0-1.532.313-2.454.312-.937.921-1.437.625-.5 1.563-.5.687 0 1.203.281.531.281.875.813.344.515.531 1.265.188.75.188 2.032 0 1.515-.313 2.437-.297.922-.922 1.438-.609.5-1.562.5-1.234 0-1.953-.891-.844-1.063-.844-3.484zm1.078 0q0 2.109.5 2.812.5.703 1.219.703.734 0 1.219-.703.5-.703.5-2.812 0-2.125-.5-2.813-.485-.703-1.235-.703-.719 0-1.156.61-.547.78-.547 2.906zm6.516 4.234v-1.203h1.203v1.203zm2.406-4.234q0-1.532.313-2.454.312-.937.921-1.437.625-.5 1.563-.5.687 0 1.203.281.531.281.875.813.344.515.531 1.265.188.75.188 2.032 0 1.515-.313 2.437-.297.922-.922 1.438-.609.5-1.562.5-1.235 0-1.953-.891-.844-1.063-.844-3.484zm1.078 0q0 2.109.5 2.812.5.703 1.219.703.734 0 1.219-.703.5-.703.5-2.812 0-2.125-.5-2.813-.485-.703-1.235-.703-.718 0-1.156.61-.547.78-.547 2.906zm5.922 0q0-1.532.313-2.454.312-.937.921-1.437.625-.5 1.563-.5.687 0 1.203.281.531.281.875.813.344.515.531 1.265.188.75.188 2.032 0 1.515-.313 2.437-.297.922-.922 1.438-.609.5-1.562.5-1.235 0-1.953-.891-.844-1.063-.844-3.484zm1.078 0q0 2.109.5 2.812.5.703 1.219.703.734 0 1.219-.703.5-.703.5-2.812 0-2.125-.5-2.813-.485-.703-1.235-.703-.718 0-1.156.61-.547.78-.547 2.906zM316.05 317.45h-1.047v-6.719q-.39.36-1.015.735-.61.359-1.094.53v-1.015q.875-.422 1.531-1 .672-.594.953-1.156h.672zm3.031-4.234q0-1.532.313-2.454.312-.937.922-1.437.625-.5 1.562-.5.688 0 1.203.281.532.281.875.813.344.515.532 1.265.187.75.187 2.032 0 1.515-.313 2.437-.296.922-.921 1.438-.61.5-1.563.5-1.234 0-1.953-.891-.844-1.063-.844-3.484zm1.078 0q0 2.109.5 2.812.5.703 1.22.703.734 0 1.218-.703.5-.703.5-2.812 0-2.125-.5-2.813-.484-.703-1.234-.703-.72 0-1.157.61-.547.78-.547 2.906zm5.922 0q0-1.532.313-2.454.312-.937.922-1.437.625-.5 1.562-.5.688 0 1.203.281.532.281.875.813.344.515.532 1.265.187.75.187 2.032 0 1.515-.313 2.437-.296.922-.921 1.438-.61.5-1.563.5-1.234 0-1.953-.891-.844-1.063-.844-3.484zm1.078 0q0 2.109.5 2.812.5.703 1.22.703.734 0 1.218-.703.5-.703.5-2.812 0-2.125-.5-2.813-.484-.703-1.234-.703-.72 0-1.157.61-.547.78-.547 2.906zm6.516 4.234v-1.203h1.203v1.203zm2.406-4.234q0-1.532.313-2.454.312-.937.922-1.437.625-.5 1.562-.5.688 0 1.203.281.532.281.875.813.344.515.532 1.265.187.75.187 2.032 0 1.515-.312 2.437-.297.922-.922 1.438-.61.5-1.563.5-1.234 0-1.953-.891-.844-1.063-.844-3.484zm1.078 0q0 2.109.5 2.812.5.703 1.22.703.734 0 1.218-.703.5-.703.5-2.812 0-2.125-.5-2.813-.484-.703-1.234-.703-.72 0-1.157.61-.547.78-.547 2.906zm5.922 0q0-1.532.313-2.454.312-.937.922-1.437.625-.5 1.562-.5.688 0 1.203.281.532.281.875.813.344.515.532 1.265.187.75.187 2.032 0 1.515-.312 2.437-.297.922-.922 1.438-.61.5-1.563.5-1.234 0-1.953-.891-.844-1.063-.844-3.484zm1.078 0q0 2.109.5 2.812.5.703 1.22.703.734 0 1.218-.703.5-.703.5-2.812 0-2.125-.5-2.813-.484-.703-1.234-.703-.72 0-1.157.61-.547.78-.547 2.906zM516.66 316.434v1.016h-5.688q0-.375.125-.734.219-.579.687-1.141.485-.563 1.391-1.297 1.406-1.156 1.89-1.828.5-.672.5-1.266 0-.625-.453-1.047-.453-.437-1.171-.437-.766 0-1.22.453-.452.453-.468 1.266l-1.078-.11q.11-1.218.828-1.843.734-.641 1.969-.641 1.234 0 1.953.688.719.687.719 1.703 0 .515-.219 1.015-.203.485-.703 1.047-.485.547-1.61 1.5-.953.797-1.234 1.094-.266.281-.437.562zm1.453-3.218q0-1.532.312-2.454.313-.937.922-1.437.625-.5 1.562-.5.688 0 1.204.281.53.281.874.813.344.515.532 1.265.187.75.187 2.032 0 1.515-.312 2.437-.297.922-.922 1.438-.61.5-1.563.5-1.234 0-1.953-.891-.844-1.063-.844-3.484zm1.078 0q0 2.109.5 2.812.5.703 1.218.703.735 0 1.22-.703.5-.703.5-2.812 0-2.125-.5-2.813-.485-.703-1.235-.703-.719 0-1.157.61-.546.78-.546 2.906zm5.921 0q0-1.532.313-2.454.313-.937.922-1.437.625-.5 1.562-.5.688 0 1.204.281.53.281.874.813.344.515.532 1.265.187.75.187 2.032 0 1.515-.312 2.437-.297.922-.922 1.438-.61.5-1.563.5-1.234 0-1.953-.891-.844-1.063-.844-3.484zm1.079 0q0 2.109.5 2.812.5.703 1.218.703.735 0 1.22-.703.5-.703.5-2.812 0-2.125-.5-2.813-.485-.703-1.235-.703-.719 0-1.157.61-.546.78-.546 2.906zm6.515 4.234v-1.203h1.203v1.203zm2.406-4.234q0-1.532.313-2.454.312-.937.922-1.437.625-.5 1.562-.5.688 0 1.203.281.532.281.875.813.344.515.532 1.265.187.75.187 2.032 0 1.515-.312 2.437-.297.922-.922 1.438-.61.5-1.563.5-1.234 0-1.953-.891-.844-1.063-.844-3.484zm1.079 0q0 2.109.5 2.812.5.703 1.218.703.735 0 1.22-.703.5-.703.5-2.812 0-2.125-.5-2.813-.485-.703-1.235-.703-.719 0-1.157.61-.546.78-.546 2.906zm5.921 0q0-1.532.313-2.454.312-.937.922-1.437.625-.5 1.562-.5.688 0 1.203.281.532.281.875.813.344.515.532 1.265.187.75.187 2.032 0 1.515-.312 2.437-.297.922-.922 1.438-.61.5-1.563.5-1.234 0-1.953-.891-.844-1.063-.844-3.484zm1.079 0q0 2.109.5 2.812.5.703 1.218.703.735 0 1.22-.703.5-.703.5-2.812 0-2.125-.5-2.813-.485-.703-1.235-.703-.719 0-1.157.61-.546.78-.546 2.906zM710.144 315.184l1.062-.14q.172.89.61 1.297.437.39 1.062.39.75 0 1.266-.515.515-.516.515-1.282 0-.718-.484-1.187-.469-.485-1.203-.485-.297 0-.75.125l.125-.937q.11.016.172.016.672 0 1.203-.344.547-.36.547-1.094 0-.578-.39-.953-.392-.39-1.017-.39-.609 0-1.03.39-.407.39-.516 1.156l-1.063-.187q.188-1.047.875-1.625.688-.594 1.703-.594.703 0 1.297.312.594.297.906.813.313.516.313 1.11 0 .546-.297 1.015-.297.453-.875.719.75.172 1.172.734.422.547.422 1.39 0 1.126-.828 1.907-.813.781-2.063.781-1.125 0-1.875-.672-.75-.687-.86-1.75zm7-1.968q0-1.532.312-2.454.313-.937.922-1.437.625-.5 1.563-.5.687 0 1.203.281.531.281.875.813.343.515.531 1.265.188.75.188 2.032 0 1.515-.313 2.437-.297.922-.922 1.438-.61.5-1.562.5-1.235 0-1.954-.891-.843-1.063-.843-3.484zm1.078 0q0 2.109.5 2.812.5.703 1.219.703.734 0 1.218-.703.5-.703.5-2.812 0-2.125-.5-2.813-.484-.703-1.234-.703-.719 0-1.156.61-.547.78-.547 2.906zm5.922 0q0-1.532.312-2.454.313-.937.922-1.437.625-.5 1.563-.5.687 0 1.203.281.531.281.875.813.343.515.531 1.265.188.75.188 2.032 0 1.515-.313 2.437-.297.922-.922 1.438-.61.5-1.562.5-1.235 0-1.954-.891-.843-1.063-.843-3.484zm1.078 0q0 2.109.5 2.812.5.703 1.219.703.734 0 1.218-.703.5-.703.5-2.812 0-2.125-.5-2.813-.484-.703-1.234-.703-.719 0-1.156.61-.547.78-.547 2.906zm6.516 4.234v-1.203h1.203v1.203zm2.406-4.234q0-1.532.312-2.454.313-.937.922-1.437.625-.5 1.563-.5.687 0 1.203.281.531.281.875.813.343.515.531 1.265.188.75.188 2.032 0 1.515-.313 2.437-.297.922-.922 1.438-.61.5-1.562.5-1.235 0-1.954-.891-.843-1.063-.843-3.484zm1.078 0q0 2.109.5 2.812.5.703 1.219.703.734 0 1.218-.703.5-.703.5-2.812 0-2.125-.5-2.813-.484-.703-1.234-.703-.719 0-1.156.61-.547.78-.547 2.906zm5.922 0q0-1.532.312-2.454.313-.937.922-1.437.625-.5 1.563-.5.687 0 1.203.281.531.281.875.813.343.515.531 1.265.188.75.188 2.032 0 1.515-.313 2.437-.297.922-.922 1.438-.61.5-1.562.5-1.235 0-1.954-.891-.843-1.063-.843-3.484zm1.078 0q0 2.109.5 2.812.5.703 1.219.703.734 0 1.218-.703.5-.703.5-2.812 0-2.125-.5-2.813-.484-.703-1.234-.703-.719 0-1.156.61-.547.78-.547 2.906z"/></g><path d="M20.128 37.55V23.237h6.344q1.906 0 2.906.391 1 .375 1.594 1.36.594.968.594 2.156 0 1.515-.985 2.562-.984 1.047-3.047 1.328.75.36 1.141.72.828.75 1.578 1.905l2.484 3.891h-2.375l-1.906-2.984q-.828-1.282-1.36-1.97-.53-.687-.968-.952-.422-.281-.86-.39-.327-.063-1.046-.063h-2.203v6.359zm1.89-8h4.079q1.297 0 2.015-.266.735-.265 1.11-.859.39-.594.39-1.281 0-1.016-.734-1.672-.734-.656-2.328-.656h-4.531zm18.641 8v-1.531q-1.203 1.765-3.28 1.765-.923 0-1.72-.343-.796-.36-1.187-.891-.375-.531-.531-1.313-.11-.515-.11-1.64v-6.422h1.75v5.75q0 1.375.11 1.86.171.687.703 1.093.547.39 1.328.39.797 0 1.484-.406.703-.406.985-1.093.296-.703.296-2.032v-5.562h1.75V37.55zm4.204 0V27.175h1.593v1.484q1.14-1.718 3.297-1.718.938 0 1.719.343.797.328 1.187.875.391.547.547 1.297.094.5.094 1.719v6.375h-1.766v-6.313q0-1.078-.203-1.609-.203-.531-.734-.844-.516-.312-1.219-.312-1.125 0-1.937.719-.813.703-.813 2.687v5.672zm11 0V27.175h1.593v1.484q1.14-1.718 3.297-1.718.938 0 1.719.343.797.328 1.187.875.391.547.547 1.297.094.5.094 1.719v6.375h-1.766v-6.313q0-1.078-.203-1.609-.203-.531-.734-.844-.516-.312-1.219-.312-1.125 0-1.937.719-.813.703-.813 2.687v5.672zm11.015-12.297v-2.016h1.766v2.016zm0 12.297V27.175h1.766V37.55zm3.984 0V27.175h1.594v1.484q1.14-1.718 3.297-1.718.938 0 1.719.343.797.328 1.187.875.391.547.547 1.297.094.5.094 1.719v6.375h-1.766v-6.313q0-1.078-.203-1.609-.203-.531-.734-.844-.516-.312-1.219-.312-1.125 0-1.937.719-.813.703-.813 2.687v5.672zm10.688.86l1.703.25q.11.796.594 1.156.656.484 1.797.484 1.218 0 1.875-.484.672-.485.906-1.36.14-.547.125-2.265-1.156 1.359-2.875 1.359-2.14 0-3.313-1.547-1.171-1.547-1.171-3.703 0-1.484.53-2.734.548-1.25 1.563-1.938 1.032-.687 2.407-.687 1.828 0 3.03 1.484v-1.25h1.61v8.969q0 2.422-.5 3.422-.484 1.015-1.562 1.593-1.063.594-2.625.594-1.844 0-3-.828-1.14-.828-1.094-2.516zm1.453-6.235q0 2.047.813 2.984.812.938 2.03.938 1.204 0 2.016-.938.829-.937.829-2.921 0-1.907-.844-2.876-.844-.968-2.031-.968-1.172 0-2 .953-.813.953-.813 2.828zm19.703 3.797l.25 1.562q-.734.157-1.328.157-.953 0-1.484-.297-.516-.313-.735-.797-.218-.5-.218-2.078V28.55h-1.282v-1.375h1.282v-2.563l1.75-1.062v3.625h1.765v1.375h-1.765v6.062q0 .75.093.97.094.202.297.343.219.125.61.125.28 0 .765-.078zm2.156 1.578V23.237h1.766v5.125q1.234-1.421 3.11-1.421 1.14 0 1.984.453.86.453 1.219 1.265.375.797.375 2.313v6.578h-1.75v-6.578q0-1.313-.579-1.906-.578-.61-1.609-.61-.781 0-1.484.406-.688.407-.985 1.11-.28.687-.28 1.906v5.672zm18.11-3.344l1.812.235q-.422 1.578-1.593 2.468-1.157.875-2.97.875-2.265 0-3.609-1.39-1.328-1.407-1.328-3.938 0-2.625 1.344-4.062 1.344-1.453 3.5-1.453 2.078 0 3.39 1.421 1.329 1.407 1.329 3.985 0 .156-.016.469h-7.734q.094 1.703.969 2.609.875.906 2.171.906.97 0 1.641-.5.688-.515 1.094-1.625zm-5.781-2.844h5.796q-.109-1.296-.656-1.953-.844-1.015-2.187-1.015-1.203 0-2.032.812-.828.797-.921 2.156zm16.093 6.188v-9h-1.546v-1.375h1.546v-1.094q0-1.047.188-1.562.25-.688.89-1.11.641-.422 1.797-.422.75 0 1.641.172l-.266 1.532q-.546-.094-1.03-.094-.798 0-1.141.344-.329.343-.329 1.28v.954h2.032v1.375h-2.032v9zm12.375 0v-1.531q-1.203 1.765-3.28 1.765-.923 0-1.72-.343-.796-.36-1.187-.891-.375-.531-.531-1.313-.11-.515-.11-1.64v-6.422h1.75v5.75q0 1.375.11 1.86.171.687.703 1.093.547.39 1.328.39.797 0 1.484-.406.703-.406.985-1.093.296-.703.296-2.032v-5.562h1.75V37.55zm4.172 0V23.237h1.75V37.55zm4 0V23.237h1.75V37.55zm10.266 0V23.237h4.922q1.672 0 2.562.204 1.219.28 2.094 1.015 1.125.969 1.688 2.453.562 1.485.562 3.407 0 1.625-.375 2.89-.375 1.25-.984 2.078-.594.829-1.297 1.313-.703.469-1.703.719-1 .234-2.313.234zm1.89-1.688h3.063q1.406 0 2.203-.265.813-.266 1.297-.75.672-.672 1.047-1.797.375-1.14.375-2.766 0-2.25-.735-3.453-.734-1.203-1.796-1.61-.75-.296-2.438-.296h-3.015zm18.985-1.656l1.812.235q-.421 1.578-1.593 2.468-1.157.875-2.97.875-2.265 0-3.609-1.39-1.328-1.407-1.328-3.938 0-2.625 1.344-4.062 1.344-1.453 3.5-1.453 2.078 0 3.39 1.421 1.329 1.407 1.329 3.985 0 .156-.016.469h-7.734q.094 1.703.969 2.609.875.906 2.171.906.97 0 1.641-.5.688-.515 1.094-1.625zm-5.781-2.844h5.796q-.109-1.296-.656-1.953-.843-1.015-2.187-1.015-1.203 0-2.031.812-.829.797-.922 2.156zm12.562 6.188L187.8 27.175h1.86l2.234 6.219q.36 1 .656 2.078.234-.813.656-1.969l2.297-6.328h1.813l-3.922 10.375zm10.985 0V24.925h-4.72v-1.688h11.345v1.688h-4.735V37.55zm7.484-5.188q0-2.875 1.594-4.265 1.343-1.156 3.265-1.156 2.14 0 3.485 1.406 1.359 1.406 1.359 3.875 0 2-.594 3.156-.593 1.14-1.75 1.781-1.14.625-2.5.625-2.187 0-3.531-1.39-1.328-1.407-1.328-4.032zm1.797 0q0 2 .86 2.985.874.984 2.202.984 1.313 0 2.172-.984.875-1 .875-3.047 0-1.922-.875-2.906-.875-1-2.172-1-1.328 0-2.203 1-.86.984-.86 2.968zm9.203 0q0-2.875 1.594-4.265 1.343-1.156 3.265-1.156 2.14 0 3.485 1.406 1.359 1.406 1.359 3.875 0 2-.594 3.156-.593 1.14-1.75 1.781-1.14.625-2.5.625-2.187 0-3.531-1.39-1.328-1.407-1.328-4.032zm1.797 0q0 2 .86 2.985.874.984 2.202.984 1.313 0 2.172-.984.875-1 .875-3.047 0-1.922-.875-2.906-.875-1-2.172-1-1.328 0-2.203 1-.86.984-.86 2.968zm9.812 5.188V23.237h1.75V37.55zm3.328-3.094l1.75-.281q.141 1.047.813 1.61.672.546 1.875.546 1.203 0 1.781-.484.594-.5.594-1.156 0-.594-.516-.938-.36-.234-1.797-.594-1.937-.5-2.687-.843-.735-.36-1.125-.985-.39-.64-.39-1.406 0-.688.312-1.281.328-.594.875-.985.406-.296 1.11-.5.718-.218 1.53-.218 1.22 0 2.141.359.922.344 1.36.953.437.594.609 1.594l-1.719.234q-.125-.797-.688-1.234-.562-.453-1.578-.453-1.218 0-1.734.406-.516.39-.516.922 0 .344.22.625.202.281.671.469.266.093 1.547.437 1.875.5 2.61.828.734.313 1.156.922.421.594.421 1.5 0 .875-.515 1.656-.516.782-1.485 1.204-.968.421-2.187.421-2.016 0-3.078-.843-1.063-.844-1.36-2.485zm23.813-.25l1.812.235q-.421 1.578-1.593 2.468-1.157.875-2.97.875-2.265 0-3.609-1.39-1.328-1.407-1.328-3.938 0-2.625 1.344-4.062 1.344-1.453 3.5-1.453 2.078 0 3.39 1.421 1.329 1.407 1.329 3.985 0 .156-.016.469h-7.734q.094 1.703.969 2.609.875.906 2.171.906.97 0 1.641-.5.688-.515 1.094-1.625zm-5.781-2.844h5.796q-.109-1.296-.656-1.953-.843-1.015-2.187-1.015-1.203 0-2.031.812-.829.797-.922 2.156zm18.421 4.5v1.688h-9.453q-.015-.64.204-1.219.359-.969 1.156-1.906.797-.938 2.297-2.172 2.343-1.906 3.156-3.016.828-1.124.828-2.124 0-1.047-.75-1.766-.75-.719-1.953-.719-1.266 0-2.031.766-.766.765-.766 2.11l-1.813-.188q.188-2.016 1.391-3.078 1.219-1.063 3.266-1.063 2.047 0 3.25 1.14 1.203 1.141 1.203 2.829 0 .86-.36 1.703-.343.828-1.156 1.75-.812.906-2.703 2.515-1.594 1.329-2.047 1.797-.437.47-.734.954zm9.36-1.656l1.812.235q-.421 1.578-1.593 2.468-1.157.875-2.97.875-2.265 0-3.609-1.39-1.328-1.407-1.328-3.938 0-2.625 1.344-4.062 1.344-1.453 3.5-1.453 2.078 0 3.39 1.421 1.329 1.407 1.329 3.985 0 .156-.016.469h-7.734q.094 1.703.969 2.609.875.906 2.172.906.968 0 1.64-.5.688-.515 1.094-1.625zm-5.781-2.844h5.797q-.11-1.296-.657-1.953-.843-1.015-2.187-1.015-1.203 0-2.031.812-.829.797-.922 2.156zm19.515 4.61l.25 1.562q-.734.157-1.328.157-.953 0-1.484-.297-.516-.313-.735-.797-.218-.5-.218-2.078V28.55h-1.282v-1.375h1.282v-2.563l1.75-1.062v3.625h1.765v1.375h-1.765v6.062q0 .75.093.97.094.202.297.343.219.125.61.125.28 0 .765-.078zm9.266-1.766l1.812.235q-.421 1.578-1.593 2.468-1.157.875-2.97.875-2.265 0-3.608-1.39-1.329-1.407-1.329-3.938 0-2.625 1.344-4.062 1.344-1.453 3.5-1.453 2.078 0 3.39 1.421 1.329 1.407 1.329 3.985 0 .156-.016.469h-7.734q.094 1.703.969 2.609.875.906 2.172.906.968 0 1.64-.5.688-.515 1.094-1.625zm-5.781-2.844h5.797q-.11-1.296-.657-1.953-.843-1.015-2.187-1.015-1.203 0-2.031.812-.829.797-.922 2.156zm8.968 3.094l1.75-.281q.141 1.047.813 1.61.672.546 1.875.546 1.203 0 1.781-.484.594-.5.594-1.156 0-.594-.516-.938-.36-.234-1.797-.594-1.937-.5-2.687-.843-.734-.36-1.125-.985-.39-.64-.39-1.406 0-.688.312-1.281.328-.594.875-.985.406-.296 1.11-.5.718-.218 1.53-.218 1.22 0 2.141.359.922.344 1.36.953.437.594.609 1.594l-1.719.234q-.125-.797-.688-1.234-.562-.453-1.578-.453-1.218 0-1.734.406-.516.39-.516.922 0 .344.22.625.202.281.671.469.266.093 1.547.437 1.875.5 2.61.828.734.313 1.155.922.422.594.422 1.5 0 .875-.515 1.656-.516.782-1.485 1.204-.968.421-2.187.421-2.016 0-3.078-.843-1.063-.844-1.36-2.485zm14.547 1.516l.25 1.562q-.734.157-1.328.157-.953 0-1.484-.297-.516-.313-.735-.797-.218-.5-.218-2.078V28.55h-1.282v-1.375h1.282v-2.563l1.75-1.062v3.625h1.765v1.375h-1.765v6.062q0 .75.093.97.094.202.297.343.219.125.61.125.28 0 .765-.078zm7.453-1.516l1.75-.281q.141 1.047.813 1.61.672.546 1.875.546 1.203 0 1.781-.484.594-.5.594-1.156 0-.594-.516-.938-.36-.234-1.797-.594-1.937-.5-2.687-.843-.734-.36-1.125-.985-.39-.64-.39-1.406 0-.688.312-1.281.328-.594.875-.985.406-.296 1.11-.5.718-.218 1.53-.218 1.22 0 2.141.359.922.344 1.36.953.437.594.609 1.594l-1.719.234q-.125-.797-.688-1.234-.562-.453-1.578-.453-1.218 0-1.734.406-.516.39-.516.922 0 .344.22.625.202.281.671.469.266.093 1.547.437 1.875.5 2.61.828.734.313 1.155.922.422.594.422 1.5 0 .875-.515 1.656-.516.782-1.485 1.204-.968.421-2.187.421-2.016 0-3.078-.843-1.063-.844-1.36-2.485zm17.5 3.094v-1.531q-1.203 1.765-3.28 1.765-.923 0-1.72-.343-.796-.36-1.187-.891-.375-.531-.531-1.313-.11-.515-.11-1.64v-6.422h1.75v5.75q0 1.375.11 1.86.172.687.703 1.093.547.39 1.328.39.797 0 1.484-.406.703-.406.985-1.093.297-.703.297-2.032v-5.562h1.75V37.55zm4.22-12.297v-2.016h1.765v2.016zm0 12.297V27.175h1.765V37.55zm7.827-1.578l.25 1.562q-.734.157-1.328.157-.953 0-1.484-.297-.516-.313-.735-.797-.218-.5-.218-2.078V28.55h-1.282v-1.375h1.282v-2.563l1.75-1.062v3.625h1.765v1.375h-1.765v6.062q0 .75.093.97.094.202.297.343.219.125.61.125.28 0 .765-.078zm9.266-1.766l1.812.235q-.421 1.578-1.593 2.468-1.157.875-2.97.875-2.265 0-3.608-1.39-1.329-1.407-1.329-3.938 0-2.625 1.344-4.062 1.344-1.453 3.5-1.453 2.078 0 3.39 1.421 1.329 1.407 1.329 3.985 0 .156-.016.469h-7.734q.094 1.703.969 2.609.875.906 2.172.906.968 0 1.64-.5.688-.515 1.094-1.625zm-5.781-2.844h5.797q-.11-1.296-.657-1.953-.843-1.015-2.187-1.015-1.203 0-2.031.812-.829.797-.922 2.156z" fill="#757575"/></svg>