<svg fill="none" stroke-linecap="square" stroke-miterlimit="10" width="779" height="390" xmlns="http://www.w3.org/2000/svg"><path fill="#fff" d="M0 0h779v390H0V0z"/><path stroke="#333" stroke-linecap="butt" d="M199.5 46.5v272"/><path stroke="#ccc" stroke-linecap="butt" d="M339.5 46.5v272M479.5 46.5v272M619.5 46.5v272M759.5 46.5v272"/><clipPath id="a"><path d="M199.1 46.5h560.4v272H199.1v-272z"/></clipPath><path clip-path="url(#a)" d="M199 91V75h155a2 2 0 012 2v12a2 2 0 01-2 2z"/><path fill="#4285f4" clip-path="url(#a)" d="M199 91V75h155a2 2 0 012 2v12a2 2 0 01-2 2z"/><path clip-path="url(#a)" d="M199 173v-16h362a2 2 0 012 2v12a2 2 0 01-2 2z"/><path fill="#4285f4" clip-path="url(#a)" d="M199 173v-16h362a2 2 0 012 2v12a2 2 0 01-2 2z"/><path clip-path="url(#a)" d="M199 254v-16h136a2 2 0 012 2v12a2 2 0 01-2 2z"/><path fill="#4285f4" clip-path="url(#a)" d="M199 254v-16h136a2 2 0 012 2v12a2 2 0 01-2 2z"/><path clip-path="url(#a)" d="M199 109V93h176a2 2 0 012 2v12a2 2 0 01-2 2z"/><path fill="#ea4335" clip-path="url(#a)" d="M199 109V93h176a2 2 0 012 2v12a2 2 0 01-2 2z"/><path clip-path="url(#a)" d="M199 191v-16h478a2 2 0 012 2v12a2 2 0 01-2 2z"/><path fill="#ea4335" clip-path="url(#a)" d="M199 191v-16h478a2 2 0 012 2v12a2 2 0 01-2 2z"/><path clip-path="url(#a)" d="M199 272v-16h355a2 2 0 012 2v12a2 2 0 01-2 2z"/><path fill="#ea4335" clip-path="url(#a)" d="M199 272v-16h355a2 2 0 012 2v12a2 2 0 01-2 2z"/><path clip-path="url(#a)" d="M199 127v-16h92a2 2 0 012 2v12a2 2 0 01-2 2z"/><path fill="#fbbc04" clip-path="url(#a)" d="M199 127v-16h92a2 2 0 012 2v12a2 2 0 01-2 2z"/><path clip-path="url(#a)" d="M199 209v-16h156a2 2 0 012 2v12a2 2 0 01-2 2z"/><path fill="#fbbc04" clip-path="url(#a)" d="M199 209v-16h156a2 2 0 012 2v12a2 2 0 01-2 2z"/><path clip-path="url(#a)" d="M199 290v-16h90a2 2 0 012 2v12a2 2 0 01-2 2z"/><path fill="#fbbc04" clip-path="url(#a)" d="M199 290v-16h90a2 2 0 012 2v12a2 2 0 01-2 2z"/><path fill="#000" d="M364.41 367.5v-7.578h-2.829v-1.016h6.813v1.016h-2.844v7.578h-1.14zm4.687-7.375v-1.219h1.062v1.219h-1.062zm0 7.375v-6.219h1.062v6.219h-1.062zm3 0v-6.219h.937v.875q.297-.469.782-.734.484-.281 1.109-.281.688 0 1.125.28.453.282.625.798.75-1.078 1.922-1.078.937 0 1.422.515.5.5.5 1.578v4.266h-1.047v-3.922q0-.625-.11-.906-.093-.281-.359-.453-.265-.172-.64-.172-.657 0-1.094.437-.422.438-.422 1.407v3.609h-1.063v-4.047q0-.703-.265-1.047-.25-.36-.828-.36-.453 0-.828.235-.375.235-.547.688-.172.453-.172 1.297v3.234h-1.047zm14.25-2l1.094.125q-.25.953-.953 1.484-.704.532-1.782.532-1.36 0-2.172-.844-.796-.844-.796-2.36 0-1.562.812-2.421.813-.875 2.094-.875 1.25 0 2.031.843.797.844.797 2.391v.281h-4.64q.062 1.031.577 1.578.516.532 1.297.532.578 0 .985-.297.422-.313.656-.969zm-3.453-1.703h3.469q-.063-.797-.391-1.188-.516-.609-1.313-.609-.734 0-1.234.484-.484.485-.531 1.313zm11.5 2.765l.156.922q-.453.094-.797.094-.578 0-.89-.172-.313-.187-.454-.484-.125-.297-.125-1.25v-3.578h-.765v-.813h.765v-1.547l1.047-.625v2.172h1.063v.813h-1.063v3.64q0 .454.047.579.063.125.188.203.125.078.359.078.188 0 .469-.031zm.312-2.171q0-1.735.953-2.563.797-.687 1.954-.687 1.28 0 2.093.843.828.829.828 2.313 0 1.203-.359 1.89-.36.688-1.063 1.079-.687.375-1.5.375-1.296 0-2.109-.829-.797-.843-.797-2.421zm1.078 0q0 1.187.516 1.78.531.595 1.313.595.796 0 1.312-.594t.516-1.813q0-1.156-.532-1.75-.515-.593-1.296-.593-.782 0-1.313.593-.516.579-.516 1.782zm13.344 3.109v-.781q-.594.922-1.734.922-.75 0-1.375-.407-.625-.421-.969-1.156-.344-.734-.344-1.687 0-.922.313-1.688.312-.765.937-1.156.625-.406 1.39-.406.563 0 1 .234.438.234.72.61v-3.079h1.047v8.594h-.985zm-3.328-3.11q0 1.204.5 1.798.5.578 1.188.578.687 0 1.171-.563.485-.562.485-1.719 0-1.28-.5-1.875-.485-.593-1.203-.593-.703 0-1.172.578-.469.562-.469 1.797zm5.906 0q0-1.734.953-2.562.797-.687 1.954-.687 1.28 0 2.093.843.828.829.828 2.313 0 1.203-.359 1.89-.36.688-1.063 1.079-.687.375-1.5.375-1.296 0-2.109-.829-.797-.843-.797-2.421zm1.078 0q0 1.188.516 1.782.531.594 1.313.594.796 0 1.312-.594t.516-1.813q0-1.156-.532-1.75-.515-.593-1.296-.593-.782 0-1.313.593-.516.579-.516 1.782zm12.391 3.11v-2.063h-3.719v-.968l3.922-5.563h.86v5.563h1.156v.969h-1.156v2.062h-1.063zm0-3.031v-3.86l-2.688 3.86h2.688zm10.89 5.422v-3.047q-.25.344-.702.578-.438.219-.938.219-1.11 0-1.906-.875-.797-.891-.797-2.438 0-.937.328-1.672.328-.75.938-1.125.625-.39 1.359-.39 1.156 0 1.812.968v-.828h.954v8.61h-1.047zm-3.265-5.516q0 1.203.5 1.797.516.594 1.219.594.672 0 1.156-.563.484-.578.484-1.734 0-1.25-.515-1.875-.5-.625-1.203-.625-.672 0-1.157.594-.484.578-.484 1.812zm10.375 3.125v-.922q-.734 1.063-1.984 1.063-.547 0-1.032-.204-.468-.218-.703-.53-.234-.329-.328-.798-.062-.296-.062-.984v-3.844h1.062v3.453q0 .813.063 1.11.093.406.406.656.328.234.812.234.47 0 .875-.234.422-.25.594-.672.188-.422.188-1.219v-3.328h1.047v6.219h-.938zm7.172-2l1.094.125q-.25.953-.953 1.484-.704.532-1.782.532-1.36 0-2.172-.844-.796-.844-.796-2.36 0-1.562.812-2.421.813-.875 2.094-.875 1.25 0 2.031.843.797.844.797 2.391v.281h-4.64q.062 1.031.577 1.578.516.532 1.297.532.578 0 .985-.297.422-.313.656-.969zm-3.453-1.703h3.469q-.063-.797-.391-1.188-.516-.609-1.313-.609-.734 0-1.234.484-.484.485-.531 1.313zm6.187 3.703v-6.219h.953v.938q.36-.656.657-.86.312-.218.687-.218.531 0 1.078.328l-.36.984q-.39-.234-.765-.234-.36 0-.64.219-.266.203-.375.578-.188.562-.188 1.218v3.266h-1.047zm4.016-7.375v-1.219h1.062v1.219h-1.062zm0 7.375v-6.219h1.062v6.219h-1.062zm7.25-2l1.094.125q-.25.953-.953 1.484-.704.532-1.782.532-1.36 0-2.172-.844-.796-.844-.796-2.36 0-1.562.812-2.421.813-.875 2.094-.875 1.25 0 2.031.843.797.844.797 2.391v.281h-4.64q.062 1.031.577 1.578.516.532 1.297.532.578 0 .985-.297.422-.313.656-.969zm-3.453-1.703h3.469q-.063-.797-.391-1.188-.516-.609-1.313-.609-.734 0-1.234.484-.484.485-.531 1.313zm5.781 1.844l1.031-.157q.094.625.485.954.406.328 1.14.328.719 0 1.063-.282.36-.296.36-.703 0-.36-.313-.562-.22-.14-1.078-.36-1.157-.296-1.61-.5-.437-.218-.672-.593-.234-.375-.234-.844 0-.406.187-.766.188-.36.516-.594.25-.171.672-.296.422-.125.922-.125.719 0 1.265.218.563.204.829.563.265.36.359.953l-1.031.14q-.063-.468-.407-.734-.328-.281-.953-.281-.719 0-1.031.25-.313.234-.313.563 0 .203.125.359.141.172.407.281.156.063.937.266 1.125.312 1.563.5.437.187.687.547.25.359.25.906 0 .531-.312 1-.297.453-.875.719-.578.25-1.313.25-1.219 0-1.86-.5-.624-.516-.796-1.5zm13.094 1.859h-1.047v-6.719q-.39.36-1.016.735-.61.359-1.094.53v-1.015q.875-.422 1.532-1 .672-.594.953-1.156h.672v8.625zm3.031-4.234q0-1.532.313-2.454.312-.937.921-1.437.625-.5 1.563-.5.687 0 1.203.281.531.281.875.813.344.515.531 1.265.188.75.188 2.032 0 1.515-.313 2.437-.297.922-.922 1.438-.609.5-1.562.5-1.234 0-1.953-.891-.844-1.063-.844-3.484zm1.078 0q0 2.109.5 2.812.5.703 1.219.703.734 0 1.219-.703.5-.703.5-2.812 0-2.125-.5-2.813-.485-.703-1.235-.703-.719 0-1.156.61-.547.78-.547 2.906zm5.922 0q0-1.532.313-2.454.312-.937.921-1.437.625-.5 1.563-.5.687 0 1.203.281.531.281.875.813.344.515.531 1.265.188.75.188 2.032 0 1.515-.313 2.437-.297.922-.922 1.438-.609.5-1.562.5-1.234 0-1.953-.891-.844-1.063-.844-3.484zm1.078 0q0 2.109.5 2.812.5.703 1.219.703.734 0 1.219-.703.5-.703.5-2.812 0-2.125-.5-2.813-.485-.703-1.235-.703-.719 0-1.156.61-.547.78-.547 2.906zm5.922 0q0-1.532.313-2.454.312-.937.921-1.437.625-.5 1.563-.5.687 0 1.203.281.531.281.875.813.344.515.531 1.265.188.75.188 2.032 0 1.515-.313 2.437-.297.922-.922 1.438-.609.5-1.562.5-1.234 0-1.953-.891-.844-1.063-.844-3.484zm1.078 0q0 2.109.5 2.812.5.703 1.219.703.734 0 1.219-.703.5-.703.5-2.812 0-2.125-.5-2.813-.485-.703-1.235-.703-.719 0-1.156.61-.547.78-.547 2.906zm11.516 3.296l.156.922q-.453.094-.797.094-.578 0-.89-.172-.313-.187-.454-.484-.125-.297-.125-1.25v-3.578h-.765v-.813h.765v-1.547l1.047-.625v2.172h1.063v.813h-1.063v3.64q0 .454.047.579.063.125.188.203.125.078.359.078.188 0 .469-.031zm.703-6.437v-1.219h1.062v1.219h-1.062zm0 7.375v-6.219h1.062v6.219h-1.062zm3 0v-6.219h.937v.875q.297-.469.782-.734.484-.281 1.109-.281.688 0 1.125.28.453.282.625.798.75-1.078 1.922-1.078.937 0 1.422.515.5.5.5 1.578v4.266h-1.047v-3.922q0-.625-.11-.906-.093-.281-.359-.453t-.64-.172q-.657 0-1.094.437-.422.438-.422 1.407v3.609h-1.063v-4.047q0-.703-.265-1.047-.25-.36-.828-.36-.454 0-.829.235-.375.235-.546.688-.172.453-.172 1.297v3.234h-1.047zm14.25-2l1.094.125q-.25.953-.954 1.484-.703.532-1.78.532-1.36 0-2.173-.844-.797-.844-.797-2.36 0-1.562.813-2.421.813-.875 2.094-.875 1.25 0 2.031.843.797.844.797 2.391v.281h-4.64q.062 1.031.577 1.578.516.532 1.297.532.578 0 .985-.297.421-.313.656-.969zm-3.453-1.703h3.468q-.062-.797-.39-1.188-.516-.609-1.313-.609-.734 0-1.234.484-.484.485-.531 1.313zm5.781 1.844l1.031-.157q.094.625.485.954.406.328 1.14.328.719 0 1.063-.282.36-.296.36-.703 0-.36-.313-.562-.22-.14-1.079-.36-1.156-.296-1.609-.5-.437-.218-.672-.593-.234-.375-.234-.844 0-.406.187-.766.188-.36.516-.594.25-.171.672-.296.422-.125.922-.125.718 0 1.265.218.563.204.828.563.266.36.36.953l-1.031.14q-.063-.468-.407-.734-.328-.281-.953-.281-.719 0-1.031.25-.313.234-.313.563 0 .203.125.359.141.172.407.281.156.063.937.266 1.125.312 1.563.5.437.187.687.547.25.359.25.906 0 .531-.312 1-.297.453-.875.719-.578.25-1.313.25-1.219 0-1.86-.5-.624-.516-.796-1.5zm9.422-5.516v-1.219h1.062v1.219h-1.062zm0 7.375v-6.219h1.062v6.219h-1.062zm3 0v-6.219h.937v.875q.688-1.015 1.985-1.015.562 0 1.031.203.484.203.719.531.234.328.328.766.047.296.047 1.03v3.829h-1.047v-3.781q0-.656-.125-.969-.125-.313-.438-.5-.312-.203-.734-.203-.672 0-1.172.437-.484.422-.484 1.61v3.406h-1.047zm9.578-1.86l1.031-.156q.094.625.485.954.406.328 1.14.328.719 0 1.063-.282.36-.296.36-.703 0-.36-.313-.562-.22-.14-1.079-.36-1.156-.296-1.609-.5-.437-.218-.672-.593-.234-.375-.234-.844 0-.406.187-.766.188-.36.516-.594.25-.171.672-.296.422-.125.922-.125.718 0 1.265.218.563.204.828.563.266.36.36.953l-1.031.14q-.063-.468-.407-.734-.328-.281-.953-.281-.719 0-1.031.25-.313.234-.313.563 0 .203.125.359.141.172.407.281.156.063.937.266 1.125.312 1.563.5.437.187.687.547.25.359.25.906 0 .531-.312 1-.297.453-.875.719-.578.25-1.313.25-1.219 0-1.86-.5-.624-.516-.796-1.5zm10.672-.14l1.094.125q-.25.953-.954 1.484-.703.532-1.78.532-1.36 0-2.173-.844-.797-.844-.797-2.36 0-1.562.813-2.421.813-.875 2.094-.875 1.25 0 2.031.843.797.844.797 2.391v.281h-4.64q.062 1.031.577 1.578.516.532 1.297.532.578 0 .985-.297.421-.313.656-.969zm-3.453-1.703h3.468q-.062-.797-.39-1.188-.516-.609-1.313-.609-.734 0-1.234.484-.484.485-.531 1.313zm10.265 1.422l1.032.14q-.172 1.063-.875 1.672-.704.61-1.72.61-1.28 0-2.062-.829-.765-.843-.765-2.406 0-1 .328-1.75.344-.765 1.015-1.14.688-.375 1.5-.375 1 0 1.641.515.656.5.844 1.453l-1.031.157q-.141-.625-.516-.938-.375-.328-.906-.328-.797 0-1.297.578-.5.563-.5 1.797 0 1.266.484 1.828.485.563 1.25.563.625 0 1.031-.375.422-.375.547-1.172zm1.547-.828q0-1.735.953-2.563.797-.687 1.953-.687 1.282 0 2.094.843.828.829.828 2.313 0 1.203-.359 1.89-.36.688-1.063 1.079-.687.375-1.5.375-1.296 0-2.109-.829-.797-.843-.797-2.421zm1.078 0q0 1.187.516 1.78.531.595 1.313.595.796 0 1.312-.594t.516-1.813q0-1.156-.532-1.75-.515-.593-1.297-.593-.78 0-1.312.593-.516.579-.516 1.782zm6.313 3.109v-6.219h.937v.875q.688-1.015 1.985-1.015.562 0 1.031.203.484.203.719.531.234.328.328.766.047.296.047 1.03v3.829h-1.047v-3.781q0-.656-.125-.969-.125-.313-.438-.5-.312-.203-.734-.203-.672 0-1.172.437-.484.422-.484 1.61v3.406h-1.047zm11.031 0v-.781q-.594.922-1.734.922-.75 0-1.375-.407-.625-.421-.969-1.156-.344-.734-.344-1.687 0-.922.313-1.688.312-.765.937-1.156.625-.406 1.39-.406.563 0 1 .234.438.234.72.61v-3.079h1.046v8.594h-.984zm-3.328-3.11q0 1.204.5 1.798.5.578 1.188.578.687 0 1.171-.563.485-.562.485-1.719 0-1.28-.5-1.875-.485-.593-1.203-.593-.704 0-1.172.578-.469.562-.469 1.797zm5.875 1.25l1.031-.156q.094.625.485.954.406.328 1.14.328.719 0 1.063-.282.36-.296.36-.703 0-.36-.313-.562-.22-.14-1.079-.36-1.156-.296-1.609-.5-.437-.218-.672-.593-.234-.375-.234-.844 0-.406.187-.766.188-.36.516-.594.25-.171.672-.296.422-.125.922-.125.718 0 1.265.218.563.204.828.563.266.36.36.953l-1.031.14q-.063-.468-.407-.734-.328-.281-.953-.281-.719 0-1.031.25-.313.234-.313.563 0 .203.125.359.141.172.407.281.156.063.937.266 1.125.312 1.563.5.437.187.687.547.25.359.25.906 0 .531-.312 1-.297.453-.875.719-.578.25-1.313.25-1.219 0-1.86-.5-.624-.516-.796-1.5zM30.5 216.625l-8.594 3.328v-1.234l6.25-2.235q.75-.265 1.407-.453-.704-.203-1.407-.469l-6.25-2.312v-1.156l8.594 3.36v1.171zm-.766-9.484q.5.593.703 1.14.204.531.204 1.156 0 1.032-.5 1.579-.5.547-1.282.547-.453 0-.828-.204-.39-.203-.61-.547-.233-.343-.343-.765-.094-.297-.172-.938-.14-1.265-.36-1.875h-.265q-.656 0-.922.297-.343.406-.343 1.203 0 .735.265 1.094.25.36.907.531l-.141 1.032q-.656-.141-1.063-.47-.406-.327-.625-.937-.218-.609-.218-1.406 0-.797.187-1.297.188-.5.469-.734.281-.234.719-.328.265-.047.968-.047h1.407q1.468 0 1.859-.063.39-.078.75-.28v1.108q-.328.157-.766.204zm-2.359.093q.234.578.406 1.72.094.655.219.921.11.266.328.422.219.14.5.14.422 0 .703-.312.282-.328.282-.938 0-.609-.266-1.078-.266-.484-.735-.703-.359-.172-1.046-.172h-.391zm3.125-3.015h-6.219v-.953h.938q-.657-.36-.86-.657-.218-.312-.218-.687 0-.531.328-1.078l.984.36q-.234.39-.234.765 0 .36.218.64.204.266.579.375.562.188 1.218.188H30.5v1.047zm-7.375-4.016h-1.219v-1.062h1.219v1.062zm7.375 0h-6.219v-1.062H30.5v1.062zm-.766-7.062q.5.593.703 1.14.204.531.204 1.156 0 1.032-.5 1.579-.5.547-1.282.547-.453 0-.828-.204-.39-.203-.61-.547-.233-.343-.343-.765-.094-.297-.172-.938-.14-1.265-.36-1.875h-.265q-.656 0-.922.297-.343.406-.343 1.203 0 .735.265 1.094.25.36.907.531l-.141 1.032q-.656-.141-1.063-.47-.406-.327-.625-.937-.218-.609-.218-1.406 0-.797.187-1.297.188-.5.469-.734.281-.234.719-.328.265-.047.968-.047h1.407q1.468 0 1.859-.063.39-.078.75-.28v1.108q-.328.157-.766.204zm-2.359.093q.234.578.406 1.72.094.655.219.921.11.266.328.422.219.14.5.14.422 0 .703-.312.282-.328.282-.938 0-.609-.266-1.078-.266-.484-.735-.703-.359-.172-1.046-.172h-.391zm2.188-5.328l.921-.156q.094.453.094.797 0 .578-.172.89-.187.313-.484.454-.297.125-1.25.125h-3.578v.765h-.813v-.765h-1.547l-.625-1.047h2.172v-1.063h.813v1.063h3.64q.453 0 .578-.047.125-.063.204-.188.078-.125.078-.359 0-.188-.032-.469zm-6.438-.703h-1.219v-1.062h1.219v1.062zm7.375 0h-6.219v-1.062H30.5v1.062zm-3.11-2.61q-1.734 0-2.562-.952-.687-.797-.687-1.953 0-1.282.843-2.094.828-.828 2.313-.828 1.203 0 1.89.359.688.36 1.079 1.063.375.687.375 1.5 0 1.296-.828 2.109-.844.797-2.422.797zm0-1.077q1.188 0 1.782-.516.594-.531.594-1.313 0-.796-.594-1.312t-1.813-.516q-1.156 0-1.75.532-.593.515-.593 1.297 0 .78.593 1.312.578.516 1.782.516zm3.11-6.313h-6.219v-.937h.875q-1.015-.688-1.015-1.985 0-.562.203-1.031.203-.484.531-.719.328-.234.766-.328.297-.047 1.03-.047H30.5v1.047h-3.781q-.657 0-.969.125-.313.125-.5.438-.203.312-.203.734 0 .672.437 1.172.422.484 1.61.484H30.5v1.047zm-1.86-6.578l-.156-1.031q.625-.094.953-.485.329-.406.329-1.14 0-.719-.282-1.063-.297-.36-.703-.36-.36 0-.562.313-.14.22-.36 1.078-.297 1.157-.5 1.61-.218.437-.593.672-.375.234-.844.234-.406 0-.766-.187-.36-.188-.593-.516-.172-.25-.297-.672-.125-.422-.125-.922 0-.719.218-1.265.203-.563.563-.828.36-.266.953-.36l.14 1.031q-.468.063-.734.407-.281.328-.281.953 0 .719.25 1.031.234.313.563.313.203 0 .359-.125.172-.141.281-.407.063-.156.266-.937.312-1.125.5-1.563.187-.437.547-.687.359-.25.906-.25.531 0 1 .312.453.297.719.875.25.578.25 1.313 0 1.219-.5 1.86-.516.624-1.5.796zM70.022 91.306v-8.594h3.25q.844 0 1.297.078.64.11 1.062.407.438.296.688.828.265.531.265 1.172 0 1.093-.703 1.859-.687.75-2.515.75h-2.204v3.5h-1.14zm1.14-4.5h2.22q1.109 0 1.562-.406.468-.422.468-1.172 0-.531-.28-.906-.266-.391-.704-.516-.297-.078-1.062-.078h-2.204v3.078zM81.96 90.54q-.593.5-1.14.703-.532.204-1.157.204-1.03 0-1.578-.5-.547-.5-.547-1.282 0-.453.204-.828.203-.39.546-.61.344-.234.766-.343.297-.094.938-.172 1.265-.14 1.875-.36v-.265q0-.656-.297-.922-.407-.343-1.203-.343-.735 0-1.094.265-.36.25-.531.906l-1.032-.14q.141-.656.47-1.063.327-.406.937-.625.609-.218 1.406-.218.797 0 1.297.187.5.188.734.469.234.281.328.719.047.265.047.968v1.407q0 1.468.063 1.859.078.39.28.75h-1.109q-.156-.328-.203-.766zm-.093-2.359q-.579.234-1.72.406-.655.094-.921.219-.266.11-.422.328-.14.219-.14.5 0 .422.312.703.328.281.938.281.609 0 1.078-.265.484-.266.703-.735.172-.359.172-1.046v-.391zm2.828 3.64l1.031.157q.063.469.36.687.39.297 1.062.297.734 0 1.125-.297.406-.297.547-.812.093-.328.078-1.36-.688.813-1.719.813-1.281 0-1.984-.922-.703-.937-.703-2.219 0-.89.312-1.64.328-.766.938-1.172.609-.406 1.437-.406 1.11 0 1.828.89v-.75h.969v5.375q0 1.453-.297 2.063-.297.61-.937.953-.641.36-1.579.36-1.109 0-1.796-.5-.688-.5-.672-1.516zm.875-3.734q0 1.219.484 1.781.484.563 1.219.563.734 0 1.219-.563.5-.562.5-1.75 0-1.14-.516-1.718-.5-.578-1.219-.578-.703 0-1.203.578-.484.562-.484 1.687zm10.578 1.219l1.094.125q-.25.953-.954 1.484-.703.532-1.78.532-1.36 0-2.173-.844-.797-.844-.797-2.36 0-1.562.813-2.421.813-.875 2.094-.875 1.25 0 2.031.843.797.844.797 2.391v.281h-4.64q.062 1.031.577 1.578.516.532 1.297.532.578 0 .985-.297.421-.313.656-.969zm-3.453-1.703h3.468q-.062-.797-.39-1.188-.516-.609-1.313-.609-.734 0-1.234.484-.484.485-.531 1.313zm10.343 3.703l-1.906-6.219h1.094l.984 3.594.375 1.328q.032-.094.328-1.281l.985-3.64h1.078l.938 3.609.312 1.187.36-1.203 1.062-3.594h1.031l-1.953 6.219h-1.094l-.984-3.734-.25-1.047-1.25 4.781h-1.11zm8.157 0v-1.203h1.203v1.203h-1.203zm5.562-3.75v-.984l5.688-2.407v1.047l-4.516 1.844 4.516 1.875v1.047l-5.688-2.422zm10.813 3.75h-1.047v-6.719q-.39.36-1.016.735-.61.359-1.094.53v-1.015q.875-.422 1.532-1 .672-.594.953-1.156h.672v8.625zm3.031-4.234q0-1.532.313-2.454.312-.937.921-1.437.625-.5 1.563-.5.687 0 1.203.281.531.281.875.813.344.515.531 1.265.188.75.188 2.032 0 1.515-.313 2.437-.297.922-.922 1.438-.609.5-1.562.5-1.234 0-1.953-.891-.844-1.063-.844-3.484zm1.078 0q0 2.109.5 2.812.5.703 1.219.703.734 0 1.219-.703.5-.703.5-2.812 0-2.125-.5-2.813-.485-.703-1.235-.703-.719 0-1.156.61-.547.78-.547 2.906zm13.469 2.234l1.094.125q-.25.953-.954 1.484-.703.532-1.78.532-1.36 0-2.173-.844-.797-.844-.797-2.36 0-1.562.813-2.421.813-.875 2.094-.875 1.25 0 2.031.843.797.844.797 2.391v.281h-4.64q.062 1.031.577 1.578.516.532 1.297.532.578 0 .985-.297.421-.313.656-.969zm-3.453-1.703h3.469q-.063-.797-.391-1.188-.516-.609-1.313-.609-.734 0-1.234.484-.484.485-.531 1.313zm6.172 3.703v-8.594h1.062v8.594h-1.062zm7.28-2l1.095.125q-.25.953-.954 1.484-.703.532-1.78.532-1.36 0-2.173-.844-.797-.844-.797-2.36 0-1.562.813-2.421.813-.875 2.094-.875 1.25 0 2.031.843.797.844.797 2.391v.281h-4.64q.062 1.031.577 1.578.516.532 1.297.532.578 0 .985-.297.421-.313.656-.969zm-3.452-1.703h3.469q-.063-.797-.391-1.188-.516-.609-1.313-.609-.734 0-1.234.484-.484.485-.531 1.313zm6.203 3.703v-6.219h.937v.875q.297-.469.782-.734.484-.281 1.109-.281.688 0 1.125.28.453.282.625.798.75-1.078 1.922-1.078.937 0 1.422.515.5.5.5 1.578v4.266h-1.047v-3.922q0-.625-.11-.906-.093-.281-.359-.453t-.64-.172q-.657 0-1.094.437-.422.438-.422 1.407v3.609h-1.063v-4.047q0-.703-.265-1.047-.25-.36-.828-.36-.454 0-.829.235-.375.235-.546.688-.172.453-.172 1.297v3.234h-1.047zm14.25-2l1.094.125q-.25.953-.954 1.484-.703.532-1.78.532-1.36 0-2.173-.844-.797-.844-.797-2.36 0-1.562.813-2.421.813-.875 2.094-.875 1.25 0 2.031.843.797.844.797 2.391v.281h-4.64q.062 1.031.577 1.578.516.532 1.297.532.578 0 .985-.297.421-.313.656-.969zm-3.453-1.703h3.469q-.063-.797-.391-1.188-.516-.609-1.313-.609-.734 0-1.234.484-.484.485-.531 1.313zm6.203 3.703v-6.219h.937v.875q.688-1.015 1.985-1.015.562 0 1.031.203.484.203.719.531.234.328.328.766.047.296.047 1.03v3.829h-1.047v-3.781q0-.657-.125-.969-.125-.313-.438-.5-.312-.203-.734-.203-.672 0-1.172.437-.484.422-.484 1.61v3.406h-1.047zm9.297-.938l.156.922q-.453.094-.797.094-.578 0-.89-.172-.313-.187-.454-.484-.125-.297-.125-1.25V85.9h-.765v-.813h.765V83.54l1.047-.625v2.172h1.063v.813h-1.063v3.64q0 .453.047.578.063.125.188.204.125.078.359.078.188 0 .469-.032zm.281-.921l1.031-.157q.094.625.485.953.406.329 1.14.329.719 0 1.063-.282.36-.297.36-.703 0-.36-.313-.562-.22-.14-1.079-.36-1.156-.297-1.609-.5-.437-.218-.672-.593-.234-.375-.234-.844 0-.406.187-.766.188-.36.516-.594.25-.171.672-.296.422-.125.922-.125.719 0 1.265.218.563.203.828.563.266.36.36.953l-1.031.14q-.063-.468-.407-.734-.328-.281-.953-.281-.719 0-1.031.25-.313.234-.313.562 0 .204.125.36.141.172.407.281.156.063.937.266 1.125.312 1.563.5.437.187.687.547.25.359.25.906 0 .531-.312 1-.297.453-.875.719-.578.25-1.313.25-1.219 0-1.86-.5-.624-.516-.796-1.5zm6.688 1.859v-1.203h1.203v1.203q0 .656-.235 1.062-.234.422-.734.641l-.297-.453q.328-.14.484-.438.157-.28.188-.812h-.61zM80.084 105.306l3.297-8.594H84.6l3.516 8.594h-1.282l-1.015-2.61H82.24l-.954 2.61h-1.203zm2.485-3.531h2.906l-.89-2.375q-.422-1.078-.61-1.782-.172.829-.469 1.641l-.937 2.516zm10.39 1.25l1.032.14q-.172 1.063-.875 1.672-.704.61-1.72.61-1.28 0-2.062-.829-.765-.843-.765-2.406 0-1 .328-1.75.344-.765 1.015-1.14.688-.375 1.5-.375 1 0 1.641.515.656.5.844 1.453l-1.031.157q-.141-.625-.516-.938-.375-.328-.906-.328-.797 0-1.297.578-.5.563-.5 1.797 0 1.266.484 1.828.485.563 1.25.563.625 0 1.031-.375.422-.375.547-1.172zm6 0l1.032.14q-.172 1.063-.875 1.672-.704.61-1.72.61-1.28 0-2.062-.829-.765-.843-.765-2.406 0-1 .328-1.75.344-.765 1.015-1.14.688-.375 1.5-.375 1 0 1.641.515.656.5.844 1.453l-1.031.157q-.141-.625-.516-.938-.375-.328-.906-.328-.797 0-1.297.578-.5.563-.5 1.797 0 1.266.484 1.828.485.563 1.25.563.625 0 1.031-.375.422-.375.547-1.172zm6.188.281l1.094.125q-.25.953-.954 1.484-.703.532-1.78.532-1.36 0-2.173-.844-.797-.844-.797-2.36 0-1.562.813-2.421.813-.875 2.094-.875 1.25 0 2.031.843.797.844.797 2.391v.281h-4.64q.062 1.031.577 1.578.516.532 1.297.532.578 0 .985-.297.421-.313.656-.969zm-3.453-1.703h3.468q-.062-.797-.39-1.188-.516-.609-1.313-.609-.734 0-1.234.484-.484.485-.531 1.313zm5.781 1.844l1.031-.157q.094.625.485.953.406.329 1.14.329.719 0 1.063-.282.36-.297.36-.703 0-.36-.313-.562-.22-.14-1.079-.36-1.156-.297-1.609-.5-.437-.218-.672-.593-.234-.375-.234-.844 0-.406.187-.766.188-.36.516-.594.25-.171.672-.296.422-.125.922-.125.718 0 1.265.218.563.203.828.563.266.36.36.953l-1.031.14q-.063-.468-.407-.734-.328-.281-.953-.281-.719 0-1.031.25-.313.234-.313.562 0 .204.125.36.141.172.407.281.156.063.937.266 1.125.312 1.563.5.437.187.687.547.25.359.25.906 0 .531-.312 1-.297.453-.875.719-.578.25-1.313.25-1.219 0-1.86-.5-.624-.516-.796-1.5zm6 0l1.031-.157q.094.625.485.953.406.329 1.14.329.719 0 1.063-.282.36-.297.36-.703 0-.36-.313-.562-.22-.14-1.079-.36-1.156-.297-1.609-.5-.437-.218-.672-.593-.234-.375-.234-.844 0-.406.187-.766.188-.36.516-.594.25-.171.672-.296.422-.125.922-.125.718 0 1.265.218.563.203.828.563.266.36.36.953l-1.031.14q-.063-.468-.407-.734-.328-.281-.953-.281-.719 0-1.031.25-.313.234-.313.562 0 .204.125.36.141.172.407.281.156.063.937.266 1.125.312 1.563.5.437.187.687.547.25.359.25.906 0 .531-.312 1-.297.453-.875.719-.578.25-1.313.25-1.219 0-1.86-.5-.624-.516-.796-1.5zm6.422-5.516v-1.219h1.062v1.219h-1.062zm0 7.375v-6.219h1.062v6.219h-1.062zm3.969 0h-.985v-8.594h1.063v3.063q.672-.828 1.703-.828.578 0 1.078.234.516.219.844.64.343.422.531 1.016.188.594.188 1.266 0 1.594-.797 2.469-.797.875-1.891.875-1.11 0-1.734-.922v.781zm-.016-3.156q0 1.11.313 1.61.5.812 1.343.812.688 0 1.188-.594.515-.594.515-1.797 0-1.219-.484-1.797-.484-.578-1.172-.578-.687 0-1.203.61-.5.593-.5 1.734zm6.047-4.219v-1.219h1.062v1.219h-1.062zm0 7.375v-6.219h1.062v6.219h-1.062zm2.969 0v-8.594h1.062v8.594h-1.062zm3.03-7.375v-1.219h1.063v1.219h-1.062zm0 7.375v-6.219h1.063v6.219h-1.062zm5.298-.938l.156.922q-.453.094-.797.094-.578 0-.89-.172-.313-.187-.454-.484-.125-.297-.125-1.25V99.9h-.765v-.813h.765V97.54l1.047-.625v2.172h1.063v.813h-1.063v3.64q0 .453.047.578.063.125.188.204.125.078.359.078.188 0 .469-.032zm.656 3.329l-.125-.985q.344.094.61.094.343 0 .546-.125.219-.11.36-.313.093-.171.328-.796.015-.079.094-.25l-2.376-6.235h1.141l1.297 3.594q.25.687.453 1.453.188-.734.438-1.422l1.328-3.625h1.047l-2.36 6.328q-.39 1.016-.594 1.407-.28.53-.656.765-.36.25-.86.25-.296 0-.671-.14zm13.11-4.672l1.03.14q-.171 1.063-.874 1.672-.704.61-1.72.61-1.28 0-2.062-.829-.765-.843-.765-2.406 0-1 .328-1.75.344-.765 1.016-1.14.687-.375 1.5-.375 1 0 1.64.515.656.5.844 1.453l-1.031.157q-.141-.625-.516-.938-.375-.328-.906-.328-.797 0-1.297.578-.5.563-.5 1.797 0 1.266.484 1.828.485.563 1.25.563.625 0 1.031-.375.422-.375.547-1.172zm6 1.515q-.594.5-1.141.703-.531.204-1.156.204-1.032 0-1.579-.5-.547-.5-.547-1.282 0-.453.204-.828.203-.39.546-.61.344-.234.766-.343.297-.094.938-.172 1.265-.14 1.875-.36v-.265q0-.656-.297-.922-.406-.343-1.203-.343-.735 0-1.094.265-.36.25-.531.906l-1.032-.14q.141-.656.47-1.063.327-.406.937-.625.609-.218 1.406-.218.797 0 1.297.187.5.188.734.469.234.281.328.719.047.265.047.968v1.407q0 1.468.063 1.859.078.39.28.75h-1.108q-.157-.328-.204-.766zm-.094-2.359q-.579.234-1.72.406-.655.094-.921.219-.266.11-.422.328-.14.219-.14.5 0 .422.312.703.328.281.938.281.609 0 1.078-.265.484-.266.703-.735.172-.359.172-1.046v-.391zm7.093.844l1.032.14q-.172 1.063-.875 1.672-.704.61-1.72.61-1.28 0-2.062-.829-.765-.843-.765-2.406 0-1 .328-1.75.344-.765 1.016-1.14.687-.375 1.5-.375 1 0 1.64.515.656.5.844 1.453l-1.031.157q-.141-.625-.516-.938-.375-.328-.906-.328-.797 0-1.297.578-.5.563-.5 1.797 0 1.266.484 1.828.485.563 1.25.563.625 0 1.031-.375.422-.375.547-1.172zm1.938 2.281v-8.594h1.047v3.078q.734-.843 1.86-.843.702 0 1.202.28.516.266.735.75.218.47.218 1.391v3.938h-1.047v-3.938q0-.796-.343-1.156-.344-.36-.969-.36-.469 0-.89.25-.407.235-.594.657-.172.406-.172 1.14v3.407h-1.047zm7-7.375v-1.219h1.062v1.219h-1.062zm0 7.375v-6.219h1.062v6.219h-1.062zm3 0v-6.219h.937v.875q.688-1.015 1.985-1.015.562 0 1.031.203.484.203.719.531.234.328.328.766.047.296.047 1.03v3.829h-1.047v-3.781q0-.657-.125-.969-.125-.313-.438-.5-.312-.203-.734-.203-.672 0-1.172.437-.484.422-.484 1.61v3.406h-1.047zm6.797.516l1.031.156q.063.469.36.687.39.297 1.062.297.734 0 1.125-.297.406-.297.547-.812.094-.328.078-1.36-.688.813-1.719.813-1.281 0-1.984-.922-.703-.937-.703-2.219 0-.89.312-1.64.328-.766.938-1.172.609-.406 1.437-.406 1.11 0 1.828.89v-.75h.969v5.375q0 1.453-.297 2.063-.297.61-.937.953-.641.36-1.579.36-1.109 0-1.796-.5-.688-.5-.672-1.516zm.875-3.735q0 1.219.484 1.781.484.563 1.219.563.734 0 1.219-.563.5-.562.5-1.75 0-1.14-.516-1.718-.5-.578-1.219-.578-.703 0-1.203.578-.484.562-.484 1.687zM150.928 119.306v-.781q-.594.922-1.734.922-.75 0-1.375-.407-.625-.422-.969-1.156t-.344-1.687q0-.922.313-1.688.312-.766.937-1.156.625-.406 1.39-.406.563 0 1 .234.438.234.72.61v-3.079h1.046v8.594h-.984zm-3.328-3.11q0 1.204.5 1.797.5.579 1.188.579.687 0 1.171-.563.485-.562.485-1.719 0-1.28-.5-1.875-.485-.593-1.203-.593-.704 0-1.172.578-.469.562-.469 1.797zm6.297-4.265v-1.219h1.062v1.219h-1.062zm0 7.375v-6.219h1.062v6.219h-1.062zm2.578-1.86l1.031-.156q.094.625.485.953.406.329 1.14.329.719 0 1.063-.282.36-.297.36-.703 0-.36-.313-.562-.22-.14-1.079-.36-1.156-.297-1.609-.5-.437-.218-.672-.593-.234-.375-.234-.844 0-.406.187-.766.188-.36.516-.594.25-.171.672-.296.422-.125.922-.125.719 0 1.265.218.563.203.828.563.266.36.36.953l-1.031.14q-.063-.468-.407-.734-.328-.281-.953-.281-.719 0-1.031.25-.313.234-.313.562 0 .204.125.36.141.172.407.281.156.063.937.266 1.125.312 1.563.5.437.187.687.547.25.359.25.906 0 .531-.312 1-.297.453-.875.719-.578.25-1.313.25-1.219 0-1.86-.5-.624-.516-.796-1.5zm10.484 1.094q-.593.5-1.14.703-.531.204-1.156.204-1.032 0-1.579-.5-.547-.5-.547-1.282 0-.453.204-.828.203-.39.546-.61.344-.234.766-.343.297-.094.938-.172 1.265-.14 1.875-.36v-.265q0-.656-.297-.922-.406-.343-1.203-.343-.735 0-1.094.265-.36.25-.531.906l-1.032-.14q.141-.656.47-1.063.327-.406.937-.625.609-.218 1.406-.218.797 0 1.297.187.5.188.734.469.234.281.328.719.047.265.047.968v1.407q0 1.468.063 1.859.078.39.28.75h-1.108q-.157-.328-.204-.766zm-.093-2.359q-.579.234-1.72.406-.655.094-.921.219-.266.11-.422.328-.14.219-.14.5 0 .422.312.703.328.281.938.281.609 0 1.078-.265.484-.266.703-.735.172-.359.172-1.046v-.391zm4 3.125h-.985v-8.594h1.063v3.063q.672-.828 1.703-.828.578 0 1.078.234.516.219.844.64.344.422.531 1.016.188.594.188 1.266 0 1.594-.797 2.469-.797.875-1.891.875-1.11 0-1.734-.922v.781zm-.016-3.156q0 1.11.313 1.61.5.812 1.343.812.688 0 1.188-.594.515-.594.515-1.797 0-1.219-.484-1.797-.484-.578-1.172-.578-.687 0-1.203.61-.5.593-.5 1.734zm6.016 3.156v-8.594h1.062v8.594h-1.062zm7.28-2l1.095.125q-.25.953-.954 1.484-.703.532-1.78.532-1.36 0-2.173-.844-.797-.844-.797-2.36 0-1.562.813-2.421.813-.875 2.094-.875 1.25 0 2.031.843.797.844.797 2.391v.281h-4.64q.062 1.031.577 1.578.516.532 1.297.532.578 0 .985-.297.421-.313.656-.969zm-3.452-1.703h3.469q-.063-.797-.391-1.188-.516-.609-1.313-.609-.734 0-1.234.484-.484.485-.531 1.313zm10.234 3.703v-.781q-.594.922-1.734.922-.75 0-1.375-.407-.625-.422-.969-1.156t-.344-1.687q0-.922.313-1.688.312-.766.937-1.156.625-.406 1.39-.406.563 0 1 .234.438.234.72.61v-3.079h1.046v8.594h-.984zm-3.328-3.11q0 1.204.5 1.797.5.579 1.188.579.687 0 1.171-.563.485-.562.485-1.719 0-1.28-.5-1.875-.485-.593-1.203-.593-.704 0-1.172.578-.469.562-.469 1.797zM63.022 172.5v-8.594h3.25q.844 0 1.297.078.64.11 1.062.407.438.297.688.828.265.531.265 1.172 0 1.093-.703 1.859-.687.75-2.515.75h-2.204v3.5h-1.14zm1.14-4.5h2.22q1.109 0 1.562-.406.468-.422.468-1.172 0-.531-.28-.906-.266-.391-.704-.516-.297-.078-1.062-.078h-2.204V168zm10.797 3.734q-.593.5-1.14.703-.532.204-1.157.204-1.03 0-1.578-.5-.547-.5-.547-1.282 0-.453.204-.828.203-.39.546-.61.344-.233.766-.343.297-.094.938-.172 1.265-.14 1.875-.36v-.265q0-.656-.297-.922-.407-.343-1.203-.343-.735 0-1.094.265-.36.25-.531.906l-1.032-.14q.141-.656.47-1.063.327-.406.937-.625.609-.218 1.406-.218.797 0 1.297.187.5.188.734.469.234.281.328.719.047.265.047.968v1.407q0 1.468.063 1.859.078.39.28.75h-1.109q-.156-.328-.203-.766zm-.093-2.359q-.579.234-1.72.406-.655.094-.921.219-.266.11-.422.328-.14.219-.14.5 0 .422.312.703.328.281.938.281.609 0 1.078-.265.484-.266.703-.734.172-.36.172-1.047v-.391zm2.828 3.64l1.031.157q.063.469.36.687.39.297 1.062.297.734 0 1.125-.297.406-.297.547-.812.093-.328.078-1.36-.688.813-1.719.813-1.281 0-1.984-.922-.703-.937-.703-2.219 0-.89.312-1.64.328-.766.938-1.172.609-.406 1.437-.406 1.11 0 1.828.89v-.75h.969v5.375q0 1.453-.297 2.063-.297.61-.937.953-.641.36-1.579.36-1.109 0-1.796-.5-.688-.5-.672-1.516zm.875-3.734q0 1.219.484 1.781.484.563 1.219.563.734 0 1.219-.563.5-.562.5-1.75 0-1.14-.516-1.718-.5-.578-1.219-.578-.703 0-1.203.578-.484.562-.484 1.687zm10.578 1.219l1.094.125q-.25.953-.954 1.484-.703.532-1.78.532-1.36 0-2.173-.844-.797-.844-.797-2.36 0-1.562.813-2.421.813-.875 2.094-.875 1.25 0 2.031.843.797.844.797 2.391v.281h-4.64q.062 1.031.577 1.578.516.532 1.297.532.578 0 .985-.297.421-.313.656-.969zm-3.453-1.703h3.468q-.062-.797-.39-1.188-.516-.609-1.313-.609-.734 0-1.234.484-.484.485-.531 1.313zm10.343 3.703l-1.906-6.219h1.094l.984 3.594.375 1.328q.032-.094.328-1.281l.985-3.64h1.078l.938 3.609.312 1.187.36-1.203 1.062-3.594h1.031l-1.953 6.219h-1.094l-.984-3.734-.25-1.047-1.25 4.781h-1.11zm8.157 0v-1.203h1.203v1.203h-1.203zm5.422-3.266v-1.203q.609-.703 1.625-.703.343 0 .734.11.39.093 1.11.406.406.172.593.219.203.046.422.046.375 0 .781-.218.406-.235.719-.578v1.25q-.375.343-.766.5-.375.156-.859.156-.344 0-.672-.078-.312-.078-1.016-.391-.687-.313-1.14-.313-.375 0-.719.172-.328.157-.812.625zm12.53 2.25v1.016h-5.687q0-.375.125-.734.22-.578.688-1.141.484-.563 1.39-1.297 1.407-1.156 1.891-1.828.5-.672.5-1.266 0-.625-.453-1.047-.453-.437-1.172-.437-.766 0-1.219.453-.453.453-.468 1.266l-1.079-.11q.11-1.218.829-1.843.734-.641 1.968-.641 1.235 0 1.953.688.72.687.72 1.703 0 .515-.22 1.015-.203.485-.703 1.047-.484.547-1.609 1.5-.953.797-1.234 1.094-.266.281-.438.562h4.219zm1.454-3.218q0-1.532.313-2.453.312-.938.921-1.438.625-.5 1.563-.5.687 0 1.203.281.531.281.875.813.344.515.531 1.265.188.75.188 2.032 0 1.515-.313 2.437-.297.922-.922 1.438-.609.5-1.562.5-1.235 0-1.953-.891-.844-1.063-.844-3.484zm1.078 0q0 2.109.5 2.812.5.703 1.219.703.734 0 1.219-.703.5-.703.5-2.812 0-2.125-.5-2.813-.485-.703-1.235-.703-.719 0-1.156.61-.547.78-.547 2.906zm5.922 0q0-1.532.313-2.453.312-.938.921-1.438.625-.5 1.563-.5.687 0 1.203.281.531.281.875.813.344.515.531 1.265.188.75.188 2.032 0 1.515-.313 2.437-.297.922-.922 1.438-.609.5-1.562.5-1.234 0-1.953-.891-.844-1.063-.844-3.484zm1.078 0q0 2.109.5 2.812.5.703 1.219.703.734 0 1.219-.703.5-.703.5-2.812 0-2.125-.5-2.813-.485-.703-1.235-.703-.719 0-1.156.61-.547.78-.547 2.906zm13.469 2.234l1.094.125q-.25.953-.954 1.484-.703.532-1.78.532-1.36 0-2.173-.844-.797-.844-.797-2.36 0-1.562.813-2.421.813-.875 2.094-.875 1.25 0 2.031.843.797.844.797 2.391v.281h-4.64q.062 1.031.577 1.578.516.532 1.297.532.578 0 .985-.297.421-.313.656-.969zm-3.453-1.703h3.469q-.063-.797-.391-1.188-.516-.609-1.313-.609-.734 0-1.234.484-.484.485-.531 1.313zm6.172 3.703v-8.594h1.062v8.594h-1.062zm7.28-2l1.095.125q-.25.953-.954 1.484-.703.532-1.78.532-1.36 0-2.173-.844-.797-.844-.797-2.36 0-1.562.813-2.421.813-.875 2.094-.875 1.25 0 2.031.843.797.844.797 2.391v.281h-4.64q.062 1.031.577 1.578.516.532 1.297.532.578 0 .985-.297.421-.313.656-.969zm-3.452-1.703h3.469q-.063-.797-.391-1.188-.516-.609-1.313-.609-.734 0-1.234.484-.484.485-.531 1.313zm6.203 3.703v-6.219h.937v.875q.297-.469.782-.734.484-.281 1.109-.281.688 0 1.125.28.453.282.625.798.75-1.078 1.922-1.078.937 0 1.422.515.5.5.5 1.578v4.266h-1.047v-3.922q0-.625-.11-.906-.093-.281-.359-.453t-.64-.172q-.657 0-1.094.437-.422.438-.422 1.407v3.609h-1.063v-4.047q0-.703-.265-1.047-.25-.36-.828-.36-.454 0-.829.235-.375.235-.546.688-.172.453-.172 1.297v3.234h-1.047zm14.25-2l1.094.125q-.25.953-.954 1.484-.703.532-1.78.532-1.36 0-2.173-.844-.797-.844-.797-2.36 0-1.562.813-2.421.813-.875 2.094-.875 1.25 0 2.031.843.797.844.797 2.391v.281h-4.64q.062 1.031.577 1.578.516.532 1.297.532.578 0 .985-.297.421-.313.656-.969zm-3.453-1.703h3.469q-.063-.797-.391-1.188-.516-.609-1.313-.609-.734 0-1.234.484-.484.485-.531 1.313zm6.203 3.703v-6.219h.937v.875q.688-1.015 1.985-1.015.562 0 1.031.203.484.203.719.531.234.328.328.766.047.297.047 1.03v3.829h-1.047v-3.781q0-.656-.125-.969-.125-.313-.438-.5-.312-.203-.734-.203-.672 0-1.172.437-.484.422-.484 1.61v3.406h-1.047zm9.297-.938l.156.922q-.453.094-.797.094-.578 0-.89-.172-.313-.187-.454-.484-.125-.297-.125-1.25v-3.578h-.765v-.813h.765v-1.547l1.047-.625v2.172h1.063v.813h-1.063v3.64q0 .453.047.578.063.125.188.204.125.078.359.078.188 0 .469-.031zm.281-.921l1.031-.157q.094.625.485.953.406.329 1.14.329.719 0 1.063-.282.36-.297.36-.703 0-.36-.313-.562-.22-.14-1.079-.36-1.156-.297-1.609-.5-.437-.218-.672-.593-.234-.375-.234-.844 0-.406.187-.766.188-.36.516-.594.25-.171.672-.296.422-.125.922-.125.719 0 1.265.218.563.203.828.563.266.36.36.953l-1.031.14q-.063-.468-.407-.734-.328-.281-.953-.281-.719 0-1.031.25-.313.234-.313.563 0 .203.125.359.141.172.407.281.156.063.937.266 1.125.312 1.563.5.437.187.687.547.25.359.25.906 0 .531-.312 1-.297.453-.875.719-.578.25-1.313.25-1.219 0-1.86-.5-.624-.516-.796-1.5zm6.688 1.859v-1.203h1.203v1.203q0 .656-.235 1.063-.234.421-.734.64l-.297-.453q.328-.14.484-.438.157-.28.188-.812h-.61zM80.084 186.5l3.297-8.594H84.6l3.516 8.594h-1.282l-1.015-2.61H82.24l-.954 2.61h-1.203zm2.485-3.531h2.906l-.89-2.375q-.422-1.078-.61-1.781-.172.828-.469 1.64l-.937 2.516zm10.39 1.25l1.032.14q-.172 1.063-.875 1.672-.704.61-1.72.61-1.28 0-2.062-.828-.765-.844-.765-2.407 0-1 .328-1.75.344-.765 1.015-1.14.688-.375 1.5-.375 1 0 1.641.515.656.5.844 1.453l-1.031.157q-.141-.625-.516-.938-.375-.328-.906-.328-.797 0-1.297.578-.5.563-.5 1.797 0 1.266.484 1.828.485.563 1.25.563.625 0 1.031-.375.422-.375.547-1.172zm6 0l1.032.14q-.172 1.063-.875 1.672-.704.61-1.72.61-1.28 0-2.062-.828-.765-.844-.765-2.407 0-1 .328-1.75.344-.765 1.015-1.14.688-.375 1.5-.375 1 0 1.641.515.656.5.844 1.453l-1.031.157q-.141-.625-.516-.938-.375-.328-.906-.328-.797 0-1.297.578-.5.563-.5 1.797 0 1.266.484 1.828.485.563 1.25.563.625 0 1.031-.375.422-.375.547-1.172zm6.188.281l1.094.125q-.25.953-.954 1.484-.703.532-1.78.532-1.36 0-2.173-.844-.797-.844-.797-2.36 0-1.562.813-2.421.813-.875 2.094-.875 1.25 0 2.031.843.797.844.797 2.391v.281h-4.64q.062 1.031.577 1.578.516.532 1.297.532.578 0 .985-.297.421-.313.656-.969zm-3.453-1.703h3.468q-.062-.797-.39-1.188-.516-.609-1.313-.609-.734 0-1.234.484-.484.485-.531 1.313zm5.781 1.844l1.031-.157q.094.625.485.953.406.329 1.14.329.719 0 1.063-.282.36-.297.36-.703 0-.36-.313-.562-.22-.14-1.079-.36-1.156-.297-1.609-.5-.437-.218-.672-.593-.234-.375-.234-.844 0-.406.187-.766.188-.36.516-.594.25-.171.672-.296.422-.125.922-.125.718 0 1.265.218.563.203.828.563.266.36.36.953l-1.031.14q-.063-.468-.407-.734-.328-.281-.953-.281-.719 0-1.031.25-.313.234-.313.563 0 .203.125.359.141.172.407.281.156.063.937.266 1.125.312 1.563.5.437.187.687.547.25.359.25.906 0 .531-.312 1-.297.453-.875.719-.578.25-1.313.25-1.219 0-1.86-.5-.624-.516-.796-1.5zm6 0l1.031-.157q.094.625.485.953.406.329 1.14.329.719 0 1.063-.282.36-.297.36-.703 0-.36-.313-.562-.22-.14-1.079-.36-1.156-.297-1.609-.5-.437-.218-.672-.593-.234-.375-.234-.844 0-.406.187-.766.188-.36.516-.594.25-.171.672-.296.422-.125.922-.125.718 0 1.265.218.563.203.828.563.266.36.36.953l-1.031.14q-.063-.468-.407-.734-.328-.281-.953-.281-.719 0-1.031.25-.313.234-.313.563 0 .203.125.359.141.172.407.281.156.063.937.266 1.125.312 1.563.5.437.187.687.547.25.359.25.906 0 .531-.312 1-.297.453-.875.719-.578.25-1.313.25-1.219 0-1.86-.5-.624-.516-.796-1.5zm6.422-5.516v-1.219h1.062v1.219h-1.062zm0 7.375v-6.219h1.062v6.219h-1.062zm3.969 0h-.985v-8.594h1.063v3.063q.672-.828 1.703-.828.578 0 1.078.234.516.219.844.64.343.423.531 1.016.188.594.188 1.266 0 1.594-.797 2.469-.797.875-1.891.875-1.11 0-1.734-.922v.781zm-.016-3.156q0 1.11.313 1.61.5.812 1.343.812.688 0 1.188-.594.515-.594.515-1.797 0-1.219-.484-1.797-.484-.578-1.172-.578-.687 0-1.203.61-.5.593-.5 1.734zm6.047-4.219v-1.219h1.062v1.219h-1.062zm0 7.375v-6.219h1.062v6.219h-1.062zm2.969 0v-8.594h1.062v8.594h-1.062zm3.03-7.375v-1.219h1.063v1.219h-1.062zm0 7.375v-6.219h1.063v6.219h-1.062zm5.298-.938l.156.922q-.453.094-.797.094-.578 0-.89-.172-.313-.187-.454-.484-.125-.297-.125-1.25v-3.578h-.765v-.813h.765v-1.547l1.047-.625v2.172h1.063v.813h-1.063v3.64q0 .453.047.578.063.125.188.204.125.078.359.078.188 0 .469-.031zm.656 3.329l-.125-.985q.344.094.61.094.343 0 .546-.125.219-.11.36-.313.093-.171.328-.796.015-.078.094-.25l-2.376-6.235h1.141l1.297 3.594q.25.688.453 1.453.188-.734.438-1.422l1.328-3.625h1.047l-2.36 6.328q-.39 1.016-.594 1.407-.28.53-.656.765-.36.25-.86.25-.296 0-.671-.14zm13.11-4.672l1.03.14q-.171 1.063-.874 1.672-.704.61-1.72.61-1.28 0-2.062-.828-.765-.844-.765-2.407 0-1 .328-1.75.344-.765 1.016-1.14.687-.375 1.5-.375 1 0 1.64.515.656.5.844 1.453l-1.031.157q-.141-.625-.516-.938-.375-.328-.906-.328-.797 0-1.297.578-.5.563-.5 1.797 0 1.266.484 1.828.485.563 1.25.563.625 0 1.031-.375.422-.375.547-1.172zm6 1.515q-.594.5-1.141.703-.531.204-1.156.204-1.032 0-1.579-.5-.547-.5-.547-1.282 0-.453.204-.828.203-.39.546-.61.344-.233.766-.343.297-.094.938-.172 1.265-.14 1.875-.36v-.265q0-.656-.297-.922-.406-.343-1.203-.343-.735 0-1.094.265-.36.25-.531.906l-1.032-.14q.141-.656.47-1.063.327-.406.937-.625.609-.218 1.406-.218.797 0 1.297.187.5.188.734.469.234.281.328.719.047.265.047.968v1.407q0 1.468.063 1.859.078.39.28.75h-1.108q-.157-.328-.204-.766zm-.094-2.359q-.579.234-1.72.406-.655.094-.921.219-.266.11-.422.328-.14.219-.14.5 0 .422.312.703.328.281.938.281.609 0 1.078-.265.484-.266.703-.734.172-.36.172-1.047v-.391zm7.093.844l1.032.14q-.172 1.063-.875 1.672-.704.61-1.72.61-1.28 0-2.062-.828-.765-.844-.765-2.407 0-1 .328-1.75.344-.765 1.016-1.14.687-.375 1.5-.375 1 0 1.64.515.656.5.844 1.453l-1.031.157q-.141-.625-.516-.938-.375-.328-.906-.328-.797 0-1.297.578-.5.563-.5 1.797 0 1.266.484 1.828.485.563 1.25.563.625 0 1.031-.375.422-.375.547-1.172zm1.938 2.281v-8.594h1.047v3.078q.734-.843 1.86-.843.702 0 1.202.28.516.267.735.75.218.47.218 1.392v3.937h-1.047v-3.938q0-.796-.343-1.156-.344-.36-.969-.36-.469 0-.89.25-.407.235-.594.657-.172.406-.172 1.14v3.407h-1.047zm7-7.375v-1.219h1.062v1.219h-1.062zm0 7.375v-6.219h1.062v6.219h-1.062zm3 0v-6.219h.937v.875q.688-1.015 1.985-1.015.562 0 1.031.203.484.203.719.531.234.328.328.766.047.297.047 1.03v3.829h-1.047v-3.781q0-.656-.125-.969-.125-.313-.438-.5-.312-.203-.734-.203-.672 0-1.172.437-.484.422-.484 1.61v3.406h-1.047zm6.797.516l1.031.156q.063.469.36.687.39.297 1.062.297.734 0 1.125-.297.406-.297.547-.812.094-.328.078-1.36-.688.813-1.719.813-1.281 0-1.984-.922-.703-.937-.703-2.219 0-.89.312-1.64.328-.766.938-1.172.609-.406 1.437-.406 1.11 0 1.828.89v-.75h.969v5.375q0 1.453-.297 2.063-.297.61-.937.953-.641.36-1.579.36-1.109 0-1.796-.5-.688-.5-.672-1.516zm.875-3.735q0 1.219.484 1.781.484.563 1.219.563.734 0 1.219-.563.5-.562.5-1.75 0-1.14-.516-1.718-.5-.578-1.219-.578-.703 0-1.203.578-.484.562-.484 1.687zM150.928 200.5v-.781q-.594.922-1.734.922-.75 0-1.375-.407-.625-.422-.969-1.156t-.344-1.687q0-.922.313-1.688.312-.766.937-1.156.625-.406 1.39-.406.563 0 1 .234.438.234.72.61v-3.079h1.046v8.594h-.984zm-3.328-3.11q0 1.204.5 1.798.5.578 1.188.578.687 0 1.171-.563.485-.562.485-1.719 0-1.28-.5-1.875-.485-.593-1.203-.593-.704 0-1.172.578-.469.562-.469 1.797zm6.297-4.265v-1.219h1.062v1.219h-1.062zm0 7.375v-6.219h1.062v6.219h-1.062zm2.578-1.86l1.031-.156q.094.625.485.953.406.329 1.14.329.719 0 1.063-.282.36-.297.36-.703 0-.36-.313-.562-.22-.14-1.079-.36-1.156-.297-1.609-.5-.437-.218-.672-.593-.234-.375-.234-.844 0-.406.187-.766.188-.36.516-.594.25-.171.672-.296.422-.125.922-.125.719 0 1.265.218.563.203.828.563.266.36.36.953l-1.031.14q-.063-.468-.407-.734-.328-.281-.953-.281-.719 0-1.031.25-.313.234-.313.563 0 .203.125.359.141.172.407.281.156.063.937.266 1.125.312 1.563.5.437.187.687.547.25.359.25.906 0 .531-.312 1-.297.453-.875.719-.578.25-1.313.25-1.219 0-1.86-.5-.624-.516-.796-1.5zm10.484 1.094q-.593.5-1.14.703-.531.204-1.156.204-1.032 0-1.579-.5-.547-.5-.547-1.282 0-.453.204-.828.203-.39.546-.61.344-.233.766-.343.297-.094.938-.172 1.265-.14 1.875-.36v-.265q0-.656-.297-.922-.406-.343-1.203-.343-.735 0-1.094.265-.36.25-.531.906l-1.032-.14q.141-.656.47-1.063.327-.406.937-.625.609-.218 1.406-.218.797 0 1.297.187.5.188.734.469.234.281.328.719.047.265.047.968v1.407q0 1.468.063 1.859.078.39.28.75h-1.108q-.157-.328-.204-.766zm-.093-2.359q-.579.234-1.72.406-.655.094-.921.219-.266.11-.422.328-.14.219-.14.5 0 .422.312.703.328.281.938.281.609 0 1.078-.265.484-.266.703-.734.172-.36.172-1.047v-.391zm4 3.125h-.985v-8.594h1.063v3.063q.672-.828 1.703-.828.578 0 1.078.234.516.219.844.64.344.423.531 1.016.188.594.188 1.266 0 1.594-.797 2.469-.797.875-1.891.875-1.11 0-1.734-.922v.781zm-.016-3.156q0 1.11.313 1.61.5.812 1.343.812.688 0 1.188-.594.515-.594.515-1.797 0-1.219-.484-1.797-.484-.578-1.172-.578-.687 0-1.203.61-.5.593-.5 1.734zm6.016 3.156v-8.594h1.062v8.594h-1.062zm7.28-2l1.095.125q-.25.953-.954 1.484-.703.532-1.78.532-1.36 0-2.173-.844-.797-.844-.797-2.36 0-1.562.813-2.421.813-.875 2.094-.875 1.25 0 2.031.843.797.844.797 2.391v.281h-4.64q.062 1.031.577 1.578.516.532 1.297.532.578 0 .985-.297.421-.313.656-.969zm-3.452-1.703h3.469q-.063-.797-.391-1.188-.516-.609-1.313-.609-.734 0-1.234.484-.484.485-.531 1.313zm10.234 3.703v-.781q-.594.922-1.734.922-.75 0-1.375-.407-.625-.422-.969-1.156t-.344-1.687q0-.922.313-1.688.312-.766.937-1.156.625-.406 1.39-.406.563 0 1 .234.438.234.72.61v-3.079h1.046v8.594h-.984zm-3.328-3.11q0 1.204.5 1.798.5.578 1.188.578.687 0 1.171-.563.485-.562.485-1.719 0-1.28-.5-1.875-.485-.593-1.203-.593-.704 0-1.172.578-.469.562-.469 1.797zM63.022 253.694V245.1h3.25q.844 0 1.297.078.64.11 1.062.407.438.297.688.828.265.531.265 1.172 0 1.093-.703 1.859-.687.75-2.515.75h-2.204v3.5h-1.14zm1.14-4.5h2.22q1.109 0 1.562-.406.468-.422.468-1.172 0-.531-.28-.906-.266-.391-.704-.516-.297-.078-1.062-.078h-2.204v3.078zm10.797 3.734q-.593.5-1.14.704-.532.203-1.157.203-1.03 0-1.578-.5-.547-.5-.547-1.282 0-.453.204-.828.203-.39.546-.61.344-.233.766-.343.297-.094.938-.172 1.265-.14 1.875-.36v-.265q0-.656-.297-.922-.407-.343-1.203-.343-.735 0-1.094.265-.36.25-.531.907l-1.032-.141q.141-.656.47-1.063.327-.406.937-.625.609-.218 1.406-.218.797 0 1.297.187.5.188.734.469.234.281.328.719.047.265.047.968v1.407q0 1.468.063 1.859.078.39.28.75h-1.109q-.156-.328-.203-.766zm-.093-2.359q-.579.234-1.72.406-.655.094-.921.219-.266.11-.422.328-.14.219-.14.5 0 .422.312.703.328.282.938.282.609 0 1.078-.266.484-.266.703-.734.172-.36.172-1.047v-.391zm2.828 3.64l1.031.157q.063.469.36.687.39.297 1.062.297.734 0 1.125-.297.406-.296.547-.812.093-.328.078-1.36-.688.813-1.719.813-1.281 0-1.984-.922-.703-.937-.703-2.219 0-.89.312-1.64.328-.766.938-1.172.609-.406 1.437-.406 1.11 0 1.828.89v-.75h.969v5.375q0 1.453-.297 2.063-.297.61-.937.953-.641.36-1.579.36-1.109 0-1.796-.5-.688-.5-.672-1.516zm.875-3.734q0 1.219.484 1.782.484.562 1.219.562.734 0 1.219-.562.5-.563.5-1.75 0-1.141-.516-1.72-.5-.577-1.219-.577-.703 0-1.203.578-.484.562-.484 1.687zm10.578 1.219l1.094.125q-.25.953-.954 1.484-.703.532-1.78.532-1.36 0-2.173-.844-.797-.844-.797-2.36 0-1.562.813-2.421.813-.875 2.094-.875 1.25 0 2.031.843.797.844.797 2.391v.281h-4.64q.062 1.032.577 1.578.516.532 1.297.532.578 0 .985-.297.421-.313.656-.969zm-3.453-1.703h3.468q-.062-.797-.39-1.188-.516-.609-1.313-.609-.734 0-1.234.484-.484.485-.531 1.313zm10.343 3.703l-1.906-6.219h1.094l.984 3.594.375 1.328q.032-.094.328-1.281l.985-3.64h1.078l.938 3.609.312 1.187.36-1.203 1.062-3.594h1.031l-1.953 6.219h-1.094l-.984-3.734-.25-1.047-1.25 4.781h-1.11zm8.157 0v-1.203h1.203v1.203h-1.203zm5.422-3.266v-1.203q.609-.703 1.625-.703.343 0 .734.11.39.093 1.11.406.406.172.593.219.203.046.422.046.375 0 .781-.218.406-.235.719-.578v1.25q-.375.343-.766.5-.375.156-.859.156-.344 0-.672-.078-.312-.078-1.016-.391-.687-.312-1.14-.312-.375 0-.719.171-.328.157-.812.625zm12.53 2.25v1.016h-5.687q0-.375.125-.734.22-.578.688-1.141.484-.562 1.39-1.297 1.407-1.156 1.891-1.828.5-.672.5-1.266 0-.625-.453-1.046-.453-.438-1.172-.438-.766 0-1.219.453-.453.453-.468 1.266l-1.079-.11q.11-1.218.829-1.843.734-.641 1.968-.641 1.235 0 1.953.688.72.687.72 1.703 0 .515-.22 1.015-.203.485-.703 1.047-.484.547-1.609 1.5-.953.797-1.234 1.094-.266.281-.438.562h4.219zm1.454-3.218q0-1.532.313-2.453.312-.938.921-1.438.625-.5 1.563-.5.687 0 1.203.281.531.282.875.813.344.515.531 1.265.188.75.188 2.032 0 1.515-.313 2.437-.297.922-.922 1.438-.609.5-1.562.5-1.235 0-1.953-.891-.844-1.062-.844-3.484zm1.078 0q0 2.109.5 2.812.5.703 1.219.703.734 0 1.219-.703.5-.703.5-2.812 0-2.125-.5-2.813-.485-.703-1.235-.703-.719 0-1.156.61-.547.78-.547 2.906zm5.922 0q0-1.532.313-2.453.312-.938.921-1.438.625-.5 1.563-.5.687 0 1.203.281.531.282.875.813.344.515.531 1.265.188.75.188 2.032 0 1.515-.313 2.437-.297.922-.922 1.438-.609.5-1.562.5-1.234 0-1.953-.891-.844-1.062-.844-3.484zm1.078 0q0 2.109.5 2.812.5.703 1.219.703.734 0 1.219-.703.5-.703.5-2.812 0-2.125-.5-2.813-.485-.703-1.235-.703-.719 0-1.156.61-.547.78-.547 2.906zm13.469 2.234l1.094.125q-.25.953-.954 1.484-.703.532-1.78.532-1.36 0-2.173-.844-.797-.844-.797-2.36 0-1.562.813-2.421.813-.875 2.094-.875 1.25 0 2.031.843.797.844.797 2.391v.281h-4.64q.062 1.032.577 1.578.516.532 1.297.532.578 0 .985-.297.421-.313.656-.969zm-3.453-1.703h3.469q-.063-.797-.391-1.188-.516-.609-1.313-.609-.734 0-1.234.484-.484.485-.531 1.313zm6.172 3.703V245.1h1.062v8.594h-1.062zm7.28-2l1.095.125q-.25.953-.954 1.484-.703.532-1.78.532-1.36 0-2.173-.844-.797-.844-.797-2.36 0-1.562.813-2.421.813-.875 2.094-.875 1.25 0 2.031.843.797.844.797 2.391v.281h-4.64q.062 1.032.577 1.578.516.532 1.297.532.578 0 .985-.297.421-.313.656-.969zm-3.452-1.703h3.469q-.063-.797-.391-1.188-.516-.609-1.313-.609-.734 0-1.234.484-.484.485-.531 1.313zm6.203 3.703v-6.219h.937v.875q.297-.468.782-.734.484-.281 1.109-.281.688 0 1.125.28.453.282.625.798.75-1.078 1.922-1.078.937 0 1.422.515.5.5.5 1.578v4.266h-1.047v-3.922q0-.625-.11-.906-.093-.281-.359-.453t-.64-.172q-.657 0-1.094.437-.422.438-.422 1.407v3.609h-1.063v-4.047q0-.703-.265-1.047-.25-.36-.828-.36-.454 0-.829.235-.375.235-.546.688-.172.453-.172 1.297v3.234h-1.047zm14.25-2l1.094.125q-.25.953-.954 1.484-.703.532-1.78.532-1.36 0-2.173-.844-.797-.844-.797-2.36 0-1.562.813-2.421.813-.875 2.094-.875 1.25 0 2.031.843.797.844.797 2.391v.281h-4.64q.062 1.032.577 1.578.516.532 1.297.532.578 0 .985-.297.421-.313.656-.969zm-3.453-1.703h3.469q-.063-.797-.391-1.188-.516-.609-1.313-.609-.734 0-1.234.484-.484.485-.531 1.313zm6.203 3.703v-6.219h.937v.875q.688-1.015 1.985-1.015.562 0 1.031.203.484.203.719.531.234.328.328.766.047.297.047 1.03v3.829h-1.047v-3.781q0-.656-.125-.969-.125-.312-.438-.5-.312-.203-.734-.203-.672 0-1.172.437-.484.422-.484 1.61v3.406h-1.047zm9.297-.937l.156.921q-.453.094-.797.094-.578 0-.89-.172-.313-.187-.454-.484-.125-.297-.125-1.25v-3.578h-.765v-.813h.765v-1.547l1.047-.625v2.172h1.063v.813h-1.063v3.64q0 .454.047.579.063.125.188.203.125.078.359.078.188 0 .469-.031zm.281-.922l1.031-.157q.094.625.485.954.406.328 1.14.328.719 0 1.063-.282.36-.296.36-.703 0-.36-.313-.562-.22-.14-1.079-.36-1.156-.296-1.609-.5-.437-.218-.672-.593-.234-.375-.234-.844 0-.406.187-.766.188-.36.516-.593.25-.172.672-.297.422-.125.922-.125.719 0 1.265.218.563.204.828.563.266.36.36.953l-1.031.14q-.063-.468-.407-.734-.328-.281-.953-.281-.719 0-1.031.25-.313.234-.313.563 0 .203.125.359.141.172.407.281.156.063.937.266 1.125.312 1.563.5.437.187.687.547.25.359.25.906 0 .531-.312 1-.297.453-.875.719-.578.25-1.313.25-1.219 0-1.86-.5-.624-.516-.796-1.5zm6.688 1.859v-1.203h1.203v1.203q0 .656-.235 1.063-.234.421-.734.64l-.297-.453q.328-.14.484-.437.157-.282.188-.813h-.61zM80.084 267.694l3.297-8.594H84.6l3.516 8.594h-1.282l-1.015-2.61H82.24l-.954 2.61h-1.203zm2.485-3.531h2.906l-.89-2.375q-.422-1.078-.61-1.781-.172.828-.469 1.64l-.937 2.516zm10.39 1.25l1.032.14q-.172 1.063-.875 1.672-.704.61-1.72.61-1.28 0-2.062-.828-.765-.844-.765-2.407 0-1 .328-1.75.344-.765 1.015-1.14.688-.375 1.5-.375 1 0 1.641.515.656.5.844 1.453l-1.031.157q-.141-.625-.516-.938-.375-.328-.906-.328-.797 0-1.297.578-.5.563-.5 1.797 0 1.266.484 1.828.485.563 1.25.563.625 0 1.031-.375.422-.375.547-1.172zm6 0l1.032.14q-.172 1.063-.875 1.672-.704.61-1.72.61-1.28 0-2.062-.828-.765-.844-.765-2.407 0-1 .328-1.75.344-.765 1.015-1.14.688-.375 1.5-.375 1 0 1.641.515.656.5.844 1.453l-1.031.157q-.141-.625-.516-.938-.375-.328-.906-.328-.797 0-1.297.578-.5.563-.5 1.797 0 1.266.484 1.828.485.563 1.25.563.625 0 1.031-.375.422-.375.547-1.172zm6.188.281l1.094.125q-.25.953-.954 1.484-.703.532-1.78.532-1.36 0-2.173-.844-.797-.844-.797-2.36 0-1.562.813-2.421.813-.875 2.094-.875 1.25 0 2.031.843.797.844.797 2.391v.281h-4.64q.062 1.032.577 1.578.516.532 1.297.532.578 0 .985-.297.421-.313.656-.969zm-3.453-1.703h3.468q-.062-.797-.39-1.188-.516-.609-1.313-.609-.734 0-1.234.484-.484.485-.531 1.313zm5.781 1.844l1.031-.157q.094.625.485.954.406.328 1.14.328.719 0 1.063-.282.36-.296.36-.703 0-.36-.313-.562-.22-.14-1.079-.36-1.156-.296-1.609-.5-.437-.218-.672-.593-.234-.375-.234-.844 0-.406.187-.766.188-.36.516-.593.25-.172.672-.297.422-.125.922-.125.718 0 1.265.218.563.204.828.563.266.36.36.953l-1.031.14q-.063-.468-.407-.734-.328-.281-.953-.281-.719 0-1.031.25-.313.234-.313.563 0 .203.125.359.141.172.407.281.156.063.937.266 1.125.312 1.563.5.437.187.687.547.25.359.25.906 0 .531-.312 1-.297.453-.875.719-.578.25-1.313.25-1.219 0-1.86-.5-.624-.516-.796-1.5zm6 0l1.031-.157q.094.625.485.954.406.328 1.14.328.719 0 1.063-.282.36-.296.36-.703 0-.36-.313-.562-.22-.14-1.079-.36-1.156-.296-1.609-.5-.437-.218-.672-.593-.234-.375-.234-.844 0-.406.187-.766.188-.36.516-.593.25-.172.672-.297.422-.125.922-.125.718 0 1.265.218.563.204.828.563.266.36.36.953l-1.031.14q-.063-.468-.407-.734-.328-.281-.953-.281-.719 0-1.031.25-.313.234-.313.563 0 .203.125.359.141.172.407.281.156.063.937.266 1.125.312 1.563.5.437.187.687.547.25.359.25.906 0 .531-.312 1-.297.453-.875.719-.578.25-1.313.25-1.219 0-1.86-.5-.624-.516-.796-1.5zm6.422-5.516V259.1h1.062v1.219h-1.062zm0 7.375v-6.219h1.062v6.219h-1.062zm3.969 0h-.985V259.1h1.063v3.063q.672-.828 1.703-.828.578 0 1.078.234.516.219.844.64.343.423.531 1.016.188.594.188 1.266 0 1.594-.797 2.469-.797.875-1.891.875-1.11 0-1.734-.922v.781zm-.016-3.156q0 1.11.313 1.61.5.812 1.343.812.688 0 1.188-.594.515-.594.515-1.797 0-1.219-.484-1.797-.484-.578-1.172-.578-.687 0-1.203.61-.5.593-.5 1.734zm6.047-4.219V259.1h1.062v1.219h-1.062zm0 7.375v-6.219h1.062v6.219h-1.062zm2.969 0V259.1h1.062v8.594h-1.062zm3.03-7.375V259.1h1.063v1.219h-1.062zm0 7.375v-6.219h1.063v6.219h-1.062zm5.298-.937l.156.921q-.453.094-.797.094-.578 0-.89-.172-.313-.187-.454-.484-.125-.297-.125-1.25v-3.578h-.765v-.813h.765v-1.547l1.047-.625v2.172h1.063v.813h-1.063v3.64q0 .454.047.579.063.125.188.203.125.078.359.078.188 0 .469-.031zm.656 3.328l-.125-.985q.344.094.61.094.343 0 .546-.125.219-.11.36-.312.093-.172.328-.797.015-.078.094-.25l-2.376-6.235h1.141l1.297 3.594q.25.688.453 1.453.188-.734.438-1.422l1.328-3.625h1.047l-2.36 6.328q-.39 1.016-.594 1.407-.28.53-.656.765-.36.25-.86.25-.296 0-.671-.14zm13.11-4.672l1.03.14q-.171 1.063-.874 1.672-.704.61-1.72.61-1.28 0-2.062-.828-.765-.844-.765-2.407 0-1 .328-1.75.344-.765 1.016-1.14.687-.375 1.5-.375 1 0 1.64.515.656.5.844 1.453l-1.031.157q-.141-.625-.516-.938-.375-.328-.906-.328-.797 0-1.297.578-.5.563-.5 1.797 0 1.266.484 1.828.485.563 1.25.563.625 0 1.031-.375.422-.375.547-1.172zm6 1.515q-.594.5-1.141.704-.531.203-1.156.203-1.032 0-1.579-.5-.547-.5-.547-1.282 0-.453.204-.828.203-.39.546-.61.344-.233.766-.343.297-.094.938-.172 1.265-.14 1.875-.36v-.265q0-.656-.297-.922-.406-.343-1.203-.343-.735 0-1.094.265-.36.25-.531.907l-1.032-.141q.141-.656.47-1.063.327-.406.937-.625.609-.218 1.406-.218.797 0 1.297.187.5.188.734.469.234.281.328.719.047.265.047.968v1.407q0 1.468.063 1.859.078.39.28.75h-1.108q-.157-.328-.204-.766zm-.094-2.359q-.579.234-1.72.406-.655.094-.921.219-.266.11-.422.328-.14.219-.14.5 0 .422.312.703.328.282.938.282.609 0 1.078-.266.484-.266.703-.734.172-.36.172-1.047v-.391zm7.093.844l1.032.14q-.172 1.063-.875 1.672-.704.61-1.72.61-1.28 0-2.062-.828-.765-.844-.765-2.407 0-1 .328-1.75.344-.765 1.016-1.14.687-.375 1.5-.375 1 0 1.64.515.656.5.844 1.453l-1.031.157q-.141-.625-.516-.938-.375-.328-.906-.328-.797 0-1.297.578-.5.563-.5 1.797 0 1.266.484 1.828.485.563 1.25.563.625 0 1.031-.375.422-.375.547-1.172zm1.938 2.281V259.1h1.047v3.078q.734-.843 1.86-.843.702 0 1.202.28.516.267.735.75.218.47.218 1.392v3.937h-1.047v-3.937q0-.797-.343-1.157-.344-.36-.969-.36-.469 0-.89.25-.407.235-.594.657-.172.406-.172 1.14v3.407h-1.047zm7-7.375V259.1h1.062v1.219h-1.062zm0 7.375v-6.219h1.062v6.219h-1.062zm3 0v-6.219h.937v.875q.688-1.015 1.985-1.015.562 0 1.031.203.484.203.719.531.234.328.328.766.047.297.047 1.03v3.829h-1.047v-3.781q0-.656-.125-.969-.125-.312-.438-.5-.312-.203-.734-.203-.672 0-1.172.437-.484.422-.484 1.61v3.406h-1.047zm6.797.516l1.031.156q.063.469.36.687.39.297 1.062.297.734 0 1.125-.297.406-.296.547-.812.094-.328.078-1.36-.688.813-1.719.813-1.281 0-1.984-.922-.703-.937-.703-2.219 0-.89.312-1.64.328-.766.938-1.172.609-.406 1.437-.406 1.11 0 1.828.89v-.75h.969v5.375q0 1.453-.297 2.063-.297.61-.937.953-.641.36-1.579.36-1.109 0-1.796-.5-.688-.5-.672-1.516zm.875-3.735q0 1.219.484 1.782.484.562 1.219.562.734 0 1.219-.562.5-.563.5-1.75 0-1.141-.516-1.72-.5-.577-1.219-.577-.703 0-1.203.578-.484.562-.484 1.687zM153.147 279.694l1.094.125q-.25.953-.954 1.484-.703.532-1.78.532-1.36 0-2.173-.844-.797-.844-.797-2.36 0-1.562.813-2.421.813-.875 2.094-.875 1.25 0 2.031.843.797.844.797 2.391v.281h-4.64q.062 1.032.577 1.578.516.532 1.297.532.578 0 .985-.297.421-.313.656-.969zm-3.453-1.703h3.469q-.063-.797-.391-1.188-.516-.609-1.313-.609-.734 0-1.234.484-.484.485-.531 1.313zm6.203 3.703v-6.219h.937v.875q.688-1.015 1.985-1.015.562 0 1.031.203.484.203.719.531.234.328.328.766.047.297.047 1.03v3.829h-1.047v-3.781q0-.656-.125-.969-.125-.312-.438-.5-.312-.203-.734-.203-.672 0-1.172.437-.484.422-.484 1.61v3.406h-1.047zm11.062-.766q-.593.5-1.14.704-.531.203-1.156.203-1.032 0-1.579-.5-.547-.5-.547-1.282 0-.453.204-.828.203-.39.546-.61.344-.233.766-.343.297-.094.938-.172 1.265-.14 1.875-.36v-.265q0-.656-.297-.922-.406-.343-1.203-.343-.735 0-1.094.265-.36.25-.531.907l-1.032-.141q.141-.656.47-1.063.327-.406.937-.625.609-.218 1.406-.218.797 0 1.297.187.5.188.734.469.234.281.328.719.047.265.047.968v1.407q0 1.468.063 1.859.078.39.28.75h-1.108q-.157-.328-.204-.766zm-.093-2.359q-.579.234-1.72.406-.655.094-.921.219-.266.11-.422.328-.14.219-.14.5 0 .422.312.703.328.282.938.282.609 0 1.078-.266.484-.266.703-.734.172-.36.172-1.047v-.391zm4 3.125h-.985V273.1h1.063v3.063q.672-.828 1.703-.828.578 0 1.078.234.516.219.844.64.344.423.531 1.016.188.594.188 1.266 0 1.594-.797 2.469-.797.875-1.891.875-1.11 0-1.734-.922v.781zm-.016-3.156q0 1.11.313 1.61.5.812 1.343.812.688 0 1.188-.594.515-.594.515-1.797 0-1.219-.484-1.797-.484-.578-1.172-.578-.687 0-1.203.61-.5.593-.5 1.734zm6.016 3.156V273.1h1.062v8.594h-1.062zm7.28-2l1.095.125q-.25.953-.954 1.484-.703.532-1.78.532-1.36 0-2.173-.844-.797-.844-.797-2.36 0-1.562.813-2.421.813-.875 2.094-.875 1.25 0 2.031.843.797.844.797 2.391v.281h-4.64q.062 1.032.577 1.578.516.532 1.297.532.578 0 .985-.297.421-.313.656-.969zm-3.452-1.703h3.469q-.063-.797-.391-1.188-.516-.609-1.313-.609-.734 0-1.234.484-.484.485-.531 1.313zm10.234 3.703v-.781q-.594.922-1.734.922-.75 0-1.375-.407-.625-.421-.969-1.156-.344-.734-.344-1.687 0-.922.313-1.688.312-.765.937-1.156.625-.406 1.39-.406.563 0 1 .234.438.234.72.61V273.1h1.046v8.594h-.984zm-3.328-3.11q0 1.204.5 1.798.5.578 1.188.578.687 0 1.171-.563.485-.562.485-1.719 0-1.28-.5-1.875-.485-.593-1.203-.593-.704 0-1.172.578-.469.562-.469 1.797zM196.1 331.266q0-1.532.313-2.454.312-.937.921-1.437.625-.5 1.563-.5.687 0 1.203.281.531.281.875.813.344.515.531 1.265.188.75.188 2.032 0 1.515-.313 2.437-.297.922-.922 1.438-.609.5-1.562.5-1.234 0-1.953-.891-.844-1.063-.844-3.484zm1.078 0q0 2.109.5 2.812.5.703 1.219.703.734 0 1.219-.703.5-.703.5-2.812 0-2.125-.5-2.813-.485-.703-1.235-.703-.719 0-1.156.61-.547.78-.547 2.906zM336.669 335.5h-1.047v-6.719q-.39.36-1.016.735-.61.359-1.094.53v-1.015q.875-.422 1.532-1 .672-.594.953-1.156h.672v8.625zm3.031-4.234q0-1.532.313-2.454.312-.937.921-1.437.625-.5 1.563-.5.687 0 1.203.281.531.281.875.813.344.515.531 1.265.188.75.188 2.032 0 1.515-.313 2.437-.297.922-.922 1.438-.609.5-1.562.5-1.235 0-1.953-.891-.844-1.063-.844-3.484zm1.078 0q0 2.109.5 2.812.5.703 1.219.703.734 0 1.219-.703.5-.703.5-2.812 0-2.125-.5-2.813-.485-.703-1.235-.703-.719 0-1.156.61-.547.78-.547 2.906zM478.347 334.484v1.016h-5.688q0-.375.125-.734.22-.579.688-1.141.484-.563 1.39-1.297 1.407-1.156 1.891-1.828.5-.672.5-1.266 0-.625-.453-1.046-.453-.438-1.172-.438-.765 0-1.219.453-.453.453-.468 1.266l-1.078-.11q.109-1.218.828-1.843.734-.641 1.968-.641 1.235 0 1.954.688.718.687.718 1.703 0 .515-.219 1.015-.203.485-.703 1.047-.484.547-1.609 1.5-.953.797-1.234 1.094-.266.281-.438.562h4.219zm1.453-3.218q0-1.532.313-2.454.312-.937.921-1.437.625-.5 1.563-.5.687 0 1.203.281.531.281.875.813.344.515.531 1.265.188.75.188 2.032 0 1.515-.313 2.437-.297.922-.922 1.438-.609.5-1.562.5-1.234 0-1.953-.891-.844-1.063-.844-3.484zm1.078 0q0 2.109.5 2.812.5.703 1.219.703.734 0 1.219-.703.5-.703.5-2.812 0-2.125-.5-2.813-.485-.703-1.235-.703-.719 0-1.156.61-.547.78-.547 2.906zM612.9 333.234l1.063-.14q.171.89.609 1.297.437.39 1.062.39.75 0 1.266-.515.516-.516.516-1.282 0-.718-.485-1.187-.469-.485-1.203-.485-.297 0-.75.125l.125-.937q.11.016.172.016.672 0 1.203-.344.547-.36.547-1.094 0-.578-.39-.953-.391-.39-1.016-.39-.61 0-1.032.39-.406.39-.515 1.156l-1.063-.187q.188-1.047.875-1.625.688-.594 1.703-.594.704 0 1.297.313.594.296.907.812.312.516.312 1.11 0 .546-.297 1.015-.297.453-.875.719.75.172 1.172.734.422.547.422 1.39 0 1.126-.828 1.907-.813.781-2.063.781-1.125 0-1.875-.672-.75-.687-.859-1.75zm7-1.968q0-1.532.313-2.454.312-.937.921-1.437.625-.5 1.563-.5.687 0 1.203.281.531.281.875.813.344.515.531 1.265.188.75.188 2.032 0 1.515-.313 2.437-.297.922-.922 1.438-.609.5-1.562.5-1.235 0-1.953-.891-.844-1.063-.844-3.484zm1.078 0q0 2.109.5 2.812.5.703 1.219.703.734 0 1.219-.703.5-.703.5-2.812 0-2.125-.5-2.813-.485-.703-1.235-.703-.719 0-1.156.61-.547.78-.547 2.906zM756.375 335.5v-2.063h-3.719v-.968l3.922-5.563h.86v5.563h1.156v.969h-1.157v2.062h-1.062zm0-3.031v-3.86l-2.688 3.86h2.688zm3.625-1.203q0-1.532.313-2.454.312-.937.921-1.437.625-.5 1.563-.5.687 0 1.203.281.531.281.875.813.344.515.531 1.265.188.75.188 2.032 0 1.515-.313 2.437-.297.922-.922 1.438-.609.5-1.562.5-1.235 0-1.953-.891-.844-1.063-.844-3.484zm1.078 0q0 2.109.5 2.812.5.703 1.219.703.734 0 1.219-.703.5-.703.5-2.812 0-2.125-.5-2.813-.485-.703-1.235-.703-.718 0-1.156.61-.547.78-.547 2.906z"/><path fill="#4285f4" d="M167 21.5a1 1 0 011-1h10a1 1 0 011 1v10a1 1 0 01-1 1h-10a1 1 0 01-1-1z"/><path fill="#1a1a1a" d="M187.344 28.063l1.031-.141q.031.984.36 1.344.327.359.921.359.422 0 .735-.188.312-.203.422-.53.125-.345.125-1.079v-5.922h1.125v5.86q0 1.078-.266 1.672-.25.593-.813.906-.562.297-1.328.297-1.125 0-1.734-.641-.594-.656-.578-1.938zm6.203-.329l1.062-.093q.078.656.36 1.062.281.406.86.672.593.25 1.327.25.64 0 1.14-.188.5-.203.735-.53.25-.345.25-.735 0-.406-.234-.703-.234-.313-.766-.516-.36-.14-1.547-.422-1.172-.281-1.64-.531-.625-.328-.922-.797-.297-.484-.297-1.078 0-.64.36-1.203.374-.578 1.077-.86.72-.296 1.579-.296.953 0 1.687.312.734.297 1.125.906.39.594.422 1.344l-1.094.078q-.094-.812-.61-1.218-.5-.422-1.483-.422-1.032 0-1.5.375-.47.375-.47.906 0 .469.329.765.328.297 1.703.61 1.39.312 1.906.547.75.36 1.11.89.359.516.359 1.22 0 .687-.39 1.296-.391.594-1.126.938-.734.328-1.656.328-1.172 0-1.969-.328-.78-.344-1.234-1.032-.438-.687-.453-1.547zm11.375 2.766v-8.594h2.969q1 0 1.53.125.735.172 1.25.61.688.578 1.017 1.484.343.89.343 2.031 0 .985-.234 1.735-.219.75-.578 1.25-.36.5-.797.78-.422.282-1.016.438-.594.141-1.375.141h-3.11zm1.14-1.016h1.829q.859 0 1.343-.156.485-.156.766-.453.406-.39.625-1.078.234-.688.234-1.656 0-1.344-.453-2.063-.437-.734-1.062-.984-.469-.172-1.469-.172h-1.813v6.562zm7.516-3.172q0-2.14 1.14-3.343 1.157-1.219 2.97-1.219 1.203 0 2.156.578.953.563 1.453 1.578.5 1.016.5 2.313 0 1.297-.531 2.328-.532 1.031-1.5 1.562-.953.532-2.078.532-1.22 0-2.172-.578-.953-.594-1.453-1.594-.485-1.016-.485-2.157zm1.172.016q0 1.563.828 2.453.844.89 2.11.89 1.28 0 2.109-.89.828-.906.828-2.578 0-1.047-.36-1.828-.343-.781-1.03-1.203-.688-.438-1.532-.438-1.203 0-2.078.828-.875.829-.875 2.766zm8.14 4.172v-8.594h1.72l2.03 6.078q.282.86.407 1.282.14-.47.453-1.375l2.063-5.985h1.53V30.5H230v-7.188l-2.5 7.188h-1.031l-2.485-7.313V30.5h-1.093zm15.204-.938l.156.922q-.453.094-.797.094-.578 0-.89-.172-.313-.187-.454-.484-.125-.297-.125-1.25v-3.578h-.765v-.813h.765v-1.547l1.047-.625v2.172h1.063v.813h-1.063v3.64q0 .453.047.578.063.125.188.204.125.078.359.078.188 0 .469-.032zm.687.938v-6.219h.953v.938q.36-.657.657-.86.312-.218.687-.218.531 0 1.078.328l-.36.984q-.39-.234-.765-.234-.36 0-.64.218-.266.204-.375.579-.188.562-.188 1.218V30.5h-1.047zm8.078-.766q-.593.5-1.14.703-.531.204-1.156.204-1.032 0-1.579-.5-.547-.5-.547-1.282 0-.453.204-.828.203-.39.547-.61.343-.233.765-.343.297-.094.938-.172 1.265-.14 1.875-.36v-.265q0-.656-.297-.922-.406-.343-1.203-.343-.735 0-1.094.265-.36.25-.531.907l-1.032-.141q.141-.656.47-1.063.327-.406.937-.625.609-.218 1.406-.218.797 0 1.297.187.5.188.734.469.234.281.328.719.047.265.047.968v1.407q0 1.468.063 1.859.078.39.28.75h-1.108q-.157-.328-.204-.766zm-.093-2.359q-.578.234-1.72.406-.655.094-.921.219-.266.11-.422.328-.14.219-.14.5 0 .422.312.703.328.282.938.282.609 0 1.078-.266.484-.266.703-.735.172-.359.172-1.046v-.391zm4.75 3.125l-2.36-6.219h1.11L251.609 28q.203.61.391 1.25.14-.484.39-1.172l1.391-3.797h1.078L252.5 30.5h-.984zm8.53-2l1.095.125q-.25.953-.954 1.484-.703.532-1.78.532-1.36 0-2.173-.844-.796-.844-.796-2.36 0-1.562.812-2.421.813-.875 2.094-.875 1.25 0 2.031.843.797.844.797 2.391v.281h-4.64q.062 1.032.577 1.578.516.532 1.297.532.578 0 .985-.297.421-.313.656-.969zm-3.452-1.703h3.469q-.063-.797-.391-1.188-.516-.609-1.313-.609-.734 0-1.234.484-.484.485-.531 1.313zm6.187 3.703v-6.219h.953v.938q.36-.657.657-.86.312-.218.687-.218.531 0 1.078.328l-.36.984q-.39-.234-.765-.234-.36 0-.64.218-.266.204-.375.579-.188.562-.188 1.218V30.5h-1.047zm3.594-1.86l1.031-.156q.094.625.485.953.406.329 1.14.329.719 0 1.063-.282.36-.297.36-.703 0-.36-.313-.562-.22-.14-1.079-.36-1.156-.297-1.609-.5-.437-.218-.672-.593-.234-.375-.234-.844 0-.406.187-.766.188-.36.516-.593.25-.172.672-.297.422-.125.922-.125.719 0 1.265.218.563.203.829.563.265.36.359.953l-1.031.14q-.063-.468-.407-.734-.328-.281-.953-.281-.719 0-1.031.25-.313.234-.313.563 0 .203.125.359.141.172.407.281.156.063.937.266 1.125.312 1.563.5.437.187.687.547.25.359.25.906 0 .531-.312 1-.297.453-.875.719-.578.25-1.313.25-1.219 0-1.86-.5-.624-.516-.796-1.5zm10.484 1.094q-.593.5-1.14.703-.531.204-1.156.204-1.032 0-1.579-.5-.546-.5-.546-1.282 0-.453.203-.828.203-.39.546-.61.344-.233.766-.343.297-.094.938-.172 1.265-.14 1.875-.36v-.265q0-.656-.297-.922-.406-.343-1.203-.343-.735 0-1.094.265-.36.25-.531.907l-1.032-.141q.141-.656.47-1.063.327-.406.937-.625.609-.218 1.406-.218.797 0 1.297.187.5.188.734.469.235.281.328.719.047.265.047.968v1.407q0 1.468.063 1.859.078.39.28.75h-1.108q-.157-.328-.204-.766zm-.093-2.359q-.579.234-1.72.406-.655.094-.921.219-.266.11-.422.328-.14.219-.14.5 0 .422.312.703.328.282.938.282.609 0 1.078-.266.484-.266.703-.735.172-.359.172-1.046v-.391zm3 3.125v-8.594h1.062V30.5h-1.062z"/><path fill="#ea4335" d="M298 21.5a1 1 0 011-1h10a1 1 0 011 1v10a1 1 0 01-1 1h-10a1 1 0 01-1-1z"/><path fill="#1a1a1a" d="M318.922 30.5v-8.594h3.25q.844 0 1.297.078.64.11 1.062.407.438.297.688.828.265.531.265 1.172 0 1.093-.703 1.859-.687.75-2.515.75h-2.204v3.5h-1.14zm1.14-4.5h2.22q1.109 0 1.562-.406.469-.422.469-1.172 0-.531-.282-.906-.265-.391-.703-.516-.297-.078-1.062-.078h-2.204V26zm10.813 4.5v-.922q-.734 1.063-1.984 1.063-.547 0-1.032-.203-.468-.22-.703-.532-.234-.328-.328-.797-.062-.297-.062-.984v-3.844h1.062v3.453q0 .813.063 1.11.093.406.406.656.328.234.812.234.47 0 .875-.234.422-.25.594-.672.188-.422.188-1.219v-3.328h1.046V30.5h-.937zm2.922 2.39v-8.609h.953v.797q.344-.469.766-.703.437-.234 1.046-.234.797 0 1.407.406t.906 1.156q.313.75.313 1.64 0 .954-.344 1.72-.328.765-.985 1.171-.656.407-1.375.407-.53 0-.953-.22-.422-.233-.687-.562v3.032h-1.047zm.953-5.468q0 1.203.484 1.781.485.563 1.172.563.703 0 1.203-.594.5-.594.5-1.844 0-1.187-.484-1.765-.484-.594-1.172-.594-.672 0-1.187.625-.516.625-.516 1.828zm6.047 5.469v-8.61h.953v.797q.344-.469.766-.703.437-.234 1.046-.234.797 0 1.407.406t.906 1.156q.313.75.313 1.64 0 .954-.344 1.72-.328.765-.985 1.171-.656.407-1.375.407-.53 0-.953-.22-.422-.233-.687-.562v3.032h-1.047zm.953-5.47q0 1.204.484 1.782.485.563 1.172.563.703 0 1.203-.594.5-.594.5-1.844 0-1.187-.484-1.765-.484-.594-1.172-.594-.672 0-1.187.625-.516.625-.516 1.828zm10.297 1.079l1.094.125q-.25.953-.954 1.484-.703.532-1.78.532-1.36 0-2.173-.844-.796-.844-.796-2.36 0-1.562.812-2.421.813-.875 2.094-.875 1.25 0 2.031.843.797.844.797 2.391v.281h-4.64q.062 1.032.577 1.578.516.532 1.297.532.578 0 .985-.297.421-.313.656-.969zm-3.453-1.703h3.469q-.063-.797-.391-1.188-.516-.609-1.313-.609-.734 0-1.234.484-.484.485-.531 1.313zm8.5 2.765l.156.922q-.453.094-.797.094-.578 0-.89-.172-.313-.187-.454-.484-.125-.297-.125-1.25v-3.578h-.765v-.813h.765v-1.547l1.047-.625v2.172h1.063v.813h-1.063v3.64q0 .453.047.578.063.125.188.204.125.078.359.078.188 0 .469-.032zm4.953-1.062l1.094.125q-.25.953-.954 1.484-.703.532-1.78.532-1.36 0-2.173-.844-.796-.844-.796-2.36 0-1.562.812-2.421.813-.875 2.094-.875 1.25 0 2.031.843.797.844.797 2.391v.281h-4.64q.062 1.032.577 1.578.516.532 1.297.532.578 0 .985-.297.421-.313.656-.969zm-3.453-1.703h3.469q-.063-.797-.391-1.188-.516-.609-1.313-.609-.734 0-1.234.484-.484.485-.531 1.313zm10.453 1.703l1.094.125q-.25.953-.954 1.484-.703.532-1.78.532-1.36 0-2.173-.844-.796-.844-.796-2.36 0-1.562.812-2.421.813-.875 2.094-.875 1.25 0 2.031.843.797.844.797 2.391v.281h-4.64q.062 1.032.577 1.578.516.532 1.297.532.578 0 .985-.297.421-.313.656-.969zm-3.453-1.703h3.469q-.063-.797-.391-1.188-.516-.609-1.313-.609-.734 0-1.234.484-.484.485-.531 1.313zm6.187 3.703v-6.219h.953v.938q.36-.657.657-.86.312-.218.687-.218.531 0 1.078.328l-.36.984q-.39-.234-.765-.234-.36 0-.64.218-.266.204-.375.579-.188.562-.188 1.218V30.5h-1.047zm6.203 0l3.297-8.594h1.219l3.516 8.594h-1.282l-1.015-2.61h-3.578l-.954 2.61h-1.203zm2.485-3.531h2.906l-.89-2.375q-.423-1.078-.61-1.782-.172.829-.469 1.641l-.937 2.516zm5.578 3.531l3.328-4.484-2.922-4.11h1.344l1.562 2.203q.485.688.688 1.063.297-.469.687-.985l1.72-2.28h1.233l-3.015 4.046 3.25 4.547h-1.406l-2.157-3.063q-.187-.265-.375-.578-.28.47-.406.641l-2.156 3h-1.375zm11.062 0v-7.578h-2.828v-1.016h6.813v1.016h-2.844V30.5h-1.14zm4.672 0v-6.219h.953v.938q.36-.657.657-.86.312-.218.687-.218.531 0 1.078.328l-.36.984q-.39-.234-.765-.234-.36 0-.64.218-.266.204-.375.579-.188.562-.188 1.218V30.5h-1.047zm8.266-2l1.094.125q-.25.953-.954 1.484-.703.532-1.78.532-1.36 0-2.173-.844-.796-.844-.796-2.36 0-1.562.812-2.421.813-.875 2.094-.875 1.25 0 2.031.843.797.844.797 2.391v.281h-4.64q.062 1.032.577 1.578.516.532 1.297.532.578 0 .985-.297.421-.313.656-.969zm-3.453-1.703h3.469q-.063-.797-.391-1.188-.516-.609-1.313-.609-.734 0-1.234.484-.484.485-.531 1.313zm10.453 1.703l1.094.125q-.25.953-.954 1.484-.703.532-1.78.532-1.36 0-2.173-.844-.796-.844-.796-2.36 0-1.562.812-2.421.813-.875 2.094-.875 1.25 0 2.031.843.797.844.797 2.391v.281h-4.64q.062 1.032.577 1.578.516.532 1.297.532.578 0 .985-.297.421-.313.656-.969zm-3.453-1.703h3.469q-.063-.797-.391-1.188-.516-.609-1.313-.609-.734 0-1.234.484-.484.485-.531 1.313zm11.5 2.765l.156.922q-.453.094-.797.094-.578 0-.89-.172-.313-.187-.454-.484-.125-.297-.125-1.25v-3.578h-.765v-.813h.765v-1.547l1.047-.625v2.172h1.063v.813h-1.063v3.64q0 .453.047.578.063.125.188.204.125.078.359.078.188 0 .469-.032zm.687.938v-6.219h.953v.938q.36-.657.657-.86.312-.218.687-.218.531 0 1.078.328l-.36.984q-.39-.234-.765-.234-.36 0-.64.218-.266.204-.375.579-.188.562-.188 1.218V30.5h-1.047zm8.078-.766q-.593.5-1.14.703-.531.204-1.156.204-1.032 0-1.579-.5-.546-.5-.546-1.282 0-.453.203-.828.203-.39.546-.61.344-.233.766-.343.297-.094.938-.172 1.265-.14 1.875-.36v-.265q0-.656-.297-.922-.406-.343-1.203-.343-.735 0-1.094.265-.36.25-.531.907l-1.032-.141q.141-.656.47-1.063.327-.406.937-.625.609-.218 1.406-.218.797 0 1.297.187.5.188.734.469.235.281.328.719.047.265.047.968v1.407q0 1.468.063 1.859.078.39.28.75h-1.108q-.157-.328-.204-.766zm-.093-2.359q-.579.234-1.72.406-.655.094-.921.219-.266.11-.422.328-.14.219-.14.5 0 .422.312.703.328.282.938.282.609 0 1.078-.266.484-.266.703-.735.172-.359.172-1.046v-.391zm4.75 3.125l-2.36-6.219h1.11L438.609 28q.204.61.391 1.25.14-.484.39-1.172l1.391-3.797h1.078L439.5 30.5h-.984zm8.53-2l1.095.125q-.25.953-.954 1.484-.703.532-1.78.532-1.36 0-2.173-.844-.796-.844-.796-2.36 0-1.562.812-2.421.813-.875 2.094-.875 1.25 0 2.031.843.797.844.797 2.391v.281h-4.64q.062 1.032.577 1.578.516.532 1.297.532.578 0 .985-.297.421-.313.656-.969zm-3.452-1.703h3.469q-.063-.797-.391-1.188-.516-.609-1.313-.609-.734 0-1.234.484-.484.485-.531 1.313zm6.187 3.703v-6.219h.953v.938q.36-.657.657-.86.312-.218.687-.218.531 0 1.078.328l-.36.984q-.39-.234-.765-.234-.36 0-.64.218-.266.204-.375.579-.188.562-.188 1.218V30.5h-1.047zm3.594-1.86l1.031-.156q.094.625.485.953.406.329 1.14.329.719 0 1.063-.282.36-.297.36-.703 0-.36-.313-.562-.22-.14-1.079-.36-1.156-.297-1.609-.5-.437-.218-.672-.593-.234-.375-.234-.844 0-.406.187-.766.188-.36.516-.593.25-.172.672-.297.422-.125.922-.125.719 0 1.265.218.563.203.829.563.265.36.359.953l-1.031.14q-.063-.468-.407-.734-.328-.281-.953-.281-.719 0-1.031.25-.313.234-.313.563 0 .203.125.359.141.172.407.281.156.063.937.266 1.125.312 1.563.5.437.187.687.547.25.359.25.906 0 .531-.312 1-.297.453-.875.719-.578.25-1.313.25-1.219 0-1.86-.5-.624-.516-.796-1.5zm10.484 1.094q-.593.5-1.14.703-.531.204-1.156.204-1.032 0-1.579-.5-.546-.5-.546-1.282 0-.453.203-.828.203-.39.546-.61.344-.233.766-.343.297-.094.938-.172 1.265-.14 1.875-.36v-.265q0-.656-.297-.922-.406-.343-1.203-.343-.735 0-1.094.265-.36.25-.531.907l-1.032-.141q.141-.656.47-1.063.327-.406.937-.625.609-.218 1.406-.218.797 0 1.297.187.5.188.734.469.235.281.328.719.047.265.047.968v1.407q0 1.468.063 1.859.078.39.28.75h-1.108q-.157-.328-.204-.766zm-.093-2.359q-.579.234-1.72.406-.655.094-.921.219-.266.11-.422.328-.14.219-.14.5 0 .422.312.703.328.282.938.282.609 0 1.078-.266.484-.266.703-.735.172-.359.172-1.046v-.391zm3 3.125v-8.594h1.062V30.5h-1.062z"/><path fill="#fbbc04" d="M485 21.5a1 1 0 011-1h10a1 1 0 011 1v10a1 1 0 01-1 1h-10a1 1 0 01-1-1z"/><path fill="#1a1a1a" d="M512.063 27.484l1.125.297q-.36 1.39-1.282 2.125-.922.735-2.265.735-1.391 0-2.266-.563-.875-.562-1.328-1.625-.453-1.078-.453-2.312 0-1.344.515-2.344.516-1 1.454-1.516.953-.515 2.093-.515 1.281 0 2.156.656.891.656 1.235 1.844l-1.125.265q-.297-.937-.875-1.36-.563-.437-1.422-.437-.984 0-1.656.485-.656.468-.938 1.265-.265.797-.265 1.657 0 1.093.312 1.906.328.812 1 1.219.672.406 1.469.406.953 0 1.61-.547.671-.547.906-1.64zm2.859 3.016v-8.594h2.969q1 0 1.53.125.735.172 1.25.61.688.578 1.016 1.484.344.89.344 2.031 0 .985-.234 1.735-.219.75-.578 1.25-.36.5-.797.78-.422.282-1.016.438-.593.141-1.375.141h-3.11zm1.14-1.016h1.829q.859 0 1.343-.156.485-.156.766-.453.406-.39.625-1.078.234-.688.234-1.656 0-1.344-.453-2.063-.437-.734-1.062-.984-.469-.172-1.469-.172h-1.813v6.562zm7.86 1.016v-8.594h3.25q.844 0 1.297.078.64.11 1.062.407.438.297.688.828.265.531.265 1.172 0 1.093-.703 1.859-.687.75-2.515.75h-2.203v3.5h-1.141zm1.14-4.5h2.22q1.109 0 1.562-.406.468-.422.468-1.172 0-.531-.28-.906-.266-.391-.704-.516-.297-.078-1.062-.078h-2.203V26zm9.86 4.5v-8.594h2.969q1 0 1.53.125.735.172 1.25.61.688.578 1.016 1.484.344.89.344 2.031 0 .985-.234 1.735-.219.75-.578 1.25-.36.5-.797.78-.422.282-1.016.438-.593.141-1.375.141h-3.11zm1.14-1.016h1.829q.859 0 1.343-.156.485-.156.766-.453.406-.39.625-1.078.234-.688.234-1.656 0-1.344-.453-2.063-.437-.734-1.062-.984-.469-.172-1.469-.172h-1.813v6.562zm7.516-3.172q0-2.14 1.14-3.343 1.157-1.219 2.97-1.219 1.203 0 2.156.578.953.563 1.453 1.578.5 1.016.5 2.313 0 1.297-.531 2.328-.532 1.031-1.5 1.562-.953.532-2.078.532-1.22 0-2.172-.578-.953-.594-1.453-1.594-.485-1.016-.485-2.157zm1.172.016q0 1.563.828 2.453.844.89 2.11.89 1.28 0 2.109-.89.828-.906.828-2.578 0-1.047-.36-1.828-.343-.781-1.03-1.203-.688-.438-1.532-.438-1.203 0-2.078.828-.875.829-.875 2.766zm8.14 4.172v-8.594h1.72l2.03 6.078q.282.86.407 1.282.14-.47.453-1.375l2.063-5.985h1.53V30.5H560v-7.188l-2.5 7.188h-1.031l-2.485-7.313V30.5h-1.093zm15.204-.938l.156.922q-.453.094-.797.094-.578 0-.89-.172-.313-.187-.454-.484-.125-.297-.125-1.25v-3.578h-.765v-.813h.765v-1.547l1.047-.625v2.172h1.063v.813h-1.063v3.64q0 .453.047.578.063.125.188.204.125.078.359.078.188 0 .469-.032zm.687.938v-6.219h.953v.938q.36-.657.657-.86.312-.218.687-.218.531 0 1.078.328l-.36.984q-.39-.234-.765-.234-.36 0-.64.218-.266.204-.375.579-.188.562-.188 1.218V30.5h-1.047zm8.078-.766q-.593.5-1.14.703-.532.204-1.157.204-1.03 0-1.578-.5-.547-.5-.547-1.282 0-.453.204-.828.203-.39.547-.61.343-.233.765-.343.297-.094.938-.172 1.265-.14 1.875-.36v-.265q0-.656-.297-.922-.407-.343-1.203-.343-.735 0-1.094.265-.36.25-.531.907l-1.032-.141q.141-.656.47-1.063.327-.406.937-.625.609-.218 1.406-.218.797 0 1.297.187.5.188.734.469.235.281.328.719.047.265.047.968v1.407q0 1.468.063 1.859.078.39.28.75h-1.109q-.156-.328-.203-.766zm-.093-2.359q-.578.234-1.72.406-.655.094-.921.219-.266.11-.422.328-.14.219-.14.5 0 .422.312.703.328.282.938.282.609 0 1.078-.266.484-.266.703-.735.172-.359.172-1.046v-.391zm4.75 3.125l-2.36-6.219h1.11L581.609 28q.203.61.391 1.25.14-.484.39-1.172l1.391-3.797h1.078L582.5 30.5h-.984zm8.53-2l1.095.125q-.25.953-.953 1.484-.704.532-1.782.532-1.36 0-2.172-.844-.797-.844-.797-2.36 0-1.562.813-2.421.813-.875 2.094-.875 1.25 0 2.031.843.797.844.797 2.391v.281h-4.64q.062 1.032.577 1.578.516.532 1.297.532.578 0 .985-.297.422-.313.656-.969zm-3.452-1.703h3.468q-.062-.797-.39-1.188-.516-.609-1.313-.609-.734 0-1.234.484-.484.485-.531 1.313zm6.187 3.703v-6.219h.953v.938q.36-.657.657-.86.312-.218.687-.218.531 0 1.078.328l-.36.984q-.39-.234-.765-.234-.36 0-.64.218-.266.204-.375.579-.188.562-.188 1.218V30.5h-1.047zm3.594-1.86l1.031-.156q.094.625.485.953.406.329 1.14.329.719 0 1.063-.282.36-.297.36-.703 0-.36-.313-.562-.22-.14-1.078-.36-1.157-.297-1.61-.5-.437-.218-.672-.593-.234-.375-.234-.844 0-.406.187-.766.188-.36.516-.593.25-.172.672-.297.422-.125.922-.125.718 0 1.265.218.563.203.828.563.266.36.36.953l-1.031.14q-.063-.468-.407-.734-.328-.281-.953-.281-.718 0-1.031.25-.313.234-.313.563 0 .203.125.359.141.172.407.281.156.063.937.266 1.125.312 1.563.5.437.187.687.547.25.359.25.906 0 .531-.312 1-.297.453-.875.719-.578.25-1.313.25-1.218 0-1.86-.5-.624-.516-.796-1.5zm10.484 1.094q-.593.5-1.14.703-.532.204-1.157.204-1.03 0-1.578-.5-.547-.5-.547-1.282 0-.453.204-.828.203-.39.547-.61.343-.233.765-.343.297-.094.938-.172 1.265-.14 1.875-.36v-.265q0-.656-.297-.922-.407-.343-1.203-.343-.735 0-1.094.265-.36.25-.531.907l-1.032-.141q.141-.656.47-1.063.327-.406.937-.625.609-.218 1.406-.218.797 0 1.297.187.5.188.734.469.235.281.328.719.047.265.047.968v1.407q0 1.468.063 1.859.078.39.28.75h-1.109q-.156-.328-.203-.766zm-.093-2.359q-.578.234-1.72.406-.655.094-.921.219-.266.11-.422.328-.14.219-.14.5 0 .422.312.703.328.282.938.282.609 0 1.078-.266.484-.266.703-.735.172-.359.172-1.046v-.391zm3 3.125v-8.594h1.062V30.5h-1.062z"/></svg>