<svg xmlns="http://www.w3.org/2000/svg" width="192" height="192">
  <path fill="none" d="M0 0h192v192H0V0z"/>
  <path fill="#E1E1E1" d="M184 44v116c0 6.63-5.37 12-12 12H20c-6.63 0-12-5.37-12-12V44h176z"/>
  <path fill="#C2C2C2" d="M20 20h152c6.63 0 12 5.37 12 12v12H8V32c0-6.63 5.37-12 12-12z"/>
  <path fill="#FFF" fill-opacity=".2" d="M172 20H20c-6.6 0-12 5.4-12 12v1c0-6.6 5.4-12 12-12h152c6.6 0 12 5.4 12 12v-1c0-6.6-5.4-12-12-12z"/>
  <path fill="#212121" fill-opacity=".1" d="M8 44h176v1H8v-1z"/>
  <path fill="#4285F4" d="M95.93 80c-35.36 0-63.9 28.65-63.9 64 0 1.34-.08 3 0 4h27.88c-.15-1 0-2.65 0-4 0-19.88 16.13-36 36.02-36 6.92 0 13.39 1.96 18.88 5.34l20.1-20.1C124.11 84.94 110.6 80 95.93 80z"/>
  <path fill="#F44336" d="M134.91 93.24l-20.1 20.1c10.28 6.34 17.14 17.7 17.14 30.66 0 1.35.15 3 0 4h28.01c.08-1 0-2.66 0-4 0-20.68-9.82-39.06-25.05-50.76z"/>
  <circle fill="#EEE" cx="24" cy="32" r="4"/>
  <circle fill="#EEE" cx="40" cy="32" r="4"/>
  <path fill="#212121" fill-opacity=".1" d="M172.02 171H19.96c-6.6 0-12-5.4-12-12v1c0 6.6 5.4 12 12 12h152.06c6.6 0 12-5.4 12-12v-1c0 6.6-5.4 12-12 12z"/>
  <path fill="#9E9E9E" d="M135.12 95.67c.24-.33.38-.73.38-1.17 0-1.1-.9-2-2-2-.47 0-.89.17-1.23.44l-43.61 33.57c-2.84 2.19-4.67 5.62-4.67 9.49 0 6.63 5.37 12 12 12 4.35 0 8.14-2.32 10.25-5.78l.01.01 28.87-46.56z"/>
  <path opacity=".2" fill="#FFF" d="M88.66 127.51l43.61-33.58c.34-.27.77-.44 1.23-.44.92 0 1.69.63 1.92 1.48.04-.15.08-.31.08-.48 0-1.1-.9-2-2-2-.47 0-.89.17-1.23.44L88.66 126.5c-2.84 2.19-4.67 5.62-4.67 9.49 0 .18.02.36.03.54.14-3.66 1.92-6.91 4.64-9.02z"/>
  <path opacity=".2" fill="#212121" d="M135.12 95.67l-28.87 46.56-.01-.01c-2.11 3.46-5.9 5.78-10.25 5.78-6.45 0-11.69-5.09-11.97-11.46-.01.15-.03.3-.03.46 0 6.63 5.37 12 12 12 4.35 0 8.14-2.32 10.25-5.78l.01.01 28.87-46.56c.24-.33.38-.73.38-1.17 0-.18-.03-.36-.08-.52-.06.25-.16.48-.3.69z"/>
  <linearGradient id="a" gradientUnits="userSpaceOnUse" x1="113.718" y1="72.718" x2="170.85" y2="15.585" gradientTransform="matrix(1 0 0 -1 0 194)">
    <stop offset="0" stop-color="#212121" stop-opacity=".2"/>
    <stop offset="1" stop-color="#212121" stop-opacity="0"/>
  </linearGradient>
  <path fill="url(#a)" d="M135.09 93.3c.26.34.41.75.41 1.2 0 .44-.14.84-.38 1.17l-28.87 46.56-.01-.01c-2.11 3.46-5.9 5.78-10.25 5.78-2.97 0-5.68-1.08-7.78-2.87L115.08 172H172c6.63 0 12-5.37 12-12v-17.79L135.09 93.3z"/>
  <radialGradient id="b" cx="12.333" cy="171.333" r="219.577" gradientTransform="matrix(1 0 0 -1 0 194)" gradientUnits="userSpaceOnUse">
    <stop offset="0" stop-color="#FFF" stop-opacity=".1"/>
    <stop offset="1" stop-color="#FFF" stop-opacity="0"/>
  </radialGradient>
  <path fill="url(#b)" d="M184 32c0-6.63-5.37-12-12-12H20c-6.63 0-12 5.37-12 12v128c0 6.63 5.37 12 12 12h152c6.63 0 12-5.37 12-12V32z"/>
</svg>
