<svg xmlns="http://www.w3.org/2000/svg" width="168" height="40" xmlns:xlink="http://www.w3.org/1999/xlink">
  <symbol id="a" viewBox="0 -40 168 40">
    <path fill="#666" d="M69.833-19.172c0-2.573-.573-4.64-1.72-6.202-1.146-1.562-2.747-2.342-4.802-2.342-1.05 0-1.98.16-2.77.482s-1.47.81-2.05 1.463v-8.11h-2.88v23.31h2.49l.24-1.93c.58.73 1.28 1.29 2.09 1.67.81.38 1.76.57 2.85.57 2.11 0 3.73-.77 4.87-2.31 1.14-1.54 1.71-3.63 1.71-6.29v-.33zm-2.88.327c0 1.806-.38 3.28-1.136 4.428-.758 1.146-1.894 1.72-3.408 1.72-.95 0-1.74-.205-2.38-.615-.64-.41-1.16-.98-1.55-1.705v-8.046c.4-.737.92-1.305 1.56-1.705.63-.4 1.43-.6 2.39-.6 1.49 0 2.62.577 3.37 1.728.75 1.152 1.13 2.64 1.13 4.467v.328zm5.377.015c0 2.522.687 4.582 2.06 6.18 1.376 1.597 3.235 2.396 5.58 2.396 2.366 0 4.24-.796 5.62-2.39 1.38-1.59 2.07-3.654 2.07-6.186v-.343c0-2.532-.69-4.588-2.063-6.17-1.375-1.583-3.24-2.374-5.595-2.374-2.356 0-4.224.79-5.604 2.374-1.38 1.582-2.07 3.64-2.07 6.17v.344zm2.895-.342c0-1.805.407-3.29 1.222-4.45s2-1.744 3.557-1.744c1.536 0 2.715.58 3.54 1.743s1.238 2.646 1.238 4.45v.344c0 1.79-.416 3.27-1.246 4.45s-2.018 1.77-3.563 1.77c-1.536 0-2.71-.59-3.525-1.76s-1.222-2.66-1.222-4.44v-.34zm18.315-8.233h-2.88v24.28h2.88v-24.28zm9.247 5.65l.28-1.074 3.968 12.27h3.223L103.488-30c-.427-1.14-1.023-2.127-1.79-2.958-.77-.83-1.838-1.245-3.207-1.245-.19 0-.42.023-.66.07-.25.046-.56.106-.95.18l.02 2.334c.07-.01.2-.02.38-.04.18-.01.31-.02.39-.02.98 0 1.7.21 2.17.62.48.41.9 1.15 1.27 2.22l.69 2.04-5.87 16.25h3.208l3.67-11.19zm12.32 11.19l.17-1.93c.59.726 1.303 1.282 2.133 1.666.83.39 1.8.58 2.91.58 1.12 0 2.09-.24 2.903-.72.814-.48 1.45-1.22 1.906-2.22.59.93 1.33 1.65 2.22 2.17.89.52 1.94.78 3.14.78 1.75 0 3.13-.57 4.13-1.73s1.5-2.93 1.5-5.31v-10.1h-2.88v10.13c0 1.68-.31 2.868-.92 3.55-.62.688-1.51 1.03-2.68 1.03-1.15 0-2.05-.375-2.72-1.127-.67-.755-1.06-1.7-1.18-2.84V-27.4h-2.9v10.163c0 1.596-.31 2.753-.926 3.47-.618.715-1.508 1.073-2.67 1.073-1.007 0-1.82-.21-2.443-.63-.623-.42-1.1-1.015-1.432-1.782V-27.4h-2.88v16.84h2.586zm31.37-17.15c-2.366 0-4.244.746-5.635 2.24s-2.085 3.46-2.085 5.9v.653c0 2.667.716 4.778 2.147 6.334s3.17 2.334 5.214 2.334c2.345 0 4.085-.747 5.222-2.24 1.136-1.495 1.704-3.503 1.704-6.024v-1.292h-11.408c.03-1.63.492-2.962 1.386-4 .893-1.038 2.096-1.556 3.61-1.556.976 0 1.815.19 2.522.576.706.384 1.344.95 1.915 1.696l1.75-1.37c-.65-.976-1.48-1.762-2.49-2.358-1.02-.595-2.31-.894-3.86-.894zm-.36 15.096c-1.192 0-2.176-.41-2.95-1.24-.77-.83-1.25-2.02-1.437-3.58h8.436v.22c-.094 1.32-.45 2.42-1.074 3.29-.623.88-1.614 1.32-2.974 1.32zm18.133-.52c-.26.03-.492.06-.7.08-.208.02-.446.03-.716.03-.976 0-1.78-.21-2.412-.63-.634-.42-1.11-1.01-1.433-1.78V-27.4h-2.88v16.84h2.66l.15-1.9c.48.705 1.05 1.25 1.72 1.634.67.384 1.44.576 2.32.576.19 0 .43-.027.7-.08.27-.05.46-.1.57-.14v-2.677z"/>
    <path fill="#303F9F" d="M12.092-20l-3.97-6.875 3.97-6.875 3.97 6.875z"/>
    <path fill="#3F51B5" d="M35.908-6.25l-3.97-6.875L35.908-20l3.97 6.875z"/>
    <path fill="#7986CB" d="M39.877-13.125L27.97-33.75h7.938L43.848-20z"/>
    <path fill="#FF4081" d="M27.97-6.25l-15.88-27.5h7.94l15.876 27.5z"/>
    <path fill="#536DFE" d="M12.092-6.25L4.152-20l3.97-6.875L20.032-6.25z"/>
    <path fill="#FFF" fill-opacity=".2" d="M27.97-6.25l3.968-6.875 3.97 6.875z"/>
    <path fill="#FFF" fill-opacity=".1" d="M24-13.125l3.97 6.875 3.968-6.875z"/>
    <path fill="#FFF" fill-opacity="0" d="M24-13.125L27.97-20l3.968 6.875z"/>
    <path fill-opacity=".1" d="M20.03-20L24-13.125 27.97-20z"/>
    <path fill-opacity=".2" d="M20.03-20L24-26.875 27.97-20z"/>
    <path fill-opacity=".3" d="M16.062-26.875L20.032-20 24-26.875z"/>
    <path fill-opacity=".4" d="M16.062-26.875l3.97-6.875L24-26.875z"/>
    <path fill-opacity=".5" d="M12.092-33.75l3.97 6.875 3.97-6.875z"/>
    <path fill="#FFF" fill-opacity=".2" d="M12.092-6.25l3.97-6.875 3.97 6.875z"/>
    <path fill="#FFF" fill-opacity=".1" d="M8.123-13.125l3.97 6.875 3.97-6.875z"/>
    <path fill="#FFF" fill-opacity="0" d="M8.123-13.125L12.093-20l3.97 6.875z"/>
    <path fill-opacity=".1" d="M4.153-20l3.97 6.875L12.093-20z"/>
    <path fill-opacity=".2" d="M4.153-20l3.97-6.875L12.093-20z"/>
    <path fill="#FFF" fill-opacity="0" d="M16.062-26.875L12.092-20l-3.97-6.875z"/>
    <path fill-opacity=".2" d="M16.062-26.875l-3.97-6.875-3.97 6.875zm23.815 13.75l-3.97 6.875-3.97-6.875z"/>
    <path fill="#FFF" fill-opacity="0" d="M39.877-13.125L35.907-20l-3.97 6.875z"/>
    <path fill="#FFF" fill-opacity=".2" d="M35.908-20l3.97 6.875L43.848-20z"/>
    <path fill="#FFF" fill-opacity=".1" d="M35.908-20l3.97-6.875L43.848-20z"/>
    <path fill="#FFF" fill-opacity="0" d="M31.938-26.875L35.908-20l3.97-6.875z"/>
    <path fill-opacity=".1" d="M31.938-26.875l3.97-6.875 3.97 6.875z"/>
    <path fill-opacity=".2" d="M27.97-33.75l3.968 6.875 3.97-6.875z"/>
    <path fill="none" d="M44-40H4V0h40z"/>
    <path fill="none" d="M168-40H0V0h168z"/>
  </symbol>
  <use width="168" height="40" y="-40" xlink:href="#a" transform="matrix(1 0 0 -1 0 0)" overflow="visible"/>
</svg>
