<?xml version="1.0" encoding="UTF-8" standalone="no"?>
<svg width="309px" height="148px" viewBox="0 0 309 148" version="1.1" xmlns="http://www.w3.org/2000/svg" xmlns:xlink="http://www.w3.org/1999/xlink" xmlns:sketch="http://www.bohemiancoding.com/sketch/ns">
    <!-- Generator: Sketch 3.0.4 (8053) - http://www.bohemiancoding.com/sketch -->
    <title>container-two-views</title>
    <desc>Created with Sketch.</desc>
    <defs></defs>
    <g id="Page-1" stroke="none" stroke-width="1" fill="none" fill-rule="evenodd" sketch:type="MSPage">
        <g id="container-two-views" sketch:type="MSArtboardGroup">
            <path d="M18,19 L73,19 L73,127 L18,127 L18,19 L18,19 Z" id="Shape" fill="#1C4587" sketch:type="MSShapeGroup"></path>
            <path d="M72.8,19 L72.8,23.625 L18,23.625 L18,19 L72.8,19 Z" id="Shape" fill="#CCCCCC" sketch:type="MSShapeGroup"></path>
            <path d="M73,23 L128,23 L128,127 L73,127 L73,23 L73,23 Z" id="Shape" fill="#3C78D8" sketch:type="MSShapeGroup"></path>
            <path d="M20,23 L71,23 L71,127 L20,127 L20,23 L20,23 Z" id="Shape-2" stroke="#C9DAF8" stroke-width="2" sketch:type="MSShapeGroup"></path>
            <path d="M18,17 L73,17 L73,129 L18,129 L18,17 L18,17 Z" id="Shape" stroke="#000000" stroke-width="2" sketch:type="MSShapeGroup"></path>
            <path d="M181,19 L236,19 L236,127 L181,127 L181,19 L181,19 Z" id="Shape-7" fill="#1C4587" sketch:type="MSShapeGroup"></path>
            <path d="M290.8,19 L290.8,23.625 L236,23.625 L236,19 L290.8,19 Z" id="Shape-3" fill="#CCCCCC" sketch:type="MSShapeGroup"></path>
            <path d="M236,23 L291,23 L291,127 L236,127 L236,23 L236,23 Z" id="Shape-4" fill="#3C78D8" sketch:type="MSShapeGroup"></path>
            <path d="M238,23 L289,23 L289,127 L238,127 L238,23 L238,23 Z" id="Shape-5" stroke="#C9DAF8" stroke-width="2" sketch:type="MSShapeGroup"></path>
            <path d="M236,17 L291,17 L291,129 L236,129 L236,17 L236,17 Z" id="Shape-6" stroke="#000000" stroke-width="2" sketch:type="MSShapeGroup"></path>
        </g>
    </g>
</svg>